<svg id="Capa_1" enable-background="new 0 0 512 512" height="512" viewBox="0 0 512 512" width="512" xmlns="http://www.w3.org/2000/svg"><g><path d="m352.664 224.227v78.64h-156.664l60-126.441h48.863c26.397 0 47.801 21.405 47.801 47.801z" fill="#0ea8ed"/><path d="m256 176.426v126.441h-96.664v-78.64c0-26.397 21.404-47.801 47.801-47.801z" fill="#33c0ff"/><path d="m144.336 418.266h30v93.734h-30z" fill="#bae9ff"/><path d="m337.664 418.266h30v93.734h-30z" fill="#a6cfe7"/><path d="m431.398 321.602v126.664h-175.398l-60-126.664z" fill="#2d3e53"/><path d="m80.602 321.602h175.398v126.664h-175.398z" fill="#435d7a"/><path d="m416.398 321.602h63.734v190.398h-63.734z" fill="#a6cfe7"/><path d="m31.867 321.602h63.734v190.398h-63.734z" fill="#bae9ff"/><path d="m256 272.867-30 31.867 30 31.868h256v-63.735z" fill="#435d7a"/><path d="m0 272.867h256v63.734h-256z" fill="#5a7ba0"/><path d="m331.106 21.213-21.212-21.213-53.894 53.894-15 21.212 15 21.213 53.894 53.894 21.212-21.213-53.893-53.894z" fill="#ff3187"/><path d="m202.106 0-21.212 21.213 53.893 53.893-53.893 53.894 21.212 21.213 53.894-53.894v-42.425z" fill="#ff6984"/></g></svg>