<?xml version="1.0" encoding="iso-8859-1"?>
<!-- Generator: Adobe Illustrator 19.0.0, SVG Export Plug-In . SVG Version: 6.00 Build 0)  -->
<svg version="1.1" id="Layer_1" xmlns="http://www.w3.org/2000/svg" xmlns:xlink="http://www.w3.org/1999/xlink" x="0px" y="0px"
	 viewBox="0 0 503.322 503.322" style="enable-background:new 0 0 503.322 503.322;" xml:space="preserve">
<g transform="translate(1)">
	<path style="fill:#546080;" d="M294.051,34.712V17.356C294.051,7.81,286.241,0,276.695,0h-52.068
		c-9.546,0-17.356,7.81-17.356,17.356v17.356h-26.034c-4.339,0-8.678,4.339-8.678,8.678v34.712c0,5.207,3.471,8.678,8.678,8.678
		h138.847c5.207,0,8.678-3.471,8.678-8.678V43.39c0-5.207-3.471-8.678-8.678-8.678H294.051z"/>
	<path style="fill:#EFEADD;" d="M328.763,60.746v17.356c0,5.207-3.471,8.678-8.678,8.678H181.237c-5.207,0-8.678-3.471-8.678-8.678
		V60.746h-26.034c-19.092,0-34.712,15.62-34.712,34.712v277.695c0,19.092,15.62,34.712,34.712,34.712h208.271
		c19.092,0,34.712-15.62,34.712-34.712V95.458c0-19.092-15.62-34.712-34.712-34.712H328.763z"/>
	<path style="fill:#26B999;" d="M337.441,242.983c0-47.729-39.051-86.78-86.78-86.78s-86.78,39.051-86.78,86.78
		s39.051,86.78,86.78,86.78S337.441,290.712,337.441,242.983"/>
	<path style="fill:#FFFFFF;" d="M241.983,286.373c-2.603,0-4.339-0.868-6.075-2.603l-26.034-26.034
		c-3.471-3.471-3.471-8.678,0-12.149c3.471-3.471,8.678-3.471,12.149,0l18.224,18.224l37.315-59.878
		c2.603-4.339,7.81-5.207,12.149-2.603c4.339,2.603,5.207,7.81,2.603,12.149l-43.39,69.424c-1.736,2.603-3.471,3.471-6.075,4.339
		C242.851,286.373,241.983,286.373,241.983,286.373z"/>
</g>
</svg>
