<svg
    xmlns="http://www.w3.org/2000/svg"
    viewBox="0 0 64 64"
    id="vector">
    <path
        id="path"
        d="M 13 25 L 13 43 L 51 43 L 51 39 L 17 39 L 17 21 L 13 21 L 13 25 Z"
        fill="#4e901e"
        stroke-width="1"/>
    <path
        id="path_1"
        d="M 13 25 L 9 25 L 9 47 L 47 47 L 47 43 L 13 43 L 13 25 Z"
        fill="#447e1a"
        stroke-width="1"/>
    <path
        id="path_2"
        d="M 48 60 L 49 52 L 41 52 L 43.29 54.29 C 39.026 56.461 34.227 57.357 29.467 56.871 C 24.706 56.385 20.187 54.538 16.45 51.55 L 13.59 54.41 C 18.114 58.123 23.654 60.382 29.484 60.89 C 35.314 61.399 41.162 60.133 46.26 57.26 L 48 60 Z M 47.55 12.45 L 50.41 9.59 C 45.886 5.877 40.346 3.618 34.516 3.11 C 28.686 2.601 22.838 3.867 17.74 6.74 L 16 4 L 15 12 L 23 12 L 20.71 9.71 C 24.974 7.539 29.773 6.643 34.533 7.129 C 39.294 7.615 43.813 9.462 47.55 12.45 Z"
        fill="#ed1c24"
        stroke-width="1"/>
    <path
        id="path_3"
        d="M 55 17 L 17 17 L 17 39 L 55 39 L 55 17 Z"
        fill="#7ed63e"
        stroke-width="1"/>
    <path
        id="path_4"
        d="M 48 21 L 24 21 C 24 21.796 23.684 22.559 23.121 23.121 C 22.559 23.684 21.796 24 21 24 L 21 32 C 21.796 32 22.559 32.316 23.121 32.879 C 23.684 33.441 24 34.204 24 35 L 48 35 C 48 34.204 48.316 33.441 48.879 32.879 C 49.441 32.316 50.204 32 51 32 L 51 24 C 50.204 24 49.441 23.684 48.879 23.121 C 48.316 22.559 48 21.796 48 21 Z"
        fill="#4e901e"
        stroke-width="1"/>
    <path
        id="path_5"
        d="M 51 28 L 51 32 C 50.204 32 49.441 32.316 48.879 32.879 C 48.316 33.441 48 34.204 48 35 L 24 35 C 24 34.204 23.684 33.441 23.121 32.879 C 22.559 32.316 21.796 32 21 32 L 21 28 L 17 28 L 17 39 L 55 39 L 55 28 L 51 28 Z"
        fill="#5eac24"
        stroke-width="1"/>
    <path
        id="path_6"
        d="M 21 32 C 21.796 32 22.559 32.316 23.121 32.879 C 23.684 33.441 24 34.204 24 35 L 48 35 C 48 34.204 48.316 33.441 48.879 32.879 C 49.441 32.316 50.204 32 51 32 L 51 28 L 21 28 L 21 32 Z"
        fill="#447e1a"
        stroke-width="1"/>
</svg>
