<?xml version="1.0" encoding="UTF-8" standalone="no"?> <svg width="500" height="500" viewBox="0 0 64 64" fill="none" xmlns="http://www.w3.org/2000/svg">
<path d="M61 13H3V57H61V13Z" fill="#E9F1F2"/>
<path d="M53 18H11V52H53V18Z" fill="#D0D8DA"/>
<path d="M22 18V21H46C47.0609 21 48.0783 21.4214 48.8284 22.1716C49.5786 22.9217 50 23.9391 50 25V51H53V18H22Z" fill="#93999A"/>
<path d="M56 26H49C48.4477 26 48 26.4477 48 27V32C48 32.5523 48.4477 33 49 33H56C56.5523 33 57 32.5523 57 32V27C57 26.4477 56.5523 26 56 26Z" fill="#93999A"/>
<path d="M53 26H57V32C57 32.2652 56.8946 32.5196 56.7071 32.7071C56.5196 32.8946 56.2652 33 56 33H53V26Z" fill="#D0D8DA"/>
<path d="M56 38H49C48.4477 38 48 38.4477 48 39V44C48 44.5523 48.4477 45 49 45H56C56.5523 45 57 44.5523 57 44V39C57 38.4477 56.5523 38 56 38Z" fill="#93999A"/>
<path d="M53 38H57V44C57 44.2652 56.8946 44.5196 56.7071 44.7071C56.5196 44.8946 56.2652 45 56 45H53V38Z" fill="#D0D8DA"/>
<path d="M55 57H49V61H55V57Z" fill="#D0D8DA"/>
<path d="M61 47V57H3V13H17V27C16.9976 31.5091 18.528 35.8851 21.34 39.41C21.1138 38.6267 20.9994 37.8153 21 37C20.9992 35.2488 21.5093 33.5353 22.4678 32.0697C23.4263 30.6041 24.7916 29.4499 26.3963 28.7487C28.0011 28.0475 29.7755 27.8297 31.5022 28.122C33.2288 28.4143 34.8327 29.204 36.1173 30.3943C37.4018 31.5846 38.3111 33.1238 38.7339 34.8232C39.1566 36.5227 39.0743 38.3086 38.4971 39.962C37.92 41.6153 36.873 43.0644 35.4844 44.1316C34.0959 45.1988 32.4262 45.8377 30.68 45.97C32.7178 46.6501 34.8517 46.9979 37 47H61Z" fill="#D0D8DA"/>
<path d="M15 57H9V61H15V57Z" fill="#D0D8DA"/>
<path d="M37 47C34.8517 46.9979 32.7178 46.6501 30.68 45.97C32.4262 45.8377 34.0959 45.1988 35.4844 44.1316C36.873 43.0644 37.92 41.6153 38.4971 39.962C39.0743 38.3086 39.1566 36.5227 38.7339 34.8232C38.3111 33.1238 37.4018 31.5846 36.1173 30.3943C34.8327 29.204 33.2288 28.4143 31.5022 28.122C29.7755 27.8297 28.0011 28.0475 26.3963 28.7487C24.7916 29.4499 23.4263 30.6041 22.4678 32.0697C21.5093 33.5353 20.9992 35.2488 21 37C20.9994 37.8153 21.1138 38.6267 21.34 39.41C18.528 35.8851 16.9976 31.5091 17 27V18H11V52H53V47H37Z" fill="#93999A"/>
<path d="M57 26H49V32H57V26Z" fill="#84D2F4"/>
<path d="M57 38H49V44H57V38Z" fill="#84D2F4"/>
<path d="M57 30V32H49V26H51C51 27.0609 51.4214 28.0783 52.1716 28.8284C52.9217 29.5786 53.9391 30 55 30H57Z" fill="#57B7EB"/>
<path d="M57 42V44H49V38H51C51 39.0609 51.4214 40.0783 52.1716 40.8284C52.9217 41.5786 53.9391 42 55 42H57Z" fill="#57B7EB"/>
<path d="M55 57V59H54C53.3799 58.997 52.7745 59.1883 52.2687 59.547C51.763 59.9057 51.3822 60.4138 51.18 61H49V57H55Z" fill="#93999A"/>
<path d="M15 57V59H14C13.3799 58.997 12.7745 59.1883 12.2687 59.547C11.763 59.9057 11.3822 60.4138 11.18 61H9V57H15Z" fill="#93999A"/>
<path d="M21 11H7V25H21V11Z" fill="#F9E109"/>
<path d="M14 19C15.1046 19 16 18.1046 16 17C16 15.8954 15.1046 15 14 15C12.8954 15 12 15.8954 12 17C12 18.1046 12.8954 19 14 19Z" fill="#E59730"/>
<path d="M21 22V25H7V11H10V16C10 17.5913 10.6321 19.1174 11.7574 20.2426C12.8826 21.3679 14.4087 22 16 22H21Z" fill="#FCBC04"/>
<path d="M32 44C36.9706 44 41 39.9706 41 35C41 30.0294 36.9706 26 32 26C27.0294 26 23 30.0294 23 35C23 39.9706 27.0294 44 32 44Z" fill="#57B7EB"/>
<path d="M32 37C33.1046 37 34 36.1046 34 35C34 33.8954 33.1046 33 32 33C30.8954 33 30 33.8954 30 35C30 36.1046 30.8954 37 32 37Z" fill="#84D2F4"/>
<path d="M32 28C30.6155 28 29.2622 28.4105 28.111 29.1797C26.9599 29.9489 26.0627 31.0421 25.5328 32.3212C25.003 33.6003 24.8644 35.0078 25.1345 36.3656C25.4046 37.7235 26.0713 38.9708 27.0503 39.9497C28.0292 40.9287 29.2765 41.5954 30.6344 41.8655C31.9922 42.1356 33.3997 41.997 34.6788 41.4672C35.9579 40.9373 37.0511 40.0401 37.8203 38.889C38.5895 37.7378 39 36.3845 39 35C39 33.1435 38.2625 31.363 36.9498 30.0503C35.637 28.7375 33.8565 28 32 28V28ZM36.2 40.465C35.968 40.483 35.736 40.5 35.5 40.5C33.1131 40.5 30.8239 39.5518 29.136 37.864C27.4482 36.1761 26.5 33.8869 26.5 31.5C26.5 31.264 26.517 31.032 26.535 30.8C27.8781 29.9356 29.4767 29.557 31.0648 29.7272C32.653 29.8974 34.135 30.6061 35.2645 31.7355C36.3939 32.865 37.1026 34.347 37.2728 35.9352C37.4431 37.5233 37.0644 39.1219 36.2 40.465V40.465Z" fill="#4891D3"/>
<path d="M3 41C3.26522 41 3.51957 40.8946 3.70711 40.7071C3.89464 40.5196 4 40.2652 4 40V14H6V17C6 17.2652 6.10536 17.5196 6.29289 17.7071C6.48043 17.8946 6.73478 18 7 18C7.26522 18 7.51957 17.8946 7.70711 17.7071C7.89464 17.5196 8 17.2652 8 17V12H20V24H8V21C8 20.7348 7.89464 20.4804 7.70711 20.2929C7.51957 20.1054 7.26522 20 7 20C6.73478 20 6.48043 20.1054 6.29289 20.2929C6.10536 20.4804 6 20.7348 6 21V25C6 25.2652 6.10536 25.5196 6.29289 25.7071C6.48043 25.8946 6.73478 26 7 26H21C21.2652 26 21.5196 25.8946 21.7071 25.7071C21.8946 25.5196 22 25.2652 22 25V19H52V25H49C48.7348 25 48.4804 25.1054 48.2929 25.2929C48.1054 25.4804 48 25.7348 48 26V32C48 32.2652 48.1054 32.5196 48.2929 32.7071C48.4804 32.8946 48.7348 33 49 33H52V37H49C48.7348 37 48.4804 37.1054 48.2929 37.2929C48.1054 37.4804 48 37.7348 48 38V44C48 44.2652 48.1054 44.5196 48.2929 44.7071C48.4804 44.8946 48.7348 45 49 45H57C57.2652 45 57.5196 44.8946 57.7071 44.7071C57.8946 44.5196 58 44.2652 58 44V38C58 37.7348 57.8946 37.4804 57.7071 37.2929C57.5196 37.1054 57.2652 37 57 37H54V33H57C57.2652 33 57.5196 32.8946 57.7071 32.7071C57.8946 32.5196 58 32.2652 58 32V26C58 25.7348 57.8946 25.4804 57.7071 25.2929C57.5196 25.1054 57.2652 25 57 25H54V18C54 17.7348 53.8946 17.4804 53.7071 17.2929C53.5196 17.1054 53.2652 17 53 17H22V11C22 10.7348 21.8946 10.4804 21.7071 10.2929C21.5196 10.1054 21.2652 10 21 10H19V7C19 5.67392 18.4732 4.40215 17.5355 3.46447C16.5979 2.52678 15.3261 2 14 2C12.6739 2 11.4021 2.52678 10.4645 3.46447C9.52678 4.40215 9 5.67392 9 7V10H7C6.73478 10 6.48043 10.1054 6.29289 10.2929C6.10536 10.4804 6 10.7348 6 11V12H3C2.73478 12 2.48043 12.1054 2.29289 12.2929C2.10536 12.4804 2 12.7348 2 13V40C2 40.2652 2.10536 40.5196 2.29289 40.7071C2.48043 40.8946 2.73478 41 3 41ZM56 43H50V39H56V43ZM56 31H50V27H56V31ZM11 7C11 6.20435 11.3161 5.44129 11.8787 4.87868C12.4413 4.31607 13.2044 4 14 4C14.7956 4 15.5587 4.31607 16.1213 4.87868C16.6839 5.44129 17 6.20435 17 7V10H11V7Z" fill="#464A51"/>
<path d="M61 23C60.7348 23 60.4804 23.1054 60.2929 23.2929C60.1054 23.4804 60 23.7348 60 24V56H4V44C4 43.7348 3.89464 43.4804 3.70711 43.2929C3.51957 43.1054 3.26522 43 3 43C2.73478 43 2.48043 43.1054 2.29289 43.2929C2.10536 43.4804 2 43.7348 2 44V57C2 57.2652 2.10536 57.5196 2.29289 57.7071C2.48043 57.8946 2.73478 58 3 58H8V61C8 61.2652 8.10536 61.5196 8.29289 61.7071C8.48043 61.8946 8.73478 62 9 62H15C15.2652 62 15.5196 61.8946 15.7071 61.7071C15.8946 61.5196 16 61.2652 16 61V58H54V60H49C48.7348 60 48.4804 60.1054 48.2929 60.2929C48.1054 60.4804 48 60.7348 48 61C48 61.2652 48.1054 61.5196 48.2929 61.7071C48.4804 61.8946 48.7348 62 49 62H55C55.2652 62 55.5196 61.8946 55.7071 61.7071C55.8946 61.5196 56 61.2652 56 61V58H61C61.2652 58 61.5196 57.8946 61.7071 57.7071C61.8946 57.5196 62 57.2652 62 57V24C62 23.7348 61.8946 23.4804 61.7071 23.2929C61.5196 23.1054 61.2652 23 61 23ZM14 60H10V58H14V60Z" fill="#464A51"/>
<path d="M61 12H25C24.7348 12 24.4804 12.1054 24.2929 12.2929C24.1054 12.4804 24 12.7348 24 13C24 13.2652 24.1054 13.5196 24.2929 13.7071C24.4804 13.8946 24.7348 14 25 14H60V20C60 20.2652 60.1054 20.5196 60.2929 20.7071C60.4804 20.8946 60.7348 21 61 21C61.2652 21 61.5196 20.8946 61.7071 20.7071C61.8946 20.5196 62 20.2652 62 20V13C62 12.7348 61.8946 12.4804 61.7071 12.2929C61.5196 12.1054 61.2652 12 61 12Z" fill="#464A51"/>
<path d="M11 28C10.7348 28 10.4804 28.1054 10.2929 28.2929C10.1054 28.4804 10 28.7348 10 29V52C10 52.2652 10.1054 52.5196 10.2929 52.7071C10.4804 52.8946 10.7348 53 11 53H53C53.2652 53 53.5196 52.8946 53.7071 52.7071C53.8946 52.5196 54 52.2652 54 52V48C54 47.7348 53.8946 47.4804 53.7071 47.2929C53.5196 47.1054 53.2652 47 53 47C52.7348 47 52.4804 47.1054 52.2929 47.2929C52.1054 47.4804 52 47.7348 52 48V51H12V29C12 28.7348 11.8946 28.4804 11.7071 28.2929C11.5196 28.1054 11.2652 28 11 28Z" fill="#464A51"/>
<path d="M14 22C14.2652 22 14.5196 21.8947 14.7071 21.7071C14.8946 21.5196 15 21.2652 15 21V19.816C15.6672 19.5801 16.2296 19.1159 16.5876 18.5055C16.9457 17.8951 17.0765 17.1778 16.9568 16.4803C16.8371 15.7828 16.4747 15.15 15.9337 14.6939C15.3926 14.2378 14.7077 13.9876 14 13.9876C13.2923 13.9876 12.6074 14.2378 12.0663 14.6939C11.5253 15.15 11.1629 15.7828 11.0432 16.4803C10.9235 17.1778 11.0543 17.8951 11.4124 18.5055C11.7705 19.1159 12.3328 19.5801 13 19.816V21C13 21.2652 13.1054 21.5196 13.2929 21.7071C13.4804 21.8947 13.7348 22 14 22ZM14 16C14.1978 16 14.3911 16.0587 14.5556 16.1685C14.72 16.2784 14.8482 16.4346 14.9239 16.6173C14.9996 16.8 15.0194 17.0011 14.9808 17.1951C14.9422 17.3891 14.847 17.5673 14.7071 17.7071C14.5673 17.847 14.3891 17.9422 14.1951 17.9808C14.0011 18.0194 13.8 17.9996 13.6173 17.9239C13.4346 17.8482 13.2784 17.72 13.1685 17.5556C13.0587 17.3911 13 17.1978 13 17C13 16.7348 13.1054 16.4804 13.2929 16.2929C13.4804 16.1054 13.7348 16 14 16V16Z" fill="#464A51"/>
<path d="M29 35C29 35.5933 29.1759 36.1734 29.5056 36.6667C29.8352 37.1601 30.3038 37.5446 30.8519 37.7716C31.4001 37.9987 32.0033 38.0581 32.5853 37.9424C33.1672 37.8266 33.7018 37.5409 34.1213 37.1213C34.5409 36.7018 34.8266 36.1672 34.9424 35.5853C35.0581 35.0033 34.9987 34.4001 34.7716 33.852C34.5446 33.3038 34.1601 32.8352 33.6667 32.5056C33.1734 32.1759 32.5933 32 32 32C31.2044 32 30.4413 32.3161 29.8787 32.8787C29.3161 33.4413 29 34.2044 29 35V35ZM33 35C33 35.1978 32.9414 35.3911 32.8315 35.5556C32.7216 35.72 32.5654 35.8482 32.3827 35.9239C32.2 35.9996 31.9989 36.0194 31.8049 35.9808C31.6109 35.9422 31.4327 35.847 31.2929 35.7071C31.153 35.5673 31.0578 35.3891 31.0192 35.1951C30.9806 35.0011 31.0004 34.8 31.0761 34.6173C31.1518 34.4346 31.28 34.2784 31.4444 34.1685C31.6089 34.0586 31.8022 34 32 34C32.2652 34 32.5196 34.1054 32.7071 34.2929C32.8946 34.4804 33 34.7348 33 35Z" fill="#464A51"/>
<path d="M22 35C21.9964 36.4603 22.3126 37.9036 22.9265 39.2286C23.5403 40.5536 24.437 41.7281 25.5533 42.6695C26.6696 43.6109 27.9786 44.2964 29.3882 44.6777C30.7978 45.0591 32.2738 45.1272 33.7125 44.8771C35.1512 44.627 36.5177 44.0649 37.7159 43.2302C38.9141 42.3955 39.915 41.3085 40.6482 40.0457C41.3814 38.7828 41.8291 37.3746 41.9598 35.9202C42.0906 34.4658 41.9012 33.0004 41.405 31.627C41.3606 31.5034 41.2923 31.3897 41.204 31.2924C41.1157 31.1952 41.0091 31.1163 40.8902 31.0603C40.7714 31.0042 40.6427 30.9721 40.5115 30.9658C40.3803 30.9595 40.2491 30.9791 40.1255 31.0235C40.0019 31.0679 39.8882 31.1362 39.7909 31.2245C39.6937 31.3128 39.6148 31.4194 39.5588 31.5383C39.5027 31.6571 39.4706 31.7858 39.4643 31.917C39.458 32.0482 39.4776 32.1794 39.522 32.303C39.7078 32.8245 39.8398 33.3636 39.916 33.912H38.916C38.6508 33.912 38.3964 34.0174 38.2089 34.2049C38.0214 34.3924 37.916 34.6468 37.916 34.912C37.916 35.1772 38.0214 35.4316 38.2089 35.6191C38.3964 35.8066 38.6508 35.912 38.916 35.912H39.948C39.7819 37.3446 39.2288 38.705 38.348 39.847L37.593 39.092C37.4044 38.9098 37.1518 38.809 36.8896 38.8113C36.6274 38.8136 36.3766 38.9188 36.1912 39.1042C36.0058 39.2896 35.9006 39.5404 35.8983 39.8026C35.896 40.0648 35.9968 40.3174 36.179 40.506L36.947 41.274C35.8075 42.1766 34.4424 42.7497 33 42.931V41.824C33 41.5588 32.8946 41.3044 32.7071 41.1169C32.5196 40.9294 32.2652 40.824 32 40.824C31.7348 40.824 31.4804 40.9294 31.2929 41.1169C31.1054 41.3044 31 41.5588 31 41.824V42.931C29.5573 42.7499 28.1918 42.1768 27.052 41.274L27.82 40.506C28.0022 40.3174 28.103 40.0648 28.1007 39.8026C28.0984 39.5404 27.9932 39.2896 27.8078 39.1042C27.6224 38.9188 27.3716 38.8136 27.1094 38.8113C26.8472 38.809 26.5946 38.9098 26.406 39.092L25.651 39.847C24.772 38.7044 24.2206 37.3441 24.056 35.912H25.088C25.3532 35.912 25.6076 35.8066 25.7951 35.6191C25.9826 35.4316 26.088 35.1772 26.088 34.912C26.088 34.6468 25.9826 34.3924 25.7951 34.2049C25.6076 34.0174 25.3532 33.912 25.088 33.912H24.083C24.2754 32.5015 24.8428 31.1685 25.726 30.052L26.406 30.731C26.5946 30.9132 26.8472 31.0139 27.1094 31.0117C27.3716 31.0094 27.6224 30.9042 27.8078 30.7188C27.9932 30.5334 28.0984 30.2826 28.1007 30.0204C28.103 29.7582 28.0022 29.5056 27.82 29.317L27.153 28.651C28.2723 27.7918 29.6 27.2458 31 27.069V28C31 28.2652 31.1054 28.5196 31.2929 28.7071C31.4804 28.8946 31.7348 29 32 29C32.2652 29 32.5196 28.8946 32.7071 28.7071C32.8946 28.5196 33 28.2652 33 28V27.081C34.4004 27.2489 35.7306 27.7878 36.853 28.642L36.179 29.319C36.0815 29.4109 36.0035 29.5215 35.9496 29.6442C35.8957 29.7669 35.867 29.8991 35.8653 30.0331C35.8635 30.1671 35.8886 30.3 35.9392 30.4241C35.9898 30.5482 36.0648 30.6608 36.1598 30.7553C36.2548 30.8498 36.3678 30.9243 36.4921 30.9743C36.6164 31.0242 36.7495 31.0487 36.8835 31.0463C37.0174 31.0438 37.1495 31.0145 37.2719 30.96C37.3943 30.9055 37.5045 30.8269 37.596 30.729L39.023 29.3C39.1158 29.2066 39.1893 29.0958 39.2392 28.974C39.2891 28.8522 39.3144 28.7217 39.3138 28.59C39.3131 28.4584 39.2865 28.3282 39.2354 28.2068C39.1843 28.0855 39.1097 27.9754 39.016 27.883C37.6119 26.5005 35.8307 25.5637 33.8959 25.1901C31.9612 24.8165 29.9592 25.0228 28.1414 25.7831C26.3235 26.5435 24.7708 27.8239 23.6782 29.4637C22.5855 31.1035 22.0017 33.0295 22 35V35Z" fill="#464A51"/>
<path d="M15 49C15.5523 49 16 48.5523 16 48C16 47.4477 15.5523 47 15 47C14.4477 47 14 47.4477 14 48C14 48.5523 14.4477 49 15 49Z" fill="#464A51"/>
<path d="M15 40C15.5523 40 16 39.5523 16 39C16 38.4477 15.5523 38 15 38C14.4477 38 14 38.4477 14 39C14 39.5523 14.4477 40 15 40Z" fill="#464A51"/>
<path d="M32 49C32.5523 49 33 48.5523 33 48C33 47.4477 32.5523 47 32 47C31.4477 47 31 47.4477 31 48C31 48.5523 31.4477 49 32 49Z" fill="#464A51"/>
<path d="M41 49C41.5523 49 42 48.5523 42 48C42 47.4477 41.5523 47 41 47C40.4477 47 40 47.4477 40 48C40 48.5523 40.4477 49 41 49Z" fill="#464A51"/>
<path d="M22 49C22.5523 49 23 48.5523 23 48C23 47.4477 22.5523 47 22 47C21.4477 47 21 47.4477 21 48C21 48.5523 21.4477 49 22 49Z" fill="#464A51"/>
<path d="M32 23C32.5523 23 33 22.5523 33 22C33 21.4477 32.5523 21 32 21C31.4477 21 31 21.4477 31 22C31 22.5523 31.4477 23 32 23Z" fill="#464A51"/>
<path d="M41 23C41.5523 23 42 22.5523 42 22C42 21.4477 41.5523 21 41 21C40.4477 21 40 21.4477 40 22C40 22.5523 40.4477 23 41 23Z" fill="#464A51"/>
<path d="M15 30C15.5523 30 16 29.5523 16 29C16 28.4477 15.5523 28 15 28C14.4477 28 14 28.4477 14 29C14 29.5523 14.4477 30 15 30Z" fill="#464A51"/>
<path d="M49 49C49.5523 49 50 48.5523 50 48C50 47.4477 49.5523 47 49 47C48.4477 47 48 47.4477 48 48C48 48.5523 48.4477 49 49 49Z" fill="#464A51"/>
<path d="M49 23C49.5523 23 50 22.5523 50 22C50 21.4477 49.5523 21 49 21C48.4477 21 48 21.4477 48 22C48 22.5523 48.4477 23 49 23Z" fill="#464A51"/>
</svg>
