<svg id="SvgjsSvg1011" width="288" height="288" xmlns="http://www.w3.org/2000/svg" version="1.1" xmlns:xlink="http://www.w3.org/1999/xlink" xmlns:svgjs="http://svgjs.com/svgjs"><circle id="SvgjsCircle1017" r="144" cx="144" cy="144" transform="matrix(0.7916,0,0,0.7916,30.009600000000006,30.009600000000006)" fill="#ececec"></circle><defs id="SvgjsDefs1012"></defs><g id="SvgjsG1013" transform="matrix(0.56,0,0,0.56,63.360003776550286,63.3599974822998)"><svg xmlns="http://www.w3.org/2000/svg" width="288" height="288" viewBox="0 0 1792 1792"><path d="M1088 832q0-26-19-45t-45-19h-256q-26 0-45 19t-19 45 19 45 45 19h256q26 0 45-19t19-45zm576-192v960q0 26-19 45t-45 19h-1408q-26 0-45-19t-19-45v-960q0-26 19-45t45-19h1408q26 0 45 19t19 45zm64-448v256q0 26-19 45t-45 19h-1536q-26 0-45-19t-19-45v-256q0-26 19-45t45-19h1536q26 0 45 19t19 45z" fill="#364f6b" class="color000 svgShape"></path></svg></g></svg>