<svg id="SvgjsSvg1029" width="288" height="288" xmlns="http://www.w3.org/2000/svg" version="1.1" xmlns:xlink="http://www.w3.org/1999/xlink" xmlns:svgjs="http://svgjs.com/svgjs"><circle id="SvgjsCircle1036" r="144" cx="144" cy="144" transform="matrix(0.7916,0,0,0.7916,30.009600000000006,30.009600000000006)" fill="#ececec"></circle><defs id="SvgjsDefs1030"></defs><g id="SvgjsG1031" transform="matrix(0.75,0,0,0.75,35.999999046325684,35.999999046325684)"><svg xmlns="http://www.w3.org/2000/svg" fill-rule="evenodd" stroke-linejoin="round" stroke-miterlimit="2" clip-rule="evenodd" viewBox="0 0 500 500" width="288" height="288"><circle cx="250" cy="250" r="206.044" fill="#f12222" class="colorf12222 svgShape"></circle><path fill="#ffffff" d="M386.035,239.079C386.035,235.44 382.135,232.486 377.332,232.486L139.793,232.486C134.99,232.486 131.09,235.44 131.09,239.079L131.09,269.848C131.09,273.487 134.99,276.442 139.793,276.442L377.332,276.442C382.135,276.442 386.035,273.487 386.035,269.848L386.035,239.079Z" transform="matrix(1 0 0 1.32 -8.562 -85.892)" class="colorfff svgShape"></path></svg></g></svg>