<svg id="SvgjsSvg1048" width="288" height="288" xmlns="http://www.w3.org/2000/svg" version="1.1" xmlns:xlink="http://www.w3.org/1999/xlink" xmlns:svgjs="http://svgjs.com/svgjs"><circle id="SvgjsCircle1054" r="144" cx="144" cy="144" transform="matrix(0.7916,0,0,0.7916,30.009600000000006,30.009600000000006)" fill="#ececec"></circle><defs id="SvgjsDefs1049"></defs><g id="SvgjsG1050" transform="matrix(0.59,0,0,0.59,59.040230216502394,59.045341148376465)"><svg xmlns="http://www.w3.org/2000/svg" width="288" height="288" viewBox="0 0 184.005 138.017"><path fill="#286ff9" d="M182.316,22.02,165.991,5.694a5.758,5.758,0,0,0-8.16,0L74.364,93.813,26.521,45.947a5.848,5.848,0,0,0-8.269,0L1.713,62.5a5.848,5.848,0,0,0,0,8.269l68.044,69.626a5.664,5.664,0,0,0,4.825,1.553,5.728,5.728,0,0,0,4.991-1.553L182.316,30.185a5.775,5.775,0,0,0,0-8.166Z" transform="translate(-.001 -3.999)" class="color286ff9 svgShape"></path></svg></g></svg>