<?xml version="1.0" encoding="UTF-8" standalone="no"?> <svg width="512" height="512" viewBox="0 0 512 512" fill="none" xmlns="http://www.w3.org/2000/svg">
<path d="M448 322.073V257.762C447.989 250.165 446.324 242.661 443.122 235.771L406.87 158.09C401.535 146.726 393.081 137.112 382.492 130.368C371.903 123.624 359.616 120.029 347.062 120H346C337.278 120.011 328.776 122.733 321.669 127.79C314.562 132.846 309.203 139.986 306.333 148.222L288 139.056V24C288 21.8783 287.157 19.8434 285.657 18.3431C284.157 16.8429 282.122 16 280 16H232C229.878 16 227.843 16.8429 226.343 18.3431C224.843 19.8434 224 21.8783 224 24V139.056L205.676 148.218C202.807 139.98 197.446 132.838 190.338 127.782C183.229 122.726 174.723 120.007 166 120H164.938C152.384 120.029 140.097 123.624 129.508 130.368C118.919 137.112 110.465 146.726 105.13 158.09L68.878 235.771C65.6757 242.661 64.0112 250.165 64 257.762V336C64.0095 344.484 67.384 352.618 73.3831 358.617C79.3822 364.616 87.516 367.99 96 368H155.156C160.425 368.006 165.614 366.707 170.259 364.221C174.905 361.735 178.863 358.137 181.781 353.75L199.267 327.522C204.97 318.984 208.01 308.945 208 298.678V196.944L224 188.944V248C224 250.122 224.843 252.157 226.343 253.657C227.843 255.157 229.878 256 232 256H280C282.122 256 284.157 255.157 285.657 253.657C287.157 252.157 288 250.122 288 248V188.944L304 196.944V298.678C303.99 308.945 307.03 318.984 312.733 327.522L319.301 337.373C306.67 352.028 298.762 370.158 296.614 389.386C294.466 408.613 298.179 428.041 307.265 445.122C316.351 462.203 330.387 476.14 347.532 485.105C364.676 494.07 384.13 497.645 403.342 495.361C422.554 493.077 440.628 485.041 455.193 472.306C469.758 459.571 480.135 442.732 484.963 423.997C489.792 405.262 488.846 385.505 482.25 367.317C475.654 349.129 463.716 333.358 448.001 322.073H448ZM192 298.678C192.007 305.786 189.902 312.736 185.954 318.647L168.469 344.875C167.01 347.069 165.031 348.867 162.708 350.11C160.385 351.353 157.791 352.003 155.156 352H96C91.7581 351.995 87.6913 350.308 84.6918 347.308C81.6924 344.309 80.005 340.242 80 336V257.762C80.0078 252.502 81.1601 247.307 83.377 242.537L119.629 164.855C123.67 156.246 130.075 148.963 138.097 143.854C146.119 138.745 155.428 136.021 164.938 136H166C171.759 136.003 177.354 137.915 181.909 141.438C186.464 144.961 189.723 149.895 191.174 155.468L143.474 179.316C138.813 181.629 134.893 185.2 132.158 189.627C129.423 194.053 127.983 199.157 128 204.36V213.578L97.344 259.562C96.4677 260.876 96 262.42 96 264V296C96 298.122 96.8429 300.157 98.3431 301.657C99.8434 303.157 101.878 304 104 304C106.122 304 108.157 303.157 109.657 301.657C111.157 300.157 112 298.122 112 296V275.1L120 277.767V296C120 298.122 120.843 300.157 122.343 301.657C123.843 303.157 125.878 304 128 304C130.122 304 132.157 303.157 133.657 301.657C135.157 300.157 136 298.122 136 296V272C136 270.321 135.472 268.684 134.49 267.322C133.508 265.96 132.123 264.941 130.53 264.41L116.466 259.722L128 242.422V248C128 250.122 128.843 252.157 130.343 253.657C131.843 255.157 133.878 256 136 256H152V300.687L138.343 314.343C137.6 315.086 137.011 315.968 136.609 316.938C136.207 317.909 136 318.949 136 320V336C136 338.122 136.843 340.157 138.343 341.657C139.843 343.157 141.878 344 144 344C146.122 344 148.157 343.157 149.657 341.657C151.157 340.157 152 338.122 152 336V323.313L165.657 309.657C166.4 308.914 166.989 308.032 167.391 307.062C167.793 306.091 168 305.051 168 304V291.314L170.343 293.657C171.086 294.4 171.968 294.989 172.938 295.391C173.909 295.793 174.949 296 176 296C177.051 296 178.091 295.793 179.062 295.391C180.032 294.989 180.914 294.4 181.657 293.657C182.4 292.914 182.989 292.032 183.391 291.062C183.793 290.091 184 289.051 184 288C184 286.949 183.793 285.909 183.391 284.938C182.989 283.968 182.4 283.086 181.657 282.343L168 268.686V256C170.122 256 172.157 255.157 173.657 253.657C175.157 252.157 176 250.122 176 248V212.944L192 204.944V298.678ZM224 171.056L164.422 200.845C163.093 201.509 161.976 202.531 161.195 203.794C160.414 205.058 160 206.514 160 208V240H144V204.36C143.993 202.13 144.61 199.942 145.782 198.045C146.955 196.148 148.635 194.618 150.633 193.627L224 156.944V171.056ZM272 240H240V224H272V240ZM272 208H240V192H272V208ZM272 176H240V160H272V176ZM272 144H240V128H272V144ZM272 112H240V96H272V112ZM272 80H240V64H272V80ZM272 48H240V32H272V48ZM346 136H347.062C356.572 136.021 365.881 138.745 373.903 143.854C381.925 148.963 388.33 156.246 392.371 164.855L428.623 242.537C430.84 247.307 431.992 252.502 432 257.762V312.741C411.489 303.332 388.317 301.451 366.557 307.429C366.29 307.041 365.989 306.678 365.657 306.343L360 300.687V274.829V256H376C378.122 256 380.157 255.157 381.657 253.657C383.157 252.157 384 250.122 384 248V242.422L395.534 259.722L381.47 264.41C379.877 264.941 378.492 265.96 377.51 267.322C376.528 268.684 376 270.321 376 272V296C376 298.122 376.843 300.157 378.343 301.657C379.843 303.157 381.878 304 384 304C386.122 304 388.157 303.157 389.657 301.657C391.157 300.157 392 298.122 392 296V277.766L400 275.099V296C400 298.122 400.843 300.157 402.343 301.657C403.843 303.157 405.878 304 408 304C410.122 304 412.157 303.157 413.657 301.657C415.157 300.157 416 298.122 416 296V264C416 262.42 415.532 260.876 414.656 259.562L384 213.578V204.36C384.017 199.156 382.576 194.052 379.84 189.626C377.105 185.199 373.184 181.628 368.522 179.316L320.831 155.471C322.284 149.9 325.543 144.968 330.096 141.445C334.65 137.922 340.243 136.007 346 136V136ZM288 171.056V156.944L361.366 193.627C363.364 194.618 365.045 196.148 366.217 198.045C367.39 199.942 368.007 202.13 368 204.36V240H352V208C352 206.514 351.586 205.058 350.805 203.794C350.024 202.531 348.907 201.509 347.578 200.845L288 171.056ZM344 256V268.686L330.343 282.343C328.843 283.843 328 285.878 328 288C328 290.122 328.843 292.157 330.343 293.657C331.843 295.157 333.878 296 336 296C338.122 296 340.157 295.157 341.657 293.657L344 291.314V304C344 305.051 344.207 306.091 344.609 307.062C345.011 308.032 345.6 308.914 346.343 309.657L350.25 313.564C343.339 316.917 336.855 321.085 330.934 325.979L326.046 318.647C322.098 312.736 319.993 305.786 320 298.678V204.944L336 212.944V248C336 250.122 336.843 252.157 338.343 253.657C339.843 255.157 341.878 256 344 256ZM392 480C376.177 480 360.71 475.308 347.554 466.518C334.398 457.727 324.145 445.233 318.09 430.615C312.035 415.997 310.45 399.911 313.537 384.393C316.624 368.874 324.243 354.62 335.431 343.431C346.62 332.243 360.874 324.624 376.393 321.537C391.911 318.45 407.997 320.035 422.615 326.09C437.233 332.145 449.727 342.398 458.518 355.554C467.308 368.71 472 384.177 472 400C471.976 421.21 463.54 441.544 448.542 456.542C433.544 471.54 413.21 479.976 392 480V480ZM448.931 396.742C446.182 396.177 443.332 396.347 440.67 397.233C438.007 398.12 435.624 399.692 433.762 401.792L422.826 399.545C422.682 396.554 422.114 393.598 421.138 390.767L430.46 384.623C433.609 386.201 437.191 386.695 440.649 386.03C444.108 385.365 447.251 383.577 449.59 380.943C451.929 378.31 453.333 374.979 453.586 371.465C453.838 367.952 452.925 364.454 450.987 361.513C449.048 358.572 446.194 356.353 442.866 355.2C439.538 354.047 435.923 354.024 432.58 355.135C429.238 356.246 426.356 358.429 424.38 361.345C422.405 364.261 421.447 367.747 421.655 371.263L412.327 377.41C410.107 375.406 407.616 373.725 404.927 372.417L407.179 361.458C410.521 360.347 413.404 358.164 415.379 355.248C417.354 352.332 418.312 348.846 418.104 345.33C417.896 341.814 416.533 338.465 414.228 335.802C411.922 333.139 408.803 331.311 405.353 330.602C401.903 329.893 398.315 330.343 395.146 331.88C391.978 333.418 389.405 335.958 387.827 339.107C386.249 342.256 385.755 345.838 386.42 349.297C387.085 352.755 388.873 355.898 391.506 358.237L389.254 369.197C386.267 369.339 383.314 369.902 380.484 370.867L374.337 361.54C375.915 358.391 376.409 354.809 375.744 351.351C375.079 347.892 373.291 344.749 370.657 342.41C368.024 340.071 364.692 338.667 361.179 338.414C357.666 338.162 354.168 339.075 351.227 341.014C348.286 342.952 346.067 345.807 344.914 349.135C343.761 352.463 343.738 356.078 344.849 359.421C345.96 362.763 348.143 365.645 351.059 367.62C353.976 369.596 357.462 370.553 360.978 370.345L367.125 379.672C365.121 381.892 363.439 384.383 362.131 387.072L351.172 384.82C350.061 381.478 347.878 378.595 344.962 376.62C342.046 374.644 338.559 373.686 335.043 373.894C331.527 374.103 328.178 375.465 325.515 377.771C322.853 380.076 321.025 383.196 320.316 386.646C319.607 390.096 320.057 393.684 321.595 396.853C323.132 400.021 325.673 402.594 328.822 404.172C331.971 405.749 335.553 406.244 339.012 405.578C342.471 404.913 345.613 403.125 347.952 400.491L358.911 402.744C359.053 405.731 359.615 408.684 360.581 411.514L351.254 417.661C348.105 416.083 344.523 415.589 341.065 416.254C337.606 416.919 334.463 418.707 332.124 421.341C329.785 423.974 328.381 427.306 328.128 430.819C327.876 434.332 328.789 437.83 330.728 440.771C332.666 443.712 335.521 445.931 338.849 447.084C342.177 448.237 345.792 448.26 349.135 447.149C352.477 446.038 355.359 443.855 357.334 440.939C359.31 438.022 360.267 434.536 360.059 431.02L369.381 424.877C371.598 426.89 374.09 428.578 376.781 429.89L374.534 440.826C371.192 441.937 368.31 444.12 366.334 447.036C364.359 449.953 363.402 453.439 363.61 456.955C363.818 460.471 365.181 463.82 367.487 466.483C369.792 469.145 372.912 470.973 376.362 471.681C379.812 472.39 383.4 471.941 386.568 470.403C389.737 468.865 392.31 466.325 393.887 463.176C395.465 460.026 395.959 456.445 395.294 452.986C394.628 449.527 392.84 446.385 390.207 444.046L392.457 433.095C395.444 432.95 398.396 432.382 401.223 431.407L407.377 440.743C405.799 443.892 405.305 447.474 405.97 450.932C406.635 454.391 408.423 457.534 411.057 459.873C413.69 462.212 417.022 463.616 420.535 463.869C424.048 464.121 427.546 463.208 430.487 461.269C433.428 459.331 435.647 456.476 436.8 453.148C437.953 449.82 437.976 446.205 436.865 442.862C435.754 439.52 433.571 436.638 430.655 434.663C427.738 432.687 424.252 431.73 420.736 431.938L414.592 422.616C416.606 420.4 418.294 417.908 419.605 415.216L430.541 417.463C431.428 420.127 433.001 422.51 435.101 424.374C437.201 426.237 439.754 427.515 442.505 428.079C445.255 428.643 448.106 428.473 450.769 427.586C453.433 426.699 455.817 425.127 457.68 423.027C459.544 420.927 460.822 418.373 461.386 415.623C461.95 412.872 461.78 410.022 460.893 407.358C460.006 404.694 458.434 402.31 456.334 400.447C454.234 398.583 451.68 397.305 448.93 396.741L448.931 396.742ZM406.531 404.359C406.53 408.443 404.906 412.359 402.018 415.246C399.13 418.133 395.213 419.755 391.129 419.754C387.045 419.754 383.128 418.131 380.241 415.243C377.353 412.355 375.731 408.438 375.731 404.354C375.731 400.271 377.353 396.354 380.241 393.466C383.128 390.578 387.045 388.955 391.129 388.954C395.213 388.954 399.13 390.576 402.018 393.463C404.906 396.35 406.53 400.266 406.531 404.35V404.359Z" fill="url(#paint0_linear_1_12917)"/>
<defs>
<linearGradient id="paint0_linear_1_12917" x1="150.48" y1="435.714" x2="426.754" y2="159.44" gradientUnits="userSpaceOnUse">
<stop stop-color="#41DFD0"/>
<stop offset="1" stop-color="#EE83EF"/>
</linearGradient>
</defs>
</svg>
