<svg xmlns="http://www.w3.org/2000/svg" width="64" height="64" enable-background="new 0 0 64 64" viewBox="0 0 64 64"><path fill="#2B2F64" d="M63.03,9.23H0.97c-0.539,0-0.969,0.44-0.969,0.97v43.6c0,0.54,0.43,0.97,0.969,0.97H63.03
		c0.541,0,0.971-0.43,0.971-0.97V10.2C64.001,9.67,63.571,9.23,63.03,9.23z M62.06,52.83H1.94V11.17H62.06V52.83z"/><path fill="#D7E9F1" d="M1.94,11.17v41.66H62.06V11.17H1.94z M19.761,19.28c0-1.07,0.869-1.94,1.939-1.94h20.6
		c1.07,0,1.941,0.87,1.941,1.94v6.78c0,1.07-0.871,1.94-1.941,1.94H21.7c-1.07,0-1.939-0.87-1.939-1.94V19.28z M55.149,46.67H8.851
		c-0.541,0-0.971-0.43-0.971-0.97s0.43-0.97,0.971-0.97h46.299c0.541,0,0.971,0.43,0.971,0.97S55.69,46.67,55.149,46.67z
		 M7.88,39.48c0-0.54,0.43-0.97,0.971-0.97H26.54c0.541,0,0.971,0.43,0.971,0.97c0,0.53-0.43,0.97-0.971,0.97H8.851
		C8.31,40.45,7.88,40.01,7.88,39.48z M30.87,39.48c0-0.54,0.43-0.97,0.971-0.97h9.01c0.529,0,0.971,0.43,0.971,0.97
		c0,0.53-0.441,0.97-0.971,0.97h-9.01C31.3,40.45,30.87,40.01,30.87,39.48z M55.149,40.45h-9.01c-0.539,0-0.969-0.44-0.969-0.97
		c0-0.54,0.43-0.97,0.969-0.97h9.01c0.541,0,0.971,0.43,0.971,0.97C56.12,40.01,55.69,40.45,55.149,40.45z M55.149,34.23H8.851
		c-0.541,0-0.971-0.44-0.971-0.97c0-0.54,0.43-0.97,0.971-0.97h46.299c0.541,0,0.971,0.43,0.971,0.97
		C56.12,33.79,55.69,34.23,55.149,34.23z"/><path fill="#2B2F64" d="M56.12 45.7c0 .54-.43.97-.971.97H8.851c-.541 0-.971-.43-.971-.97s.43-.97.971-.97h46.299C55.69 44.73 56.12 45.16 56.12 45.7zM27.511 39.48c0 .53-.43.97-.971.97H8.851c-.541 0-.971-.44-.971-.97 0-.54.43-.97.971-.97H26.54C27.081 38.51 27.511 38.94 27.511 39.48zM41.821 39.48c0 .53-.441.97-.971.97h-9.01c-.541 0-.971-.44-.971-.97 0-.54.43-.97.971-.97h9.01C41.38 38.51 41.821 38.94 41.821 39.48zM56.12 39.48c0 .53-.43.97-.971.97h-9.01c-.539 0-.969-.44-.969-.97 0-.54.43-.97.969-.97h9.01C55.69 38.51 56.12 38.94 56.12 39.48zM56.12 33.26c0 .53-.43.97-.971.97H8.851c-.541 0-.971-.44-.971-.97 0-.54.43-.97.971-.97h46.299C55.69 32.29 56.12 32.72 56.12 33.26zM42.3 17.34H21.7c-1.07 0-1.939.87-1.939 1.94v6.78c0 1.07.869 1.94 1.939 1.94h20.6c1.07 0 1.941-.87 1.941-1.94v-6.78C44.241 18.21 43.37 17.34 42.3 17.34zM42.3 26.06H21.7v-6.78h20.6V26.06z"/><rect width="20.6" height="6.78" x="21.7" y="19.28" fill="#FEDC7D"/></svg>