<svg xmlns="http://www.w3.org/2000/svg" enable-background="new 0 0 64 64" viewBox="0 0 64 64"><path fill="#292f64" d="M50.32,49.42H45.7v-3.2c0.44-0.32,0.85-0.65,1.24-1.04v1.49c0,0.53,0.44,0.97,0.97,0.97h2.85
		c1.61,0,2.91-1.31,2.91-2.92V31.61c0-3.46-1.27-6.63-3.36-9.08V6.42c0-1.61-1.31-2.92-2.92-2.92h-1.66V2.73
		C45.73,1.22,44.5,0,42.99,0c-1.51,0-2.73,1.22-2.73,2.73V3.5h-5.29V2.73c0-1.51-1.23-2.73-2.74-2.73c-1.51,0-2.73,1.22-2.73,2.73
		V3.5h-5.29V2.73c0-1.51-1.23-2.73-2.74-2.73c-1.51,0-2.73,1.22-2.73,2.73V3.5h-5.29V2.73c0-1.51-1.23-2.73-2.74-2.73
		C9.15,0,7.93,1.22,7.93,2.73V3.5H6.26c-1.6,0-2.91,1.31-2.91,2.92v4.88l-0.01,0.01c0,0.01,0.01,0.01,0.01,0.02V37.9
		c0,1.6,1.31,2.91,2.91,2.91h19.41v3.92c0,1.61,1.31,2.92,2.91,2.92h2.86c0.53,0,0.97-0.44,0.97-0.97v-1.49
		c0.39,0.38,0.8,0.71,1.23,1.02v3.22h-4.62c-5.69,0-10.33,4.64-10.33,10.34v3.28c0,0.53,0.43,0.97,0.97,0.97h40.01
		c0.53,0,0.97-0.44,0.97-0.97v-3.28C60.65,54.05,56.02,49.42,50.32,49.42z M42.19,4.48C42.19,4.48,42.19,4.48,42.19,4.48V2.73
		c0-0.44,0.36-0.8,0.8-0.8c0.45,0,0.8,0.36,0.8,0.8v3.48c0,0.44-0.36,0.8-0.8,0.8c-0.44,0-0.8-0.36-0.8-0.8V4.48z M31.42,2.73
		c0-0.44,0.36-0.8,0.8-0.8c0.45,0,0.8,0.36,0.8,0.8v3.48c0,0.44-0.36,0.8-0.8,0.8c-0.44,0-0.8-0.36-0.8-0.8V2.73z M20.64,2.73
		c0-0.44,0.36-0.8,0.8-0.8c0.45,0,0.8,0.36,0.8,0.8v1.73c0,0.01-0.01,0.01-0.01,0.01c0,0.01,0.01,0.01,0.01,0.01v1.74
		c0,0.44-0.36,0.8-0.8,0.8c-0.44,0-0.8-0.36-0.8-0.8V2.73z M9.87,4.48C9.87,4.48,9.87,4.48,9.87,4.48V2.73c0-0.44,0.36-0.8,0.8-0.8
		c0.45,0,0.8,0.36,0.8,0.8v3.48c0,0.44-0.36,0.8-0.8,0.8c-0.44,0-0.8-0.36-0.8-0.8V4.48z M5.29,6.42c0-0.54,0.44-0.98,0.97-0.98
		h1.67v0.78c0,1.51,1.22,2.73,2.73,2.73c1.51,0,2.74-1.22,2.74-2.73V5.44h5.29v0.78c0,1.51,1.22,2.73,2.73,2.73
		c1.51,0,2.74-1.22,2.74-2.73V5.44h5.29v0.78c0,1.51,1.22,2.73,2.73,2.73c1.51,0,2.74-1.22,2.74-2.73V5.44h5.29v0.78
		c0,1.51,1.22,2.73,2.73,2.73c1.51,0,2.74-1.22,2.74-2.73V5.44h1.66c0.54,0,0.98,0.44,0.98,0.98v3.92H5.29V6.42z M25.68,31.61v2.82
		h-1.66v-5.62h1.94C25.77,29.72,25.68,30.65,25.68,31.61z M26.52,26.87h-3.47c-0.53,0-0.97,0.44-0.97,0.97v7.56
		c0,0.53,0.44,0.97,0.97,0.97h2.63v2.49H6.26c-0.53,0-0.97-0.44-0.97-0.97V12.28h43.07v8.39c-0.98-0.78-2.06-1.44-3.21-1.93v-3
		c0-0.53-0.44-0.97-0.97-0.97h-7.55c-0.53,0-0.97,0.44-0.97,0.97v2.47c-1.48,0.45-2.86,1.13-4.09,2.01v-4.48
		c0-0.53-0.43-0.97-0.97-0.97h-7.55c-0.53,0-0.97,0.44-0.97,0.97v7.56c0,0.53,0.44,0.97,0.97,0.97h4.73
		C27.28,25.09,26.85,25.96,26.52,26.87z M43.22,16.71v1.39c-1.13-0.3-2.32-0.48-3.55-0.48c-0.7,0-1.39,0.07-2.07,0.17v-1.09H43.22z
		 M29.63,16.71v5.17c-0.14,0.16-0.27,0.3-0.41,0.46h-5.21v-5.62H29.63z M31.32,29.65c-0.48,0.07-0.84,0.48-0.84,0.96V45.7h-1.89
		c-0.53,0-0.97-0.44-0.97-0.98v-4.87c0-0.01,0-0.01,0-0.02c0-0.01,0-0.01,0-0.02v-4.39c0-0.01,0-0.01,0-0.02c0-0.01,0-0.01,0-0.02
		v-3.77c0-6.64,5.41-12.05,12.06-12.05s12.05,5.41,12.05,12.05v13.11c0,0.54-0.44,0.98-0.97,0.98h-1.88V32.55
		c0-0.3-0.15-0.59-0.39-0.78c-0.24-0.17-0.56-0.23-0.85-0.15c-3.13,0.91-8.53-0.98-11.06-4.89c-0.18-0.28-0.49-0.46-0.84-0.45
		c-0.34,0.02-0.65,0.2-0.81,0.49C33.81,28.75,33.17,29.4,31.32,29.65z M32.42,42.11v-10.7c1.7-0.41,2.64-1.26,3.42-2.41
		c2.93,3.44,7.66,5.1,11.1,4.72v8.37c-1.61,2.59-4.31,4.13-7.27,4.13C36.71,46.23,34.03,44.69,32.42,42.11z M43.76,47.32v3.06
		c0,1.49-0.79,2.31-1.69,2.73c-0.9,0.44-1.92,0.49-2.4,0.49c-0.96,0-4.09-0.23-4.09-3.23v-3.07c1.28,0.55,2.67,0.85,4.08,0.85
		C41.11,48.16,42.49,47.87,43.76,47.32z M58.72,62.06H20.64v-2.31c0-4.64,3.76-8.4,8.39-8.4h4.71c0.46,2.55,2.72,4.2,5.93,4.2
		c3.21,0,5.48-1.65,5.93-4.2h4.7c4.63,0,8.4,3.76,8.4,8.4V62.06z"/><path fill="#ffe4a9" d="M46.94,33.73v8.37c-1.61,2.59-4.31,4.13-7.27,4.13c-2.96,0-5.64-1.53-7.25-4.11v-10.7
		c1.7-0.41,2.64-1.26,3.42-2.41C38.77,32.45,43.5,34.1,46.94,33.73z"/><path fill="#ebebec" d="M43.79 2.73v3.48c0 .44-.36.8-.8.8-.44 0-.8-.36-.8-.8V4.48c0 0 0 0 0-.01V2.73c0-.44.36-.8.8-.8C43.43 1.94 43.79 2.3 43.79 2.73zM33.02 2.73v3.48c0 .44-.36.8-.8.8-.44 0-.8-.36-.8-.8V2.73c0-.44.36-.8.8-.8C32.66 1.94 33.02 2.3 33.02 2.73zM11.47 2.73v3.48c0 .44-.36.8-.8.8-.44 0-.8-.36-.8-.8V4.48c0 0 0 0 0-.01V2.73c0-.44.36-.8.8-.8C11.11 1.94 11.47 2.3 11.47 2.73zM22.24 4.46C22.24 4.47 22.24 4.47 22.24 4.46c-.01.02 0 .02 0 .02v1.74c0 .44-.36.8-.8.8-.44 0-.8-.36-.8-.8V2.73c0-.44.36-.8.8-.8.45 0 .8.36.8.8V4.46z"/><path fill="#53be9e" d="M25.96,28.81c-0.18,0.91-0.28,1.84-0.28,2.8v2.82h-1.66v-5.62H25.96z"/><path fill="#ffdb7c" d="M29.63,16.71v5.17c-0.14,0.16-0.27,0.3-0.41,0.46h-5.21v-5.62H29.63z"/><path fill="#f16e61" d="M43.22,16.71v1.39c-1.13-0.3-2.32-0.48-3.55-0.48c-0.7,0-1.39,0.07-2.07,0.17v-1.09H43.22z"/><path fill="#efd298" d="M46.94 40.55v1.54c-1.61 2.59-4.31 4.13-7.27 4.13-2.96 0-5.64-1.53-7.25-4.11v-1.54c1.61 2.62 4.3 4.17 7.25 4.17C42.64 44.74 45.33 43.18 46.94 40.55zM43.76 47.32v3.06c0 1.49-.79 2.31-1.69 2.73-.9.44-1.92.49-2.4.49-.96 0-4.09-.23-4.09-3.23v-3.07c1.28.55 2.67.85 4.08.85C41.11 48.16 42.49 47.87 43.76 47.32z"/><path fill="#f16e61" d="M58.72,59.75v2.31H20.64v-2.31c0-4.64,3.76-8.4,8.39-8.4h4.71c0.46,2.55,2.72,4.2,5.93,4.2
		c3.21,0,5.48-1.65,5.93-4.2h4.7C54.94,51.36,58.72,55.12,58.72,59.75z"/><path fill="#e25f5a" d="M58.72,59.75v2.31H20.64v-2.31c0-4.64,3.76-8.4,8.39-8.4h4.71c0.1,0.53,0.27,1.03,0.51,1.47h-4.15
		c-4.15,0-7.53,2.85-7.53,6.35v1.76h34.21v-1.76c0-3.5-3.39-6.35-7.54-6.35H45.1c0.24-0.45,0.42-0.94,0.51-1.47h4.7
		C54.94,51.36,58.72,55.12,58.72,59.75z"/><path fill="#b6dae7" d="M51.73,31.61v13.11c0,0.54-0.44,0.98-0.97,0.98h-1.88V32.55c0-0.3-0.15-0.59-0.39-0.78
		c-0.24-0.17-0.56-0.23-0.85-0.15c-3.13,0.91-8.53-0.98-11.06-4.89c-0.18-0.28-0.49-0.46-0.84-0.45c-0.34,0.02-0.65,0.2-0.81,0.49
		c-1.11,1.96-1.75,2.61-3.6,2.86c-0.48,0.07-0.84,0.48-0.84,0.96V45.7h-1.89c-0.53,0-0.97-0.44-0.97-0.98v-4.87
		c0-0.01,0-0.01,0-0.02c0-0.01,0-0.01,0-0.02v-4.39c0-0.01,0-0.01,0-0.02c0-0.01,0-0.01,0-0.02v-3.77c0-6.64,5.41-12.05,12.06-12.05
		S51.73,24.97,51.73,31.61z"/><path fill="#9ec1d6" d="M51.73,31.61v13.11c0,0.54-0.44,0.98-0.97,0.98h-1.11c0.48,0,0.87-0.4,0.87-0.88V32.06
		c0-5.97-4.87-10.84-10.85-10.84s-10.86,4.87-10.86,10.84v3.39c0,0.01,0,0.01,0,0.02c0,0.01,0,0.01,0,0.02v3.96
		c0,0.01,0,0.01,0,0.01c0,0.01,0,0.01,0,0.02v5.34c0,0.48,0.4,0.88,0.87,0.88h-1.11c-0.53,0-0.97-0.44-0.97-0.98v-4.87
		c0-0.01,0-0.01,0-0.02c0-0.01,0-0.01,0-0.02v-4.39c0-0.01,0-0.01,0-0.02c0-0.01,0-0.01,0-0.02v-3.77c0-6.64,5.41-12.05,12.06-12.05
		S51.73,24.97,51.73,31.61z"/><path fill="#4ebbe5" d="M48.37,6.42v3.92H5.29V6.42c0-0.54,0.44-0.98,0.97-0.98h1.67v0.78c0,1.51,1.22,2.73,2.73,2.73
		c1.51,0,2.74-1.22,2.74-2.73V5.44h5.29v0.78c0,1.51,1.22,2.73,2.73,2.73c1.51,0,2.74-1.22,2.74-2.73V5.44h5.29v0.78
		c0,1.51,1.22,2.73,2.73,2.73c1.51,0,2.74-1.22,2.74-2.73V5.44h5.29v0.78c0,1.51,1.22,2.73,2.73,2.73c1.51,0,2.74-1.22,2.74-2.73
		V5.44h1.66C47.93,5.44,48.37,5.88,48.37,6.42z"/><path fill="#ebebec" d="M5.29,12.28V37.9c0,0.53,0.44,0.97,0.97,0.97h19.41v-2.49h-2.63c-0.53,0-0.97-0.44-0.97-0.97v-7.56
		c0-0.53,0.44-0.97,0.97-0.97h3.47c0.33-0.91,0.76-1.78,1.26-2.6h-4.73c-0.53,0-0.97-0.44-0.97-0.97v-7.56
		c0-0.53,0.44-0.97,0.97-0.97h7.55c0.54,0,0.97,0.44,0.97,0.97v4.48c1.23-0.87,2.61-1.56,4.09-2.01v-2.47
		c0-0.53,0.44-0.97,0.97-0.97h7.55c0.53,0,0.97,0.44,0.97,0.97v3c1.15,0.49,2.23,1.15,3.21,1.93v-8.39H5.29z M18,35.4
		c0,0.53-0.44,0.97-0.97,0.97H9.46c-0.53,0-0.97-0.44-0.97-0.97v-7.55c0-0.54,0.44-0.97,0.97-0.97h7.56c0.53,0,0.97,0.43,0.97,0.97
		V35.4z M18,23.3c0,0.53-0.44,0.97-0.97,0.97H9.46c-0.53,0-0.97-0.44-0.97-0.97v-7.56c0-0.53,0.44-0.97,0.97-0.97h7.56
		c0.53,0,0.97,0.44,0.97,0.97V23.3z"/><path fill="#38a7d7" d="M48.37 6.42v3.92h-1.81V8.03c0-.48-.4-.87-.9-.87h-.09c.11-.29.16-.61.16-.94V5.44h1.66C47.93 5.44 48.37 5.88 48.37 6.42zM40.43 7.16h-5.63c.11-.29.16-.61.16-.94V5.44h5.29v.78C40.25 6.55 40.31 6.87 40.43 7.16zM29.65 7.16h-5.63c.11-.29.16-.61.16-.94V5.44h5.29v.78C29.48 6.55 29.54 6.87 29.65 7.16zM18.88 7.16h-5.63c.11-.29.16-.61.16-.94V5.44h5.29v.78C18.71 6.55 18.76 6.87 18.88 7.16zM8.11 7.16H8c-.49 0-.89.39-.89.87v2.31H5.29V6.42c0-.54.44-.98.97-.98h1.67v.78C7.93 6.55 7.99 6.87 8.11 7.16z"/><path fill="#d4d5d4" d="M25.68 37.16v1.71H6.26c-.53 0-.97-.44-.97-.97V12.28h1.81v24.01c0 .48.4.87.89.87H25.68zM48.37 12.28v8.39c-.57-.46-1.17-.86-1.81-1.22v-7.17H48.37z"/><path fill="#292f64" d="M17.03,14.77H9.46c-0.53,0-0.97,0.44-0.97,0.97v7.56c0,0.53,0.44,0.97,0.97,0.97h7.56
		c0.53,0,0.97-0.44,0.97-0.97v-7.56C18,15.2,17.56,14.77,17.03,14.77z M16.06,22.33h-5.62v-5.62h5.62V22.33z"/><rect width="5.62" height="5.62" x="10.43" y="16.71" fill="#9ec1d6"/><path fill="#292f64" d="M17.03,26.88H9.46c-0.53,0-0.97,0.43-0.97,0.97v7.55c0,0.53,0.44,0.97,0.97,0.97h7.56
		c0.53,0,0.97-0.44,0.97-0.97v-7.55C18,27.31,17.56,26.88,17.03,26.88z M16.06,34.43h-5.62v-5.61h5.62V34.43z"/><rect width="5.62" height="5.61" x="10.43" y="28.82" fill="#f7ac48"/></svg>