<svg height="511pt" viewBox="-61 0 511 511.99962" width="511pt" xmlns="http://www.w3.org/2000/svg"><path d="m390.023438 194.761719c0 68.554687-35.421876 128.828125-88.953126 163.53125-8.0625 5.238281-14.796874 12.265625-19.535156 20.625l-69.945312 123.5625c-.160156.273437-.316406.535156-.496094.800781-7.472656 11.882812-25.128906 11.621094-32.160156-.800781l-69.945313-123.5625c-4.726562-8.347657-11.449219-15.378907-19.503906-20.59375-54.300781-35.1875-89.976563-96.675781-88.964844-166.433594 1.597657-111.050781 97.503907-200.394531 210.59375-191.246094 100.152344 8.054688 178.910157 91.886719 178.910157 194.117188zm0 0" fill="#44bfd7"/><path d="m390.023438 194.761719c0 68.554687-35.421876 128.828125-88.953126 163.53125-8.0625 5.238281-14.796874 12.265625-19.535156 20.625l-69.945312 123.5625c-.160156.273437-.316406.535156-.496094.800781-.179688-.265625-.339844-.527344-.496094-.800781l-69.945312-123.5625c-4.726563-8.347657-11.453125-15.378907-19.503906-20.59375-54.304688-35.1875-89.976563-96.675781-88.964844-166.433594 1.445312-100.476563 80.097656-183.222656 178.929687-191.246094 100.152344 8.054688 178.910157 91.886719 178.910157 194.117188zm0 0" fill="#7cd2e3"/><path d="m339.066406 194.53125c0 79.4375-64.410156 143.804688-143.804687 143.804688-79.421875 0-143.804688-64.382813-143.804688-143.804688 0-85.367188 74.101563-152.316406 159.636719-142.929688 71.96875 7.886719 127.972656 68.867188 127.972656 142.929688zm0 0" fill="#c2eaf2"/><path d="m339.066406 194.53125c0 74.070312-56.003906 135.054688-127.972656 142.9375-71.972656-7.882812-127.972656-68.867188-127.972656-142.9375 0-74.0625 56-135.042969 127.972656-142.929688 71.96875 7.886719 127.972656 68.867188 127.972656 142.929688zm0 0" fill="#def4f8"/><path d="m288.257812 152.894531-81.925781 88.6875-26.363281 28.539063c-13.699219 14.324218-36.792969 13.617187-49.585938-1.519532l-22.492187-26.238281c-13.550781-16.222656-25.898437-32.148437-26.417969-32.8125-7.9375-10.257812-6.058594-25.003906 4.191406-32.953125 1.773438-1.371094 3.671876-2.449218 5.65625-3.238281 9.488282-3.800781 20.71875-1.046875 27.292969 7.441406 11.855469 15.304688 26.007813 32.589844 36.457031 44.433594 4.949219-5.636719 11.273438-12.601563 19.355469-21.308594 6.828125-7.367187 14.9375-15.980469 24.550781-26.101562 27.683594-29.152344 55.453126-57.511719 55.726563-57.796875 9.066406-9.265625 23.9375-9.425782 33.207031-.347656.78125.769531 1.496094 1.570312 2.140625 2.414062 7.082031 9.132812 6.511719 22.3125-1.792969 30.800781zm0 0" fill="#6dc54a"/><path d="m290.050781 122.09375-75.273437 81.492188-26.367188 28.539062c-13.699218 14.324219-36.792968 13.617188-49.582031-1.519531l-22.492187-26.238281c-11.074219-13.257813-21.34375-26.3125-25.015626-31.007813 9.488282-3.800781 20.71875-1.046875 27.292969 7.441406 11.855469 15.304688 26.007813 32.589844 36.457031 44.433594 4.949219-5.636719 11.273438-12.601563 19.355469-21.308594 6.828125-7.367187 14.9375-15.980469 24.550781-26.101562 27.683594-29.152344 55.453126-57.511719 55.726563-57.796875 9.066406-9.265625 23.9375-9.425782 33.207031-.347656.78125.769531 1.496094 1.570312 2.140625 2.414062zm0 0" fill="#82cd64"/></svg>