<?xml version="1.0" encoding="UTF-8" standalone="no"?> <svg width="64" height="64" viewBox="0 0 64 64" fill="none" xmlns="http://www.w3.org/2000/svg">
<path d="M60.67 43.1701C60.4515 42.6213 60.1259 42.1215 59.7123 41.6998C59.2986 41.2781 58.8051 40.943 58.2606 40.714C57.7161 40.4851 57.1314 40.3668 56.5407 40.3661C55.95 40.3654 55.365 40.4824 54.82 40.7101L42.09 45.2001C42.1336 44.9491 42.157 44.6949 42.16 44.4401C42.16 43.3041 41.7094 42.2144 40.907 41.4102C40.1047 40.6059 39.016 40.1528 37.88 40.1501H30.68C30.3064 40.1508 29.9386 40.0579 29.61 39.8801L22.71 36.2301C22.0926 35.908 21.4064 35.7399 20.71 35.7401H10.81C10.5448 35.7401 10.2904 35.8455 10.1029 36.033C9.91535 36.2205 9.81 36.4749 9.81 36.7401V53.4001C9.81 53.6653 9.91535 53.9197 10.1029 54.1072C10.2904 54.2948 10.5448 54.4001 10.81 54.4001H14.21C16.1752 54.4005 18.1097 54.8884 19.84 55.8201L20.03 55.8901L28.35 58.3701C29.5835 59.0202 30.9556 59.3633 32.35 59.3701C33.6856 59.3687 35.0017 59.0499 36.19 58.4401L58.62 48.8501C59.6133 48.3346 60.3759 47.4637 60.7559 46.411C61.1358 45.3584 61.1051 44.2012 60.67 43.1701V43.1701Z" fill="#B6B2AC"/>
<path d="M44.71 5.05006C44.6164 4.93145 44.4972 4.8356 44.3612 4.7697C44.2252 4.70379 44.0761 4.66956 43.925 4.66956C43.7739 4.66956 43.6248 4.70379 43.4888 4.7697C43.3529 4.8356 43.2336 4.93145 43.14 5.05006C42.71 5.59006 32.66 18.3901 32.66 24.3401C32.6151 25.8476 32.8732 27.3489 33.4192 28.7549C33.9651 30.1609 34.7876 31.443 35.8381 32.5252C36.8886 33.6075 38.1457 34.4679 39.5348 35.0554C40.9239 35.643 42.4168 35.9457 43.925 35.9457C45.4333 35.9457 46.9262 35.643 48.3153 35.0554C49.7044 34.4679 50.9614 33.6075 52.0119 32.5252C53.0624 31.443 53.885 30.1609 54.4309 28.7549C54.9768 27.3489 55.235 25.8476 55.19 24.3401C55.19 18.3901 45.14 5.59006 44.71 5.05006Z" fill="#EE283B"/>
<path d="M10.81 31.1901H4C3.44772 31.1901 3 31.6378 3 32.1901V56.6901C3 57.2423 3.44772 57.6901 4 57.6901H10.81C11.3623 57.6901 11.81 57.2423 11.81 56.6901V32.1901C11.81 31.6378 11.3623 31.1901 10.81 31.1901Z" fill="#8E8684"/>
</svg>
