<?xml version="1.0" encoding="utf-8"?>
<!-- Generator: Adobe Illustrator 16.0.0, SVG Export Plug-In . SVG Version: 6.00 Build 0)  -->
<!DOCTYPE svg PUBLIC "-//W3C//DTD SVG 1.0//EN" "http://www.w3.org/TR/2001/REC-SVG-20010904/DTD/svg10.dtd">
<svg version="1.0" id="Layer_1" xmlns="http://www.w3.org/2000/svg" xmlns:xlink="http://www.w3.org/1999/xlink" x="0px" y="0px"
	 width="100px" height="100px" viewBox="0 0 100 100" enable-background="new 0 0 100 100" xml:space="preserve">
<rect x="10" y="83.333" fill="#BDBCBC" width="6.667" height="6.667"/>
<rect x="10" y="83.333" fill="#9D9D9D" width="6.667" height="3.2"/>
<rect x="16.667" y="49.999" fill="#CFD8DB" width="33.333" height="26.667"/>
<polygon fill="#455A64" points="16.667,76.666 16.667,49.999 49.999,49.999 49.999,43.333 10,43.333 10,83.333 49.999,83.333 
	49.999,76.666 "/>
<rect x="21.667" y="61.666" fill="#2CABE1" width="23.333" height="10"/>
<path fill="#455A64" d="M35.833,55.832c0,1.382-1.117,2.501-2.5,2.501c-1.384,0-2.5-1.119-2.5-2.501c0-1.379,1.116-2.501,2.5-2.501
	C34.716,53.331,35.833,54.453,35.833,55.832z"/>
<path fill="#455A64" d="M26.666,55.832c0,1.382-1.116,2.501-2.5,2.501s-2.5-1.119-2.5-2.501c0-1.379,1.116-2.501,2.5-2.501
	S26.666,54.453,26.666,55.832z"/>
<path fill="#263238" d="M24.066,55.832c0-0.943,0.528-1.756,1.3-2.183c-0.357-0.196-0.762-0.318-1.2-0.318
	c-1.384,0-2.5,1.122-2.5,2.501c0,1.382,1.116,2.501,2.5,2.501c0.438,0,0.843-0.122,1.2-0.319
	C24.594,57.588,24.066,56.776,24.066,55.832z"/>
<path fill="#455A64" d="M44.999,55.832c0,1.382-1.117,2.501-2.5,2.501c-1.384,0-2.5-1.119-2.5-2.501c0-1.379,1.116-2.501,2.5-2.501
	C43.882,53.331,44.999,54.453,44.999,55.832z"/>
<path fill="#455A64" d="M20,29.999C20,24.478,25.97,20,33.333,20c7.363,0,13.333,4.478,13.333,9.999H20z"/>
<path fill="#BDBCBC" d="M33.333,20c1.153,0,2.266,0.12,3.333,0.327V10h-6.667v10.327C31.066,20.12,32.179,20,33.333,20z"/>
<path fill="#9D9D9D" d="M36.666,20.327v-4.065C35.587,16.091,34.473,16,33.333,16c-1.141,0-2.254,0.091-3.334,0.262v4.065
	C31.066,20.12,32.179,20,33.333,20C34.486,20,35.599,20.12,36.666,20.327z"/>
<rect x="46.799" y="76.666" fill="#263238" width="3.2" height="6.667"/>
<rect x="46.799" y="43.333" fill="#263238" width="3.2" height="6.666"/>
<path fill="#88D3E1" d="M83.333,10H56.667c-3.667,0-6.668,3-6.668,6.666V90H90V16.666C90,13,86.998,10,83.333,10z M83.333,16.666v20
	H56.667v-20H83.333z M56.667,83.333v-40h26.666v40H56.667z"/>
<rect x="56.667" y="16.666" fill="#E0F2F7" width="26.666" height="20"/>
<rect x="56.667" y="43.333" fill="#E0F2F7" width="26.666" height="40"/>
<rect x="76.666" y="23.333" fill="#455A64" width="6.667" height="6.666"/>
<rect x="76.666" y="49.999" fill="#455A64" width="6.667" height="6.667"/>
<rect x="80.133" y="23.333" fill="#263238" width="3.2" height="6.666"/>
<rect x="80.133" y="49.999" fill="#263238" width="3.2" height="6.667"/>
<polygon fill="#0077BD" points="40.999,61.666 40.999,67.666 21.667,67.666 21.667,71.666 44.999,71.666 44.999,61.666 "/>
<polygon fill="#AFBDC4" points="46.799,49.999 46.799,73.466 16.667,73.466 16.667,76.666 49.999,76.666 49.999,49.999 "/>
<path fill="#263238" d="M33.233,55.832c0-0.943,0.528-1.756,1.299-2.183c-0.357-0.196-0.762-0.318-1.2-0.318
	c-1.384,0-2.5,1.122-2.5,2.501c0,1.382,1.116,2.501,2.5,2.501c0.438,0,0.842-0.122,1.2-0.319
	C33.761,57.588,33.233,56.776,33.233,55.832z"/>
<path fill="#263238" d="M42.399,55.832c0-0.943,0.527-1.756,1.299-2.183c-0.357-0.196-0.762-0.318-1.2-0.318
	c-1.384,0-2.5,1.122-2.5,2.501c0,1.382,1.116,2.501,2.5,2.501c0.438,0,0.842-0.122,1.2-0.319
	C42.927,57.588,42.399,56.776,42.399,55.832z"/>
<polygon fill="#B6E2EB" points="60.667,79.333 60.667,43.333 56.667,43.333 56.667,83.333 83.333,83.333 83.333,79.333 "/>
<polygon fill="#B6E2EB" points="60.667,32.666 60.667,16.666 56.667,16.666 56.667,36.666 83.333,36.666 83.333,32.666 "/>
<path fill="#263238" d="M33.333,20c-0.821,0-1.621,0.063-2.4,0.169c6.216,0.85,10.933,4.924,10.933,9.829h4.8
	C46.666,24.478,40.696,20,33.333,20z"/>
</svg>
