<svg id="Capa_1" enable-background="new 0 0 512 512" height="512" viewBox="0 0 512 512" width="512" xmlns="http://www.w3.org/2000/svg"><g><path d="m116.091 41.579c40.214-26.293 88.276-41.579 139.909-41.579 141.249 0 256.426 115.542 255.999 256.791-.112 37.014-8.079 72.179-22.322 103.916-4.165 9.282-13.348 15.293-23.522 15.293h-350.064z" fill="#875b51"/><path d="m312.091 308.219v-143.543c0-8.284 6.716-15 15-15h125.819c8.284 0 15 6.716 15 15v143.543c0 8.284-6.716 15-15 15h-125.819c-8.285 0-15-6.716-15-15z" fill="#67463e"/><path d="m58.354 93.287h354.374c8.284 0 15 6.716 15 15v299.085c0 26.714-13.581 51.714-36.234 65.872-38.996 24.373-85.027 38.538-134.352 38.754-70.115.306-134.024-27.874-180.59-73.689-.859-.846 2.445-4.323 1.597-5.181-5.181-5.242-10.139-10.706-14.857-16.376-.717-.862-5.586.898-6.292.027-34.669-42.784-55.87-96.929-56.956-155.958-1.171-63.667 20.906-122.153 58.31-167.534z" fill="#9bcf1b"/><path d="m347 438.309h-241.367c-26.859 0-48.633-21.774-48.633-48.633v-346.367h290z" fill="#4172cc"/><path d="m114 438.309h-37.448c-6.813-6.716-13.523-14.09-19.552-21.53v-373.47h42v380c0 8.284 6.716 15 15 15z" fill="#2e5aac"/><path d="m347 58.309h-275c-8.284 0-15-6.716-15-15 0-8.284 6.716-15 15-15h275v10c-2.91 2.435-3.121 6.836-.456 9.537l.456.463z" fill="#6990d7"/><path d="m347 48.309h-249c-2.761 0-5-2.239-5-5 0-2.761 2.239-5 5-5h249z" fill="#2e5aac"/><path d="m306.109 198.608c0 57.498-46.611 104.109-104.109 104.109s-104.109-46.612-104.109-104.109c0-57.498 46.611-104.109 104.109-104.109s104.109 46.611 104.109 104.109z" fill="#91aee2"/><path d="m181.557 140.425c-4.135 9.464-22.009 4.04-39.932 20.895-4.663 4.385-12.521 11.774-13.93 22.288-2.648 19.757 20.471 28.187 21.823 45.968.986 12.967-9.791 28.456-24.063 39.599-17.111-18.552-27.564-43.338-27.564-70.566 0-43.021 26.094-79.946 63.317-95.813 14.836 11.427 24.133 28.967 20.349 37.629zm1.393 109.117c-2.549 5.885 6.944 10.242 9.751 25.538 2.062 11.236-1.074 19.715-4.325 26.752 4.459.583 9.006.884 13.624.884 31.919 0 60.482-14.364 79.579-36.98-4.486-2.852-8.828-5.351-12.729-7.372-36.049-18.68-80.799-20.601-85.9-8.822zm32.038-13.93c5.083.927 25.905 4.067 55.255-13.001 9.104-5.294 23.518-13.677 35.86-25.052-.448-45.406-29.964-83.855-70.831-97.629-14.983 7.573-25.971 19.74-27.249 31.674-1.679 15.682 14.576 20.06 13.93 38.075-.94 26.208-36.102 38.064-31.574 52.933 2.744 9.011 17.826 11.763 24.609 13z" fill="#6990d7"/><path d="m202 89.499c-60.163 0-109.109 48.946-109.109 109.108 0 60.163 48.946 109.109 109.109 109.109s109.109-48.946 109.109-109.109c0-60.162-48.946-109.108-109.109-109.108zm79.524 50.024c8.841 11.868 15.092 25.774 17.907 40.873-15.424 9.04-33.5 15.502-52.717 19.386.002-.391.003-.783.003-1.174 0-15.746-1.306-30.992-3.783-44.898 14.106-3.145 27.185-7.927 38.59-14.187zm-6.502-7.857c-10.285 5.42-21.857 9.501-34.08 12.245-1.709-7.439-3.779-14.39-6.186-20.701-3.352-8.786-7.25-15.977-11.552-21.426 20.28 4.436 38.257 15.102 51.818 29.882zm-107.723 69.892c-.01-.979-.016-1.961-.016-2.95 0-15.776 1.335-30.261 3.607-43.001 10.023 1.645 20.464 2.494 31.11 2.494s21.087-.849 31.11-2.494c2.272 12.74 3.607 27.225 3.607 43.001 0 .989-.005 1.972-.016 2.95-22.738 3.482-46.664 3.482-69.402 0zm69.105 10.16c-.799 16.514-3.077 31.309-6.306 43.779-18.495 2.419-37.7 2.419-56.195 0-3.229-12.47-5.507-27.265-6.306-43.779 11.144 1.61 22.672 2.438 34.404 2.438s23.259-.828 34.403-2.438zm-34.404-112.219c10.804 0 22.42 17.621 29.102 46.31-19.03 3.091-39.175 3.091-58.205 0 6.683-28.689 18.299-46.31 29.103-46.31zm-21.204 2.284c-4.302 5.45-8.2 12.64-11.552 21.426-2.408 6.312-4.478 13.262-6.186 20.701-12.223-2.743-23.794-6.825-34.08-12.245 13.561-14.779 31.538-25.445 51.818-29.882zm-58.32 37.74c11.405 6.26 24.484 11.042 38.591 14.187-2.478 13.906-3.783 29.152-3.783 44.898 0 .392.001.783.003 1.174-19.217-3.884-37.293-10.346-52.717-19.386 2.814-15.099 9.065-29.005 17.906-40.873zm-19.585 59.084c0-2.525.095-5.029.282-7.508 15.876 8.705 34.366 15.109 54.341 18.929.635 15.599 2.567 30.479 5.659 43.777-19.598-3.628-38.048-10.072-53.568-19.331-4.334-11.127-6.714-23.224-6.714-35.867zm14.254 51.164c14.624 6.858 31.19 11.821 48.855 14.678 1.001 3.323 2.083 6.515 3.244 9.558 3.352 8.787 7.25 15.978 11.552 21.428-26.925-5.893-49.791-22.763-63.651-45.664zm84.855 47.946c-8.837 0-18.216-11.787-24.996-31.777 8.169.896 16.526 1.354 24.996 1.354s16.827-.458 24.996-1.354c-6.78 19.99-16.159 31.777-24.996 31.777zm21.204-2.283c4.302-5.45 8.2-12.641 11.552-21.428 1.161-3.042 2.243-6.234 3.244-9.558 17.665-2.857 34.231-7.819 48.855-14.678-13.86 22.902-36.726 39.772-63.651 45.664zm17.623-41.628c3.092-13.298 5.024-28.179 5.659-43.777 19.975-3.82 38.465-10.224 54.341-18.929.187 2.479.282 4.982.282 7.508 0 12.643-2.38 24.74-6.714 35.867-15.521 9.259-33.971 15.703-53.568 19.331zm-3.827 99.503c0 2.762-2.239 5-5 5h-100c-2.761 0-5-2.238-5-5 0-2.761 2.239-5 5-5h100c2.761 0 5 2.238 5 5zm-8.462 20c0 2.762-2.239 5-5 5h-83.077c-2.761 0-5-2.238-5-5 0-2.761 2.239-5 5-5h83.077c2.762 0 5 2.238 5 5z" fill="#274c91"/><path d="m263.841 476h-83.851c-5.523 0-10-4.477-10-10v-170c0-5.523 4.477-10 10-10h83.851c5.523 0 10 4.477 10 10v170c0 5.523-4.477 10-10 10z" fill="#c2eaf2"/><path d="m490 359.984c-5.685 12.775-12.386 24.998-20 36.567-1.43 2.173-8.144.493-9.638 2.619-11.992 17.069-26.016 32.606-41.721 46.261-2.646 2.3-.087 8.377-2.826 10.569-9.122 7.298-18.754 13.986-28.834 20h-156.981c-5.523 0-10-4.477-10-10v-170c0-5.523 4.477-10 10-10h250c5.523 0 10 4.477 10 10z" fill="#def4f8"/><path d="m450 321h-15c-2.761 0-5-2.239-5-5v-10c0-2.761 2.239-5 5-5h15c2.761 0 5 2.239 5 5v10c0 2.761-2.239 5-5 5z" fill="#6990d7"/><path d="m465 321h-20c-2.761 0-5-2.239-5-5v-10c0-2.761 2.239-5 5-5h20c2.761 0 5 2.239 5 5v10c0 2.761-2.239 5-5 5z" fill="#91aee2"/><path d="m470 396.551c-14.845 22.556-33.16 42.626-54.185 59.449h-80.815c-2.761 0-5-2.239-5-5v-96c0-2.762 2.239-5 5-5h130c2.761 0 5 2.238 5 5z" fill="#bacbec"/><path d="m350 372c0-2.762 2.239-5 5-5h90c2.761 0 5 2.238 5 5 0 2.761-2.239 5-5 5h-90c-2.761 0-5-2.239-5-5zm95 35h-90c-2.761 0-5 2.238-5 5 0 2.761 2.239 5 5 5h90c2.761 0 5-2.239 5-5 0-2.762-2.239-5-5-5zm-90-10h50c2.761 0 5-2.239 5-5 0-2.762-2.239-5-5-5h-50c-2.761 0-5 2.238-5 5 0 2.761 2.239 5 5 5z" fill="#91aee2"/><path d="m390 441c0 2.761-2.239 5-5 5h-30c-2.761 0-5-2.239-5-5s2.239-5 5-5h30c2.762 0 5 2.238 5 5zm-172-135h-19c-2.761 0-5 2.238-5 5 0 2.761 2.239 5 5 5h19c2.761 0 5-2.239 5-5 0-2.762-2.239-5-5-5z" fill="#6990d7"/><path d="m403 316h-69c-2.761 0-5-2.239-5-5 0-2.761 2.239-5 5-5h69c2.761 0 5 2.239 5 5 0 2.761-2.239 5-5 5z" fill="#bacbec"/><path d="m190 396c0-33.447 27.368-60.503 60.932-59.993 31.991.486 58.252 26.477 59.048 58.461.44 17.67-6.761 33.664-18.533 44.914-3.739 3.573-9.337 4.221-13.932 1.846-8.242-4.261-17.598-6.667-27.515-6.667-9.962 0-19.357 2.428-27.626 6.724-4.532 2.355-10.053 1.687-13.751-1.836-11.473-10.927-18.623-26.353-18.623-43.449z" fill="#bacbec"/><path d="m226.312 424.034h22.372c-10.175 0-18.424 8.249-18.424 18.424v2.701c0 3.733-3.941 6.113-7.273 4.43-5.459-2.757-10.44-6.324-14.784-10.543 1.6-8.545 9.099-15.012 18.109-15.012z" fill="#4172cc"/><path d="m222.305 449.24v-6.782c0-10.175 8.249-18.424 18.424-18.424h32.959c9.01 0 16.509 6.467 18.109 15.012-10.805 10.493-25.546 16.954-41.797 16.954-9.99 0-19.409-2.441-27.695-6.76z" fill="#6990d7"/><path d="m284.928 409.475c0 1.228-1.004 2.223-2.242 2.223h-23.611c-3.194 0-6.214-.739-8.896-2.053-2.682 1.314-5.702 2.053-8.896 2.053h-23.611c-1.238 0-2.242-.995-2.242-2.223v-38.625c0-9.668 6.476-17.506 14.465-17.506h40.568c7.989 0 14.465 7.838 14.465 17.506z" fill="#784132"/><path d="m240.527 411.698h-22.854c-1.238 0-2.242-.995-2.242-2.223v-38.625c0-9.668 6.476-17.506 14.465-17.506h22.854c-7.989 0-14.465 7.837-14.465 17.506v38.625c0 1.228 1.004 2.223 2.242 2.223z" fill="#61362b"/><path d="m285.532 391.134v2.632c0 3.634-2.946 6.58-6.58 6.58-.65 0-1.277-.095-1.87-.27-3.225 8.51-10.346 15.104-19.186 17.604v8.986c0 4.361-3.535 7.896-7.896 7.896s-7.896-3.535-7.896-7.896v-8.986c-8.84-2.5-15.961-9.094-19.186-17.604-.593.175-1.22.27-1.87.27-3.634 0-6.58-2.946-6.58-6.58v-2.632c0-3.634 2.946-6.58 6.58-6.58v-5.264c0-15.99 12.962-28.953 28.952-28.953s28.952 12.962 28.952 28.953v5.264c3.634-.001 6.58 2.945 6.58 6.58z" fill="#d6995c"/><path d="m278.952 379.289v10.528c0 13.032-8.61 24.052-20.452 27.684-11.841-3.632-20.451-14.652-20.451-27.684v-10.528c0-13.032 8.61-24.052 20.451-27.684 11.842 3.633 20.452 14.653 20.452 27.684z" fill="#e3a76f"/><path d="m243.692 388.323c0 1.991-1.614 3.605-3.605 3.605h-3.604c-1.991 0-3.605-1.614-3.605-3.605s1.614-3.604 3.605-3.604h3.604c1.991-.001 3.605 1.613 3.605 3.604zm19.825-3.605h-3.604c-1.991 0-3.605 1.614-3.605 3.604 0 1.991 1.614 3.605 3.605 3.605h3.604c1.991 0 3.605-1.614 3.605-3.605 0-1.99-1.614-3.604-3.605-3.604z" fill="#9e6f46"/><path d="m255.407 401.299v.361c0 2.986-2.421 5.407-5.407 5.407s-5.407-2.421-5.407-5.407v-.361c0-.796.646-1.442 1.442-1.442h7.93c.796 0 1.442.646 1.442 1.442z" fill="#fff5f5"/><path d="m238.05 377.253c-8.006-1.339-15.618-4.004-22.618-7.773v-.67c0-10.675 8.234-19.329 18.391-19.329h12.677c1.747 0 2.991 1.692 2.466 3.358-2.362 7.49-8.155 24.876-10.916 24.414z" fill="#61362b"/><path d="m284.928 368.81v.555c-10.796 5.849-23.089 9.073-36.117 8.867-3.651-.058-7.245-.391-10.762-.979v-9.628c0-7.224 3.166-13.709 8.186-18.143h20.302c10.158-.001 18.391 8.652 18.391 19.328z" fill="#784132"/><path d="m432.5 180.5h-35c-4.142 0-7.5 3.358-7.5 7.5s3.358 7.5 7.5 7.5h35c4.142 0 7.5-3.358 7.5-7.5s-3.358-7.5-7.5-7.5zm-35.857 43.536c-2.929-2.929-7.678-2.929-10.607 0s-2.929 7.678 0 10.606l17.321 17.321c2.929 2.929 7.677 2.929 10.606 0s2.929-7.678 0-10.606zm0-72.072 17.321-17.321c2.929-2.929 2.929-7.678 0-10.606s-7.678-2.929-10.606 0l-17.321 17.321c-2.929 2.929-2.929 7.678 0 10.606s7.677 2.929 10.606 0z" fill="#fff"/></g></svg>