<svg id="Layer_1" enable-background="new 0 0 256 256" height="512" viewBox="0 0 256 256" width="512" xmlns="http://www.w3.org/2000/svg"><g><path d="m77.755 158.015.003-.002v-9.279c-3.613 2.205-7.849 3.478-12.368 3.478-4.519 0-8.755-1.273-12.368-3.478v9.279l.003.002 12.366 7.793z" fill="#f8af23"/><path d="m53.021 148.734v9.279l.003.002 8.396 5.291v-11.44c-3.026-.513-5.868-1.587-8.399-3.132z" fill="#f87023"/><g><circle cx="41.522" cy="120.051" fill="#f87023" r="6.178"/></g><path d="m41.522 104.03v24.314c0 8.608 4.618 16.189 11.5 20.389 3.613 2.205 7.849 3.478 12.368 3.478 4.519 0 8.755-1.273 12.368-3.478 6.881-4.2 11.5-11.781 11.5-20.389v-24.314z" fill="#f8af23"/><path d="m49.92 128.345v-24.315h-8.399v24.314c0 8.608 4.619 16.189 11.5 20.389 3.613 2.205 7.849 3.478 12.368 3.478 1.433 0 2.834-.142 4.199-.387-2.94-.528-5.702-1.586-8.169-3.091-6.88-4.199-11.499-11.781-11.499-20.388z" fill="#f87023"/><path d="m119.669 181.495c-4.142-11.173-14.02-19.22-25.799-21.019l-16.115-2.461-12.366 7.793-12.366-7.793-16.115 2.461c-11.78 1.799-21.657 9.846-25.799 21.019l-5.856 15.795h60.121.03 60.121z" fill="#f46275"/><path d="m45.307 160.476 9.355-1.429-1.638-1.032-16.115 2.461c-11.78 1.799-21.657 9.846-25.799 21.019l-5.857 15.795h8.399l5.856-15.795c4.142-11.173 14.02-19.22 25.799-21.019z" fill="#f43075"/><g><circle cx="54.371" cy="123.549" fill="#3f3679" r="2.266"/></g><g><circle cx="76.408" cy="123.549" fill="#3f3679" r="2.266"/></g><path d="m65.389 165.808-12.365-7.793-10.693 1.633 16.349 11.512z" fill="#9e9e9e"/><path d="m65.389 165.808 12.366-7.793 10.693 1.633-16.349 11.512z" fill="#f46275"/><path d="m88.293 117.9h.964v-1.337c2.466-3.67 3.886-7.953 3.886-12.533 0-13.565-12.426-24.561-27.754-24.561s-27.753 10.996-27.753 24.561c0 4.579 1.42 8.863 3.886 12.533v1.337h.964 2.24v-8.76s6.233-.281 8.647-5.11z" fill="#9e9e9e"/><path d="m69.589 79.749c-1.37-.184-2.772-.28-4.199-.28-15.328 0-27.754 10.996-27.754 24.561 0 4.579 1.42 8.863 3.886 12.533v1.337h.964 2.24v-8.76s.764-.039 1.851-.287c-.352-1.56-.543-3.171-.543-4.822 0-12.302 10.219-22.491 23.555-24.282z" fill="#707070"/><path d="m202.976 158.015.003-.002v-9.279c-3.613 2.205-7.849 3.478-12.368 3.478-4.519 0-8.755-1.273-12.368-3.478v9.279l.003.002 12.366 7.793z" fill="#f8af23"/><path d="m202.979 148.734c-2.531 1.545-5.372 2.619-8.398 3.132v11.44l8.396-5.291.003-.002z" fill="#f8d323"/><g><circle cx="214.478" cy="120.051" fill="#f8d323" r="6.178"/></g><path d="m244.891 181.495c-4.142-11.173-14.02-19.22-25.799-21.019l-16.115-2.461-12.366 7.793-12.366-7.793-16.115 2.461c-11.78 1.799-21.657 9.846-25.799 21.019l-5.856 15.795h60.121.03 60.121z" fill="#9e9e9e"/><path d="m244.891 181.495c-4.142-11.173-14.02-19.22-25.799-21.019l-16.115-2.461-1.603 1.01 9.501 1.451c11.78 1.799 21.657 9.846 25.799 21.019l5.856 15.795h8.217z" fill="#cecece"/><path d="m167.789 160.476 11.56-1.765-1.104-.696-16.115 2.461c-11.78 1.799-21.657 9.846-25.799 21.019l-5.856 15.795h5.659l5.856-15.795c4.142-11.173 14.019-19.22 25.799-21.019z" fill="#6377e7"/><path d="m166.743 104.03v24.314c0 8.608 4.618 16.189 11.5 20.389 3.613 2.205 7.849 3.478 12.368 3.478 4.519 0 8.755-1.273 12.368-3.478 6.881-4.2 11.5-11.781 11.5-20.389v-24.314z" fill="#f8af23"/><path d="m206.08 104.03v24.314c0 8.608-4.619 16.189-11.5 20.389-2.467 1.506-5.229 2.563-8.169 3.091 1.365.245 2.766.387 4.199.387 4.519 0 8.755-1.273 12.368-3.478 6.881-4.2 11.5-11.781 11.5-20.389v-24.314z" fill="#f8d323"/><g><circle cx="179.592" cy="123.549" fill="#3f3679" r="2.266"/></g><g><circle cx="201.629" cy="123.549" fill="#3f3679" r="2.266"/></g><path d="m190.611 165.808-12.366-7.793-10.693 1.633 16.349 11.512z" fill="#f46275"/><path d="m190.611 165.808 12.365-7.793 10.693 1.633-16.349 11.512z" fill="#f46275"/><path d="m166.743 113.873 12.849-9.843s15.031 13.083 34.886 6.75c0 0 14.084-5.521 7.688-21.284 0 0-7.833-20.495-39.167-3.162 0 0-20.196-3.206-20.667 11.9-.125 4.06 4.411 15.639 4.411 15.639z" fill="#9e9e9e"/><path d="m222.167 89.496s-4.708-12.281-21.382-9.774c9.928 1.78 12.984 9.774 12.984 9.774 6.396 15.763-7.688 21.284-7.688 21.284-2.344.748-4.618 1.217-6.81 1.477 4.552.541 9.693.283 15.209-1.477-.002 0 14.083-5.521 7.687-21.284z" fill="#cecece"/><path d="m149.146 154.936.005-.003v-15.868h-.001c-6.178 3.771-13.422 5.948-21.151 5.948-7.728 0-14.973-2.178-21.151-5.948h-.001v15.868l.005.003 21.148 13.327z" fill="#f8af23"/><g><circle cx="87.183" cy="90.013" fill="#f87023" r="10.565"/></g><g><circle cx="168.816" cy="90.013" fill="#f8af23" r="10.565"/></g><path d="m220.825 195.09c-7.084-19.107-23.975-32.869-44.12-35.945l-27.559-4.209-21.146 13.327-21.147-13.327-27.559 4.209c-20.145 3.076-37.036 16.838-44.12 35.945l-10.014 27.01h102.815.051 102.814z" fill="#63bce7"/><path d="m220.825 195.09c-7.084-19.107-23.975-32.869-44.12-35.945l-27.559-4.208-1.638 1.032 20.798 3.176c20.145 3.076 37.036 16.838 44.12 35.945l10.015 27.011h8.399z" fill="#67dceb"/><path d="m87.693 159.144 20.798-3.176-1.638-1.032-27.559 4.209c-20.145 3.076-37.036 16.838-44.12 35.945l-10.014 27.01h8.399l10.014-27.011c7.084-19.107 23.975-32.868 44.12-35.945z" fill="#6377e7"/><path d="m87.183 62.616v41.58c0 14.721 7.898 27.686 19.666 34.868 6.178 3.771 13.422 5.948 21.151 5.948 7.728 0 14.973-2.178 21.151-5.948 11.768-7.183 19.666-20.147 19.666-34.868v-41.58z" fill="#f8af23"/><path d="m115.247 142.936c-2.958-.981-5.779-2.273-8.398-3.872h-.001v15.868l.005.003 8.395 5.291-.001-5.294z" fill="#f87023"/><path d="m95.582 104.196v-41.58h-8.399v41.58c0 14.721 7.898 27.686 19.666 34.868 6.178 3.771 13.422 5.948 21.151 5.948 1.42 0 2.816-.098 4.199-.241-6.147-.637-11.908-2.629-16.951-5.708-11.768-7.181-19.666-20.146-19.666-34.867z" fill="#f87023"/><g><circle cx="109.158" cy="95.996" fill="#3f3679" r="3.875"/></g><g><circle cx="146.842" cy="95.996" fill="#3f3679" r="3.875"/></g><path d="m128 168.263-21.147-13.327-18.285 2.792 27.958 19.687z" fill="#f46275"/><path d="m128 168.263 21.146-13.327 18.286 2.792-27.958 19.687z" fill="#f46275"/><path d="m88.568 157.728 27.958 19.687 3.999-3.19-24.949-17.567z" fill="#f43075"/><path d="m167.432 157.728-6.868-1.048-25.009 17.609 3.919 3.126z" fill="#f48875"/><path d="m139.474 177.415-11.474-9.152-11.474 9.152 6.865 7.922-6.865 36.763h22.948l-7.009-36.835z" fill="#9e9e9e"/><path d="m128 20.613c-26.213 0-47.462 18.805-47.462 42.003 0 7.831 2.429 15.157 6.646 21.433v2.286h1.648 3.831v-14.98s10.659-.48 14.788-8.738c0 0 18.68 18.149 41.701 0 0 0 5.16 9.122 13.226 9.122v14.596h4.79 1.649v-2.286c4.217-6.275 6.646-13.601 6.646-21.432-.001-23.198-21.251-42.004-47.463-42.004z" fill="#9e9e9e"/><path d="m128 20.613c-1.416 0-2.814.065-4.199.173 24.244 1.882 43.263 19.886 43.263 41.83 0 6.52-1.689 12.688-4.686 18.193v5.526h4.79 1.649v-2.286c4.217-6.275 6.646-13.601 6.646-21.432-.001-23.198-21.251-42.004-47.463-42.004z" fill="#cecece"/><path d="m132.199 20.786c-1.385-.108-2.783-.173-4.199-.173-26.213 0-47.462 18.805-47.462 42.003 0 7.831 2.429 15.157 6.646 21.433v2.286h1.648 3.831v-7.402c-2.396-5.016-3.726-10.528-3.726-16.316-.001-21.945 19.018-39.948 43.262-41.831z" fill="#707070"/><path d="m116.526 177.415 6.865 7.922-6.865 36.763h11.474v-53.837z" fill="#707070"/><g fill="#3f3679"><path d="m65.39 135.563c.828 0 1.5-.671 1.5-1.5v-6.798c0-.829-.672-1.5-1.5-1.5s-1.5.671-1.5 1.5v6.798c0 .829.672 1.5 1.5 1.5z"/><path d="m58.915 137.788c-.612.558-.657 1.506-.1 2.119.156.171 3.532 3.811 8.592 3.811.547 0 1.114-.042 1.698-.137.818-.132 1.374-.901 1.242-1.719-.131-.818-.896-1.377-1.719-1.243-4.347.697-7.548-2.682-7.599-2.735-.558-.611-1.505-.653-2.114-.096z"/><path d="m60.953 118.854c0-.829-.672-1.5-1.5-1.5h-10.164c-.828 0-1.5.671-1.5 1.5s.672 1.5 1.5 1.5h10.164c.828 0 1.5-.671 1.5-1.5z"/><path d="m71.326 120.354h10.163c.828 0 1.5-.671 1.5-1.5s-.672-1.5-1.5-1.5h-10.163c-.828 0-1.5.671-1.5 1.5s.672 1.5 1.5 1.5z"/><path d="m252.153 196.768-5.856-15.794c-4.329-11.678-14.667-20.1-26.979-21.981l-14.839-2.266v-7.184c7.11-4.681 11.5-12.718 11.5-21.198v-.765c3.517-.7 6.178-3.808 6.178-7.529 0-3.72-2.66-6.829-6.178-7.528v-.788c1.873-.951 6.031-3.514 8.125-8.386 1.81-4.211 1.626-9.062-.535-14.388-.107-.28-2.711-6.887-10.629-9.779-7.94-2.9-18.11-1.016-30.229 5.6-.615-.075-1.732-.185-3.144-.22-1.291-2.539-3.458-4.585-6.161-5.699 2.33-5.14 3.556-10.653 3.556-16.247 0-23.987-21.964-43.502-48.962-43.502s-48.962 19.514-48.962 43.502c0 5.593 1.226 11.104 3.555 16.243-1.289.527-2.455 1.262-3.462 2.163-4.203-1.994-8.947-3.052-13.741-3.052-16.131 0-29.254 11.691-29.254 26.061 0 3.16.658 6.274 1.897 9.201-2.521 1.292-4.189 3.898-4.189 6.819 0 3.72 2.66 6.829 6.178 7.529v.765c0 8.48 4.39 16.516 11.499 21.197v7.185l-14.838 2.266c-12.312 1.881-22.65 10.303-26.979 21.981l-5.856 15.794c-.171.46-.105.975.175 1.378s.74.644 1.231.644h26.951l-8.45 22.79c-.171.46-.105.975.175 1.378s.74.644 1.231.644h91.366 22.947 91.366c.491 0 .951-.24 1.231-.644.28-.403.346-.917.175-1.378l-8.45-22.79h26.951c.491 0 .951-.24 1.231-.644.281-.403.346-.917.175-1.378zm-56.122-32.604 7.27-4.582 6.455.986-9.123 6.424c-1.486-1.013-3.022-1.956-4.602-2.828zm-32.51-5.516-23.99 16.892-8.944-7.135 18.887-11.903zm-47.051 16.893-23.99-16.892 14.048-2.146 18.887 11.903zm-61.104-8.549-9.123-6.424 6.454-.986 7.271 4.582c-1.579.872-3.114 1.815-4.602 2.828zm7.7-4.417c-.012-.008-.021-.018-.033-.025l-8.513-5.364.001-5.951c3.387 1.618 7.094 2.478 10.868 2.478 3.773 0 7.48-.86 10.868-2.478v5.951l-2.384 1.502c-.014.009-.024.02-.038.029-3.739.932-7.344 2.23-10.769 3.858zm16.192-13.033c7.109-4.68 11.499-12.717 11.499-21.198v-4.24c3.401 6.328 8.39 11.806 14.592 15.768v13.776l-26.091 3.985zm83.119-61.708h4.939v16.362c0 13.584-7.261 26.454-18.947 33.588-6.141 3.748-13.184 5.729-20.369 5.729s-14.229-1.981-20.369-5.729c-11.687-7.134-18.947-20.004-18.947-33.588v-16.362h3.979c.828 0 1.5-.671 1.5-1.5v-13.627c2.977-.417 9.829-1.99 13.69-7.797 4.864 3.786 21.402 14.249 40.919-.118 1.785 2.544 6.049 7.613 12.105 8.355v13.188c0 .828.672 1.499 1.5 1.499zm-14.726 66.271-19.651 12.385-19.651-12.385.001-12.473c6.05 3.195 12.788 4.881 19.651 4.881 6.862 0 13.601-1.686 19.651-4.881v12.473zm3-.457v-13.776c6.202-3.962 11.191-9.44 14.592-15.768v4.24c0 8.481 4.39 16.517 11.499 21.198v7.184l-2.219.339h-.002s-.687.112-.716.118zm31.276 5.012c-.1-.121-2.185-1.475-2.185-1.475v-5.951c3.388 1.618 7.095 2.478 10.868 2.478 3.774 0 7.481-.86 10.868-2.478v5.951l-8.548 5.388c-3.496-1.661-7.18-2.977-11.003-3.913zm31.052-30.315c0 7.728-4.131 15.049-10.781 19.109-3.493 2.132-7.499 3.259-11.587 3.259-4.087 0-8.093-1.127-11.587-3.259-6.649-4.059-10.78-11.381-10.78-19.109v-10.97c0-.068-.011-.133-.02-.199.357-1.089.659-2.196.926-3.313.08-.041.165-.07.239-.127l10.184-7.8c3.574 2.716 16.542 11.238 33.406 6.828zm6.177-8.294c0 2.052-1.336 3.78-3.178 4.409v-8.818c1.842.629 3.178 2.357 3.178 4.409zm-36.39-32.236c.334.052.669-.008.961-.169 11.483-6.353 20.945-8.259 28.122-5.669 6.638 2.396 8.829 7.83 8.929 8.083 1.854 4.571 2.051 8.633.583 12.074-2.082 4.881-6.92 7.034-7.396 7.235-18.756 5.948-33.244-6.347-33.389-6.472-.537-.465-1.33-.49-1.896-.058l-8.712 6.673c.228-1.754.348-3.529.348-5.317v-2.221c5.946-.742 10.565-5.818 10.565-11.962 0-.82-.093-1.622-.253-2.404 1.293.079 2.127.206 2.138.207zm-4.884 2.198c0 4.487-3.279 8.212-7.565 8.931v-12.61-.021-1.812c.632-.962 1.207-1.949 1.751-2.948 3.462 1.33 5.814 4.688 5.814 8.46zm-49.882-67.9c25.344 0 45.962 18.169 45.962 40.502 0 7.252-2.21 14.375-6.391 20.596-.166.247-.255.539-.255.836v.786h-3.439v-13.095c0-.829-.672-1.5-1.5-1.5-7.078 0-11.873-8.279-11.92-8.361-.216-.381-.587-.649-1.017-.733-.427-.084-.874.022-1.218.294-21.679 17.092-39.002.802-39.728.102-.343-.333-.819-.483-1.296-.403-.472.08-.877.38-1.091.808-3.675 7.351-13.418 7.906-13.514 7.911-.802.036-1.433.696-1.433 1.499v13.48h-2.479v-.786c0-.298-.089-.589-.255-.836-4.181-6.222-6.391-13.344-6.391-20.596.003-22.334 20.621-40.504 45.965-40.504zm-44.066 59.441c.544.999 1.119 1.985 1.75 2.947v14.443c-4.286-.718-7.565-4.444-7.565-8.931-.001-3.804 2.343-7.132 5.815-8.459zm-18.544-.585c4.066 0 8.084.842 11.698 2.423-1.253 1.914-1.969 4.195-1.969 6.62 0 6.144 4.619 11.22 10.565 11.962v2.221c0 4.009.606 7.954 1.718 11.736l-33.475-13.296c-.728-.287-1.547.027-1.896.723-1.981 3.962-7.324 4.28-7.373 4.282-.802.036-1.433.696-1.433 1.499v7.26h-.213c-.026-.24-.11-.472-.246-.673-2.375-3.535-3.631-7.579-3.631-11.696.001-12.716 11.778-23.061 26.255-23.061zm-28.546 39.082c0-1.768 1.003-3.345 2.521-4.137.213.369.424.739.657 1.099v7.447c-1.842-.629-3.178-2.357-3.178-4.409zm6.177 8.294v-8.945h1.704c.828 0 1.5-.671 1.5-1.5v-7.44c1.991-.359 5.586-1.427 7.779-4.565l33.734 13.399c.006.002.012.003.018.005v9.046c0 7.728-4.131 15.05-10.78 19.109-3.494 2.132-7.5 3.259-11.587 3.259-4.088 0-8.094-1.127-11.587-3.259-6.65-4.06-10.781-11.382-10.781-19.109zm-35.612 67.445 5.106-13.773c3.951-10.656 13.385-18.342 24.62-20.058l4.825-.737 10.828 7.624c-8.497 6.497-15.172 15.344-19.02 25.723l-.453 1.221zm29.172-.179c6.892-18.587 23.345-31.992 42.94-34.984l8.676-1.325 27.314 19.233 6.271 7.238-6.503 34.828h-87.963zm81.751 24.99 6.533-34.988c.084-.449-.042-.912-.341-1.258l-5.842-6.742 9.317-7.432 9.299 7.417-5.953 6.667c-.311.348-.441.821-.354 1.279l6.67 35.055h-19.329zm22.383 0-6.638-34.889 6.402-7.17 27.324-19.239 8.676 1.325c19.596 2.992 36.05 16.397 42.94 34.984l9.265 24.989zm81.969-24.811-.453-1.221c-3.848-10.379-10.524-19.225-19.02-25.723l10.828-7.624 4.825.737c11.235 1.716 20.669 9.402 24.62 20.058l5.106 13.773z"/><path d="m190.61 135.563c.828 0 1.5-.671 1.5-1.5v-6.798c0-.829-.672-1.5-1.5-1.5s-1.5.671-1.5 1.5v6.798c0 .829.672 1.5 1.5 1.5z"/><path d="m193.851 140.619c-4.35.698-7.555-2.687-7.6-2.736-.561-.609-1.506-.652-2.115-.095-.612.558-.657 1.506-.1 2.119.156.171 3.533 3.811 8.593 3.811.547 0 1.114-.042 1.698-.137.818-.132 1.374-.901 1.242-1.719-.131-.819-.896-1.378-1.718-1.243z"/><path d="m186.174 118.854c0-.829-.672-1.5-1.5-1.5h-10.163c-.828 0-1.5.671-1.5 1.5s.672 1.5 1.5 1.5h10.163c.828 0 1.5-.671 1.5-1.5z"/><path d="m206.711 117.354h-10.164c-.828 0-1.5.671-1.5 1.5s.672 1.5 1.5 1.5h10.164c.828 0 1.5-.671 1.5-1.5s-.672-1.5-1.5-1.5z"/><path d="m207.171 233.887h-158.342c-.828 0-1.5.671-1.5 1.5s.672 1.5 1.5 1.5h158.343c.828 0 1.5-.671 1.5-1.5s-.672-1.5-1.501-1.5z"/><path d="m232.002 233.887h-12.75c-.828 0-1.5.671-1.5 1.5s.672 1.5 1.5 1.5h12.75c.828 0 1.5-.671 1.5-1.5s-.671-1.5-1.5-1.5z"/><path d="m36.748 233.887h-12.75c-.828 0-1.5.671-1.5 1.5s.672 1.5 1.5 1.5h12.75c.828 0 1.5-.671 1.5-1.5s-.672-1.5-1.5-1.5z"/><path d="m128 115.476c.828 0 1.5-.671 1.5-1.5v-11.625c0-.829-.672-1.5-1.5-1.5s-1.5.671-1.5 1.5v11.625c0 .829.672 1.5 1.5 1.5z"/><path d="m133.71 126.238c-8.03 1.293-13.852-4.902-13.948-5.007-.558-.611-1.507-.654-2.117-.098-.612.558-.657 1.507-.1 2.119.253.277 5.72 6.168 13.9 6.168.883 0 1.798-.068 2.741-.22.818-.132 1.374-.901 1.242-1.719-.13-.818-.896-1.377-1.718-1.243z"/><path d="m119.348 87.967c0-.829-.672-1.5-1.5-1.5h-17.381c-.828 0-1.5.671-1.5 1.5s.672 1.5 1.5 1.5h17.381c.828 0 1.5-.672 1.5-1.5z"/><path d="m155.532 86.467h-17.38c-.828 0-1.5.671-1.5 1.5s.672 1.5 1.5 1.5h17.38c.828 0 1.5-.671 1.5-1.5s-.672-1.5-1.5-1.5z"/></g></g></svg>