<svg id="_x33_0" enable-background="new 0 0 64 64" height="512" viewBox="0 0 64 64" width="512" xmlns="http://www.w3.org/2000/svg"><g><g><g><path d="m16 41.89v.31c-.64-.13-1.31-.2-2-.2s-1.36.07-2 .2v-2.2c0-1.1.9-2 2-2 .08 0 .15 0 .22.01.46.05.88.26 1.19.58.37.36.59.86.59 1.41z" fill="#aab2bd"/></g><g><path d="m17.74 33.19c.45.83.32 1.89-.39 2.59l-1.57 1.57c-.43.43-1 .65-1.56.65-.57 0-1.14-.22-1.57-.65-.87-.86-.87-2.27 0-3.13l1.57-1.57c.86-.87 2.27-.87 3.13 0 .16.16.29.34.39.54z" fill="#aab2bd"/></g><g><path d="m23.66 30.88c.22.32.34.71.34 1.12 0 1.1-.9 2-2 2h-2c-.55 0-1.05-.22-1.41-.59-.09-.09-.18-.19-.25-.29-.22-.32-.34-.71-.34-1.12 0-1.1.9-2 2-2h2c.69 0 1.3.35 1.66.88z" fill="#aab2bd"/></g><g><path d="m46 32c0 .41-.12.8-.34 1.12-.07.1-.16.2-.25.29-.36.37-.86.59-1.41.59h-2c-1.1 0-2-.9-2-2 0-.41.12-.8.34-1.12.36-.53.97-.88 1.66-.88h2c1.1 0 2 .9 2 2z" fill="#aab2bd"/></g><g><path d="m51.35 34.22c.87.86.87 2.27 0 3.13-.37.37-.85.59-1.35.64-.63.07-1.29-.15-1.78-.64l-1.57-1.57c-.71-.7-.84-1.76-.39-2.59.1-.2.23-.38.39-.54.86-.87 2.27-.87 3.13 0z" fill="#aab2bd"/></g><g><path d="m52 40v2.2c-.64-.13-1.31-.2-2-.2-.57 0-1.12.05-1.66.14-.11-.08-.22-.17-.34-.25v-1.89c0-.55.22-1.05.59-1.41.36-.37.86-.59 1.41-.59 1.1 0 2 .9 2 2z" fill="#aab2bd"/></g><g><path d="m40.46 55c-.3-.95-.46-1.95-.46-3 0-4.83 3.44-8.87 8-9.8.11-.02.22-.04.34-.06.54-.09 1.09-.14 1.66-.14.69 0 1.36.07 2 .2 4.56.93 8 4.97 8 9.8 0 5.52-4.48 10-10 10-4.47 0-8.26-2.94-9.54-7z" fill="#fcd770"/></g><g><path d="m48 41.89v.31c-4.56.93-8 4.97-8 9.8 0 1.05.16 2.05.46 3h-16.92c.3-.95.46-1.95.46-3 0-4.83-3.44-8.87-8-9.8v-.31c1.62-1.22 3.49-2.13 5.56-2.61l1.76-.41 2.68 7.13 6-5 6 5 2.68-7.13 1.76.41c2.06.49 3.94 1.38 5.56 2.61z" fill="#ff826e"/></g><g><path d="m48 12.04c0 1.44-.36 3.15-.72 4.5-.37 1.34-.73 2.33-.73 2.33l-.26.76-.01.01c-.72-1-1.89-1.64-3.22-1.64h-.97-.09v-1.69c0-2.38-1.92-4.31-4.29-4.31-7.14 0-8.57 4.56-15.71 6h-.03-.97c-1.38 0-2.6.7-3.32 1.77l-.23-.89-1.24-4.57c-.14-.55-.21-1.12-.21-1.69 0-1.46.46-2.85 1.28-4 .81-1.14 1.98-2.05 3.37-2.55l9.57-3.43c1.18-.42 2.42-.64 3.67-.64 1.69 0 3.34.39 4.81 1.12 1.48.72 2.78 1.78 3.8 3.12l1.14 1.5c1.2 0 2.3.48 3.08 1.26.79.78 1.28 1.86 1.28 3.04z" fill="#656d78"/></g><g><path d="m46.28 19.64c.49.66.78 1.48.78 2.36 0 1.1-.45 2.1-1.17 2.83-.73.72-1.73 1.17-2.83 1.17h-1.06l-.05-.01c.03-.35.05-.7.05-1.05v-6.94h.09.97c1.33 0 2.5.64 3.22 1.64z" fill="#f0d0b4"/></g><g><path d="m22.05 26c-.03-.35-.05-.7-.05-1.06v-6.94c7.14-1.44 8.57-6 15.71-6 2.37 0 4.29 1.93 4.29 4.31v1.69 6.94c0 .35-.02.7-.05 1.05-.19 1.76-.82 3.39-1.79 4.76-.33.46-.69.9-1.09 1.3-.82.83-1.79 1.51-2.86 2.02-1.28.59-2.7.93-4.21.93s-2.93-.34-4.21-.93c-1.59-.75-2.95-1.9-3.95-3.32-.97-1.37-1.6-2.99-1.79-4.75z" fill="#f0d0b4"/></g><g><path d="m40.68 38.86v.01l-2.68 7.13-6-5 5-3z" fill="#fc6e51"/></g><g><path d="m36.21 34.07.79 3.93-5 3-5-3 .79-3.93c1.28.59 2.7.93 4.21.93s2.93-.34 4.21-.93z" fill="#f0d0b4"/></g><g><path d="m32 41-6 5-2.68-7.13v-.01l3.68-.86z" fill="#fc6e51"/></g><g><path d="m23.54 55c-1.28 4.06-5.07 7-9.54 7-5.52 0-10-4.48-10-10 0-4.83 3.44-8.87 8-9.8.64-.13 1.31-.2 2-.2s1.36.07 2 .2c4.56.93 8 4.97 8 9.8 0 1.05-.16 2.05-.46 3z" fill="#f0d0b4"/></g><g><path d="m17.68 19.77c.72-1.07 1.94-1.77 3.32-1.77h.97.03v6.94c0 .36.02.71.05 1.06h-1.05c-1.1 0-2.1-.45-2.83-1.17-.72-.73-1.17-1.73-1.17-2.83 0-.82.25-1.59.68-2.23z" fill="#f0d0b4"/></g><g><path d="m19.49 49.59c.32.26.51.65.51 1.06 0 .75-.6 1.35-1.35 1.35h-.65-8-.65c-.75 0-1.35-.6-1.35-1.35 0-.41.19-.8.51-1.06l3.71-2.97c.5-.4 1.13-.62 1.78-.62s1.28.22 1.78.62z" fill="#b4dd7f"/></g><g><path d="m18 52v4c0 1.1-.9 2-2 2h-4c-1.1 0-2-.9-2-2v-4z" fill="#e6e9ed"/></g></g><g><path d="m51 47.184v-2.184h-2v2h-2v3c0 1.654 1.346 3 3 3 .551 0 1 .449 1 1v1h-1c-.551 0-1-.449-1-1v-1h-2v1c0 1.302.839 2.402 2 2.816v2.184h2v-2h2v-3c0-1.654-1.346-3-3-3-.551 0-1-.449-1-1v-1h1c.551 0 1 .449 1 1v1h2v-1c0-1.302-.839-2.402-2-2.816z"/><path d="m53 41.426v-1.426c0-.804-.322-1.531-.838-2.07 1.138-1.26 1.11-3.206-.104-4.421l-1.568-1.567c-.968-.968-2.403-1.18-3.585-.653-.32-1.31-1.497-2.289-2.905-2.289h-1.778c.253-.64.449-1.308.58-2h.257c2.757 0 5-2.243 5-5 0-.903-.259-1.738-.679-2.47l.105-.315c.061-.168 1.515-4.151 1.515-7.172 0-2.753-2.132-5.023-4.85-5.28l-.855-1.125c-2.208-2.904-5.722-4.638-9.4-4.638-1.372 0-2.723.234-4.013.697l-9.569 3.432c-3.178 1.141-5.313 4.151-5.313 7.491 0 .652.081 1.304.246 1.953l1.238 4.552.131.523c-.379.704-.615 1.497-.615 2.352 0 2.757 2.243 5 5 5h.199c.13.692.327 1.36.58 2h-1.779c-1.408 0-2.584.979-2.906 2.289-1.182-.527-2.617-.315-3.585.653l-1.567 1.567c-1.214 1.215-1.241 3.16-.104 4.421-.516.539-.838 1.266-.838 2.07v1.426c-4.61 1.311-8 5.55-8 10.574 0 6.065 4.935 11 11 11 4.653 0 8.631-2.909 10.236-7h15.528c1.605 4.091 5.583 7 10.236 7 6.065 0 11-4.935 11-11 0-5.024-3.39-9.263-8-10.574zm-3-.426c-.338 0-.67.021-1 .051v-1.051c0-.551.449-1 1-1s1 .449 1 1v1.051c-.33-.03-.662-.051-1-.051zm-31.941-4.509c.478-.479.771-1.072.884-1.693.33.125.684.202 1.057.202h2c1.219 0 2.265-.733 2.734-1.779.591.525 1.233.991 1.926 1.38l-.514 2.573-4.81 1.132c-1.542.363-2.987.957-4.335 1.738v-.044c0-.694-.246-1.325-.643-1.833.043-.039.092-.068.133-.109zm22.941-11.553c0 4.997-4.038 9.062-9 9.062s-9-4.065-9-9.063v-6.137c2.957-.728 4.969-1.984 6.762-3.103 2.319-1.447 4.321-2.697 7.952-2.697 1.812 0 3.286 1.486 3.286 3.313zm-5.119 12.567-3.881 2.329-3.881-2.329.415-2.076c1.091.365 2.254.571 3.466.571s2.375-.206 3.466-.571zm-9.047 1.561 3.445 2.067-3.836 3.197-1.782-4.752zm10.332 0 2.174.512-1.782 4.752-3.836-3.197zm.688-1.892-.514-2.573c.693-.389 1.335-.855 1.926-1.38.469 1.046 1.515 1.779 2.734 1.779h2c.373 0 .727-.077 1.057-.202.113.62.406 1.214.885 1.693l1.567 1.567c.042.042.09.07.133.109-.396.508-.642 1.139-.642 1.833v.047c-1.348-.781-2.791-1.378-4.335-1.741zm9.502-3.818c.237-.237.549-.355.86-.355s.623.119.86.355l1.567 1.567c.475.474.475 1.246 0 1.72-.475.475-1.246.474-1.721 0l-1.567-1.567c-.473-.473-.473-1.245.001-1.72zm-2.356-1.356c0 .551-.449 1-1 1h-2c-.551 0-1-.449-1-1s.449-1 1-1h2c.551 0 1 .449 1 1zm-1.942-7h-.061c0-.021.003-.041.003-.063v-5.937h.058c1.654 0 3 1.346 3 3s-1.346 3-3 3zm-22.07-17.988 9.569-3.432c1.073-.385 2.196-.58 3.338-.58 3.057 0 5.976 1.439 7.808 3.849l1.437 1.891h.496c1.855 0 3.364 1.482 3.364 3.304 0 1.979-.762 4.574-1.163 5.804-.795-.535-1.751-.848-2.779-.848h-.058v-.688c0-2.929-2.371-5.312-5.286-5.312-4.205 0-6.648 1.525-9.011 3.001-1.877 1.171-3.82 2.38-6.817 2.999h-.886c-1.038 0-2.002.319-2.802.862l-1.017-3.798c-.12-.471-.181-.957-.181-1.444 0-2.498 1.603-4.752 3.988-5.608zm.012 17.988c-1.654 0-3-1.346-3-3s1.346-3 3-3v5.938c0 .021.003.041.003.063h-.003zm-1 6h2c.551 0 1 .449 1 1s-.449 1-1 1h-2c-.551 0-1-.449-1-1s.449-1 1-1zm-6.644 3.923 1.567-1.567c.475-.475 1.246-.475 1.721 0 .474.474.474 1.246 0 1.72l-1.567 1.567c-.475.475-1.246.475-1.721 0-.474-.474-.474-1.246 0-1.72zm-.356 5.077c0-.551.449-1 1-1s1 .449 1 1v1.051c-.33-.03-.662-.051-1-.051s-.67.021-1 .051zm1 21c-4.962 0-9-4.038-9-9s4.038-9 9-9 9 4.038 9 9-4.038 9-9 9zm10.809-7c.12-.65.191-1.316.191-2 0-4.65-2.904-8.625-6.99-10.233 1.177-.68 2.438-1.198 3.784-1.515l.903-.213 2.861 7.63 6.442-5.367 6.442 5.368 2.861-7.63.903.213c1.347.317 2.605.837 3.781 1.516-4.084 1.607-6.987 5.582-6.987 10.231 0 .684.071 1.35.191 2zm25.191 7c-4.962 0-9-4.038-9-9s4.038-9 9-9 9 4.038 9 9-4.038 9-9 9z"/><path d="m16.405 45.844c-1.359-1.088-3.451-1.088-4.811 0l-3.713 2.97c-.56.448-.881 1.117-.881 1.835 0 1.176.871 2.144 2 2.315v3.036c0 1.654 1.346 3 3 3h4c1.654 0 3-1.346 3-3v-3.035c1.129-.171 2-1.139 2-2.315 0-.718-.321-1.387-.882-1.836zm-.405 11.156h-4c-.551 0-1-.449-1-1v-3h6v3c0 .551-.449 1-1 1zm2.649-6h-9.298c-.194 0-.351-.157-.351-.351 0-.107.048-.208.131-.274l3.712-2.97c.328-.261.738-.405 1.157-.405s.829.144 1.156.405l3.712 2.97c.084.067.132.167.132.274 0 .194-.157.351-.351.351z"/><circle cx="37" cy="22" r="1"/><circle cx="27" cy="22" r="1"/><path d="m35.303 25.903c-.621 1.242-1.87 2.014-3.258 2.014s-2.637-.771-3.258-2.013l-.152-.304-1.789.894.151.304c.962 1.924 2.896 3.119 5.047 3.119s4.085-1.195 5.047-3.12l.151-.303-1.787-.894z"/></g></g></svg>