<?xml version="1.0"?>
<svg xmlns="http://www.w3.org/2000/svg" xmlns:xlink="http://www.w3.org/1999/xlink" viewBox="0 0 64 64" width="512" height="512"><pattern id="a" height="22" patternUnits="userSpaceOnUse" viewBox="0 0 35 22" width="35"><path d="m0 0h35v22h-35z" fill="none"/><path d="m0 0h35v22h-35z" fill="#db735c"/></pattern><path d="m3 3h58v58h-58z" fill="#d3ac5c"/><path d="m20 3h41v14h-41z" fill="url(#a)"/><path d="m21 48v-9h-7v-9.7a17.59682 17.59682 0 0 1 -10 2.63l-1 .07v29h30v-4h3v-9z" fill="url(#a)"/><path d="m3 3v29a18.75641 18.75641 0 0 0 11-3.07c3.58-2.52 5.74-6.56 5.98-11.93.01-.33.02-.66.02-1v-13z" fill="#60a867"/><path d="m40 17v22h-26v-10.07c3.58-2.52 5.74-6.56 5.98-11.93z" fill="#5eb8ab"/><path d="m61 38v23h-28v-4h17v-9c0-6.42 4.58-10 11-10z" fill="#60a867"/><path d="m61 2h-58a1 1 0 0 0 -1 1v58a1 1 0 0 0 1 1h58a1 1 0 0 0 1-1v-58a1 1 0 0 0 -1-1zm-1 14.00049h-39v-12.00049h39zm-23.29443 31.29151a1.11068 1.11068 0 0 0 -.71-.292c-.14112.00049-10.66309.00049-13.99512.00049v-7.00049h17.99955a1 1 0 0 0 1-1v-20.99951h19v19.037c-6.71411.38097-11 4.59294-11 10.96251v8h-12v-8a1.001 1.001 0 0 0 -.29443-.708zm-21.70508-17.88325a15.4962 15.4962 0 0 0 5.89068-11.40826h18.10883v19.99951h-23.99951zm3.99951-25.40875v12c0 .3291-.00977.64893-.019.95557-.21826 4.894-2.14014 8.75195-5.55908 11.15869a17.13965 17.13965 0 0 1 -9.42192 2.85632v-26.97058zm-15 28.96991a20.1296 20.1296 0 0 0 9.00043-2.25653l-.00043 8.28662a1.00026 1.00026 0 0 0 1 1h6.00049v8.00049a1.00005 1.00005 0 0 0 1 1h12.65576c.5376 0 .97949-.00049 1.34375-.00391v7.00342h-2a1 1 0 0 0 -1 1v3h-28zm30 27.03009v-2h16a1 1 0 0 0 1-1v-9c0-5.2439 3.42188-8.60767 9-8.96448v20.96448z"/></svg>
