<svg xmlns="http://www.w3.org/2000/svg" data-name="Layer 1" viewBox="0 0 512 512"><path fill="#ffe236" d="M458.31006,242.32007A7.27023,7.27023,0,0,0,456.22,248.74l10.63013,61.97a7.248,7.248,0,0,1-10.52,7.64014l-55.65015-29.25a6.77738,6.77738,0,0,0-6.5,0l-40.85986,21.47-14.8,7.78A7.24974,7.24974,0,0,1,328,310.71l10.62988-61.97a7.23559,7.23559,0,0,0-2.07983-6.41992l-45.03-43.88013a7.25222,7.25222,0,0,1,4.02-12.36987l16.63989-2.42017L332.01,180.77l-.02-.03,25.53-3.71a7.28219,7.28219,0,0,0,5.46-3.97l27.82007-56.38013a7.45218,7.45218,0,0,1,13.25,0l27.82983,56.38013a7.265,7.265,0,0,0,5.46021,3.97l25.51977,3.71-.00976.03,36.46,5.3a7.24939,7.24939,0,0,1,4.02,12.36987Z"/><path fill="#ffd00b" d="M503.33008,198.43994a7.24939,7.24939,0,0,0-4.02-12.36987l-36.46-5.3.00976-.03-25.51977-3.71a7.265,7.265,0,0,1-5.46021-3.97l-27.82983-56.38013a7.45218,7.45218,0,0,0-13.25,0l-2.16651,4.39063a7.46939,7.46939,0,0,1,.41651.70947l27.82983,56.38013a7.265,7.265,0,0,0,5.46021,3.97l25.51977,3.71-.00976.03,36.46,5.30005a7.24939,7.24939,0,0,1,4.02,12.36987l-45.02,43.88013a7.27022,7.27022,0,0,0-2.09009,6.41992l10.63013,61.97c.01147.06616.00976.12964.01953.19556l4.46045,2.34448a7.248,7.248,0,0,0,10.52-7.64014L456.22,248.74a7.27023,7.27023,0,0,1,2.09009-6.41992Z"/><path fill="#ffe236" d="M175.45,242.32007a7.23559,7.23559,0,0,0-2.07983,6.41992L184,310.71a7.24974,7.24974,0,0,1-10.52,7.64014l-16.96-8.91016L117.82007,289.1001a6.77738,6.77738,0,0,0-6.5,0l-55.65015,29.25a7.248,7.248,0,0,1-10.52-7.64014L55.78,248.74a7.27023,7.27023,0,0,0-2.09009-6.41992l-45.02-43.88013a7.24939,7.24939,0,0,1,4.02-12.36987l36.46-5.3-.00976-.03,25.51977-3.71a7.265,7.265,0,0,0,5.46021-3.97L107.95,116.67993a7.45218,7.45218,0,0,1,13.25,0L149.02,173.06006a7.28219,7.28219,0,0,0,5.46,3.97l25.53,3.71-.02.03,17.1001,2.49L216.46,186.07007a7.25222,7.25222,0,0,1,4.02,12.36987Z"/><path fill="#ffd00b" d="M416.2 229.04l-62.09985 60.52a10.01806 10.01806 0 0 0-2.87012 8.85986l2.09009 12.15015-14.8 7.78A7.24974 7.24974 0 0 1 328 310.71l10.62988-61.97a7.23559 7.23559 0 0 0-2.07983-6.41992l-45.03-43.88013a7.25222 7.25222 0 0 1 4.02-12.36987l16.63989-2.42017L317.31006 194.04a10.014 10.014 0 0 0 7.53 5.47l85.81982 12.47A10.00339 10.00339 0 0 1 416.2 229.04zM175.45 242.32007a7.23559 7.23559 0 0 0-2.07983 6.41992L184 310.71a7.24974 7.24974 0 0 1-10.52 7.64014l-16.96-8.91016 2.18994-12.75a10.00915 10.00915 0 0 0-2.86987-8.8501L93.74 227.31006A10.00523 10.00523 0 0 1 99.28 210.25l85.82007-12.46a9.993 9.993 0 0 0 7.52-5.48l4.47-9.05L216.46 186.07007a7.25222 7.25222 0 0 1 4.02 12.36987z"/><path fill="#ffe236" d="M263.93642,120.05l38.37673,77.75975a10,10,0,0,0,7.52938,5.47041l85.813,12.46935a10,10,0,0,1,5.54213,17.05694l-62.09485,60.52752a10,10,0,0,0-2.876,8.85131l14.6586,85.46623a10,10,0,0,1-14.50949,10.54176l-76.75346-40.35168a10,10,0,0,0-9.30682,0L173.5622,398.19323a10,10,0,0,1-14.5095-10.54176l14.65861-85.46623a10,10,0,0,0-2.876-8.85131l-62.09485-60.52752a10,10,0,0,1,5.54214-17.05694l85.813-12.46935a10,10,0,0,0,7.52938-5.47041L246.0017,120.05A10,10,0,0,1,263.93642,120.05Z"/><path fill="#272a33" d="M512.30078,188.68506a14.65964,14.65964,0,0,0-11.9082-10.03906l-35.73633-5.19288q-.353-.08642-.7168-.13964l-25.39355-3.69043-27.76856-56.26563a14.95517,14.95517,0,0,0-26.70019.001l-27.76758,56.26465L330.916,173.31348a7.19539,7.19539,0,0,0-.71094.13916l-29.43775,4.2771-30.10522-60.99927a17.50016,17.50016,0,0,0-31.38574,0L209.30908,177.4502l-27.5083-3.99708q-.353-.08642-.7168-.13964l-25.39257-3.69043-27.76953-56.26367a14.95437,14.95437,0,0,0-26.7002-.001L73.45312,169.62305l-25.39257,3.69043a7.19539,7.19539,0,0,0-.71094.13916L11.60742,178.646a14.75081,14.75081,0,0,0-8.17578,25.16015L48.3623,247.603,37.75488,309.44336A14.73267,14.73267,0,0,0,59.1582,324.99414l55.41407-29.13379L162.835,321.23389l-11.17383,65.14892a17.49991,17.49991,0,0,0,25.3916,18.44922l76.75391-40.35254a2.4918,2.4918,0,0,1,2.3252.001l76.7539,40.35156a17.5,17.5,0,0,0,25.3916-18.44824L347.273,322.22241l50.15478-26.36206,55.415,29.13379a14.75027,14.75027,0,0,0,21.40137-15.55078l-10.60547-61.84131,44.93067-43.79639A14.65854,14.65854,0,0,0,512.30078,188.68506ZM166.31934,300.918l-.81812,4.77051L121.31445,282.459a14.79914,14.79914,0,0,0-6.61816-1.68652c-.082-.002-.166-.002-.24805,0a14.81086,14.81086,0,0,0-6.61816,1.68555L52.625,311.48145,63.169,250.0083a14.75,14.75,0,0,0-4.24317-13.05566L14.26465,193.41748l35.96387-5.22607a7.20157,7.20157,0,0,0,.71093-.13916l24.79981-3.60352a14.74549,14.74549,0,0,0,11.10742-8.06934l27.72559-56.17724,27.72461,56.17578a14.74538,14.74538,0,0,0,11.10742,8.07031l24.79394,3.603c.23633.05811.47461.105.71778.14014l23.41284,3.40185-1.42945,2.89649a2.50172,2.50172,0,0,1-1.88183,1.36865L113.2041,208.32764a17.50006,17.50006,0,0,0-9.69922,29.84961l62.09668,60.5288A2.50085,2.50085,0,0,1,166.31934,300.918Zm176.17871,90.44629a2.39776,2.39776,0,0,1-2.63184.19043L263.11328,351.2041a17.48875,17.48875,0,0,0-16.28808-.001l-76.752,40.35157a2.501,2.501,0,0,1-3.6289-2.63574l14.6582-85.46485a17.495,17.495,0,0,0-5.03223-15.49121l-62.09472-60.52637a2.50044,2.50044,0,0,1,1.38476-4.26513l85.81445-12.46924a17.50057,17.50057,0,0,0,13.17579-9.57324l38.37695-77.75977a2.4998,2.4998,0,0,1,4.4834,0l38.376,77.7583a17.49657,17.49657,0,0,0,13.17774,9.57471l85.8125,12.46924a2.50026,2.50026,0,0,1,1.38476,4.26465l-62.09472,60.52685a17.4994,17.4994,0,0,0-5.03223,15.49023l2.7417,15.98584c.00366.02027.00659.04053.0105.0608l11.906,69.41919A2.40111,2.40111,0,0,1,342.49805,391.36426ZM453.0752,236.95215a14.74082,14.74082,0,0,0-4.24219,13.05664l10.542,61.47266L404.1709,282.459a14.80648,14.80648,0,0,0-6.61914-1.68652c-.082-.002-.166-.002-.248,0a14.80359,14.80359,0,0,0-6.61719,1.68555l-46.07959,24.22021-.98779-5.75927a2.49716,2.49716,0,0,1,.71875-2.21387l62.09473-60.52783a17.49956,17.49956,0,0,0-9.69922-29.84961L310.92188,195.8584a2.5,2.5,0,0,1-1.88282-1.36817l-1.292-2.61767,25.33691-3.68115a7.20119,7.20119,0,0,0,.71094-.13916l24.79981-3.60352a14.74549,14.74549,0,0,0,11.10742-8.06934l27.72558-56.17822,27.72461,56.17676a14.74542,14.74542,0,0,0,11.10743,8.07031l24.79394,3.603c.23633.05811.47461.105.71777.14014l35.96485,5.22656Z"/></svg>