<svg xmlns="http://www.w3.org/2000/svg" xmlns:xlink="http://www.w3.org/1999/xlink" viewBox="0 0 64 64"><defs><linearGradient id="a" x1="15" x2="15" y1="51" y2="19" gradientUnits="userSpaceOnUse"><stop offset="0" stop-color="#54a5ff"/><stop offset="1" stop-color="#8ad3fe"/></linearGradient><linearGradient id="b" x1="43" x2="43" y1="51" y2="16" gradientUnits="userSpaceOnUse"><stop offset="0" stop-color="#fe9661"/><stop offset="1" stop-color="#ffb369"/></linearGradient><linearGradient id="c" x1="27.5" x2="27.5" y2="9" xlink:href="#a"/></defs><rect width="50" height="6" x="7" y="51" fill="#9db8d3" rx="2" ry="2"/><path fill="url(#a)" d="M12,19h6a2,2,0,0,1,2,2V51a0,0,0,0,1,0,0H10a0,0,0,0,1,0,0V21A2,2,0,0,1,12,19Z"/><path fill="#8ad3fe" d="M32,22h4a2,2,0,0,1,2,2V51a0,0,0,0,1,0,0H30a0,0,0,0,1,0,0V24A2,2,0,0,1,32,22Z"/><path fill="#ffb369" d="M50,22h2a2,2,0,0,1,2,2V51a0,0,0,0,1,0,0H48a0,0,0,0,1,0,0V24A2,2,0,0,1,50,22Z"/><path fill="url(#b)" d="M40,16h6a2,2,0,0,1,2,2V51a0,0,0,0,1,0,0H38a0,0,0,0,1,0,0V18A2,2,0,0,1,40,16Z"/><path fill="#eb7f58" d="M22,7h1a2,2,0,0,1,2,2V51a0,0,0,0,1,0,0H20a0,0,0,0,1,0,0V9A2,2,0,0,1,22,7Z"/><path fill="url(#c)" d="M27,9h1a2,2,0,0,1,2,2V51a0,0,0,0,1,0,0H25a0,0,0,0,1,0,0V11A2,2,0,0,1,27,9Z"/><circle cx="15" cy="37" r="3" fill="#d7e9f7"/><path fill="#8ad3fe" d="M17 44H13a1 1 0 0 1 0-2h4a1 1 0 0 1 0 2zM17 48H13a1 1 0 0 1 0-2h4a1 1 0 0 1 0 2z"/><rect width="5" height="6" x="20" y="38" fill="#ffb369"/><rect width="4" height="22" x="41" y="23" fill="#eb7f58" rx="2" ry="2"/><path fill="#d7e9f7" d="M34,47a1,1,0,0,1-1-1V26a1,1,0,0,1,2,0V46A1,1,0,0,1,34,47Z"/></svg>