<svg xmlns="http://www.w3.org/2000/svg" enable-background="new 0 0 50 50" viewBox="0 0 50 50"><polygon fill="#B0AFB0" points="47.883 40.752 48.925 40.147 48.998 13.929 47.956 14.534"/><polygon fill="#D7D7D7" points="25.555 1.601 25.482 27.819 47.883 40.752 47.956 14.534"/><polygon fill="#D7D7D7" points="2.114 42.603 1.071 41.997 .998 15.779 2.041 16.385"/><polygon fill="#F1F1F1" points="49.002 13.93 47.952 14.53 26.602 2.21 2.042 16.38 1.002 15.78 26.602 1"/><polygon fill="#B0AFB0" points="26.598 2.207 26.671 28.425 2.114 42.603 2.041 16.385"/><path fill="#92542A" d="M39.841 33.4036l-.3483.2011c-.0802.0464-.2212.0461-.3014.0003l-.3051-.1814c-.0282-.0163-.0388-.0326-.0395-.0401l-.0803-.0013-.0001-.0003v.0003l-.08-.0019c0 .0019 0 .0031 0 .005l-.0013 7.7638c0 .0708.0439.1369.119.1804l.3057.1811c.0652.0376.1485.0564.2312.0564.0833 0 .1667-.0188.2312-.0564l.349-.2008c.0746-.0439.1178-.109.1178-.1789l.0006-7.7675h-.1604C39.8792 33.3726 39.8673 33.3886 39.841 33.4036zM44.1122 30.9856L44.1122 30.9856 44.1122 30.9856h-.0804c0 .0063-.0081.0226-.0382.0401l-.3483.2011c-.0802.0464-.2212.0464-.3013.0003l-.3051-.1811c-.032-.0185-.0401-.0354-.0401-.042h-.0798 0l0 0h-.0805l-.0006 7.7672c0 .0714.0439.1372.119.1804l.3057.1811c.0652.0376.1485.0564.2312.0564.0833 0 .166-.0188.2306-.0564l.349-.2005c.0752-.0439.1184-.109.1184-.1792l.0006-7.7675H44.1122zM24.1529 24.7918l-.349.2011c-.0802.0464-.2205.0464-.3007 0l-.3057-.1811c-.0276-.0157-.0395-.0323-.0395-.042h-.1604l-.0006 7.7675c0 .0708.0439.1369.119.1804l.3051.1811c.0652.0376.1485.0564.2318.0564.0827 0 .166-.0188.2306-.0564l.3483-.2005c.0752-.0435.1184-.109.1184-.1792l.0013-7.7675h-.1604C24.1911 24.7605 24.1792 24.7768 24.1529 24.7918zM28.4238 22.3738L28.4238 22.3738h-.0801c0 .0063-.0081.0226-.0382.0404l-.3496.2008c-.0789.0467-.2199.0464-.3001 0l-.3057-.1807c-.0269-.016-.0395-.0323-.0395-.042h-.0802 0l0 0h-.0802l-.0006 7.766c-.0013.0711.0426.1375.119.1817l.3051.1811c.0652.0376.1485.0564.2312.0564.0833 0 .1667-.0188.2312-.0564l.3483-.2005c.0752-.0432.1184-.1084.1184-.1792l.0013-7.7675H28.4238L28.4238 22.3738z"/><path fill="#AA6735" d="M45.0104,30.6307l-4.6166,2.595c-0.4226,0.2456-1.1104,0.2463-1.5369,0L22.1879,23.343
							c-0.2144-0.1238-0.3213-0.2861-0.3209-0.4481l-0.0036,1.2728c-0.0005,0.1621,0.1064,0.3244,0.3209,0.4481l16.6692,9.8827
							c0.4264,0.2463,1.1143,0.2456,1.5369,0l4.6166-2.595c0.2098-0.1219,0.3149-0.2814,0.3154-0.4412l0.0036-1.2728
							C45.3254,30.3493,45.2202,30.5088,45.0104,30.6307z"/><path fill="#CC8B4F" d="M45.0044,29.7411c0.4264,0.2462,0.4286,0.644,0.0061,0.8896l-4.6166,2.595
								c-0.4226,0.2456-1.1104,0.2462-1.5369,0L22.1879,23.343c-0.4264-0.2462-0.4276-0.6446-0.005-0.8902l4.6166-2.595
								c0.4226-0.2456,1.1093-0.2456,1.5358,0.0006L45.0044,29.7411z"/><path fill="#DD454D" d="M24.3351,31.3237c0,0-0.1334,0.6083-1.4817,0.9963c-0.9509,0.2736-1.0496,1.0669,0.564,0.6387
				c1.4899-0.3954,2.7629,0.4329,2.4759-1.7122C25.8142,30.6553,24.3351,31.3237,24.3351,31.3237z"/><path fill="#6D9D41" d="M31.682,21.4403c-0.4634-0.946-2.5681,0.1159-2.5681,0.1159l-5.3508,2.5027
								c0,0-0.9461,0.309-0.4441,2.105c0.502,1.7957,1.0162,5.1598,1.0162,5.1598s0.8958,0.4249,1.5582-0.0772
								c0,0,0.1716-3.3168-0.0442-4.7672c-0.0426-0.2866,0.1195-0.562,0.397-0.6454c1.2667-0.3804,4.4645-1.3616,4.9119-1.7014
								C31.718,23.7079,32.1454,22.3865,31.682,21.4403z"/><path fill="#DD454D" d="M26.58,32.4432c0,0-0.1334,0.6083-1.4817,0.9963c-0.9509,0.2736-1.0496,1.0669,0.564,0.6387
									c1.4899-0.3954,2.7629,0.4329,2.4759-1.7122C28.0591,31.7748,26.58,32.4432,26.58,32.4432z"/><path fill="#73AE43" d="M34.1239,22.2712c-0.2838-1.0146-2.7652,0.4044-2.7652,0.4044l-5.3508,2.5027
									c0,0-0.9461,0.309-0.4441,2.1047c0.502,1.796,1.0162,5.1601,1.0162,5.1601s0.8958,0.4249,1.5582-0.0772
									c0,0,0.1643-3.1749-0.0308-4.6703c-0.0421-0.3227,0.1901-0.6115,0.514-0.6409c1.262-0.115,3.4715-0.3481,4.5139-1.0105
									C34.4182,25.2288,34.4743,23.5243,34.1239,22.2712z"/><path fill="#F9C895" d="M28.8147,16.6231c-0.3239,0.0133-0.5863-0.0291-0.6329-0.0373
												c-0.1023,1.2118-0.9662,2.2831-2.0322,2.6712c-0.3642,0.1934-1.2613,0.1528-1.3257,0.1478
												c-0.0685-0.0035-0.6586-0.1501-0.7668,0.1364c-0.1042,0.2848,0.6685,0.227,0.6685,0.227
												c0.6477,0.0928,0.1952,0.1723,0.1041,0.1932c-0.0854,0.0231-0.7595,0.3051-0.7595,0.3051
												c-0.2784,0.0841-0.0829,0.1701-0.0385,0.1842c-0.3503,0.1923,0.0661,0.2482,0.0661,0.2482
												c-0.3069,0.302,0.1397,0.2634,0.1397,0.2634c-0.1243,0.2173,0.148,0.2171,0.148,0.2171s0.9845-0.2608,1.2381-0.3578
												c0.3109-0.1192,0.386-0.4291,0.7911-0.5953c0.2942-0.1213,0.2645-0.1051,1.2125-0.7061
												c0.3135-0.1999,1.6384-0.3713,2.1069-1.4469C29.4948,17.7243,29.1418,17.215,28.8147,16.6231z"/><path fill="#8850A0" d="M30.1407,13.1742c-0.6926-0.0109-1.3176,0.4204-1.6133,1.0466
								c-0.2339,0.4955-0.4425,1.2621-0.3984,2.3932c0,0,0.0106,0.0052,0.0159,0.0106c0.0424,0.0264,0.2652,0.1696,0.5676,0.2865
								c-0.0735-0.588-0.068-1.5797,0.1447-2.2973c0.1897-0.6402,0.6794-1.1458,1.2835-1.4299
								c0.0116-0.0054,0.0183-0.0088,0.0188-0.0093C30.1532,13.1742,30.147,13.1742,30.1407,13.1742z"/><path fill="#794499" d="M34.1495,18.9454c0.3682-0.5108,0.4559-2.3395,0.476-3.3377
								c0.0277-1.3757-1.6788-1.6063-2.1038-2.0313c-0.1298-0.1298-1.3213-0.3105-2.0576-0.4115
								c-0.296-0.0406-0.7176,0.0915-0.9349,0.2967c-1.4898,1.4062-0.6135,4.6862-0.4974,5.512
								c0.1217,0.8656-0.2156,3.1065-0.2156,3.1065c0.3294,1.2432,1.907,1.7605,3.091,1.9749
								c0.9618,0.1743,2.1146-0.0934,2.3653-1.0381C34.7124,21.3586,33.7548,19.4926,34.1495,18.9454z"/><path fill="#E5AE70" d="M30.2463,13.4489c0.6081-1.3643,2.1829-1.6926,2.1829-1.6926s0.2088,0.717,0.1657,1.9422
								c-0.0082,0.2342-0.0759,0.4685-0.223,0.6688c-0.2395,0.3259-0.6244,0.5411-1.4344,0.4545
								c-0.4272-0.0457-0.7749-0.3201-0.814-0.674C30.1021,13.9552,30.1255,13.7197,30.2463,13.4489z"/><path fill="#F9C895" d="M31.5454,10.2397c-0.3479,0.0775-0.6848,0.1593-0.9753,0.2327
								c-0.5328,0.1348-0.9177,0.6054-0.9129,1.1115c0.0026,0.2675,0.0088,0.5529,0.0221,0.7864
								c0.0219,0.3849,0.3039,1.7163,0.7033,1.6538c0.3994-0.0628,1.5698,0.1223,2.1629-1.1686
								c0.1079-0.2346,0.4389-1.1144,0.5215-1.7981C33.1045,10.7475,32.5326,10.0198,31.5454,10.2397z"/><path fill="#DD454D" d="M33.1031,11.7566c0,0.6132-0.5388,1.0605-0.5388,1.0605c0.2036-0.7375,0.1965-1.2273,0.1032-1.2038
					c-0.0459,0.2292-0.4012,0.6132-0.4012,0.6132c0.1318-0.8195-0.0803-1.1635-0.0803-1.1635l-0.1891,0.8654
					c-0.0115-1.2323-0.3497-0.9916-0.3497-0.9916c-0.0229,0.2636-0.1433,0.5102-0.1433,0.5102
					c-1.261-1.5763-1.8113-0.1377-1.8113-0.1377c-0.1605-0.6647-0.0516-1.834,1.4559-1.9144
					c0.1662-0.0056,0.321,0.0059,0.4758,0.0174C33.5215,9.6301,33.1031,11.1431,33.1031,11.7566z"/><path fill="#F9C895" d="M34.3513,18.4247c-0.2636,0-0.5061-0.0322-0.7321-0.0862c0.1009,0.4671,0.1821,0.9015,0.1882,1.1181
					c0.0172,0.5959-1.4445,2.9116-1.4445,2.9116s-0.5159,0.1892-0.7394,0.4987c-0.2294,0.348-0.7315,0.1263-0.9057,0.2236
					c-0.0745,0.0344-0.149,0.1033-0.0745,0.2063c0.0401,0.0459,0.0974,0.0803,0.1548,0.0974
					c0.1146,0.023,0.3496,0.0574,0.4758-0.0112c0.1891-0.1033,0.2522,0.3952-0.2121,0.4929c-0.4585,0.103-0.6248,0.0859-0.7738,0.04
					c-0.1548-0.0515-0.5044,0.4929,0.2293,0.5158c0.7394,0.0229,1.6508-0.1604,1.9488-0.7621
					c0.1892-0.3728,0.6076-0.5961,0.6133-0.5961c0,0,1.2381-1.0719,2.0864-2.5564c0.3159-0.5466,0.4414-1.3708,0.3058-2.3037
					C35.1458,18.3466,34.7739,18.4247,34.3513,18.4247z"/><path fill="#8850A0" d="M33.4983,18.5733c0.5096,0.1195,2.0483,0.1231,2.1191-0.1892c-0.0047-0.911-0.2242-1.9572-0.7339-3.0135
					c-0.471-0.9762-0.9877-0.9281-1.3867-0.6362c-0.4651,0.3406-0.6449,0.9552-0.5015,1.5374
					C33.16,16.9408,33.393,17.9302,33.4983,18.5733z"/><path fill="#3D3D3D" d="M33.8626,36.9156c0,0-1.2064,0.8535-1.4723,0.99c-0.8747,0.4489-0.9407,1.3407,0.5605,0.6347
								s2.7392,0,2.4602-1.7014C35.3149,36.254,33.8626,36.9156,33.8626,36.9156z"/><path fill="#144A87" d="M37.6024,27.5114l-4.3083,2.1855c0,0-0.9402,0.307-0.4413,2.0914
											c0.4989,1.7844,1.0098,5.1273,1.0098,5.1273s0.8902,0.4221,1.5483-0.0767c0,0,0.2227-4.3049-0.1611-5.2259
											c0,0,3.8274-1.1195,4.3838-1.5416c0.5564-0.4221,0.9811-1.735,0.5206-2.6751
											C39.6938,26.4561,37.6024,27.5114,37.6024,27.5114z"/><path fill="#3D3D3D" d="M36.0932,38.028c0,0-1.2064,0.8535-1.4723,0.99c-0.8747,0.4489-0.9407,1.3407,0.5605,0.6347
									c1.5011-0.706,2.7392,0,2.4602-1.7014C37.5456,37.3663,36.0932,38.028,36.0932,38.028z"/><path fill="#164993" d="M41.8603,31.1857c-0.4368,0.3386-2.9683,1.1142-3.9756,1.4171
									c-0.2139,0.0714-0.3387,0.2851-0.303,0.5171c0.2406,1.3819,0.0623,4.8312,0.0623,4.8312
									c-0.6596,0.4992-1.551,0.0805-1.551,0.0805s-0.5081-3.3427-1.0073-5.1345c-0.4992-1.7827,0.4368-2.0857,0.4368-2.0857
									l4.3142-2.184c0,0,2.4602-1.4171,2.7454-0.4009C42.93,29.4652,42.4219,30.7579,41.8603,31.1857z"/><path fill="#DD454D" d="M42.6061,24.9171c0.3659-0.5076,0.453-2.3247,0.4729-3.3165
								c0.0096-0.4758-0.2295-0.9169-0.6249-1.1815c-0.6231-0.4173-1.3286-0.7-1.4656-0.837
								c-0.129-0.129-1.3129-0.3085-2.0446-0.4089c-0.2942-0.0403-0.713,0.0909-0.9289,0.2948
								c-1.4803,1.3972-0.6096,4.6565-0.4942,5.477c0.121,0.8601-0.2143,3.0868-0.2143,3.0868
								c0.3273,1.2353,1.8949,1.7493,3.0714,1.9623c0.9557,0.1732,1.8906-0.4233,2.1397-1.362
								C42.9549,26.9846,42.214,25.4609,42.6061,24.9171z"/><path fill="#589441" d="M42.6061,24.9171c0.3659-0.5076,0.453-2.3247,0.4729-3.3165
								c0.0096-0.4758-0.2295-0.9169-0.6249-1.1815c-0.6231-0.4173-1.3286-0.7-1.4656-0.837
								c-0.129-0.129-1.3129-0.3085-2.0446-0.4089c-0.2942-0.0403-0.713,0.0909-0.9289,0.2948
								c-1.4803,1.3972-0.6096,4.6565-0.4942,5.477c0.121,0.8601-0.2143,3.0868-0.2143,3.0868
								c0.3273,1.2353,1.8949,1.7493,3.0714,1.9623c0.9557,0.1732,1.8906-0.4233,2.1397-1.362
								C42.9549,26.9846,42.214,25.4609,42.6061,24.9171z"/><path fill="#F9C895" d="M37.2032,22.8983c-0.3-0.1174-0.5217-0.2609-0.5608-0.287
											c-0.1869,0.3434-0.8781,1.3954-2.3605,1.5867c-0.2521,0.0306-0.426,0.0391-0.5564,0.0306
											c-0.4086,0.0304-1.2085-0.3653-1.2651-0.3957c-0.0609-0.0306-0.539-0.3999-0.7521-0.1825
											c-0.2087,0.2174,0.5173,0.4738,0.5173,0.4738c0.5521,0.3434,0.1087,0.2348,0.0174,0.2174
											c-0.0869-0.0132-0.8129-0.0261-0.8129-0.0261c-0.2869-0.0348-0.1435,0.1216-0.1087,0.1522
											c-0.3956,0.0348-0.0391,0.2522-0.0391,0.2522c-0.3999,0.152,0.0218,0.2955,0.0218,0.2955
											c-0.2,0.1479,0.0478,0.2566,0.0478,0.2566s0.9999,0.1564,1.2694,0.1696c0.2695,0.0129,0.3642-0.1108,0.6216-0.1783
											c0.1492-0.0391,0.2591-0.0488,0.3361-0.0469c0.1376,0.0032,0.2775,0.0047,0.4137-0.0157
											c0.3933-0.0588,0.6409-0.0915,0.9718-0.1418c0.3652-0.0565,1.6389,0.3173,2.4953-0.4738
											C37.3814,24.1719,37.264,23.5676,37.2032,22.8983z"/><path fill="#589441" d="M38.6228,19.1826c-0.6882-0.0108-1.3092,0.4177-1.6031,1.04
											c-0.2324,0.4923-0.4397,1.2541-0.3959,2.378c0,0,0.0106,0.0051,0.0158,0.0106c0.0421,0.0262,0.2635,0.1686,0.564,0.2846
											c-0.0106-0.0844-0.0158-0.174-0.0211-0.2584c-0.0434-0.6784-0.0212-1.3967,0.1649-2.0244
											c0.1885-0.6362,0.6751-1.1385,1.2754-1.4209c0.0115-0.0054,0.0181-0.0088,0.0187-0.0093
											C38.6352,19.1826,38.629,19.1826,38.6228,19.1826z"/><path fill="#80BC41" d="M37.3129,23.7382c0.2651,0.2827,0.6894,0.3448,1.2462-0.1239
									c0.0972-0.0794,0.2475-0.044,0.2828,0.0798c0.5729,1.6535,2.0321,0.9428,2.2626-0.3625
									c0.0707-0.3979,0.981-0.9015,1.9621-1.2463c0.1058-2.115-1.4652-1.888-2.077-2.5013
									c-0.1326-0.1325-1.3169-0.309-2.0416-0.4065c-0.9649-0.1413-1.5308,0.9139-1.6969,1.8824
									C37.0538,22.0186,36.5852,22.9723,37.3129,23.7382z"/><path fill="#E5AE70" d="M38.7276,19.4555c0.6042-1.3557,2.1691-1.6819,2.1691-1.6819s0.2075,0.7124,0.1646,1.9299
								c-0.0082,0.2327-0.0754,0.4655-0.2216,0.6645c-0.238,0.3238-0.6204,0.5377-1.4253,0.4516
								c-0.4245-0.0454-0.77-0.318-0.8088-0.6698C38.5844,19.9586,38.6077,19.7246,38.7276,19.4555z"/><path fill="#F9C895" d="M38.295 17.1714c0 0 .3458 1.2085.345 1.6167-.0008.4082.2496 1.5127.6397 1.4471s1.5732.1282 2.0219-1.2246c.0816-.2461.3147-.2695.3224-.9858.0035-.3248-.9683-2.3227-1.9253-2.0922S38.295 17.1714 38.295 17.1714zM42.8354 25.4637c-.0043.1492-.0451.2907-.1362.413-.6543.8495-2.5112 1.9732-3.3624 2.4574-.2195.1241-.4556.2065-.7037.2534-.1111.0208-.2586.0599-.4486.1293-.1241.046-.899.3176-1.017.1683-.131-.1588-.2768-.7801-.177-.8218.1727-.072.5224-.0955.6534-.1085.0816 0 .1232-.0868.0911-.1458-.0226-.0356-.0547-.0495-.1041-.0452-.1822.0182-.472-.0086-.472-.236 0 0-.0043-.1996.3358-.0451.3358.1449.7558.2456 1.0456.1362l.0052-.0017c.3167-.1284 1.063-.9354 1.2998-1.1818.7332-.761 1.0204-.7793 1.2374-.997.2586-.2586.1067-2.119.1067-2.119l1.7424-.3089C43.1548 23.3785 42.8667 24.8962 42.8354 25.4637z"/><path fill="#589441" d="M43.1175,23.9811c-0.4709,0.6236-2.0499,0.305-2.0499,0.305c-0.5402-2.5483,0.3003-3.566,0.7019-3.6905
		C43.6809,19.9999,43.1175,23.9811,43.1175,23.9811z"/><path fill="#444344" d="M42.8013,17.4169c-0.0533,0.1507-0.2498,0.6517-0.0726,1.2426c0,0-0.4084-0.2034-0.4602-0.7874
		c-0.1-1.1433-0.7091-1.007-0.7091-1.007l-0.3487-0.7908c0,0,0.3704-0.9861,1.0442-0.4034
		C42.9235,16.2606,42.8546,17.2662,42.8013,17.4169z"/><path fill="#444344" d="M40.2654,15.2211c-2.447,0.1898-1.9704,1.9503-1.9704,1.9503s1.4229-1.453,1.9119-0.4074
		c0.7599,1.6247,1.3672,0.0635,0.8828,2.0287c-0.0484,0.1963,0.1216,0.298,0.1216,0.298c0.5346-0.3852,0.5964-1.6155,0.5964-1.6155
		C42.281,14.9758,40.2654,15.2211,40.2654,15.2211z"/><g><path fill="#92542A" d="M26.4852 40.8365l-.3483.2011c-.0802.0464-.2212.0461-.3014.0003l-.3051-.1814c-.0282-.0163-.0388-.0326-.0395-.0401l-.0803-.0013-.0001-.0003v.0003l-.08-.0019c0 .0019 0 .0031 0 .005l-.0013 7.7638c0 .0708.0439.1369.119.1804l.3057.1811C25.8192 48.9812 25.9026 49 25.9853 49c.0833 0 .1667-.0188.2312-.0564l.349-.2008c.0746-.0439.1178-.109.1178-.1789l.0006-7.7675h-.1604C26.5234 40.8055 26.5115 40.8215 26.4852 40.8365zM30.7565 38.4185L30.7565 38.4185 30.7565 38.4185h-.0804c0 .0063-.0081.0226-.0382.0401l-.3483.2011c-.0802.0464-.2212.0464-.3014.0003l-.3051-.1811c-.032-.0185-.0401-.0354-.0401-.042h-.0798 0l0 0h-.0805l-.0006 7.7672c0 .0714.0439.1372.119.1804l.3057.1811c.0652.0376.1485.0564.2312.0564.0833 0 .166-.0188.2306-.0564l.349-.2005c.0752-.0439.1184-.109.1184-.1792l.0006-7.7675H30.7565zM10.7971 32.2247l-.349.2011c-.0802.0464-.2205.0464-.3007 0l-.3057-.1811c-.0276-.0157-.0395-.0323-.0395-.042H9.6419l-.0006 7.7675c0 .0708.0439.1369.119.1804l.3051.1811c.0652.0376.1485.0564.2318.0564.0827 0 .166-.0188.2306-.0564l.3483-.2005c.0752-.0435.1184-.109.1184-.1792l.0013-7.7675h-.1604C10.8354 32.1934 10.8235 32.2096 10.7971 32.2247zM15.0681 29.8066L15.0681 29.8066H14.988c0 .0063-.0081.0226-.0382.0404l-.3496.2008c-.0789.0467-.2199.0464-.3001 0l-.3057-.1807c-.0269-.016-.0395-.0323-.0395-.042h-.0802 0l0 0h-.0802l-.0006 7.766c-.0013.0711.0426.1375.119.1817l.3051.1811c.0652.0376.1485.0564.2312.0564.0833 0 .1667-.0188.2312-.0564l.3483-.2005c.0752-.0432.1184-.1084.1184-.1792l.0013-7.7675H15.0681L15.0681 29.8066z"/><path fill="#AA6735" d="M31.6547,38.0636l-4.6166,2.595c-0.4226,0.2456-1.1104,0.2463-1.5369,0L8.8321,30.7758
							c-0.2144-0.1238-0.3213-0.2861-0.3209-0.4481l-0.0036,1.2728c-0.0005,0.1621,0.1064,0.3244,0.3209,0.4481l16.6692,9.8827
							c0.4265,0.2463,1.1143,0.2456,1.5369,0l4.6166-2.595c0.2098-0.1219,0.3149-0.2814,0.3154-0.4412l0.0036-1.2728
							C31.9696,37.7822,31.8645,37.9417,31.6547,38.0636z"/><path fill="#CC8B4F" d="M31.6486,37.174c0.4264,0.2462,0.4286,0.644,0.0061,0.8896l-4.6166,2.595
								c-0.4226,0.2456-1.1104,0.2462-1.5369,0L8.8321,30.7759c-0.4264-0.2462-0.4276-0.6446-0.005-0.8902l4.6166-2.595
								c0.4226-0.2456,1.1093-0.2456,1.5358,0.0006L31.6486,37.174z"/></g><g><path fill="#3D3D3D" d="M11.5661,38.8192c0,0-1.2064,0.8535-1.4723,0.99c-0.8747,0.4489-0.9407,1.3407,0.5605,0.6347
									s2.7392,0,2.4602-1.7014C13.0185,38.1576,11.5661,38.8192,11.5661,38.8192z"/><path fill="#BC2B3B" d="M15.306,29.415l-4.3083,2.1855c0,0-0.9402,0.307-0.4413,2.0914
												c0.4989,1.7844,1.0098,5.1273,1.0098,5.1273s0.8902,0.4221,1.5483-0.0767c0,0,0.2227-4.3049-0.1611-5.2259
												c0,0,3.8274-1.1195,4.3838-1.5416c0.5564-0.4221,0.9811-1.735,0.5206-2.6751
												C17.3974,28.3597,15.306,29.415,15.306,29.415z"/><path fill="#3D3D3D" d="M13.7968,39.9316c0,0-1.2064,0.8535-1.4723,0.99c-0.8747,0.4489-0.9407,1.3407,0.5605,0.6347
										s2.7392,0,2.4602-1.7014C15.2492,39.27,13.7968,39.9316,13.7968,39.9316z"/><path fill="#DD454D" d="M19.5671,33.0896c-0.4457,0.3386-2.9772,1.1142-3.9755,1.4171
										c-0.2228,0.0714-0.3476,0.2851-0.3031,0.5171c0.2318,1.3815,0.0535,4.8312,0.0535,4.8312
										c-0.6507,0.4992-1.5421,0.0801-1.5421,0.0801s-0.517-3.3427-1.0162-5.1341c-0.4992-1.7827,0.4457-2.0861,0.4457-2.0861
										l4.3054-2.1836c0,0,2.4691-1.4176,2.7455-0.41C20.6368,31.369,20.1287,32.6617,19.5671,33.0896z"/><path fill="#DD454D" d="M20.3097,26.8207c0.3659-0.5076,0.453-2.3247,0.4729-3.3165
									c0.0096-0.4758-0.2295-0.9169-0.6249-1.1815c-0.6231-0.4173-1.3286-0.7-1.4656-0.837
									c-0.129-0.129-1.3129-0.3085-2.0446-0.4089c-0.2942-0.0403-0.713,0.0909-0.9289,0.2948
									c-1.4803,1.3972-0.6096,4.6565-0.4942,5.477c0.121,0.8601-0.2143,3.0868-0.2143,3.0868
									c0.3273,1.2353,1.8949,1.7493,3.0714,1.9623c0.9557,0.1732,1.8906-0.4233,2.1397-1.362
									C20.6585,28.8882,19.9176,27.3645,20.3097,26.8207z"/><path fill="#4787C7" d="M20.3097,26.8207c0.3659-0.5076,0.453-2.3247,0.4729-3.3165
									c0.0096-0.4758-0.2295-0.9169-0.6249-1.1815c-0.6231-0.4173-1.3286-0.7-1.4656-0.837
									c-0.129-0.129-1.3129-0.3085-2.0446-0.4089c-0.2942-0.0403-0.713,0.0909-0.9289,0.2948
									c-1.4803,1.3972-0.6096,4.6565-0.4942,5.477c0.121,0.8601-0.2143,3.0868-0.2143,3.0868
									c0.3273,1.2353,1.8949,1.7493,3.0714,1.9623c0.9557,0.1732,1.8906-0.4233,2.1397-1.362
									C20.6585,28.8882,19.9176,27.3645,20.3097,26.8207z"/><path fill="#F9C895" d="M14.9068,24.8019c-0.3-0.1174-0.5217-0.2609-0.5608-0.287
												c-0.1869,0.3434-0.8781,1.3954-2.3605,1.5867c-0.2521,0.0306-0.426,0.0391-0.5564,0.0306
												c-0.4086,0.0304-1.2085-0.3653-1.2651-0.3957c-0.0609-0.0306-0.5391-0.3999-0.7521-0.1825
												c-0.2087,0.2174,0.5173,0.4738,0.5173,0.4738c0.5521,0.3434,0.1087,0.2348,0.0174,0.2174
												c-0.087-0.0132-0.8129-0.0261-0.8129-0.0261c-0.2869-0.0348-0.1435,0.1216-0.1087,0.1522
												c-0.3956,0.0348-0.0391,0.2522-0.0391,0.2522c-0.3999,0.152,0.0218,0.2955,0.0218,0.2955
												c-0.2,0.1479,0.0478,0.2566,0.0478,0.2566s0.9999,0.1564,1.2694,0.1696c0.2695,0.0129,0.3642-0.1108,0.6216-0.1783
												c0.1492-0.0391,0.2591-0.0488,0.3361-0.0469c0.1376,0.0032,0.2775,0.0047,0.4137-0.0157
												c0.3933-0.0588,0.6409-0.0915,0.9718-0.1418c0.3652-0.0565,1.6389,0.3173,2.4953-0.4738
												C15.085,26.0755,14.9676,25.4712,14.9068,24.8019z"/><path fill="#4787C7" d="M16.3264,21.0862c-0.6882-0.0108-1.3092,0.4177-1.6031,1.04
												c-0.2324,0.4923-0.4397,1.2541-0.3959,2.378c0,0,0.0106,0.0051,0.0158,0.0106c0.0421,0.0262,0.2635,0.1686,0.564,0.2846
												c-0.0106-0.0844-0.0158-0.174-0.0211-0.2584c-0.0434-0.6784-0.0212-1.3967,0.1649-2.0244
												c0.1885-0.6362,0.6751-1.1385,1.2754-1.4209c0.0115-0.0054,0.0181-0.0088,0.0181-0.0088
												C16.3388,21.0862,16.3326,21.0862,16.3264,21.0862z"/><path fill="#55B8E8" d="M15.0165,25.6418c0.2651,0.2827,0.6894,0.3448,1.2462-0.1239
										c0.0972-0.0794,0.2475-0.044,0.2828,0.0798c0.1591,0.4592,0.5833,1.299,1.4848,0.8307
										c0.4066-0.2123,0.6982-0.7427,0.7778-1.1932c0.0707-0.3979,0.981-0.9015,1.9621-1.2463
										c0.0325-0.6499,0.0247-1.2377-0.6098-1.6701c-1.458-0.9656-1.7475-1.0007-3.5087-1.2377
										c-0.9649-0.1413-1.5308,0.9139-1.6969,1.8824C14.7574,23.9223,14.2888,24.876,15.0165,25.6418z"/><path fill="#E5AE70" d="M16.4312,21.3591c0.6042-1.3557,2.1691-1.6819,2.1691-1.6819s0.2075,0.7124,0.1646,1.9299
									c-0.0082,0.2327-0.0754,0.4655-0.2216,0.6645c-0.238,0.3238-0.6204,0.5377-1.4253,0.4516
									c-0.4245-0.0454-0.77-0.318-0.8088-0.6698C16.288,21.8623,16.3113,21.6283,16.4312,21.3591z"/><path fill="#F9C895" d="M15.9986,19.075c0,0,0.3458,1.2085,0.345,1.6167c-0.0008,0.4082,0.2496,1.5127,0.6397,1.4471
									s1.5732,0.1282,2.0219-1.2246c0.0816-0.2461,0.3147-0.2695,0.3224-0.9858c0.0035-0.3248-0.9683-2.3227-1.9253-2.0922
									C16.4453,18.0668,15.9986,19.075,15.9986,19.075z"/><ellipse cx="19.009" cy="17.416" fill="#AA6735" rx=".893" ry=".684" transform="rotate(37.316 19.009 17.415)"/><path fill="#BC7941" d="M18.9952,17.8279c-0.5758-0.6103-1.5267-0.7849-2.2617-0.3804c-1.0231,0.5625-0.7349,1.6273-0.7349,1.6273
			s1.506-1.0268,1.9951,0.0187c0.7599,1.6246,1.284-0.3625,0.7996,1.6028c-0.0484,0.1964,0.1216,0.2978,0.1216,0.2978
			c0.5346-0.3848,0.5964-1.6152,0.5964-1.6152C19.6131,18.7047,19.3392,18.1922,18.9952,17.8279z"/><path fill="#F9C895" d="M20.4028,27.7803c-0.6543,0.8495-2.5112,1.9732-3.3624,2.4574c-0.4558,0.2576-0.6621,0.2035-1.1523,0.3827
			c-0.1241,0.046-0.899,0.3176-1.017,0.1683c-0.131-0.1588-0.2768-0.7801-0.177-0.8218c0.1727-0.072,0.5224-0.0955,0.6534-0.1085
			c0.0816,0,0.1232-0.0868,0.0911-0.1458c-0.0226-0.0356-0.0547-0.0495-0.1041-0.0452c-0.1822,0.0182-0.472-0.0086-0.472-0.236
			c0,0-0.0043-0.1996,0.3358-0.0451c1.1367,0.4905,1.3571-0.0138,2.3507-1.0473c0.7332-0.761,1.0204-0.7793,1.2374-0.997
			c0.2586-0.2586,0.1067-2.119,0.1067-2.119l1.7424-0.3089C20.8353,25.2441,20.5886,27.5309,20.4028,27.7803z"/><path fill="#4787C7" d="M20.8211,25.8848c-0.4709,0.6236-2.0499,0.305-2.0499,0.305c-0.5402-2.5483,0.3003-3.566,0.7019-3.6905
			C21.3845,21.9035,20.8211,25.8848,20.8211,25.8848z"/></g><g><path fill="#3D3D3D" d="M18.9941,43.6109c0,0-0.1334,0.6083-1.4817,0.9963c-0.9509,0.2736-1.0496,1.0669,0.564,0.6387
				c1.4899-0.3954,2.7629,0.4329,2.4759-1.7122C20.4732,42.9425,18.9941,43.6109,18.9941,43.6109z"/><path fill="#3D3D3D" d="M26.3409 33.7275c-.4634-.946-2.5681.1159-2.5681.1159L18.422 36.346c0 0-.9461.309-.4441 2.105.502 1.7957 1.0162 5.1598 1.0162 5.1598s.8958.4249 1.5582-.0772c0 0 .1716-3.3168-.0442-4.7672-.0426-.2866.1195-.562.397-.6454 1.2667-.3804 4.4645-1.3616 4.9119-1.7014C26.377 35.9951 26.8043 34.6737 26.3409 33.7275zM21.2389 44.7304c0 0-.1334.6083-1.4817.9963-.9509.2736-1.0496 1.0669.564.6387 1.4899-.3954 2.7629.4329 2.4759-1.7122C22.7181 44.062 21.2389 44.7304 21.2389 44.7304z"/><path fill="#444" d="M28.7828,34.5584c-0.2838-1.0146-2.7652,0.4044-2.7652,0.4044l-5.3508,2.5027
									c0,0-0.9461,0.309-0.4441,2.1047c0.502,1.796,1.0162,5.1601,1.0162,5.1601s0.8958,0.4249,1.5582-0.0772
									c0,0,0.1643-3.1749-0.0308-4.6703c-0.0421-0.3227,0.1901-0.6115,0.514-0.6409c1.262-0.115,3.4715-0.3481,4.5139-1.0105
									C29.0772,37.516,29.1332,35.8115,28.7828,34.5584z"/><path fill="#F9C895" d="M23.4736,28.9103c-0.3239,0.0133-0.5863-0.0291-0.6329-0.0373
												c-0.0331,0.3921-0.2438,1.6412-1.5319,2.4177c-0.2199,0.1303-0.3767,0.2085-0.5002,0.2535
												c-0.3642,0.1934-1.2613,0.1528-1.3257,0.1478c-0.0685-0.0035-0.6586-0.1501-0.7668,0.1364
												c-0.1042,0.2848,0.6685,0.227,0.6685,0.227c0.6477,0.0928,0.1952,0.1723,0.1041,0.1932
												c-0.0854,0.0231-0.7595,0.3051-0.7595,0.3051c-0.2784,0.0841-0.0829,0.1701-0.0385,0.1842
												c-0.3503,0.1923,0.0661,0.2482,0.0661,0.2482c-0.3069,0.302,0.1397,0.2634,0.1397,0.2634
												c-0.1243,0.2173,0.148,0.2171,0.148,0.2171s0.9845-0.2608,1.2381-0.3578c0.2535-0.0972,0.2907-0.2496,0.5005-0.416
												c0.1216-0.0964,0.2189-0.1499,0.2906-0.1793c0.1281-0.0528,0.2576-0.1081,0.3747-0.182
												c0.3385-0.2134,0.5533-0.3438,0.8378-0.5242c0.3135-0.1999,1.6384-0.3713,2.1069-1.4469
												C24.1537,30.0115,23.8008,29.5022,23.4736,28.9103z"/><path fill="#EF5A5A" d="M24.7997,25.4614c-0.6926-0.0109-1.3176,0.4204-1.6133,1.0466
								c-0.2339,0.4955-0.4425,1.2621-0.3984,2.3931c0,0,0.0106,0.0052,0.0159,0.0106c0.0424,0.0264,0.2652,0.1696,0.5676,0.2865
								c-0.0735-0.588-0.068-1.5797,0.1447-2.2973c0.1897-0.6402,0.6794-1.1458,1.2835-1.4299
								c0.0116-0.0054,0.0183-0.0088,0.0188-0.0093C24.8122,25.4614,24.8059,25.4614,24.7997,25.4614z"/><path fill="#DD454D" d="M28.8084,31.2326c0.3682-0.5108,0.4559-2.3395,0.476-3.3377c0.0096-0.4788-0.231-0.9228-0.6289-1.189
								c-1.4554-0.9749-1.76-1.0107-3.5326-1.2538c-0.296-0.0406-0.7176,0.0915-0.9349,0.2967
								c-1.4898,1.4062-0.6135,4.6862-0.4974,5.512c0.1217,0.8656-0.2156,3.1065-0.2156,3.1065
								c0.3294,1.2432,1.907,1.7605,3.091,1.9749c0.9618,0.1743,2.1146-0.0934,2.3653-1.0381
								C29.3714,33.6458,28.4138,31.7798,28.8084,31.2326z"/><path fill="#E5AE70" d="M24.9052,25.7361c0.6081-1.3643,2.1829-1.6926,2.1829-1.6926s0.2088,0.717,0.1657,1.9422
								c-0.0082,0.2342-0.0758,0.4685-0.223,0.6688c-0.2395,0.3259-0.6244,0.5411-1.4344,0.4545
								c-0.4272-0.0457-0.7749-0.3201-0.814-0.674C24.7611,26.2424,24.7845,26.0069,24.9052,25.7361z"/><path fill="#F9C895" d="M26.2043,22.5269c-0.3479,0.0775-0.6848,0.1593-0.9753,0.2327
								c-0.5328,0.1348-0.9178-0.2954-0.9129,0.2107c0.0026,0.2675,0.0089,1.4537,0.0222,1.6872
								c0.0219,0.3849,0.3039,1.7163,0.7033,1.6538c0.3994-0.0628,1.5698,0.1223,2.1629-1.1686
								c0.1079-0.2346,0.4389-1.1144,0.5215-1.7981C27.7635,23.0347,27.1915,22.307,26.2043,22.5269z"/><path fill="#444344" d="M26.2832,21.6995c-0.1547-0.0116-0.3096-0.0097-0.4758-0.0172c-2.105-0.099-2.3533,0.3089-2.1391,0.8029
					c0.1995,0.4599,0.7477,0.7001,1.2235,0.5419c0.2936-0.0977,0.7126,0.0091,1.271,0.707c0,0,0.1204-0.2465,0.1433-0.51
					c0,0,0.3382-0.2409,0.3497,0.9915l0.1891-0.8652c0,0,0.2121,0.344,0.0803,1.1634c0,0,0.3554-0.3841,0.4012-0.6134
					c0.0934-0.0235,0.1004,0.4664-0.1032,1.2038c0,0,0.5388-0.4473,0.5388-1.0607C27.762,23.4303,28.1805,21.9172,26.2832,21.6995z"/><path fill="#F9C895" d="M29.0103,30.7119c-0.2636,0-0.5061-0.0322-0.7321-0.0862c0.1009,0.4671,0.1821,0.9015,0.1882,1.1181
					c0.0172,0.5959-1.4445,2.9116-1.4445,2.9116s-0.5159,0.1892-0.7394,0.4987c-0.1662,0.2522-0.5789,0.2177-0.7337,0.1948
					c-0.063-0.0112-0.1203,0-0.172,0.0288c-0.0745,0.0344-0.149,0.1033-0.0745,0.2063c0.0401,0.0459,0.0974,0.0803,0.1548,0.0974
					c0.1146,0.0229,0.3496,0.0574,0.4758-0.0112c0.1891-0.1033,0.2522,0.3952-0.2121,0.4929
					c-0.4585,0.103-0.6248,0.0859-0.7738,0.04c-0.1548-0.0515-0.5044,0.4929,0.2293,0.5158
					c0.7394,0.023,1.6508-0.1604,1.9488-0.7621c0.1892-0.3728,0.6076-0.5961,0.6133-0.5961c0,0,1.2381-1.0719,2.0864-2.5564
					c0.3159-0.5466,0.4414-1.3708,0.3058-2.3037C29.8048,30.6338,29.4329,30.7119,29.0103,30.7119z"/><path fill="#EF5A5A" d="M28.1573,30.8605c0.5096,0.1195,2.0483,0.1231,2.1191-0.1892c-0.0047-0.911-0.2242-1.9572-0.7339-3.0135
					c-0.471-0.9762-0.9877-0.9281-1.3867-0.6362c-0.4651,0.3406-0.6449,0.9552-0.5015,1.5374
					C27.8189,29.228,28.0519,30.2174,28.1573,30.8605z"/></g></svg>