<?xml version="1.0" ?><svg id="object" viewBox="0 0 32 32" xmlns="http://www.w3.org/2000/svg"><defs><style>.cls-1{fill:#eef5fd;}.cls-2{fill:#6d6daa;}.cls-3{fill:#ffc661;}.cls-4{fill:#96d7ff;}</style></defs><title/><rect class="cls-1" height="20" width="28" x="2" y="10"/><path class="cls-2" d="M30,31H2a1,1,0,0,1-1-1V10A1,1,0,0,1,2,9H30a1,1,0,0,1,1,1V30A1,1,0,0,1,30,31ZM3,29H29V11H3Z"/><path class="cls-3" d="M16,2h0a5,5,0,0,1,5,5v3a0,0,0,0,1,0,0H11a0,0,0,0,1,0,0V7A5,5,0,0,1,16,2Z"/><path class="cls-2" d="M21,11H11a1,1,0,0,1-1-1V7A6,6,0,0,1,22,7v3A1,1,0,0,1,21,11ZM12,9h8V7a4,4,0,0,0-8,0Z"/><path class="cls-4" d="M16,23h0a5,5,0,0,1,5,5v2a0,0,0,0,1,0,0H11a0,0,0,0,1,0,0V28A5,5,0,0,1,16,23Z"/><path class="cls-2" d="M21,31H11a1,1,0,0,1-1-1V28a6,6,0,0,1,12,0v2A1,1,0,0,1,21,31Zm-9-2h8V28a4,4,0,0,0-8,0Z"/><circle class="cls-4" cx="16" cy="17" r="3"/><path class="cls-2" d="M16,21a4,4,0,1,1,4-4A4,4,0,0,1,16,21Zm0-6a2,2,0,1,0,2,2A2,2,0,0,0,16,15Z"/></svg>