<?xml version="1.0"?>
<svg xmlns="http://www.w3.org/2000/svg" height="512" viewBox="0 0 512 512" width="512" class=""><g><g id="Flat"><path d="m488 224v72h-32v192h-48l-8-88-8 88h-48v-192h-32v-72a32 32 0 0 1 32-32h112a32.026 32.026 0 0 1 30.84 23.42 32.366 32.366 0 0 1 1.16 8.58z" fill="#4d5e78" data-original="#4D5E78" class=""/><path d="m488 224v72h-32v192h-48l-8-88-8 88h-48v-130.42a459.486 459.486 0 0 0 142.84-142.16 32.366 32.366 0 0 1 1.16 8.58z" fill="#485870" data-original="#485870" class=""/><path d="m376 192 24 40 24-40z" fill="#e0e0de" data-original="#E0E0DE" class=""/><g fill="#404f66"><path d="m392 232h16v136h-16z" data-original="#404F66" class=""/><path d="m424 248h32v16h-32z" data-original="#404F66" class=""/><path d="m344 248h32v16h-32z" data-original="#404F66" class=""/><path d="m336 232h16v88h-16z" data-original="#404F66" class=""/><path d="m448 232h16v88h-16z" data-original="#404F66" class=""/></g><path d="m400.147 192a56 56 0 0 1 -56-56v-56a24 24 0 0 1 24-24h64a24 24 0 0 1 24 24v56a56 56 0 0 1 -56 56z" fill="#fec9a3" data-original="#FEC9A3" class="" style="fill:#FEC9A3"/><path d="m456 88h-112v-32a32 32 0 0 1 32-32h48a32 32 0 0 1 32 32z" fill="#404f66" data-original="#404F66" class=""/><path d="m448 112h-5.117a88.356 88.356 0 0 1 -21.441-2.64 88.42 88.42 0 0 0 -42.884 0 88.356 88.356 0 0 1 -21.441 2.64h-5.117a16 16 0 0 1 -16-16 16 16 0 0 1 16-16h96a16 16 0 0 1 16 16 16 16 0 0 1 -16 16z" fill="#4d5e78" data-original="#4D5E78" class=""/><path d="m400 168a24.027 24.027 0 0 1 -24-24h16a8 8 0 0 0 16 0h16a24.027 24.027 0 0 1 -24 24z" fill="#f7ad7c" data-original="#F7AD7C" class="active-path" style="fill:#D49A71" data-old_color="#f7ad7c"/><path d="m368 112h16v16h-16z" fill="#92563a" data-original="#92563A" class="" data-old_color="#92563a" style="fill:#000000"/><path d="m416 112h16v16h-16z" fill="#92563a" data-original="#92563A" class="" data-old_color="#92563a" style="fill:#000000"/><path d="m344 368h112v16h-112z" fill="#404f66" data-original="#404F66" class=""/><path d="m448 256-72 40h112v-24z" fill="#feb784" data-original="#FEB784" class=""/><path d="m376 296-24-16-40 16v40h152a24 24 0 0 0 24-24v-16z" fill="#fec9a3" data-original="#FEC9A3" class="" style="fill:#FEC9A3"/><path d="m24 240h40a0 0 0 0 1 0 0v88a0 0 0 0 1 0 0h-16a24 24 0 0 1 -24-24v-64a0 0 0 0 1 0 0z" fill="#fec093" data-original="#FEC093"/><path d="m108 24a68 68 0 0 1 68 68v124a0 0 0 0 1 0 0h-136a0 0 0 0 1 0 0v-124a68 68 0 0 1 68-68z" fill="#92563a" data-original="#92563A" class="" data-old_color="#92563a" style="fill:#000000"/><path d="m80.147 56h64a24 24 0 0 1 24 24v48a56 56 0 0 1 -56 56 56 56 0 0 1 -56-56v-48a24 24 0 0 1 24-24z" fill="#fec9a3" data-original="#FEC9A3" class="" style="fill:#FEC9A3"/><path d="m40 120 13.171-1.646a126.1 126.1 0 0 0 82.829-46.354l32 40 8-16v-8a64 64 0 0 0 -64-64h-10.388a61.612 61.612 0 0 0 -38.489 13.5 61.615 61.615 0 0 0 -23.123 48.112z" fill="#92563a" data-original="#92563A" class="" data-old_color="#92563a" style="fill:#000000"/><path d="m64 440h48v48h-48z" fill="#fec9a3" data-original="#FEC9A3" class="" style="fill:#FEC9A3"/><path d="m112 440h48v48h-48z" fill="#fec9a3" data-original="#FEC9A3" class="" style="fill:#FEC9A3"/><path d="m64 224-3.716 3.716a34.692 34.692 0 0 0 3.716 52.284v16h96v-16a34.692 34.692 0 0 0 3.716-52.284l-3.716-3.716z" fill="#f59898" data-original="#F59898" class=""/><path d="m200 216v24h-40v56h-96v-56h-40v-24a32 32 0 0 1 32-32h112a32.006 32.006 0 0 1 32 32z" fill="#f59898" data-original="#F59898" class=""/><path d="m184 440h-144l20.93-125.59 3.07-18.41h96z" fill="#f59898" data-original="#F59898" class=""/><path d="m184 440h-144l20.93-125.59q13.37-8.67 26.32-18.41h72.75z" fill="#ed9191" data-original="#ED9191"/><path d="m200 216v24h-40v56h-72.75a457.112 457.112 0 0 0 101.03-104.75 31.924 31.924 0 0 1 11.72 24.75z" fill="#ed9191" data-original="#ED9191"/><path d="m192 392h-24a8 8 0 0 1 -8-8v-144h40v144a8 8 0 0 1 -8 8z" fill="#fec9a3" data-original="#FEC9A3" class="" style="fill:#FEC9A3"/><path d="m80 184 32 64 32-64z" fill="#fec9a3" data-original="#FEC9A3" class="" style="fill:#FEC9A3"/><path d="m112.147 160a24.027 24.027 0 0 1 -24-24h16a8 8 0 0 0 16 0h16a24.027 24.027 0 0 1 -24 24z" fill="#f7ad7c" data-original="#F7AD7C" class="active-path" style="fill:#D49A71" data-old_color="#f7ad7c"/><path d="m80.147 104h16v16h-16z" fill="#92563a" data-original="#92563A" class="" data-old_color="#92563a" style="fill:#000000"/><path d="m128.147 104h16v16h-16z" fill="#92563a" data-original="#92563A" class="" data-old_color="#92563a" style="fill:#000000"/><path d="m64 240h104v128h-104z" fill="#ffb531" data-original="#FFB531" class=""/><path d="m168 336h-120a24 24 0 0 1 -24-24v-16h88l24-24 16 8-8 16h24z" fill="#fec9a3" data-original="#FEC9A3" class="" style="fill:#FEC9A3"/><path d="m224 48h64a24 24 0 0 1 24 24v56a56 56 0 0 1 -56 56 56 56 0 0 1 -56-56v-56a24 24 0 0 1 24-24z" fill="#fec9a3" data-original="#FEC9A3" class="" style="fill:#FEC9A3"/><path d="m312 104-24-40-11.645 3.882a100.79 100.79 0 0 1 -71.578-2.982 21.313 21.313 0 0 1 -10.668-29.122 21.314 21.314 0 0 1 19.064-11.778h66.827a32 32 0 0 1 32 32z" fill="#f98500" data-original="#F98500" class="" data-old_color="#f98500" style="fill:#000000"/><path d="m344 216v72h-32v72h-112v-72h-32v-72a32 32 0 0 1 32-32h112a31.955 31.955 0 0 1 32 32z" fill="#cfcfcd" data-original="#CFCFCD" class=""/><path d="m344 216v72h-32v72h-112v-39.82c51.67-27.49 100.6-65.15 141.96-115.46a31.973 31.973 0 0 1 2.04 11.28z" fill="#c7c7c5" data-original="#C7C7C5" class=""/><path d="m256 152a24.027 24.027 0 0 1 -24-24h16a8 8 0 0 0 16 0h16a24.027 24.027 0 0 1 -24 24z" fill="#f7ad7c" data-original="#F7AD7C" class="active-path" style="fill:#D49A71" data-old_color="#f7ad7c"/><path d="m224 96h16v16h-16z" fill="#92563a" data-original="#92563A" class="" data-old_color="#92563a" style="fill:#000000"/><path d="m272 96h16v16h-16z" fill="#92563a" data-original="#92563A" class="" data-old_color="#92563a" style="fill:#000000"/><path d="m192 224h16v88h-16z" fill="#b0b0ae" data-original="#B0B0AE"/><path d="m304 224h16v88h-16z" fill="#b0b0ae" data-original="#B0B0AE"/><path d="m240 184 8 24-8 104 16 16 16-16-8-104 8-24z" fill="#348fd9" data-original="#348FD9" class=""/><path d="m312 488h-48l-8-96-8 96h-48v-128h112z" fill="#4d5e78" data-original="#4D5E78" class=""/><path d="m216 288 84.845 38.566a16 16 0 0 0 6.621 1.434h20.534a16 16 0 0 0 16-16v-24l-112-32z" fill="#dbdbd9" data-original="#DBDBD9" class="" style="fill:#DBDBD9"/><path d="m216 288h-48v-40h40l24 8z" fill="#fec9a3" data-original="#FEC9A3" class="" style="fill:#FEC9A3"/><path d="m296 288-84.845 38.566a16 16 0 0 1 -6.621 1.434h-20.534a16 16 0 0 1 -16-16v-24l112-32z" fill="#e0e0de" data-original="#E0E0DE" class=""/><path d="m296 288h48v-40h-40l-24 8z" fill="#fec9a3" data-original="#FEC9A3" class="" style="fill:#FEC9A3"/><path d="m64 440h96v16h-96z" fill="#fec093" data-original="#FEC093"/><path d="m104 440h16v48h-16z" fill="#feb784" data-original="#FEB784" class=""/><path d="m200 360h112v16h-112z" fill="#485870" data-original="#485870" class=""/></g></g> </svg>
