<svg
    xmlns="http://www.w3.org/2000/svg"
    viewBox="0 0 512 512"
    id="vector">
    <path
        id="path_2"
        d="M 278.686 168.547 L 327.498 119.735 C 335.307 111.926 335.307 99.263 327.498 91.454 C 319.689 83.644 307.026 83.644 299.217 91.454 L 264.546 126.125 L 252.785 114.364 C 244.976 106.555 232.313 106.555 224.504 114.364 C 216.695 122.173 216.695 134.836 224.504 142.645 L 250.406 168.547 C 258.214 176.356 270.877 176.356 278.686 168.547 Z"
        fill="#ffffff"/>
    <path
        id="path_3"
        d="M 327.498 119.735 L 278.686 168.547 C 270.877 176.356 258.214 176.356 250.405 168.547 L 224.503 142.645 C 216.694 134.836 216.694 122.173 224.503 114.364 C 232.312 106.555 244.975 106.555 252.784 114.364 L 264.545 126.125 L 299.216 91.454 C 307.025 83.644 319.688 83.644 327.497 91.454 C 335.307 99.263 335.307 111.925 327.498 119.735 Z M 276.001 10 C 209.726 10 156 63.726 156 130 C 156 188.55 197.933 237.307 253.404 247.876 C 260.722 249.27 268.276 250 276 250 C 283.724 250 291.278 249.27 298.596 247.876 C 354.068 237.306 396 188.55 396 130 C 396.001 63.726 342.275 10 276.001 10 Z"
        fill="#cbe558"/>
    <path
        id="path_4"
        d="M 298.597 247.876 C 291.279 249.27 283.725 250 276.001 250 C 268.277 250 260.723 249.27 253.405 247.876 L 253.405 311.052 L 253.405 321.23 L 298.598 321.23 L 298.598 247.876 Z"
        fill="#6d91ac"/>
    <path
        id="path_5"
        d="M 298.597 321.231 L 253.404 321.231 L 253.404 311.053 L 241.745 311.053 C 212.749 311.053 186.726 324.046 169.202 344.576 L 116.001 344.576 L 116.071 468.478 L 169.246 468.478 C 186.793 488.964 212.821 502.001 241.745 502.001 L 344.246 502.002 C 356.663 502.002 366.842 491.832 366.842 479.405 C 366.842 466.977 356.674 456.808 344.246 456.808 L 359.651 456.808 C 372.072 456.808 382.245 446.635 382.245 434.212 C 382.245 421.784 372.079 411.617 359.651 411.617 L 368.228 411.617 C 380.651 411.617 390.825 401.448 390.825 389.019 C 390.825 376.591 380.656 366.423 368.228 366.423 L 351.947 366.423 C 364.371 366.423 374.544 356.251 374.544 343.826 C 374.544 331.4 364.375 321.23 351.947 321.23 L 298.597 321.23 Z"
        fill="#ffdcd5"/>
    <path
        id="path_6"
        d="M 400.825 389.02 C 400.825 375.507 392.559 363.888 380.819 358.953 C 383.198 354.43 384.546 349.282 384.546 343.827 C 384.546 325.854 369.923 311.231 351.948 311.231 L 308.596 311.231 L 308.596 255.861 C 364.555 241.36 406.001 190.43 406.001 130 C 406.001 58.318 347.684 0 276.001 0 C 258.089 0 240.725 3.586 224.391 10.659 C 219.323 12.853 216.994 18.741 219.188 23.809 C 221.382 28.877 227.273 31.208 232.338 29.012 C 246.148 23.032 260.839 20 276.001 20 C 336.655 20 386.001 69.346 386.001 130 C 386.001 190.654 336.655 240 276.001 240 C 215.347 240 166 190.654 166 130 C 166 114.833 169.033 100.142 175.015 86.332 C 177.21 81.264 174.882 75.376 169.814 73.181 C 164.749 70.986 158.858 73.314 156.664 78.383 C 149.588 94.716 146 112.083 146 130 C 146 190.43 187.446 241.359 243.404 255.861 L 243.404 301.052 L 241.746 301.052 C 212.465 301.052 184.656 313.213 164.727 334.575 L 116 334.575 C 113.347 334.575 110.803 335.629 108.927 337.506 C 107.052 339.382 105.998 341.927 106 344.581 L 106.07 468.483 C 106.073 474.004 110.549 478.477 116.07 478.477 L 164.779 478.477 C 184.761 499.84 212.551 512 241.746 512 L 344.246 512.001 C 362.22 512.001 376.843 497.378 376.843 479.404 C 376.843 473.823 375.434 468.567 372.952 463.969 C 384.313 458.871 392.245 447.45 392.245 434.212 C 392.245 427.438 390.168 421.14 386.618 415.921 C 395.19 410.044 400.825 400.177 400.825 389.02 Z M 276.001 260 C 280.25 260 284.451 259.788 288.597 259.388 L 288.597 311.231 L 263.405 311.231 L 263.405 311.052 L 263.405 259.388 C 267.55 259.789 271.751 260 276.001 260 Z M 368.228 401.618 L 359.651 401.618 C 354.129 401.618 349.651 406.095 349.651 411.618 C 349.651 417.141 354.129 421.618 359.651 421.618 C 366.595 421.618 372.245 427.268 372.245 434.213 C 372.245 441.158 366.596 446.809 359.651 446.809 L 344.246 446.809 C 338.724 446.809 334.246 451.286 334.246 456.809 C 334.246 462.331 338.723 466.809 344.246 466.809 C 351.192 466.809 356.843 472.46 356.843 479.406 C 356.843 486.352 351.193 492.003 344.246 492.003 L 241.746 492 C 216.844 492 193.187 481.055 176.842 461.972 C 174.943 459.754 172.168 458.477 169.247 458.477 L 126.065 458.477 L 126.006 354.575 L 169.202 354.575 C 172.129 354.575 174.908 353.293 176.808 351.067 C 193.089 331.992 216.758 321.051 241.745 321.051 L 243.403 321.051 L 243.403 321.23 C 243.403 326.753 247.881 331.23 253.403 331.23 L 351.947 331.23 C 358.893 331.23 364.545 336.88 364.545 343.826 C 364.545 350.772 358.894 356.423 351.947 356.423 C 346.425 356.423 341.947 360.9 341.947 366.423 C 341.947 371.946 346.425 376.423 351.947 376.423 L 368.227 376.423 C 375.173 376.423 380.824 382.074 380.824 389.019 C 380.825 395.966 375.175 401.618 368.228 401.618 Z"
        fill="#000000"/>
    <path
        id="path_7"
        d="M 243.334 175.618 C 249.183 181.466 256.864 184.39 264.546 184.39 C 272.228 184.39 279.909 181.466 285.758 175.618 L 334.57 126.806 C 346.266 115.11 346.266 96.078 334.57 84.382 C 322.873 72.687 303.843 72.687 292.146 84.382 L 264.546 111.982 L 259.856 107.292 C 248.159 95.597 229.129 95.597 217.432 107.292 C 211.766 112.958 208.646 120.491 208.646 128.504 C 208.646 136.517 211.766 144.05 217.432 149.716 Z M 231.574 121.435 C 233.523 119.486 236.083 118.512 238.643 118.512 C 241.203 118.512 243.764 119.487 245.712 121.435 L 257.474 133.196 C 261.38 137.101 267.71 137.101 271.617 133.196 L 306.288 98.525 C 310.186 94.627 316.528 94.627 320.427 98.525 C 322.316 100.413 323.356 102.924 323.356 105.594 C 323.356 108.264 322.316 110.775 320.427 112.663 L 271.615 161.475 C 267.717 165.373 261.375 165.373 257.476 161.475 L 231.574 135.573 C 229.685 133.685 228.645 131.175 228.645 128.504 C 228.645 125.833 229.685 123.323 231.574 121.435 Z"
        fill="#000000"/>
    <path
        id="path_8"
        d="M 191.148 55.143 C 193.709 55.143 196.27 54.166 198.223 52.213 C 202.128 48.308 202.128 41.976 198.223 38.071 C 194.317 34.166 187.987 34.166 184.08 38.071 L 184.075 38.076 C 180.17 41.981 180.173 48.31 184.078 52.215 C 186.031 54.167 188.59 55.143 191.148 55.143 Z"
        fill="#000000"/>
</svg>
