<svg
    xmlns="http://www.w3.org/2000/svg"
    viewBox="0 0 512 512"
    id="vector">
    <path
        id="path_18"
        d="M 186.417 381.235 L 327.658 381.235 L 327.658 469.511 L 186.417 469.511 L 186.417 381.235 Z"
        fill="#95a5a5"/>
    <path
        id="path_19"
        d="M 513.038 47.102 L 513.038 328.314 L 1.038 328.314 L 1.038 47.102 C 0.119 26.656 15.905 9.314 36.349 8.314 L 477.728 8.314 C 498.171 9.314 513.957 26.656 513.038 47.102 Z"
        fill="#155893"/>
    <path
        id="path_20"
        d="M 513.038 319.486 L 513.038 354.796 C 513.038 374.297 497.229 390.106 477.728 390.106 L 36.349 390.106 C 16.848 390.106 1.039 374.297 1.039 354.796 L 1.039 319.486 L 513.038 319.486 Z"
        fill="#bdc3c7"/>
    <path
        id="path_21"
        d="M 133.452 451.9 L 380.624 451.9 C 390.375 451.9 398.279 459.805 398.279 469.555 L 398.279 487.21 L 115.797 487.21 L 115.797 469.555 C 115.797 459.805 123.701 451.9 133.452 451.9 Z"
        fill="#bdc3c7"/>
    <path
        id="path_22"
        d="M 115.797 45.787 C 154.8 45.787 186.418 77.405 186.418 116.408 C 186.418 155.411 154.8 187.029 115.797 187.029 C 76.794 187.029 45.176 155.411 45.176 116.408 C 45.176 77.405 76.794 45.787 115.797 45.787 Z"
        fill="#9fcff8"/>
    <path
        id="path_23"
        d="M 115.797 81.097 C 130.423 81.097 142.28 92.954 142.28 107.58 C 142.28 122.206 130.423 134.063 115.797 134.063 C 101.171 134.063 89.314 122.206 89.314 107.58 C 89.314 92.954 101.171 81.097 115.797 81.097 Z"
        fill="#f3d55b"/>
    <path
        id="path_24"
        d="M 257.038 231.211 L 36.349 231.211 C 31.474 231.211 27.521 227.259 27.521 222.383 C 27.521 217.507 31.473 213.555 36.349 213.555 L 257.039 213.555 C 261.914 213.555 265.867 217.507 265.867 222.383 C 265.867 227.259 261.914 231.211 257.038 231.211 Z"
        fill="#9fcff8"/>
    <path
        id="path_25"
        d="M 477.728 81.142 L 221.728 81.142 C 216.853 81.142 212.9 77.19 212.9 72.314 C 212.9 67.438 216.852 63.486 221.728 63.486 L 477.728 63.486 C 482.603 63.486 486.556 67.438 486.556 72.314 C 486.556 77.19 482.603 81.142 477.728 81.142 Z"
        fill="#9fcff8"/>
    <path
        id="path_26"
        d="M 477.728 116.452 L 221.728 116.452 C 216.853 116.452 212.9 112.5 212.9 107.624 C 212.9 102.749 216.852 98.796 221.728 98.796 L 477.728 98.796 C 482.603 98.796 486.556 102.748 486.556 107.624 C 486.555 112.5 482.603 116.452 477.728 116.452 Z"
        fill="#9fcff8"/>
    <path
        id="path_27"
        d="M 310.004 151.762 L 221.728 151.762 C 216.853 151.762 212.9 147.81 212.9 142.934 C 212.9 138.058 216.852 134.106 221.728 134.106 L 310.004 134.106 C 314.879 134.106 318.832 138.058 318.832 142.934 C 318.832 147.81 314.879 151.762 310.004 151.762 Z"
        fill="#9fcff8"/>
    <path
        id="path_28"
        d="M 45.176 257.693 L 115.797 257.693 C 120.672 257.693 124.625 261.645 124.625 266.521 L 124.625 319.487 L 36.349 319.487 L 36.349 266.521 C 36.349 261.646 40.301 257.693 45.176 257.693 Z"
        fill="#9fcff8"/>
    <path
        id="path_29"
        d="M 168.762 257.693 L 239.383 257.693 C 244.258 257.693 248.211 261.645 248.211 266.521 L 248.211 319.487 L 159.935 319.487 L 159.935 266.521 C 159.935 261.646 163.887 257.693 168.762 257.693 Z"
        fill="#9fcff8"/>
    <path
        id="path_30"
        d="M 159.935 169.417 C 159.95 170.154 159.92 170.891 159.847 171.624 C 134.093 192.223 97.502 192.223 71.748 171.624 C 71.675 170.891 71.645 170.154 71.66 169.417 C 71.711 151.376 82.663 135.156 99.379 128.369 L 99.467 128.369 C 109.011 136.019 122.585 136.019 132.129 128.369 L 132.217 128.369 C 148.931 135.157 159.884 151.377 159.935 169.417 Z"
        fill="#000000"/>
    <path
        id="path_31"
        d="M 495.383 185.969 C 505.134 185.969 513.038 193.873 513.038 203.624 L 513.038 316.75 C 513.038 316.75 513.038 433.636 389.452 503.762 C 265.866 433.636 265.866 316.75 265.866 316.75 L 265.866 203.624 C 265.866 193.873 273.77 185.969 283.521 185.969 L 495.383 185.969 Z"
        fill="#46b29d"/>
    <path
        id="path_32"
        d="M 389.452 462.211 C 302.244 402.766 301.176 317.65 301.176 316.741 L 301.176 221.28 L 477.728 221.28 L 477.728 316.742 C 477.675 320.237 475.353 403.649 389.452 462.211 Z"
        fill="#65ddb9"/>
    <path
        id="path_33"
        d="M 389.452 471.03 C 385.579 471.031 382.158 468.508 381.015 464.808 C 379.872 461.108 381.275 457.094 384.474 454.911 C 466.65 398.9 468.848 319.937 468.901 316.618 L 468.901 230.108 C 464.026 230.108 460.073 226.156 460.073 221.28 C 460.073 216.404 464.025 212.452 468.901 212.452 C 478.652 212.452 486.556 220.356 486.556 230.107 L 486.556 316.741 C 486.494 320.59 484.067 408.389 394.422 469.458 C 392.961 470.47 391.229 471.018 389.452 471.03 Z"
        fill="#ffffff"/>
    <path
        id="path_34"
        d="M 336.486 420.13 C 333.653 420.134 330.99 418.778 329.327 416.484 C 307.665 387.484 294.826 352.853 292.348 316.741 L 292.348 230.107 C 292.348 220.356 300.253 212.452 310.003 212.452 L 407.106 212.452 C 411.981 212.452 415.934 216.404 415.934 221.28 C 415.934 226.156 411.982 230.108 407.106 230.108 L 310.003 230.108 L 310.003 316.742 C 312.546 349.114 324.207 380.104 343.636 406.121 C 345.584 408.808 345.861 412.36 344.352 415.316 C 342.844 418.271 339.805 420.131 336.486 420.13 Z"
        fill="#ffffff"/>
    <path
        id="path_35"
        d="M 370.693 362.521 C 368.352 362.52 366.107 361.59 364.452 359.935 L 347.9 343.383 C 344.555 339.919 344.602 334.413 348.008 331.008 C 351.413 327.603 356.919 327.555 360.383 330.9 L 370.694 341.211 L 436.177 275.728 C 439.641 272.383 445.147 272.43 448.552 275.836 C 451.957 279.241 452.005 284.747 448.66 288.211 L 376.936 359.935 C 375.279 361.59 373.034 362.52 370.693 362.521 Z"
        fill="#ff5364"/>
</svg>
