<svg height="512pt" viewBox="0 -42 512 512" width="512pt" xmlns="http://www.w3.org/2000/svg"><path d="m224.578125 95.292969c-4.265625 0-7.726563-3.460938-7.726563-7.726563v-24.722656c0-4.269531 3.460938-7.726562 7.726563-7.726562 4.269531 0 7.726563 3.457031 7.726563 7.726562v24.722656c0 4.265625-3.457032 7.726563-7.726563 7.726563zm0 0" fill="#515759"/><path d="m287.421875 95.292969c-4.269531 0-7.726563-3.460938-7.726563-7.726563v-24.722656c0-4.269531 3.457032-7.726562 7.726563-7.726562 4.265625 0 7.726563 3.457031 7.726563 7.726562v24.722656c0 4.265625-3.460938 7.726563-7.726563 7.726563zm0 0" fill="#515759"/><path d="m159.679688 226.640625h-145.257813v191.613281c0 5.691406 4.613281 10.300782 10.304687 10.300782h462.550782c5.691406 0 10.300781-4.609376 10.300781-10.300782v-191.613281zm0 0" fill="#edaf54"/><path d="m497.578125 226.640625v191.613281c0 5.6875-4.617187 10.300782-10.304687 10.300782h-30.902344c5.6875 0 10.300781-4.613282 10.300781-10.300782v-191.613281zm0 0" fill="#db8733"/><path d="m329.625 87.566406h-147.25c-7.242188 0-13.511719 5.03125-15.085938 12.101563l-7.609374 34.257812v10.816407h192.640624v-10.816407l-7.609374-34.257812c-1.574219-7.070313-7.84375-12.101563-15.085938-12.101563zm0 0" fill="#a0513f"/><path d="m352.320312 133.925781v10.816407h-30.902343v-10.816407l-7.613281-34.253906c-1.566407-7.078125-7.839844-12.105469-15.082032-12.105469h30.90625c7.238282 0 13.515625 5.027344 15.082032 12.105469zm0 0" fill="#7a3730"/><path d="m489.433594 190.585938h-147.414063v46.355468h169.980469v-4.636718c0-.625-.113281-1.242188-.335938-1.824219l-12.597656-33.246094c-1.515625-4.003906-5.351562-6.648437-9.632812-6.648437zm0 0" fill="#a0513f"/><path d="m22.566406 190.585938h147.414063v46.355468h-169.980469v-4.636718c0-.625.113281-1.242188.335938-1.824219l12.597656-33.246094c1.515625-4.003906 5.351562-6.648437 9.632812-6.648437zm0 0" fill="#a0513f"/><path d="m159.679688 149.378906h192.640624v279.175782h-192.640624zm0 0" fill="#ffd47d"/><path d="m321.417969 149.378906h30.902343v279.175782h-30.902343zm0 0" fill="#e89e46"/><path d="m362.625 159.679688h-213.25c-2.84375 0-5.148438-2.308594-5.148438-5.152344v-15.453125c0-2.84375 2.304688-5.152344 5.148438-5.152344h213.246094c2.847656 0 5.152344 2.308594 5.152344 5.152344v15.453125c0 2.84375-2.304688 5.152344-5.148438 5.152344zm0 0" fill="#ff8c64"/><path d="m318.324219 62.839844h-124.648438c-2.847656 0-5.152343-2.304688-5.152343-5.148438v-52.539062c0-2.847656 2.304687-5.152344 5.152343-5.152344h124.648438c2.847656 0 5.152343 2.304688 5.152343 5.152344v52.539062c0 2.84375-2.304687 5.148438-5.152343 5.148438zm0 0" fill="#ff8c64"/><path d="m323.476562 5.152344v52.539062c0 2.839844-2.308593 5.148438-5.152343 5.148438h-30.902344c2.84375 0 5.148437-2.308594 5.148437-5.148438v-52.539062c0-2.84375-2.304687-5.152344-5.148437-5.152344h30.902344c2.84375 0 5.152343 2.308594 5.152343 5.152344zm0 0" fill="#ed5743"/><path d="m279.179688 39.148438h-46.359376c-4.265624 0-7.726562-3.460938-7.726562-7.726563 0-4.269531 3.460938-7.726563 7.726562-7.726563h46.359376c4.265624 0 7.726562 3.457032 7.726562 7.726563 0 4.265625-3.460938 7.726563-7.726562 7.726563zm0 0" fill="#a0513f"/><path d="m311.113281 345.109375h-110.226562c-5.691407 0-10.304688 4.613281-10.304688 10.304687v73.140626h130.832031v-73.140626c.003907-5.691406-4.609374-10.304687-10.300781-10.304687zm0 0" fill="#aa8452"/><path d="m311.113281 267.847656h-110.226562c-5.691407 0-10.304688 4.613282-10.304688 10.300782v25.753906c0 5.691406 4.613281 10.304687 10.304688 10.304687h110.226562c5.691407 0 10.300781-4.613281 10.300781-10.304687v-25.753906c.003907-5.6875-4.609374-10.300782-10.300781-10.300782zm0 0" fill="#fff7e6"/><path d="m311.113281 190.585938h-110.226562c-5.691407 0-10.304688 4.609374-10.304688 10.300781v25.753906c0 5.691406 4.613281 10.300781 10.304688 10.300781h110.226562c5.691407 0 10.300781-4.609375 10.300781-10.300781v-25.753906c.003907-5.691407-4.609374-10.300781-10.300781-10.300781zm0 0" fill="#fff7e6"/><g fill="#ffd47d"><path d="m461.519531 316.78125h-73.140625c-2.847656 0-5.152344-2.304688-5.152344-5.152344v-20.601562c0-2.847656 2.304688-5.152344 5.152344-5.152344h73.140625c2.847657 0 5.152344 2.304688 5.152344 5.152344v20.601562c0 2.847656-2.304687 5.152344-5.152344 5.152344zm0 0"/><path d="m461.519531 378.59375h-73.140625c-2.847656 0-5.152344-2.308594-5.152344-5.152344v-20.605468c0-2.84375 2.304688-5.148438 5.152344-5.148438h73.140625c2.847657 0 5.152344 2.304688 5.152344 5.148438v20.605468c0 2.84375-2.304687 5.152344-5.152344 5.152344zm0 0"/><path d="m50.480469 316.78125h73.140625c2.847656 0 5.152344-2.304688 5.152344-5.152344v-20.601562c0-2.847656-2.304688-5.152344-5.152344-5.152344h-73.140625c-2.847657 0-5.152344 2.304688-5.152344 5.152344v20.601562c0 2.847656 2.304687 5.152344 5.152344 5.152344zm0 0"/><path d="m50.480469 378.59375h73.140625c2.847656 0 5.152344-2.308594 5.152344-5.152344v-20.605468c0-2.84375-2.304688-5.148438-5.152344-5.148438h-73.140625c-2.847657 0-5.152344 2.304688-5.152344 5.148438v20.605468c0 2.84375 2.304687 5.152344 5.152344 5.152344zm0 0"/></g><path d="m256 345.109375v83.445313h65.417969v-73.140626c0-5.6875-4.617188-10.304687-10.304688-10.304687zm0 0" fill="#7f5c3e"/><path d="m512 232.304688v4.636718h-30.90625v-4.636718c0-.625-.113281-1.246094-.328125-1.820313l-12.601563-33.246094c-1.523437-4.007812-5.355468-6.652343-9.628906-6.652343h30.902344c4.277344 0 8.109375 2.644531 9.632812 6.652343l12.601563 33.246094c.214844.574219.328125 1.195313.328125 1.820313zm0 0" fill="#7a3730"/><path d="m367.773438 139.074219v15.453125c0 2.84375-2.304688 5.152344-5.148438 5.152344h-30.90625c2.84375 0 5.152344-2.308594 5.152344-5.152344v-15.453125c0-2.84375-2.308594-5.148438-5.152344-5.148438h30.90625c2.84375 0 5.148438 2.304688 5.148438 5.148438zm0 0" fill="#ed5743"/></svg>