<?xml version="1.0" encoding="iso-8859-1"?>
<!-- Generator: Adobe Illustrator 19.0.0, SVG Export Plug-In . SVG Version: 6.00 Build 0)  -->
<svg version="1.1" id="Layer_1" xmlns="http://www.w3.org/2000/svg" xmlns:xlink="http://www.w3.org/1999/xlink" x="0px" y="0px"
	 viewBox="0 0 512 512" style="enable-background:new 0 0 512 512;" xml:space="preserve">
<g>
	<g>
		<g>
			<path d="M410.12,289.39c-4.081-4.079-10.696-4.079-14.778,0L358.4,326.332l-36.942-36.942c-4.081-4.079-10.696-4.079-14.778,0
				c-4.08,4.08-4.08,10.697,0,14.778l36.942,36.942l-36.942,36.942c-4.08,4.08-4.08,10.697,0,14.778
				c2.041,2.04,4.715,3.06,7.388,3.06s5.348-1.021,7.388-3.06l36.943-36.943l36.942,36.942c2.041,2.04,4.715,3.06,7.388,3.06
				c2.674,0,5.348-1.021,7.388-3.06c4.08-4.08,4.08-10.697,0-14.778l-36.942-36.942l36.942-36.942
				C414.201,300.086,414.201,293.47,410.12,289.39z"/>
			<path d="M512,199.597c0-92.361-70.535-167.5-157.234-167.5c-36.085,0-70.799,13.133-98.766,37.18
				c-27.968-24.046-62.681-37.18-98.766-37.18C70.535,32.097,0,107.237,0,199.597c0,66.504,41.049,132.213,122.008,195.308
				c54.687,42.619,108.825,69.105,111.154,70.237l18.27,8.882c1.442,0.701,3.005,1.051,4.568,1.051c1.563,0,3.126-0.35,4.568-1.051
				l18.266-8.881c0.52-0.253,3.758-1.836,9.078-4.627c20.712,12.306,44.876,19.386,70.667,19.386
				c76.523,0,138.78-62.257,138.78-138.781c0-18.502-3.649-36.165-10.249-52.32C503.662,259.337,512,229.548,512,199.597z
				 M256,452.92l-13.702-6.749c-0.001,0-0.002,0-0.003,0c-2.198-1.045-54.444-26.533-107.441-67.837
				C59.237,319.404,20.898,259.208,20.898,199.479c0-80.836,61.16-146.543,136.336-146.543c33.818,0,66.308,13.501,91.486,37.959
				c4.055,3.939,10.506,3.956,14.562,0.017c25.178-24.458,57.667-37.915,91.486-37.915c75.174,0,136.334,65.778,136.334,146.615
				c0,22.142-5.298,44.351-15.785,66.532c-4.341-6.734-9.249-13.065-14.655-18.936c6.338-16.066,9.542-31.979,9.542-47.611
				c0-69.313-51.785-125.704-115.438-125.704c-40.807,0-78.132,23.572-98.766,60.596c-20.634-37.025-57.959-60.596-98.766-60.596
				c-63.653,0-115.438,56.391-115.438,125.704c0,29.53,11.39,60.061,33.855,90.746c17.471,23.864,41.711,47.952,72.048,71.596
				c45.819,35.707,90.974,59.21,101.503,64.506c5.826,7.453,12.401,14.175,19.602,20.298L256,452.92z M229.335,391.68
				C173.572,359.061,62.694,283.628,62.694,199.597c0-57.791,42.41-104.806,94.54-104.806c39.574,0,75.278,27.693,88.84,68.909
				c1.411,4.286,5.414,7.183,9.925,7.183c4.512,0,8.515-2.896,9.925-7.183c13.563-41.216,49.266-68.909,88.84-68.909
				c52.13,0,94.54,47.015,94.54,104.806c0,10.919-1.879,21.694-5.266,32.251c-23.575-18.478-53.252-29.508-85.459-29.508
				c-76.524,0-138.781,62.257-138.781,138.78C219.799,358.951,223.183,376.005,229.335,391.68z M358.581,459.005
				c-65.001,0-117.883-52.882-117.883-117.883s52.882-117.882,117.883-117.882s117.882,52.88,117.882,117.881
				S423.582,459.005,358.581,459.005z"/>
		</g>
	</g>
</g>
<g>
</g>
<g>
</g>
<g>
</g>
<g>
</g>
<g>
</g>
<g>
</g>
<g>
</g>
<g>
</g>
<g>
</g>
<g>
</g>
<g>
</g>
<g>
</g>
<g>
</g>
<g>
</g>
<g>
</g>
</svg>
