<svg xmlns="http://www.w3.org/2000/svg" enable-background="new 0 0 512 512" viewBox="0 0 512 512"><circle cx="108.609" cy="113.99" r="104.61" fill="#60b7ff" fill-rule="evenodd" clip-rule="evenodd"/><circle cx="108.609" cy="113.99" r="91.612" fill="#8ac9fe" fill-rule="evenodd" clip-rule="evenodd"/><path fill="#fd4755" fill-rule="evenodd" d="M108.609,113.991h104.61c0,38.717-21.035,72.518-52.298,90.607L108.609,113.991z" clip-rule="evenodd"/><path fill="#fe646f" fill-rule="evenodd" d="M108.609,113.991h91.612c0,33.906-18.421,63.508-45.799,79.349L108.609,113.991z" clip-rule="evenodd"/><path fill="#ffd064" fill-rule="evenodd" d="M213.219,113.991h-104.61V9.381C166.383,9.381,213.219,56.216,213.219,113.991z" clip-rule="evenodd"/><path fill="#ffe177" fill-rule="evenodd" d="M200.221,113.991h-91.612V22.379C159.205,22.379,200.221,63.395,200.221,113.991z" clip-rule="evenodd"/><path fill="#a79ba7" fill-rule="evenodd" d="M345.236,56.112c-4.418,0-8-3.582-8-8c0-4.418,3.582-8,8-8h77.383c4.418,0,8,3.582,8,8c0,4.418-3.582,8-8,8
			H345.236L345.236,56.112z M345.236,22.618c-4.418,0-8-3.582-8-8s3.582-8,8-8h154.765c4.418,0,8,3.582,8,8s-3.582,8-8,8H345.236z" clip-rule="evenodd"/><path fill="#8ac9fe" fill-rule="evenodd" d="M274.016,6.618h26.98c6.2,0,11.257,5.057,11.257,11.257v26.98c0,6.2-5.057,11.257-11.257,11.257h-26.98
			c-6.2,0-11.257-5.057-11.257-11.257v-26.98C262.759,11.675,267.816,6.618,274.016,6.618z" clip-rule="evenodd"/><path fill="#a79ba7" fill-rule="evenodd" d="M345.236,138.738c-4.418,0-8-3.582-8-8c0-4.418,3.582-8,8-8h77.383c4.418,0,8,3.582,8,8c0,4.418-3.582,8-8,8
			H345.236L345.236,138.738z M345.236,105.243c-4.418,0-8-3.582-8-8s3.582-8,8-8h154.765c4.418,0,8,3.582,8,8s-3.582,8-8,8H345.236z
			" clip-rule="evenodd"/><path fill="#ffe177" fill-rule="evenodd" d="M274.016,89.243h26.98c6.2,0,11.257,5.057,11.257,11.257v26.98c0,6.2-5.057,11.257-11.257,11.257h-26.98
			c-6.2,0-11.257-5.057-11.257-11.257V100.5C262.759,94.3,267.816,89.243,274.016,89.243z" clip-rule="evenodd"/><path fill="#a79ba7" fill-rule="evenodd" d="M345.236,221.363c-4.418,0-8-3.582-8-8c0-4.418,3.582-8,8-8h77.383c4.418,0,8,3.582,8,8c0,4.418-3.582,8-8,8
			H345.236L345.236,221.363z M345.236,187.868c-4.418,0-8-3.582-8-8c0-4.418,3.582-8,8-8h154.765c4.418,0,8,3.582,8,8
			c0,4.418-3.582,8-8,8H345.236z" clip-rule="evenodd"/><path fill="#fe646f" fill-rule="evenodd" d="M274.016,171.868h26.98c6.2,0,11.257,5.057,11.257,11.257v26.98c0,6.2-5.057,11.257-11.257,11.257h-26.98
			c-6.2,0-11.257-5.057-11.257-11.257v-26.98C262.759,176.925,267.816,171.868,274.016,171.868z" clip-rule="evenodd"/><g><path fill="#ffe177" fill-rule="evenodd" d="M203.012,349.732c11.073,0,22.146,0,33.219,0c5.508,0,10,4.492,10,10c0,45.216,0,90.434,0,135.651
			c0,5.508-4.492,10-10,10c-11.073,0-22.146,0-33.219,0c-5.508,0-10-4.492-10-10c0-45.217,0-90.434,0-135.651
			C193.012,354.224,197.505,349.732,203.012,349.732z" clip-rule="evenodd"/><path fill="#ffd064" fill-rule="evenodd" d="M236.231,349.732L236.231,349.732c5.508,0,10,4.492,10,10c0,45.216,0,90.434,0,135.651
			c0,5.508-4.492,10-10,10c-11.073,0-22.146,0-33.219,0c-5.508,0-10-4.492-10-10v-0.001h33.219c5.508,0,10-4.492,10-10V349.732z" clip-rule="evenodd"/><path fill="#fe646f" fill-rule="evenodd" d="M299.598,349.732c11.073,0,22.146,0,33.219,0c5.508,0,10,4.492,10,10c0,45.216,0,90.434,0,135.651
			c0,5.508-4.492,10-10,10c-11.073,0-22.146,0-33.219,0c-5.508,0-10-4.492-10-10c0-45.217,0-90.434,0-135.651
			C289.598,354.224,294.09,349.732,299.598,349.732z" clip-rule="evenodd"/><path fill="#fd4755" fill-rule="evenodd" d="M332.817,349.732L332.817,349.732c5.508,0,10,4.492,10,10c0,45.216,0,90.434,0,135.651
			c0,5.508-4.492,10-10,10c-11.073,0-22.146,0-33.219,0c-5.508,0-10-4.492-10-10v-0.001h33.219c5.508,0,10-4.492,10-10V349.732z" clip-rule="evenodd"/><path fill="#6cf5c2" fill-rule="evenodd" d="M14.001,322.732c11.073,0,22.146,0,33.219,0c5.508,0,10,4.492,10,9.999c0,54.217,0,108.434,0,162.651
			c0,5.508-4.492,10-10,10c-11.073,0-22.146,0-33.219,0c-5.508,0-10-4.492-10-10c0-54.217,0-108.434,0-162.651
			C4.001,327.224,8.493,322.732,14.001,322.732z" clip-rule="evenodd"/><path fill="#00e499" fill-rule="evenodd" d="M47.22,322.732L47.22,322.732c5.508,0,10,4.492,10,9.999c0,54.217,0,108.434,0,162.651
			c0,5.508-4.492,10-10,10c-11.073,0-22.146,0-33.219,0c-5.508,0-10-4.492-10-10v-0.001H37.22c5.508,0,10-4.492,10-10V322.732z" clip-rule="evenodd"/><path fill="#8ac9fe" fill-rule="evenodd" d="M106.427,276.028c11.073,0,22.146,0,33.219,0c5.508,0,10,4.492,10,10c0,69.785,0,139.569,0,209.354
			c0,5.508-4.492,10-10,10c-11.073,0-22.146,0-33.219,0c-5.508,0-10-4.492-10-10c0-69.785,0-139.57,0-209.354
			C96.427,280.52,100.919,276.028,106.427,276.028z" clip-rule="evenodd"/><path fill="#60b7ff" fill-rule="evenodd" d="M139.646,276.028L139.646,276.028c5.508,0,10,4.492,10,10c0,69.785,0,139.569,0,209.354
			c0,5.508-4.492,10-10,10c-11.073,0-22.146,0-33.219,0c-5.508,0-10-4.492-10-10v-0.001h33.219c5.508,0,10-4.492,10-10V276.028z" clip-rule="evenodd"/></g><g><path fill="#a79ba7" fill-rule="evenodd" d="M386.703,356.232c-4.999,7.13-10.879,13.598-17.481,19.245l47.532,46.594l18.096-18.649L386.703,356.232z" clip-rule="evenodd"/><path fill="#837683" fill-rule="evenodd" d="M387.024,355.911c-0.935,3.066-2.677,5.396-5.174,6.938l47.218,46.908l5.783-6.336L387.024,355.911z" clip-rule="evenodd"/><path fill="#f1ba84" fill-rule="evenodd" d="M476.945,482.549l20.422-21.047c3.587-3.696,3.496-9.654-0.199-13.241l-56.565-54.889
			c-3.696-3.587-9.655-3.497-13.241,0.198l-20.423,21.047c-3.586,3.695-3.497,9.655,0.2,13.241l56.565,54.888
			C467.4,486.334,473.358,486.246,476.945,482.549z" clip-rule="evenodd"/><path fill="#e3a76f" fill-rule="evenodd" d="M432.235,393.373l56.565,54.889c3.695,3.587,3.786,9.544,0.2,13.24l-20.422,21.047
			c-0.755,0.778-1.615,1.396-2.536,1.854c3.552,1.765,8.004,1.136,10.905-1.854l20.423-21.047c3.587-3.696,3.496-9.653-0.2-13.241
			l-56.565-54.889c-2.918-2.832-7.246-3.372-10.705-1.655C430.738,392.135,431.528,392.686,432.235,393.373z" clip-rule="evenodd"/><circle cx="309.514" cy="304.378" r="103.004" fill="#8ac9fe" fill-rule="evenodd" clip-rule="evenodd" transform="rotate(-45.001 309.512 304.383)"/><path fill="#60b7ff" fill-rule="evenodd" d="M309.514,201.375c56.887,0,103.004,46.116,103.004,103.004c0,56.887-46.117,103.004-103.004,103.004
			c-1.677,0-3.343-0.043-5-0.123c54.564-2.608,98.004-47.671,98.004-102.881c0-55.211-43.439-100.273-98.004-102.881
			C306.171,201.418,307.838,201.375,309.514,201.375z" clip-rule="evenodd"/><circle cx="309.514" cy="304.378" r="73.963" fill="#eceff1" fill-rule="evenodd" clip-rule="evenodd" transform="rotate(-45.001 309.512 304.383)"/><path fill="#d1d1d6" fill-rule="evenodd" d="M309.514,230.415c1.681,0,3.347,0.062,5,0.172c-38.516,2.572-68.963,34.623-68.963,73.791
			c0,39.167,30.447,71.219,68.963,73.791c-1.653,0.11-3.319,0.172-5,0.172c-40.849,0-73.963-33.114-73.963-73.963
			C235.551,263.53,268.666,230.415,309.514,230.415z" clip-rule="evenodd"/></g></svg>