<svg id="SvgjsSvg1109" width="288" height="288" xmlns="http://www.w3.org/2000/svg" version="1.1" xmlns:xlink="http://www.w3.org/1999/xlink" xmlns:svgjs="http://svgjs.com/svgjs"><defs id="SvgjsDefs1110"></defs><g id="SvgjsG1111"><svg xmlns="http://www.w3.org/2000/svg" enable-background="new 0 0 64 64" viewBox="0 0 64 64" width="288" height="288"><path fill="#ffc661" d="M2.1,57.4h57.7c1.1,0,2.1-0.9,2.1-2.1V13.4c0-1.1-0.9-2.1-2.1-2.1H31c-0.8,0-1.5-0.4-1.8-1.1l-1.7-3.4
		c-0.4-0.7-1.1-1.1-1.8-1.1H2.1C0.9,5.7,0,6.6,0,7.8v47.5C0,56.4,0.9,57.4,2.1,57.4z" class="colorf2786b svgShape"></path><path fill="#e49f4e" d="M3,58.3h56.7c1.1,0,2.1-0.9,2.1-2.1V14.3c0-1.1-0.9-2.1-2.1-2.1H31c-0.8,0-1.5-0.4-1.8-1.1l-1.7-3.4
		c-0.4-0.7-1.1-1.1-1.8-1.1H2.1C0.9,6.6,0,7.6,0,8.7v46.6C0,56.9,1.3,58.3,3,58.3z" class="colord45947 svgShape"></path><rect width="58.6" height="21.1" x="1.6" y="14.7" fill="#f3f3f3" class="colorf3f3f3 svgShape"></rect><rect width=".8" height="21.1" x="1.6" y="14.7" fill="#e2e2e2" class="colore2e2e2 svgShape"></rect><rect width="58.6" height=".9" x="1.6" y="14.7" fill="#e2e2e2" class="colore2e2e2 svgShape"></rect><path fill="#ffd19b" d="M64,18.6v35.8c0,1.7-1.3,3-3,3H3c-1.7,0-3-1.3-3-3v-31c0-1.7,1.3-3,3-3h29.2c0.8,0,1.6-0.3,2.1-0.9l3-3
		c0.6-0.6,1.3-0.9,2.1-0.9H61C62.7,15.6,64,17,64,18.6z" class="colorf69f99 svgShape"></path><path fill="#ffc661" d="M64,19.5v35.8c0,1.7-1.3,3-3,3H3c-1.7,0-3-1.3-3-3v-31c0-1.7,1.3-3,3-3h29.2c0.8,0,1.6-0.3,2.1-0.9l3-3
		c0.6-0.6,1.3-0.9,2.1-0.9H61C62.7,16.5,64,17.9,64,19.5z" class="colorf2786b svgShape"></path></svg></g></svg>