<svg id="Capa_1" enable-background="new 0 0 512 512" height="512" viewBox="0 0 512 512" width="512" xmlns="http://www.w3.org/2000/svg"><g><g><path d="m364.605 501.869h-226.278c-17.094 0-30.952-13.858-30.952-30.952v-403.128c0-17.094 13.858-30.952 30.952-30.952h226.278c17.094 0 30.952 13.858 30.952 30.952v403.127c0 17.095-13.858 30.953-30.952 30.953z" fill="#a183e2"/><path d="m354.749 430.377h-206.566c-5.838 0-10.571-4.733-10.571-10.571v-340.282c0-5.838 4.733-10.571 10.571-10.571h206.567c5.838 0 10.571 4.733 10.571 10.571v340.282c-.001 5.838-4.733 10.571-10.572 10.571z" fill="#cab4ef"/><path d="m286.026 230.209h-77.79c-24.928 8.076-49.058 17.964-70.624 32.63v156.967c0 5.838 4.733 10.571 10.571 10.571h206.567c5.838 0 10.571-4.733 10.571-10.571v-159.664c-26.025-11.138-52.046-22.262-79.295-29.933z" fill="#bdf4e3"/><path d="m291.129 134.651h-24.467v-24.467c0-3.367-2.729-6.097-6.096-6.097h-18.2c-3.367 0-6.096 2.729-6.096 6.097v24.467h-24.467c-3.367 0-6.096 2.73-6.096 6.096v18.2c0 3.367 2.73 6.097 6.096 6.097h24.467v24.467c0 3.367 2.729 6.096 6.096 6.096h18.2c3.367 0 6.096-2.729 6.096-6.096v-24.467h24.467c3.367 0 6.096-2.73 6.096-6.097v-18.2c.001-3.367-2.729-6.096-6.096-6.096z" fill="#78eac4"/><path d="m364.605 36.837h-53.541c14.44 0 26.146 11.706 26.146 26.146v363.765c0 14.44-11.706 26.146-26.146 26.146h-177.544c-14.44 0-26.146-11.706-26.146-26.146v44.169c0 17.094 13.858 30.952 30.952 30.952h226.278c17.094 0 30.952-13.858 30.952-30.952v-403.128c.001-17.094-13.857-30.952-30.951-30.952z" fill="#9762e2"/><path d="m354.749 68.953h-17.539v357.795c0 1.232-.092 2.443-.256 3.629h17.796c5.838 0 10.571-4.733 10.571-10.571v-340.282c-.001-5.838-4.734-10.571-10.572-10.571z" fill="#be87ef"/><path d="m359.788 429.101c.888-.497 1.709-1.111 2.436-1.82 1.913-1.913 3.096-4.556 3.096-7.475v-159.664c-9.351-4.002-18.703-8-28.111-11.839v178.445c0 1.232-.092 2.443-.256 3.629h17.796c1.826.001 3.536-.466 5.039-1.276z" fill="#b1b7e3"/></g><g><g fill="#440a29"><path d="m364.605 26.706h-226.278c-22.654 0-41.085 18.43-41.085 41.084v403.127c0 22.653 18.43 41.084 41.085 41.084h226.278c22.654 0 41.085-18.43 41.085-41.084v-403.128c-.001-22.653-18.431-41.083-41.085-41.083zm20.821 444.21c0 11.481-9.34 20.82-20.821 20.82h-226.278c-11.48 0-20.821-9.339-20.821-20.82v-403.127c0-11.48 9.34-20.82 20.821-20.82h226.278c11.481 0 20.821 9.339 20.821 20.82z"/><path d="m354.749 62.874h-206.566c-9.181 0-16.65 7.469-16.65 16.65v182.601c-.004.106-.001.212 0 .318v157.362c0 9.181 7.469 16.65 16.65 16.65h206.566c9.181 0 16.65-7.469 16.65-16.65v-340.281c0-9.181-7.469-16.65-16.65-16.65zm-206.566 12.158h206.566c2.477 0 4.492 2.015 4.492 4.492v172.031c-32.337-18.439-69.431-28.151-107.775-28.151-38.415 0-75.441 9.705-107.775 28.153v-172.033c0-2.476 2.015-4.492 4.492-4.492zm206.566 349.266h-206.566c-2.477 0-4.492-2.016-4.492-4.492v-154.11c31.881-19.724 69.068-30.134 107.775-30.134 38.637 0 75.9 10.42 107.775 30.133v154.111c0 2.476-2.015 4.492-4.492 4.492z"/><path d="m273.495 446.814h-44.058c-9.876 0-17.91 8.034-17.91 17.91s8.034 17.91 17.91 17.91h44.058c9.876 0 17.91-8.034 17.91-17.91 0-9.875-8.034-17.91-17.91-17.91zm0 23.662h-44.058c-3.171 0-5.752-2.58-5.752-5.752s2.58-5.752 5.752-5.752h44.058c3.171 0 5.752 2.58 5.752 5.752s-2.581 5.752-5.752 5.752z"/><path d="m211.802 171.122h18.388v18.388c0 6.714 5.462 12.176 12.176 12.176h18.2c6.713 0 12.175-5.462 12.175-12.176v-18.388h18.388c6.714 0 12.176-5.462 12.176-12.175v-18.2c0-6.714-5.462-12.176-12.176-12.176h-18.388v-18.387c0-6.714-5.462-12.176-12.175-12.176h-18.2c-6.714 0-12.176 5.462-12.176 12.176v18.387h-18.388c-6.713 0-12.175 5.462-12.175 12.176v18.2c0 6.713 5.462 12.175 12.175 12.175zm0-30.393h24.467c3.357 0 6.079-2.722 6.079-6.079l.018-24.484 18.217.018v24.466c0 3.357 2.722 6.079 6.079 6.079h24.467l.018.018-.018 18.217h-24.467c-3.357 0-6.079 2.722-6.079 6.079l-.017 24.485-18.218-.018v-24.467c0-3.357-2.722-6.079-6.079-6.079l-24.484-.017z"/><path d="m335.095 322.009c-4.218-4.241-9.846-6.302-17.205-6.302-6.084 0-11.544 2.01-16.002 5.56v-28.716c0-3.357-2.722-6.079-6.079-6.079s-6.079 2.722-6.079 6.079v87.553c0 3.357 2.722 6.079 6.079 6.079s6.079-2.722 6.079-6.079v-30.053c0-13.063 6.581-22.185 16.002-22.185 5.273 0 7.426 1.552 8.586 2.718 3.066 3.083 4.596 9.622 4.544 19.49l.111 30.053c.013 3.349 2.732 6.056 6.079 6.056h.023c3.357-.013 6.068-2.744 6.056-6.102l-.111-29.999c.071-13.538-2.498-22.459-8.083-28.073z"/><path d="m275.476 348.185h-5.076c.135-21.754.227-46.904-.038-50.069-.452-5.434-3.606-9.832-8.033-11.203-2.084-.646-7.484-1.463-12.633 4.851-4.901 6.015-29.618 50.672-34.524 59.564-1.039 1.883-1.005 4.176.088 6.028 1.093 1.851 3.084 2.988 5.235 2.988h37.665c-.049 6.986-.103 13.732-.154 19.709-.029 3.357 2.67 6.103 6.027 6.132h.053c3.332 0 6.049-2.687 6.078-6.027.02-2.322.085-10.007.154-19.814h5.157c3.357 0 6.079-2.722 6.079-6.079s-2.721-6.08-6.078-6.08zm-17.236 0h-27.424c10.244-18.406 23.363-41.529 27.487-47.609.134 5.889.065 26.46-.063 47.609z"/><path d="m211.461 373.823c-.026 0-.052 0-.078 0-10.574.134-24.496.233-33.763.19 4.799-6.3 12.838-16.991 25.366-34.892 5.312-7.589 8.762-14.695 10.251-21.12.046-.2.082-.401.109-.604l.432-3.387c.032-.255.048-.513.048-.77 0-15.706-12.777-28.483-28.482-28.483-13.581 0-25.335 9.66-27.948 22.969-.647 3.295 1.5 6.49 4.794 7.137 3.292.642 6.49-1.499 7.137-4.794 1.496-7.622 8.232-13.154 16.017-13.154 8.882 0 16.13 7.131 16.32 15.969l-.338 2.653c-1.178 4.837-3.969 10.424-8.3 16.612-13.914 19.881-22.221 30.758-26.683 36.602-5.349 7.004-6.787 8.886-5.676 12.497.623 2.029 2.175 3.591 4.257 4.285.802.267 1.99.664 18.722.664 6.583 0 15.574-.061 27.89-.216 3.357-.043 6.044-2.798 6.003-6.155-.044-3.331-2.757-6.003-6.078-6.003z"/></g><path d="m170.088 209.407c-.1 0-.199-.001-.3-.004-5.593-.162-9.996-4.829-9.834-10.422.453-15.629.453-30.791 0-46.35-.162-5.593 4.24-10.26 9.833-10.423 5.565-.178 10.26 4.239 10.423 9.833.464 15.955.464 31.502 0 47.527-.159 5.494-4.663 9.839-10.122 9.839z" fill="#fff"/><path d="m170.082 125.807c-5.595 0-10.132-4.537-10.132-10.132v-9.279c0-5.595 4.537-10.132 10.132-10.132s10.132 4.537 10.132 10.132v9.279c0 5.596-4.536 10.132-10.132 10.132z" fill="#fff"/></g><g><path d="m475.903 2.48 8.323 23.402c.356 1.002 1.062 1.796 1.952 2.197l20.792 9.368c2.937 1.323 2.937 6.004 0 7.327l-20.792 9.368c-.89.401-1.596 1.195-1.952 2.197l-8.323 23.402c-1.176 3.306-5.334 3.306-6.51 0l-8.323-23.402c-.356-1.002-1.062-1.796-1.952-2.197l-20.792-9.368c-2.938-1.323-2.938-6.004 0-7.327l20.792-9.368c.89-.401 1.596-1.195 1.952-2.197l8.323-23.402c1.176-3.307 5.334-3.307 6.51 0z" fill="#cab4ef"/><path d="m32.335 170.62 6.174 17.359c.264.743.788 1.332 1.448 1.63l15.423 6.949c2.179.982 2.179 4.453 0 5.435l-15.423 6.949c-.66.298-1.184.887-1.448 1.63l-6.174 17.359c-.872 2.452-3.956 2.452-4.829 0l-6.174-17.359c-.264-.743-.788-1.332-1.448-1.63l-15.423-6.949c-2.179-.982-2.179-4.453 0-5.435l15.423-6.949c.66-.298 1.184-.887 1.448-1.63l6.174-17.359c.872-2.453 3.957-2.453 4.829 0z" fill="#cab4ef"/><g fill="#a183e2"><ellipse cx="57.014" cy="92.231" rx="18.173" ry="18.173" transform="matrix(.993 -.122 .122 .993 -10.842 7.657)"/><ellipse cx="460.805" cy="152.337" rx="7.839" ry="7.839" transform="matrix(.23 -.973 .973 .23 206.671 565.815)"/></g></g></g></svg>