<svg xmlns="http://www.w3.org/2000/svg" enable-background="new 0 0 50 50" viewBox="0 0 50 50"><path fill="#444445" d="M7.7484,33.0828V10.2561c0-1.2553,1.0176-2.273,2.273-2.273h29.9572c1.2553,0,2.273,1.0176,2.273,2.273
			v22.8267H7.7484z"/><polygon fill="#E4E4E3" points="1 39.669 7.748 33.083 42.252 33.083 49 39.669"/><rect width="29.957" height="20.553" x="10.022" y="10.256" fill="#FFF"/><polygon fill="#696967" points="9.918 33.611 9.184 34.261 12.534 34.261 13.113 33.611"/><polygon fill="#696967" points="14.413 33.611 13.897 34.261 17.248 34.261 17.608 33.611"/><polygon fill="#696967" points="18.908 33.611 18.611 34.261 21.962 34.261 22.102 33.611"/><polygon fill="#696967" points="23.403 33.611 23.325 34.261 26.675 34.261 26.597 33.611"/><polygon fill="#696967" points="27.898 33.611 28.038 34.261 31.389 34.261 31.092 33.611"/><polygon fill="#696967" points="32.392 33.611 32.752 34.261 36.103 34.261 35.587 33.611"/><polygon fill="#696967" points="36.887 33.611 37.466 34.261 40.816 34.261 40.082 33.611"/><polygon fill="#696967" points="8.946 34.501 8.112 35.241 11.689 35.241 12.347 34.501"/><polygon fill="#696967" points="13.731 34.501 13.145 35.241 16.722 35.241 17.131 34.501"/><polygon fill="#696967" points="18.515 34.501 18.178 35.241 21.756 35.241 21.916 34.501"/><polygon fill="#696967" points="23.3 34.501 23.211 35.241 26.789 35.241 26.7 34.501"/><polygon fill="#696967" points="28.084 34.501 28.244 35.241 31.822 35.241 31.485 34.501"/><polygon fill="#696967" points="32.869 34.501 33.278 35.241 36.855 35.241 36.269 34.501"/><polygon fill="#696967" points="37.653 34.501 38.311 35.241 41.888 35.241 41.054 34.501"/><polygon fill="#696967" points="7.841 35.538 6.884 36.338 10.721 36.338 11.476 35.538"/><polygon fill="#696967" points="12.955 35.538 12.283 36.338 16.12 36.338 16.59 35.538"/><polygon fill="#696967" points="18.069 35.538 17.682 36.338 21.52 36.338 21.703 35.538"/><polygon fill="#696967" points="23.183 35.538 23.081 36.338 26.919 36.338 26.817 35.538"/><polygon fill="#696967" points="28.297 35.538 28.48 36.338 32.318 36.338 31.931 35.538"/><polygon fill="#696967" points="33.41 35.538 33.88 36.338 37.717 36.338 37.045 35.538"/><polygon fill="#696967" points="38.525 35.538 39.279 36.338 43.116 36.338 42.159 35.538"/><path fill="#696967" d="M28.8843,38.9171h-7.759c-0.2534,0-0.4288-0.2339-0.3605-0.4677l0.3313-1.1694
			c0.0488-0.1559,0.1851-0.2728,0.3508-0.2728h7.1061c0.1656,0,0.3118,0.1168,0.3508,0.2728l0.3313,1.1694
			C29.3033,38.6832,29.1279,38.9171,28.8843,38.9171z"/><path fill="#C7C7C7" d="M47,42.0169H3c-1.1046,0-2-0.8954-2-2v-0.3481h48v0.3481C49,41.1215,48.1046,42.0169,47,42.0169z"/><rect width="1" height="9.527" x="28.984" y="10.256" fill="#F5B948"/><rect width="1" height="9.527" x="20.017" y="21.283" fill="#F5B948"/><path fill="#74A842" d="M18.0048,11.9087v7.8743H20.36v-7.8743c0-0.2132-0.1729-0.3861-0.3861-0.3861h-1.583
				C18.1777,11.5226,18.0048,11.6954,18.0048,11.9087z"/><path fill="#98CB6A" d="M18.5567,12.9011v5.5033c0,0.1152,0.0934,0.2086,0.2086,0.2086h0.8344
				c0.1152,0,0.2086-0.0934,0.2086-0.2086v-5.5033c0-0.1152-0.0934-0.2086-0.2086-0.2086h-0.8344
				C18.6501,12.6925,18.5567,12.7859,18.5567,12.9011z"/><path fill="#35A9D9" d="M34.5827,13.0076l2.3146,7.5254l2.2519-0.6906l-2.3146-7.5254
				c-0.0627-0.2038-0.2788-0.3183-0.4827-0.2558l-1.5136,0.4642C34.6345,12.5879,34.52,12.8038,34.5827,13.0076z"/><path fill="#7AC1E1" d="M35.4021,13.7943l1.6176,5.2594c0.0339,0.1101,0.1506,0.172,0.2608,0.1382l0.7978-0.2447
				c0.1102-0.0338,0.172-0.1504,0.1381-0.2605l-1.6177-5.2594c-0.0339-0.1101-0.1506-0.172-0.2608-0.1382l-0.7978,0.2447
				C35.4301,13.5675,35.3682,13.6842,35.4021,13.7943z"/><path fill="#E9715F" d="M14.3657,11.2038v8.5792h2.3667v-8.5792c0-0.1634-0.1325-0.2958-0.2958-0.2958h-1.775
				C14.4981,10.908,14.3657,11.0404,14.3657,11.2038z"/><rect width="2.367" height=".592" x="14.366" y="11.906" fill="#EFEFED"/><rect width="2.367" height=".148" x="14.366" y="13.016" fill="#EFEFED"/><rect width="2.367" height=".592" x="14.366" y="18.193" fill="#EFEFED"/><rect width="2.367" height=".148" x="14.366" y="17.527" fill="#EFEFED"/><path fill="#9A7EAA" d="M31.9536,11.7979v7.985h2.2028v-7.985c0-0.1521-0.1233-0.2753-0.2753-0.2753H32.229
				C32.0769,11.5226,31.9536,11.6458,31.9536,11.7979z"/><rect width="2.203" height=".551" x="31.954" y="12.452" fill="#EFEFED"/><rect width="2.203" height=".138" x="31.954" y="13.484" fill="#EFEFED"/><rect width="2.203" height=".551" x="31.954" y="18.303" fill="#EFEFED"/><rect width="2.203" height=".138" x="31.954" y="17.683" fill="#EFEFED"/><g><path fill="#896A9D" d="M33.8008,22.2304v8.5792h2.3667v-8.5792c0-0.1634-0.1325-0.2958-0.2958-0.2958h-1.775
				C33.9333,21.9346,33.8008,22.067,33.8008,22.2304z"/><rect width="2.367" height=".592" x="33.801" y="22.933" fill="#EFEFED"/><rect width="2.367" height=".148" x="33.801" y="24.042" fill="#EFEFED"/><rect width="2.367" height=".592" x="33.801" y="29.22" fill="#EFEFED"/><rect width="2.367" height=".148" x="33.801" y="28.554" fill="#EFEFED"/></g><path fill="#E35B9F" d="M28.0107,23.6133l2.9808,7.1963l1.9852-0.8223l-2.9808-7.1963c-0.0568-0.137-0.2139-0.2021-0.3509-0.1454
			l-1.4889,0.6167C28.019,23.3191,27.9539,23.4762,28.0107,23.6133z"/><g><rect width=".537" height="2.149" x="29.082" y="22.965" fill="#EFEFED" transform="rotate(-112.5 29.35 24.04)"/><rect width=".134" height="2.149" x="29.591" y="23.71" fill="#EFEFED" transform="rotate(-112.5 29.658 24.783)"/><rect width=".537" height="2.149" x="31.266" y="28.238" fill="#EFEFED" transform="rotate(67.5 31.534 29.312)"/><rect width=".134" height="2.149" x="31.159" y="27.494" fill="#EFEFED" transform="rotate(67.5 31.225 28.568)"/></g><g><path fill="#59B1E3" d="M25.944,22.9174v7.8922h2.0461v-7.8922c0-0.1614-0.1309-0.2923-0.2923-0.2923h-1.4615
				C26.0749,22.6251,25.944,22.7559,25.944,22.9174z"/><circle cx="26.967" cy="24.229" r=".375" fill="#444445"/><circle cx="26.967" cy="26.717" r=".375" fill="#444445"/><circle cx="26.967" cy="29.206" r=".375" fill="#444445"/><rect width="2.046" height=".292" x="25.944" y="25.327" fill="#444445"/><rect width="2.046" height=".292" x="25.944" y="27.816" fill="#444445"/></g><g><path fill="#D75548" d="M12.3469,22.9174v7.8922h2.0461v-7.8922c0-0.1614-0.1309-0.2923-0.2923-0.2923h-1.4615
				C12.4778,22.6251,12.3469,22.7559,12.3469,22.9174z"/><circle cx="13.37" cy="24.229" r=".375" fill="#444445"/><circle cx="13.37" cy="26.717" r=".375" fill="#444445"/><circle cx="13.37" cy="29.206" r=".357" fill="#444445"/><rect width="2.046" height=".292" x="12.347" y="25.327" fill="#444445"/><rect width="2.046" height=".292" x="12.347" y="27.816" fill="#444445"/></g><g><path fill="#E35B9F" d="M22.2625,11.5441v8.1952h2.1247v-8.1952c0-0.1676-0.1359-0.3035-0.3035-0.3035H22.566
				C22.3984,11.2405,22.2625,11.3764,22.2625,11.5441z"/><rect width="2.125" height=".303" x="22.262" y="14.046" fill="#444445"/><rect width="2.125" height=".303" x="22.262" y="13.439" fill="#444445"/><rect width="2.125" height=".303" x="22.262" y="12.832" fill="#444445"/><rect width="2.125" height=".303" x="22.262" y="16.63" fill="#444445"/><path fill="#444445" d="M22.702,17.6376v1.3143c0,0.1676,0.1359,0.3035,0.3035,0.3035h0.6385
				c0.1676,0,0.3035-0.1359,0.3035-0.3035v-1.3143c0-0.1676-0.1359-0.3035-0.3035-0.3035h-0.6385
				C22.8379,17.3341,22.702,17.47,22.702,17.6376z"/></g><g><path fill="#E35B9F" d="M15.8679,22.7609v8.0488h2.0867v-8.0488c0-0.1646-0.1335-0.2981-0.2981-0.2981H16.166
				C16.0014,22.4628,15.8679,22.5962,15.8679,22.7609z"/><rect width="2.087" height=".298" x="15.868" y="25.218" fill="#444445"/><rect width="2.087" height=".298" x="15.868" y="24.622" fill="#444445"/><rect width="2.087" height=".298" x="15.868" y="24.026" fill="#444445"/><rect width="2.087" height=".298" x="15.868" y="27.756" fill="#444445"/><path fill="#444445" d="M16.2996,28.7456v1.2908c0,0.1646,0.1335,0.2981,0.2981,0.2981h0.6271
				c0.1646,0,0.2981-0.1335,0.2981-0.2981v-1.2908c0-0.1646-0.1335-0.2981-0.2981-0.2981h-0.6271
				C16.4331,28.4475,16.2996,28.581,16.2996,28.7456z"/></g><rect width="29.957" height="1.5" x="10.022" y="19.783" fill="#FFCA67"/></svg>