<?xml version="1.0" encoding="UTF-8" standalone="no"?> <svg width="512" height="512" viewBox="0 0 512 512" fill="none" xmlns="http://www.w3.org/2000/svg">
<path d="M229.38 48H264H440V416L360 496H120V288V239.99" fill="#FFEB99"/>
<path d="M360 496V416H440" fill="#FFDA44"/>
<path d="M151 240C212.856 240 263 189.856 263 128C263 66.1441 212.856 16 151 16C89.1441 16 39 66.1441 39 128C39 189.856 89.1441 240 151 240Z" fill="#D8D7DA"/>
<path d="M151 216C199.601 216 239 176.601 239 128C239 79.3989 199.601 40 151 40C102.399 40 63 79.3989 63 128C63 176.601 102.399 216 151 216Z" fill="#3D9AE2"/>
<path d="M151 144C159.837 144 167 136.837 167 128C167 119.163 159.837 112 151 112C142.163 112 135 119.163 135 128C135 136.837 142.163 144 151 144Z" fill="#FFDA44"/>
<path d="M400 80H296V184H400V80Z" fill="#FF5023"/>
<path d="M200 264H160V288H200V264Z" fill="#FFDA44"/>
<path d="M200 312H160V336H200V312Z" fill="#FFDA44"/>
<path d="M200 360H160V384H200V360Z" fill="#FFDA44"/>
<path d="M440 40H232.49C219.387 27.866 203.741 18.8102 186.692 13.4934C169.644 8.17657 151.624 6.73281 133.946 9.26747C116.269 11.8021 99.38 18.2513 84.5124 28.1443C69.6447 38.0374 57.1733 51.1248 48.0079 66.4517C38.8425 81.7786 33.2143 98.9583 31.5341 116.737C29.854 134.516 32.1641 152.446 38.296 169.219C44.4278 185.991 54.2268 201.184 66.9779 213.687C79.729 226.19 95.1105 235.689 112 241.49V496C112 498.122 112.843 500.157 114.343 501.657C115.844 503.157 117.878 504 120 504H360C362.122 504.001 364.158 503.159 365.66 501.66L445.66 421.66C447.159 420.158 448.001 418.122 448 416V48C448 45.8783 447.157 43.8435 445.657 42.3432C444.157 40.8429 442.122 40 440 40ZM47.0002 128C47.0002 107.431 53.0997 87.3234 64.5274 70.2207C75.955 53.118 92.1976 39.7881 111.201 31.9165C130.205 24.045 151.116 21.9855 171.29 25.9983C191.464 30.0112 209.995 39.9162 224.539 54.4609C239.084 69.0056 248.989 87.5366 253.002 107.711C257.015 127.885 254.955 148.796 247.084 167.799C239.212 186.803 225.882 203.045 208.779 214.473C191.677 225.901 171.569 232 151 232C123.427 231.97 96.9912 221.004 77.4938 201.506C57.9965 182.009 47.0298 155.573 47.0002 128V128ZM368 476.69V424H420.69L368 476.69ZM432 408H360C357.878 408 355.844 408.843 354.343 410.343C352.843 411.843 352 413.878 352 416V488H128V245.78C151.808 250.442 176.47 247.775 198.731 238.131C220.992 228.488 239.806 212.321 252.689 191.764C265.572 171.208 271.92 147.228 270.893 122.99C269.867 98.7513 261.515 75.3938 246.94 56H432V408Z" fill="black"/>
<path d="M247 128C247 109.013 241.37 90.4524 230.821 74.6653C220.273 58.8782 205.279 46.5736 187.738 39.3076C170.196 32.0416 150.894 30.1404 132.271 33.8446C113.649 37.5488 96.5436 46.6919 83.1178 60.1178C69.692 73.5436 60.5488 90.6492 56.8447 109.271C53.1405 127.894 55.0416 147.196 62.3076 164.738C69.5736 182.279 81.8782 197.272 97.6653 207.821C113.452 218.37 132.013 224 151 224C176.452 223.971 200.853 213.848 218.851 195.851C236.848 177.853 246.971 153.452 247 128V128ZM71 128C71 112.178 75.692 96.7103 84.4825 83.5544C93.273 70.3985 105.767 60.1447 120.385 54.0897C135.003 48.0346 151.089 46.4504 166.607 49.5372C182.126 52.624 196.38 60.2433 207.569 71.4315C218.757 82.6197 226.376 96.8743 229.463 112.393C232.55 127.911 230.965 143.997 224.91 158.615C218.855 173.233 208.602 185.727 195.446 194.518C182.29 203.308 166.823 208 151 208C129.79 207.976 109.456 199.54 94.4581 184.542C79.4604 169.544 71.0241 149.21 71 128Z" fill="black"/>
<path d="M173.624 136H191C193.122 136 195.157 135.157 196.657 133.657C198.158 132.157 199 130.122 199 128C199 125.878 198.158 123.843 196.657 122.343C195.157 120.843 193.122 120 191 120H173.624C172.483 116.765 170.662 113.813 168.282 111.343C165.903 108.872 163.021 106.941 159.831 105.68C156.642 104.418 153.218 103.856 149.793 104.031C146.367 104.206 143.019 105.114 139.974 106.693C139.907 106.618 139.847 106.539 139.774 106.465L116.774 82.465C116.049 81.7004 115.18 81.0867 114.216 80.6591C113.253 80.2315 112.215 79.9985 111.161 79.9734C110.107 79.9483 109.059 80.1317 108.077 80.5129C107.094 80.8942 106.197 81.4658 105.436 82.1951C104.675 82.9243 104.065 83.7966 103.643 84.7621C103.22 85.7275 102.992 86.7669 102.972 87.8207C102.952 88.8745 103.141 89.9217 103.527 90.9024C103.913 91.883 104.489 92.7777 105.222 93.535L128.222 117.535C128.484 117.804 128.764 118.054 129.06 118.284C127.737 121.239 127.025 124.431 126.968 127.669C126.911 130.906 127.509 134.122 128.727 137.122C129.945 140.122 131.758 142.845 134.056 145.126C136.353 147.407 139.089 149.2 142.098 150.396C145.107 151.592 148.327 152.167 151.564 152.086C154.801 152.005 157.988 151.27 160.933 149.925C163.878 148.58 166.521 146.653 168.702 144.26C170.883 141.867 172.558 139.057 173.624 136V136ZM143 128C143 126.418 143.47 124.871 144.349 123.555C145.228 122.24 146.477 121.214 147.939 120.609C149.401 120.003 151.009 119.845 152.561 120.154C154.113 120.462 155.538 121.224 156.657 122.343C157.776 123.462 158.538 124.887 158.847 126.439C159.155 127.991 158.997 129.6 158.391 131.061C157.786 132.523 156.761 133.773 155.445 134.652C154.129 135.531 152.583 136 151 136C148.879 135.998 146.846 135.154 145.346 133.654C143.846 132.154 143.003 130.121 143 128V128Z" fill="black"/>
<path d="M296 192H400C402.122 192 404.157 191.157 405.657 189.657C407.157 188.157 408 186.122 408 184V80C408 77.8783 407.157 75.8434 405.657 74.3431C404.157 72.8429 402.122 72 400 72H296C293.878 72 291.843 72.8429 290.343 74.3431C288.843 75.8434 288 77.8783 288 80V184C288 186.122 288.843 188.157 290.343 189.657C291.843 191.157 293.878 192 296 192ZM304 88H392V176H304V88Z" fill="black"/>
<path d="M160 296H200C202.122 296 204.157 295.157 205.657 293.657C207.157 292.157 208 290.122 208 288V264C208 261.878 207.157 259.843 205.657 258.343C204.157 256.843 202.122 256 200 256H160C157.878 256 155.843 256.843 154.343 258.343C152.843 259.843 152 261.878 152 264V288C152 290.122 152.843 292.157 154.343 293.657C155.843 295.157 157.878 296 160 296ZM168 272H192V280H168V272Z" fill="black"/>
<path d="M224 272H400C402.122 272 404.157 271.157 405.657 269.657C407.157 268.157 408 266.122 408 264C408 261.878 407.157 259.843 405.657 258.343C404.157 256.843 402.122 256 400 256H224C221.878 256 219.843 256.843 218.343 258.343C216.843 259.843 216 261.878 216 264C216 266.122 216.843 268.157 218.343 269.657C219.843 271.157 221.878 272 224 272Z" fill="black"/>
<path d="M224 296H336C338.122 296 340.157 295.157 341.657 293.657C343.157 292.157 344 290.122 344 288C344 285.878 343.157 283.843 341.657 282.343C340.157 280.843 338.122 280 336 280H224C221.878 280 219.843 280.843 218.343 282.343C216.843 283.843 216 285.878 216 288C216 290.122 216.843 292.157 218.343 293.657C219.843 295.157 221.878 296 224 296Z" fill="black"/>
<path d="M360 280C357.878 280 355.843 280.843 354.343 282.343C352.843 283.843 352 285.878 352 288C352 290.122 352.843 292.157 354.343 293.657C355.843 295.157 357.878 296 360 296H368C370.122 296 372.157 295.157 373.657 293.657C375.157 292.157 376 290.122 376 288C376 285.878 375.157 283.843 373.657 282.343C372.157 280.843 370.122 280 368 280H360Z" fill="black"/>
<path d="M160 344H200C202.122 344 204.157 343.157 205.657 341.657C207.157 340.157 208 338.122 208 336V312C208 309.878 207.157 307.843 205.657 306.343C204.157 304.843 202.122 304 200 304H160C157.878 304 155.843 304.843 154.343 306.343C152.843 307.843 152 309.878 152 312V336C152 338.122 152.843 340.157 154.343 341.657C155.843 343.157 157.878 344 160 344ZM168 320H192V328H168V320Z" fill="black"/>
<path d="M224 320H400C402.122 320 404.157 319.157 405.657 317.657C407.157 316.157 408 314.122 408 312C408 309.878 407.157 307.843 405.657 306.343C404.157 304.843 402.122 304 400 304H224C221.878 304 219.843 304.843 218.343 306.343C216.843 307.843 216 309.878 216 312C216 314.122 216.843 316.157 218.343 317.657C219.843 319.157 221.878 320 224 320Z" fill="black"/>
<path d="M224 344H336C338.122 344 340.157 343.157 341.657 341.657C343.157 340.157 344 338.122 344 336C344 333.878 343.157 331.843 341.657 330.343C340.157 328.843 338.122 328 336 328H224C221.878 328 219.843 328.843 218.343 330.343C216.843 331.843 216 333.878 216 336C216 338.122 216.843 340.157 218.343 341.657C219.843 343.157 221.878 344 224 344Z" fill="black"/>
<path d="M360 328C357.878 328 355.843 328.843 354.343 330.343C352.843 331.843 352 333.878 352 336C352 338.122 352.843 340.157 354.343 341.657C355.843 343.157 357.878 344 360 344H368C370.122 344 372.157 343.157 373.657 341.657C375.157 340.157 376 338.122 376 336C376 333.878 375.157 331.843 373.657 330.343C372.157 328.843 370.122 328 368 328H360Z" fill="black"/>
<path d="M160 392H200C202.122 392 204.157 391.157 205.657 389.657C207.157 388.157 208 386.122 208 384V360C208 357.878 207.157 355.843 205.657 354.343C204.157 352.843 202.122 352 200 352H160C157.878 352 155.843 352.843 154.343 354.343C152.843 355.843 152 357.878 152 360V384C152 386.122 152.843 388.157 154.343 389.657C155.843 391.157 157.878 392 160 392ZM168 368H192V376H168V368Z" fill="black"/>
<path d="M224 368H400C402.122 368 404.157 367.157 405.657 365.657C407.157 364.157 408 362.122 408 360C408 357.878 407.157 355.843 405.657 354.343C404.157 352.843 402.122 352 400 352H224C221.878 352 219.843 352.843 218.343 354.343C216.843 355.843 216 357.878 216 360C216 362.122 216.843 364.157 218.343 365.657C219.843 367.157 221.878 368 224 368Z" fill="black"/>
<path d="M336 376H224C221.878 376 219.843 376.843 218.343 378.343C216.843 379.843 216 381.878 216 384C216 386.122 216.843 388.157 218.343 389.657C219.843 391.157 221.878 392 224 392H336C338.122 392 340.157 391.157 341.657 389.657C343.157 388.157 344 386.122 344 384C344 381.878 343.157 379.843 341.657 378.343C340.157 376.843 338.122 376 336 376Z" fill="black"/>
<path d="M368 376H360C357.878 376 355.843 376.843 354.343 378.343C352.843 379.843 352 381.878 352 384C352 386.122 352.843 388.157 354.343 389.657C355.843 391.157 357.878 392 360 392H368C370.122 392 372.157 391.157 373.657 389.657C375.157 388.157 376 386.122 376 384C376 381.878 375.157 379.843 373.657 378.343C372.157 376.843 370.122 376 368 376Z" fill="black"/>
<path d="M296 216H400C402.122 216 404.157 215.157 405.657 213.657C407.157 212.157 408 210.122 408 208C408 205.878 407.157 203.843 405.657 202.343C404.157 200.843 402.122 200 400 200H296C293.878 200 291.843 200.843 290.343 202.343C288.843 203.843 288 205.878 288 208C288 210.122 288.843 212.157 290.343 213.657C291.843 215.157 293.878 216 296 216Z" fill="black"/>
<path d="M400 224H376C373.878 224 371.843 224.843 370.343 226.343C368.843 227.843 368 229.878 368 232C368 234.122 368.843 236.157 370.343 237.657C371.843 239.157 373.878 240 376 240H400C402.122 240 404.157 239.157 405.657 237.657C407.157 236.157 408 234.122 408 232C408 229.878 407.157 227.843 405.657 226.343C404.157 224.843 402.122 224 400 224Z" fill="black"/>
<path d="M280 408H160C157.878 408 155.843 408.843 154.343 410.343C152.843 411.843 152 413.878 152 416C152 418.122 152.843 420.157 154.343 421.657C155.843 423.157 157.878 424 160 424H280C282.122 424 284.157 423.157 285.657 421.657C287.157 420.157 288 418.122 288 416C288 413.878 287.157 411.843 285.657 410.343C284.157 408.843 282.122 408 280 408Z" fill="black"/>
<path d="M216 432H160C157.878 432 155.843 432.843 154.343 434.343C152.843 435.843 152 437.878 152 440C152 442.122 152.843 444.157 154.343 445.657C155.843 447.157 157.878 448 160 448H216C218.122 448 220.157 447.157 221.657 445.657C223.157 444.157 224 442.122 224 440C224 437.878 223.157 435.843 221.657 434.343C220.157 432.843 218.122 432 216 432Z" fill="black"/>
</svg>
