<svg
    xmlns="http://www.w3.org/2000/svg"
    viewBox="0 0 1400 980"
    id="vector">
    <defs>
        <clipPath id="clip_group">
            <path d="M 0 0 Z"/>
        </clipPath>
    </defs>
    <g id="wrapper">
        <g
            id="group"
            clip-path="url(#clip_group)">
            <path
                id="path_1"
                d="M -70.9 202.1 C -70.9 202.1 647.6 159.8 688.1 159.9 C 728.6 160.1 776.3 142.7 545.4 224.9 C 314.5 307.1 125.5 364.1 54.3 419.6 C -16.9 475.1 -118.9 343.1 -118.9 333.4 C -118.9 323.6 -70.9 202.1 -70.9 202.1 Z M 1558 233.3 C 1558 233.3 1565.5 220.5 1259.5 313.3 C 953.5 406.1 776.3 470.5 711.2 493.1 C 646.1 515.6 549.3 538.8 549.3 538.8 C 549.3 538.8 842.8 561.4 1115.7 495.8 C 1388.6 430.2 1480.1 335.6 1558.1 328.1 C 1636.1 320.6 1558 233.3 1558 233.3 Z"
                fill="#b5d7e5"
                stroke-width="1"/>
            <path
                id="path_2"
                d="M 640.5 515.6 C 640.5 515.6 843.7 439.6 994.5 381.2 C 1145.3 322.8 1256.2 297.2 1344 268 C 1431.8 238.8 1500.8 205.6 1500.8 205.6 C 1500.8 205.6 1505.3 255.8 1490.3 268 C 1475.3 280.1 1491.5 300.2 1283.2 345.2 C 1074.9 390.2 640.5 515.6 640.5 515.6 Z"
                fill="#cee9f4"
                stroke-width="1"/>
            <path
                id="path_3"
                d="M -160.9 878.3 C -160.9 878.3 79.2 795.3 223.1 774.7 C 367 754.1 589.6 754.6 767.1 714.6 C 944.5 674.6 1098.1 622.4 1122.6 607.3 C 1147.1 592.2 871.5 746.7 729.6 784.2 C 587.7 821.7 454.1 837 340.1 859.3 C 226.1 881.6 198.7 908.6 66.1 952.1 C -66.4 995.6 -145.9 989.6 -145.9 989.6 L -160.9 878.3 Z"
                fill="#b5d7e5"
                stroke-width="1"/>
            <path
                id="path_4"
                d="M 415.5 825 C 415.5 825 212.3 901 61.5 959.4 C -89.3 1017.8 -200.2 1043.4 -288 1072.6 C -375.8 1101.8 -444.8 1135 -444.8 1135 C -444.8 1135 -449.3 1084.8 -434.3 1072.6 C -419.3 1060.4 -435.5 1040.4 -227.2 995.4 C -18.8 950.3 415.5 825 415.5 825 Z"
                fill="#cee9f4"
                stroke-width="1"/>
        </g>
    </g>
    <g id="group_1">
        <path
            id="path_5"
            d="M 1365.1 126.9 L 1358.9 112.9 C 1357.7 110.1 1354.4 108.8 1351.5 110 L 1233.5 162.1 C 1230.7 163.3 1229.4 166.6 1230.7 169.5 L 1231.1 170.5 L 1217.3 176.6 C 1198 141.4 1154.6 126.1 1117.2 142.6 C 1087.2 155.9 1069.7 185.9 1070.7 216.9 C 1071 226.6 1073.1 236.3 1077.3 245.7 C 1094.7 285.1 1140.9 303 1180.4 285.6 C 1209 273 1226.2 245.1 1226.9 215.7 C 1227.1 206.7 1225.8 197.6 1222.8 188.7 L 1236.6 182.6 L 1237 183.6 C 1238.2 186.4 1241.5 187.7 1244.4 186.5 L 1362.4 134.4 C 1365.1 133 1366.4 129.7 1365.1 126.9 Z M 1338.6 414.2 L 1248.4 403.7 L 1249.1 400.1 C 1249.5 397.6 1247.9 395.3 1245.4 394.8 L 1185.9 384.2 C 1186.3 383 1186.7 381.9 1186.9 380.6 C 1189.2 367.8 1180.7 355.5 1167.8 353.2 C 1155 350.9 1142.7 359.5 1140.4 372.3 C 1140.2 373.5 1140.1 374.8 1140.1 376 L 1080.6 365.4 C 1078.1 365 1075.8 366.6 1075.3 369.1 L 1072.8 383.3 L 952.2 369.2 C 949.4 368.9 946.8 370.9 946.5 373.7 L 888.2 872.6 C 887.9 875.4 889.9 878 892.7 878.3 L 1179.8 911.9 L 1170.9 927.6 C 1169.6 929.9 1170.4 932.7 1172.7 934 L 1181.9 939.2 C 1184.2 940.5 1187 939.7 1188.3 937.4 L 1201.4 914.3 L 1279.1 923.4 C 1281.9 923.7 1284.5 921.7 1284.8 918.9 L 1306.2 736 L 1320.8 710.3 C 1322.1 708.1 1321.3 705.2 1319 703.9 L 1310.5 699.1 L 1343.1 420.1 C 1343.5 417.1 1341.4 414.6 1338.6 414.2 Z M 1152.4 373.6 C 1153.5 367.3 1159.6 363.1 1165.9 364.2 C 1172.2 365.3 1176.4 371.4 1175.3 377.6 C 1174.2 383.9 1168.2 388.1 1161.9 387 C 1155.5 385.9 1151.3 379.9 1152.4 373.6 Z M 299.3 237.4 C 295.4 240.8 295 246.8 298.4 250.7 L 360.7 321.5 C 364.1 325.4 370.1 325.8 374 322.3 L 498.6 212.6 C 502 214.6 506.4 214.3 509.6 211.6 L 531.7 192.1 C 535.6 188.7 536 182.7 532.5 178.8 L 461.6 98.3 C 458.2 94.4 452.2 94 448.3 97.5 L 426.3 117 C 423.2 119.8 422.3 124.1 423.9 127.7 L 299.3 237.4 Z M 798.2 223.7 L 834.2 259.7 C 835.7 261.2 838.2 261.2 839.8 259.7 L 880.3 219.2 L 920.8 259.7 C 922.3 261.2 924.8 261.2 926.4 259.7 L 962.4 223.7 C 963.9 222.2 963.9 219.7 962.4 218.1 L 921.9 177.6 L 962.4 137.1 C 963.9 135.6 963.9 133.1 962.4 131.5 L 926.4 95.5 C 924.9 94 922.4 94 920.8 95.5 L 880.3 136 L 839.8 95.5 C 838.3 94 835.8 94 834.2 95.5 L 798.2 131.5 C 796.7 133 796.7 135.5 798.2 137.1 L 838.7 177.6 L 798.2 218.1 C 796.6 219.7 796.6 222.2 798.2 223.7 Z M 765.7 785.7 L 729.7 749.7 C 728.2 748.2 725.7 748.2 724.1 749.7 L 683.6 790.2 L 643.1 749.7 C 641.6 748.2 639.1 748.2 637.5 749.7 L 601.5 785.7 C 600 787.2 600 789.7 601.5 791.3 L 642 831.8 L 601.5 872.3 C 600 873.8 600 876.3 601.5 877.9 L 637.5 913.9 C 639 915.4 641.5 915.4 643.1 913.9 L 683.6 873.4 L 724.1 913.9 C 725.6 915.4 728.1 915.4 729.7 913.9 L 765.7 877.9 C 767.2 876.4 767.2 873.9 765.7 872.3 L 725.2 831.8 L 765.7 791.3 C 767.2 789.7 767.2 787.2 765.7 785.7 Z M 829.1 466.8 L 829.6 466.4 C 831.9 464.6 832.4 461.2 830.6 458.9 L 815.9 439.8 L 816.6 439.2 C 819 437.3 819.5 433.8 817.6 431.4 C 815.7 429 812.2 428.5 809.8 430.4 L 813.3 427.7 C 814.4 426.9 815.2 425.9 815.9 424.8 C 816 424.7 816 424.6 816.1 424.5 C 816.1 424.4 816.2 424.3 816.2 424.2 C 817.8 421.3 818 417.8 816.7 415 C 816.3 414.2 815.9 413.3 815.3 412.6 L 700 263.2 C 699.7 262.8 699.3 262.4 698.9 262 L 701.9 259.7 C 705.9 256.6 706.6 250.9 703.5 246.9 C 700.4 242.9 694.7 242.2 690.7 245.3 L 677.7 255.4 L 637.2 202.9 L 643.1 198.4 C 645.4 196.6 645.9 193.2 644.1 190.9 L 644 190.7 C 642.2 188.4 638.8 187.9 636.5 189.7 L 626.4 197.5 L 618.1 203.9 L 608 211.7 C 605.7 213.5 605.2 216.9 607 219.2 L 607.1 219.4 C 608.9 221.8 612.3 222.2 614.6 220.4 L 620.5 215.9 L 661 268.4 L 648 278.5 C 644 281.6 643.3 287.3 646.3 291.3 C 649.4 295.3 655.1 296 659.1 292.9 L 662.1 290.6 C 662.4 291.1 662.6 291.5 663 292 L 778.3 441.4 C 778.9 442.2 779.6 442.8 780.3 443.4 C 782.7 445.5 786.1 446.1 789.3 445.3 C 789.4 445.3 789.5 445.3 789.6 445.2 C 789.7 445.2 789.8 445.1 789.9 445.1 C 791.1 444.7 792.3 444.2 793.3 443.3 L 793.4 443.2 L 793.6 443 L 796.8 440.6 C 794.4 442.5 793.9 446 795.8 448.4 C 797.7 450.8 801.2 451.3 803.6 449.4 L 804.3 448.8 L 819 467.9 C 820.8 470.2 824.2 470.7 826.5 468.9 L 827 468.5 L 877.8 534.4 C 878.2 535 879.1 535.1 879.7 534.6 C 880.3 534.1 880.4 533.3 879.9 532.7 L 829.1 466.8 Z M 518.9 684.2 L 502.1 616 C 495.4 588.7 467.7 571.9 440.4 578.6 L 400.4 588.4 C 373.1 595.1 356.3 622.8 363 650.1 L 363.4 651.8 L 406.4 826.8 L 406.8 828.5 C 411.8 848.7 399.4 869.2 379.2 874.1 L 339.2 883.9 C 319 888.9 298.5 876.5 293.6 856.3 L 256.1 703.6 L 256.3 703.6 C 257.8 703.2 258.7 701.8 258.3 700.3 L 253.7 681.7 L 272.3 677.1 C 273.8 676.7 274.7 675.3 274.3 673.8 L 273.8 671.6 C 332.2 643.8 333.2 577.6 333.2 576.8 L 330.1 525 L 324 422.8 L 324 422.3 C 316.7 365.5 277 336.9 263.2 328.6 C 264.1 324.2 261.4 319.9 257 318.9 C 252.6 317.9 248.2 320.6 247.2 325 L 244.7 336 C 243.7 340.4 246.4 344.8 250.8 345.8 C 254.3 346.6 257.8 345 259.5 342.1 C 273.6 351.6 304.6 377.3 310.6 423.7 L 316.7 525.4 L 319.8 577 C 319.8 579.4 318.7 634.2 269.6 658.6 C 269 658.3 268.3 658.2 267.6 658.3 L 249 663 L 244.4 644.4 C 244 642.9 242.6 642 241.1 642.4 L 227.8 645.7 C 226.3 646.1 225.4 647.5 225.8 649 L 230.4 667.6 L 211.8 672.2 C 210.5 672.5 209.7 673.7 209.7 674.9 C 149.3 681.2 120.5 628.5 119.3 626.3 L 98.1 579.2 L 56.3 486.2 C 40.2 442.3 55.7 405.1 63.8 390.2 C 66.7 391.9 70.5 391.7 73.2 389.4 C 76.6 386.5 77 381.3 74.1 377.9 L 66.8 369.3 C 63.9 365.9 58.7 365.5 55.3 368.4 C 51.9 371.3 51.5 376.4 54.3 379.8 C 46 393.5 24 437.3 43.8 491 C 43.9 491.1 43.9 491.3 44 491.4 L 85.9 584.7 L 107.2 632 C 107.6 632.7 142 696.2 212.7 687.8 L 212.9 688.6 C 213.3 690.1 214.7 691 216.2 690.6 L 234.8 686 L 239.4 704.6 C 239.8 706.1 241.3 707 242.7 706.6 L 242.9 706.6 L 280.4 859.3 C 287.1 886.6 314.8 903.4 342.1 896.7 L 382.1 886.9 C 409.4 880.2 426.2 852.5 419.5 825.2 L 419.1 823.5 L 376.1 648.5 L 375.7 646.8 C 370.7 626.6 383.1 606.1 403.3 601.2 L 443.3 591.4 C 463.5 586.4 484 598.8 488.9 619 L 505.7 687.2 C 493.5 693.3 486.6 707.3 490 721.1 C 493.9 737.2 510.2 747 526.2 743 C 542.3 739.1 552.1 722.8 548.1 706.8 C 545 693.2 532.5 684 518.9 684.2 Z M 612.7 427.3 C 613 427.9 613.4 428.3 613.8 428.5 L 617.5 437.2 C 617.3 437.6 617.3 438.2 617.6 438.8 C 617.9 439.4 618.3 439.8 618.7 440 L 622.4 448.7 C 622.2 449.1 622.2 449.7 622.5 450.3 C 622.8 450.9 623.2 451.3 623.6 451.5 L 627.3 460.2 C 627.1 460.6 627.1 461.2 627.4 461.8 C 627.7 462.4 628.1 462.8 628.5 463 L 632.2 471.7 C 632 472.1 632 472.7 632.3 473.3 C 632.6 473.9 633 474.3 633.4 474.5 L 637.1 483.2 C 636.9 483.6 636.9 484.2 637.2 484.8 C 637.5 485.4 637.9 485.8 638.3 486 L 642 494.7 C 641.8 495.1 641.8 495.7 642.1 496.3 C 642.4 496.9 642.8 497.3 643.2 497.5 L 646.9 506.2 C 646.7 506.6 646.7 507.2 647 507.8 C 647.3 508.4 647.7 508.8 648.1 509 L 651.8 517.7 C 651.6 518.1 651.6 518.7 651.9 519.3 C 652.2 519.9 652.6 520.3 653 520.5 L 656.7 529.2 C 656.5 529.6 656.5 530.2 656.8 530.8 C 657.1 531.4 657.5 531.8 657.9 532 L 661.6 540.7 C 661.4 541.1 661.4 541.7 661.7 542.3 C 662 542.9 662.4 543.3 662.8 543.5 L 666.5 552.2 C 666.3 552.6 666.3 553.2 666.6 553.8 C 666.9 554.4 667.3 554.8 667.7 555 L 671.4 563.7 C 671.2 564.1 671.2 564.7 671.5 565.3 C 671.8 565.9 672.2 566.3 672.6 566.5 L 676.3 575.2 C 676.1 575.6 676.1 576.2 676.4 576.8 C 676.7 577.4 677.1 577.8 677.5 578 L 681.2 586.7 C 681 587.1 681 587.7 681.3 588.3 C 681.6 588.9 682 589.3 682.4 589.5 L 686.1 598.2 C 685.9 598.6 685.9 599.2 686.2 599.8 C 686.5 600.4 686.9 600.8 687.3 601 L 691 609.7 C 690.8 610.1 690.8 610.7 691.1 611.3 C 691.4 611.9 691.8 612.3 692.2 612.5 L 695.9 621.2 C 695.7 621.6 695.7 622.2 696 622.8 C 696.3 623.4 696.7 623.8 697.1 624 L 700.8 632.7 C 700.6 633.1 700.6 633.7 700.9 634.3 C 701.2 634.9 701.6 635.3 702 635.5 L 705.7 644.2 C 705.5 644.6 705.5 645.2 705.8 645.8 C 706.1 646.4 706.5 646.8 706.9 647 L 723.1 685.4 C 724.5 688.8 728.4 690.4 731.8 688.9 L 737 686.7 C 740.4 685.3 742 681.4 740.5 678 L 608.9 368.1 C 607.6 365 604.3 363.5 601.2 364.2 L 580.9 316.1 C 579.9 313.7 577.1 312.6 574.7 313.6 C 572.3 314.6 571.2 317.4 572.2 319.8 L 592.7 368.3 C 591 370.2 590.4 372.9 591.5 375.4 L 612.7 425.5 C 612.4 426 612.4 426.7 612.7 427.3 Z M 499.6 414.3 C 506.2 414.3 511.6 408.9 511.6 402.3 L 511.6 398.8 C 511.6 392.2 506.2 386.8 499.6 386.8 L 465.6 386.8 C 459 386.8 453.6 392.2 453.6 398.8 L 453.6 402.3 C 453.6 408.9 459 414.3 465.6 414.3 L 499.6 414.3 Z M 445.2 402.2 L 445.2 368.1 C 445.2 361.5 439.8 356.1 433.2 356.1 L 429.7 356.1 C 423.1 356.1 417.7 361.5 417.7 368.1 L 417.7 402.2 C 417.7 408.8 423.1 414.2 429.7 414.2 L 433.2 414.2 C 439.8 414.3 445.2 408.9 445.2 402.2 Z M 585.6 404.7 L 571.4 395.2 L 557.3 385.7 C 551.8 382 544.3 383.5 540.6 389 L 538.6 391.9 C 534.9 397.4 536.4 404.9 541.9 408.6 L 556 418.1 L 570.2 427.6 C 575.7 431.3 583.2 429.8 586.9 424.3 L 588.9 421.4 C 592.5 415.9 591.1 408.4 585.6 404.7 Z M 443.6 466 L 454.2 479.3 C 458.3 484.5 465.9 485.3 471.1 481.2 L 473.8 479 C 479 474.8 479.8 467.3 475.7 462.1 L 465.1 448.8 L 454.5 435.5 C 450.4 430.3 442.8 429.5 437.6 433.6 L 434.9 435.8 C 429.7 439.9 428.9 447.5 433 452.7 L 443.6 466 Z M 499.4 457.2 L 533.4 457.2 C 540 457.2 545.4 451.8 545.4 445.2 L 545.4 441.7 C 545.4 435.1 540 429.7 533.4 429.7 L 499.4 429.7 C 492.8 429.7 487.4 435.1 487.4 441.7 L 487.4 445.2 C 487.3 451.8 492.7 457.2 499.4 457.2 Z M 489.4 355.8 L 503.6 365.3 C 509.1 369 516.6 367.5 520.3 362 L 522.3 359.1 C 526 353.6 524.5 346.1 519 342.4 L 504.8 332.9 L 490.7 323.4 C 485.2 319.7 477.7 321.2 474 326.7 L 472 329.6 C 468.3 335.1 469.8 342.6 475.3 346.3 L 489.4 355.8 Z M 391.6 399.9 C 387.5 394.7 379.9 393.9 374.7 398 L 372 400.2 C 366.8 404.3 366 411.9 370.1 417.1 L 380.7 430.4 L 391.3 443.7 C 395.4 448.9 403 449.7 408.2 445.6 L 410.9 443.4 C 416.1 439.2 416.9 431.7 412.8 426.5 L 402.2 413.2 L 391.6 399.9 Z M 174.2 173.7 L 208.2 173.7 C 214.8 173.7 220.2 168.3 220.2 161.7 L 220.2 158.2 C 220.2 151.6 214.8 146.2 208.2 146.2 L 174.2 146.2 C 167.6 146.2 162.2 151.6 162.2 158.2 L 162.2 161.7 C 162.2 168.4 167.6 173.7 174.2 173.7 Z M 138.4 173.7 L 141.9 173.7 C 148.5 173.7 153.9 168.3 153.9 161.7 L 153.9 127.6 C 153.9 121 148.5 115.6 141.9 115.6 L 138.4 115.6 C 131.8 115.6 126.4 121 126.4 127.6 L 126.4 161.7 C 126.3 168.4 131.7 173.7 138.4 173.7 Z M 250.6 168.1 L 264.7 177.6 L 278.9 187.1 C 284.4 190.8 291.9 189.3 295.6 183.8 L 297.6 180.9 C 301.3 175.4 299.8 167.9 294.3 164.2 L 280.1 154.7 L 266 145.2 C 260.5 141.5 253 143 249.3 148.5 L 247.3 151.4 C 243.7 156.9 245.1 164.4 250.6 168.1 Z M 143.6 195.3 C 138.4 199.4 137.6 207 141.7 212.2 L 152.3 225.5 L 162.9 238.8 C 167 244 174.6 244.8 179.8 240.7 L 182.5 238.5 C 187.7 234.3 188.5 226.8 184.4 221.6 L 173.8 208.3 L 163.2 195 C 159.1 189.8 151.5 189 146.3 193.1 L 143.6 195.3 Z M 208.1 189.1 C 201.5 189.1 196.1 194.5 196.1 201.1 L 196.1 204.6 C 196.1 211.2 201.5 216.6 208.1 216.6 L 242.1 216.6 C 248.7 216.6 254.1 211.2 254.1 204.6 L 254.1 201.1 C 254.1 194.5 248.7 189.1 242.1 189.1 L 208.1 189.1 Z M 184 105.8 L 198.1 115.3 L 212.3 124.8 C 217.8 128.5 225.3 127 229 121.5 L 231 118.6 C 234.7 113.1 233.2 105.6 227.7 101.9 L 213.5 92.4 L 199.4 82.9 C 193.9 79.2 186.4 80.7 182.7 86.2 L 180.7 89.1 C 177 94.7 178.5 102.1 184 105.8 Z M 89.4 190 L 100 203.3 C 104.1 208.5 111.7 209.3 116.9 205.2 L 119.6 203 C 124.8 198.8 125.6 191.3 121.5 186.1 L 111 172.7 L 100.4 159.4 C 96.3 154.2 88.7 153.4 83.5 157.5 L 80.8 159.7 C 75.6 163.8 74.8 171.4 78.9 176.6 L 89.4 190 Z"
            fill="#000000"
            stroke-width="1"/>
    </g>
    <g id="group_32">
        <path
            id="path_6"
            d="M 1220.8 159.5 L 1221.2 160.5 L 1202.9 168.6 C 1200.1 169.8 1198.8 173.1 1200.1 176 L 1200.9 177.9 C 1202.1 180.7 1205.4 182 1208.3 180.8 L 1226.6 172.7 L 1227 173.7 C 1228.2 176.5 1231.5 177.8 1234.4 176.6 L 1352.4 124.5 C 1355.2 123.3 1356.5 120 1355.3 117.1 L 1349.1 103.1 C 1347.9 100.3 1344.6 99 1341.7 100.2 L 1223.7 152.3 C 1220.8 153.4 1219.5 156.7 1220.8 159.5 Z"
            fill="#4a7f91"
            stroke-width="1"/>
        <path
            id="path_7"
            d="M 1077.6 206.7 C 1077.9 214.1 1079.5 221.6 1082.7 228.8 C 1096.4 259.8 1132.7 273.8 1163.7 260.2 C 1186 250.3 1199.5 228.7 1200.2 205.8 C 1200.5 196.9 1198.9 187.9 1195.1 179.3 C 1181.4 148.3 1145.1 134.3 1114.1 147.9 C 1090.3 158.4 1076.5 182.2 1077.6 206.7 Z"
            fill="#77eadd"
            stroke-width="1"/>
        <path
            id="path_8"
            d="M 1060.8 206.9 C 1061.1 216.6 1063.2 226.3 1067.4 235.7 C 1084.8 275.1 1131 293 1170.5 275.6 C 1199.1 263 1216.3 235.1 1217 205.7 C 1217.2 194.6 1215.2 183.3 1210.4 172.5 C 1193 133.1 1146.8 115.2 1107.3 132.6 C 1077.2 145.8 1059.7 175.9 1060.8 206.9 Z M 1195 179.2 C 1198.8 187.8 1200.4 196.9 1200.1 205.7 C 1199.4 228.6 1185.9 250.3 1163.6 260.1 C 1132.6 273.8 1096.3 259.7 1082.6 228.7 C 1079.4 221.5 1077.8 214 1077.5 206.6 C 1076.5 182.1 1090.2 158.3 1114 147.8 C 1145 134.2 1181.3 148.3 1195 179.2 Z"
            fill="#4a7f91"
            stroke-width="1"/>
        <path
            id="path_9"
            d="M 1163.7 260.2 C 1186 250.3 1199.5 228.7 1200.2 205.8 L 1077.6 206.7 C 1077.9 214.1 1079.5 221.6 1082.7 228.8 C 1096.4 259.8 1132.7 273.9 1163.7 260.2 Z"
            fill="#ffffff"
            stroke-width="1"/>
        <path
            id="path_10"
            d="M 1274.8 908.8 C 1274.5 911.6 1271.9 913.7 1269.1 913.3 L 882.8 868.2 C 880 867.9 878 865.3 878.3 862.5 L 936.6 363.6 C 936.9 360.8 939.5 358.8 942.3 359.1 L 1328.6 404.2 C 1331.4 404.5 1333.5 407.1 1333.1 409.9 L 1274.8 908.8 Z"
            fill="#c1924d"
            stroke-width="1"/>
        <path
            id="path_11"
            d="M 964.095 394.141 L 1299.2 433.313 L 1247.176 878.366 L 912.07 839.194 Z"
            fill="#f8f8f8"
            stroke-width="1"/>
        <path
            id="path_12"
            d="M 1235.4 384.8 L 1175.9 374.2 C 1176.3 373 1176.7 371.9 1176.9 370.6 C 1179.2 357.8 1170.7 345.5 1157.8 343.2 C 1145 340.9 1132.7 349.5 1130.4 362.3 C 1130.2 363.5 1130.1 364.8 1130.1 366 L 1070.6 355.4 C 1068.1 355 1065.8 356.6 1065.3 359.1 L 1061.9 378.1 C 1061.5 380.6 1063.1 382.9 1065.6 383.4 L 1230.3 412.9 C 1232.8 413.3 1235.1 411.7 1235.6 409.2 L 1239 390.2 C 1239.5 387.6 1237.9 385.2 1235.4 384.8 Z M 1151.8 377 C 1145.5 375.9 1141.3 369.9 1142.4 363.5 C 1143.5 357.2 1149.6 353 1155.9 354.1 C 1162.2 355.2 1166.4 361.3 1165.3 367.5 C 1164.1 374 1158.1 378.2 1151.8 377 Z M 1148.4 473.2 L 1131.9 471.3 L 1133.8 454.7 C 1134 453.4 1133 452.2 1131.7 452.1 L 1119.9 450.7 C 1118.6 450.5 1117.4 451.5 1117.3 452.8 L 1115.4 469.4 L 1098.9 467.5 C 1097.6 467.3 1096.4 468.3 1096.3 469.6 L 1094.9 481.4 C 1094.7 482.7 1095.7 483.9 1097 484 L 1113.5 485.9 L 1111.6 502.5 C 1111.4 503.8 1112.4 505 1113.7 505.1 L 1125.5 506.5 C 1126.8 506.7 1128 505.7 1128.1 504.4 L 1130 487.8 L 1146.6 489.7 C 1147.9 489.9 1149.1 488.9 1149.2 487.6 L 1150.6 475.8 C 1150.7 474.5 1149.7 473.3 1148.4 473.2 Z"
            fill="#fd5a39"
            stroke-width="1"/>
        <path
            id="path_13"
            d="M 1064.494 513.432 L 1171.065 525.89 L 1169.3 540.987 L 1062.729 528.529 Z"
            fill="#d1d1d1"
            stroke-width="1"/>
        <g id="group_2">
            <path
                id="path_14"
                d="M 970.993 564.97 L 1252.963 597.931 L 1251.198 613.028 L 969.229 580.067 Z M 966.186 606.879 L 1248.156 639.839 L 1246.379 655.035 L 964.41 622.074 Z M 961.291 648.676 L 1243.261 681.637 L 1241.496 696.733 L 959.526 663.773 Z M 956.385 690.573 L 1238.354 723.534 L 1236.59 738.63 L 954.62 705.669 Z M 951.489 732.37 L 1233.458 765.331 L 1231.694 780.427 L 949.724 747.467 Z"
                fill="#000000"
                stroke-width="1"/>
        </g>
        <g id="group_3">
            <path
                id="path_15"
                d="M 1178.3 927.4 C 1177 929.7 1174.2 930.4 1171.9 929.2 L 1162.7 924 C 1160.4 922.7 1159.7 919.9 1160.9 917.6 L 1275.5 716 C 1276.8 713.7 1279.7 713 1281.9 714.2 L 1291.1 719.4 C 1293.4 720.7 1294.1 723.5 1292.9 725.8 L 1178.3 927.4 Z"
                fill="#4a7f91"
                stroke-width="1"/>
            <path
                id="path_16"
                d="M 1272.5 767.6 C 1271.2 769.9 1268.4 770.6 1266.1 769.4 L 1251.8 761.3 C 1249.5 760 1248.8 757.1 1250 754.9 L 1288.3 687.5 C 1289.6 685.2 1292.4 684.5 1294.7 685.7 L 1309 693.8 C 1311.3 695.1 1312 698 1310.8 700.2 L 1272.5 767.6 Z"
                fill="#000000"
                stroke-width="1"/>
        </g>
        <g id="group_5">
            <path
                id="path_17"
                d="M 364.1 312.4 C 360.2 315.8 354.2 315.5 350.8 311.6 L 288.5 240.8 C 285.1 236.9 285.4 230.9 289.4 227.5 L 439.4 95.5 C 443.3 92.1 449.3 92.4 452.7 96.3 L 515 167.1 C 518.4 171 518.1 177 514.2 180.4 L 364.1 312.4 Z"
                fill="#eabb7d"
                stroke-width="1"/>
            <path
                id="path_18"
                d="M 499.6 201.7 C 495.7 205.1 489.8 204.7 486.3 200.8 L 415.4 120.3 C 412 116.4 412.3 110.4 416.2 107 L 438.3 87.5 C 442.2 84.1 448.2 84.4 451.6 88.3 L 522.5 168.8 C 525.9 172.7 525.6 178.7 521.7 182.1 L 499.6 201.7 Z"
                fill="#e5e5e5"
                stroke-width="1"/>
            <g id="group_4">
                <path
                    id="path_19"
                    d="M 440.6 133.8 C 439.3 135 437.3 134.8 436.1 133.5 C 434.9 132.2 435.1 130.2 436.4 129 L 457.7 110.2 C 459 109 461 109.2 462.2 110.5 C 463.4 111.8 463.2 113.8 461.9 115 L 440.6 133.8 Z M 427.4 118.8 C 426.1 120 424.1 119.8 422.9 118.5 C 421.7 117.2 421.9 115.2 423.2 114 L 444.5 95.2 C 445.8 94 447.8 94.2 449 95.5 C 450.2 96.8 450 98.8 448.7 100 L 427.4 118.8 Z M 453.8 148.9 C 452.5 150.1 450.5 149.9 449.3 148.6 C 448.1 147.3 448.3 145.3 449.6 144.1 L 470.9 125.3 C 472.2 124.1 474.2 124.3 475.4 125.6 C 476.6 126.9 476.4 128.9 475.1 130.1 L 453.8 148.9 Z M 467 163.9 C 465.7 165.1 463.7 164.9 462.5 163.6 C 461.3 162.3 461.5 160.3 462.8 159.1 L 484.1 140.3 C 485.4 139.1 487.4 139.3 488.6 140.6 C 489.8 141.9 489.6 143.9 488.3 145.1 L 467 163.9 Z M 480.3 178.9 C 479 180.1 477 179.9 475.8 178.6 C 474.6 177.3 474.8 175.3 476.1 174.1 L 497.4 155.3 C 498.7 154.1 500.7 154.3 501.9 155.6 C 503.1 156.9 502.9 158.9 501.6 160.1 L 480.3 178.9 Z M 493.5 193.9 C 492.2 195.1 490.2 194.9 489 193.6 C 487.8 192.3 488 190.3 489.3 189.1 L 510.6 170.3 C 511.9 169.1 513.9 169.3 515.1 170.6 C 516.3 171.9 516.1 173.9 514.8 175.1 L 493.5 193.9 Z"
                    fill="#000000"
                    stroke-width="1"/>
            </g>
            <path
                id="path_20"
                d="M 397.2 145.676 L 458.777 215.632 L 437.986 233.933 L 376.408 163.977 Z"
                fill="#af8043"
                stroke-width="1"/>
        </g>
        <g id="group_11">
            <path
                id="path_21"
                d="M 829.7 249.7 C 828.2 251.2 825.7 251.2 824.1 249.7 L 788.1 213.7 C 786.6 212.2 786.6 209.7 788.1 208.1 L 910.7 85.7 C 912.2 84.2 914.7 84.2 916.3 85.7 L 952.3 121.7 C 953.8 123.2 953.8 125.7 952.3 127.3 L 829.7 249.7 Z"
                fill="#af8043"
                stroke-width="1"/>
            <path
                id="path_22"
                d="M 867.7 198.8 C 866.4 200.1 864 200 862.5 198.4 L 839.5 175.4 C 838 173.9 837.8 171.5 839.1 170.2 L 872.7 136.6 C 874 135.3 876.4 135.4 877.9 137 L 900.9 160 C 902.4 161.5 902.6 163.9 901.3 165.2 L 867.7 198.8 Z"
                fill="#ff9a15"
                stroke-width="1"/>
            <g id="group_7">
                <path
                    id="path_23"
                    d="M 909.9 119.8 C 908.7 121 906.7 121 905.5 119.8 C 904.3 118.6 904.3 116.6 905.5 115.4 C 906.7 114.2 908.7 114.2 909.9 115.4 C 911.1 116.6 911.1 118.6 909.9 119.8 Z M 922.5 132.3 C 921.3 133.5 919.3 133.5 918.1 132.3 C 916.9 131.1 916.9 129.1 918.1 127.9 C 919.3 126.7 921.3 126.7 922.5 127.9 C 923.7 129.1 923.7 131.1 922.5 132.3 Z M 907.5 134.8 C 906.3 136 904.3 136 903.1 134.8 C 901.9 133.6 901.9 131.6 903.1 130.4 C 904.3 129.2 906.3 129.2 907.5 130.4 C 908.7 131.6 908.7 133.6 907.5 134.8 Z"
                    fill="#000000"
                    stroke-width="1"/>
                <g id="group_6">
                    <path
                        id="path_24"
                        d="M 830.4 215.6 C 831.6 214.4 833.6 214.4 834.8 215.6 C 836 216.8 836 218.8 834.8 220 C 833.6 221.2 831.6 221.2 830.4 220 C 829.2 218.7 829.2 216.8 830.4 215.6 Z M 817.9 203.1 C 819.1 201.9 821.1 201.9 822.3 203.1 C 823.5 204.3 823.5 206.3 822.3 207.5 C 821.1 208.7 819.1 208.7 817.9 207.5 C 816.7 206.2 816.7 204.3 817.9 203.1 Z M 832.9 200.6 C 834.1 199.4 836.1 199.4 837.3 200.6 C 838.5 201.8 838.5 203.8 837.3 205 C 836.1 206.2 834.1 206.2 832.9 205 C 831.7 203.7 831.7 201.8 832.9 200.6 Z"
                        fill="#000000"
                        stroke-width="1"/>
                </g>
            </g>
            <g id="group_10">
                <path
                    id="path_25"
                    d="M 788.2 127.2 C 786.7 125.7 786.7 123.2 788.2 121.6 L 824.2 85.6 C 825.7 84.1 828.2 84.1 829.8 85.6 L 952.3 208.1 C 953.8 209.6 953.8 212.1 952.3 213.7 L 916.3 249.7 C 914.8 251.2 912.3 251.2 910.7 249.7 L 788.2 127.2 Z"
                    fill="#c1924d"
                    stroke-width="1"/>
                <path
                    id="path_26"
                    d="M 839.1 165.1 C 837.8 163.8 837.9 161.4 839.5 159.9 L 862.5 136.9 C 864 135.4 866.4 135.2 867.7 136.5 L 901.3 170.1 C 902.6 171.4 902.5 173.8 900.9 175.3 L 877.9 198.3 C 876.4 199.8 874 200 872.7 198.7 L 839.1 165.1 Z"
                    fill="#eabb7d"
                    stroke-width="1"/>
                <g id="group_9">
                    <path
                        id="path_27"
                        d="M 918.1 207.4 C 916.9 206.2 916.9 204.2 918.1 203 C 919.3 201.8 921.3 201.8 922.5 203 C 923.7 204.2 923.7 206.2 922.5 207.4 C 921.3 208.6 919.3 208.6 918.1 207.4 Z M 905.6 220 C 904.4 218.8 904.4 216.8 905.6 215.6 C 906.8 214.4 908.8 214.4 910 215.6 C 911.2 216.8 911.2 218.8 910 220 C 908.7 221.2 906.8 221.2 905.6 220 Z M 903.1 205 C 901.9 203.8 901.9 201.8 903.1 200.6 C 904.3 199.4 906.3 199.4 907.5 200.6 C 908.7 201.8 908.7 203.8 907.5 205 C 906.3 206.2 904.3 206.2 903.1 205 Z"
                        fill="#000000"
                        stroke-width="1"/>
                    <g id="group_8">
                        <path
                            id="path_28"
                            d="M 822.3 127.9 C 823.5 129.1 823.5 131.1 822.3 132.3 C 821.1 133.5 819.1 133.5 817.9 132.3 C 816.7 131.1 816.7 129.1 817.9 127.9 C 819.1 126.7 821.1 126.7 822.3 127.9 Z M 834.8 115.4 C 836 116.6 836 118.6 834.8 119.8 C 833.6 121 831.6 121 830.4 119.8 C 829.2 118.6 829.2 116.6 830.4 115.4 C 831.6 114.2 833.6 114.2 834.8 115.4 Z M 837.3 130.4 C 838.5 131.6 838.5 133.6 837.3 134.8 C 836.1 136 834.1 136 832.9 134.8 C 831.7 133.6 831.7 131.6 832.9 130.4 C 834.1 129.2 836.1 129.2 837.3 130.4 Z"
                            fill="#000000"
                            stroke-width="1"/>
                    </g>
                </g>
            </g>
        </g>
        <g id="group_17">
            <path
                id="path_29"
                d="M 633.2 903.7 C 631.7 905.2 629.2 905.2 627.6 903.7 L 591.6 867.7 C 590.1 866.2 590.1 863.7 591.6 862.1 L 714.1 739.6 C 715.6 738.1 718.1 738.1 719.7 739.6 L 755.7 775.6 C 757.2 777.1 757.2 779.6 755.7 781.2 L 633.2 903.7 Z"
                fill="#af8043"
                stroke-width="1"/>
            <path
                id="path_30"
                d="M 671.1 852.8 C 669.8 854.1 667.4 854 665.9 852.4 L 642.9 829.4 C 641.4 827.9 641.2 825.5 642.5 824.2 L 676.1 790.6 C 677.4 789.3 679.8 789.4 681.3 791 L 704.3 814 C 705.8 815.5 706 817.9 704.7 819.2 L 671.1 852.8 Z"
                fill="#ff9a15"
                stroke-width="1"/>
            <g id="group_13">
                <path
                    id="path_31"
                    d="M 713.4 773.8 C 712.2 775 710.2 775 709 773.8 C 707.8 772.6 707.8 770.6 709 769.4 C 710.2 768.2 712.2 768.2 713.4 769.4 C 714.6 770.6 714.6 772.6 713.4 773.8 Z M 725.9 786.3 C 724.7 787.5 722.7 787.5 721.5 786.3 C 720.3 785.1 720.3 783.1 721.5 781.9 C 722.7 780.7 724.7 780.7 725.9 781.9 C 727.1 783.2 727.1 785.1 725.9 786.3 Z M 710.9 788.8 C 709.7 790 707.7 790 706.5 788.8 C 705.3 787.6 705.3 785.6 706.5 784.4 C 707.7 783.2 709.7 783.2 710.9 784.4 C 712.1 785.6 712.1 787.6 710.9 788.8 Z"
                    fill="#000000"
                    stroke-width="1"/>
                <g id="group_12">
                    <path
                        id="path_32"
                        d="M 633.9 869.6 C 635.1 868.4 637.1 868.4 638.3 869.6 C 639.5 870.8 639.5 872.8 638.3 874 C 637.1 875.2 635.1 875.2 633.9 874 C 632.7 872.8 632.7 870.8 633.9 869.6 Z M 621.4 857.1 C 622.6 855.9 624.6 855.9 625.8 857.1 C 627 858.3 627 860.3 625.8 861.5 C 624.6 862.7 622.6 862.7 621.4 861.5 C 620.2 860.2 620.2 858.3 621.4 857.1 Z M 636.4 854.6 C 637.6 853.4 639.6 853.4 640.8 854.6 C 642 855.8 642 857.8 640.8 859 C 639.6 860.2 637.6 860.2 636.4 859 C 635.2 857.8 635.2 855.8 636.4 854.6 Z"
                        fill="#000000"
                        stroke-width="1"/>
                </g>
            </g>
            <g id="group_16">
                <path
                    id="path_33"
                    d="M 591.7 781.2 C 590.2 779.7 590.2 777.2 591.7 775.6 L 627.7 739.6 C 629.2 738.1 631.7 738.1 633.3 739.6 L 755.8 862.1 C 757.3 863.6 757.3 866.1 755.8 867.7 L 719.8 903.7 C 718.3 905.2 715.8 905.2 714.2 903.7 L 591.7 781.2 Z"
                    fill="#c1924d"
                    stroke-width="1"/>
                <path
                    id="path_34"
                    d="M 642.6 819.2 C 641.3 817.9 641.4 815.5 643 814 L 666 791 C 667.5 789.5 669.9 789.3 671.2 790.6 L 704.8 824.2 C 706.1 825.5 706 827.9 704.4 829.4 L 681.4 852.4 C 679.9 853.9 677.5 854.1 676.2 852.8 L 642.6 819.2 Z"
                    fill="#ea7d00"
                    stroke-width="1"/>
                <g id="group_15">
                    <path
                        id="path_35"
                        d="M 721.6 861.5 C 720.4 860.3 720.4 858.3 721.6 857.1 C 722.8 855.9 724.8 855.9 726 857.1 C 727.2 858.3 727.2 860.3 726 861.5 C 724.7 862.7 722.8 862.7 721.6 861.5 Z M 709 874 C 707.8 872.8 707.8 870.8 709 869.6 C 710.2 868.4 712.2 868.4 713.4 869.6 C 714.6 870.8 714.6 872.8 713.4 874 C 712.2 875.2 710.2 875.2 709 874 Z M 706.6 859 C 705.4 857.8 705.4 855.8 706.6 854.6 C 707.8 853.4 709.8 853.4 711 854.6 C 712.2 855.8 712.2 857.8 711 859 C 709.7 860.2 707.8 860.2 706.6 859 Z"
                        fill="#000000"
                        stroke-width="1"/>
                    <g id="group_14">
                        <path
                            id="path_36"
                            d="M 625.7 781.9 C 626.9 783.1 626.9 785.1 625.7 786.3 C 624.5 787.5 622.5 787.5 621.3 786.3 C 620.1 785.1 620.1 783.1 621.3 781.9 C 622.6 780.8 624.5 780.8 625.7 781.9 Z M 638.3 769.4 C 639.5 770.6 639.5 772.6 638.3 773.8 C 637.1 775 635.1 775 633.9 773.8 C 632.7 772.6 632.7 770.6 633.9 769.4 C 635.1 768.2 637.1 768.2 638.3 769.4 Z M 640.7 784.4 C 641.9 785.6 641.9 787.6 640.7 788.8 C 639.5 790 637.5 790 636.3 788.8 C 635.1 787.6 635.1 785.6 636.3 784.4 C 637.6 783.2 639.5 783.2 640.7 784.4 Z"
                            fill="#000000"
                            stroke-width="1"/>
                    </g>
                </g>
            </g>
        </g>
        <g id="group_19">
            <path
                id="path_37"
                d="M 626.4 179.6 L 616.3 187.4 L 608 193.8 L 597.9 201.6 C 595.6 203.4 595.1 206.8 596.9 209.1 L 597 209.3 C 598.8 211.7 602.2 212.1 604.5 210.3 L 610.4 205.8 L 659.4 269.4 C 661.2 271.7 664.6 272.2 666.9 270.4 L 675.2 264 C 677.5 262.2 678 258.8 676.2 256.5 L 627.2 192.9 L 633.1 188.4 C 635.4 186.6 635.9 183.2 634.1 180.9 L 634 180.7 C 632.1 178.2 628.7 177.8 626.4 179.6 Z"
                fill="#16313d"
                stroke-width="1"/>
            <path
                id="path_38"
                d="M 680.8 235.2 L 637.9 268.3 C 633.9 271.4 633.2 277.1 636.2 281.1 C 639.3 285.1 645 285.8 649 282.7 L 652 280.4 C 652.3 280.9 652.5 281.3 652.9 281.8 L 768.2 431.2 C 771.8 435.9 778.6 436.8 783.2 433.1 L 803.4 417.5 C 808.1 413.9 809 407.1 805.3 402.5 L 690 253.2 C 689.7 252.8 689.3 252.4 688.9 252 L 691.9 249.7 C 695.9 246.6 696.6 240.9 693.5 236.9 C 690.5 232.9 684.7 232.2 680.8 235.2 Z"
                fill="#ededed"
                stroke-width="1"/>
            <path
                id="path_39"
                d="M 805.7 403.4 C 809 407.7 807.9 414.1 803.2 417.8 L 783.3 433.2 C 778.6 436.8 772.1 436.2 768.8 431.9 L 707.2 352 C 703.9 347.7 705 341.3 709.7 337.6 L 729.6 322.2 C 734.3 318.6 740.8 319.2 744.1 323.5 L 805.7 403.4 Z"
                fill="#c1924d"
                stroke-width="1"/>
            <g id="group_18">
                <path
                    id="path_40"
                    d="M 679.003 314.042 L 697.61 299.691 L 701.579 304.838 L 682.972 319.189 Z M 689.93 328.248 L 708.537 313.897 L 712.506 319.044 L 693.899 333.395 Z M 700.855 342.457 L 719.462 328.106 L 723.432 333.252 L 704.824 347.604 Z M 711.721 356.583 L 730.329 342.231 L 734.298 347.378 L 715.691 361.729 Z M 722.729 370.725 L 741.336 356.374 L 745.306 361.521 L 726.699 375.872 Z M 733.594 384.853 L 752.202 370.502 L 756.171 375.648 L 737.564 390 Z M 744.52 399.061 L 763.127 384.71 L 767.097 389.857 L 748.489 404.208 Z"
                    fill="#000000"
                    stroke-width="1"/>
            </g>
            <path
                id="path_41"
                d="M 807.6 421.4 C 809.5 423.8 809 427.3 806.6 429.2 L 793.5 439.3 C 791.1 441.2 787.6 440.7 785.7 438.3 C 783.8 435.9 784.3 432.4 786.7 430.5 L 799.8 420.4 C 802.2 418.5 805.7 418.9 807.6 421.4 Z"
                fill="#c1c1c1"
                stroke-width="1"/>
            <path
                id="path_42"
                d="M 820.6 448.9 C 822.4 451.2 822 454.6 819.6 456.4 L 816.4 458.9 C 814.1 460.7 810.7 460.3 808.9 457.9 L 790.6 434.2 C 788.8 431.9 789.2 428.5 791.6 426.7 L 794.8 424.2 C 797.1 422.4 800.5 422.8 802.3 425.2 L 820.6 448.9 Z"
                fill="#c1c1c1"
                stroke-width="1"/>
            <path
                id="path_43"
                d="M 869.7 524.6 C 869.1 525.1 868.3 524.9 867.8 524.4 L 817 458.5 C 816.5 457.9 816.7 457.1 817.2 456.6 C 817.8 456.1 818.6 456.3 819.1 456.8 L 869.9 522.7 C 870.4 523.3 870.3 524.1 869.7 524.6 Z"
                fill="#16313d"
                stroke-width="1"/>
        </g>
        <g id="group_21">
            <path
                id="path_44"
                d="M 46.4 476.2 C 25.5 419.4 57.7 373.7 58.1 373.2 C 60.3 370.2 59.6 366.1 56.6 363.9 C 53.6 361.7 49.5 362.4 47.3 365.4 C 45.8 367.5 10.4 417.2 34 481 C 34.1 481.1 34.1 481.3 34.2 481.4 L 76.1 574.7 L 88.2 569.1 L 46.4 476.2 Z"
                fill="#fd5a39"
                stroke-width="1"/>
            <path
                id="path_45"
                d="M 223.4 659.7 C 146.8 685 110.6 618.8 109.3 616.3 L 88.1 569.2 L 76 574.8 L 97.3 622.1 C 97.7 622.9 136.8 695 217.2 675.2 C 220.6 674.4 224 673.4 227.5 672.2 C 231 671 232.9 667.3 231.7 663.8 C 230.6 660.4 226.9 658.5 223.4 659.7 Z M 64.2 367.9 C 67.1 371.3 66.7 376.5 63.3 379.4 C 59.9 382.3 54.7 381.9 51.8 378.5 L 44.5 369.9 C 41.6 366.5 42 361.3 45.4 358.4 C 48.8 355.5 54 355.9 56.9 359.3 L 64.2 367.9 Z"
                fill="#4a7f91"
                stroke-width="1"/>
            <path
                id="path_46"
                d="M 300.6 413.7 C 292.8 353.7 243.1 328.2 242.5 327.9 C 239.2 326.3 237.9 322.3 239.5 319 C 241.1 315.7 245.1 314.4 248.4 316 C 250.7 317.1 305.1 344.8 313.8 412.3 L 313.8 412.8 L 319.9 515 L 306.6 515.6 L 300.6 413.7 Z"
                fill="#fd5a39"
                stroke-width="1"/>
            <path
                id="path_47"
                d="M 228.7 658.3 C 308.3 645.2 309.7 569.8 309.7 567 L 306.6 515.4 L 319.9 514.8 L 323 566.6 C 323 567.5 321.8 649.5 241.3 669.3 C 237.9 670.1 234.4 670.8 230.8 671.4 C 227.2 672 223.8 669.5 223.2 665.9 C 222.6 662.4 225 659 228.7 658.3 Z M 234.6 326 C 233.6 330.4 236.3 334.8 240.7 335.8 C 245.1 336.8 249.5 334.1 250.5 329.7 L 253 318.7 C 254 314.3 251.3 309.9 246.9 308.9 C 242.5 307.9 238.1 310.6 237.1 315 L 234.6 326 Z"
                fill="#4a7f91"
                stroke-width="1"/>
            <path
                id="path_48"
                d="M 430.4 568.6 L 390.4 578.4 C 363.1 585.1 346.3 612.8 353 640.1 L 353.4 641.8 L 396.4 816.8 L 396.8 818.5 C 401.8 838.7 389.4 859.2 369.2 864.1 L 329.2 873.9 C 309 878.9 288.5 866.5 283.6 846.3 L 240.2 669.7 L 227.3 672.9 L 270.7 849.5 C 277.4 876.8 305.1 893.6 332.4 886.9 L 372.4 877.1 C 399.7 870.4 416.5 842.7 409.8 815.4 L 409.4 813.7 L 366.4 638.7 L 366 637 C 361 616.8 373.4 596.3 393.6 591.4 L 433.6 581.6 C 453.8 576.6 474.3 589 479.2 609.2 L 499.7 692.5 L 512.6 689.3 L 492.1 606 C 485.4 578.7 457.7 561.9 430.4 568.6 Z"
                fill="#4a7f91"
                stroke-width="1"/>
            <path
                id="path_49"
                d="M 257.6 648.4 L 239 653 L 234.4 634.4 C 234 632.9 232.6 632 231.1 632.4 L 217.8 635.7 C 216.3 636.1 215.4 637.5 215.8 639 L 220.4 657.6 L 201.8 662.2 C 200.3 662.6 199.4 664 199.8 665.5 L 203.1 678.8 C 203.5 680.3 204.9 681.2 206.4 680.8 L 225 676.2 L 229.6 694.8 C 230 696.3 231.5 697.2 232.9 696.8 L 246.2 693.5 C 247.7 693.1 248.6 691.7 248.2 690.2 L 243.6 671.6 L 262.2 667 C 263.7 666.6 264.6 665.2 264.2 663.7 L 260.9 650.4 C 260.6 648.9 259.1 648 257.6 648.4 Z"
                fill="#fd5a39"
                stroke-width="1"/>
            <g id="group_20">
                <path
                    id="path_50"
                    d="M 538.4 697 C 542.3 713.1 532.5 729.3 516.5 733.2 C 500.4 737.1 484.2 727.3 480.3 711.3 C 476.4 695.2 486.2 679 502.2 675.1 C 518.3 671.1 534.5 681 538.4 697 Z"
                    fill="#d1d1d1"
                    stroke-width="1"/>
                <path
                    id="path_51"
                    d="M 521.8 701.1 C 523.5 708 519.3 714.9 512.4 716.6 C 505.5 718.3 498.6 714.1 496.9 707.2 C 495.2 700.3 499.4 693.4 506.3 691.7 C 513.2 690.1 520.1 694.3 521.8 701.1 Z"
                    fill="#34596b"
                    stroke-width="1"/>
            </g>
        </g>
        <g id="group_23">
            <path
                id="path_52"
                d="M 597.3 368.7 C 598.3 371.1 597.2 373.9 594.8 374.9 C 592.4 375.9 589.6 374.8 588.6 372.4 L 562.2 309.9 C 561.2 307.5 562.3 304.7 564.7 303.7 C 567.1 302.7 569.9 303.8 570.9 306.2 L 597.3 368.7 Z"
                fill="#999999"
                stroke-width="1"/>
            <path
                id="path_53"
                d="M 729 666.4 C 730.4 669.8 728.8 673.7 725.5 675.1 L 720.3 677.3 C 716.9 678.7 713 677.1 711.6 673.8 L 581.4 365.5 C 580 362.1 581.6 358.2 584.9 356.8 L 590.1 354.6 C 593.5 353.2 597.4 354.8 598.8 358.1 L 729 666.4 Z"
                fill="#ededed"
                stroke-width="1"/>
            <g id="group_22">
                <path
                    id="path_54"
                    d="M 609.4 416.2 L 604.2 418.4 C 603.7 418.6 603 418.1 602.6 417.2 C 602.2 416.4 602.4 415.5 602.9 415.3 L 608.1 413.1 C 608.6 412.9 609.3 413.4 609.7 414.3 C 610 415.2 609.9 416 609.4 416.2 Z M 614.2 427.7 L 609 429.9 C 608.5 430.1 607.8 429.6 607.4 428.7 C 607 427.9 607.2 427 607.7 426.8 L 612.9 424.6 C 613.4 424.4 614.1 424.9 614.5 425.8 C 614.8 426.6 614.7 427.4 614.2 427.7 Z M 619 439.1 L 613.8 441.3 C 613.3 441.5 612.6 441 612.2 440.1 C 611.8 439.3 612 438.4 612.5 438.2 L 617.7 436 C 618.2 435.8 618.9 436.3 619.3 437.2 C 619.6 438 619.5 438.9 619 439.1 Z M 623.8 450.5 L 618.6 452.7 C 618.1 452.9 617.4 452.4 617 451.5 C 616.6 450.7 616.8 449.8 617.3 449.6 L 622.5 447.4 C 623 447.2 623.7 447.7 624.1 448.6 C 624.4 449.4 624.3 450.3 623.8 450.5 Z M 628.7 461.9 L 623.5 464.1 C 623 464.3 622.3 463.8 621.9 462.9 C 621.5 462.1 621.7 461.2 622.2 461 L 627.4 458.8 C 627.9 458.6 628.6 459.1 629 460 C 629.3 460.8 629.2 461.7 628.7 461.9 Z M 633.5 473.3 L 628.3 475.5 C 627.8 475.7 627.1 475.2 626.7 474.3 C 626.3 473.5 626.5 472.6 627 472.4 L 632.2 470.2 C 632.7 470 633.4 470.5 633.8 471.4 C 634.1 472.3 634 473.1 633.5 473.3 Z M 638.3 484.8 L 633.1 487 C 632.6 487.2 631.9 486.7 631.5 485.8 C 631.1 485 631.3 484.1 631.8 483.9 L 637 481.7 C 637.5 481.5 638.2 482 638.6 482.8 C 638.9 483.7 638.8 484.6 638.3 484.8 Z M 643.1 496.2 L 637.9 498.4 C 637.4 498.6 636.7 498.1 636.3 497.2 C 635.9 496.4 636.1 495.5 636.6 495.3 L 641.8 493.1 C 642.3 492.9 643 493.4 643.4 494.2 C 643.7 495.1 643.6 496 643.1 496.2 Z M 647.9 507.6 L 642.7 509.8 C 642.2 510 641.5 509.5 641.1 508.6 C 640.7 507.8 640.9 506.9 641.4 506.7 L 646.6 504.5 C 647.1 504.3 647.8 504.8 648.2 505.7 C 648.6 506.5 648.4 507.4 647.9 507.6 Z M 652.8 519 L 647.6 521.2 C 647.1 521.4 646.4 520.9 646 520 C 645.6 519.2 645.8 518.3 646.3 518.1 L 651.5 515.9 C 652 515.7 652.7 516.2 653.1 517.1 C 653.4 518 653.3 518.8 652.8 519 Z M 657.6 530.4 L 652.4 532.6 C 651.9 532.8 651.2 532.3 650.8 531.4 C 650.4 530.6 650.6 529.7 651.1 529.5 L 656.3 527.3 C 656.8 527.1 657.5 527.6 657.9 528.4 C 658.2 529.4 658.1 530.2 657.6 530.4 Z M 662.4 541.9 L 657.2 544.1 C 656.7 544.3 656 543.8 655.6 542.9 C 655.2 542.1 655.4 541.2 655.9 541 L 661.1 538.8 C 661.6 538.6 662.3 539.1 662.7 540 C 663 540.8 662.9 541.6 662.4 541.9 Z M 667.2 553.3 L 662 555.5 C 661.5 555.7 660.8 555.2 660.4 554.3 C 660 553.5 660.2 552.6 660.7 552.4 L 665.9 550.2 C 666.4 550 667.1 550.5 667.5 551.3 C 667.8 552.2 667.7 553.1 667.2 553.3 Z M 672.1 564.7 L 666.9 566.9 C 666.4 567.1 665.7 566.6 665.3 565.7 C 664.9 564.9 665.1 564 665.6 563.8 L 670.8 561.6 C 671.3 561.4 672 561.9 672.4 562.8 C 672.7 563.6 672.6 564.5 672.1 564.7 Z M 676.9 576.1 L 671.7 578.3 C 671.2 578.5 670.5 578 670.1 577.1 C 669.7 576.3 669.9 575.4 670.4 575.2 L 675.6 573 C 676.1 572.8 676.8 573.3 677.2 574.1 C 677.5 575.1 677.4 575.9 676.9 576.1 Z M 681.7 587.5 L 676.5 589.7 C 676 589.9 675.3 589.4 674.9 588.5 C 674.5 587.7 674.7 586.8 675.2 586.6 L 680.4 584.4 C 680.9 584.2 681.6 584.7 682 585.6 C 682.3 586.5 682.2 587.3 681.7 587.5 Z M 686.5 599 L 681.3 601.2 C 680.8 601.4 680.1 600.9 679.7 600 C 679.3 599.2 679.5 598.3 680 598.1 L 685.2 595.9 C 685.7 595.7 686.4 596.2 686.8 597.1 C 687.1 597.9 687 598.8 686.5 599 Z M 691.3 610.4 L 686.1 612.6 C 685.6 612.8 684.9 612.3 684.5 611.4 C 684.1 610.6 684.3 609.7 684.8 609.5 L 690 607.3 C 690.5 607.1 691.2 607.6 691.6 608.5 C 692 609.3 691.8 610.2 691.3 610.4 Z M 696.2 621.8 L 691 624 C 690.5 624.2 689.8 623.7 689.4 622.8 C 689 622 689.2 621.1 689.7 620.9 L 694.9 618.7 C 695.4 618.5 696.1 619 696.5 619.8 C 696.8 620.7 696.7 621.6 696.2 621.8 Z M 701 633.2 L 695.8 635.4 C 695.3 635.6 694.6 635.1 694.2 634.2 C 693.8 633.4 694 632.5 694.5 632.3 L 699.7 630.1 C 700.2 629.9 700.9 630.4 701.3 631.3 C 701.6 632.2 701.5 633 701 633.2 Z"
                    fill="#000000"
                    stroke-width="1"/>
            </g>
        </g>
        <g id="group_27">
            <path
                id="path_55"
                d="M 455.5 376.7 C 448.9 376.7 443.5 382.1 443.5 388.7 L 443.5 392.2 C 443.5 398.8 448.9 404.2 455.5 404.2 L 472.5 404.2 L 472.5 376.6 L 455.5 376.6 Z"
                fill="#f8f8f8"
                stroke-width="1"/>
            <path
                id="path_56"
                d="M 472.5 404.3 L 489.5 404.3 C 496.1 404.3 501.5 398.9 501.5 392.3 L 501.5 388.8 C 501.5 382.2 496.1 376.8 489.5 376.8 L 472.5 376.8 L 472.5 404.3 Z"
                fill="#fd5a39"
                stroke-width="1"/>
            <path
                id="path_57"
                d="M 407.6 392.2 C 407.6 398.8 413 404.2 419.6 404.2 L 423.1 404.2 C 429.7 404.2 435.1 398.8 435.1 392.2 L 435.1 375.2 L 407.5 375.2 L 407.5 392.2 Z"
                fill="#f8f8f8"
                stroke-width="1"/>
            <path
                id="path_58"
                d="M 435.2 375.2 L 435.2 358.1 C 435.2 351.5 429.8 346.1 423.2 346.1 L 419.7 346.1 C 413.1 346.1 407.7 351.5 407.7 358.1 L 407.7 375.2 L 435.2 375.2 Z"
                fill="#fd5a39"
                stroke-width="1"/>
            <path
                id="path_59"
                d="M 547.3 375.7 C 541.8 372 534.3 373.5 530.6 379 L 528.6 381.9 C 524.9 387.4 526.4 394.9 531.9 398.6 L 546 408.1 L 561.4 385.2 L 547.3 375.7 Z"
                fill="#f8f8f8"
                stroke-width="1"/>
            <path
                id="path_60"
                d="M 546 408.1 L 560.2 417.6 C 565.7 421.3 573.2 419.8 576.9 414.3 L 578.9 411.4 C 582.6 405.9 581.1 398.4 575.6 394.7 L 561.4 385.2 L 546 408.1 Z"
                fill="#fd5a39"
                stroke-width="1"/>
            <path
                id="path_61"
                d="M 444.2 469.3 C 448.3 474.5 455.9 475.3 461.1 471.2 L 463.8 469 C 469 464.8 469.8 457.3 465.7 452.1 L 455.1 438.8 L 433.6 456 L 444.2 469.3 Z"
                fill="#f8f8f8"
                stroke-width="1"/>
            <path
                id="path_62"
                d="M 455.1 438.8 L 444.5 425.5 C 440.4 420.3 432.8 419.5 427.6 423.6 L 424.9 425.8 C 419.7 429.9 418.9 437.5 423 442.7 L 433.6 456 L 455.1 438.8 Z"
                fill="#fd5a39"
                stroke-width="1"/>
            <g id="group_24">
                <path
                    id="path_63"
                    d="M 489.4 419.6 C 482.8 419.6 477.4 425 477.4 431.6 L 477.4 435.1 C 477.4 441.7 482.8 447.1 489.4 447.1 L 506.4 447.1 L 506.4 419.5 L 489.4 419.5 Z"
                    fill="#f8f8f8"
                    stroke-width="1"/>
                <path
                    id="path_64"
                    d="M 506.4 447.2 L 523.4 447.2 C 530 447.2 535.4 441.8 535.4 435.2 L 535.4 431.7 C 535.4 425.1 530 419.7 523.4 419.7 L 506.4 419.7 L 506.4 447.2 Z"
                    fill="#fd5a39"
                    stroke-width="1"/>
            </g>
            <g id="group_25">
                <path
                    id="path_65"
                    d="M 480.6 313.5 C 475.1 309.8 467.6 311.3 463.9 316.8 L 461.9 319.7 C 458.2 325.2 459.7 332.7 465.2 336.4 L 479.3 345.9 L 494.7 323 L 480.6 313.5 Z"
                    fill="#f8f8f8"
                    stroke-width="1"/>
                <path
                    id="path_66"
                    d="M 479.4 345.8 L 493.6 355.3 C 499.1 359 506.6 357.5 510.3 352 L 512.3 349.1 C 516 343.6 514.5 336.1 509 332.4 L 494.8 322.9 L 479.4 345.8 Z"
                    fill="#fd5a39"
                    stroke-width="1"/>
            </g>
            <g id="group_26">
                <path
                    id="path_67"
                    d="M 381.3 433.8 C 385.4 439 393 439.8 398.2 435.7 L 400.9 433.5 C 406.1 429.3 406.9 421.8 402.8 416.6 L 392.2 403.3 L 370.7 420.5 L 381.3 433.8 Z"
                    fill="#f8f8f8"
                    stroke-width="1"/>
                <path
                    id="path_68"
                    d="M 392.2 403.3 L 381.6 390 C 377.5 384.8 369.9 384 364.7 388.1 L 362 390.3 C 356.8 394.4 356 402 360.1 407.2 L 370.7 420.5 L 392.2 403.3 Z"
                    fill="#fd5a39"
                    stroke-width="1"/>
            </g>
        </g>
        <g id="group_31">
            <path
                id="path_69"
                d="M 164.2 136.2 C 157.6 136.2 152.2 141.6 152.2 148.2 L 152.2 151.7 C 152.2 158.3 157.6 163.7 164.2 163.7 L 181.2 163.7 L 181.2 136.1 L 164.2 136.1 Z"
                fill="#f8f8f8"
                stroke-width="1"/>
            <path
                id="path_70"
                d="M 181.3 163.7 L 198.3 163.7 C 204.9 163.7 210.3 158.3 210.3 151.7 L 210.3 148.2 C 210.3 141.6 204.9 136.2 198.3 136.2 L 181.3 136.2 L 181.3 163.7 Z"
                fill="#fd5a39"
                stroke-width="1"/>
            <path
                id="path_71"
                d="M 116.3 151.7 C 116.3 158.3 121.7 163.7 128.3 163.7 L 131.8 163.7 C 138.4 163.7 143.8 158.3 143.8 151.7 L 143.8 134.7 L 116.2 134.7 L 116.2 151.7 Z"
                fill="#f8f8f8"
                stroke-width="1"/>
            <path
                id="path_72"
                d="M 143.9 134.7 L 143.9 117.6 C 143.9 111 138.5 105.6 131.9 105.6 L 128.4 105.6 C 121.8 105.6 116.4 111 116.4 117.6 L 116.4 134.7 L 143.9 134.7 Z"
                fill="#fd5a39"
                stroke-width="1"/>
            <path
                id="path_73"
                d="M 256 135.2 C 250.5 131.5 243 133 239.3 138.5 L 237.3 141.4 C 233.6 146.9 235.1 154.4 240.6 158.1 L 254.7 167.6 L 270.1 144.7 L 256 135.2 Z"
                fill="#f8f8f8"
                stroke-width="1"/>
            <path
                id="path_74"
                d="M 254.8 167.6 L 269 177.1 C 274.5 180.8 282 179.3 285.7 173.8 L 287.7 170.9 C 291.4 165.4 289.9 157.9 284.4 154.2 L 270.2 144.7 L 254.8 167.6 Z"
                fill="#fd5a39"
                stroke-width="1"/>
            <path
                id="path_75"
                d="M 153 228.8 C 157.1 234 164.7 234.8 169.9 230.7 L 172.6 228.5 C 177.8 224.3 178.6 216.8 174.5 211.6 L 163.9 198.3 L 142.4 215.5 L 153 228.8 Z"
                fill="#f8f8f8"
                stroke-width="1"/>
            <path
                id="path_76"
                d="M 163.9 198.3 L 153.3 185 C 149.2 179.8 141.6 179 136.4 183.1 L 133.7 185.3 C 128.5 189.4 127.7 197 131.8 202.2 L 142.4 215.5 L 163.9 198.3 Z"
                fill="#fd5a39"
                stroke-width="1"/>
            <g id="group_28">
                <path
                    id="path_77"
                    d="M 198.1 179.1 C 191.5 179.1 186.1 184.5 186.1 191.1 L 186.1 194.6 C 186.1 201.2 191.5 206.6 198.1 206.6 L 215.1 206.6 L 215.1 179 L 198.1 179 Z"
                    fill="#f8f8f8"
                    stroke-width="1"/>
                <path
                    id="path_78"
                    d="M 215.1 206.7 L 232.1 206.7 C 238.7 206.7 244.1 201.3 244.1 194.7 L 244.1 191.2 C 244.1 184.6 238.7 179.2 232.1 179.2 L 215.1 179.2 L 215.1 206.7 Z"
                    fill="#fd5a39"
                    stroke-width="1"/>
            </g>
            <g id="group_29">
                <path
                    id="path_79"
                    d="M 189.3 72.9 C 183.8 69.2 176.3 70.7 172.6 76.2 L 170.6 79.1 C 166.9 84.6 168.4 92.1 173.9 95.8 L 188 105.3 L 203.4 82.4 L 189.3 72.9 Z"
                    fill="#f8f8f8"
                    stroke-width="1"/>
                <path
                    id="path_80"
                    d="M 188.1 105.3 L 202.3 114.8 C 207.8 118.5 215.3 117 219 111.5 L 221 108.6 C 224.7 103.1 223.2 95.6 217.7 91.9 L 203.5 82.4 L 188.1 105.3 Z"
                    fill="#fd5a39"
                    stroke-width="1"/>
            </g>
            <g id="group_30">
                <path
                    id="path_81"
                    d="M 90.1 193.3 C 94.2 198.5 101.8 199.3 107 195.2 L 109.7 193 C 114.9 188.8 115.7 181.3 111.6 176.1 L 101 162.7 L 79.4 180 L 90.1 193.3 Z"
                    fill="#f8f8f8"
                    stroke-width="1"/>
                <path
                    id="path_82"
                    d="M 101 162.7 L 90.4 149.4 C 86.3 144.2 78.7 143.4 73.5 147.5 L 70.8 149.7 C 65.6 153.8 64.8 161.4 68.9 166.6 L 79.4 180 L 101 162.7 Z"
                    fill="#fd5a39"
                    stroke-width="1"/>
            </g>
        </g>
    </g>
</svg>
