<svg class="animated" id="freepik_stories-working-late" xmlns="http://www.w3.org/2000/svg" viewBox="0 0 500 500" version="1.1" xmlns:xlink="http://www.w3.org/1999/xlink" xmlns:svgjs="http://svgjs.com/svgjs"><style>svg#freepik_stories-working-late:not(.animated) .animable {opacity: 0;}svg#freepik_stories-working-late.animated #freepik--background-complete--inject-134 {animation: 1s 1 forwards cubic-bezier(.36,-0.01,.5,1.38) zoomIn,1.5s Infinite  linear floating;animation-delay: 0s,1s;}svg#freepik_stories-working-late.animated #freepik--Shadow--inject-134 {animation: 1s 1 forwards cubic-bezier(.36,-0.01,.5,1.38) zoomOut;animation-delay: 0s;}svg#freepik_stories-working-late.animated #freepik--Floor--inject-134 {animation: 1s 1 forwards cubic-bezier(.36,-0.01,.5,1.38) slideRight;animation-delay: 0s;}svg#freepik_stories-working-late.animated #freepik--Chair--inject-134 {animation: 1s 1 forwards cubic-bezier(.36,-0.01,.5,1.38) slideLeft;animation-delay: 0s;}svg#freepik_stories-working-late.animated #freepik--Character--inject-134 {animation: 1s 1 forwards cubic-bezier(.36,-0.01,.5,1.38) slideLeft,1.5s Infinite  linear wind;animation-delay: 0s,1s;}svg#freepik_stories-working-late.animated #freepik--Plant--inject-134 {animation: 1s 1 forwards cubic-bezier(.36,-0.01,.5,1.38) slideUp;animation-delay: 0s;}svg#freepik_stories-working-late.animated #freepik--Desk--inject-134 {animation: 1s 1 forwards cubic-bezier(.36,-0.01,.5,1.38) lightSpeedLeft;animation-delay: 0s;}svg#freepik_stories-working-late.animated #freepik--Device--inject-134 {animation: 1s 1 forwards cubic-bezier(.36,-0.01,.5,1.38) lightSpeedLeft;animation-delay: 0s;}svg#freepik_stories-working-late.animated #freepik--Clock--inject-134 {animation: 1s 1 forwards cubic-bezier(.36,-0.01,.5,1.38) slideUp,1.5s Infinite  linear heartbeat;animation-delay: 0s,1s;}svg#freepik_stories-working-late.animated #freepik--Sheets--inject-134 {animation: 1s 1 forwards cubic-bezier(.36,-0.01,.5,1.38) slideLeft;animation-delay: 0s;}svg#freepik_stories-working-late.animated #freepik--Mug--inject-134 {animation: 1s 1 forwards cubic-bezier(.36,-0.01,.5,1.38) lightSpeedLeft;animation-delay: 0s;}svg#freepik_stories-working-late.animated #freepik--trash-bin--inject-134 {animation: 1s 1 forwards cubic-bezier(.36,-0.01,.5,1.38) slideLeft;animation-delay: 0s;}            @keyframes zoomIn {                0% {                    opacity: 0;                    transform: scale(0.5);                }                100% {                    opacity: 1;                    transform: scale(1);                }            }                    @keyframes floating {                0% {                    opacity: 1;                    transform: translateY(0px);                }                50% {                    transform: translateY(-10px);                }                100% {                    opacity: 1;                    transform: translateY(0px);                }            }                    @keyframes zoomOut {                0% {                    opacity: 0;                    transform: scale(1.5);                }                100% {                    opacity: 1;                    transform: scale(1);                }            }                    @keyframes slideRight {                0% {                    opacity: 0;                    transform: translateX(30px);                }                100% {                    opacity: 1;                    transform: translateX(0);                }            }                    @keyframes slideLeft {                0% {                    opacity: 0;                    transform: translateX(-30px);                }                100% {                    opacity: 1;                    transform: translateX(0);                }            }                    @keyframes wind {                0% {                    transform: rotate( 0deg );                }                25% {                    transform: rotate( 1deg );                }                75% {                    transform: rotate( -1deg );                }            }                    @keyframes slideUp {                0% {                    opacity: 0;                    transform: translateY(30px);                }                100% {                    opacity: 1;                    transform: inherit;                }            }                    @keyframes lightSpeedLeft {              from {                transform: translate3d(-50%, 0, 0) skewX(20deg);                opacity: 0;              }              60% {                transform: skewX(-10deg);                opacity: 1;              }              80% {                transform: skewX(2deg);              }              to {                opacity: 1;                transform: translate3d(0, 0, 0);              }            }                    @keyframes heartbeat {                0% {                    transform: scale(1);                }                10% {                    transform: scale(1.1);                }                30% {                    transform: scale(1);                }                40% {                    transform: scale(1);                }                50% {                    transform: scale(1.1);                }                60% {                    transform: scale(1);                }                100% {                    transform: scale(1);                }            }        </style><g id="freepik--background-complete--inject-134" class="animable animator-active" style="transform-origin: 249.885px 207.745px;"><path d="M77.59,312.42l-13.12.28-6.66.11c-2.23.05-4.47,0-6.7.05h-.44v-.45l-.06-11.19v-.5h.5l13.24.06c4.42,0,8.83.11,13.24.17h.28v.27c0,1.9-.09,3.79-.13,5.65Zm0,0-.14-5.65c0-1.87-.11-3.71-.13-5.54l.27.27c-4.41.05-8.82.16-13.24.17l-13.24.06.5-.5,0,11.19-.45-.45c2.18,0,4.36,0,6.55.06l6.58.11Z" style="fill: rgb(235, 235, 235); transform-origin: 64.24px 306.79px;" id="el8idpgg3vvd5" class="animable"></path><path d="M62.82,326.53l-13.12.28-6.66.11c-2.23.05-4.47,0-6.7.05H35.9v-.45l-.06-11.19v-.5h.5l13.24.06c4.41,0,8.83.11,13.24.17h.28v.27c0,1.9-.08,3.79-.13,5.65Zm0,0-.14-5.66c0-1.86-.11-3.7-.13-5.53l.27.27c-4.41.05-8.83.16-13.24.17l-13.24.06.5-.5-.05,11.19-.45-.45c2.18,0,4.36,0,6.55.06l6.58.11Z" style="fill: rgb(235, 235, 235); transform-origin: 49.47px 320.9px;" id="el6c2jzlt5v18" class="animable"></path><path d="M327.94,243.61l-13.12.28-6.66.11c-2.23.05-4.46,0-6.7.05H301v-.45L301,232.42v-.5h.5l13.24.06c4.42,0,8.83.11,13.24.17h.28v.27c0,1.9-.09,3.78-.13,5.65Zm0,0L327.8,238c0-1.86-.11-3.7-.13-5.53l.27.27c-4.41.05-8.82.16-13.24.16l-13.24.07.5-.5,0,11.19-.45-.45c2.19,0,4.36,0,6.55.06l6.58.11Z" style="fill: rgb(235, 235, 235); transform-origin: 314.63px 237.985px;" id="el4ibahwc65yk" class="animable"></path><path d="M313.17,257.72l-13.12.28-6.66.11c-2.23.05-4.47,0-6.7.05h-.44v-.45l-.06-11.19V246h.5l13.24.06c4.42,0,8.83.11,13.24.16h.28v.27c0,1.9-.09,3.78-.14,5.65Zm0,0-.14-5.66c0-1.86-.11-3.7-.13-5.53l.27.27c-4.41,0-8.82.16-13.24.16l-13.24.07.5-.5-.05,11.19-.45-.45c2.18,0,4.36,0,6.55.06l6.58.11Z" style="fill: rgb(235, 235, 235); transform-origin: 299.82px 252.08px;" id="elqlp5u02bwd" class="animable"></path><path d="M298.46,243.61l-13.13.28-6.66.11c-2.22.05-4.46,0-6.69.05h-.45v-.45l0-11.19v-.5h.5l13.24.06c4.41,0,8.83.11,13.24.17h.27v.27c0,1.9-.08,3.78-.13,5.65Zm0,0-.14-5.66c-.05-1.86-.12-3.7-.13-5.53l.27.27c-4.41.05-8.83.16-13.24.16l-13.24.07.5-.5-.06,11.19-.44-.45c2.18,0,4.36,0,6.54.06l6.58.11Z" style="fill: rgb(235, 235, 235); transform-origin: 285.155px 237.98px;" id="eldf1hfd7jvb" class="animable"></path><path d="M463.66,326.53l-13.13.28-6.66.11c-2.22.05-4.46,0-6.69.05h-.45v-.45l-.05-11.19v-.5h.5l13.24.06c4.41,0,8.83.11,13.24.17h.27v.27c0,1.9-.08,3.79-.13,5.65Zm0,0-.14-5.66c0-1.86-.12-3.7-.13-5.53l.27.27c-4.41.05-8.83.16-13.24.17l-13.24.06.5-.5-.06,11.19-.44-.45c2.18,0,4.36,0,6.54.06l6.58.11Z" style="fill: rgb(235, 235, 235); transform-origin: 450.305px 320.9px;" id="elsl1im1cl2c" class="animable"></path><path d="M448.89,52.85l-13.13.28-6.66.11c-2.22,0-4.46,0-6.69.06H422v-.45l0-11.19v-.5h.51l13.24.06c4.41,0,8.82.12,13.24.17h.27v.27c0,1.9-.09,3.79-.13,5.65Zm0,0-.14-5.65c-.05-1.87-.12-3.71-.14-5.54l.28.27c-4.42,0-8.83.16-13.24.17l-13.24.06.5-.5-.06,11.19-.44-.45c2.18,0,4.35,0,6.54.06l6.58.11Z" style="fill: rgb(235, 235, 235); transform-origin: 435.63px 47.23px;" id="eluaj4wvx9hvf" class="animable"></path><path d="M463.66,67l-13.13.28-6.66.11c-2.22.05-4.46,0-6.69.05h-.45V67l-.05-11.19v-.5h.5l13.24.06c4.41,0,8.83.12,13.24.17h.27v.27c0,1.9-.08,3.79-.13,5.65Zm0,0-.14-5.65c0-1.87-.12-3.71-.13-5.54l.27.27c-4.41.05-8.83.16-13.24.17l-13.24.06.5-.5L437.62,67l-.44-.45c2.18,0,4.36,0,6.54.06l6.58.11Z" style="fill: rgb(235, 235, 235); transform-origin: 450.305px 61.375px;" id="elnqzjat2667e" class="animable"></path><path d="M77.59,52.85l-13.12.28-6.66.11c-2.23,0-4.47,0-6.7.06h-.44v-.45l-.06-11.19v-.5h.5l13.24.06c4.42,0,8.83.12,13.24.17h.28v.27c0,1.9-.09,3.79-.13,5.65Zm0,0-.14-5.65c0-1.87-.11-3.71-.13-5.54l.27.27c-4.41,0-8.82.16-13.24.17l-13.24.06.5-.5,0,11.19-.45-.45c2.18,0,4.36,0,6.55.06l6.58.11Z" style="fill: rgb(235, 235, 235); transform-origin: 64.24px 47.23px;" id="eleyh5q1usrv" class="animable"></path><rect x="58.27" y="95.18" width="57.42" height="37.49" style="fill: rgb(219, 219, 219); transform-origin: 86.98px 113.925px;" id="elvgvyli3nfgi" class="animable"></rect><rect x="58.27" y="134.87" width="57.42" height="37.49" style="fill: rgb(235, 235, 235); transform-origin: 86.98px 153.615px;" id="elmaoexish43e" class="animable"></rect><rect x="63.96" y="142.07" width="5.58" height="5.58" style="fill: rgb(255, 255, 255); transform-origin: 66.75px 144.86px;" id="elqtgvuq45are" class="animable"></rect><rect x="70.7" y="142.07" width="5.58" height="5.58" style="fill: rgb(219, 219, 219); transform-origin: 73.49px 144.86px;" id="eloej12wv5ss" class="animable"></rect><rect x="77.45" y="142.07" width="5.58" height="5.58" style="fill: rgb(255, 255, 255); transform-origin: 80.24px 144.86px;" id="eltoxynkw8sb" class="animable"></rect><rect x="84.19" y="142.07" width="5.58" height="5.58" style="fill: rgb(255, 255, 255); transform-origin: 86.98px 144.86px;" id="el7f7efueab6w" class="animable"></rect><rect x="90.94" y="142.07" width="5.58" height="5.58" style="fill: rgb(255, 255, 255); transform-origin: 93.73px 144.86px;" id="elz8nl1vpvj7" class="animable"></rect><rect x="97.68" y="142.07" width="5.58" height="5.58" style="fill: rgb(255, 255, 255); transform-origin: 100.47px 144.86px;" id="eler6jdg2tdy8" class="animable"></rect><rect x="104.43" y="142.07" width="5.58" height="5.58" style="fill: rgb(255, 255, 255); transform-origin: 107.22px 144.86px;" id="elkvzoeu59wem" class="animable"></rect><rect x="63.96" y="148.87" width="5.58" height="5.58" style="fill: rgb(255, 255, 255); transform-origin: 66.75px 151.66px;" id="el2e4c2iw57or" class="animable"></rect><rect x="70.7" y="148.87" width="5.58" height="5.58" style="fill: rgb(255, 255, 255); transform-origin: 73.49px 151.66px;" id="elbze2xtyniyu" class="animable"></rect><rect x="77.45" y="148.87" width="5.58" height="5.58" style="fill: rgb(255, 255, 255); transform-origin: 80.24px 151.66px;" id="el9akiusm9jsa" class="animable"></rect><rect x="84.19" y="148.87" width="5.58" height="5.58" style="fill: rgb(255, 255, 255); transform-origin: 86.98px 151.66px;" id="ely0xbadydtch" class="animable"></rect><rect x="90.94" y="148.87" width="5.58" height="5.58" style="fill: rgb(219, 219, 219); transform-origin: 93.73px 151.66px;" id="eliom8tsxl2n" class="animable"></rect><rect x="97.68" y="148.87" width="5.58" height="5.58" style="fill: rgb(255, 255, 255); transform-origin: 100.47px 151.66px;" id="elynssg3671bs" class="animable"></rect><rect x="104.43" y="148.87" width="5.58" height="5.58" style="fill: rgb(255, 255, 255); transform-origin: 107.22px 151.66px;" id="elbtwyswzvlt" class="animable"></rect><rect x="63.96" y="155.66" width="5.58" height="5.58" style="fill: rgb(255, 255, 255); transform-origin: 66.75px 158.45px;" id="elfu81od1auzv" class="animable"></rect><rect x="70.7" y="155.66" width="5.58" height="5.58" style="fill: rgb(255, 255, 255); transform-origin: 73.49px 158.45px;" id="ellwfnfd7sx09" class="animable"></rect><rect x="77.45" y="155.66" width="5.58" height="5.58" style="fill: rgb(255, 255, 255); transform-origin: 80.24px 158.45px;" id="ela3mx9u2prw5" class="animable"></rect><rect x="84.19" y="155.66" width="5.58" height="5.58" style="fill: rgb(255, 255, 255); transform-origin: 86.98px 158.45px;" id="elfpw6x9ia6wf" class="animable"></rect><rect x="90.94" y="155.66" width="5.58" height="5.58" style="fill: rgb(255, 255, 255); transform-origin: 93.73px 158.45px;" id="elogfe1ti3wn" class="animable"></rect><rect x="97.68" y="155.66" width="5.58" height="5.58" style="fill: rgb(255, 255, 255); transform-origin: 100.47px 158.45px;" id="elbpxm2doi41p" class="animable"></rect><rect x="104.43" y="155.66" width="5.58" height="5.58" style="fill: rgb(255, 255, 255); transform-origin: 107.22px 158.45px;" id="ellvc1qy3d3zn" class="animable"></rect><rect x="63.96" y="162.45" width="5.58" height="5.58" style="fill: rgb(255, 255, 255); transform-origin: 66.75px 165.24px;" id="el5tmfdz43bas" class="animable"></rect><rect x="70.7" y="162.45" width="5.58" height="5.58" style="fill: rgb(255, 255, 255); transform-origin: 73.49px 165.24px;" id="elrbbn8n1ivob" class="animable"></rect><rect x="77.45" y="162.45" width="5.58" height="5.58" style="fill: rgb(255, 255, 255); transform-origin: 80.24px 165.24px;" id="elek673v5hyo" class="animable"></rect><rect x="84.19" y="162.45" width="5.58" height="5.58" style="fill: rgb(255, 255, 255); transform-origin: 86.98px 165.24px;" id="ele2dmjeqwtem" class="animable"></rect><rect x="90.94" y="162.45" width="5.58" height="5.58" style="fill: rgb(255, 255, 255); transform-origin: 93.73px 165.24px;" id="elfeziix7iyb8" class="animable"></rect><rect x="97.68" y="162.45" width="5.58" height="5.58" style="fill: rgb(255, 255, 255); transform-origin: 100.47px 165.24px;" id="elq829i591nn" class="animable"></rect><rect x="104.43" y="162.45" width="5.58" height="5.58" style="fill: rgb(255, 255, 255); transform-origin: 107.22px 165.24px;" id="el8gobxrahrau" class="animable"></rect><rect x="60.52" y="130.89" width="2.18" height="5.76" style="fill: rgb(199, 199, 199); transform-origin: 61.61px 133.77px;" id="ela4ngkzg9wil" class="animable"></rect><rect x="65.6" y="130.89" width="2.18" height="5.76" style="fill: rgb(199, 199, 199); transform-origin: 66.69px 133.77px;" id="eloz973lomae" class="animable"></rect><rect x="70.67" y="130.89" width="2.18" height="5.76" style="fill: rgb(199, 199, 199); transform-origin: 71.76px 133.77px;" id="elaax4kti2x4j" class="animable"></rect><rect x="75.75" y="130.89" width="2.18" height="5.76" style="fill: rgb(199, 199, 199); transform-origin: 76.84px 133.77px;" id="elijkzpz183fg" class="animable"></rect><rect x="80.82" y="130.89" width="2.18" height="5.76" style="fill: rgb(199, 199, 199); transform-origin: 81.91px 133.77px;" id="el5y0ytoz53mm" class="animable"></rect><rect x="85.89" y="130.89" width="2.18" height="5.76" style="fill: rgb(199, 199, 199); transform-origin: 86.98px 133.77px;" id="el0wdhgklpfkng" class="animable"></rect><rect x="90.97" y="130.89" width="2.18" height="5.76" style="fill: rgb(199, 199, 199); transform-origin: 92.06px 133.77px;" id="elyoji76vdjo" class="animable"></rect><rect x="96.04" y="130.89" width="2.18" height="5.76" style="fill: rgb(199, 199, 199); transform-origin: 97.13px 133.77px;" id="elw9nznoefc9r" class="animable"></rect><rect x="101.12" y="130.89" width="2.18" height="5.76" style="fill: rgb(199, 199, 199); transform-origin: 102.21px 133.77px;" id="elxrfwf8xhutp" class="animable"></rect><rect x="106.19" y="130.89" width="2.18" height="5.76" style="fill: rgb(199, 199, 199); transform-origin: 107.28px 133.77px;" id="elha8d7zmx47o" class="animable"></rect><rect x="111.26" y="130.89" width="2.18" height="5.76" style="fill: rgb(199, 199, 199); transform-origin: 112.35px 133.77px;" id="elafiunwuy8uu" class="animable"></rect><path d="M190.33,42.35V209.14H309.67V42.35ZM306.12,205.59H193.88V45.9H306.12Z" style="fill: rgb(235, 235, 235); transform-origin: 250px 125.745px;" id="el9dxx2h43q0b" class="animable"></path><rect x="193.88" y="45.9" width="112.24" height="159.69" style="fill: rgb(166, 166, 166); transform-origin: 250px 125.745px;" id="ellrklvu15kb" class="animable"></rect><polygon points="290.94 141.47 291.81 143.24 293.75 143.52 292.34 144.89 292.67 146.82 290.94 145.91 289.2 146.82 289.53 144.89 288.12 143.52 290.07 143.24 290.94 141.47" style="fill: rgb(219, 219, 219); transform-origin: 290.935px 144.145px;" id="elqjwok13hzbh" class="animable"></polygon><polygon points="237.66 137.23 238.53 138.99 240.47 139.28 239.06 140.65 239.4 142.58 237.66 141.67 235.92 142.58 236.25 140.65 234.85 139.28 236.79 138.99 237.66 137.23" style="fill: rgb(219, 219, 219); transform-origin: 237.66px 139.905px;" id="elt1vnru94vkp" class="animable"></polygon><polygon points="214.3 180.57 215.17 182.33 217.12 182.61 215.71 183.98 216.04 185.92 214.3 185 212.57 185.92 212.9 183.98 211.49 182.61 213.44 182.33 214.3 180.57" style="fill: rgb(219, 219, 219); transform-origin: 214.305px 183.245px;" id="eljbjmal2wmpb" class="animable"></polygon><polygon points="290.94 91.98 291.47 93.07 292.67 93.24 291.81 94.09 292.01 95.29 290.94 94.72 289.86 95.29 290.07 94.09 289.2 93.24 290.4 93.07 290.94 91.98" style="fill: rgb(219, 219, 219); transform-origin: 290.935px 93.635px;" id="elntpobvx9ve" class="animable"></polygon><polygon points="207.99 131.83 208.53 132.91 209.73 133.09 208.86 133.94 209.06 135.13 207.99 134.57 206.92 135.13 207.12 133.94 206.25 133.09 207.45 132.91 207.99 131.83" style="fill: rgb(219, 219, 219); transform-origin: 207.99px 133.48px;" id="elh85e5t0a0km" class="animable"></polygon><polygon points="277.69 178.92 278.23 180 279.43 180.18 278.56 181.03 278.77 182.22 277.69 181.66 276.62 182.22 276.83 181.03 275.96 180.18 277.16 180 277.69 178.92" style="fill: rgb(219, 219, 219); transform-origin: 277.695px 180.57px;" id="elyoodnmoe07" class="animable"></polygon><polygon points="242.21 98.86 242.74 99.95 243.94 100.12 243.08 100.97 243.28 102.16 242.21 101.6 241.13 102.16 241.34 100.97 240.47 100.12 241.67 99.95 242.21 98.86" style="fill: rgb(219, 219, 219); transform-origin: 242.205px 100.51px;" id="elsdfbi0wsd6" class="animable"></polygon><path d="M233.13,114.13A12.93,12.93,0,1,1,219,95.1a12.09,12.09,0,1,0,14.09,19Z" style="fill: rgb(219, 219, 219); transform-origin: 221.057px 107.864px;" id="eldrmbja8wehf" class="animable"></path><rect x="248.23" y="46.82" width="3.54" height="160.54" style="fill: rgb(235, 235, 235); transform-origin: 250px 127.09px;" id="elk7zuka24nr" class="animable"></rect><rect x="187.12" y="49.52" width="125.76" height="4.93" style="fill: rgb(235, 235, 235); transform-origin: 250px 51.985px;" id="eluicoqhkt6v" class="animable"></rect><rect x="187.12" y="55.07" width="125.76" height="4.93" style="fill: rgb(235, 235, 235); transform-origin: 250px 57.535px;" id="elghyg13fqmev" class="animable"></rect><rect x="187.12" y="60.62" width="125.76" height="4.93" style="fill: rgb(235, 235, 235); transform-origin: 250px 63.085px;" id="elfj9tnovf5ag" class="animable"></rect><rect x="187.12" y="66.17" width="125.76" height="4.93" style="fill: rgb(235, 235, 235); transform-origin: 250px 68.635px;" id="elsnkvni98rxj" class="animable"></rect><rect x="187.12" y="71.72" width="125.76" height="4.93" style="fill: rgb(235, 235, 235); transform-origin: 250px 74.185px;" id="elknlkl00oxto" class="animable"></rect><rect x="187.12" y="77.27" width="125.76" height="4.93" style="fill: rgb(235, 235, 235); transform-origin: 250px 79.735px;" id="elc9cdqhrjk4n" class="animable"></rect><rect x="301.47" y="48.52" width="0.89" height="96.03" style="fill: rgb(219, 219, 219); transform-origin: 301.915px 96.535px;" id="el3ao7ty5tjnl" class="animable"></rect><polygon points="303.49 148.67 300.34 148.67 301.13 144.15 302.7 144.15 303.49 148.67" style="fill: rgb(219, 219, 219); transform-origin: 301.915px 146.41px;" id="eljf9ead3qhxl" class="animable"></polygon><rect x="304.66" y="48.52" width="0.89" height="120.25" style="fill: rgb(219, 219, 219); transform-origin: 305.105px 108.645px;" id="elqyabx8nn77r" class="animable"></rect><polygon points="306.68 172.09 303.53 172.09 304.32 167.57 305.89 167.57 306.68 172.09" style="fill: rgb(219, 219, 219); transform-origin: 305.105px 169.83px;" id="elll40uzja2nk" class="animable"></polygon><rect x="181.62" y="41.66" width="136.76" height="10.32" style="fill: rgb(219, 219, 219); transform-origin: 250px 46.82px;" id="el0j9jznlks3j9" class="animable"></rect><rect x="333.84" y="246.83" width="92.14" height="127.5" style="fill: rgb(219, 219, 219); transform-origin: 379.91px 310.58px;" id="elf43tq2c4die" class="animable"></rect><rect x="329.37" y="242.1" width="101.06" height="4.73" style="fill: rgb(235, 235, 235); transform-origin: 379.9px 244.465px;" id="elkcd2ickrvq" class="animable"></rect><rect x="430.43" y="242.1" width="31.78" height="4.73" style="fill: rgb(219, 219, 219); transform-origin: 446.32px 244.465px;" id="elr2itqfw97zr" class="animable"></rect><rect x="425.97" y="246.83" width="31.22" height="127.5" style="fill: rgb(235, 235, 235); transform-origin: 441.58px 310.58px;" id="ell2vs8g81gyg" class="animable"></rect><path d="M416.05,305.84H343.76V265h72.29ZM344,305.62h71.85V265.21H344Z" style="fill: rgb(166, 166, 166); transform-origin: 379.905px 285.42px;" id="elh5n1gj188t9" class="animable"></path><rect x="369.81" y="276.92" width="14.07" height="8.09" style="fill: rgb(166, 166, 166); transform-origin: 376.845px 280.965px;" id="elcf585c81osu" class="animable"></rect><path d="M388.16,284.51h-14.3v-7.09h14.3Zm-14.08-.22h13.86v-6.64H374.08Z" style="fill: rgb(166, 166, 166); transform-origin: 381.01px 280.965px;" id="elsix5v0jthrg" class="animable"></path><path d="M416.05,357.17H343.76V316.32h72.29ZM344,357h71.85V316.54H344Z" style="fill: rgb(166, 166, 166); transform-origin: 379.905px 336.745px;" id="ely4ih87b9yjh" class="animable"></path><rect x="369.81" y="328.26" width="14.07" height="8.09" style="fill: rgb(166, 166, 166); transform-origin: 376.845px 332.305px;" id="el6dy752kqu4p" class="animable"></rect><path d="M388.16,335.85h-14.3v-7.09h14.3Zm-14.08-.23h13.86V329H374.08Z" style="fill: rgb(166, 166, 166); transform-origin: 381.01px 332.305px;" id="elg0dcu0quqqq" class="animable"></path></g><g id="freepik--Shadow--inject-134" class="animable" style="transform-origin: 250px 438.4px;"><ellipse cx="250" cy="438.4" rx="197.57" ry="19.92" style="fill: rgb(235, 235, 235); transform-origin: 250px 438.4px;" id="elkh1rbpv5b2" class="animable"></ellipse></g><g id="freepik--Floor--inject-134" class="animable" style="transform-origin: 250px 374.18px;"><polygon points="35.47 374.18 89.1 373.94 142.73 373.85 250 373.68 357.27 373.85 410.9 373.94 464.53 374.18 410.9 374.42 357.27 374.51 250 374.68 142.73 374.51 89.1 374.42 35.47 374.18" style="fill: rgb(38, 50, 56); transform-origin: 250px 374.18px;" id="elemzwu0m8zq" class="animable"></polygon></g><g id="freepik--Chair--inject-134" class="animable" style="transform-origin: 189.32px 302.835px;"><polygon points="230.09 297.92 232.66 313.29 250.02 407.07 252.82 407.07 240.19 313.29 238.33 297.92 230.09 297.92" style="fill: rgb(219, 219, 219); transform-origin: 241.455px 352.495px;" id="el0ka9nduvgxj" class="animable"></polygon><polygon points="238.33 297.92 230.09 297.92 232.66 313.29 240.19 313.29 238.33 297.92" style="fill: rgb(166, 166, 166); transform-origin: 235.14px 305.605px;" id="elj3sl5hgf9n" class="animable"></polygon><polygon points="175.56 407.07 178.36 407.07 195.73 313.29 198.29 297.92 190.06 297.92 188.19 313.29 175.56 407.07" style="fill: rgb(219, 219, 219); transform-origin: 186.925px 352.495px;" id="elkf9hrqoxh4f" class="animable"></polygon><polygon points="190.06 297.92 188.19 313.29 195.73 313.29 198.29 297.92 190.06 297.92" style="fill: rgb(166, 166, 166); transform-origin: 193.24px 305.605px;" id="el2oskhnubvf2" class="animable"></polygon><polygon points="123.48 407.07 126.28 407.07 143.64 313.29 146.21 297.92 137.97 297.92 136.11 313.29 123.48 407.07" style="fill: rgb(219, 219, 219); transform-origin: 134.845px 352.495px;" id="elos5kxe0smx" class="animable"></polygon><polygon points="136.11 313.29 143.64 313.29 146.21 297.92 137.97 297.92 136.11 313.29" style="fill: rgb(166, 166, 166); transform-origin: 141.16px 305.605px;" id="el0q12z895qnca" class="animable"></polygon><polygon points="127.92 305.14 255.16 305.14 255.16 291.74 207.53 291.74 191.52 198.6 132.77 198.6 127.92 305.14" style="fill: rgb(219, 219, 219); transform-origin: 191.54px 251.87px;" id="eluus0xxukdg" class="animable"></polygon><polygon points="127.92 305.14 134.86 305.14 139.38 198.6 132.77 198.6 127.92 305.14" style="fill: rgb(166, 166, 166); transform-origin: 133.65px 251.87px;" id="elqwgnaz19x7m" class="animable"></polygon></g><g id="freepik--Character--inject-134" class="animable" style="transform-origin: 249.004px 270.098px;"><path d="M261.17,428c-2.51.32-71.16-15.69-73.39-17.86-.27-.23,3-13.42,3-13.42.36-1.78,2.53-7.76,5.29-15l42.95,10-3.43,7.4s8.56,5.8,15.92,11.32v0c4.54,3.39,8.46,6.44,9.3,7.44C263,420.47,263.69,427.66,261.17,428Z" style="fill: rgb(235, 235, 235); transform-origin: 225.271px 404.862px;" id="elajy5thew2h5" class="animable"></path><path d="M261.37,428.15c-2.6.27-71.8-15.24-74.06-17.5-.87-.85,5.27-23.14,5.3-23.27l44.29,9.79-.18.75S259,415,261.19,417.73,264,427.89,261.37,428.15Z" style="fill: rgb(166, 166, 166); transform-origin: 225.163px 407.767px;" id="elxl9d13lh4gg" class="animable"></path><path d="M261.19,425.3c-11.6-2.9-58.67-13.51-70.35-15.5-.1,0-.11.05,0,.08,11.44,3.12,58.59,13.35,70.33,15.61C261.4,425.53,261.44,425.36,261.19,425.3Z" style="fill: rgb(38, 50, 56); transform-origin: 226.061px 417.648px;" id="elhw4nwvwkdib" class="animable"></path><path d="M240.27,397.7c-4.4-1.88-10.17-2.44-14.41,0-.16.1,0,.33.13.32a66.1,66.1,0,0,1,14.13.22A.3.3,0,0,0,240.27,397.7Z" style="fill: rgb(38, 50, 56); transform-origin: 233.092px 397.157px;" id="elepjoncgb789" class="animable"></path><path d="M243.14,400.44c-4.4-1.89-10.17-2.44-14.42,0-.16.09,0,.33.14.31A66.76,66.76,0,0,1,243,401,.3.3,0,0,0,243.14,400.44Z" style="fill: rgb(38, 50, 56); transform-origin: 235.972px 399.905px;" id="elrha2tp0szds" class="animable"></path><path d="M246,403.17c-4.4-1.88-10.17-2.43-14.41.05-.16.09,0,.32.13.31a66.1,66.1,0,0,1,14.13.22A.3.3,0,0,0,246,403.17Z" style="fill: rgb(38, 50, 56); transform-origin: 238.866px 402.655px;" id="eljol86v21gz" class="animable"></path><path d="M248.49,389c-1.25-2.88-4.86-2.52-7.14-1.34a25.11,25.11,0,0,0-9.42,8.91.12.12,0,0,0,.07.19.59.59,0,0,0,.59.74c4.1-.56,8.56-.64,12.37-2.43C247.19,394.06,249.67,391.77,248.49,389Zm-9.85,6.39c-2,.32-4,.54-6,.93,1.85-1.73,3.61-3.54,5.62-5.08a27.1,27.1,0,0,1,3-2.08c1.64-.94,7.64-2.37,5.7,2.48C245.89,394.35,241,395.05,238.64,395.43Z" style="fill: rgb(38, 50, 56); transform-origin: 240.35px 392.143px;" id="elq5dk0x07hh" class="animable"></path><path d="M220.53,392.8c3.42,2.46,7.79,3.35,11.72,4.64a.58.58,0,0,0,.72-.61c.07,0,.14-.08.1-.17a25.07,25.07,0,0,0-7.64-10.49c-2-1.57-5.51-2.59-7.26,0S218.53,391.37,220.53,392.8Zm-1.34-3.73c-1-5.12,4.62-2.62,6.06-1.4a26.38,26.38,0,0,1,2.59,2.59,70.55,70.55,0,0,1,4.6,6c-1.89-.76-3.83-1.34-5.75-2C224.4,393.45,219.75,391.89,219.19,389.07Z" style="fill: rgb(38, 50, 56); transform-origin: 225.3px 391.022px;" id="eljxwbbk8uvvi" class="animable"></path><path d="M239.08,397.54,191.2,386.82s39.49-91.61,36-96.24c-1.74-2.32-46.1-3-60.2-14.95-18.33-15.53-6-42.27-6-42.27l55-.08s-2.32,12-.39,13.54c1.28,1,56.61,6,63.1,25.89C286.55,297.1,239.08,397.54,239.08,397.54Z" style="fill: rgb(55, 71, 79); transform-origin: 218.264px 315.41px;" id="eli7qj1ufdhsg" class="animable"></path><path d="M240.45,388.88c-1.26-.53-13.63-4-16.39-4.74-5.58-1.43-11.16-2.83-16.77-4.15-2.92-.68-9.18-2.18-9.55-2.14a.15.15,0,0,0,0,.3c5.46,1.7,11,3.19,16.5,4.69s24.49,6.14,26.13,6.33C240.5,389.18,240.63,389,240.45,388.88Z" style="fill: rgb(38, 50, 56); transform-origin: 219.064px 383.51px;" id="elrqjskdk8dyh" class="animable"></path><path d="M235.67,286.48c-1-.85-2.49-1-3.74-1.17l-21.45-3.59c-6.69-1.12-13.42-2.12-20.08-3.41-5.51-1.06-11.12-2.49-15.89-5.48a23,23,0,0,1-9.74-12.74,40.91,40.91,0,0,1-1.26-16.33c.12-1.33.37-2.65.62-4a.08.08,0,0,0-.16,0c-1.81,10.15-2,21.92,5.63,30,3.71,3.94,8.81,6.25,14,7.75,5.87,1.69,12,2.5,18,3.5l21.45,3.58c3.44.57,6.94,1,10.35,1.73a3.51,3.51,0,0,1,1.86.83,2.67,2.67,0,0,1,.31,2.47c-.35,1.69-.8,3.35-1.29,5-3.9,13.31-30.24,76.86-31,78.32a.14.14,0,0,0,.25.12c6.56-11.68,25.65-60.76,30-73.35a78.32,78.32,0,0,0,2.81-9.81C236.57,288.72,236.71,287.37,235.67,286.48Z" style="fill: rgb(38, 50, 56); transform-origin: 199.716px 306.401px;" id="eloyi2k2yznx" class="animable"></path><path d="M356.08,428.74c-2.48.82-73.41.48-76.1-1.25-1-.63-1.58-11-1.89-23.45,0-.13,0-.26,0-.39l45.76-.29,0,.77s27.09,12.26,29.85,14.47S358.56,427.93,356.08,428.74Z" style="fill: rgb(166, 166, 166); transform-origin: 317.636px 416.263px;" id="elgm8rgysks3" class="animable"></path><path d="M355.29,426c-12-.35-60.2-.64-72.05-.08-.09,0-.09.07,0,.08,11.84.6,60.09.5,72.05.2C355.54,426.18,355.54,426,355.29,426Z" style="fill: rgb(38, 50, 56); transform-origin: 319.325px 426.022px;" id="elwju5d1nvef" class="animable"></path><path d="M328.93,403.51c-4.7-.9-10.45-.2-14.06,3.13-.14.13,0,.32.19.28a66,66,0,0,1,13.85-2.81A.3.3,0,0,0,328.93,403.51Z" style="fill: rgb(38, 50, 56); transform-origin: 322.017px 405.038px;" id="el74v1c93k4pi" class="animable"></path><path d="M332.32,405.57c-4.7-.9-10.46-.2-14.07,3.13-.14.13.05.32.2.28a66,66,0,0,1,13.85-2.81A.3.3,0,0,0,332.32,405.57Z" style="fill: rgb(38, 50, 56); transform-origin: 325.406px 407.098px;" id="elk44wd0503e8" class="animable"></path><path d="M335.71,407.63c-4.7-.9-10.46-.2-14.07,3.13-.14.13,0,.32.2.28a65.85,65.85,0,0,1,13.85-2.81A.3.3,0,0,0,335.71,407.63Z" style="fill: rgb(38, 50, 56); transform-origin: 328.79px 409.158px;" id="el51n9fvmth3p" class="animable"></path><path d="M335.1,393.3c-1.83-2.56-5.28-1.43-7.25.21a25,25,0,0,0-7.3,10.73c0,.09,0,.15.11.17a.59.59,0,0,0,.73.59c3.89-1.42,8.23-2.45,11.57-5C334.91,398.48,336.84,395.71,335.1,393.3Zm-8.25,8.34c-1.89.75-3.82,1.39-5.69,2.21,1.43-2.09,2.77-4.23,4.4-6.18a28.82,28.82,0,0,1,2.51-2.67c1.41-1.27,7-3.95,6.11,1.2C333.71,399,329.11,400.76,326.85,401.64Z" style="fill: rgb(38, 50, 56); transform-origin: 328.164px 398.404px;" id="elhusp5q3n57b" class="animable"></path><path d="M308.6,403c3.87,1.67,8.32,1.61,12.45,2a.58.58,0,0,0,.56-.75.14.14,0,0,0,.07-.2,25.21,25.21,0,0,0-9.72-8.6c-2.31-1.11-5.93-1.35-7.08,1.57C303.79,399.77,306.34,402,308.6,403Zm-2.11-3.36c-2.1-4.78,3.95-3.55,5.62-2.66a25.71,25.71,0,0,1,3.09,2,73,73,0,0,1,5.78,4.9c-2-.33-4-.49-6.05-.74C312.52,402.76,307.64,402.23,306.49,399.59Z" style="fill: rgb(38, 50, 56); transform-origin: 313.159px 399.841px;" id="elo6y9olsssg" class="animable"></path><path d="M328.16,403.85l-51.58,0s-22.08-87.59-26-92.57c-5.21-6.66-78.1-6.5-93.73-28.2-14-19.48-1.09-49.76-1.09-49.76h53.87a98.65,98.65,0,0,1-4.89,18.41s66.49,12.26,85.12,32.62C302.45,298.07,328.16,403.85,328.16,403.85Z" style="fill: rgb(55, 71, 79); transform-origin: 239.246px 318.585px;" id="elbi9cmygnorl" class="animable"></path><path d="M214.39,247.92a27.43,27.43,0,0,0-4.68,1.5q-2.37.92-4.67,2a91.42,91.42,0,0,0-8.73,4.94c-.09.05,0,.17.09.13,3-1.55,6.07-2.94,9.16-4.27l4.45-1.92c1.5-.65,3.09-1.2,4.51-2A.23.23,0,0,0,214.39,247.92Z" style="fill: rgb(38, 50, 56); transform-origin: 205.426px 252.209px;" id="el3up6bk0gs2v" class="animable"></path><path d="M211.08,234.32c-.63,2.52-1.19,5.05-1.91,7.54-.33,1.15-.65,2.31-1.09,3.42-.36.94-.92,2-2,2.22-1.25.24-1.61-.83-1.51-1.86s.41-2.31.64-3.44c.26-1.31.53-2.61.76-3.93.12-.65.78-3.72.79-3.76s0-.12-.07-.19a.09.09,0,0,0-.11,0,11.51,11.51,0,0,0-.93,2.62c-.35,1.2-.69,2.4-1,3.61s-.61,2.43-.91,3.64a5.69,5.69,0,0,0-.24,2.8,2.14,2.14,0,0,0,2,1.61c0,.08-.1.16-.13.24-.11.25-.19.51-.29.77s-.18.52-.26.78-.05.26-.07.39,0,.29,0,.44a.21.21,0,0,0,.39.14c.06-.13.16-.23.23-.35a2.05,2.05,0,0,0,.18-.43c.09-.25.16-.5.23-.76s.14-.51.18-.76a3.75,3.75,0,0,0,.05-.47,2.82,2.82,0,0,0,1.45-.55,4.77,4.77,0,0,0,1.51-2.3c.38-1,.67-2.13,1-3.2a46.73,46.73,0,0,0,1.6-8.11A.23.23,0,0,0,211.08,234.32Z" style="fill: rgb(38, 50, 56); transform-origin: 207.5px 242.796px;" id="elh9aczp1o2s9" class="animable"></path><path d="M322.82,394.61a40.51,40.51,0,0,0-4.13-.25c-1.45-.06-2.91-.13-4.36-.17-2.85-.08-5.71-.14-8.57-.15-5.75,0-11.51,0-17.27.08-3,0-9.43.13-9.79.24a.15.15,0,0,0,.05.3c5.71.3,11.43.39,17.15.5s11.43.19,17.14.09c1.58,0,3.16-.08,4.74-.13a46.53,46.53,0,0,0,5-.21C322.94,394.89,323,394.64,322.82,394.61Z" style="fill: rgb(38, 50, 56); transform-origin: 300.752px 394.668px;" id="elwp4kchoxufj" class="animable"></path><path d="M256.61,312a15.25,15.25,0,0,0-2.16-4.44,7.89,7.89,0,0,0-4.22-2.18c-13.75-3.76-27.94-5.45-41.92-8.1a172.41,172.41,0,0,1-20.41-5,79.43,79.43,0,0,1-19.3-8.69,21.61,21.61,0,0,1-7.1-7.5,32.71,32.71,0,0,1-3.34-9.36,57.38,57.38,0,0,1,.06-22.65,52.34,52.34,0,0,1,1.41-5.51c0-.12-.14-.16-.18-.05A55.24,55.24,0,0,0,156.34,261c.5,6.63,2.11,13.61,6.4,18.87a26.55,26.55,0,0,0,7.93,6.23,84.36,84.36,0,0,0,9.72,4.58,128.55,128.55,0,0,0,20,6c13.95,3.09,28.18,4.65,42.13,7.76,1.72.38,3.43.78,5.14,1.22a18.12,18.12,0,0,1,5.07,1.63c1.65,1,2.2,3.09,2.85,4.8.71,1.89,23.14,77.77,23.64,79.68.08.3.55.16.47-.15C277.78,383.89,258.06,315.69,256.61,312Z" style="fill: rgb(38, 50, 56); transform-origin: 217.953px 315.196px;" id="elzwvkpxx1f1k" class="animable"></path><path d="M252.54,314c-.53-1.66-1-3.44-2.53-4.44s-23.61-4-26.09-4.35c-.12,0-.16.16,0,.18,2.12.36,22.51,4,24.33,4.62a4.07,4.07,0,0,1,2,1.28,8.9,8.9,0,0,1,1.16,2.77c.63,2,1.25,3.95,1.88,5.92,1.26,4,2.51,7.93,3.71,11.91,1.35,4.52,2.9,9.25,4.07,13.81.09.35.59.18.53-.16C260,337,253.19,316,252.54,314Z" style="fill: rgb(38, 50, 56); transform-origin: 242.71px 325.551px;" id="elopkan7fcy4" class="animable"></path><path d="M205,251.84A186.37,186.37,0,0,1,235.14,258a211.13,211.13,0,0,1,29.05,10.51c5.28,2.37,10.39,5,15.46,7.81.1.05,0,.2-.09.15a236,236,0,0,0-28.25-12.33,228.1,228.1,0,0,0-29.43-8.53c-5.62-1.22-11.29-2.17-17-3.11C204.54,252.44,204.65,251.8,205,251.84Z" style="fill: rgb(38, 50, 56); transform-origin: 242.183px 264.159px;" id="elrum3v82rq6o" class="animable"></path><path d="M199.17,174.68c4.35,21,13.49,47.63,20.88,53.13,5.95,4.43,37.53,12.69,39.29,12.92,4.37.53,13.82-30.78,9.18-31.58-6.13-1.06-32.87-3.14-34.39-4.76s-11.18-15.31-22-31.08C204.58,162.41,196.48,161.65,199.17,174.68Z" style="fill: rgb(235, 148, 129); transform-origin: 234.206px 202.878px;" id="elqvc4r26i6l8" class="animable"></path><path d="M255.86,239a96.28,96.28,0,0,0,12.4,5.59c3.4,1.06,13.26,3.87,14.8.24,1.06-2.47-4.55-4.8-8.47-6.53-2.07-.92-4.6-3.16-3.95-4.49,1.12-2.32,6.45.15,9.94,2.28,6.74,4.12,15.69,11.46,19.94,8.08,1.61-1.27-.17-3.7-2.8-6.1,4.29,2.82,8.88,5.16,10.72,3.81,1.05-.77,1.12-1.85.57-3.1a3,3,0,0,0,3.37-.45c1.45-1.45.8-3.65-.7-5.92a1.68,1.68,0,0,0,1.31-.82c3.09-4.5-11.61-17.92-16.77-19.26-15.17-3.95-31.42-3-31.42-3C258.71,214,255.85,238.94,255.86,239Z" style="fill: rgb(235, 148, 129); transform-origin: 284.636px 227.93px;" id="eluw7rvum4kli" class="animable"></path><path d="M278.58,225.4a26,26,0,0,1,10.09,4.13c3.81,2.63,6.31,5.68,9.49,8.75.08.08,0,.22-.13.13-1.51-1.46-7.8-7-9.43-8.23a24.67,24.67,0,0,0-10-4.72S278.54,225.39,278.58,225.4Z" style="fill: rgb(38, 50, 56); transform-origin: 288.379px 231.919px;" id="elfwdfvd80j4c" class="animable"></path><path d="M281.56,219a61.83,61.83,0,0,1,11.75,4.35c4,2.16,7.13,5.61,10.2,8.93,1.83,2,3.63,4,5.38,6.11.07.09-.05.22-.13.13q-4.65-5.14-9.62-10a32.54,32.54,0,0,0-10.64-7c-2.28-.92-4.62-1.67-6.95-2.41C281.5,219.05,281.52,219,281.56,219Z" style="fill: rgb(38, 50, 56); transform-origin: 295.216px 228.775px;" id="elb24vcdnlg9" class="animable"></path><path d="M286,213.42c3.88.89,7.26,1.64,10.66,3.8,4.51,2.86,8.81,7.61,10.33,9.29,1.66,1.86,3.27,3.78,4.84,5.71.07.08-.07.2-.13.12a129.39,129.39,0,0,0-11.63-12,25.91,25.91,0,0,0-6.55-4.46,47,47,0,0,0-7.52-2.41S286,213.42,286,213.42Z" style="fill: rgb(38, 50, 56); transform-origin: 298.925px 222.893px;" id="elzqsp3kga36i" class="animable"></path><path d="M266.7,208l-12.13,33.5s-33.26-9.81-37.66-15.59-15.47-34.77-17.86-50.3,5.38-12.32,12-4.46,23.15,32.19,23.71,32.56S266.7,208,266.7,208Z" style="fill: #3BB1BA; transform-origin: 232.654px 203.051px;" id="eln7t7jnpvzhd" class="animable"></path><path d="M249.51,233.58c.45-1.12.93-2.22,1.35-3.35l2.62-7c.86-2.35,1.72-4.71,2.56-7.07s1.59-4.77,2.47-7.12c0-.11-.12-.18-.16-.07-1,2.31-2.06,4.57-3,6.89s-1.9,4.74-2.79,7.13-1.7,4.72-2.5,7.09c-.4,1.2-.72,2.42-1.09,3.62s-.75,2.32-1,3.51c0,.08.1.11.13,0C248.62,236,249,234.79,249.51,233.58Z" style="fill: rgb(38, 50, 56); transform-origin: 253.24px 223.098px;" id="elhjeed6kb744" class="animable"></path><g id="elxztvxsjxpm"><path d="M240.07,236.83c-9.55-3.33-20.73-7.74-23.16-10.93-4.4-5.77-15.48-34.76-17.86-50.29-1.13-7.37,0-10.53,2.26-11Z" style="opacity: 0.1; transform-origin: 219.338px 200.72px;" class="animable" id="elwqemh50rxyr"></path></g><path d="M217.18,240.12c-1.57,1.52-68.83,8.53-69.17,8.08-.89-1.23,11.68-64.34,38.62-86.09,4.74-3.83,12.66-2.23,16.24.08,1.79,1.15,6.75,10.21,8.18,18.27S218.17,239.15,217.18,240.12Z" style="fill: #3BB1BA; transform-origin: 182.63px 204.013px;" id="elw11lxafbud" class="animable"></path><path d="M187.76,179.64c-2.6,10.76-16,49-19.28,52.32-4,3.95-21.22,16.1-27.24-.08-4.17-11.21,24.17-50.49,37.55-63.16C185.34,162.53,192.12,161.63,187.76,179.64Z" style="fill: #3BB1BA; transform-origin: 164.983px 202.378px;" id="el5vqpyfciyks" class="animable"></path><path d="M187.29,187.43c-.66,1-1.35,2.09-2,3.17-.13.22-.24.44-.36.66.21-.71.43-1.43.62-2.14.51-1.84.92-3.7,1.37-5.55a.14.14,0,0,0-.27-.07c-.52,1.59-1.1,3.16-1.63,4.75s-1,3-1.46,4.54q-1.54,4.69-3.17,9.37c-2.13,6.2-4.44,12.33-6.87,18.42-1.35,3.37-2.73,6.73-4,10.13,0,.09.11.15.16.06a169.67,169.67,0,0,0,7.86-18c2.36-6.07,4.54-12.21,6.46-18.43l.47-1.55.21-.33c.32-.54.64-1.09.94-1.64.61-1.1,1.14-2.25,1.7-3.39A0,0,0,0,0,187.29,187.43Z" style="fill: rgb(38, 50, 56); transform-origin: 178.42px 207.111px;" id="el21h35j0popz" class="animable"></path><path d="M200.48,189s-10.31-8.15-12.65-10.39-3.63-14.61-1.07-16.84,12.53-1.51,15.66.93,5.52,10.2,5.76,11.77-3.61,13.73-3.61,13.73l-2.15-2.91s2.24-9.63,2.15-11.19-1.72-9.37-2.5-10.54-12.3-1-13.18-.52.63,10.4,1.14,12.07,10.85,11.37,10.85,11.37Z" style="fill: rgb(69, 90, 100); transform-origin: 196.773px 174.715px;" id="el0gzz2r59e6hq" class="animable"></path><path d="M199,184.65l1.91,1.82-.4,2.52-3-2.38Z" style="fill: rgb(38, 50, 56); transform-origin: 199.21px 186.82px;" id="eltqqwik1am6r" class="animable"></path><path d="M205.49,185.2c-.53,1.75-.92,3-.92,3l-2.15-2.91s.19-.81.45-2Z" style="fill: rgb(38, 50, 56); transform-origin: 203.955px 185.745px;" id="elzb3i8egzvtj" class="animable"></path><polygon points="199.04 187.84 202.42 185.28 205.21 186.14 204.29 191.33 200.56 191.62 199.04 187.84" style="fill: rgb(69, 90, 100); transform-origin: 202.125px 188.45px;" id="el38k2839o1pp" class="animable"></polygon><polygon points="200.56 191.62 196.43 232.54 206.87 244.37 210.08 229.94 204.29 191.33 200.56 191.62" style="fill: rgb(69, 90, 100); transform-origin: 203.255px 217.85px;" id="ellcq5ysmwk4" class="animable"></polygon><polygon points="200.56 191.62 204.29 191.33 204.41 192.08 200.39 193.24 200.56 191.62" style="fill: rgb(38, 50, 56); transform-origin: 202.4px 192.285px;" id="elbzw5vljg04" class="animable"></polygon><path d="M200.76,172.85c-3.78,1.23-10.88-4.1-13.88-8.64-.21-.32.07-13.49-.15-16.11,0-.53,16.76,2.63,16.76,2.63a41.61,41.61,0,0,0-.75,10.17C202.78,161.28,204.4,171.66,200.76,172.85Z" style="fill: rgb(235, 148, 129); transform-origin: 195.11px 160.535px;" id="elb6vm7ij24h" class="animable"></path><path d="M203.5,150.72v0c0,.08-.08.41-.17.93-.16.9-.38,2.36-.52,4a29.31,29.31,0,0,0-.06,5.22,3.6,3.6,0,0,0,0,.36v.06c0,.21.06.5.1.83a9.2,9.2,0,0,1-1.59.23c-9,.54-12.88-10.19-14.06-14.33l.29,0c.44,0,1,.1,1.72.2l.53.07,3.84.61,1.38.23,2.93.51c.4.09.8.16,1.17.22l1.19.21.55.1.26.05c.55.1,1,.18,1.39.26l.67.12.28.06h.06Z" style="fill: rgb(38, 50, 56); transform-origin: 195.35px 155.195px;" id="elh00agscjgmg" class="animable"></path><path d="M184.7,128.18c-1.82,5.83,1.17,22.71,5.3,26.5,6,5.48,15.86,6.06,20.54-1.14,4.54-7,.26-28.92-4.36-32.37C199.37,116.1,187.39,119.58,184.7,128.18Z" style="fill: rgb(235, 148, 129); transform-origin: 198.315px 138.842px;" id="el2otpyll4tf9" class="animable"></path><path d="M199.92,137.33c-2.11.07-1.83,4.27.12,4.22S201.68,137.28,199.92,137.33Z" style="fill: rgb(211, 118, 106); transform-origin: 199.915px 139.44px;" id="el8l7a8k0o74y" class="animable"></path><path d="M208.74,136.06c-2,.61-.63,4.53,1.21,4S210.4,135.56,208.74,136.06Z" style="fill: rgb(211, 118, 106); transform-origin: 209.289px 138.063px;" id="el6z8c999kld5" class="animable"></path><path d="M201.14,138.16s-.08.07-.07.12c.27,1.12.38,2.46-.57,3,0,0,0,.07,0,.06C201.74,141,201.57,139.18,201.14,138.16Z" style="fill: rgb(38, 50, 56); transform-origin: 200.98px 139.75px;" id="elnyxip8qe6n9" class="animable"></path><path d="M199.89,137.18c-1.85.23-1.26,3.91.46,3.7S201.44,137,199.89,137.18Z" style="fill: rgb(38, 50, 56); transform-origin: 200.066px 139.031px;" id="elh8emn3kgpf4" class="animable"></path><path d="M207.77,137.28s.1,0,.11.09c.15,1.15.51,2.43,1.6,2.65,0,0,0,.06,0,.06C208.19,140.11,207.73,138.39,207.77,137.28Z" style="fill: rgb(38, 50, 56); transform-origin: 208.624px 138.68px;" id="el6z7dki0bv66" class="animable"></path><path d="M208.6,135.93c1.81-.44,2.55,3.22.87,3.62S207.08,136.29,208.6,135.93Z" style="fill: rgb(38, 50, 56); transform-origin: 209.088px 137.737px;" id="elhwtzm0nmqhr" class="animable"></path><path d="M197.48,133.69c.36-.38.75-.67,1.14-1a2.55,2.55,0,0,1,1.37-.81.79.79,0,0,1,.77.57,1.93,1.93,0,0,1-.77,1.82,2.85,2.85,0,0,1-1.89.85A.84.84,0,0,1,197.48,133.69Z" style="fill: rgb(38, 50, 56); transform-origin: 199.008px 133.5px;" id="el9ba8aypezdh" class="animable"></path><path d="M210.62,133.52a14.53,14.53,0,0,0-1.38-.66,2.44,2.44,0,0,0-1.54-.41.78.78,0,0,0-.59.76,2,2,0,0,0,1.25,1.54,2.93,2.93,0,0,0,2,.3A.85.85,0,0,0,210.62,133.52Z" style="fill: rgb(38, 50, 56); transform-origin: 209.054px 133.777px;" id="elap1c3wcz2qo" class="animable"></path><path d="M202.79,147.4a9.8,9.8,0,0,1,4.44-1c.12,0,.2-.31.2-.44h0s-.46-2.39-.46-2.39c.34.1,2.07.57,2,.12a58.49,58.49,0,0,0-3.36-11.36.11.11,0,0,0-.2.07c.66,3.59,1.94,7.05,2.66,10.66a6.66,6.66,0,0,0-1.9-.26c-.12.05.62,2.51.64,2.9a5.67,5.67,0,0,0-4.09,1.19C202.25,147.29,202.14,147.78,202.79,147.4Z" style="fill: rgb(38, 50, 56); transform-origin: 205.653px 139.91px;" id="elia7af7yn17g" class="animable"></path><path d="M205.73,148.39c.63-.28,1.19-2.65,0-2.65s-3.69.94-4.35,2.49c-.58,1.36,2.58,0,3.16.14S205.27,148.59,205.73,148.39Z" style="fill: rgb(38, 50, 56); transform-origin: 203.869px 147.29px;" id="elx4uruxjbc8n" class="animable"></path><path d="M204.57,148.37l.28.06c-.12-.73-.95-1.51-2.53-1.35a3,3,0,0,0-.92,1.15C200.83,149.58,204,148.25,204.57,148.37Z" style="fill: rgb(255, 154, 187); transform-origin: 203.091px 147.949px;" id="el62stog8v078" class="animable"></path><path d="M200.76,149.45c.31.22.64.54,1.06.51a3.2,3.2,0,0,0,1.16-.49s.08,0,.06.05a1.55,1.55,0,0,1-1.33.85,1.2,1.2,0,0,1-1.05-.85C200.63,149.46,200.71,149.42,200.76,149.45Z" style="fill: rgb(38, 50, 56); transform-origin: 201.848px 149.905px;" id="elxel2hkqv46h" class="animable"></path><path d="M185.42,143.11s-5.68-9.85-5-15.45c.31-2.54,3.81-4.17,3.81-4.17a5.75,5.75,0,0,1,1.94-5.74c3.06-2.76,10.32-2,10.32-2s4.87-6.71,11.48-3.86,2.1,10.32,2.1,10.32,2.37,3.52-3.67,6.11c-5.88,2.52-17.72-.35-17.72-.35a41.71,41.71,0,0,1-.46,12.33A3.75,3.75,0,0,1,185.42,143.11Z" style="fill: rgb(38, 50, 56); transform-origin: 195.968px 127.147px;" id="el9sdlds61civ" class="animable"></path><path d="M197.63,115.9a11.69,11.69,0,0,0-4.67-1,12.42,12.42,0,0,0-4.24.57c-2.42.8-4.6,2.53-5.06,5.15a4.92,4.92,0,0,0,.85,3.72s.1,0,.07-.06c-1.5-1.94-.63-4.9,1-6.46,1.84-1.77,4.62-2.4,7.1-2.45a20.92,20.92,0,0,1,4.91.63A.07.07,0,0,0,197.63,115.9Z" style="fill: rgb(38, 50, 56); transform-origin: 190.612px 119.615px;" id="el0syyvtlq0nen" class="animable"></path><path d="M212.66,115.24a5.71,5.71,0,0,0-3.87-3.72,9.71,9.71,0,0,0-6.32.08,12.29,12.29,0,0,0-5.25,3.71s0,.1.06.06a10.78,10.78,0,0,1,10.4-3.61,5.27,5.27,0,0,1,3.95,8,11,11,0,0,1-4.38,4.21,0,0,0,0,0,0,.06,11.35,11.35,0,0,0,4.36-3.55A6.38,6.38,0,0,0,212.66,115.24Z" style="fill: rgb(38, 50, 56); transform-origin: 205.027px 117.53px;" id="eltiurbgn1g3g" class="animable"></path><path d="M207.83,128.7a20.12,20.12,0,0,1-8.42,1.27,40.9,40.9,0,0,1-8.8-1.41c-1.68-.44-3.34-1-5-1.48-.05,0-.08.06,0,.08a45.09,45.09,0,0,0,9,3,22.64,22.64,0,0,0,8.72.11,19.45,19.45,0,0,0,4.57-1.51S207.87,128.68,207.83,128.7Z" style="fill: rgb(38, 50, 56); transform-origin: 196.73px 128.86px;" id="elepmnis2ah2i" class="animable"></path><path d="M188.39,141.93s-3.9-5.4-6.35-4,.52,9.26,3.44,10.3a3,3,0,0,0,3.94-1.65Z" style="fill: rgb(235, 148, 129); transform-origin: 185.276px 143.08px;" id="elx96e7qnxy9s" class="animable"></path><path d="M183,140.16a0,0,0,0,0,0,.08c2,.8,3.15,2.67,3.93,4.62a1.63,1.63,0,0,0-2.45-.41s0,.12.06.1a1.82,1.82,0,0,1,2,.61,8.47,8.47,0,0,1,1,1.6c.1.18.43.08.35-.13v0C187.81,144,185.74,140.38,183,140.16Z" style="fill: rgb(38, 50, 56); transform-origin: 185.451px 143.507px;" id="elm5d85k4ewl" class="animable"></path><path d="M203,162.27,200,172.41l-13.35-11.13-3,4.3s13.81,18.42,13.8,17.53l3.18-8.81,6.38,5.27-1.93-14.63Z" style="fill: #3BB1BA; transform-origin: 195.33px 172.211px;" id="elrt38gn5p87" class="animable"></path><path d="M206.44,172.29c-.4-2.41-.73-4.84-1.24-7.23,0-.08-.16-.11-.17,0-.25,2.38,1.33,11.57,1.54,13.79l0,0c-.27-.23-5.89-4.61-5.93-4.53-.74,1.42-3.08,7.84-3.23,8.42-2.18-2.93-10.5-13.53-13-16.26a.08.08,0,0,0-.13.1c2,3.13,13,17.42,13.15,17.36a95.07,95.07,0,0,0,3.31-9.3c1,1,6.71,6,6.69,5.62A75.62,75.62,0,0,0,206.44,172.29Z" style="fill: rgb(38, 50, 56); transform-origin: 195.847px 174.464px;" id="el2hfwspdj4t6" class="animable"></path><path d="M206.93,199s-4.18-5.51-.19-8S214,194.5,214,194.5Z" style="fill: rgb(69, 90, 100); transform-origin: 209.507px 194.697px;" id="elmm7wgitbfm" class="animable"></path><path d="M240,235.23h0l.58,6.74.2,2.22-1.94-1.11-5.87-3.37h0l-26.13-41,7-4.49,26.13,41Z" style="fill: rgb(69, 90, 100); transform-origin: 223.81px 219.205px;" id="elz14lvski5k" class="animable"></path><polygon points="240.53 241.98 240.73 244.2 238.78 243.09 240.53 241.98" style="fill: rgb(38, 50, 56); transform-origin: 239.755px 243.09px;" id="elb43lnld1ttm" class="animable"></polygon><g id="el00a4yc8spcad7"><rect x="205.81" y="196.14" width="9.73" height="1.93" style="fill: rgb(38, 50, 56); transform-origin: 210.675px 197.105px; transform: rotate(-32.53deg);" class="animable" id="elk9l2230kdpp"></rect></g><g id="elk5kucl56rr"><rect x="206.96" y="197.94" width="9.73" height="1.93" style="fill: rgb(38, 50, 56); transform-origin: 211.825px 198.905px; transform: rotate(-32.54deg);" class="animable" id="elqazu03xalb"></rect></g><polygon points="208.24 202.34 210.89 200.65 218.88 216.4 217.87 216.96 208.24 202.34" style="fill: rgb(38, 50, 56); transform-origin: 213.56px 208.805px;" id="eluyabulgjbe" class="animable"></polygon><path d="M192.75,209.2c4.08-.23,11.42,35.41,5.44,36.05-26.65,2.85-47.19-4.12-51.85-7.21-6.11-4-5.49-12.53-2.21-16C149.8,215.94,186.41,209.57,192.75,209.2Z" style="fill: rgb(235, 148, 129); transform-origin: 171.068px 227.56px;" id="elitu9dwy2fgg" class="animable"></path><path d="M242.47,214.25c-.61,3.91-10.13,1.6-10.13,1.6a7.28,7.28,0,0,1,2.31,4.4c.26,3-4.32,4.72-4.32,4.72a9,9,0,0,1,1.69,5c0,2.9-4.41,5.3-4.41,5.3a7.9,7.9,0,0,1-1.3,5.36c-3,4.09-30.27,4.65-33.68,4.8l-1.58-35.68s22.6-8.95,28.33-7.75C224.2,203,243.39,208.27,242.47,214.25Z" style="fill: rgb(235, 148, 129); transform-origin: 216.776px 223.66px;" id="elxaaebbigz1" class="animable"></path><path d="M232.28,215.72c-4.87-2.3-10.28-3.44-15.52-4.47-.11,0-.15.16,0,.18,5.22,1,10.3,3.36,15.47,4.53C232.34,216,232.41,215.78,232.28,215.72Z" style="fill: rgb(38, 50, 56); transform-origin: 224.506px 213.607px;" id="elcmoc1tog2c" class="animable"></path><path d="M230.25,224.56a14,14,0,0,0-3.59-.79c-1.28-.19-2.57-.35-3.87-.5q-3.89-.44-7.78-.68c-.12,0-.16.17,0,.18,2.58.3,5.16.63,7.72,1,1.29.2,2.57.41,3.85.63a16.67,16.67,0,0,0,3.65.47A.18.18,0,0,0,230.25,224.56Z" style="fill: rgb(38, 50, 56); transform-origin: 222.617px 223.73px;" id="ell9te8q8qis" class="animable"></path><path d="M227.5,235.29a9.41,9.41,0,0,0-3.26-.53l-3.55-.35c-2.36-.24-4.72-.49-7.08-.82-.11,0-.15.17,0,.19,2.39.34,4.77.72,7.16,1,1.18.16,2.35.31,3.53.45a9,9,0,0,0,3.23.14A.07.07,0,0,0,227.5,235.29Z" style="fill: rgb(38, 50, 56); transform-origin: 220.522px 234.522px;" id="el24k8nx2hdtw" class="animable"></path><path d="M188.77,209.11,195,249s-42.3-3.78-50.41-11.58c-5.63-5.43-3.92-13.93-.68-16.49C151,215.33,188.77,209.11,188.77,209.11Z" style="fill: #3BB1BA; transform-origin: 167.956px 229.055px;" id="el5y02bzy97hl" class="animable"></path><path d="M184.13,246c-1.08-5.58-4.65-28.56-5.08-33.57,0-.35.18-.46.26-.1,3.62,16.63,4.26,28.09,5,33.62C184.36,246.06,184.15,246.12,184.13,246Z" style="fill: rgb(38, 50, 56); transform-origin: 181.684px 229.087px;" id="ela61d11bv8wo" class="animable"></path><path d="M188.83,208.71a271.38,271.38,0,0,0-29.06,6L159,215c-1.79.17-3.57.53-5.34.86,0,0,0,.09,0,.08,1.41-.26,2.84-.43,4.26-.6-.81.26-1.62.53-2.43.82-1.42.5-2.83,1.06-4.25,1.58,0,0,0,.09,0,.07,2.38-.84,4.83-1.54,7.25-2.26s30.08-6.38,30.19-6.37.09.25.1.34.15.13.14,0A3.53,3.53,0,0,0,188.83,208.71Z" style="fill: rgb(38, 50, 56); transform-origin: 170.08px 213.261px;" id="elw77gjus8pzq" class="animable"></path><path d="M189.13,248.35c-1.2-.25-5.73-.66-6.94-.82-2.42-.34-4.85-.66-7.27-1.06-4.86-.8-9.67-1.83-14.46-3-1.33-.31-2.65-.64-4-1s-5.85-1.86-7.2-2.3c-.05,0-.08.06,0,.08a59.43,59.43,0,0,0,6.58,2.39c1.19.33,2.36.72,3.54,1.06,2.38.68,4.79,1.27,7.21,1.81,4.82,1.07,9.72,1.88,14.62,2.48,1.38.16,6.56.66,7.94.58C189.3,248.61,189.27,248.38,189.13,248.35Z" style="fill: rgb(38, 50, 56); transform-origin: 169.23px 244.374px;" id="elc0mwe3imok" class="animable"></path></g><g id="freepik--Plant--inject-134" class="animable" style="transform-origin: 72.48px 289.12px;"><path d="M74.71,243s18.41-2.58,14.11-24.81C88.82,218.2,68.25,222.82,74.71,243Z" style="fill: #3BB1BA; transform-origin: 81.4627px 230.595px;" id="el4cteylkhptd" class="animable"></path><g id="elwsi0wcdw7f"><path d="M74.71,243s18.41-2.58,14.11-24.81C88.82,218.2,68.25,222.82,74.71,243Z" style="opacity: 0.1; transform-origin: 81.4627px 230.595px;" class="animable" id="elg3s3r2elqtt"></path></g><path d="M75.64,238.37c.36-1.13.79-2.23,1.26-3.32,0-.14,0-.28,0-.42,0-.3.06-.61.08-.92,0-.66.09-1.32.13-2,.08-1.32.17-2.65.19-4a.06.06,0,1,1,.11,0c0,1.33,0,2.66,0,4,0,.66-.07,1.33-.11,2l0,.44A39.42,39.42,0,0,1,81,227.85q.94-1.32,2-2.55c.74-.84,1.51-1.64,2.26-2.47,0-.06.12,0,.07.08a33.47,33.47,0,0,0-3.55,4.72c-.55.84-1.08,1.71-1.59,2.6l.18-.07.65-.27,1.5-.57c1-.36,2-.72,3-1.1.06,0,.1.08,0,.11-1,.39-2,.8-2.92,1.22l-1.42.61-.72.3a2.84,2.84,0,0,1-.49.17c-.37.67-.74,1.33-1.08,2a48.41,48.41,0,0,0-2.25,5.3c0,.13-.09.26-.13.38a11,11,0,0,1,1.51-.72c.63-.3,1.27-.58,1.9-.87,1.29-.6,2.58-1.2,3.81-1.9.07,0,.12.07.06.1-1.27.69-2.51,1.43-3.77,2.12-.64.34-1.27.67-1.92,1a5.86,5.86,0,0,1-1.73.69A21.76,21.76,0,0,0,75.16,244c-.2,2.52-.18,5-.24,7.57,0,0-.06,0-.07,0q-.27-3.43-.29-6.89A20,20,0,0,1,75.64,238.37Z" style="fill: rgb(38, 50, 56); transform-origin: 80.0705px 237.188px;" id="elz0siqwod9c" class="animable"></path><path d="M78.48,225.29a22.38,22.38,0,0,1,.18,3.92s0,0-.06,0c-.07-1.3-.08-2.59-.23-3.89C78.36,225.25,78.47,225.22,78.48,225.29Z" style="fill: rgb(38, 50, 56); transform-origin: 78.5245px 227.23px;" id="el6dytligsuv" class="animable"></path><path d="M83.74,226.41a13.74,13.74,0,0,0,2.37-1.17c.06,0,.12.06,0,.1a8.61,8.61,0,0,1-2.39,1.14S83.7,226.43,83.74,226.41Z" style="fill: rgb(38, 50, 56); transform-origin: 84.9471px 225.86px;" id="el21ti9wuikyz" class="animable"></path><path d="M74.12,278.29c0-2,.06-4.07.08-6.1,0-6.76.09-13.51.22-20.27q.14-8.05.37-16.09a.08.08,0,0,1,0-.07c0-1.47,0-2.93,0-4.4,0,0,0-.05.09-.05s.09,0,.09.06c0,1.46,0,2.93,0,4.4a.1.1,0,0,1,0,.06c.27,9.55.51,19.1.56,28.65,0,1.94,0,3.88,0,5.82q.11,9.34.07,18.68l0,3c0,5.7-.06,11.39-.06,17.09,0,.31-.34.46-.71.47s-.85-.15-.85-.5c0-6.28,0-12.56,0-18.84C74.11,286.21,74.09,282.25,74.12,278.29Z" style="fill: rgb(38, 50, 56); transform-origin: 74.7953px 270.425px;" id="el5q1w021baoe" class="animable"></path><path d="M81.81,272.11s8.86-6.56,17.26-2.13,9.73,21.53,9.73,21.53-12.34,1.76-20.12-5.63C81.19,278.75,81.81,272.11,81.81,272.11Z" style="fill: #3BB1BA; transform-origin: 95.2987px 280.068px;" id="elid78fao0z6" class="animable"></path><path d="M79.4,272.52a10.52,10.52,0,0,1,5.13-.67,7.91,7.91,0,0,1,1.08-.11l1.25-.09,2.59-.19c1.74-.13,3.49-.23,5.24-.41a.06.06,0,0,1,0,.11c-1.73.22-3.44.47-5.17.64-.89.09-1.78.19-2.68.25l-.65.06c.27.06.53.12.79.2a20.2,20.2,0,0,1,4,1.63c.7.12,1.39.32,2.08.48,1.1.26,2.19.54,3.28.83,2.15.56,4.27,1.19,6.41,1.81a.06.06,0,0,1,0,.11c-2.14-.52-4.28-1-6.42-1.51-1-.25-2.08-.49-3.11-.75l-.82-.18a25.81,25.81,0,0,1,6.3,5.47,34.23,34.23,0,0,1,4.37,6.9c0,.06,0,.12-.09.06a33.23,33.23,0,0,0-5.3-7l.12.35c.17.53.33,1.05.49,1.57.33,1,.66,2.08,1,3.13,0,.07-.08.09-.11,0-.37-1-.72-2-1.08-3.05-.17-.49-.35-1-.53-1.49l-.26-.78-.09-.24A30.56,30.56,0,0,0,94,277.06a23.58,23.58,0,0,0-4.7-2.7l.09.46c.09.4.18.8.26,1.21.18.83.34,1.68.5,2.52.34,1.71.54,3.45.86,5.16a.06.06,0,0,1-.11,0c-.39-1.73-.9-3.42-1.29-5.15-.19-.86-.39-1.73-.57-2.59l-.24-1.22c0-.22-.1-.45-.13-.68-.16-.06-.31-.14-.48-.2a13.92,13.92,0,0,0-7.37-1,7.24,7.24,0,0,0-5.33,4.27c-.08.19-.38.07-.34-.13A6.83,6.83,0,0,1,79.4,272.52Z" style="fill: rgb(38, 50, 56); transform-origin: 89.1082px 279.117px;" id="elonags5ucyf" class="animable"></path><path d="M93,279.81c.25,1.13.5,2.25.74,3.37a24.31,24.31,0,0,1,.62,3.28s-.06,0-.07,0a24.49,24.49,0,0,1-.75-3.29c-.22-1.11-.44-2.22-.65-3.33A.06.06,0,0,1,93,279.81Z" style="fill: rgb(38, 50, 56); transform-origin: 93.625px 283.122px;" id="el7o6tc29unm" class="animable"></path><path d="M101.52,282.67c1.13.57,2.22,1.22,3.4,1.69a.06.06,0,1,1,0,.1c-1.13-.57-2.3-1.07-3.37-1.75C101.47,282.69,101.49,282.65,101.52,282.67Z" style="fill: rgb(38, 50, 56); transform-origin: 103.253px 283.567px;" id="elinfs306518f" class="animable"></path><path d="M79.82,260.06s10.83.69,15.86-6.45,3.91-17.33,3.91-17.33-11.37,1.39-15.89,6.51S79.82,260.06,79.82,260.06Z" style="fill: #3BB1BA; transform-origin: 89.7426px 248.179px;" id="elhfei1sz06k9" class="animable"></path><path d="M74.74,270.74c.38-1.16.84-2.3,1.28-3.44s.87-2.17,1.34-3.24a69.52,69.52,0,0,1,3.25-6.38c.76-1.31,1.58-2.59,2.42-3.85,0-.19.06-.38.09-.58l.15-1c.11-.69.23-1.37.34-2.05.25-1.5.56-3,.8-4.48,0-.07.12-.07.11,0-.22,1.48-.37,3-.57,4.45-.11.72-.2,1.45-.31,2.17l-.12.79a77.8,77.8,0,0,1,5.35-6.95c.26-.3.53-.59.79-.88,0-.08.07-.16.1-.25l.24-.62.46-1.29c.31-.85.58-1.7.81-2.57a.06.06,0,0,1,.11,0c-.22.89-.45,1.78-.71,2.65-.13.43-.27.84-.41,1.26a1.8,1.8,0,0,0-.08.21c1.38-1.51,2.82-3,4.28-4.4.05,0,.13,0,.08.08a77.68,77.68,0,0,0-7.67,9.4,7.86,7.86,0,0,1,.8-.21c.83-.16,1.68-.28,2.52-.38,1.76-.23,3.52-.45,5.28-.73.07,0,.09.1,0,.11-1.67.33-3.34.71-5,1.09-.79.18-1.58.34-2.37.49a15.33,15.33,0,0,0-1.9.55c-.17.25-.35.49-.53.74-.79,1.16-1.55,2.34-2.3,3.53l1.1-.22,2.52-.45c1.65-.27,3.3-.56,4.93-.93.07,0,.1.09,0,.11-1.65.39-3.29.84-4.94,1.28-.79.21-1.59.4-2.39.58l-1.2.26a2.37,2.37,0,0,1-.49.08c-1.58,2.57-3.07,5.19-4.44,7.87-.6,1.18-1.18,2.37-1.75,3.57s-1.07,2.48-1.6,3.73C75.05,271.12,74.65,271,74.74,270.74Z" style="fill: rgb(38, 50, 56); transform-origin: 85.1285px 255.645px;" id="elslosrkzx6oa" class="animable"></path><path d="M85.82,245.86c.21-1,.42-2.06.65-3.09,0-.07.13,0,.11,0-.2,1-.4,2-.58,3.05s-.33,2-.62,3c0,0,0,0,0,0A20.82,20.82,0,0,1,85.82,245.86Z" style="fill: rgb(38, 50, 56); transform-origin: 85.981px 245.779px;" id="els9htzuso9vl" class="animable"></path><path d="M92.13,245.56c.51-.25,1-.45,1.56-.65l.82-.32.42-.17a1.89,1.89,0,0,0,.46-.2c.08-.06.13.08,0,.09a2.34,2.34,0,0,0-.46.19l-.41.19-.79.35a16.58,16.58,0,0,1-1.6.63C92.11,245.69,92.07,245.59,92.13,245.56Z" style="fill: rgb(38, 50, 56); transform-origin: 93.7841px 244.939px;" id="elccfnibh6nld" class="animable"></path><path d="M68.74,251.55s-6.55-12.24-16.51-14.13-16.07,8.36-16.07,8.36,7.27,9.28,16.41,10.9S68.74,251.55,68.74,251.55Z" style="fill: #3BB1BA; transform-origin: 52.45px 247.059px;" id="elvgq46qubo5" class="animable"></path><path d="M45.55,242.9a26.91,26.91,0,0,1,7.81.1l-.44-.24-2.21-1.14c-1.53-.8-3.08-1.64-4.68-2.29a.05.05,0,1,1,0-.1c1.56.73,3.18,1.34,4.74,2.06.78.36,1.55.73,2.31,1.13.5.26,1,.51,1.52.82A27.62,27.62,0,0,1,61,245.35L59.73,244c-.93-1-1.84-2.09-2.86-3,0,0,0-.13.08-.08,1,.95,2.14,1.82,3.16,2.81.49.48,1,1,1.41,1.48.23.26.46.52.68.79a26.29,26.29,0,0,1,13.36,18c0,.07-.09.11-.11,0a30.2,30.2,0,0,0-7.32-12.4,28.76,28.76,0,0,0-22.57-8.56C45.43,243.11,45.42,242.92,45.55,242.9Z" style="fill: rgb(38, 50, 56); transform-origin: 60.5087px 251.649px;" id="eljl0q5f2te0j" class="animable"></path><g id="elq6url0qdq3c"><path d="M36.16,245.78s7.27,9.28,16.42,10.9c7,1.24,12.71-2.4,15-4.19l.5-.83s-4.71-4-13.64-6.27S36.16,245.78,36.16,245.78Z" style="opacity: 0.1; transform-origin: 52.12px 250.703px;" class="animable" id="elfxc3t0xfkwo"></path></g><path d="M51.33,238.54A25,25,0,0,1,53.55,240a13.92,13.92,0,0,1,1.92,1.76c.05.06,0,.13-.09.08-.66-.57-1.32-1.15-2-1.69a19.09,19.09,0,0,0-2.09-1.51C51.21,238.6,51.27,238.5,51.33,238.54Z" style="fill: rgb(38, 50, 56); transform-origin: 53.3706px 240.194px;" id="elmx3nl84ax9" class="animable"></path><path d="M45.87,240.61c.36.16.74.29,1.11.44l1.11.46c.08,0,0,.16,0,.13l-1.11-.45-1.11-.47C45.77,240.69,45.8,240.58,45.87,240.61Z" style="fill: rgb(38, 50, 56); transform-origin: 46.9657px 241.124px;" id="elljq9t2xlh6l" class="animable"></path><path d="M70.05,267s-1.75,12.14-10.88,16.38-20.25,0-20.25,0S43.29,257.07,70.05,267Z" style="fill: #3BB1BA; transform-origin: 54.485px 275.012px;" id="el1bt3q0ete6a" class="animable"></path><path d="M45.21,275.44c.84-.1,1.67-.24,2.51-.39l1.22-.24c.21,0,.43-.09.65-.12.24-.23.48-.47.73-.69a37,37,0,0,1,5.59-4,30.09,30.09,0,0,1,3.34-1.72h-.17l-3,.13c-2,.1-4,.14-6,.27-.07,0-.07-.11,0-.11,2-.14,4-.36,6-.53l2.91-.26,1.51-.13.38,0c.52-.2,1-.38,1.58-.55a14.22,14.22,0,0,1,7.73-.42c2.3.59,4.59,2.09,5.18,4.51,0,.09-.11.14-.14.06-.86-2-3.1-3-5.13-3.46a11.94,11.94,0,0,0-4.13-.08,10,10,0,0,1-.47,1.83c-.25.86-.5,1.71-.76,2.56-.51,1.71-1.08,3.4-1.59,5.1,0,.07-.12,0-.11,0,.43-1.7.79-3.42,1.2-5.13.2-.84.41-1.67.62-2.51a12.93,12.93,0,0,1,.46-1.72,22.7,22.7,0,0,0-2.37.55,36.7,36.7,0,0,0-4.14,1.52c-.13.87-.33,1.72-.52,2.58-.25,1.07-.53,2.13-.87,3.18,0,.06-.12,0-.1,0a1.18,1.18,0,0,1,0-.2h0c.2-1,.42-2,.63-3,.17-.8.33-1.6.5-2.4-1.13.51-2.25,1.07-3.33,1.69,0,.24-.08.5-.12.72-.06.42-.14.83-.21,1.25-.17.93-.36,1.87-.59,2.79a43.82,43.82,0,0,1-1.56,5.28.06.06,0,0,1,0,.07l0,.06c0,.05-.1,0-.09-.06.42-1.79.9-3.58,1.3-5.38.2-.9.4-1.81.58-2.71.09-.45.17-.91.26-1.36l.06-.41a39.29,39.29,0,0,0-3.56,2.37,38.8,38.8,0,0,0-5.44,5c-.06.07-.19,0-.13-.11.7-.91,1.39-1.81,2.18-2.65.45-.49.93-1,1.42-1.43l-.15,0-1.29.2c-.84.11-1.69.19-2.54.29C45.16,275.56,45.13,275.45,45.21,275.44Z" style="fill: rgb(38, 50, 56); transform-origin: 60.2665px 274.142px;" id="el81r0gvgtvp6" class="animable"></path><path d="M51.62,279.55h0c0-.1,0-.21.05-.31s.09-.26.11-.4h0c.18-.81.34-1.63.49-2.45,0-.06.1,0,.1,0a9.85,9.85,0,0,1-.7,3.17s-.07,0-.06,0Z" style="fill: rgb(38, 50, 56); transform-origin: 51.9895px 277.962px;" id="eli5ygg2e1uvo" class="animable"></path><path d="M59.26,279.36a.05.05,0,0,1,.05-.05c.26-1.08.51-2.15.73-3.24.11-.56.23-1.13.34-1.7.06-.31.12-.62.17-.93a2.64,2.64,0,0,1,.2-.78.05.05,0,0,1,.1,0,5.06,5.06,0,0,1-.23,1.63c-.11.59-.22,1.19-.35,1.77-.27,1.2-.57,2.39-.91,3.57a.06.06,0,0,1-.12,0Z" style="fill: rgb(38, 50, 56); transform-origin: 60.0457px 276.15px;" id="elb3fl1zrgek8" class="animable"></path><path d="M46,271.94c1.66-.23,3.33-.47,5-.67.07,0,.1.1,0,.11-1.67.24-3.34.45-5,.67C46,272.06,46,272,46,271.94Z" style="fill: rgb(38, 50, 56); transform-origin: 48.5321px 271.661px;" id="el5sc3ieep5s" class="animable"></path><path d="M74.73,238.48S80.31,214,54,204.06C54,204.06,46.69,236.32,74.73,238.48Z" style="fill: #3BB1BA; transform-origin: 64.1832px 221.27px;" id="eln31mbcegbrq" class="animable"></path><path d="M69,224.59l-.28-.18-1.49-.83-3-1.71c-2-1.12-4-2.29-6-3.39-.06,0,0-.13.06-.09,2,1.1,4.09,2.13,6.13,3.21l3,1.59,1.23.65c-.88-1.66-1.82-3.3-2.85-4.87-1.37-2.1-2.88-4.1-4.45-6.05a.09.09,0,0,1,.13-.13,42.49,42.49,0,0,1,6.09,7.47,2.35,2.35,0,0,1,0-.26q0-.92-.06-1.83c0-1.19,0-2.39,0-3.59,0-.07.11-.06.11,0,0,1.17.19,2.35.26,3.52,0,.59.06,1.18.07,1.77,0,.31,0,.68,0,1,.54.87,1.06,1.74,1.56,2.63a47.43,47.43,0,0,1,2.35,4.93c0-.61.06-1.22.1-1.83.08-1.34.24-2.67.3-4,0-.07.11-.07.11,0,0,1.34,0,2.68,0,4,0,.67,0,1.34-.08,2,0,.25,0,.5,0,.75a43.68,43.68,0,0,1,2,6.74,73.43,73.43,0,0,1,1,7.4s0,0,0,0a40.23,40.23,0,0,0-1.39-6.59c-.33-1.16-.67-2.31-1-3.45-1.1-.52-2.15-1.16-3.21-1.75s-2.2-1.2-3.3-1.81c-2.2-1.2-4.39-2.43-6.66-3.49-.06,0,0-.13.06-.1,2.3,1,4.61,2,6.87,3.16,1.12.57,2.22,1.17,3.32,1.79.91.51,1.85,1,2.72,1.62-.25-.76-.52-1.52-.81-2.27A64.17,64.17,0,0,0,69,224.59Z" style="fill: rgb(38, 50, 56); transform-origin: 66.7476px 228.127px;" id="el6dnumnt707i" class="animable"></path><path d="M71.26,219c0-.07.12-.07.11,0-.09,1.39-.14,2.79-.29,4.18a.06.06,0,0,1-.12,0C71,221.77,71.16,220.38,71.26,219Z" style="fill: rgb(38, 50, 56); transform-origin: 71.1653px 221.094px;" id="elaajjs7esndq" class="animable"></path><path d="M58.64,223.66c1.65.67,3.31,1.3,5,2,0,0,0,.1,0,.08-1.67-.63-3.31-1.3-5-1.95A.06.06,0,0,1,58.64,223.66Z" style="fill: rgb(38, 50, 56); transform-origin: 61.1075px 224.701px;" id="elwwk4m44ftx" class="animable"></path><path d="M56.14,212.36a43.83,43.83,0,0,1,4.68,2.51c.08,0,0,.17-.07.12-1.53-.89-3.09-1.75-4.67-2.53C56,212.42,56.07,212.33,56.14,212.36Z" style="fill: rgb(38, 50, 56); transform-origin: 58.4489px 213.677px;" id="ellq3ro4xnaqb" class="animable"></path><g id="eltn7h3dgvrq"><rect x="56.53" y="291.47" width="37.97" height="40.02" style="fill: rgb(69, 90, 100); transform-origin: 75.515px 311.48px; transform: rotate(180deg);" class="animable" id="el6zxdhkhtqew"></rect></g><rect x="95.17" y="305.63" width="1.94" height="68.55" style="fill: rgb(38, 50, 56); transform-origin: 96.14px 339.905px;" id="el7qlq54lwbm9" class="animable"></rect><rect x="54.13" y="305.63" width="1.94" height="68.55" style="fill: rgb(38, 50, 56); transform-origin: 55.1px 339.905px;" id="elc8txwz38k7i" class="animable"></rect><rect x="73.62" y="305.63" width="1.94" height="68.55" style="fill: rgb(38, 50, 56); transform-origin: 74.59px 339.905px;" id="elrvk0utwblya" class="animable"></rect><g id="elkmpd19gutk"><rect x="55.1" y="328.92" width="41.05" height="5.54" style="fill: rgb(38, 50, 56); transform-origin: 75.625px 331.69px; transform: rotate(180deg);" class="animable" id="ela3s15g55nab"></rect></g></g><g id="freepik--Desk--inject-134" class="animable" style="transform-origin: 249.995px 344.595px;"><rect x="104.16" y="373.42" width="26.98" height="4.74" style="fill: rgb(69, 90, 100); transform-origin: 117.65px 375.79px;" id="eltgpkrvtvu3" class="animable"></rect><polygon points="145.77 442.84 142.85 442.84 119.09 331.9 117.73 325.58 113.47 305.66 111.88 298.24 105.9 270.37 103.81 260.61 114.19 260.61 115.88 270.37 116.99 276.78 117.73 281.05 121.99 305.66 123.37 313.59 145.77 442.84" style="fill: rgb(69, 90, 100); transform-origin: 124.79px 351.725px;" id="el2jjm2ruswga" class="animable"></polygon><polygon points="114.19 260.61 115.88 270.37 105.9 270.37 103.81 260.61 114.19 260.61" style="fill: rgb(38, 50, 56); transform-origin: 109.845px 265.49px;" id="eluwq047ey3yj" class="animable"></polygon><polygon points="123.37 313.59 119.09 331.9 117.73 325.58 113.47 305.66 111.88 298.24 116.99 276.78 117.73 281.05 121.99 305.66 123.37 313.59" style="fill: rgb(38, 50, 56); transform-origin: 117.625px 304.34px;" id="elbbghwvpebij" class="animable"></polygon><polygon points="131.65 260.61 129.56 270.37 121.99 305.66 117.73 325.58 92.61 442.84 89.7 442.84 113.47 305.66 117.73 281.05 119.58 270.37 121.27 260.61 131.65 260.61" style="fill: rgb(69, 90, 100); transform-origin: 110.675px 351.725px;" id="elghf6f4fikwv" class="animable"></polygon><polygon points="131.65 260.61 129.56 270.37 119.58 270.37 121.27 260.61 131.65 260.61" style="fill: rgb(38, 50, 56); transform-origin: 125.615px 265.49px;" id="el92oj7618a6" class="animable"></polygon><rect x="368.69" y="373.42" width="26.98" height="4.74" style="fill: rgb(69, 90, 100); transform-origin: 382.18px 375.79px;" id="elohsv2qrc3f" class="animable"></rect><polygon points="410.3 442.84 407.38 442.84 383.62 331.9 382.26 325.58 378 305.66 376.41 298.24 370.43 270.37 368.34 260.61 378.72 260.61 380.41 270.37 381.52 276.78 382.26 281.05 386.52 305.66 387.9 313.59 410.3 442.84" style="fill: rgb(69, 90, 100); transform-origin: 389.32px 351.725px;" id="el6ts98snr18" class="animable"></polygon><polygon points="378.72 260.61 380.41 270.37 370.43 270.37 368.34 260.61 378.72 260.61" style="fill: rgb(38, 50, 56); transform-origin: 374.375px 265.49px;" id="elheuza1qucmf" class="animable"></polygon><polygon points="387.9 313.59 383.62 331.9 382.26 325.58 378 305.66 376.41 298.24 381.52 276.78 382.26 281.05 386.52 305.66 387.9 313.59" style="fill: rgb(38, 50, 56); transform-origin: 382.155px 304.34px;" id="elkeh1kkaosoi" class="animable"></polygon><polygon points="396.18 260.61 394.09 270.37 386.52 305.66 382.26 325.58 357.14 442.84 354.23 442.84 378 305.66 382.26 281.05 384.11 270.37 385.8 260.61 396.18 260.61" style="fill: rgb(69, 90, 100); transform-origin: 375.205px 351.725px;" id="el1464i41frc" class="animable"></polygon><polygon points="396.18 260.61 394.09 270.37 384.11 270.37 385.8 260.61 396.18 260.61" style="fill: rgb(38, 50, 56); transform-origin: 390.145px 265.49px;" id="el29vldz2wryj" class="animable"></polygon><rect x="83.6" y="246.35" width="332.79" height="14.26" style="fill: rgb(69, 90, 100); transform-origin: 249.995px 253.48px;" id="elod8s1d8k9h" class="animable"></rect></g><g id="freepik--Device--inject-134" class="animable" style="transform-origin: 309.215px 222.535px;"><rect x="248.18" y="243.12" width="71.95" height="3.23" style="fill: rgb(166, 166, 166); transform-origin: 284.155px 244.735px;" id="elt06p7fke1s" class="animable"></rect><rect x="248.18" y="243.12" width="36.22" height="3.23" style="fill: rgb(219, 219, 219); transform-origin: 266.29px 244.735px;" id="el5jrmuxywwvj" class="animable"></rect><polygon points="290.22 246.34 360.34 246.34 370.25 198.72 300.13 198.72 290.22 246.34" style="fill: rgb(219, 219, 219); transform-origin: 330.235px 222.53px;" id="el3m8t64s0bi6" class="animable"></polygon><path d="M324.8,223.59a4.13,4.13,0,0,0,4.18,4.68,5.33,5.33,0,0,0,5.17-4.68,4.13,4.13,0,0,0-4.19-4.67A5.31,5.31,0,0,0,324.8,223.59Z" style="fill: rgb(255, 255, 255); transform-origin: 329.474px 223.595px;" id="eltlakr6jw16" class="animable"></path></g><g id="freepik--Clock--inject-134" class="animable" style="transform-origin: 392.443px 79.4127px;"><circle cx="391.79" cy="79.13" r="31.37" style="fill: #3BB1BA; transform-origin: 391.79px 79.13px;" id="el0ohp5tr1aoz" class="animable"></circle><g id="el4xskoerhen4"><circle cx="393.23" cy="79.83" r="29.93" style="opacity: 0.1; transform-origin: 393.23px 79.83px;" class="animable" id="elt0dty7avcvf"></circle></g><g id="elx7my98lp1yg"><circle cx="393.23" cy="79.83" r="28.04" style="fill: rgb(255, 255, 255); transform-origin: 393.23px 79.83px; transform: rotate(-6.97deg);" class="animable" id="el8mc564jdq8c"></circle></g><g id="ell00t64k6rnj"><path d="M420.64,73.88c-12.77,7.73-33.76,20.43-45.49,27.38A28,28,0,0,1,367.48,91l38.8-36A28.07,28.07,0,0,1,420.64,73.88Z" style="fill: rgb(235, 235, 235); opacity: 0.5; transform-origin: 394.06px 78.13px;" class="animable" id="el4im8o1praqs"></path></g><g id="elzn706nvxvop"><path d="M421.25,80.81a27.58,27.58,0,0,1-1.85,9.11l-35,16.54a27.9,27.9,0,0,1-4.42-1.9C390.57,98.46,409.88,87.35,421.25,80.81Z" style="fill: rgb(235, 235, 235); opacity: 0.5; transform-origin: 400.615px 93.635px;" class="animable" id="elas5uuotug4v"></path></g><rect x="392.96" y="53.82" width="0.54" height="4.25" style="fill: rgb(199, 199, 199); transform-origin: 393.23px 55.945px;" id="elk7l6bf6mk2" class="animable"></rect><g id="elxer7mkgusd"><rect x="381.02" y="57.02" width="0.54" height="4.25" style="fill: rgb(199, 199, 199); transform-origin: 381.29px 59.145px; transform: rotate(-30deg);" class="animable" id="elhas95sfc137"></rect></g><g id="el2wlt74jta8g"><rect x="372.27" y="65.76" width="0.54" height="4.25" style="fill: rgb(199, 199, 199); transform-origin: 372.54px 67.885px; transform: rotate(-60deg);" class="animable" id="elatoqb9gfknh"></rect></g><rect x="367.22" y="79.56" width="4.25" height="0.54" style="fill: rgb(199, 199, 199); transform-origin: 369.345px 79.83px;" id="elpotc392syx" class="animable"></rect><g id="elakbj6fqtawn"><rect x="370.42" y="91.5" width="4.25" height="0.54" style="fill: rgb(199, 199, 199); transform-origin: 372.545px 91.77px; transform: rotate(-30deg);" class="animable" id="el4pucvrf74rp"></rect></g><g id="elvh7fbsnov4m"><rect x="379.16" y="100.24" width="4.25" height="0.54" style="fill: rgb(199, 199, 199); transform-origin: 381.285px 100.51px; transform: rotate(-60.03deg);" class="animable" id="elzcdne1hd65l"></rect></g><rect x="392.96" y="101.58" width="0.54" height="4.25" style="fill: rgb(199, 199, 199); transform-origin: 393.23px 103.705px;" id="elzyemr5v0i1n" class="animable"></rect><g id="el9ebjer4ggdt"><rect x="404.9" y="98.39" width="0.54" height="4.25" style="fill: rgb(199, 199, 199); transform-origin: 405.17px 100.515px; transform: rotate(-30deg);" class="animable" id="el7ma4wrpttxx"></rect></g><g id="elpj64s8k3y4"><rect x="413.64" y="89.64" width="0.54" height="4.25" style="fill: rgb(199, 199, 199); transform-origin: 413.91px 91.765px; transform: rotate(-60deg);" class="animable" id="elg5fv235r9ip"></rect></g><rect x="414.99" y="79.56" width="4.25" height="0.54" style="fill: rgb(199, 199, 199); transform-origin: 417.115px 79.83px;" id="el9moeot35rwg" class="animable"></rect><g id="elg1x72g9rypu"><rect x="411.79" y="67.61" width="4.25" height="0.54" style="fill: rgb(199, 199, 199); transform-origin: 413.915px 67.88px; transform: rotate(-30deg);" class="animable" id="elyco57q92z9k"></rect></g><g id="elqygeumh42v"><rect x="403.04" y="58.87" width="4.25" height="0.54" style="fill: rgb(199, 199, 199); transform-origin: 405.165px 59.14px; transform: rotate(-60.02deg);" class="animable" id="elpudu7hewh"></rect></g><polygon points="409.9 62.24 390.88 79.96 392.79 81.82 410.42 62.75 409.9 62.24" style="fill: rgb(69, 90, 100); transform-origin: 400.65px 72.03px;" id="elizmjxn4fz4" class="animable"></polygon><polygon points="387.84 61.43 392.31 81.67 394.86 80.92 388.53 61.22 387.84 61.43" style="fill: rgb(38, 50, 56); transform-origin: 391.35px 71.445px;" id="eld6bstf9o1jn" class="animable"></polygon><path d="M392.59,79.18a.91.91,0,0,0,1.28,1.29.92.92,0,0,0,0-1.29A.91.91,0,0,0,392.59,79.18Z" style="fill: #3BB1BA; transform-origin: 393.245px 79.8085px;" id="elczxfhmwad6k" class="animable"></path></g><g id="freepik--Sheets--inject-134" class="animable" style="transform-origin: 366.13px 226.045px;"><rect x="338.08" y="205.74" width="42.26" height="40.61" style="fill: rgb(255, 255, 255); transform-origin: 359.21px 226.045px;" id="elbd9gw7jhtd8" class="animable"></rect><rect x="380.34" y="205.74" width="16.06" height="40.61" style="fill: rgb(199, 199, 199); transform-origin: 388.37px 226.045px;" id="elzojgmykpma" class="animable"></rect><polygon points="338.08 226.04 380.34 226.04 347.34 227.09 338.08 226.04" style="fill: rgb(199, 199, 199); transform-origin: 359.21px 226.565px;" id="eli2ok5mw9f4" class="animable"></polygon><polygon points="380.34 241.44 338.08 241.44 371.09 242.49 380.34 241.44" style="fill: rgb(199, 199, 199); transform-origin: 359.21px 241.965px;" id="elmef4569kmgg" class="animable"></polygon><polygon points="338.08 214.69 364.85 214.69 341.06 215.54 338.08 214.69" style="fill: rgb(199, 199, 199); transform-origin: 351.465px 215.115px;" id="el1tnte74hx6m" class="animable"></polygon><polygon points="380.34 235.46 353.57 235.46 377.37 236.31 380.34 235.46" style="fill: rgb(199, 199, 199); transform-origin: 366.955px 235.885px;" id="el5sm0ogcee96" class="animable"></polygon><polygon points="348.22 210.17 378.41 210.17 373.38 210.68 348.22 210.17" style="fill: rgb(199, 199, 199); transform-origin: 363.315px 210.425px;" id="el9xm07hvaqvb" class="animable"></polygon><polygon points="342.19 230.4 372.38 230.4 367.35 230.91 342.19 230.4" style="fill: rgb(199, 199, 199); transform-origin: 357.285px 230.655px;" id="el1nb0kfg9wsp" class="animable"></polygon><polygon points="360.76 218.56 380.34 218.56 383.84 219.92 360.76 218.56" style="fill: rgb(255, 255, 255); transform-origin: 372.3px 219.24px;" id="ella6rq9asd6k" class="animable"></polygon><polygon points="332.69 218.56 352.27 218.56 355.77 219.92 332.69 218.56" style="fill: rgb(219, 219, 219); transform-origin: 344.23px 219.24px;" id="elcvh3fhgww59" class="animable"></polygon><polygon points="357.82 236.81 338.23 236.81 334.73 238.17 357.82 236.81" style="fill: rgb(219, 219, 219); transform-origin: 346.275px 237.49px;" id="els7anhnd1lye" class="animable"></polygon><polygon points="380.34 232.17 396.07 232.17 399.57 233.54 380.34 232.17" style="fill: rgb(199, 199, 199); transform-origin: 389.955px 232.855px;" id="elad85q6050e" class="animable"></polygon><polygon points="385.83 226.04 398.03 226.04 396.4 224.93 385.83 226.04" style="fill: rgb(199, 199, 199); transform-origin: 391.93px 225.485px;" id="eltupmlqcs10g" class="animable"></polygon></g><g id="freepik--Mug--inject-134" class="animable" style="transform-origin: 119.913px 214.365px;"><g id="elxarudb1gfok"><path d="M116.86,224.78s-12.68-5.84-12.68-13.67,16.45-12.87,16.45-19-7.17-9.72-7.17-9.72,11.32,3.87,11.32,11.61-10.84,13-11.87,17.91C111.47,218.76,116.86,224.78,116.86,224.78Z" style="fill: rgb(219, 219, 219); opacity: 0.6; transform-origin: 114.48px 203.585px;" class="animable" id="els4h4v9g0qt"></path></g><g id="elel45umnwgwm"><path d="M116.24,224.78s12.67-4.59,12.67-10.75-16.44-10.12-16.44-14.93,7.17-7.64,7.17-7.64-11.32,3-11.32,9.13,12.44,10.27,13.33,15.21S116.24,224.78,116.24,224.78Z" style="fill: rgb(219, 219, 219); opacity: 0.6; transform-origin: 118.615px 208.12px;" class="animable" id="elu9yx65l7kp"></path></g><rect x="110.7" y="244.46" width="12.06" height="1.88" style="fill: #3BB1BA; transform-origin: 116.73px 245.4px;" id="elti6swhqxux" class="animable"></rect><g id="el0bn5rd4oux2m"><rect x="110.7" y="244.46" width="12.06" height="1.24" style="opacity: 0.1; transform-origin: 116.73px 245.08px;" class="animable" id="el9u6oe0x86ze"></rect></g><path d="M137.07,239.4a6.82,6.82,0,0,1-6.79,2.91,7.25,7.25,0,0,1-1.22-.35,8.83,8.83,0,0,1-1.71-.9l1.53-2.27a5.68,5.68,0,0,0,.91.51,4,4,0,0,0,5.05-1.48c1.65-2.32,2.24-7.63.57-9.67-.11-.15-.6-.39-2.54,0-.36.08-.77.17-1.23.29a4.5,4.5,0,0,1-1.1.24l0-1.36-.13-1.36c.13,0,.32-.08.58-.15a16.58,16.58,0,0,1,2.74-.57,4.16,4.16,0,0,1,3.84,1.15C140.24,229.75,139.14,236.49,137.07,239.4Z" style="fill: #3BB1BA; transform-origin: 133.248px 233.776px;" id="elafqvcxkw4k4" class="animable"></path><g id="elyu9fjg0pfd"><path d="M128.88,238.79a5.68,5.68,0,0,0,.91.51l-.73,2.66a8.83,8.83,0,0,1-1.71-.9Z" style="opacity: 0.1; transform-origin: 128.57px 240.375px;" class="animable" id="el8ux0i63h8e6"></path></g><g id="el3dpu8xe3nxe"><path d="M133.68,225.27l-.81,2.91c-.36.08-.77.17-1.23.29a4.5,4.5,0,0,1-1.1.24l0-1.36-.13-1.36c.13,0,.32-.08.58-.15A16.58,16.58,0,0,1,133.68,225.27Z" style="opacity: 0.1; transform-origin: 132.045px 226.99px;" class="animable" id="elpuhf9w8c8v"></path></g><path d="M100.68,221.72s.11.89.31,2.31c0,.22.07.45.11.69.14,1,.33,2.12.55,3.36l0,.21c.32,1.78.71,3.71,1.16,5.54,0,.08,0,.16.07.23.12.49.26,1,.39,1.44s.27.91.41,1.35a23.62,23.62,0,0,0,.92,2.33c2.5,5.17,6,5.74,8.15,5.74h7.89c2.16,0,5.66-.57,8.15-5.74.07-.16.15-.33.22-.51s.12-.26.17-.39.11-.26.16-.41.07-.19.11-.29a41.71,41.71,0,0,0,1.29-4.48,1.33,1.33,0,0,0,0-.19s0,0,0-.08c.15-.64.29-1.29.42-1.93.23-1.06.43-2.1.6-3.09.07-.45.15-.89.22-1.32l.06-.35c.05-.28.09-.56.13-.83s.08-.52.12-.76.06-.48.1-.7c.19-1.31.28-2.13.28-2.13Z" style="fill: #3BB1BA; transform-origin: 116.675px 233.32px;" id="eln7d0j2zbvti" class="animable"></path><g id="elltkawsm6xwc"><path d="M101.68,228.29c.32,1.78.71,3.71,1.16,5.54a4.21,4.21,0,0,1,.6.11,8.26,8.26,0,0,1,2.71,1.17,15.83,15.83,0,0,1,2.26,1.89,16.76,16.76,0,0,0,2.2,1.87,5.1,5.1,0,0,0,2.64.85,3.32,3.32,0,0,0,2.41-1.14,15.63,15.63,0,0,0,1.8-2.24,26.51,26.51,0,0,1,1.78-2.36,6.72,6.72,0,0,1,1.11-1,4.63,4.63,0,0,1,.7-.36,2.36,2.36,0,0,1,.78-.13,3,3,0,0,1,1.51.37,6,6,0,0,1,1.21.9c.74.67,1.36,1.44,2,2.15a5,5,0,0,0,2.24,1.66,1.56,1.56,0,0,0,.68,0,41.71,41.71,0,0,0,1.29-4.48c-.25-.07-.52-.13-.77-.22a8.09,8.09,0,0,1-2.59-1.42,17.1,17.1,0,0,1-2.07-2.1,18,18,0,0,0-2-2.08,5.11,5.11,0,0,0-2.54-1.11,3.34,3.34,0,0,0-2.51.91,15.52,15.52,0,0,0-2,2,29.48,29.48,0,0,1-2,2.18,6,6,0,0,1-1.2.91,5,5,0,0,1-.73.29,2.7,2.7,0,0,1-.8.06,3,3,0,0,1-1.46-.53,6,6,0,0,1-1.12-1c-.67-.73-1.21-1.56-1.79-2.33a5.08,5.08,0,0,0-2.06-1.88,2.82,2.82,0,0,0-2.57.77C102.25,227.81,102,228.05,101.68,228.29Z" style="opacity: 0.1; transform-origin: 116.22px 232.937px;" class="animable" id="elztdntdi9lja"></path></g><path d="M101.65,228.08l0,.21c.29-.24.57-.48.86-.7a2.82,2.82,0,0,1,2.57-.77,5.08,5.08,0,0,1,2.06,1.88c.58.77,1.12,1.6,1.79,2.33a6,6,0,0,0,1.12,1,3,3,0,0,0,1.46.53,2.7,2.7,0,0,0,.8-.06,5,5,0,0,0,.73-.29,6,6,0,0,0,1.2-.91,29.48,29.48,0,0,0,2-2.18,15.52,15.52,0,0,1,2-2,3.34,3.34,0,0,1,2.51-.91,5.11,5.11,0,0,1,2.54,1.11,18,18,0,0,1,2,2.08,17.1,17.1,0,0,0,2.07,2.1,8.09,8.09,0,0,0,2.59,1.42c.25.09.52.15.77.22a1.33,1.33,0,0,0,0-.19c-.25-.08-.5-.15-.75-.25a10,10,0,0,1-4.45-3.53,15.93,15.93,0,0,0-2-2.17,5.63,5.63,0,0,0-2.74-1.21,3.78,3.78,0,0,0-2.85,1,15.86,15.86,0,0,0-2.08,2.1c-.65.74-1.26,1.49-2,2.15a3.26,3.26,0,0,1-2.4,1.16,3.55,3.55,0,0,1-2.31-1.38c-.64-.71-1.2-1.51-1.8-2.29a5.35,5.35,0,0,0-2.27-1.93,2.24,2.24,0,0,0-1.51.08,4.81,4.81,0,0,0-1.28.79A9.45,9.45,0,0,0,101.65,228.08Z" style="fill: rgb(255, 255, 255); transform-origin: 116.187px 229.46px;" id="eltfhxoolzfar" class="animable"></path><path d="M102.84,233.83c0,.08,0,.16.07.23l.47.11a10.06,10.06,0,0,1,4.79,3.08,14.9,14.9,0,0,0,2.22,2,5.65,5.65,0,0,0,2.85.94A3.71,3.71,0,0,0,116,238.9a16.22,16.22,0,0,0,1.88-2.29,27,27,0,0,1,1.73-2.33,3.26,3.26,0,0,1,2.26-1.39,3.55,3.55,0,0,1,2.44,1.15c.71.64,1.34,1.39,2,2.1a5.37,5.37,0,0,0,2.43,1.71,2,2,0,0,0,.64,0c0-.09.07-.19.11-.29a1.56,1.56,0,0,1-.68,0,5,5,0,0,1-2.24-1.66c-.65-.71-1.27-1.48-2-2.15a6,6,0,0,0-1.21-.9,3,3,0,0,0-1.51-.37,2.36,2.36,0,0,0-.78.13,4.63,4.63,0,0,0-.7.36,6.72,6.72,0,0,0-1.11,1,26.51,26.51,0,0,0-1.78,2.36,15.63,15.63,0,0,1-1.8,2.24,3.32,3.32,0,0,1-2.41,1.14,5.1,5.1,0,0,1-2.64-.85,16.76,16.76,0,0,1-2.2-1.87,15.83,15.83,0,0,0-2.26-1.89,8.26,8.26,0,0,0-2.71-1.17A4.21,4.21,0,0,0,102.84,233.83Z" style="fill: rgb(255, 255, 255); transform-origin: 116.165px 236.335px;" id="eljua61jeby0g" class="animable"></path></g><g id="freepik--trash-bin--inject-134" class="animable" style="transform-origin: 422.402px 343.572px;"><path d="M416.22,368.68c1.35.44,2.56,1.43,3.33.11s2.84-.93,3.61-1.21,1.84-2.5,1.79-3.2-.63-1.41-.63-2.07,0-1.63-.12-2.54a3,3,0,0,0-1.57-2.85,6.74,6.74,0,0,0-3.12-.5c-.88-.09-1.53-1.51-3.3-2.06s-4.07,1.43-4.28,2.22-.36,3.19-1,4.09-1.58.6-1.73,1.71-.1,2.94.22,3.27,1.19-.16,1.58.51.74,2.43,1.55,2.84S415.19,368.34,416.22,368.68Z" style="fill: rgb(235, 235, 235); transform-origin: 417.035px 361.858px;" id="el9uet9v01e25" class="animable"></path><polygon points="401.57 314.7 399.86 316.43 399.8 315.8 399.8 315.79 400.89 314.7 401.57 314.7" style="fill: rgb(38, 50, 56); transform-origin: 400.685px 315.565px;" id="elzoehw26onqk" class="animable"></polygon><polygon points="408.1 314.7 402.25 320.59 400.36 322.46 400.32 322.07 400.32 322.06 400.31 321.84 401.89 320.24 407.46 314.7 408.1 314.7" style="fill: rgb(38, 50, 56); transform-origin: 404.205px 318.58px;" id="el50lrba6teua" class="animable"></polygon><polygon points="414.63 314.7 405.51 323.87 400.88 328.48 400.87 328.39 400.82 327.88 405.17 323.51 414.04 314.7 414.63 314.7" style="fill: rgb(38, 50, 56); transform-origin: 407.725px 321.59px;" id="el4icpbba2m7j" class="animable"></polygon><polygon points="421.15 314.7 408.8 327.14 401.38 334.5 401.33 333.93 408.44 326.79 420.6 314.7 421.15 314.7" style="fill: rgb(38, 50, 56); transform-origin: 411.24px 324.6px;" id="el6tm224k7wt" class="animable"></polygon><path d="M427.65,314.7c-.88.91-1.77,1.81-2.66,2.71l-12.93,13-10.17,10.11,0-.54,9.86-9.93,13-12.92c.82-.82,1.65-1.63,2.48-2.44Z" style="fill: rgb(38, 50, 56); transform-origin: 414.77px 327.605px;" id="elvi19u86v0p" class="animable"></path><path d="M434.15,314.7q-2.94,3-5.89,6l-12.92,13L402.4,346.54l0-.5L415,333.34l13-12.93,5.8-5.71Z" style="fill: rgb(38, 50, 56); transform-origin: 418.275px 330.62px;" id="elmjkwsrdyg3h" class="animable"></path><path d="M440.61,314.7q-4.51,4.65-9.08,9.26l-12.92,13-13,12.93c-.89.89-1.79,1.77-2.69,2.65l0-.42c.81-.84,1.64-1.67,2.46-2.5l12.93-13,13-12.92q4.56-4.51,9.16-9Z" style="fill: rgb(38, 50, 56); transform-origin: 421.765px 333.62px;" id="elocvfqhxxm7" class="animable"></path><path d="M447,314.77v0q-6.06,6.24-12.17,12.42l-12.93,13-13,12.92-5.46,5.37,0-.33q2.6-2.65,5.22-5.31l12.92-13,13-12.92Q440.72,320.84,447,314.77Z" style="fill: rgb(38, 50, 56); transform-origin: 425.22px 336.625px;" id="elmun9medtsx" class="animable"></path><path d="M446.39,321.82v0l0,.22h0q-4.14,4.23-8.29,8.44l-12.92,13-13,12.93q-4.09,4.05-8.23,8.08v0l0-.2q4-4.08,8-8.13l12.92-13,13-12.93Q442.09,326,446.39,321.82Z" style="fill: rgb(38, 50, 56); transform-origin: 425.17px 343.155px;" id="elathsdy5w0gd" class="animable"></path><path d="M445.79,328.88l0,.44-4.39,4.46-12.93,13-13,12.92q-5.31,5.25-10.67,10.46h-.12q5.22-5.4,10.51-10.73l12.93-13,13-12.92Z" style="fill: rgb(38, 50, 56); transform-origin: 425.235px 349.52px;" id="el7zpx4w534w5" class="animable"></path><path d="M445.19,336l-.05.57-.51.52-12.92,13L418.7,363q-3.65,3.61-7.31,7.19h-.29q3.66-3.74,7.33-7.46l12.92-13,13-12.93Z" style="fill: rgb(38, 50, 56); transform-origin: 428.145px 353.095px;" id="elyuldkto6ys" class="animable"></path><path d="M444.58,343.09l-.05.63L435,353.33l-13,12.93-4,3.91h-.42q2.06-2.1,4.12-4.18l12.93-13Z" style="fill: rgb(38, 50, 56); transform-origin: 431.08px 356.63px;" id="elq6uyaoadm6n" class="animable"></path><path d="M444,350.21l-.06.69-5.67,5.71-13,12.92-.65.64h-.52l.9-.91,12.92-13Z" style="fill: rgb(38, 50, 56); transform-origin: 434.05px 360.19px;" id="ellxaew6abmc" class="animable"></path><polygon points="443.38 357.34 443.31 358.09 441.54 359.88 431.18 370.17 430.61 370.17 441.18 359.53 443.38 357.34" style="fill: rgb(38, 50, 56); transform-origin: 436.995px 363.755px;" id="el2d6cjjpbtd3" class="animable"></polygon><polygon points="442.77 364.49 442.77 364.52 442.71 365.24 437.75 370.17 437.13 370.17 442.77 364.49" style="fill: rgb(38, 50, 56); transform-origin: 439.95px 367.33px;" id="elw3edkejbr6" class="animable"></polygon><polygon points="446.9 315.79 446.85 316.44 445.13 314.7 445.81 314.7 446.9 315.79" style="fill: rgb(38, 50, 56); transform-origin: 446.015px 315.57px;" id="elw3x799oxa4" class="animable"></polygon><polygon points="446.39 321.84 446.33 322.46 444.45 320.59 438.6 314.7 439.24 314.7 444.81 320.24 446.39 321.84" style="fill: rgb(38, 50, 56); transform-origin: 442.495px 318.58px;" id="elg6tp7znsghp" class="animable"></polygon><polygon points="445.88 327.88 445.83 328.39 445.82 328.49 441.18 323.87 432.06 314.7 432.67 314.7 441.54 323.51 445.88 327.88" style="fill: rgb(38, 50, 56); transform-origin: 438.97px 321.595px;" id="elmqf4y8x50ia" class="animable"></polygon><polygon points="445.37 333.94 445.31 334.51 437.9 327.14 425.55 314.7 426.1 314.7 438.25 326.79 445.37 333.94" style="fill: rgb(38, 50, 56); transform-origin: 435.46px 324.605px;" id="elq6i6kgcqnbk" class="animable"></polygon><path d="M444.85,340l-.05.53-10.17-10.11-12.93-13c-.89-.9-1.78-1.8-2.66-2.71h.45c.83.81,1.66,1.62,2.48,2.44l13,12.92Z" style="fill: rgb(38, 50, 56); transform-origin: 431.945px 327.62px;" id="elpz4yn7yvak" class="animable"></path><path d="M444.33,346l0,.5-12.94-12.85-12.92-13q-3-3-5.89-6h.36l5.8,5.71,13,12.93Z" style="fill: rgb(38, 50, 56); transform-origin: 428.455px 330.575px;" id="el6484jiu5ac" class="animable"></path><path d="M443.82,352.12l0,.43-2.7-2.66-13-12.93-12.93-13q-4.54-4.62-9.07-9.26h.19q4.59,4.47,9.16,9l13,12.92,12.93,13Z" style="fill: rgb(38, 50, 56); transform-origin: 424.97px 333.625px;" id="elinfbgkddf6k" class="animable"></path><path d="M443.3,358.2l0,.33c-1.83-1.77-3.65-3.57-5.47-5.37l-13-12.92-12.92-13q-6.12-6.18-12.17-12.42v0Q406,320.85,412.15,327l13,12.92,12.92,13Q440.71,355.55,443.3,358.2Z" style="fill: rgb(38, 50, 56); transform-origin: 421.52px 336.675px;" id="eliai4l6vhbq" class="animable"></path><path d="M442.79,364.29l0,.23q-4.14-4-8.23-8.08l-13-12.93-12.92-13q-4.16-4.2-8.29-8.44h0l0-.24q4.31,4.19,8.58,8.41l13,12.93,12.93,13Q438.82,360.21,442.79,364.29Z" style="fill: rgb(38, 50, 56); transform-origin: 421.57px 343.175px;" id="elumchb0793va" class="animable"></path><path d="M442.05,370.17h-.12q-5.35-5.21-10.67-10.46l-13-12.92-12.93-13-4.39-4.46,0-.44q2.36,2.31,4.7,4.63l13,12.92,12.92,13C435.05,363,438.57,366.57,442.05,370.17Z" style="fill: rgb(38, 50, 56); transform-origin: 421.495px 349.53px;" id="elys4dzwhhqd8" class="animable"></path><path d="M435.59,370.17h-.29q-3.68-3.59-7.31-7.19l-13-12.92-12.92-13-.51-.52-.05-.56c.28.26.55.54.83.81l13,12.93,12.92,13Q431.93,366.43,435.59,370.17Z" style="fill: rgb(38, 50, 56); transform-origin: 418.55px 353.075px;" id="el89kol77umrv" class="animable"></path><path d="M429.1,370.17h-.41q-2-1.95-4-3.91l-13-12.93-9.55-9.6-.05-.64,9.95,9.89L425,366C426.36,367.38,427.74,368.77,429.1,370.17Z" style="fill: rgb(38, 50, 56); transform-origin: 415.595px 356.63px;" id="el7hpu8y47otw" class="animable"></path><path d="M422.61,370.17h-.52l-.65-.64-13-12.92-5.66-5.7-.06-.7,6.08,6,12.92,13Z" style="fill: rgb(38, 50, 56); transform-origin: 412.665px 360.19px;" id="elischjk4xnz8" class="animable"></path><polygon points="416.1 370.17 415.52 370.17 405.17 359.88 403.38 358.09 403.38 358.08 403.31 357.35 405.51 359.53 416.1 370.17" style="fill: rgb(38, 50, 56); transform-origin: 409.705px 363.76px;" id="elmwrvq6q57gc" class="animable"></polygon><polygon points="409.56 370.17 408.94 370.17 403.99 365.24 403.93 364.49 409.56 370.17" style="fill: rgb(38, 50, 56); transform-origin: 406.745px 367.33px;" id="eln5s96mu5mt" class="animable"></polygon><g id="el7rxbm3716qp"><rect x="401.74" y="314.7" width="1" height="55.59" style="fill: rgb(38, 50, 56); transform-origin: 402.24px 342.495px; transform: rotate(-5.21deg);" class="animable" id="elm61shxt361b"></rect></g><g id="el2z4jht33lfl"><rect x="416.79" y="341.99" width="55.59" height="1" style="fill: rgb(38, 50, 56); transform-origin: 444.585px 342.49px; transform: rotate(-84.73deg);" class="animable" id="eldampocsiqe5"></rect></g><rect x="396.79" y="308.64" width="53.04" height="8.98" style="fill: rgb(38, 50, 56); transform-origin: 423.31px 313.13px;" id="elh8tsr1566hb" class="animable"></rect><rect x="402.26" y="365.36" width="42.1" height="8.98" style="fill: rgb(38, 50, 56); transform-origin: 423.31px 369.85px;" id="elw2wm9ngx8jp" class="animable"></rect><path d="M440.66,362c1.59-.23,3.64-.23,3.76.68s-.61,1.4-.38,1.86,1.52,1.29,2.12,1.9a4.43,4.43,0,0,1,1.07,1.89c0,.23.37.61,0,1.07s-.6,1.14-.91,1.48a.91.91,0,0,0,0,1.33c.45.6.07,2.35-.61,3s-2.66-.84-3.27-.69-.68.46-1.21.84A5.93,5.93,0,0,1,438,376.6c-1.37,0-2.05-1.22-2.88-1.75a12.09,12.09,0,0,0-2.36-.91,4.17,4.17,0,0,1-1.74-1.29c-.15-.3-.69-.38-.46-1.21s.61-1.07.61-1.75,0-.8,0-1.58-.61-2.14-.08-2.75.91-1.51,1.75-1.51,3.49.45,3.49.45a7.09,7.09,0,0,0,.76-1,2.21,2.21,0,0,1,1.84-1.06A5.45,5.45,0,0,0,440.66,362Z" style="fill: rgb(255, 255, 255); transform-origin: 438.949px 369.236px;" id="el4dpdmfjevqn" class="animable"></path><path d="M431.21,369.69c1.08.5,2.19.95,3.3,1.39s2.2.9,3.32,1.31a31.42,31.42,0,0,0,3.33,1.08,2.55,2.55,0,0,0,.7.08l.67-.33a10.09,10.09,0,0,0,1.45-.9,4,4,0,0,0,1.11-1.13,1.91,1.91,0,0,0,.16-.32l.05-.17,0-.07h0a1.65,1.65,0,0,0-.29-.51,16.88,16.88,0,0,0-2.6-2.26c-.95-.71-1.94-1.37-2.95-2-.49-.32-1-.64-1.52-.93-.25-.15-.52-.29-.78-.42s-.27-.13-.41-.18-.3-.14-.4,0c.09-.14.29-.05.43,0l.43.11.85.32c.56.23,1.1.48,1.65.74,1.07.55,2.11,1.15,3.13,1.79a14.18,14.18,0,0,1,2.89,2.3,1.86,1.86,0,0,1,.53,1.05.91.91,0,0,1,0,.23l0,.14-.08.26a3.05,3.05,0,0,1-.23.48,5,5,0,0,1-1.35,1.45,13.28,13.28,0,0,1-1.6,1l-.41.2-.21.1-.11.05a1.55,1.55,0,0,1-.23.06,2.86,2.86,0,0,1-1.07-.11,22,22,0,0,1-3.41-1.29A45.34,45.34,0,0,1,431.21,369.69Z" style="fill: rgb(199, 199, 199); transform-origin: 438.739px 369.438px;" id="ell6tv4vdy67l" class="animable"></path><path d="M435.74,371.75a19.5,19.5,0,0,1,2-2.62c.35-.42.74-.81,1.13-1.2a8.39,8.39,0,0,1,.63-.56,3.82,3.82,0,0,1,.8-.53l.15-.06a1.15,1.15,0,0,1,.32,0,.84.84,0,0,1,.42.23,3.25,3.25,0,0,1,.31.38,7.22,7.22,0,0,1,.46.72c.26.49.52,1,.74,1.48a13.68,13.68,0,0,1,1,3.13L442,370c-.3-.45-.56-.92-.86-1.36-.14-.21-.29-.44-.43-.63a1.87,1.87,0,0,0-.21-.24s0,0,.07,0a.17.17,0,0,0,.12,0l0,0a2.64,2.64,0,0,0-.55.36l-.6.5-1.22,1.05C437.45,370.38,436.62,371.09,435.74,371.75Z" style="fill: rgb(199, 199, 199); transform-origin: 439.72px 369.744px;" id="eledjdvytfydu" class="animable"></path><path d="M415.55,378.33c-.86.21-2,.31-2.09-.18s.26-.8.11-1a10.61,10.61,0,0,0-1.26-.93,2.43,2.43,0,0,1-.68-1c0-.12-.24-.31-.05-.58s.26-.65.41-.86.21-.41-.06-.72a1.63,1.63,0,0,1,.18-1.66c.34-.36,1.5.32,1.82.21s.36-.28.63-.52a3.22,3.22,0,0,1,1.68-.87c.75-.07,1.18.56,1.67.81a6.28,6.28,0,0,0,1.33.38,2.27,2.27,0,0,1,1,.61c.1.16.39.18.31.65s-.28.61-.24,1,0,.44.07.87.45,1.14.19,1.5-.42.88-.88.92-1.94-.07-1.94-.07a3.62,3.62,0,0,0-.36.58,1.22,1.22,0,0,1-.95.68A3.15,3.15,0,0,0,415.55,378.33Z" style="fill: rgb(255, 255, 255); transform-origin: 416.083px 374.359px;" id="el5f334o14kaa" class="animable"></path><path d="M412.25,373.45c.46-.49,1-.93,1.43-1.39l.36-.33.19-.17a1,1,0,0,1,.36-.18,5.12,5.12,0,0,1,1.07-.13,10.31,10.31,0,0,1,2.07.11,3.27,3.27,0,0,1,1.11.35,1.12,1.12,0,0,1,.49.68,2.09,2.09,0,0,1,.08.63,6.72,6.72,0,0,1-.47,2.1,9,9,0,0,1-.44.95,4.2,4.2,0,0,1-.3.48,1.33,1.33,0,0,1-.55.43,5.24,5.24,0,0,1-2.13.14,16.22,16.22,0,0,1-2-.35c.67,0,1.33-.06,2-.14a5.92,5.92,0,0,0,1.8-.36c.13-.07.09-.07.19-.2l.21-.39a8.39,8.39,0,0,0,.33-.88,6.19,6.19,0,0,0,.36-1.78.71.71,0,0,1,.23-.48,7.11,7.11,0,0,0-1.09-.25,14.73,14.73,0,0,0-1.9-.27,7.06,7.06,0,0,0-.92,0c-.06,0-.12,0-.1,0l-.21.13-.42.28C413.41,372.77,412.85,373.14,412.25,373.45Z" style="fill: rgb(199, 199, 199); transform-origin: 415.83px 374.205px;" id="el0mwcbol8ldmj" class="animable"></path><path d="M414.32,372.18c0,.64,0,1.25.06,1.81,0,.26.08.58.15.6s0,0,0,0h.06a2.68,2.68,0,0,0,.35,0c.53-.09,1.11-.25,1.7-.38a11.79,11.79,0,0,1,1.84-.29,7,7,0,0,1-1.58,1,6.6,6.6,0,0,1-1.8.62,2.58,2.58,0,0,1-.57,0,1.27,1.27,0,0,1-.39-.09.87.87,0,0,1-.36-.32,1.71,1.71,0,0,1-.15-1.17A4.43,4.43,0,0,1,414.32,372.18Z" style="fill: rgb(199, 199, 199); transform-origin: 416.034px 373.868px;" id="elp8ftel81myn" class="animable"></path><path d="M408.31,365.31c-.44-1.35-.37-2.91-1.88-2.74s-2.43-1.74-3.12-2.19-3.11,0-3.64.45-.76,1.35-1.29,1.74-1.29,1-2,1.6a3,3,0,0,0-1.37,3,6.94,6.94,0,0,0,1.44,2.81c.46.76-.3,2.13.31,3.87s3.56,2.43,4.32,2.13,2.79-1.59,3.9-1.59,1.42.91,2.4.38,2.43-1.67,2.51-2.13-.84-.86-.53-1.57,1.51-2,1.36-2.93S408.65,366.35,408.31,365.31Z" style="fill: rgb(255, 255, 255); transform-origin: 402.854px 368.121px;" id="el4p9lqmnz8da" class="animable"></path><path d="M405.5,362.41a42.25,42.25,0,0,0-5.48,2.18,3.08,3.08,0,0,0-.55.36c-.06,0-.11.35-.15.56-.09.47-.14,1-.2,1.45a28.58,28.58,0,0,0-.17,2.92,9.25,9.25,0,0,0,.07,1.41,1.59,1.59,0,0,0,.1.38,2.09,2.09,0,0,0,.54.16,14.12,14.12,0,0,0,2.85.14c.49,0,1-.05,1.43-.11s1-.2,1.43-.29c1-.19,1.94-.38,2.87-.62.22-.06.46-.12.65-.19l.11-.05h0a.18.18,0,0,0-.07.1.46.46,0,0,0,0,.36.45.45,0,0,0,.09.17l.06.05h0l-.13-.05c-.42-.14-.92-.25-1.39-.37l-2.89-.64c-1-.21-1.93-.43-2.9-.67-.48-.12-1-.25-1.45-.42a2.44,2.44,0,0,1-.82-.42l-.09-.11a1.34,1.34,0,0,1-.07-.18v-.18a.94.94,0,0,1,.05-.28,1.85,1.85,0,0,1,.18-.4,12.23,12.23,0,0,1,1.88-2.42,6.94,6.94,0,0,1,.55-.53c.09-.08.19-.17.3-.25l.16-.12a.87.87,0,0,1,.25-.13.71.71,0,0,1,.56.14,2.23,2.23,0,0,1,.33.26,5.68,5.68,0,0,1,.53.57,37.29,37.29,0,0,1,3.22,5,48.7,48.7,0,0,0-3.59-4.68c-.17-.17-.34-.35-.51-.49a1.22,1.22,0,0,0-.39-.25l-.07.05-.13.1c-.09.07-.17.16-.26.24s-.33.34-.49.52a12.13,12.13,0,0,0-1.66,2.33,1.19,1.19,0,0,0-.1.28s0,.09,0,.08h0a.42.42,0,0,0,0-.1l0,0a2.78,2.78,0,0,0,.52.21c.45.14.93.26,1.4.37,1,.23,1.92.42,2.88.62l3.71.71c.49.11.17.1.69.26l.21.08.15.08a.79.79,0,0,1,.14.11.58.58,0,0,1,.12.21.56.56,0,0,1,0,.4,1.1,1.1,0,0,1-.21.22.63.63,0,0,1-.14.09l-.22.1a6.16,6.16,0,0,1-.77.24c-1,.24-2,.41-2.93.59-.51.08-.92.18-1.48.27a13.39,13.39,0,0,1-1.53.1,15.79,15.79,0,0,1-3.05-.2,2.42,2.42,0,0,1-.86-.32,1,1,0,0,1-.35-.52,1.88,1.88,0,0,1-.08-.43,9,9,0,0,1,0-1.55,29.19,29.19,0,0,1,.32-3c.08-.5.16-1,.27-1.48.09-.26,0-.48.33-.82a3.15,3.15,0,0,1,.7-.43,25.57,25.57,0,0,1,2.82-1C403.57,362.87,404.53,362.61,405.5,362.41Z" style="fill: rgb(199, 199, 199); transform-origin: 404.162px 367.674px;" id="elb95frt39zzr" class="animable"></path></g><defs>     <filter id="active" height="200%">         <feMorphology in="SourceAlpha" result="DILATED" operator="dilate" radius="2"></feMorphology>                <feFlood flood-color="#32DFEC" flood-opacity="1" result="PINK"></feFlood>        <feComposite in="PINK" in2="DILATED" operator="in" result="OUTLINE"></feComposite>        <feMerge>            <feMergeNode in="OUTLINE"></feMergeNode>            <feMergeNode in="SourceGraphic"></feMergeNode>        </feMerge>    </filter>    <filter id="hover" height="200%">        <feMorphology in="SourceAlpha" result="DILATED" operator="dilate" radius="2"></feMorphology>                <feFlood flood-color="#ff0000" flood-opacity="0.5" result="PINK"></feFlood>        <feComposite in="PINK" in2="DILATED" operator="in" result="OUTLINE"></feComposite>        <feMerge>            <feMergeNode in="OUTLINE"></feMergeNode>            <feMergeNode in="SourceGraphic"></feMergeNode>        </feMerge>            <feColorMatrix type="matrix" values="0   0   0   0   0                0   1   0   0   0                0   0   0   0   0                0   0   0   1   0 "></feColorMatrix>    </filter></defs></svg>