<?xml version="1.0" encoding="UTF-8" standalone="no"?>
<!--part of the matt icon theme by sixsixfive released under CC0 (https://creativecommons.org/publicdomain/zero/1.0/) on openclipart-->
<svg xmlns="http://www.w3.org/2000/svg" xmlns:xlink="http://www.w3.org/1999/xlink" viewBox="0 0 128 128">
 <defs id="0">
  <linearGradient id="6">
   <stop id="K" stop-color="#fff" stop-opacity="0.674"/>
   <stop offset="1" id="L" stop-color="#fff" stop-opacity="0"/>
  </linearGradient>
  <linearGradient id="7">
   <stop id="M" stop-color="#3e3e3e"/>
   <stop offset="1" id="N" stop-color="#323232"/>
  </linearGradient>
  <linearGradient id="8">
   <stop id="O" stop-color="#323232"/>
   <stop offset="1" id="P" stop-color="#282828"/>
  </linearGradient>
  <linearGradient xlink:href="#B" gradientUnits="userSpaceOnUse" y2="112.88" x2="64" y1="-43.33" x1="11.531" id="9"/>
  <linearGradient id="A">
   <stop id="Q" stop-color="#bbb" stop-opacity="0.26"/>
   <stop offset="1" id="R" stop-color="#bbb" stop-opacity="0"/>
  </linearGradient>
  <linearGradient id="B">
   <stop id="S" stop-color="#555"/>
   <stop offset="1" id="T" stop-color="#555" stop-opacity="0"/>
  </linearGradient>
  <linearGradient id="C">
   <stop id="U" stop-color="#0077ec"/>
   <stop offset="1" id="V" stop-color="#004387"/>
  </linearGradient>
  <linearGradient id="D">
   <stop id="W"/>
   <stop offset="1" id="X" stop-opacity="0"/>
  </linearGradient>
  <linearGradient id="E">
   <stop id="Y" stop-color="#004fa2"/>
   <stop offset="1" id="Z" stop-color="#0e85ff"/>
  </linearGradient>
  <radialGradient xlink:href="#D" r="34.738" cy="115.23" cx="68.22" gradientTransform="matrix(1,0,0,0.12650602,0,100.65683)" gradientUnits="userSpaceOnUse" id="F"/>
  <radialGradient xlink:href="#8" id="G" cx="64" cy="12.03" r="56.969" gradientTransform="matrix(1,0,0,0.9712013,0,1.7785163)" gradientUnits="userSpaceOnUse"/>
  <radialGradient xlink:href="#7" id="H" cx="64" cy="16.486" r="52.22" gradientTransform="matrix(1,0,0,0.948833,0,3.1075937)" gradientUnits="userSpaceOnUse"/>
  <radialGradient xlink:href="#6" id="I" cx="64.02" cy="-22.525" r="52.575" gradientTransform="matrix(1.6045795,-1.8047151e-2,1.0611506e-2,0.9434733,-38.480734,4.5665449)" gradientUnits="userSpaceOnUse"/>
 </defs>
 <path id="1" d="m 102.95935,115.23472 a 34.738316,4.3946061 0 1 1 -69.476634,0 34.738316,4.3946061 0 1 1 69.476634,0 z" transform="matrix(1.6204819,0,0,1,-47.143059,1.942068)" opacity="0.323" fill="url(#F)"/>
 <path d="m 14.3125,6.4286077 c -4.0442,0 -7.2812495,3.2682991 -7.2812495,7.3124993 l 0,76.53125 c 0,4.0442 3.2370495,7.312495 7.2812495,7.312495 l 30.96875,0 2.78125,2.812498 16.40625,16.6875 15.9375,-16.6875 2.6875,-2.812498 30.5625,0 c 4.0442,0 7.3125,-3.268295 7.3125,-7.312495 l 0,-76.53125 c 0,-4.0442002 -3.2683,-7.3124994 -7.3125,-7.3124994 l -99.34375,0 z" id="2" fill="url(#G)"/>
 <path d="M 14.3125,11.1875 C 12.819436,11.1875 11.78125,12.232543 11.78125,13.75 L 11.78125,90.28125 C 11.78125,91.798711 12.819434,92.84375 14.3125,92.84375 L 45.28125,92.84375 C 46.549139,92.841799 47.764861,93.34835 48.65625,94.25 L 51.4375,97.0625 C 51.437534,97.072917 51.437534,97.083333 51.4375,97.09375 L 64.40625,110.28125 L 76.96875,97.125 L 79.65625,94.3125 C 80.552201,93.372259 81.794991,92.841249 83.09375,92.84375 L 113.65625,92.84375 C 115.14932,92.843749 116.21875,91.774314 116.21875,90.28125 L 116.21875,13.75 C 116.21875,12.256936 115.14931,11.1875 113.65625,11.1875 L 14.3125,11.1875 z" id="3" fill="url(#H)" stroke-width="3.4"/>
 <g id="4" fill="#eee">
  <path d="m 69.619689,50.885859 0,24.70682 c -2.2e-5,1.353352 0.379575,2.343605 1.138791,2.97076 0.759171,0.594156 1.963978,1.056274 3.614424,1.386354 l 1.039766,0.198051 c 0.528108,0.198054 0.792175,0.511634 0.792203,0.940741 l 0,2.327095 -0.198051,0.198051 C 70.527398,83.481697 66.467364,83.41568 63.826707,83.41568 l -11.833527,0.198051 -0.198051,-0.198051 0,-2.327095 c -4e-6,-0.462116 0.231055,-0.775696 0.693177,-0.940741 l 1.237817,-0.198051 c 1.650415,-0.264063 2.855222,-0.709677 3.614424,-1.336842 0.759185,-0.627155 1.138782,-1.633911 1.138792,-3.020272 l 0,-24.70682 c -1e-5,-2.409582 -0.181557,-4.043498 -0.54464,-4.901754 -0.363102,-0.858182 -0.924245,-1.320299 -1.68343,-1.386355 l -4.159064,-0.445614 -0.198051,-3.020273 c 8.549175,-1.089235 14.325647,-2.095991 17.329433,-3.020272 0.462097,4.5e-5 0.693156,0.09907 0.693178,0.297076 -0.198073,4.918298 -0.297098,9.077358 -0.297076,12.477192 M 57.885187,25.535374 c -1e-5,-1.683371 0.594142,-3.119237 1.782456,-4.307602 1.188291,-1.188241 2.607653,-1.782392 4.258089,-1.782456 1.683413,6.4e-5 3.119279,0.594215 4.307602,1.782456 1.188283,1.188365 1.782434,2.624231 1.782456,4.307602 -2.2e-5,1.650478 -0.594173,3.06984 -1.782456,4.258089 -1.188323,1.188356 -2.624189,1.782508 -4.307602,1.782456 -1.650436,5.2e-5 -3.069798,-0.5941 -4.258089,-1.782456 -1.188314,-1.188249 -1.782466,-2.607611 -1.782456,-4.258089" id="J"/>
 </g>
 <path id="5" d="M 14.3125,12.53125 C 13.55317,12.53125 13.125,12.959262 13.125,13.75 L 13.125,90.28125 C 13.125,91.071993 13.553167,91.5 14.3125,91.5 L 45.28125,91.5 C 46.913387,91.498481 48.478007,92.151344 49.625,93.3125 L 52.40625,96.125 L 64.40625,108.34375 L 76,96.1875 L 78.6875,93.375 C 79.839122,92.175303 81.430771,91.498006 83.09375,91.5 L 113.65625,91.5 C 114.41558,91.5 114.875,91.04058 114.875,90.28125 L 114.875,13.75 C 114.875,12.99067 114.41558,12.53125 113.65625,12.53125 L 14.3125,12.53125 z" opacity="0.424" fill="none" stroke="url(#I)" stroke-width="3.4"/>
</svg>
