<svg xmlns="http://www.w3.org/2000/svg" data-name="Layer 1" viewBox="0 0 512 512"><rect width="155.01" height="116.74" x="7.5" y="387.76" fill="#ffc166" rx="11.52"/><path fill="#ffb74e" d="M151,387.76H125.28a11.51,11.51,0,0,1,11.51,11.52V493a11.51,11.51,0,0,1-11.51,11.52H151A11.51,11.51,0,0,0,162.51,493v-93.7A11.51,11.51,0,0,0,151,387.76Z"/><path fill="#676e87" d="M125.22,410.26H44.79a7.5,7.5,0,0,1-7.5-7.5V372.53A20.25,20.25,0,0,1,57.52,352.3h55a20.25,20.25,0,0,1,20.23,20.23v30.23A7.5,7.5,0,0,1,125.22,410.26Zm-72.93-15h65.43V372.53a5.23,5.23,0,0,0-5.23-5.23h-55a5.23,5.23,0,0,0-5.23,5.23Z"/><path fill="#ffae36" d="M162.51,422.79,92.63,457.66a19.14,19.14,0,0,1-15.24,0L7.5,422.79V399.28A11.52,11.52,0,0,1,19,387.76H151a11.51,11.51,0,0,1,11.51,11.52Z"/><path fill="#ffa41f" d="M136.79,399.28v36.34l25.72-12.83V399.28A11.51,11.51,0,0,0,151,387.76H125.28A11.51,11.51,0,0,1,136.79,399.28Z"/><rect width="31.35" height="31.35" x="69.33" y="443.57" fill="#676e87" rx="7"/><path fill="#595f74" d="M93.68,443.57H82.47a7,7,0,0,1,7,7v17.35a7,7,0,0,1-7,7H93.68a7,7,0,0,0,7-7V450.57A7,7,0,0,0,93.68,443.57Z"/><rect width="155.01" height="116.74" x="349.49" y="387.76" fill="#ffc166" rx="11.52"/><path fill="#ffb74e" d="M493,387.76H467.26a11.52,11.52,0,0,1,11.52,11.52V493a11.52,11.52,0,0,1-11.52,11.52H493A11.52,11.52,0,0,0,504.5,493v-93.7A11.52,11.52,0,0,0,493,387.76Z"/><path fill="#676e87" d="M467.21,410.26H386.78a7.5,7.5,0,0,1-7.5-7.5V372.53a20.25,20.25,0,0,1,20.23-20.23h55a20.25,20.25,0,0,1,20.23,20.23v30.23A7.5,7.5,0,0,1,467.21,410.26Zm-72.93-15h65.43V372.53a5.23,5.23,0,0,0-5.23-5.23h-55a5.23,5.23,0,0,0-5.23,5.23Z"/><path fill="#ffae36" d="M504.5,422.79l-69.89,34.87a19.14,19.14,0,0,1-15.24,0l-69.88-34.87V399.28A11.51,11.51,0,0,1,361,387.76H493a11.52,11.52,0,0,1,11.52,11.52Z"/><path fill="#ffa41f" d="M478.78,399.28v36.34l25.72-12.83V399.28A11.52,11.52,0,0,0,493,387.76H467.26A11.52,11.52,0,0,1,478.78,399.28Z"/><rect width="31.35" height="31.35" x="411.32" y="443.57" fill="#676e87" rx="7"/><path fill="#595f74" d="M435.67,443.57H424.45a7,7,0,0,1,7,7v17.35a7,7,0,0,1-7,7h11.22a7,7,0,0,0,7-7V450.57A7,7,0,0,0,435.67,443.57Z"/><rect width="155.01" height="116.74" x="7.5" y="35.46" fill="#ffc166" rx="11.52"/><path fill="#ffb74e" d="M151,35.46H125.28A11.51,11.51,0,0,1,136.79,47v93.7a11.51,11.51,0,0,1-11.51,11.52H151a11.51,11.51,0,0,0,11.51-11.52V47A11.51,11.51,0,0,0,151,35.46Z"/><path fill="#676e87" d="M125.22,58H44.79a7.5,7.5,0,0,1-7.5-7.5V20.23A20.25,20.25,0,0,1,57.52,0h55a20.25,20.25,0,0,1,20.23,20.23V50.46A7.5,7.5,0,0,1,125.22,58ZM52.29,43h65.43V20.23A5.23,5.23,0,0,0,112.49,15h-55a5.24,5.24,0,0,0-5.23,5.23Z"/><path fill="#ffae36" d="M162.51,70.49,92.63,105.36a19.14,19.14,0,0,1-15.24,0L7.5,70.49V47A11.52,11.52,0,0,1,19,35.46H151A11.51,11.51,0,0,1,162.51,47Z"/><path fill="#ffa41f" d="M136.79,47V83.32l25.72-12.83V47A11.51,11.51,0,0,0,151,35.46H125.28A11.51,11.51,0,0,1,136.79,47Z"/><rect width="31.35" height="31.35" x="69.33" y="91.27" fill="#676e87" rx="7"/><path fill="#595f74" d="M93.68,91.27H82.47a7,7,0,0,1,7,7v17.35a7,7,0,0,1-7,7H93.68a7,7,0,0,0,7-7V98.27A7,7,0,0,0,93.68,91.27Z"/><rect width="155.01" height="116.74" x="349.49" y="35.46" fill="#ffc166" rx="11.52"/><path fill="#ffb74e" d="M493,35.46H467.26A11.52,11.52,0,0,1,478.78,47v93.7a11.52,11.52,0,0,1-11.52,11.52H493a11.52,11.52,0,0,0,11.52-11.52V47A11.52,11.52,0,0,0,493,35.46Z"/><path fill="#676e87" d="M467.21,58H386.78a7.5,7.5,0,0,1-7.5-7.5V20.23A20.25,20.25,0,0,1,399.51,0h55a20.25,20.25,0,0,1,20.23,20.23V50.46A7.5,7.5,0,0,1,467.21,58ZM394.28,43h65.43V20.23A5.24,5.24,0,0,0,454.48,15h-55a5.24,5.24,0,0,0-5.23,5.23Z"/><path fill="#ffae36" d="M504.5,70.49l-69.89,34.87a19.14,19.14,0,0,1-15.24,0L349.49,70.49V47A11.51,11.51,0,0,1,361,35.46H493A11.52,11.52,0,0,1,504.5,47Z"/><path fill="#ffa41f" d="M478.78,47V83.32L504.5,70.49V47A11.52,11.52,0,0,0,493,35.46H467.26A11.52,11.52,0,0,1,478.78,47Z"/><rect width="31.35" height="31.35" x="411.32" y="91.27" fill="#676e87" rx="7"/><path fill="#595f74" d="M435.67,91.27H424.45a7,7,0,0,1,7,7v17.35a7,7,0,0,1-7,7h11.22a7,7,0,0,0,7-7V98.27A7,7,0,0,0,435.67,91.27Z"/><circle cx="256" cy="270" r="107.76" fill="#66c1ff"/><path fill="#63ea86" d="M256 162.24a107.26 107.26 0 0 0-48.68 11.61 74.28 74.28 0 0 1 9.47 5A82.63 82.63 0 0 1 228.4 188c13.49 13 15.34 42 29.57 48.37 10.27 4.6 18.43-6.41 42.84-13.91a127.72 127.72 0 0 1 49.32-4.85A107.71 107.71 0 0 0 256 162.24zM242.1 376.87a109.89 109.89 0 0 0 13.9.89 107.78 107.78 0 0 0 98.48-64 88.09 88.09 0 0 1-26-11c-10.63-6.73-11.62-10.66-18.07-14.17-17.24-9.37-48.78-2.25-57.45 14.76-7.45 14.65 6.83 26.86.11 51.85A61.48 61.48 0 0 1 242.1 376.87zM190.94 261.9c-7.61-17.65 4.94-31.55-4.57-46.18-4.33-6.65-11-10-15.53-11.74A107.73 107.73 0 0 0 182.9 349.16a133 133 0 0 0 15.59-18.44c10.14-14.5 19.95-28.52 16.84-41.76C212 274.85 197.89 278 190.94 261.9z"/><path fill="#eee" d="M457 239H393.76a7.5 7.5 0 0 1 0-15h55.73V188.7a7.5 7.5 0 0 1 15 0v42.8A7.5 7.5 0 0 1 457 239zM457 328.8a7.5 7.5 0 0 1-7.5-7.5V284H393.76a7.5 7.5 0 0 1 0-15H457a7.5 7.5 0 0 1 7.5 7.5v44.8A7.5 7.5 0 0 1 457 328.8zM118.24 239H55a7.5 7.5 0 0 1-7.5-7.5V188.7a7.5 7.5 0 0 1 15 0V224h55.73a7.5 7.5 0 1 1 0 15zM55 328.8a7.5 7.5 0 0 1-7.5-7.5V276.5A7.5 7.5 0 0 1 55 269h63.23a7.5 7.5 0 1 1 0 15H62.51v37.3A7.5 7.5 0 0 1 55 328.8z"/><path fill="#272a33" d="M19,159.7H151a19,19,0,0,0,19-19V47a19,19,0,0,0-19-19H132.72V20.23A20.25,20.25,0,0,0,112.49,0h-55A20.25,20.25,0,0,0,37.29,20.23V28H19A19,19,0,0,0,0,47v93.7A19,19,0,0,0,19,159.7ZM52.29,20.23A5.24,5.24,0,0,1,57.52,15h55a5.23,5.23,0,0,1,5.23,5.23V28H52.29ZM15,47a4,4,0,0,1,4-4H151a4,4,0,0,1,4,4V65.85L105.84,90.39a14.5,14.5,0,0,0-12.16-6.62H76.33a14.48,14.48,0,0,0-12.15,6.62L15,65.85ZM93.18,98.77v16.35H76.83V98.77ZM15,82.62,61.83,106v9.64a14.52,14.52,0,0,0,14.5,14.5H93.68a14.51,14.51,0,0,0,14.5-14.5V106L155,82.62v58.06a4,4,0,0,1-4,4H19a4,4,0,0,1-4-4ZM493,28H474.71V20.23A20.25,20.25,0,0,0,454.48,0h-55a20.25,20.25,0,0,0-20.23,20.23V28H361a19,19,0,0,0-19,19v93.7a19,19,0,0,0,19,19H493a19,19,0,0,0,19-19V47A19,19,0,0,0,493,28Zm-98.7-7.73A5.23,5.23,0,0,1,399.51,15h55a5.24,5.24,0,0,1,5.23,5.23V28H394.28ZM497,140.68a4,4,0,0,1-4,4H361a4,4,0,0,1-4-4V82.62L403.82,106v9.64a14.51,14.51,0,0,0,14.5,14.5h17.35a14.52,14.52,0,0,0,14.5-14.5V106L497,82.62Zm-78.18-25.56V98.77h16.35v16.35ZM497,65.85,447.82,90.39a14.48,14.48,0,0,0-12.15-6.62H418.32a14.5,14.5,0,0,0-12.16,6.62L357,65.85V47a4,4,0,0,1,4-4H493a4,4,0,0,1,4,4ZM361.57,316.22a115,115,0,0,0-4.74-102c-.1-.21-.22-.41-.34-.61a115.17,115.17,0,0,0-151.84-46.78,7.25,7.25,0,0,0-1.42.71,116.13,116.13,0,0,0-37.76,31.19,7.77,7.77,0,0,0-1,1.36,115,115,0,0,0,12.79,154c.11.12.21.25.33.37a6.69,6.69,0,0,0,.87.74,114.86,114.86,0,0,0,62.44,29.1l.1,0a115.31,115.31,0,0,0,120.14-67A7.49,7.49,0,0,0,361.57,316.22ZM256,169.75a100.17,100.17,0,0,1,79.9,39.76,132.14,132.14,0,0,0-37.29,5.74,145.71,145.71,0,0,0-24.39,10.21c-7.87,4-10.63,5.17-13.18,4-5-2.23-8.64-11.35-12.19-20.17-3.9-9.69-7.93-19.7-15.25-26.75a87.42,87.42,0,0,0-9.32-7.67A100,100,0,0,1,256,169.75ZM182.79,338.41a100,100,0,0,1-9.53-125,20.65,20.65,0,0,1,6.82,6.36c3.25,5,2.81,9.73,1.75,17.66-1,7.57-2.27,17,2.22,27.4,4.39,10.19,11.35,14.5,16.43,17.65,4.69,2.91,6.63,4.24,7.55,8.15,2.34,10-6.41,22.49-15.69,35.75A123.33,123.33,0,0,1,182.79,338.41ZM256,370.26h-.81a65.77,65.77,0,0,0,5.1-13.08c3.95-14.72,1.51-25.54-.45-34.23-1.7-7.56-2.49-11.71-.22-16.16,2.72-5.36,9.22-10,17.82-12.62,10.61-3.3,22.13-2.89,29.36,1a23.93,23.93,0,0,1,5.42,4.29,70.73,70.73,0,0,0,12.22,9.62,93.83,93.83,0,0,0,19.33,9.29A100.33,100.33,0,0,1,256,370.26Zm94.06-65.55a79.67,79.67,0,0,1-17.6-8.27,55.72,55.72,0,0,1-9.89-7.81A38.16,38.16,0,0,0,314,282c-10.76-5.85-26.46-6.69-41-2.19-12.62,3.92-22.12,11.07-26.74,20.14-4.83,9.48-2.9,18-1,26.27,1.76,7.81,3.58,15.89.59,27a52.51,52.51,0,0,1-7.12,15.48,99.92,99.92,0,0,1-44.87-20.18A139.39,139.39,0,0,0,204.64,335c10.75-15.37,21.87-31.26,18-47.77-2.38-10.11-9-14.19-14.25-17.47-4.49-2.78-8-5-10.56-10.84-2.85-6.61-2-12.57-1.12-19.47,1.12-8.4,2.4-17.92-4-27.83a35,35,0,0,0-10-9.95,101,101,0,0,1,24.84-19.42c1.81.91,3.55,1.88,5.25,3a74.57,74.57,0,0,1,10.41,8.16c5,4.82,8.42,13.32,11.73,21.54,4.66,11.58,9.48,23.56,20,28.26a19.29,19.29,0,0,0,8,1.76c6.06,0,11.77-2.89,18.09-6.08a132.44,132.44,0,0,1,22-9.26,119.11,119.11,0,0,1,42.43-4.85,100.15,100.15,0,0,1,4.62,80ZM118.24,269H55a7.5,7.5,0,0,0-7.5,7.5v44.8a7.5,7.5,0,0,0,15,0V284h55.73a7.5,7.5,0,1,0,0-15Zm275.52,15h55.73v37.3a7.5,7.5,0,0,0,15,0V276.5A7.5,7.5,0,0,0,457,269H393.76a7.5,7.5,0,0,0,0,15Zm0-45H457a7.5,7.5,0,0,0,7.5-7.5V188.7a7.5,7.5,0,0,0-15,0V224H393.76a7.5,7.5,0,0,0,0,15ZM118.24,224H62.51V188.7a7.5,7.5,0,0,0-15,0v42.8A7.5,7.5,0,0,0,55,239h63.23a7.5,7.5,0,1,0,0-15ZM151,380.26H132.72v-7.73a20.25,20.25,0,0,0-20.23-20.23h-55a20.25,20.25,0,0,0-20.23,20.23v7.73H19a19,19,0,0,0-19,19V493a19,19,0,0,0,19,19H151a19,19,0,0,0,19-19v-93.7A19,19,0,0,0,151,380.26Zm-98.71-7.73a5.23,5.23,0,0,1,5.23-5.23h55a5.23,5.23,0,0,1,5.23,5.23v7.73H52.29ZM155,493a4,4,0,0,1-4,4H19a4,4,0,0,1-4-4V434.91l46.83,23.37v9.64a14.52,14.52,0,0,0,14.5,14.5H93.68a14.51,14.51,0,0,0,14.5-14.5v-9.64L155,434.91ZM76.83,467.42V451.07H93.18v16.35ZM155,418.15l-49.17,24.54a14.5,14.5,0,0,0-12.16-6.62H76.33a14.48,14.48,0,0,0-12.15,6.62L15,418.15V399.28a4,4,0,0,1,4-4H151a4,4,0,0,1,4,4Zm338-37.89H474.71v-7.73a20.25,20.25,0,0,0-20.23-20.23h-55a20.25,20.25,0,0,0-20.23,20.23v7.73H361a19,19,0,0,0-19,19V493a19,19,0,0,0,19,19H493a19,19,0,0,0,19-19v-93.7A19,19,0,0,0,493,380.26Zm-98.7-7.73a5.23,5.23,0,0,1,5.23-5.23h55a5.23,5.23,0,0,1,5.23,5.23v7.73H394.28ZM497,493a4,4,0,0,1-4,4H361a4,4,0,0,1-4-4V434.91l46.83,23.37v9.64a14.51,14.51,0,0,0,14.5,14.5h17.35a14.52,14.52,0,0,0,14.5-14.5v-9.64L497,434.91Zm-78.18-25.56V451.07h16.35v16.35ZM497,418.15l-49.18,24.54a14.48,14.48,0,0,0-12.15-6.62H418.32a14.5,14.5,0,0,0-12.16,6.62L357,418.15V399.28a4,4,0,0,1,4-4H493a4,4,0,0,1,4,4Z"/></svg>