<svg xmlns="http://www.w3.org/2000/svg" data-name="Layer 1" viewBox="0 0 64 64"><circle cx="32" cy="32" r="27" fill="#e6e7e8"/><path fill="#2a292a" d="M48.75,53.16a26.94,26.94,0,0,1-33.5,0L16,50.5A9.12,9.12,0,0,1,24.79,44H39.21A9.12,9.12,0,0,1,48,50.5Z"/><path fill="#ffd2b4" d="M36,39v5.76a2,2,0,0,1-1.11,1.8h0a6.46,6.46,0,0,1-5.78,0h0A2,2,0,0,1,28,44.76V39Z"/><path fill="#ffd2b4" d="M32,15.21C43.45,15.21,42.47,26,42.47,26c1.68-.17,3,.49,3,2.86s-1,2.86-2.35,3a.29.29,0,0,0-.27.27c-.39,3.69-3,6.39-5.58,8.2a9.16,9.16,0,0,1-10.56,0c-2.57-1.81-5.19-4.52-5.58-8.2a.29.29,0,0,0-.27-.27c-1.31-.13-2.35-.63-2.35-3s1.27-3,2.94-2.86C21.47,26,20.54,15.21,32,15.21Z"/><path fill="#262234" d="M36,41.08v1.5a9.16,9.16,0,0,1-8,0v-1.5a9.16,9.16,0,0,0,8,0Z" opacity=".1"/><path fill="#2a292a" d="M32 13.63c-8.83 0-11.31 6.71-11.31 12.72A9.56 9.56 0 0 0 21 28.47c.18.72 2.07.69 2.19 0a17.14 17.14 0 0 1 1-6.65 8 8 0 0 0 2.26 1.37.23.23 0 0 0 .3-.28 10.48 10.48 0 0 1-.29-1 7.37 7.37 0 0 0 2.69 1.58.23.23 0 0 0 .29-.3c-.09-.23-.2-.53-.3-.85a7 7 0 0 0 3.12 1.2.23.23 0 0 0 .23-.34 9.4 9.4 0 0 1-.69-1.32 7.83 7.83 0 0 0 2.37 1.47.23.23 0 0 0 .3-.28 9.8 9.8 0 0 1-.34-1.27 7.89 7.89 0 0 0 2.32 1.43.23.23 0 0 0 .3-.28c-.07-.21-.16-.48-.23-.78a8.39 8.39 0 0 0 2.07 1.06.23.23 0 0 0 .29-.3c-.07-.17-.14-.38-.22-.61a7.74 7.74 0 0 0 1.58.55 19.3 19.3 0 0 1 .64 5.64c.11.64 2 .67 2.19 0a9.56 9.56 0 0 0 .26-2.12C43.31 20.33 40.84 13.63 32 13.63zM37.55 34.24a16.13 16.13 0 0 1-3.76-1.53 1.48 1.48 0 0 0-1.67.14 1.48 1.48 0 0 0-1.67-.14 16.13 16.13 0 0 1-3.76 1.53.49.49 0 0 0-.09.93 7.57 7.57 0 0 0 3.84.69A2.22 2.22 0 0 0 32.13 35a2.22 2.22 0 0 0 1.68.86 7.57 7.57 0 0 0 3.84-.69A.49.49 0 0 0 37.55 34.24z"/><path fill="#be1e2d" d="M29.13,47.24l.79,2.71a1,1,0,0,0,1,.72h.35L30.33,59c.55,0,1.11,0,1.67,0s1.12,0,1.67,0l-.91-8.28h.35a1,1,0,0,0,1-.72l.79-2.71Z"/><path fill="#3b3c3d" d="M26.18 44l1.9 6.74a.5.5 0 0 0 .87.18l3-3.68-4-5.12zM36 42.12l-4 5.12 3 3.68a.5.5 0 0 0 .87-.18L37.82 44z"/><circle cx="28.05" cy="28.63" r="1.15" fill="#2a292a"/><circle cx="35.95" cy="28.63" r="1.15" fill="#2a292a"/><path fill="#be1e2d" d="M43.39,24.85l-4.74.82H25.35l-4.74-.82a.59.59,0,0,0-.69.49.6.6,0,0,0,.49.69l4.29.75v1.7c0,2.77,1.82,3.35,3.35,3.35s3.36-.58,3.36-3.35v-1.6h1.19v1.6c0,2.77,1.82,3.35,3.36,3.35s3.35-.58,3.35-3.35v-1.7L43.6,26a.6.6,0,1,0-.21-1.18ZM30.21,28.47c0,1.53-.62,2.16-2.16,2.16s-2.16-.62-2.16-2.16v-1.6h4.31ZM36,30.63c-1.53,0-2.16-.62-2.16-2.16v-1.6h4.31v1.6C38.11,30,37.48,30.63,36,30.63Z"/></svg>