<?xml version="1.0" encoding="iso-8859-1"?>
<!-- Generator: Adobe Illustrator 19.0.0, SVG Export Plug-In . SVG Version: 6.00 Build 0)  -->
<svg version="1.1" id="Capa_1" xmlns="http://www.w3.org/2000/svg" xmlns:xlink="http://www.w3.org/1999/xlink" x="0px" y="0px"
	 viewBox="0 0 511.993 511.993" style="enable-background:new 0 0 511.993 511.993;" xml:space="preserve">
<g>
	<polygon style="fill:#A4C8EB;" points="183.505,64.051 209.095,106.701 149.384,106.701 	"/>
	<polygon style="fill:#A4C8EB;" points="234.685,64.051 251.745,106.701 209.095,106.701 	"/>
</g>
<polygon style="fill:#0C67B4;" points="251.745,106.701 200.565,149.352 157.914,149.352 106.734,106.701 149.384,106.701 
	209.095,106.701 "/>
<g>
	<polygon style="fill:#C7E1FA;" points="234.685,64.051 209.095,106.701 183.505,64.051 	"/>
	<polygon style="fill:#C7E1FA;" points="183.505,64.051 149.384,106.701 123.794,64.051 	"/>
</g>
<polygon style="fill:#A4C8EB;" points="123.794,64.051 149.384,106.701 106.734,106.701 "/>
<path style="fill:#FFC100;" d="M293.116,192.258c74.723,60.376,86.35,169.885,25.983,244.608S149.214,523.216,74.49,462.84
	s-86.35-169.885-25.983-244.6c49.892-61.758,135.27-81.889,207.502-48.928c-13.605,6.227-26.366,14.168-37.959,23.628l-0.938-1.109
	c-75.474-18.613-151.741,27.475-170.354,102.949s27.484,151.741,102.949,170.354c11.055,2.73,22.408,4.103,33.796,4.094
	c25.548,0.009,50.617-6.952,72.506-20.131c66.611-40.023,88.167-126.467,48.144-193.069c-11.499-19.141-27.39-35.263-46.352-47.052
	l-0.938-1.621C268.174,200.626,280.38,195.542,293.116,192.258z"/>
<path style="fill:#EBB104;" d="M328.516,153.617c96.577,0.051,174.824,78.391,174.764,174.969
	c-0.06,96.577-78.391,174.824-174.969,174.764c-24.95-0.017-49.602-5.365-72.309-15.695c13.281-6.065,25.752-13.767,37.106-22.946
	c11.558,3.02,23.458,4.547,35.4,4.521c77.734,0,140.746-63.012,140.746-140.746s-63.012-140.746-140.746-140.746
	c-25.215-0.009-49.961,6.764-71.653,19.619c-66.893,39.588-89.037,125.912-49.449,192.805c11.891,20.088,28.584,36.91,48.596,48.937
	c-11.541,6.978-24.046,12.241-37.106,15.61c-75.261-60.47-87.254-170.507-26.784-245.768
	C225.327,177.603,275.501,153.574,328.516,153.617z"/>
<g>
	
		<rect x="278.07" y="34.196" transform="matrix(-0.7071 0.7071 -0.7071 -0.7071 525.4974 -132.2169)" style="fill:#C7E1FA;" width="24.123" height="17.06"/>
	
		<rect x="59.802" y="30.675" transform="matrix(-0.7071 0.7071 -0.7071 -0.7071 146.8693 24.6382)" style="fill:#C7E1FA;" width="17.06" height="24.123"/>
	<rect x="170.684" y="0.075" style="fill:#C7E1FA;" width="17.06" height="25.59"/>
</g>
<path d="M328.516,145.087c-24.925-0.009-49.577,5.084-72.454,14.979c-12.966-5.604-26.537-9.682-40.45-12.138l41.601-34.666
	c2.841-2.363,3.83-6.295,2.457-9.724l-17.06-42.65c-1.297-3.241-4.436-5.365-7.924-5.365H123.794c-3.489,0-6.628,2.124-7.924,5.365
	l-17.06,42.65c-1.373,3.429-0.384,7.361,2.457,9.724l43.299,36.082C45.599,170.779-17.242,268.38,4.194,367.346
	S123.24,529.153,222.197,507.717c11.575-2.508,22.886-6.133,33.762-10.825c93.012,40.091,200.917-2.806,241.008-95.827
	s-2.806-200.917-95.827-241.008C378.212,150.179,353.492,145.078,328.516,145.087z M233.15,83.184l5.971,14.987h-14.962
	L233.15,83.184z M219.621,72.581l-10.526,17.546l-10.526-17.546H219.621z M182.507,78.961l11.524,19.21h-26.895L182.507,78.961z
	 M165.753,72.581l-15.354,19.21l-11.541-19.21H165.753z M125.33,83.184l8.991,14.987h-14.987L125.33,83.184z M130.294,115.231
	h97.891l-30.708,25.59h-36.475L130.294,115.231z M183.505,494.819C91.636,494.734,17.237,420.19,17.33,328.321
	s74.63-166.268,166.498-166.174c17.657,0.017,35.195,2.841,51.957,8.377c-6.449,3.804-12.667,8.001-18.613,12.565
	C136.709,164.33,56.27,214.351,37.513,294.815s31.263,160.903,111.727,179.66s160.903-31.263,179.66-111.727
	c13.503-57.928-8.59-118.355-56.281-153.908c5.988-2.832,12.181-5.212,18.527-7.106c70.032,59.412,78.639,164.349,19.227,234.372
	C278.76,473.366,232.365,494.836,183.505,494.819z M200.488,197.41c-72.437,70.501-74.007,186.373-3.506,258.811
	c1.083,1.109,2.184,2.209,3.293,3.293c-72.395,9.323-138.639-41.797-147.971-114.192S94.101,206.682,166.496,197.35
	c5.638-0.725,11.319-1.092,17-1.083C189.186,196.284,194.858,196.668,200.488,197.41z M256.01,438.913
	c-60.99-39.904-78.084-121.698-38.172-182.688c9.955-15.218,22.954-28.217,38.172-38.172
	c60.99,39.912,78.076,121.715,38.155,182.705C284.211,415.967,271.219,428.958,256.01,438.913z M311.746,197.453
	c72.403-9.247,138.588,41.951,147.835,114.354c9.247,72.403-41.951,138.579-114.354,147.826
	c-11.208,1.433-22.562,1.416-33.771-0.034c72.463-70.475,74.075-186.339,3.608-258.802c-1.1-1.126-2.209-2.243-3.335-3.344
	L311.746,197.453z M328.516,494.819c-17.76,0.034-35.417-2.798-52.281-8.376c6.466-3.813,12.684-8.018,18.638-12.59
	c80.498,18.775,160.979-31.263,179.754-111.761s-31.263-160.979-111.761-179.754S201.887,213.6,183.112,294.098
	c-13.52,57.962,8.59,118.431,56.315,154.002c-5.997,2.849-12.198,5.229-18.561,7.131c-69.964-59.472-78.468-164.408-18.988-234.372
	s164.408-78.468,234.372-18.988s78.468,164.408,18.988,234.372C423.634,473.409,377.308,494.828,328.516,494.819z"/>
<rect x="278.07" y="34.196" transform="matrix(-0.7071 0.7071 -0.7071 -0.7071 525.4974 -132.2169)" width="24.123" height="17.06"/>
<rect x="59.802" y="30.675" transform="matrix(-0.7071 0.7071 -0.7071 -0.7071 146.8693 24.6382)" width="17.06" height="24.123"/>
<rect x="170.684" y="0.075" width="17.06" height="25.59"/>
<g>
</g>
<g>
</g>
<g>
</g>
<g>
</g>
<g>
</g>
<g>
</g>
<g>
</g>
<g>
</g>
<g>
</g>
<g>
</g>
<g>
</g>
<g>
</g>
<g>
</g>
<g>
</g>
<g>
</g>
</svg>
