<?xml version="1.0" encoding="utf-8"?>
<!-- Generator: Adobe Illustrator 19.0.0, SVG Export Plug-In . SVG Version: 6.00 Build 0)  -->
<svg version="1.1" xmlns="http://www.w3.org/2000/svg" xmlns:xlink="http://www.w3.org/1999/xlink" x="0px" y="0px"
	 viewBox="0 0 1096 780" style="enable-background:new 0 0 1096 780;" xml:space="preserve">
<style type="text/css">
	.st0{opacity:8.000000e-002;fill:#6D6E71;}
	.st1{fill:#FFE672;}
	.st2{fill:#B7DEBF;}
	.st3{opacity:0.22;fill:#6D6E71;}
	.st4{fill:#520000;}
	.st5{fill:#EF4623;}
	.st6{fill:#66C3A2;}
	.st7{fill:#FFFFFF;}
</style>
<g id="_x31_">
	<g id="Favorite">
	</g>
	<circle class="st0" cx="228.4" cy="245.5" r="138.2"/>
	<circle class="st0" cx="228.4" cy="557.8" r="138.2"/>
	<circle class="st0" cx="567.9" cy="557.8" r="138.2"/>
	<circle class="st0" cx="894.7" cy="231.9" r="138.2"/>
	<circle class="st0" cx="572.4" cy="245.5" r="138.2"/>
	<circle class="st0" cx="892.7" cy="551.8" r="138.2"/>
	<circle class="st1" cx="219.5" cy="235.8" r="138.2"/>
	<circle class="st2" cx="219.5" cy="548.1" r="138.2"/>
	<circle class="st1" cx="559" cy="548.1" r="138.2"/>
	<circle class="st1" cx="885.8" cy="222.2" r="138.2"/>
	<circle class="st2" cx="563.5" cy="235.8" r="138.2"/>
	<circle class="st2" cx="883.8" cy="542.1" r="138.2"/>
	<path class="st3" d="M530.5,333c20.3,0,36.7-16.5,36.7-36.7V189.6c0-20.2-16.5-36.7-36.7-36.7c-20.2,0-36.7,16.5-36.7,36.7v106.7
		C493.8,316.5,510.2,333,530.5,333z"/>
	<path class="st3" d="M607.9,333c20.3,0,36.7-16.5,36.7-36.7V189.6c0-20.2-16.5-36.7-36.7-36.7c-20.2,0-36.7,16.5-36.7,36.7v106.7
		C571.2,316.5,587.7,333,607.9,333z"/>
	<path class="st3" d="M922.5,184v-9h7.4v-41.5h-73.3V175h7.4v10.2c-9.6,5.3-23.3,16.1-25.6,35c-2.6,20.8-1.2,57.7-0.4,79.8
		c0.2,6.4,0.4,11.5,0.4,14c0,15.4,22.9,18.5,57.3,18.5c31.3,0,54,0,54-18.9v-94C949.6,208.5,940.3,193.1,922.5,184z"/>
	<path class="st3" d="M277.4,502.3h-32.9c-6,0-10.9,4.9-10.9,10.9c0,3.7,1.9,7.1,4.8,9v120.4c0,12.4,10.1,22.6,22.6,22.6
		c12.4,0,22.6-10.1,22.6-22.6V522.2c2.9-2,4.8-5.3,4.8-9C288.3,507.2,283.4,502.3,277.4,502.3z"/>
	<path class="st3" d="M197.4,665.2c13.6,0,24.7-12.9,24.7-28.7V473.3c3.3-2.3,5.4-6.4,5.4-11c0-7.2-5.2-13.1-11.6-13.1h-36.8
		c-6.4,0-11.6,5.9-11.6,13.1c0,4.6,2.1,8.7,5.4,11v163.2C172.8,652.3,183.8,665.2,197.4,665.2z"/>
	<path class="st3" d="M602.1,500.5c-5.8-4.8-12.9-9.4-18.6-9.4c-3.2,0-5.3,1.4-6.4,2.5c-7.8,7.8-54.8,55.5-63.5,64.3l-29.7,0
		l27.3,28.3l-29.7,29.7l-7.7-8.4l-9.1,13.6l30.6,34l14.1-8.8l-6.9-7.6l30.2-30.3l25.9,26.8l2.9-28.1c8.2-8.3,57.2-58,64.1-64.9
		c6.1-6.1-0.8-17.6-9-27.2l44.3-46.3l-31.9,2.8L602.1,500.5z"/>
	<path class="st3" d="M225.9,137.2l-3.9,5.6c-3.5,5.1-86.1,125-56.8,181.1c9.7,18.5,30.1,27.9,60.7,27.9c30.6,0,51-9.4,60.7-27.9
		c29.3-56.1-53.3-176-56.8-181.1L225.9,137.2z"/>
	<path class="st3" d="M842.2,646.6c9.7,7.1,29.8,8.5,44.9,8.5c0,0,0,0,0,0c20.3,0,46.7-2.9,55.5-8.3c2.9-1.8,6.2-5.7,8.6-30.2
		c1.4-14.4,2.2-33.8,2.3-54.6c0.1-24.6-0.8-49.4-2.5-68c-3.2-34.6-8.1-37.7-10.4-39.2c-9.4-5.9-37.1-6.5-48.6-6.5
		c-16,0-45.4,1.4-53.7,6.5c-2.4,1.5-8.6,5.3-10.6,61.1C827.7,517.1,823.8,633.2,842.2,646.6z"/>
	<g>
		<path class="st4" d="M525.8,144.9c-20.2,0-36.7,16.5-36.7,36.7v106.7c0,20.2,16.5,36.7,36.7,36.7c20.2,0,36.7-16.5,36.7-36.7
			V181.6C562.5,161.3,546,144.9,525.8,144.9z"/>
		<path class="st4" d="M603.2,144.9c-20.2,0-36.7,16.5-36.7,36.7v106.7c0,20.2,16.5,36.7,36.7,36.7s36.7-16.5,36.7-36.7V181.6
			C640,161.3,623.5,144.9,603.2,144.9z"/>
	</g>
	<path class="st4" d="M890.9,324.5c-34.4,0-57.3-3.1-57.3-18.5c0-2.5-0.2-7.6-0.4-14c-0.8-22.1-2.1-59,0.4-79.8
		c2.3-18.9,16-29.7,25.6-35V167h-7.4v-41.5h73.3V167h-7.4v9c17.8,9,27.1,24.4,27.1,35.5v94C944.9,324.5,922.2,324.5,890.9,324.5
		L890.9,324.5z"/>
	<g>
		<path class="st4" d="M272.7,494.3h-32.9c-6,0-10.9,4.9-10.9,10.9c0,3.7,1.9,7.1,4.8,9v120.4c0,12.4,10.1,22.6,22.6,22.6
			c12.4,0,22.6-10.1,22.6-22.6V514.2c2.9-2,4.8-5.3,4.8-9C283.6,499.2,278.7,494.3,272.7,494.3z"/>
		<path class="st4" d="M211.1,441.2h-36.8c-6.4,0-11.6,5.9-11.6,13.1c0,4.6,2.1,8.7,5.4,11v163.2c0,15.8,11.1,28.7,24.7,28.7
			s24.7-12.9,24.7-28.7V465.3c3.3-2.3,5.4-6.4,5.4-11C222.8,447.1,217.5,441.2,211.1,441.2z"/>
	</g>
	<path class="st4" d="M460,613.1l9.1-13.6l7.7,8.4l29.7-29.7l-27.3-28.3l29.7,0c8.7-8.8,55.7-56.5,63.5-64.3
		c1.2-1.2,3.2-2.5,6.4-2.5c5.7,0,12.8,4.6,18.6,9.4l27-29l31.9-2.8L611.9,507c8.2,9.6,15.1,21.1,9,27.2
		c-6.9,6.9-55.9,56.6-64.1,64.9l-2.9,28.1L528,600.4l-30.2,30.3l6.9,7.6l-14.1,8.8L460,613.1z"/>
	<polygon class="st5" points="514,577.4 475.4,616 490.3,631.6 531.4,590.3 	"/>
	<polygon class="st6" points="597.7,499 626.6,468 644.2,466.5 605.5,506.8 	"/>
	<path class="st4" d="M221.2,343.8c-30.6,0-51-9.4-60.7-27.9c-29.3-56.1,53.3-176,56.8-181.1l3.9-5.6l3.9,5.6
		c3.5,5.1,86.1,125,56.8,181.1C272.2,334.4,251.8,343.8,221.2,343.8L221.2,343.8z"/>
	<path class="st5" d="M221.2,137.5c0,0-140.1,201.6,0,201.6C361.4,339.1,221.2,137.5,221.2,137.5z"/>
	<path class="st7" d="M490.3,554.7l60,62l2.1-19.7c0,0,57.7-58.5,65.3-66.1c7.6-7.6-33.3-50.5-41.9-41.9
		c-8.6,8.6-64.9,65.7-64.9,65.7L490.3,554.7z"/>
	<path class="st5" d="M578.6,495.4l-50.2,51.2c0,0,22.8,13.5,32.5,30.8c0,0,41.9-42.6,46.7-46.8
		C618.5,520.8,584.2,489.7,578.6,495.4z"/>
	<path class="st7" d="M573.3,507.4c4.1-4.1,21.4,13.1,15.6,18.1C583.1,530.4,567.1,513.6,573.3,507.4z"/>
	<path class="st7" d="M559.3,521.4c4.1-4.1,21.4,13.1,15.6,18.1C569.1,544.4,553.1,527.6,559.3,521.4z"/>
	<path class="st7" d="M544.1,537.4c4.1-4.1,21.4,13.1,15.6,18.1C554,560.4,537.9,543.6,544.1,537.4z"/>
	<polygon class="st5" points="469.7,607.1 466,612.7 491.5,641 497.4,637.3 	"/>
	<path class="st7" d="M278.9,505.2c0-3.4-2.8-6.2-6.2-6.2h-32.9c-3.4,0-6.2,2.8-6.2,6.2c0,2.9,2.1,5.4,4.8,6v123.4
		c0,9.9,8,17.9,17.8,17.9c9.9,0,17.9-8,17.9-17.9V511.2C276.8,510.6,278.9,508.1,278.9,505.2z"/>
	<path class="st7" d="M218,454.3c0-4.6-3.1-8.3-6.9-8.3h-36.8c-3.8,0-6.9,3.7-6.9,8.3c0,4,2.3,7.3,5.4,8.1v166.1
		c0,13.3,8.9,24,19.9,24c11,0,19.9-10.8,19.9-24V462.4C215.8,461.5,218,458.2,218,454.3z"/>
	<path class="st5" d="M254.1,551.4c-2.4-3.1-6.1-4.2-9.9-4.4v85.2c0,6.7,5.4,12.1,12.1,12.1c6.7,0,12.1-5.4,12.1-12.1v-77.1
		C262.5,555.5,256.8,554.9,254.1,551.4z"/>
	<path class="st6" d="M195.2,509.9c-4.5-6.5-11.6-9.2-17.5-10.3v129.7c0,8.3,6.7,15,15,15c8.3,0,15-6.7,15-15V513.7
		C203.3,515.2,198.7,514.9,195.2,509.9z"/>
	<path class="st7" d="M261.2,229.9c0,0,44.3,83.5-17.8,102.6c0,0,11.8-5.3,16.5-15.5c0,0-3.9,7.3-8.4,2c-4.5-5.3,4.9-20,12.6-19.6
		c7.8,0.4,4.5,3.7,4.5,3.7S279.8,267.7,261.2,229.9z"/>
	<path class="st4" d="M882.5,647.1c-15.1,0-35.2-1.5-44.9-8.5C819.1,625.2,823,509.1,823,508c2-55.7,8.2-59.6,10.6-61.1
		c8.3-5.2,37.6-6.5,53.7-6.5c11.5,0,39.2,0.6,48.6,6.5c2.3,1.5,7.2,4.5,10.4,39.2c1.7,18.6,2.6,43.4,2.5,68
		c-0.1,20.8-0.9,40.2-2.3,54.6c-2.4,24.5-5.7,28.4-8.6,30.2C929.2,644.2,902.8,647.1,882.5,647.1
		C882.5,647.1,882.5,647.1,882.5,647.1z"/>
	<path class="st5" d="M836.1,450.9c-11.7,7.3-13.2,171.3,4.2,183.9c17.4,12.6,83.1,7.4,95.2,0c12.1-7.4,11.6-175.3-2.1-183.9
		C919.7,442.3,847.2,444,836.1,450.9z"/>
	<circle class="st7" cx="861.9" cy="478.3" r="18.9"/>
	<circle class="st7" cx="909.2" cy="478.3" r="18.9"/>
	<circle class="st7" cx="861.9" cy="522.5" r="18.9"/>
	<circle class="st7" cx="909.2" cy="522.5" r="18.9"/>
	<circle class="st7" cx="861.9" cy="566.6" r="18.9"/>
	<circle class="st7" cx="909.2" cy="566.6" r="18.9"/>
	<circle class="st7" cx="861.9" cy="610.8" r="18.9"/>
	<circle class="st7" cx="909.2" cy="610.8" r="18.9"/>
	<rect x="860.3" y="461.7" class="st6" width="3.2" height="33.1"/>
	
		<rect x="860.3" y="505.9" transform="matrix(0.796 0.6053 -0.6053 0.796 492.078 -415.1186)" class="st6" width="3.2" height="33.1"/>
	
		<rect x="860.3" y="550.1" transform="matrix(0.1008 -0.9949 0.9949 0.1008 211.241 1367.0156)" class="st6" width="3.2" height="33.1"/>
	
		<rect x="860.3" y="594.3" transform="matrix(0.8553 0.5181 -0.5181 0.8553 441.1516 -358.1625)" class="st6" width="3.2" height="33.1"/>
	
		<rect x="907.6" y="505.9" transform="matrix(-0.16 0.9871 -0.9871 -0.16 1570.3937 -291.4875)" class="st6" width="3.2" height="33.1"/>
	
		<rect x="907.6" y="550.1" transform="matrix(-0.8592 -0.5116 0.5116 -0.8592 1400.5533 1518.6826)" class="st6" width="3.2" height="33.1"/>
	
		<rect x="907.6" y="594.3" transform="matrix(0.6544 -0.7561 0.7561 0.6544 -147.6485 898.6085)" class="st6" width="3.2" height="33.1"/>
	
		<rect x="907.6" y="461.7" transform="matrix(0.7701 0.638 -0.638 0.7701 514.1884 -470.0814)" class="st6" width="3.2" height="33.1"/>
	<path class="st5" d="M557.8,288.3c0,17.7-14.3,32-32,32l0,0c-17.7,0-32-14.3-32-32V181.6c0-17.7,14.3-32,32-32l0,0
		c17.7,0,32,14.3,32,32V288.3z"/>
	<path class="st7" d="M493.8,234.9v53.3c0,17.7,14.3,32,32,32c17.7,0,32-14.3,32-32v-53.3H493.8z"/>
	<path class="st6" d="M571.2,181.6c0-17.7,14.3-32,32-32l0,0c17.7,0,32,14.3,32,32v106.7c0,17.7-14.3,32-32,32l0,0
		c-17.7,0-32-14.3-32-32V181.6z"/>
	<path class="st7" d="M635.2,234.9v-53.3c0-17.7-14.3-32-32-32c-17.7,0-32,14.3-32,32v53.3H635.2z"/>
	<path class="st7" d="M888,173.8c-16.4,0-46.4,12.3-49.7,39c-3.3,26.7,0,82.1,0,93.2c0,11.1,21.8,13.8,52.5,13.8
		c30.8,0,49.3-0.2,49.3-14.2c0-14,0-79.6,0-94C940.2,197.2,920.5,173.8,888,173.8z"/>
	<rect x="864" y="156.2" class="st7" width="49.1" height="26.3"/>
	<rect x="856.6" y="130.3" class="st5" width="63.8" height="32"/>
	<path class="st6" d="M932.8,256c0,17.5-14.2,31.7-31.7,31.7h-21.1c-17.5,0-31.7-14.2-31.7-31.7v-4.4c0-17.5,14.2-31.7,31.7-31.7
		h21.1c17.5,0,31.7,14.2,31.7,31.7V256z"/>
	<path class="st7" d="M180.4,504.2v88.3C180.4,592.5,190.2,529.7,180.4,504.2z"/>
	<path class="st7" d="M246.9,552v57.9C246.9,609.9,253.3,567.3,246.9,552z"/>
	<circle class="st7" cx="189.7" cy="516.3" r="1.2"/>
	<circle class="st7" cx="195" cy="532.1" r="2"/>
	<circle class="st7" cx="199.1" cy="521.2" r="2"/>
	<circle class="st7" cx="193.4" cy="549.5" r="1.6"/>
	<circle class="st7" cx="198.3" cy="563.3" r="2.4"/>
	<circle class="st7" cx="190.2" cy="574.2" r="2"/>
	<circle class="st7" cx="257" cy="561.3" r="1.2"/>
	<circle class="st7" cx="263.1" cy="564.5" r="2.4"/>
	<circle class="st7" cx="256.6" cy="578.3" r="2"/>
	<circle class="st7" cx="261.8" cy="585.6" r="1.6"/>
	<circle class="st7" cx="254.6" cy="595.7" r="2"/>
	<path class="st7" d="M520.4,155.4c0,0-22.3,9.3-20.7,71.7C499.8,227.1,485.2,161.9,520.4,155.4z"/>
	<path class="st7" d="M894.2,279.3h-7.5c-3.3,0-6-2.7-6-6v-38.8c0-3.3,2.7-6,6-6h7.5c3.3,0,6,2.7,6,6v38.8
		C900.3,276.6,897.6,279.3,894.2,279.3z"/>
	<path class="st7" d="M865.1,257.6v-7.5c0-3.3,2.7-6,6-6h38.8c3.3,0,6,2.7,6,6v7.5c0,3.3-2.7,6-6,6h-38.8
		C867.8,263.6,865.1,260.9,865.1,257.6z"/>
</g>
<g id="Designed_by_Vecteezy">
</g>
</svg>
