<svg id="Filled" height="512" viewBox="0 0 512 512" width="512" xmlns="http://www.w3.org/2000/svg"><rect fill="#f7cc38" height="224" rx="32" width="272" x="216" y="72"/><path d="m216 312a32 32 0 0 0 32 32h208a32 32 0 0 0 32-32v-160a32 32 0 0 0 -32-32h-112v-64a32 32 0 0 0 -32-32h-64a32 32 0 0 0 -32 32z" fill="#fbdc44"/><rect fill="#f7cc38" height="224" rx="32" width="272" x="24" y="216"/><path d="m24 456a32 32 0 0 0 32 32h208a32 32 0 0 0 32-32v-160a32 32 0 0 0 -32-32h-112v-64a32 32 0 0 0 -32-32h-64a32 32 0 0 0 -32 32z" fill="#fbe36a"/><path d="m408 416v-24l-64 48 64 48v-24h72v-48z" fill="#f79539"/><path d="m104 96v24l64-48-64-48v24h-72v48z" fill="#f79539"/><path d="m480 408h-64v-16a8 8 0 0 0 -12.8-6.4l-64 48a8 8 0 0 0 0 12.8l64 48a8 8 0 0 0 12.8-6.4v-16h64a8 8 0 0 0 8-8v-48a8 8 0 0 0 -8-8zm-8 48h-64a8 8 0 0 0 -8 8v8l-42.667-32 42.667-32v8a8 8 0 0 0 8 8h64z"/><path d="m100.422 127.155a8 8 0 0 0 8.378-.755l64-48a8 8 0 0 0 0-12.8l-64-48a8 8 0 0 0 -12.8 6.4v16h-64a8 8 0 0 0 -8 8v48a8 8 0 0 0 8 8h64v16a8 8 0 0 0 4.422 7.155zm-60.422-39.155v-32h64a8 8 0 0 0 8-8v-8l42.667 32-42.667 32v-8a8 8 0 0 0 -8-8z"/><path d="m456 64h-104v-8a40.045 40.045 0 0 0 -40-40h-64a40.045 40.045 0 0 0 -40 40v152h-48v-8a40.045 40.045 0 0 0 -40-40h-64a40.045 40.045 0 0 0 -40 40v256a40.045 40.045 0 0 0 40 40h208a40.045 40.045 0 0 0 40-40v-104h152a40.045 40.045 0 0 0 40-40v-208a40.045 40.045 0 0 0 -40-40zm0 16a24.028 24.028 0 0 1 24 24v16.022a39.788 39.788 0 0 0 -24-8.022h-104v-32zm-192 144a24.028 24.028 0 0 1 24 24v16.022a39.788 39.788 0 0 0 -24-8.022h-104v-32zm24 232a24.028 24.028 0 0 1 -24 24h-208a24.028 24.028 0 0 1 -24-24v-256a24.028 24.028 0 0 1 24-24h64a24.028 24.028 0 0 1 24 24v64a8 8 0 0 0 8 8h112a24.028 24.028 0 0 1 24 24zm192-144a24.028 24.028 0 0 1 -24 24h-152v-88a40.045 40.045 0 0 0 -40-40h-40v-152a24.028 24.028 0 0 1 24-24h64a24.028 24.028 0 0 1 24 24v64a8 8 0 0 0 8 8h112a24.028 24.028 0 0 1 24 24z"/></svg>