<svg id="Capa_1" enable-background="new 0 0 512.002 512.002" height="512" viewBox="0 0 512.002 512.002" width="512" xmlns="http://www.w3.org/2000/svg"><g><g><path d="m508.269 368.626c-4.296-4.892-11.26-6.45-17.234-3.862-26.312 11.405-54.299 17.189-83.185 17.189-115.449 0-209.374-93.925-209.374-209.374 0-55.386 21.429-107.605 60.341-147.041 4.567-4.63 5.632-11.676 2.635-17.448-2.998-5.772-9.369-8.96-15.788-7.881-59.417 9.944-113.806 40.774-153.149 86.811-39.791 46.558-61.705 105.974-61.705 167.302 0 30.593 5.308 60.368 15.465 88.286 20.412-17.352 46.077-26.82 73.123-26.82 29.792 0 57.913 11.488 79.179 32.349 12.574 12.336 21.949 27.133 27.624 43.447 25.774 13.551 42.594 40.454 42.594 70.619 0 17.733-5.821 34.13-15.644 47.392 11.616 1.583 23.413 2.407 35.338 2.407 45.416 0 90.072-11.984 129.141-34.658 37.889-21.988 69.789-53.501 92.251-91.129 3.338-5.591 2.686-12.697-1.612-17.589z"/><path d="m188.997 512.002h-139.197c-27.46 0-49.799-22.34-49.799-49.799 0-23.273 16.047-42.868 37.658-48.303 3.043-16.773 11.172-32.185 23.569-44.346 15.623-15.326 36.282-23.767 58.171-23.767s42.548 8.44 58.171 23.766c12.396 12.161 20.525 27.573 23.569 44.347 21.611 5.435 37.658 25.029 37.658 48.303-.001 27.459-22.341 49.799-49.8 49.799z"/></g><g><path d="m438.542 259.966h-139.196c-27.46 0-49.8-22.34-49.8-49.799 0-23.273 16.047-42.868 37.658-48.303 3.043-16.773 11.172-32.186 23.568-44.347 15.623-15.326 36.282-23.767 58.172-23.767 21.889 0 42.548 8.44 58.171 23.767 12.396 12.161 20.525 27.573 23.569 44.347 21.61 5.435 37.657 25.029 37.657 48.303.001 27.459-22.339 49.799-49.799 49.799z"/></g></g></svg>