<svg id="Capa_1" enable-background="new 0 0 192 192" height="512" viewBox="0 0 192 192" width="512" xmlns="http://www.w3.org/2000/svg"><path d="m178.4 188.8h-164.8c-5.744 0-10.4-4.656-10.4-10.4v-140h185.6v140c0 5.744-4.656 10.4-10.4 10.4z" fill="#e7eced"/><path d="m188.8 41.6h-185.6v-28c0-5.744 4.656-10.4 10.4-10.4h164.8c5.744 0 10.4 4.656 10.4 10.4z" fill="#556080"/><path d="m16 16h12.8v12.8h-12.8z" fill="#dd352e"/><path d="m41.6 16h12.8v12.8h-12.8z" fill="#ebba16"/><path d="m67.2 16h12.8v12.8h-12.8z" fill="#23a24d"/><path d="m16 54.4h70.4v64h-70.4z" fill="#fff"/><path d="m32 99.2-16 19.2h35.2z" fill="#1a893c"/><circle cx="38.4" cy="76.8" fill="#ed8a19" r="9.6"/><path d="m64 89.6-22.4 28.8 44.8-3.2z" fill="#23a24d"/><path d="m105.6 112h70.4v64h-70.4z" fill="#fff"/><path d="m121.6 156.8-16 19.2h35.2z" fill="#1a893c"/><circle cx="128" cy="134.4" fill="#ed8a19" r="9.6"/><path d="m153.6 147.2-22.4 28.8 44.8-3.2z" fill="#23a24d"/><g fill="#4d007e"><path d="m177.6 192h-163.2c-7.939 0-14.4-6.461-14.4-14.4v-163.2c0-7.939 6.461-14.4 14.4-14.4h163.2c7.939 0 14.4 6.461 14.4 14.4v163.2c0 7.939-6.461 14.4-14.4 14.4zm-163.2-185.6c-4.41 0-8 3.59-8 8v163.2c0 4.41 3.59 8 8 8h163.2c4.413 0 8-3.59 8-8v-163.2c0-4.41-3.59-8-8-8z"/><path d="m28.8 32h-12.8c-1.766 0-3.2-1.434-3.2-3.2v-12.8c0-1.766 1.434-3.2 3.2-3.2h12.8c1.766 0 3.2 1.434 3.2 3.2v12.8c0 1.766-1.434 3.2-3.2 3.2zm-9.6-6.4h6.4v-6.4h-6.4z"/><path d="m54.4 32h-12.8c-1.766 0-3.2-1.434-3.2-3.2v-12.8c0-1.766 1.434-3.2 3.2-3.2h12.8c1.766 0 3.2 1.434 3.2 3.2v12.8c0 1.766-1.434 3.2-3.2 3.2zm-9.6-6.4h6.4v-6.4h-6.4z"/><path d="m80 32h-12.8c-1.766 0-3.2-1.434-3.2-3.2v-12.8c0-1.766 1.434-3.2 3.2-3.2h12.8c1.766 0 3.2 1.434 3.2 3.2v12.8c0 1.766-1.434 3.2-3.2 3.2zm-9.6-6.4h6.4v-6.4h-6.4z"/><path d="m188.8 44.8h-185.6c-1.766 0-3.2-1.434-3.2-3.2v-27.2c0-7.939 6.461-14.4 14.4-14.4h163.2c7.939 0 14.4 6.461 14.4 14.4v27.2c0 1.766-1.434 3.2-3.2 3.2zm-182.4-6.4h179.2v-24c0-4.41-3.59-8-8-8h-163.2c-4.41 0-8 3.59-8 8z"/><path d="m86.4 121.6h-70.4c-1.766 0-3.2-1.434-3.2-3.2v-64c0-1.766 1.434-3.2 3.2-3.2h70.4c1.766 0 3.2 1.434 3.2 3.2v64c0 1.766-1.434 3.2-3.2 3.2zm-67.2-6.4h64v-57.6h-64z"/><path d="m51.2 121.6c-.819 0-1.638-.314-2.262-.938l-16.938-16.937-13.738 13.738c-1.251 1.251-3.274 1.251-4.525 0s-1.251-3.274 0-4.525l16-16c1.251-1.251 3.274-1.251 4.525 0l19.2 19.2c1.251 1.251 1.251 3.274 0 4.525-.624.623-1.443.937-2.262.937z"/><path d="m38.4 89.6c-7.059 0-12.8-5.741-12.8-12.8s5.741-12.8 12.8-12.8 12.8 5.741 12.8 12.8-5.741 12.8-12.8 12.8zm0-19.2c-3.53 0-6.4 2.87-6.4 6.4s2.87 6.4 6.4 6.4 6.4-2.87 6.4-6.4-2.87-6.4-6.4-6.4z"/><path d="m86.4 115.2c-.819 0-1.638-.314-2.262-.938l-20.039-20.038-17.619 19.206c-1.194 1.306-3.216 1.392-4.522.195-1.302-1.194-1.392-3.219-.195-4.522l19.875-21.667c.589-.643 1.418-1.018 2.288-1.037.883-.038 1.715.32 2.333.938l22.4 22.4c1.251 1.251 1.251 3.274 0 4.525-.621.624-1.44.938-2.259.938z"/><path d="m176 179.2h-70.4c-1.766 0-3.2-1.434-3.2-3.2v-64c0-1.766 1.434-3.2 3.2-3.2h70.4c1.766 0 3.2 1.434 3.2 3.2v64c0 1.766-1.434 3.2-3.2 3.2zm-67.2-6.4h64v-57.6h-64z"/><path d="m140.8 179.2c-.819 0-1.638-.314-2.262-.938l-16.938-16.937-13.738 13.738c-1.251 1.251-3.274 1.251-4.525 0s-1.251-3.274 0-4.525l16-16c1.251-1.251 3.274-1.251 4.525 0l19.2 19.2c1.251 1.251 1.251 3.274 0 4.525-.624.623-1.443.937-2.262.937z"/><path d="m128 147.2c-7.059 0-12.8-5.741-12.8-12.8s5.741-12.8 12.8-12.8 12.8 5.741 12.8 12.8-5.741 12.8-12.8 12.8zm0-19.2c-3.53 0-6.4 2.87-6.4 6.4s2.87 6.4 6.4 6.4 6.4-2.87 6.4-6.4-2.87-6.4-6.4-6.4z"/><path d="m176 172.8c-.819 0-1.638-.314-2.262-.938l-20.038-20.038-17.62 19.206c-1.194 1.306-3.216 1.392-4.522.195-1.302-1.194-1.392-3.219-.195-4.522l19.875-21.667c.589-.643 1.418-1.018 2.288-1.037.854-.035 1.715.32 2.333.938l22.4 22.4c1.251 1.251 1.251 3.274 0 4.525-.621.624-1.44.938-2.259.938z"/><path d="m156.8 70.4h-51.2c-1.766 0-3.2-1.434-3.2-3.2s1.434-3.2 3.2-3.2h51.2c1.766 0 3.2 1.434 3.2 3.2s-1.434 3.2-3.2 3.2z"/><path d="m176 70.4h-6.4c-1.766 0-3.2-1.434-3.2-3.2s1.434-3.2 3.2-3.2h6.4c1.766 0 3.2 1.434 3.2 3.2s-1.434 3.2-3.2 3.2z"/><path d="m156.8 96h-51.2c-1.766 0-3.2-1.434-3.2-3.2s1.434-3.2 3.2-3.2h51.2c1.766 0 3.2 1.434 3.2 3.2s-1.434 3.2-3.2 3.2z"/><path d="m176 96h-6.4c-1.766 0-3.2-1.434-3.2-3.2s1.434-3.2 3.2-3.2h6.4c1.766 0 3.2 1.434 3.2 3.2s-1.434 3.2-3.2 3.2z"/><path d="m176 83.2h-51.2c-1.766 0-3.2-1.434-3.2-3.2s1.434-3.2 3.2-3.2h51.2c1.766 0 3.2 1.434 3.2 3.2s-1.434 3.2-3.2 3.2z"/><path d="m112 83.2h-6.4c-1.766 0-3.2-1.434-3.2-3.2s1.434-3.2 3.2-3.2h6.4c1.766 0 3.2 1.434 3.2 3.2s-1.434 3.2-3.2 3.2z"/><path d="m67.2 140.8h-51.2c-1.766 0-3.2-1.434-3.2-3.2s1.434-3.2 3.2-3.2h51.2c1.766 0 3.2 1.434 3.2 3.2s-1.434 3.2-3.2 3.2z"/><path d="m86.4 140.8h-6.4c-1.766 0-3.2-1.434-3.2-3.2s1.434-3.2 3.2-3.2h6.4c1.766 0 3.2 1.434 3.2 3.2s-1.434 3.2-3.2 3.2z"/><path d="m67.2 166.4h-51.2c-1.766 0-3.2-1.434-3.2-3.2s1.434-3.2 3.2-3.2h51.2c1.766 0 3.2 1.434 3.2 3.2s-1.434 3.2-3.2 3.2z"/><path d="m86.4 166.4h-6.4c-1.766 0-3.2-1.434-3.2-3.2s1.434-3.2 3.2-3.2h6.4c1.766 0 3.2 1.434 3.2 3.2s-1.434 3.2-3.2 3.2z"/><path d="m86.4 153.6h-51.2c-1.766 0-3.2-1.434-3.2-3.2s1.434-3.2 3.2-3.2h51.2c1.766 0 3.2 1.434 3.2 3.2s-1.434 3.2-3.2 3.2z"/><path d="m22.4 153.6h-6.4c-1.766 0-3.2-1.434-3.2-3.2s1.434-3.2 3.2-3.2h6.4c1.766 0 3.2 1.434 3.2 3.2s-1.434 3.2-3.2 3.2z"/></g></svg>