<svg id="SvgjsSvg1024" width="288" height="288" xmlns="http://www.w3.org/2000/svg" version="1.1" xmlns:xlink="http://www.w3.org/1999/xlink" xmlns:svgjs="http://svgjs.com/svgjs"><defs id="SvgjsDefs1025"></defs><g id="SvgjsG1026"><svg xmlns="http://www.w3.org/2000/svg" xmlns:svgjs="http://svgjs.com/svgjs" xmlns:xlink="http://www.w3.org/1999/xlink" width="288" height="288"><svg xmlns="http://www.w3.org/2000/svg" width="288" height="288" enable-background="new 0 0 32 32" viewBox="0 0 32 32"><path fill="#eab150" d="M10.21,7.635L8.74,4.697H0.895v21.147l6.94-15.39c0.064-0.143,0.207-0.235,0.364-0.235h15.204V7.856H10.567		C10.416,7.856,10.277,7.771,10.21,7.635z" class="colorF9ED7F svgShape coloreab150"></path><path fill="#ffc661" d="M31.506,10.218h-7.302V7.457c0-0.221-0.18-0.4-0.4-0.4H10.814l-1.47-2.938
		C9.277,3.982,9.139,3.897,8.987,3.897H0.494c-0.221,0-0.4,0.179-0.4,0.4v23.407c0,0.006,0.003,0.011,0.004,0.017
		c0,0.017,0.007,0.032,0.01,0.049c0.008,0.045,0.021,0.086,0.042,0.125c0.005,0.008,0.004,0.018,0.009,0.026
		c0.006,0.009,0.017,0.013,0.023,0.022c0.026,0.034,0.058,0.063,0.094,0.087c0.016,0.01,0.027,0.021,0.044,0.029
		c0.054,0.026,0.111,0.044,0.175,0.044h23.31c0.157,0,0.3-0.092,0.364-0.235l7.702-17.086c0.057-0.124,0.045-0.268-0.028-0.382
		C31.769,10.287,31.642,10.218,31.506,10.218z M23.403,10.218H8.199c-0.157,0-0.3,0.092-0.364,0.235l-6.94,15.39V4.697H8.74
		l1.47,2.938c0.067,0.136,0.206,0.221,0.357,0.221h12.836V10.218z" class="color3BB0E5 svgShape colorffc661"></path></svg></svg></g></svg>