<svg height="511pt" viewBox="-12 0 511 511.89189" width="511pt" xmlns="http://www.w3.org/2000/svg"><path d="m224.847656 428.691406h207.597656l-7.597656-135.199218c-.601562-9.398438-7.203125-17.398438-16.402344-19.800782l-42.597656-10.800781-25.601562-12.597656-11.800782 24.199219c-.800781 1.800781-2.800781 3-4.800781 3h-18.398437c-1.601563 0-3-.601563-4-1.800782v75.800782c0 10-8.199219 18.199218-18.199219 18.199218h-82.199219l-1.402344 23.402344v15.398438h24.800782c5.601562 0 10 4.398437 10 10 0 5.601562-3.800782 10.199218-9.398438 10.199218zm0 0" fill="#60bae2"/><path d="m366.046875 263.09375-12.601563 31.199219c-1 2.398437-3.800781 3.597656-6.199218 2.597656-.800782-.398437-1.398438-.796875-2-1.398437l-16.601563-20.800782 11.800781-24.199218zm0 0" fill="#e9e9ea"/><path d="m372.847656 139.492188c-1.203125 0-2.402344.199218-3.601562.199218 0 1.199219.199218 2.402344.199218 3.601563v37.800781c0 1.199219 0 2.398438-.199218 3.597656 12.398437 2 24.199218-6.398437 26.199218-19 2-12.398437-6.398437-24.199218-19-26.199218-1.199218 0-2.398437 0-3.597656 0zm0 0" fill="#f9d0b4"/><path d="m259.644531 181.09375v-37.601562c0-1.199219 0-2.398438.203125-3.601563-12.402344-2.199219-24.203125 6.203125-26.402344 18.800781-2.199218 12.402344 6.199219 24.199219 18.800782 26.402344 2.601562.398438 5 .398438 7.601562 0-.203125-1.402344-.203125-2.601562-.203125-4zm0 0" fill="#f9d0b4"/><path d="m314.445312 235.890625c-4.199218 0-8.597656-.597656-12.800781-1.597656v41.597656c1 1.203125 2.402344 1.800781 4 1.800781h18.402344c2 0 3.800781-1.199218 4.800781-3l11.796875-24.199218v-21c-8.199219 4.199218-17 6.398437-26.199219 6.398437zm0 0" fill="#f9d0b4"/><path d="m369.246094 131.492188c0-1.601563-1.199219-2.800782-2.800782-2.800782-22.800781-.597656-34.800781-9.597656-39.398437-14.199218-1.199219-1.199219-3-1.199219-4.199219 0 0 0-.203125.199218-.203125.199218-20 25.199219-49.597656 21.601563-59.398437 19.601563-1.601563-.402344-3.199219.597656-3.398438 2.199219v.601562 44c0 3.597656.398438 7.199219 1 10.796875h22.597656c10 0 18.199219 8.203125 18.199219 18.203125v24.199219c4.203125 1 8.402344 1.597656 12.800781 1.597656 30.199219 0 54.601563-24.597656 54.800782-54.796875v-48.800781c0-.199219 0-.402344 0-.800781zm0 0" fill="#f9d0b4"/><path d="m256.246094 139.492188c1.199218 0 2.398437 0 3.601562.199218v-2.597656c0-1.601562 1.398438-3 3-2.800781h.597656c10 2 39.402344 5.597656 59.402344-19.601563 1-1.199218 2.796875-1.398437 4.199219-.398437 0 0 .199219.199219.199219.199219 4.601562 4.601562 16.601562 13.601562 39.398437 14.199218 1.601563 0 2.800781 1.402344 2.800781 2.800782v.800781 7.398437c7-1.199218 14.199219 1.199219 19.402344 6.199219v-41.199219c0-17.199218-14-31.199218-31.203125-31.199218-5.597656 0-11.199219 1.601562-16 4.398437-5.597656-9.398437-15.796875-15.199219-26.796875-15.398437h-16c-31.203125 0-56.402344 25.398437-56.601562 56.601562v25.398438c3.800781-3.199219 8.800781-5 14-5zm0 0" fill="#6d6c6b"/><path d="m470.046875 428.691406h-451.199219c-7.402344 0-13.203125 6-13.203125 13.199219 0 7.402344 6 13.203125 13.203125 13.203125h451c7.398438 0 13.199219-6 13.199219-13.203125.199219-7.199219-5.800781-13.199219-13-13.199219zm0 0" fill="#c1814c"/><path d="m26.445312 455.292969h436v51.597656h-436zm0 0" fill="#b26e3b"/><path d="m66.644531 428.691406h41.601563c-.398438-11.199218-9.601563-20-20.800782-20-11.199218 0-20.398437 8.800782-20.800781 20zm0 0" fill="#60bae2"/><path d="m283.445312 191.890625h-193.398437c-10 0-18.199219 8.203125-18.199219 18.203125v141.398438c0 10 8.199219 18.199218 18.199219 18.199218h83.398437v-77.800781c0-7.398437 6-13.398437 13.402344-13.398437 7.398438 0 13.398438 6 13.398438 13.398437v78h83.398437c10 0 18.203125-8.199219 18.203125-18.199219v-141.398437c-.203125-10.199219-8.402344-18.402344-18.402344-18.402344zm0 0" fill="#d3d3dd"/><path d="m186.644531 278.890625c-7.398437 0-13.199219 6-13.199219 13.203125v136.398438h26.601563v-136.398438c0-7.203125-6-13.203125-13.402344-13.203125zm0 0" fill="#e9e9ea"/><path d="m151.046875 408.691406c-5.601563 0-10 4.402344-10 10 0 5.601563 4.398437 10 10 10h22.398437v-20zm0 0" fill="#d3d3dd"/><path d="m224.847656 408.691406h-24.800781v20h24.800781c5.597656 0 10-4.398437 10-10 0-5.597656-4.402344-10-10-10zm0 0" fill="#d3d3dd"/><path d="m283.445312 191.890625h-193.398437c-10 0-18.199219 8.203125-18.199219 18.203125v5.398438h230v-5.398438c-.203125-10-8.402344-18.203125-18.402344-18.203125zm0 0" fill="#e9e9ea"/><path d="m164.246094 103.09375c-1 0-2 0-2.800782 0-34.199218 0-61.800781-27.601562-61.800781-61.800781 0-12 3.402344-23.601563 10-33.800781.601563-.800782.402344-1.800782-.398437-2.398438-.398438-.203125-.800782-.402344-1.199219-.203125-33.601563 6-56 38.203125-49.800781 71.800781 6.199218 33.601563 38.199218 56 71.800781 49.800782 14-2.601563 26.597656-9.800782 36-20.601563.597656-.796875.597656-1.796875-.199219-2.398437-.601562-.199219-1-.398438-1.601562-.398438zm0 0" fill="#ffae2c"/><path d="m184.046875 30.492188c-9-1.800782-15.800781-8.601563-17.601563-17.601563 0-.199219-.199218-.398437-.398437-.398437s-.199219.199218-.402344.398437c-1.796875 9-8.597656 15.800781-17.597656 17.601563-.199219 0-.402344.199218-.402344.398437 0 .203125.203125.203125.402344.402344 9 1.800781 15.800781 8.597656 17.597656 17.597656 0 .203125.203125.402344.402344.402344s.199219-.199219.398437-.402344c1.800782-9 8.601563-15.796875 17.601563-17.597656.199219 0 .398437-.199219.398437-.402344 0-.398437-.199218-.398437-.398437-.398437zm0 0" fill="#fcd770"/><path d="m435.644531 234.292969h-17.398437c-2.800782 0-5-2.199219-5-5s2.199218-5 5-5h17.398437c2.800781 0 5 2.199219 5 5s-2.199219 5-5 5zm0 0" fill="#6dcc6d"/><path d="m427.046875 243.09375c-2.800781 0-5-2.203125-5-5v-17.402344c0-2.800781 2.199219-5 5-5s5 2.199219 5 5v17.402344c0 2.597656-2.199219 5-5 5zm0 0" fill="#6dcc6d"/><path d="m200.046875 82.492188c-1.402344 0-2.601563-.601563-3.601563-1.398438-.199218-.203125-.398437-.402344-.597656-.800781-.203125-.199219-.402344-.601563-.402344-.800781-.199218-.398438-.199218-.601563-.199218-1 0-.398438-.199219-.601563-.199219-1 0-.398438 0-.601563.199219-1 0-.398438.199218-.601563.199218-1 .199219-.398438.199219-.601563.402344-.800782.199219-.199218.398438-.597656.597656-.800781 1.402344-1.398437 3.601563-1.796875 5.402344-1 .199219.203125.597656.203125.796875.402344.203125.199219.601563.398437.800781.597656.199219.203125.402344.402344.601563.800781.199219.199219.398437.601563.398437.800782.199219.199218.199219.601562.199219 1 0 .398437 0 .601562.203125 1 0 .398437 0 .601562-.203125 1 0 .398437-.199219.601562-.199219 1-.199218.398437-.199218.601562-.398437.800781s-.402344.597656-.601563.800781c-.199218.199219-.398437.398438-.800781.597656-.199219.199219-.597656.402344-.796875.402344-.402344.199219-.601562.199219-1 .199219-.203125.199219-.402344.199219-.800781.199219zm0 0" fill="#60bae2"/><path d="m462.445312 262.691406c-1.398437 0-2.597656-.597656-3.597656-1.398437-.203125-.199219-.402344-.402344-.601562-.800781-.199219-.199219-.398438-.601563-.398438-.800782-.203125-.398437-.203125-.597656-.203125-1 0-.398437-.199219-.597656-.199219-1 0-.398437 0-.597656.199219-1 0-.398437.203125-.597656.203125-1 .199219-.398437.199219-.597656.398438-.800781.199218-.199219.398437-.597656.601562-.796875 1.398438-1.402344 3.597656-1.800781 5.398438-1 .199218.199219.601562.199219.800781.398438.199219.199218.597656.398437.800781.601562.199219.199219.398438.398438.597656.796875.199219.203125.402344.601563.402344.800781.199219.199219.199219.601563.199219 1 0 .402344 0 .601563.199219 1 0 .402344 0 .601563-.199219 1 0 .402344-.199219.601563-.199219 1-.203125.402344-.203125.601563-.402344.800782-.199218.199218-.398437.601562-.597656.800781-.203125.199219-.402344.398437-.800781.597656-.199219.203125-.601563.402344-.800781.402344-.398438.199219-.601563.199219-1 .199219-.199219.199218-.398438.199218-.800782.199218zm0 0" fill="#f75c64"/><g fill="#231f20"><path d="m470.046875 460.292969h-451.199219c-10.203125 0-18.402344-8.199219-18.402344-18.199219 0-10.203125 8.199219-18.402344 18.402344-18.402344h451c10.199219 0 18.398438 8.199219 18.398438 18.402344 0 10-8.199219 18.199219-18.199219 18.199219zm-451.199219-26.601563c-4.601562 0-8.402344 3.800782-8.402344 8.199219 0 4.601563 3.800782 8.402344 8.402344 8.402344h451c4.597656 0 8.398438-3.800781 8.398438-8.402344 0-4.597656-3.800782-8.199219-8.398438-8.199219zm0 0"/><path d="m462.445312 511.890625h-436c-2.800781 0-5-2.199219-5-5v-51.597656c0-2.800781 2.199219-5 5-5h436c2.800782 0 5 2.199219 5 5v51.597656c0 2.800781-2.199218 5-5 5zm-431-10h426v-41.597656h-426zm0 0"/><path d="m372.847656 190.09375c-1.402344 0-3-.203125-4.402344-.402344-2.597656-.398437-4.398437-2.597656-4.199218-5.199218 0-1.199219.199218-2.199219.199218-3.398438v-37.601562c0-1.199219 0-2.199219-.199218-3.398438-.199219-2.601562 1.601562-4.800781 4.199218-5.203125 1.402344-.199219 3-.398437 4.402344-.398437 15.398438 0 27.796875 12.398437 27.796875 27.800781 0 15.398437-12.398437 27.800781-27.796875 27.800781zm1.398438-45.601562v35.601562c9.800781-.800781 17.199218-9.402344 16.398437-19.203125-.796875-8.796875-7.796875-15.597656-16.398437-16.398437zm0 0"/><path d="m256.246094 190.09375c-15.398438 0-27.800782-12.402344-27.800782-27.800781 0-15.402344 12.402344-27.800781 27.800782-27.800781 1.398437 0 3 .199218 4.398437.398437 2.601563.402344 4.402344 2.601563 4.203125 5.203125 0 1.199219-.203125 2.199219-.203125 3.398438v37.800781c0 1.199219 0 2.199219.203125 3.398437.199219 2.601563-1.601562 4.800782-4.203125 5.199219-1.597656.203125-3 .203125-4.398437.203125zm-1.601563-45.601562c-9.796875.800781-17.199219 9.398437-16.398437 19.199218.800781 8.601563 7.601562 15.601563 16.398437 16.402344zm0 0"/><path d="m388.644531 150.890625c-1.199219 0-2.597656-.597656-3.398437-1.398437-3.398438-3.199219-7.800782-5-12.398438-5-1 0-1.800781 0-2.800781.199218-2.800781.402344-5.199219-1.398437-5.800781-4.199218 0-.199219 0-.601563 0-.800782v-6.199218c-20.601563-1-32.800782-8.601563-39-14-20.398438 23.800781-49 22-60.398438 20 0 2.800781-2.203125 5-5 5-.203125 0-.601562 0-.800781 0-1-.199219-1.800781-.199219-2.800781-.199219-4 0-8 1.398437-11.199219 4-2.199219 1.800781-5.402344 1.398437-7-.800781-.800781-.800782-1-2-1-3.199219v-25.199219c0-34 27.597656-61.601562 61.597656-61.601562h16c11 0 21.601563 5.199218 28.402344 13.800781 4.597656-2 9.398437-3 14.398437-3 20 0 36.199219 16.199219 36.199219 36.199219v41.398437c0 2.800781-2.199219 5-5 5zm-14.398437-16.398437c3.199218.199218 6.398437.800781 9.398437 2.199218v-32c0-14.398437-11.597656-26.199218-26.199219-26.199218-4.800781 0-9.398437 1.199218-13.597656 3.800781-2.402344 1.398437-5.402344.597656-6.800781-1.800781-4.800781-8-13.199219-12.800782-22.601563-12.800782h-16c-28.398437 0-51.597656 23-51.597656 51.601563v17c2.597656-1 5.398438-1.402344 8.199219-1.601563 1.398437-3.800781 5.199219-6 9.199219-5 10.398437 2.199219 36.601562 4.800782 54.601562-17.800781 2.796875-3.398437 7.796875-4 11.199219-1.199219.199219.199219.398437.402344.597656.601563 3.800781 3.597656 14.601563 12.199219 36 12.800781 4.203125.199219 7.601563 3.597656 7.601563 7.796875zm0 0"/><path d="m315.246094 306.691406c-.601563 0-1.398438-.199218-2-.398437-.199219-.199219-.601563-.199219-.800782-.402344-.199218-.199219-.597656-.398437-.800781-.597656-.199219-.199219-.398437-.402344-.597656-.800781-.402344-.601563-.601563-1.199219-.800781-1.800782 0-.398437 0-.597656 0-1 0-1.398437.601562-2.597656 1.398437-3.597656.203125-.203125.402344-.402344.800781-.601562.199219-.199219.601563-.398438.800782-.398438.398437-.203125.601562-.203125 1-.203125.601562-.199219 1.398437-.199219 2 0 .398437 0 .601562.203125 1 .203125.398437.199219.601562.199219.800781.398438.199219.199218.597656.398437.800781.601562 2 2 2 5.199219 0 7-1 1.199219-2.203125 1.597656-3.601562 1.597656zm0 0"/><path d="m315.246094 331.09375c-1.398438 0-2.601563-.601562-3.601563-1.402344-2-2-2-5.199218 0-7 2-1.800781 5-1.800781 7 0 2 2 2 5 0 7-.199219.199219-.398437.402344-.796875.601563-.203125.199219-.601562.398437-.800781.398437-.402344.199219-.601563.199219-1 .199219-.199219.203125-.402344.203125-.800781.203125zm0 0"/><path d="m315.246094 355.492188c-1.398438 0-2.601563-.601563-3.601563-1.398438-.199219-.203125-.398437-.402344-.597656-.800781-.199219-.199219-.402344-.601563-.402344-.800781-.199219-.398438-.199219-.601563-.199219-1 0-.398438-.199218-.601563-.199218-1 0-1.398438.601562-2.601563 1.398437-3.601563.203125-.199219.402344-.398437.800781-.597656.199219-.199219.601563-.402344.800782-.402344.398437-.199219.601562-.199219 1-.199219.601562-.199218 1.398437-.199218 2 0 .398437 0 .601562.199219 1 .199219.398437.203125.601562.203125.800781.402344s.597656.398437.800781.597656c1 1 1.398438 2.203125 1.398438 3.601563 0 .398437 0 .601562-.199219 1 0 .398437-.199219.601562-.199219 1-.203125.199218-.203125.601562-.402344.800781-.199218.199219-.398437.597656-.597656.800781-.203125.199219-.402344.398438-.800781.597656-.199219.199219-.601563.402344-.800781.402344-.199219.199219-.601563.199219-1 .199219-.398438.199219-.601563.199219-1 .199219zm0 0"/><path d="m315.246094 379.890625c-.398438 0-.601563 0-1-.199219-.398438 0-.601563-.199218-1-.199218-.398438-.199219-.601563-.199219-.800782-.398438-.199218-.203125-.597656-.402344-.800781-.601562-.199219-.199219-.398437-.398438-.597656-.800782-.199219-.199218-.402344-.597656-.402344-.800781-.199219-.398437-.199219-.597656-.199219-1-.199218-.597656-.199218-1.398437 0-2 0-.398437.199219-.597656.199219-1 .203125-.398437.203125-.597656.402344-.796875.199219-.203125.398437-.601562.597656-.800781.203125-.199219.402344-.402344.800781-.601563.199219-.199218.601563-.398437.800782-.398437.398437-.199219.601562-.199219 1-.199219.601562-.203125 1.398437-.203125 2 0 .398437 0 .601562.199219 1 .199219.398437.199219.601562.199219.800781.398437.199219.199219.597656.402344.800781.601563.199219.199219.398438.398437.597656.800781.199219.199219.402344.597656.402344.796875.199219.203125.199219.601563.199219 1 .199219.601563.199219 1.402344 0 2 0 .402344-.199219.601563-.199219 1-.203125.402344-.203125.601563-.402344.800781-.199218.199219-.398437.601563-.597656.800782-.203125.199218-.402344.398437-.800781.601562-.199219.199219-.601563.398438-.800781.398438-.398438.199218-.601563.199218-1 .199218-.398438.199219-.601563.199219-1 .199219zm0 0"/><path d="m315.246094 404.292969c-.398438 0-.601563 0-1-.199219-.398438 0-.601563-.203125-1-.203125-.398438-.199219-.601563-.199219-.800782-.398437-.199218-.199219-.597656-.398438-.800781-.601563-1-1-1.398437-2.199219-1.398437-3.597656 0-.402344 0-.601563.199218-1 0-.402344.199219-.601563.199219-1 .203125-.402344.203125-.601563.402344-.800781.199219-.199219.398437-.601563.597656-.800782.203125-.199218.402344-.398437.800781-.597656.199219-.203125.601563-.402344.800782-.402344.398437-.199218.601562-.199218 1-.199218.601562-.199219 1.199218-.199219 2 0 .398437 0 .601562.199218 1 .199218.199218.199219.601562.199219.800781.402344.199219.199219.597656.398438.800781.597656 2 2 2 5.199219 0 7-1 1.199219-2.203125 1.601563-3.601562 1.601563zm0 0"/><path d="m385.644531 433.691406c-2.796875 0-5-2.199218-5-5v-91.597656c0-2.800781 2.203125-5 5-5 2.800781 0 5 2.199219 5 5v91.597656c0 2.800782-2.398437 5-5 5zm0 0"/><path d="m249.046875 433.691406c-2.800781 0-5-2.199218-5-5v-58.800781c0-2.796875 2.199219-5 5-5s5 2.203125 5 5v58.800781c0 2.800782-2.402344 5-5 5zm0 0"/><path d="m324.046875 282.691406h-18.402344c-3 0-5.796875-1.199218-7.597656-3.398437-.800781-1-1.199219-2-1.199219-3.199219v-41.402344c0-2.800781 2.199219-5 5-5 .398438 0 .796875 0 1.199219.199219 12 2.800781 24.398437 1.203125 35.199219-4.597656 2.398437-1.402344 5.398437-.402344 6.800781 2 .398437.800781.597656 1.597656.597656 2.398437v21c0 .800782-.199219 1.601563-.398437 2.199219l-11.800782 24.203125c-2 3.398438-5.597656 5.597656-9.398437 5.597656zm-17.402344-10.199218h17.203125s.199219 0 .199219-.199219l11.199219-23.199219v-12.203125c-9.199219 3.402344-19 4.601563-28.800782 3.402344zm0 0"/><path d="m432.445312 433.691406h-207.597656c-2.800781 0-5-2.199218-5-5 0-2.800781 2.199219-5 5-5 2.796875 0 5-2.199218 5-5 0-2.800781-2.203125-5-5-5h-24.800781c-2.800781 0-5-2.199218-5-5v-15.398437-.199219l1.199219-23.402344c.199218-2.597656 2.398437-4.800781 5-4.800781h82.199218c7.402344 0 13.199219-6 13.199219-13.199219v-75.800781c0-2.796875 2.203125-5 5-5 1.402344 0 2.800781.601563 3.800781 1.601563h18.601563s.199219 0 .199219-.199219l11.800781-24.199219c1.199219-2.402344 4.199219-3.601562 6.597656-2.402344l25.203125 12.402344 42 10.597656c11.398438 2.800782 19.398438 12.601563 20 24.402344l7.597656 135.199219c.199219 2.800781-2 5.199219-4.800781 5.199219 0 .199218 0 .199218-.199219.199218zm-193.398437-10h188.199219l-7.199219-129.800781c-.402344-7.199219-5.402344-13.398437-12.601563-15.199219l-42.597656-10.800781c-.402344 0-.601562-.199219-1-.398437l-21-10.398438-9.601562 19.796875c-1.800782 3.601563-5.199219 5.800781-9.199219 5.800781h-17.199219v69c0 12.800782-10.402344 23.199219-23.203125 23.199219h-77.398437l-1 18.402344v10.199219h19.800781c8.199219 0 15 6.800781 15 15-.199219 1.800781-.402344 3.601562-1 5.199218zm0 0"/><path d="m349.046875 302.09375c-3 0-5.800781-1.402344-7.601563-3.601562l-16.597656-20.800782c-1.203125-1.597656-1.402344-3.597656-.601562-5.398437l11.800781-24.199219c1.199219-2.402344 4.199219-3.601562 6.597656-2.402344l25.601563 12.601563c2.398437 1.199219 3.398437 4 2.398437 6.398437l-12.597656 31.199219c-1.199219 3.203125-4.199219 5.402344-7.601563 6-.398437.203125-1 .203125-1.398437.203125zm-14.402344-28 14.402344 17.796875 10.800781-26.398437-17-8.398438zm0 0"/><path d="m360.246094 355.492188h-23c-2.800782 0-5-2.199219-5-5 0-2.800782 2.199218-5 5-5h23c2.800781 0 5 2.199218 5 5 0 2.800781-2.199219 5-5 5zm0 0"/><path d="m283.445312 374.890625h-83.398437c-2.800781 0-5-2.199219-5-5v-77.796875c0-4.601562-3.800781-8.402344-8.402344-8.402344-4.597656 0-8.398437 3.800782-8.398437 8.402344v77.796875c0 2.800781-2.199219 5-5 5h-83.199219c-12.800781 0-23.199219-10.398437-23.199219-23.199219v-141.398437c0-12.800781 10.398438-23.199219 23.199219-23.199219h193.398437c12.800782 0 23.199219 10.398438 23.199219 23.199219v141.398437c0 12.800782-10.398437 23.199219-23.199219 23.199219zm-78.398437-10h78.398437c7.402344 0 13.199219-6 13.199219-13.199219v-141.398437c0-7.402344-6-13.199219-13.199219-13.199219h-193.398437c-7.402344 0-13.199219 6-13.199219 13.199219v141.398437c0 7.402344 6 13.199219 13.199219 13.199219h78.398437v-72.796875c0-10.203125 8.199219-18.402344 18.402344-18.402344 10.199219 0 18.398438 8.199219 18.398438 18.402344v72.796875zm0 0"/><path d="m200.046875 433.691406h-26.601563c-2.800781 0-5-2.199218-5-5v-136.398437c0-10.199219 8.199219-18.402344 18.402344-18.402344 10.199219 0 18.398438 8.203125 18.398438 18.402344v136.398437c-.199219 2.800782-2.398438 5-5.199219 5zm-21.601563-10h16.601563v-131.398437c0-4.601563-3.800781-8.402344-8.402344-8.402344-4.597656 0-8.398437 3.800781-8.398437 8.402344v131.398437zm0 0"/><path d="m173.445312 433.691406h-22.398437c-8.199219 0-15-6.800781-15-15 0-8.199218 6.800781-15 15-15h22.398437c2.800782 0 5 2.199219 5 5v20c0 2.800782-2.199218 5-5 5zm-22.398437-20c-2.800781 0-5 2.199219-5 5 0 2.800782 2.199219 5 5 5h17.398437v-10zm0 0"/><path d="m224.847656 433.691406h-24.800781c-2.800781 0-5-2.199218-5-5v-20c0-2.800781 2.199219-5 5-5h24.800781c8.199219 0 15 6.800782 15 15 0 8.199219-6.800781 15-15 15zm-19.800781-10h19.800781c2.796875 0 5-2.199218 5-5 0-2.800781-2.203125-5-5-5h-19.800781zm0 0"/><path d="m241.644531 358.691406c-2.796875 0-5-2.199218-5-5v-7c0-2.800781 2.203125-5 5-5 2.800781 0 5 2.199219 5 5v7c0 2.800782-2.398437 5-5 5zm0 0"/><path d="m221.046875 358.691406c-2.800781 0-5-2.199218-5-5v-7c0-2.800781 2.199219-5 5-5s5 2.199219 5 5v7c0 2.800782-2.402344 5-5 5zm0 0"/><path d="m262.246094 358.691406c-2.800782 0-5-2.199218-5-5v-7c0-2.800781 2.199218-5 5-5 2.800781 0 5 2.199219 5 5v7c0 2.800782-2.398438 5-5 5zm0 0"/><path d="m301.644531 220.492188h-230c-2.796875 0-5-2.199219-5-5v-5.398438c0-12.800781 10.402344-23.203125 23.203125-23.203125h193.398438c12.800781 0 23.199218 10.402344 23.199218 23.203125v5.398438c.199219 2.800781-2 5-4.800781 5zm-225-10h220v-.398438c0-7.402344-6-13.203125-13.199219-13.203125h-193.398437c-7.402344 0-13.199219 6-13.199219 13.203125v.398438zm0 0"/><path d="m314.445312 240.890625c-4.597656 0-9.398437-.597656-13.800781-1.597656-2.199219-.601563-3.796875-2.601563-3.796875-4.800781v-24.199219c0-7.402344-6-13.199219-13.203125-13.199219h-22.796875c-2.402344 0-4.402344-1.601562-5-4-.800781-3.800781-1.203125-7.800781-1.203125-11.601562v-44c0-4.398438 3.601563-8 8-8 .601563 0 1.203125 0 1.601563.199218 10.398437 2.199219 36.601562 4.800782 54.601562-17.800781 2.796875-3.398437 7.796875-4 11.199219-1.199219.199219.199219.398437.402344.597656.601563 3.800781 3.597656 14.601563 12.199219 36 12.800781 4.203125.199219 7.601563 3.597656 7.601563 7.796875v49.800781c0 32.402344-26.800782 59.199219-59.800782 59.199219zm-7.800781-10.597656c2.601563.398437 5.203125.597656 7.800781.597656 27.402344 0 49.800782-22.199219 49.800782-49.796875v-47.601562c-20.601563-1-33-8.601563-39-14-20.398438 23.800781-49 22-60.398438 20v41.601562c0 2 .199219 3.796875.398438 5.796875h18.398437c12.800781 0 23.203125 10.402344 23.203125 23.203125zm0 0"/><path d="m118.847656 132.691406c-.800781 0-1.601562 0-2.402344 0-36.800781-1.398437-65.800781-32.199218-64.398437-69.199218 1-31.601563 24-58 54.800781-63.398438 3.597656-.601562 7.199219 1.796875 7.796875 5.398438.203125 1.601562 0 3.398437-1 4.800781-17 26.398437-9.597656 61.597656 16.800781 78.800781 9.199219 6 20 9.199219 31 9.199219h2.601563c3.800781-.199219 6.800781 2.800781 7 6.398437 0 1.800782-.601563 3.402344-1.601563 4.800782-12.597656 14.601562-31.199218 23.199218-50.597656 23.199218zm-17.402344-121c-30 9.601563-46.398437 41.402344-37 71.402344 9.402344 30 41.601563 46.398438 71.601563 36.796875 7.597656-2.398437 14.800781-6.398437 20.800781-11.796875-36.800781-2.601562-64.601562-34.601562-62-71.402344.398438-8.800781 2.796875-17.199218 6.597656-25zm62.800782 91.402344"/><path d="m108.246094 433.691406h-41.601563c-2.796875 0-5-2.199218-5-5v-.199218c.601563-14.199219 12.800781-25.199219 27-24.601563 13.203125.601563 24 11.203125 24.601563 24.601563 0 2.800781-2 5-5 5.199218zm-35.398438-10h29.398438c-3.199219-8-12.398438-12-20.398438-9-4.203125 1.601563-7.402344 4.800782-9 9zm0 0"/><path d="m154.246094 486.09375c-39.601563 0-71.800782-24.203125-71.800782-54v-3.402344c0-2.800781 2.199219-5 5-5 2.800782 0 5 2.199219 5 5v3.402344c0 24.199219 27.800782 44 61.800782 44s61.800781-19.800781 61.800781-44v-62.203125c0-2.796875 2.199219-5 5-5s5 2.203125 5 5v62.203125c0 29.796875-32.199219 54-71.800781 54zm0 0"/></g></svg>