<svg id="Capa_1" enable-background="new 0 0 512 512" height="512" viewBox="0 0 512 512" width="512" xmlns="http://www.w3.org/2000/svg"><g><g><path d="m351.245 261.813c-8.284 0-15-6.716-15-15v-136.568c0-44.247-35.997-80.245-80.245-80.245s-80.245 35.998-80.245 80.245v136.567c0 8.284-6.716 15-15 15s-15-6.716-15-15v-136.567c0-60.789 49.455-110.245 110.245-110.245s110.245 49.456 110.245 110.245v136.567c0 8.285-6.716 15.001-15 15.001z" fill="#5a5a5a"/></g><path d="m256 197 26.625 142-26.625 173c-86.85 0-157.5-70.65-157.5-157.5s70.65-157.5 157.5-157.5z" fill="#3ba9ff"/><g><path d="m366.25 110.25v136.56c0 8.29-6.72 15-15 15-8.29 0-15-6.71-15-15v-136.56c0-44.25-36-80.25-80.25-80.25v-30c60.79 0 110.25 49.46 110.25 110.25z" fill="#444"/></g><path d="m413.5 354.5c0 86.85-70.65 157.5-157.5 157.5v-315c29.29 0 56.73 8.03 80.25 22.01 10.92 6.49 20.98 14.26 30 23.11 29.14 28.6 47.25 68.41 47.25 112.38z" fill="#0081ff"/><path d="m309.25 333.157c0-29.362-23.888-53.25-53.25-53.25s-53.25 23.888-53.25 53.25c0 24.154 16.17 44.59 38.25 51.085v30.227c0 8.284 6.716 15 15 15s15-6.716 15-15v-30.227c22.08-6.495 38.25-26.931 38.25-51.085z" fill="#5a5a5a"/><path d="m309.25 333.16c0 24.15-16.17 44.59-38.25 51.08v30.23c0 8.28-6.72 15-15 15v-149.56c29.36 0 53.25 23.88 53.25 53.25z" fill="#444"/></g></svg>