<svg
    xmlns="http://www.w3.org/2000/svg"
    viewBox="0 0 512 512"
    id="vector">
    <path
        id="path"
        d="M 485.448 25.275 C 450.947 -8.325 393.35 -8.625 358.549 25.575 L 326.451 57.673 C 320.449 63.373 320.449 72.973 326.451 78.673 L 379.251 131.473 L 432.648 184.574 C 438.35 190.574 447.948 190.574 453.65 184.574 L 485.448 152.774 C 520.55 117.674 521.15 60.975 485.448 25.275 Z"
        fill="#17ace8"/>
    <path
        id="path_1"
        d="M 485.448 152.775 L 453.65 184.575 C 447.948 190.575 438.35 190.575 432.648 184.575 L 379.251 131.474 L 485.448 25.275 C 521.15 60.975 520.55 117.674 485.448 152.775 Z"
        fill="#1689fc"/>
    <path
        id="path_2"
        d="M 103.166 461.866 L 76.469 435.166 L 50.065 409.066 C 42.265 401.266 29.667 403.967 25.767 413.865 L 21.867 423.165 L 2.367 470.565 C -2.434 481.665 0.269 494.266 8.669 502.966 L 8.669 503.266 C 16.77 511.365 29.367 514.666 41.368 509.565 L 89.067 490.066 L 98.369 486.166 C 108.568 482.266 110.666 468.765 103.166 461.866 Z"
        fill="#000000"/>
    <path
        id="path_3"
        d="M 188.369 449.267 L 98.369 486.166 L 89.067 490.066 L 55.167 456.466 L 21.867 423.165 L 25.767 413.865 L 62.967 323.567 C 66.867 313.366 80.366 311.266 87.265 318.766 L 140.065 371.566 L 193.166 424.965 C 200.666 432.465 198.268 445.665 188.369 449.267 Z"
        fill="#fedbab"/>
    <path
        id="path_4"
        d="M 103.166 461.866 C 110.666 468.765 108.568 482.266 98.369 486.166 L 89.067 490.066 L 41.368 509.565 C 29.367 514.666 16.77 511.365 8.669 503.266 L 8.669 502.966 L 76.469 435.166 L 103.166 461.866 Z"
        fill="#000000"/>
    <path
        id="path_5"
        d="M 193.166 424.965 C 200.666 432.465 198.267 445.665 188.369 449.267 L 98.369 486.166 L 89.067 490.066 L 55.167 456.466 L 140.066 371.565 L 193.166 424.965 Z"
        fill="#fec478"/>
    <path
        id="path_6"
        d="M 411.349 206.174 L 357.948 152.775 L 305.148 99.975 C 299.746 94.275 289.551 94.275 284.149 99.975 L 66.267 318.765 L 66.267 319.065 L 129.57 382.365 L 193.166 445.965 L 411.349 227.174 C 417.351 221.775 417.351 211.574 411.349 206.174 Z"
        fill="#353333"/>
    <path
        id="path_7"
        d="M 411.349 206.174 C 417.351 211.574 417.351 221.775 411.349 227.174 L 193.166 445.965 L 129.57 382.365 L 357.948 152.775 L 411.349 206.174 Z"
        fill="#353333"/>
    <path
        id="path_8"
        d="M 400.55 110.174 L 336.946 46.874 L 273.35 110.474 L 400.85 237.974 L 464.446 174.074 L 400.55 110.174 Z"
        fill="#c5c9f7"/>
    <path
        id="path_9"
        d="M 464.446 174.074 L 400.85 237.974 L 336.946 174.074 L 400.55 110.174 Z"
        fill="#a8aff1"/>
</svg>
