<svg id="Capa_1" enable-background="new 0 0 512 512" height="512" viewBox="0 0 512 512" width="512" xmlns="http://www.w3.org/2000/svg"><g><path d="m128 7.5 75.5 120.5-75.5 120.5c66.55 0 120.5-53.95 120.5-120.5s-53.95-120.5-120.5-120.5z" fill="#fac75a"/><path d="m218.5 128c0-66.55-40.518-120.5-90.5-120.5-66.55 0-120.5 53.95-120.5 120.5s53.95 120.5 120.5 120.5c49.982 0 90.5-53.95 90.5-120.5zm-90.5 60.5c-33.413 0-60.5-27.087-60.5-60.5s27.087-60.5 60.5-60.5 60.5 27.087 60.5 60.5-27.087 60.5-60.5 60.5z" fill="#fce06f"/><path d="m384 263.5 75.5 120.5-75.5 120.5c66.55 0 120.5-53.95 120.5-120.5s-53.95-120.5-120.5-120.5z" fill="#fac75a"/><path d="m474.5 384c0-66.55-40.518-120.5-90.5-120.5-66.55 0-120.5 53.95-120.5 120.5s53.95 120.5 120.5 120.5c49.982 0 90.5-53.95 90.5-120.5zm-90.5 60.5c-33.413 0-60.5-27.087-60.5-60.5s27.087-60.5 60.5-60.5 60.5 27.087 60.5 60.5-27.087 60.5-60.5 60.5z" fill="#fce06f"/><path d="m495.713 16.287-31.82 10.607-437 437-10.607 31.82c11.716 11.716 30.711 11.716 42.426 0l437-437c11.717-11.716 11.717-30.712.001-42.427z" fill="#fac75a"/><path d="m453.287 16.287-437 437c-11.716 11.716-11.716 30.711 0 42.426l479.426-479.426c-11.716-11.716-30.71-11.716-42.426 0z" fill="#fce06f"/><path d="m271.91 282.517c-2.93-2.929-7.678-2.929-10.607 0l-207.894 207.893c-8.771 8.772-23.047 8.772-31.818 0-4.25-4.25-6.591-9.9-6.591-15.91s2.341-11.66 6.591-15.91l437-437c8.771-8.772 23.047-8.772 31.818 0 4.25 4.25 6.591 9.9 6.591 15.91s-2.341 11.66-6.591 15.91l-207.893 207.893c-2.929 2.929-2.929 7.678 0 10.606 2.93 2.929 7.678 2.929 10.607 0l207.893-207.893c7.083-7.082 10.984-16.499 10.984-26.516s-3.901-19.434-10.983-26.517c-14.621-14.621-38.412-14.621-53.033 0l-437 437c-7.083 7.083-10.984 16.5-10.984 26.517s3.901 19.434 10.983 26.516c7.311 7.311 16.914 10.966 26.517 10.966s19.206-3.655 26.517-10.966l207.893-207.893c2.929-2.929 2.929-7.678 0-10.606z"/><path d="m128 256c70.579 0 128-57.42 128-128s-57.421-128-128-128-128 57.42-128 128 57.421 128 128 128zm0-241c62.309 0 113 50.691 113 113s-50.691 113-113 113-113-50.691-113-113 50.691-113 113-113z"/><path d="m128 196c37.495 0 68-30.505 68-68s-30.505-68-68-68-68 30.505-68 68 30.505 68 68 68zm0-121c29.225 0 53 23.776 53 53s-23.775 53-53 53-53-23.776-53-53 23.775-53 53-53z"/><path d="m384 256c-70.579 0-128 57.42-128 128s57.421 128 128 128 128-57.42 128-128-57.421-128-128-128zm0 241c-62.309 0-113-50.691-113-113s50.691-113 113-113 113 50.691 113 113-50.691 113-113 113z"/><path d="m384 316c-37.495 0-68 30.505-68 68s30.505 68 68 68 68-30.505 68-68-30.505-68-68-68zm0 121c-29.225 0-53-23.776-53-53s23.775-53 53-53 53 23.776 53 53-23.775 53-53 53z"/></g></svg>