<svg xmlns="http://www.w3.org/2000/svg" enable-background="new 0 0 512 512" viewBox="0 0 512 512"><path fill="#f2f0f0" d="M507.283,175.238l0.819,271.001c0.045,14.889-11.988,26.995-26.877,27.04l-449.467,1.358c-14.889,0.045-26.995-11.988-27.04-26.877L3.899,176.759c-0.045-14.889,11.988-26.995,26.877-27.04l143.824-0.434l0,0c-0.057-18.946,15.255-34.351,34.201-34.408l93.21-0.282c18.946-0.057,34.351,15.255,34.408,34.201v0l143.824-0.434C495.131,148.316,507.238,160.349,507.283,175.238z"/><path d="M507.283,175.214l0.819,271.024c0.045,14.887-11.968,26.973-26.855,27.018l-27.097,0.082c14.887-0.045,26.954-12.131,26.909-27.018l-0.819-271.024c-0.045-14.887-12.184-26.9-27.072-26.855l27.097-0.082C495.152,148.314,507.238,160.327,507.283,175.214z" opacity=".08"/><path fill="#f96464" d="M480.725,282.988l-449.672,1.358L30.75,198.13c-0.042-11.831,9.558-21.455,21.389-21.496c265.39-0.916,367.486-1.282,405.941-1.421c11.748-0.042,21.322,9.386,21.48,21.133L480.725,282.988z"/><path d="M480.725,282.988l-26.99,0.082l-1.172-86.644c-0.195-11.299-9.112-20.537-20.307-21.092c10.818-0.033,19.225-0.112,25.812-0.132c11.781-0.036,21.342,9.414,21.485,21.142L480.725,282.988z" opacity=".08"/><path fill="#6d6d6d" d="M300.364,131.322l-7.521,0.023c-0.421,3.487-2.875,6.675-7.404,6.66c-19.916-0.068-39.82-0.859-59.736-0.926c-4.006-0.014-6.375-2.521-7.168-5.509l-7.955,0.024c-7.1,0.021-12.838,5.794-12.817,12.894c0.021,7.1,5.794,12.838,12.894,12.817l89.784-0.271c7.1-0.022,12.838-5.794,12.817-12.894C313.237,137.039,307.464,131.301,300.364,131.322z"/><path fill="#ffce29" d="M313.064,45.699l-22.773,93.387c-0.734,3.011-3.428,5.134-6.527,5.143l-56.505,0.171c-3.1,0.009-5.806-2.097-6.558-5.103l-23.337-93.247c-1.063-4.246,2.141-8.363,6.518-8.376l102.616-0.31C310.873,37.349,314.101,41.447,313.064,45.699z"/><path d="M313.049,45.72l-22.745,93.356c-0.741,3.001-3.465,5.152-6.518,5.161l-21.153,0.064c3.106-0.009,5.83-2.16,6.518-5.161l22.799-93.356c1.058-4.287-2.167-8.348-6.558-8.334l21.099-0.064C310.882,37.372,314.107,41.433,313.049,45.72z" opacity=".08"/><path fill="#66d5f2" d="M208.255,283.811c0.044,14.405-3.932,27.913-10.859,39.447c-13.267,22.157-37.535,37.064-65.328,37.148c-27.74,0.084-52.097-14.623-65.552-36.699c-6.996-11.492-11.054-24.975-11.097-39.434c-0.128-42.252,33.989-76.521,76.187-76.649S208.127,241.559,208.255,283.811z"/><path fill="#f2f0f0" d="M453.949 212.144L453.949 212.144c.014 4.727-3.806 8.571-8.534 8.585l-114.618.346c-4.727.014-8.571-3.806-8.585-8.534v0c-.014-4.727 3.806-8.571 8.534-8.585l114.618-.346C450.091 203.596 453.935 207.417 453.949 212.144zM454.052 246.114L454.052 246.114c.014 4.727-3.806 8.571-8.534 8.585l-76.288.23c-4.727.014-8.571-3.806-8.585-8.534v0c-.014-4.727 3.806-8.571 8.534-8.585l76.288-.23C450.194 237.566 454.038 241.386 454.052 246.114z"/><path fill="#e5e3e5" d="M229.1 310.159L229.1 310.159c.014 4.727 3.858 8.548 8.585 8.534l114.618-.346c4.727-.014 8.548-3.858 8.534-8.585l0 0c-.014-4.727-3.858-8.548-8.585-8.534l-114.618.346C232.906 301.588 229.086 305.432 229.1 310.159zM229.203 344.129L229.203 344.129c.014 4.727 3.858 8.548 8.585 8.534l76.288-.23c4.727-.014 8.548-3.858 8.534-8.585v0c-.014-4.727-3.858-8.548-8.585-8.534l-76.288.23C233.009 335.558 229.188 339.401 229.203 344.129zM47.37 439.232L47.37 439.232c.014 4.727 3.858 8.548 8.585 8.534l46.801-.141c4.727-.014 8.548-3.858 8.534-8.585l0 0c-.014-4.727-3.858-8.548-8.585-8.534l-46.801.141C51.177 430.661 47.356 434.504 47.37 439.232zM47.234 394.213L47.234 394.213c.014 4.727 3.858 8.548 8.585 8.534l46.801-.141c4.727-.014 8.548-3.858 8.534-8.585v0c-.014-4.727-3.858-8.548-8.585-8.534l-46.801.141C51.041 385.642 47.22 389.486 47.234 394.213zM165.406 438.875L165.406 438.875c.014 4.727 3.858 8.548 8.585 8.534l46.801-.141c4.727-.014 8.548-3.858 8.534-8.585l0 0c-.014-4.727-3.858-8.548-8.585-8.534l-46.801.141C169.213 430.304 165.392 434.148 165.406 438.875zM165.27 393.857L165.27 393.857c.014 4.727 3.858 8.548 8.585 8.534l46.801-.141c4.727-.014 8.548-3.858 8.534-8.585l0 0c-.014-4.727-3.858-8.548-8.585-8.534l-46.801.141C169.077 385.286 165.256 389.13 165.27 393.857zM283.442 438.518L283.442 438.518c.014 4.727 3.858 8.548 8.585 8.534l46.801-.141c4.727-.014 8.548-3.858 8.534-8.585l0 0c-.014-4.727-3.858-8.548-8.585-8.534l-46.801.141C287.249 429.947 283.428 433.791 283.442 438.518zM283.306 393.5L283.306 393.5c.014 4.727 3.858 8.548 8.585 8.534l46.801-.141c4.727-.014 8.548-3.858 8.534-8.585l0 0c-.014-4.727-3.858-8.548-8.585-8.534l-46.801.141C287.113 384.929 283.292 388.773 283.306 393.5zM401.478 438.162L401.478 438.162c.014 4.727 3.858 8.548 8.585 8.534l46.801-.141c4.727-.014 8.548-3.858 8.534-8.585l0 0c-.014-4.727-3.858-8.548-8.585-8.534l-46.801.141C405.285 429.591 401.464 433.435 401.478 438.162zM401.342 393.144L401.342 393.144c.014 4.727 3.858 8.548 8.585 8.534l46.801-.141c4.727-.014 8.548-3.858 8.534-8.585l0 0c-.014-4.727-3.858-8.548-8.585-8.534l-46.801.141C405.149 384.573 401.328 388.416 401.342 393.144z"/><path fill="#fff" d="M197.396,323.258c-13.267,22.157-37.535,37.064-65.328,37.148c-27.74,0.084-52.097-14.623-65.552-36.699c10.019-16.149,25.887-28.3,44.668-33.551c-7.891-6.135-13.007-15.705-13.039-26.469c-0.056-18.582,14.946-33.676,33.529-33.732c18.582-0.056,33.676,14.946,33.732,33.529c0.033,10.764-4.973,20.311-12.826,26.493C171.338,295.115,187.28,307.169,197.396,323.258z"/><path d="M509.882,175.231c-0.049-16.269-13.301-29.47-29.558-29.47h-0.089l-141.315,0.428c-0.64-8.877-4.416-17.129-10.791-23.464c-6.964-6.921-16.197-10.728-26.01-10.728h-0.117l-2.432,0.007l16.019-65.688c1.436-5.886-3.021-11.552-9.07-11.552c-0.01,0-0.02,0-0.03,0l-102.617,0.31c-6.062,0.019-10.505,5.716-9.03,11.605l16.415,65.59l-2.463,0.008c-19.476,0.06-35.431,15.272-36.711,34.416l-141.315,0.426c-16.298,0.049-29.516,13.35-29.468,29.647l0.819,271.001c0.049,16.269,13.298,29.468,29.556,29.468h0.091l449.467-1.358c16.297-0.048,29.516-13.348,29.468-29.646L509.882,175.231z M218.178,139.926c1.043,4.168,4.767,7.072,9.061,7.072c0.009,0,0.018,0,0.027,0l56.505-0.171c4.305-0.013,8.024-2.943,9.046-7.127l1.405-5.761l6.151-0.018h0.032c5.655,0,10.238,4.568,10.256,10.226c0.018,5.667-4.555,10.27-10.226,10.288l-89.784,0.27h-0.032c-5.641,0-10.239-4.58-10.256-10.225c-0.018-5.667,4.555-10.27,10.226-10.288l6.151-0.019L218.178,139.926z M203.887,40.272l102.618-0.31c0.004,0,0.009,0,0.013,0c2.682,0,4.659,2.511,4.02,5.121v0.001l-22.773,93.386c-0.452,1.855-2.102,3.155-4.01,3.16l-56.505,0.171c-1.953-0.102-3.567-1.284-4.029-3.136l-23.336-93.249C199.23,42.81,201.195,40.28,203.887,40.272z M481.217,470.68L31.75,472.038h-0.076c-13.397,0-24.317-10.878-24.358-24.286L6.497,176.751c-0.041-13.431,10.854-24.393,24.286-24.434l143.824-0.434c1.435-0.004,2.595-1.171,2.591-2.607c-0.053-17.482,14.128-31.749,31.61-31.802l3.748-0.011l2.882,11.517l-4.866,0.015c-8.541,0.026-15.435,6.959-15.409,15.501c0.025,8.506,6.953,15.407,15.454,15.407h0.047l89.784-0.27c8.541-0.026,15.435-6.959,15.409-15.501c-0.026-8.522-6.928-15.409-15.453-15.409h-0.048l-4.867,0.015l2.812-11.532l3.716-0.011h0.102c8.43,0,16.363,3.272,22.346,9.218c6.006,5.97,9.329,13.921,9.354,22.391c0.003,0.689,0.278,1.35,0.767,1.836c0.487,0.484,1.146,0.755,1.832,0.755h0.008l143.824-0.435h0.074c13.398,0,24.32,10.879,24.36,24.287l0.819,271.001C505.543,459.68,494.648,470.64,481.217,470.68z"/><path d="M458.156,172.614h-0.085c-38.454,0.138-140.551,0.505-405.942,1.42c-6.418,0.023-12.447,2.542-16.978,7.093c-4.537,4.556-7.023,10.598-7,17.011l0.303,86.217c0.005,1.433,1.168,2.59,2.599,2.59h0.008l21.855-0.066c1.506,41.946,35.577,76.126,78.911,76.126c42.211,0,77.655-33.503,78.946-76.603l269.959-0.816c1.445-0.005,2.61-1.186,2.591-2.635l-1.165-86.64C481.983,183.226,471.225,172.614,458.156,172.614z M131.829,357.807c-24.963,0-48.378-12.419-62.22-34.117c9.871-15.161,24.823-26.152,42.274-31.032c2.047-0.572,2.584-3.242,0.896-4.555c-7.619-5.924-12.006-14.826-12.036-24.424c-0.052-17.11,13.827-31.074,30.938-31.126c0.033,0,0.062,0,0.095,0c17.066,0,30.978,13.86,31.03,30.938c0.028,9.59-4.286,18.5-11.835,24.444c-1.671,1.316-1.136,3.986,0.921,4.548c17.452,4.78,32.452,15.68,42.411,30.777C180.469,345.23,156.275,357.807,131.829,357.807z M197.156,318.338c-9.737-13.788-23.462-24.112-39.421-29.503c6.604-6.749,10.298-15.761,10.27-25.359c-0.061-19.94-16.302-36.121-36.228-36.121c-0.037,0-0.074,0-0.11,0c-19.977,0.061-36.18,16.363-36.121,36.339c0.029,9.608,3.796,18.618,10.471,25.349c-15.953,5.482-29.631,15.89-39.289,29.743c-5.657-10.584-8.672-22.427-8.71-34.521c-0.122-40.704,32.893-73.92,73.596-74.043c0.077,0,0.148,0,0.226,0c40.598,0,73.693,32.97,73.816,73.596C205.693,295.879,202.749,307.721,197.156,318.338z M210.78,281.204c-1.505-42.285-36.351-76.18-78.94-76.18c-0.08,0-0.161,0-0.241,0c-42.698,0.129-77.469,34.284-78.721,76.657l-19.235,0.058l-0.294-83.619c-0.018-5.024,1.93-9.756,5.485-13.326c3.555-3.569,8.283-5.544,13.313-5.562c265.391-0.915,367.487-1.282,405.942-1.42h0.067c10.239,0,18.668,8.316,18.805,18.57l1.129,84.014L210.78,281.204z"/><path d="M456.548 212.137c-.018-6.152-5.002-11.126-11.157-11.126-.011 0-.023 0-.034 0l-114.618.346c-6.165.018-11.144 5.022-11.126 11.193.02 6.141 5.023 11.124 11.16 11.124.01 0 .023 0 .033 0l114.618-.346C451.59 223.31 456.567 218.306 456.548 212.137zM330.791 218.477c-.006 0-.011 0-.018 0-3.278 0-5.952-2.662-5.962-5.943-.01-3.299 2.654-5.968 5.943-5.978l114.618-.346c.006 0 .011 0 .018 0 3.274 0 5.95 2.643 5.961 5.943.01 3.293-2.646 5.968-5.942 5.978L330.791 218.477zM445.492 234.981c-.01 0-.023 0-.033 0l-76.288.231c-6.164.018-11.145 5.023-11.124 11.192.018 6.148 4.999 11.124 11.155 11.124.013 0 .025 0 .037 0l76.289-.23c6.151-.02 11.141-5.041 11.123-11.192C456.633 239.964 451.631 234.981 445.492 234.981zM445.511 252.1l-76.289.23c-.006 0-.013 0-.019 0-3.285 0-5.948-2.654-5.958-5.943-.011-3.3 2.655-5.967 5.942-5.977l76.288-.231c.006 0 .013 0 .018 0 3.274 0 5.95 2.643 5.961 5.943C451.463 249.407 448.797 252.09 445.511 252.1zM352.244 298.628l-114.619.346c-6.151.02-11.141 5.041-11.123 11.192.018 6.154 5.003 11.126 11.159 11.126.01 0 .022 0 .033 0l114.618-.346c6.164-.018 11.145-5.023 11.124-11.192C363.416 303.602 358.322 298.697 352.244 298.628zM352.296 315.747l-114.618.346c-.006 0-.011 0-.018 0-3.279 0-5.951-2.662-5.961-5.943-.01-3.286 2.656-5.968 5.942-5.978l114.618-.346c.006 0 .011 0 .018 0 3.279 0 5.951 2.662 5.961 5.944C358.248 313.071 355.582 315.737 352.296 315.747zM325.208 343.839c-.018-6.148-4.999-11.124-11.155-11.124-.013 0-.025 0-.037 0l-76.288.23c-6.166.018-11.145 5.024-11.124 11.193.019 6.141 5.02 11.124 11.159 11.124.01 0 .023 0 .033 0l76.288-.231C320.236 355.013 325.226 349.991 325.208 343.839zM237.78 350.063c-.006 0-.011 0-.018 0-3.279 0-5.951-2.662-5.961-5.943 0 0 0 0 0-.001-.011-3.3 2.655-5.967 5.942-5.977l76.289-.23c.006 0 .013 0 .019 0 3.293 0 5.948 2.662 5.958 5.942.01 3.287-2.656 5.968-5.942 5.978L237.78 350.063zM102.73 427.906c-.01 0-.023 0-.033 0l-46.802.141c-6.151.02-11.141 5.041-11.123 11.193.018 6.141 5.02 11.124 11.159 11.124.01 0 .023 0 .033 0l46.802-.141c6.152-.02 11.143-5.042 11.123-11.193C113.871 432.89 108.868 427.906 102.73 427.906zM102.749 445.025l-46.801.141c-.006 0-.011 0-.018 0-3.279 0-5.951-2.661-5.961-5.942-.01-3.287 2.656-5.97 5.942-5.98l46.801-.141c.006 0 .011 0 .018 0 3.279 0 5.951 2.661 5.961 5.943C108.701 442.332 106.036 445.015 102.749 445.025zM55.794 405.346c.01 0 .022 0 .033 0l46.801-.142c6.152-.018 11.142-5.039 11.124-11.192-.018-6.148-4.999-11.124-11.155-11.124-.013 0-.025 0-.037 0l-46.801.141c-6.166.018-11.145 5.024-11.124 11.193C44.654 400.376 49.641 405.346 55.794 405.346zM49.834 394.204c-.011-3.3 2.655-5.967 5.942-5.977l46.802-.141c.006 0 .013 0 .019 0 3.293 0 5.948 2.662 5.958 5.942.01 3.293-2.646 5.968-5.942 5.978l-46.801.142c-.006 0-.011 0-.018 0-3.279 0-5.951-2.662-5.961-5.943C49.834 394.206 49.834 394.206 49.834 394.204zM220.765 427.549c-.01 0-.023 0-.033 0l-46.801.141c-6.152.02-11.142 5.041-11.124 11.193.018 6.141 5.02 11.124 11.159 11.124.01 0 .023 0 .033 0l46.802-.141c6.152-.02 11.142-5.041 11.124-11.194C231.905 432.532 226.902 427.549 220.765 427.549zM220.784 444.669l-46.801.141c-.006 0-.011 0-.018 0-3.279 0-5.951-2.661-5.961-5.942-.01-3.287 2.656-5.97 5.943-5.98l46.799-.141c.006 0 .011 0 .018 0 3.278 0 5.952 2.662 5.962 5.942C226.737 441.976 224.071 444.659 220.784 444.669zM173.83 404.99c.01 0 .022 0 .033 0l46.801-.142c6.164-.018 11.145-5.023 11.124-11.192-.018-6.148-4.999-11.124-11.155-11.124-.013 0-.025 0-.037 0l-46.801.141c-6.152.018-11.142 5.039-11.124 11.192C162.69 400.018 167.674 404.99 173.83 404.99zM173.811 387.871l46.802-.141c.006 0 .013 0 .019 0 3.285 0 5.948 2.654 5.958 5.943.011 3.3-2.655 5.967-5.942 5.977l-46.801.142c-.006 0-.011 0-.018 0-3.279 0-5.951-2.662-5.961-5.943C167.859 390.556 170.515 387.881 173.811 387.871zM338.802 427.193c-.01 0-.023 0-.033 0l-46.802.141c-6.152.02-11.143 5.042-11.123 11.194.018 6.142 4.993 11.123 11.159 11.123.01 0 .022 0 .033 0l46.802-.141c6.151-.02 11.141-5.041 11.123-11.193C349.943 432.176 344.94 427.193 338.802 427.193zM338.821 444.312l-46.801.141c-.006 0-.011 0-.018 0-3.279 0-5.951-2.661-5.961-5.942 0 0 0 0 0-.001-.01-3.286 2.655-5.968 5.942-5.978l46.801-.141c.006 0 .011 0 .018 0 3.279 0 5.951 2.661 5.961 5.942C344.773 441.619 342.107 444.302 338.821 444.312zM291.867 404.633c.01 0 .023 0 .033 0l46.799-.142c6.152-.018 11.143-5.039 11.126-11.192-.018-6.148-4.999-11.124-11.155-11.124-.013 0-.025 0-.037 0l-46.801.141c-6.152.018-11.143 5.039-11.126 11.192 0 0 0 0 0 .001C280.727 399.65 285.73 404.633 291.867 404.633zM291.848 387.514l46.802-.141c3.686.18 5.967 2.866 5.977 5.942.01 3.287-2.656 5.968-5.943 5.978l-46.799.142c-.006 0-.011 0-.018 0-3.278 0-5.952-2.662-5.962-5.944C285.896 390.206 288.561 387.524 291.848 387.514zM456.838 426.836c-.01 0-.022 0-.033 0l-46.802.141c-6.151.02-11.141 5.041-11.123 11.193.018 6.141 5.02 11.124 11.159 11.124.01 0 .023 0 .033 0l46.802-.141c6.166-.021 11.144-5.027 11.123-11.193C467.978 431.806 462.994 426.836 456.838 426.836zM456.857 443.956l-46.801.141c-.006 0-.011 0-.018 0-3.279 0-5.951-2.661-5.961-5.942-.01-3.287 2.656-5.97 5.942-5.98l46.801-.141c.006 0 .011 0 .018 0 3.279 0 5.951 2.661 5.961 5.943C462.809 441.257 460.163 443.945 456.857 443.956zM409.902 404.277c.01 0 .023 0 .033 0l46.801-.142c6.152-.018 11.142-5.039 11.124-11.192-.018-6.148-4.999-11.124-11.155-11.124-.013 0-.025 0-.037 0l-46.801.141c-6.166.018-11.145 5.024-11.124 11.193C398.763 399.293 403.764 404.277 409.902 404.277zM403.942 393.135c-.011-3.3 2.655-5.967 5.942-5.977l46.802-.141c.006 0 .013 0 .019 0 3.293 0 5.948 2.662 5.958 5.942.01 3.287-2.656 5.968-5.942 5.978l-46.801.142c-.006 0-.011 0-.018 0-3.279 0-5.951-2.662-5.961-5.943C403.942 393.136 403.942 393.136 403.942 393.135z"/><path fill="#fff" d="M43.678,321.417v28.143c0,7.039-5.706,12.745-12.745,12.745h0c-7.039,0-12.745-5.706-12.745-12.745v-28.143c0-7.039,5.706-12.745,12.745-12.745h0C37.972,308.672,43.678,314.378,43.678,321.417z" opacity=".4"/></svg>