<svg id="Capa_1" enable-background="new 0 0 511.481 511.481" height="512" viewBox="0 0 511.481 511.481" width="512" xmlns="http://www.w3.org/2000/svg"><g><g><path d="m7.529 427.773v57.293c0 9.841 7.977 17.818 17.818 17.818h34.692c7.099 0 13.52-4.214 16.346-10.726l11.849-27.31h293.619l11.849 27.31c2.826 6.512 9.247 10.726 16.346 10.726h34.692c9.841 0 17.818-7.977 17.818-17.818v-57.293z" fill="#ffd15b"/><g fill="#ffc344"><path d="m25.959 492.158c-1.715 3.953-4.759 7.05-8.471 8.881 2.373 1.17 5.034 1.845 7.858 1.845h34.692c7.099 0 13.52-4.214 16.346-10.726l11.849-27.31h-37.154c-8.057 0-15.345 4.783-18.552 12.174z"/><path d="m412.133 427.773v57.293c0 7.016-4.065 13.067-9.96 15.973 2.404 1.186 5.085 1.845 7.875 1.845h34.692c9.841 0 17.818-7.977 17.818-17.818v-57.293z"/></g><path d="m367.944 199.766h-265.802c-13.293 0-25.102 8.485-29.343 21.083l-65.27 206.924h455.029l-65.27-206.925c-4.242-12.598-16.051-21.082-29.344-21.082z" fill="#ffe177"/><path d="m397.287 220.848c-4.241-12.598-16.05-21.083-29.343-21.083h-50.424c13.293 0 25.102 8.485 29.343 21.083l65.27 206.925h50.425z" fill="#ffd15b"/><g fill="#678d98"><path d="m210.069 199.773h-34.789v-27.173c0-3.746 3.036-6.782 6.782-6.782h21.225c3.746 0 6.782 3.036 6.782 6.782z"/><path d="m294.806 199.773h-34.788v-27.173c0-3.746 3.036-6.782 6.782-6.782h21.225c3.746 0 6.782 3.036 6.782 6.782v27.173z"/></g><path d="m57.532 262.577 44.128-16.259c12.944-4.769 19.571-19.129 14.801-32.072l-18.007-48.87 208.988-77.003 18.007 48.87c4.769 12.944 19.129 19.571 32.072 14.801l44.128-16.259c12.944-4.769 19.571-19.129 14.801-32.072l-12.02-32.623c-18.222-49.455-73.085-74.774-122.54-56.552l-211.9 78.076c-49.455 18.222-74.774 73.085-56.552 122.54l12.02 32.623c4.771 12.943 19.131 19.57 32.074 14.8z" fill="#ffd15b"/><g fill="#ffc344"><path d="m416.452 103.712-12.02-32.623c-17.27-46.87-67.45-72.055-114.748-59.048 28.676 7.884 53.257 29.014 64.323 59.048l12.02 32.623c4.769 12.944-1.858 27.303-14.801 32.072l-8.534 3.032c-5.517 2.033-11.289 1.989-16.469.274 5.403 11.712 18.988 17.489 31.299 12.953l44.128-16.259c12.945-4.769 19.572-19.128 14.802-32.072z"/><path d="m98.456 165.375-21.984 8.596c-12.27 4.798-18.445 18.532-13.89 30.894l3.456 9.381c4.769 12.944-1.858 27.303-14.801 32.072l-11.635 4.304c-4.028 1.484-8.193 1.864-12.164 1.294 6.029 10.154 18.616 14.892 30.095 10.662l44.129-16.259c12.944-4.769 19.571-19.129 14.801-32.072z"/></g><g><path d="m167.041 395.81h-28.864c-9.156 0-16.578-7.422-16.578-16.578v-.115c0-9.156 7.422-16.578 16.578-16.578h28.864c9.156 0 16.578 7.422 16.578 16.578v.115c-.001 9.156-7.423 16.578-16.578 16.578z" fill="#00f2a6"/><path d="m167.041 362.539h-28.864c-.056 0-.11.008-.166.008 9.078.09 16.411 7.47 16.411 16.569v.115c0 9.099-7.333 16.479-16.411 16.569.056.001.11.008.166.008h28.864c9.156 0 16.578-7.422 16.578-16.578v-.115c-.001-9.154-7.423-16.576-16.578-16.576z" fill="#00db8c"/><path d="m332.216 395.81h-97.34c-9.156 0-16.578-7.422-16.578-16.578v-.115c0-9.156 7.422-16.578 16.578-16.578h97.34c9.156 0 16.578 7.422 16.578 16.578v.115c-.001 9.156-7.423 16.578-16.578 16.578z" fill="#bec6ed"/><path d="m332.216 362.539h-29.196c9.156 0 16.578 7.422 16.578 16.578v.115c0 9.156-7.422 16.578-16.578 16.578h29.196c9.156 0 16.578-7.422 16.578-16.578v-.115c-.001-9.156-7.423-16.578-16.578-16.578z" fill="#a2aee6"/></g><g><path d="m175.408 267.978h-15.012c-4.735 0-8.573-3.838-8.573-8.573v-15.012c0-4.735 3.838-8.573 8.573-8.573h15.012c4.735 0 8.573 3.838 8.573 8.573v15.012c0 4.735-3.838 8.573-8.573 8.573z" fill="#8795de"/><path d="m241.546 267.978h-15.012c-4.735 0-8.573-3.838-8.573-8.573v-15.012c0-4.735 3.838-8.573 8.573-8.573h15.012c4.735 0 8.573 3.838 8.573 8.573v15.012c0 4.735-3.839 8.573-8.573 8.573z" fill="#8795de"/><path d="m307.683 267.978h-15.012c-4.735 0-8.573-3.838-8.573-8.573v-15.012c0-4.735 3.838-8.573 8.573-8.573h15.012c4.735 0 8.573 3.838 8.573 8.573v15.012c0 4.735-3.838 8.573-8.573 8.573z" fill="#6c7fd8"/></g><g><path d="m175.408 330.167h-15.012c-4.735 0-8.573-3.838-8.573-8.573v-15.012c0-4.735 3.838-8.573 8.573-8.573h15.012c4.735 0 8.573 3.838 8.573 8.573v15.012c0 4.735-3.838 8.573-8.573 8.573z" fill="#8795de"/><path d="m241.546 330.167h-15.012c-4.735 0-8.573-3.838-8.573-8.573v-15.012c0-4.735 3.838-8.573 8.573-8.573h15.012c4.735 0 8.573 3.838 8.573 8.573v15.012c0 4.735-3.839 8.573-8.573 8.573z" fill="#8795de"/><path d="m307.683 330.167h-15.012c-4.735 0-8.573-3.838-8.573-8.573v-15.012c0-4.735 3.838-8.573 8.573-8.573h15.012c4.735 0 8.573 3.838 8.573 8.573v15.012c0 4.735-3.838 8.573-8.573 8.573z" fill="#6c7fd8"/></g></g><g><path d="m470.025 427.135c-.079-.437.019-.435-.316-1.624l-65.268-206.922c-.015-.046-.03-.092-.045-.138-5.275-15.663-19.922-26.187-36.448-26.187h-65.643v-19.664c0-7.875-6.407-14.282-14.282-14.282h-21.225c-7.875 0-14.282 6.407-14.282 14.282v19.664h-34.949v-19.664c0-7.875-6.407-14.282-14.282-14.282h-21.225c-7.875 0-14.282 6.407-14.282 14.282v19.664h-51.424l-8.27-22.445 194.913-71.816 15.413 41.832c3 8.141 8.989 14.625 16.866 18.261 7.877 3.634 16.698 3.986 24.837.985l44.128-16.259c16.804-6.191 25.437-24.899 19.246-41.703l-12.02-32.623c-9.506-25.799-28.489-46.352-53.453-57.872-24.96-11.521-52.916-12.63-78.715-3.124l-211.9 78.076c-25.798 9.505-46.351 28.488-57.872 53.451-11.521 24.964-12.63 52.92-3.125 78.718l12.02 32.624c6.305 16.564 24.548 25.371 41.703 19.245l44.129-16.259c16.804-6.191 25.437-24.899 19.246-41.703l-1.617-4.388h246.065c10.058 0 18.975 6.391 22.21 15.91l62.169 197.098h-434.568l37.786-119.806c1.246-3.95-.947-8.163-4.897-9.408-3.951-1.248-8.163.946-9.409 4.896l-40.855 129.538c-.075.219-.354 1.296-.356 2.281v57.294c0 13.96 11.357 25.317 25.318 25.317h34.691c10.092 0 19.209-5.982 23.227-15.24l9.89-22.796h218.469c4.142 0 7.5-3.357 7.5-7.5s-3.358-7.5-7.5-7.5h-223.39c-2.988 0-5.691 1.773-6.88 4.515l-11.849 27.311c-1.637 3.772-5.353 6.211-9.466 6.211h-34.691c-5.689 0-10.318-4.628-10.318-10.317v-49.792h440.029v49.792c0 5.689-4.629 10.317-10.318 10.317h-34.691c-4.113 0-7.829-2.438-9.465-6.211l-11.85-27.311c-1.189-2.741-3.892-4.515-6.88-4.515h-35.184c-4.142 0-7.5 3.357-7.5 7.5s3.358 7.5 7.5 7.5h30.263l9.891 22.796c4.017 9.258 13.134 15.24 23.226 15.24h34.691c13.96 0 25.318-11.357 25.318-25.317v-57.294c-.003-.125-.008-.098-.034-.638zm-370.957-187.854-44.128 16.259c-8.3 3.202-19.085-1.371-22.442-10.356l-12.02-32.624c-8.121-22.039-7.172-45.921 2.669-67.246 9.842-21.326 27.399-37.543 49.438-45.663l211.9-78.076c9.911-3.651 20.193-5.47 30.449-5.47 12.551 0 25.062 2.724 36.797 8.139 21.326 9.842 37.542 27.399 45.663 49.438l12.02 32.623c3.332 9.043-1.314 19.111-10.356 22.443l-44.128 16.259c-4.38 1.613-9.127 1.426-13.366-.531-4.239-1.956-7.462-5.445-9.076-9.826l-15.344-41.645 17.014-5.764c3.923-1.329 6.026-5.587 4.697-9.51-1.33-3.923-5.585-6.026-9.51-4.697l-253.607 93.113c-3.861 1.499-5.777 5.845-4.278 9.706 1.153 2.97 3.989 4.788 6.994 4.788.902 0 1.82-.164 2.712-.51l12.891-5.004 15.368 41.71c3.332 9.044-1.314 19.112-10.357 22.444zm168.45-65.963h19.788v18.946h-19.788zm-84.738 0h19.789v18.946h-19.789z"/><path d="m114.099 379.117v.115c0 13.276 10.801 24.078 24.078 24.078h28.863c13.277 0 24.078-10.802 24.078-24.078v-.115c0-13.276-10.801-24.078-24.078-24.078h-28.863c-13.277 0-24.078 10.802-24.078 24.078zm62.02 0v.115c0 5.006-4.072 9.078-9.078 9.078h-28.863c-5.006 0-9.078-4.072-9.078-9.078v-.115c0-5.006 4.072-9.078 9.078-9.078h28.863c5.005 0 9.078 4.072 9.078 9.078z"/><path d="m210.798 379.117v.115c0 13.276 10.801 24.078 24.078 24.078h97.34c13.276 0 24.078-10.802 24.078-24.078v-.115c0-13.276-10.801-24.078-24.078-24.078h-97.34c-13.276 0-24.078 10.802-24.078 24.078zm130.495 0v.115c0 5.006-4.072 9.078-9.078 9.078h-97.34c-5.005 0-9.078-4.072-9.078-9.078v-.115c0-5.006 4.072-9.078 9.078-9.078h97.34c5.006 0 9.078 4.072 9.078 9.078z"/><path d="m160.396 275.478h15.012c8.863 0 16.073-7.21 16.073-16.073v-15.012c0-8.863-7.21-16.073-16.073-16.073h-15.012c-8.862 0-16.073 7.21-16.073 16.073v15.012c0 8.863 7.211 16.073 16.073 16.073zm-1.073-31.085c0-.592.481-1.073 1.073-1.073h15.012c.591 0 1.073.481 1.073 1.073v15.012c0 .592-.481 1.073-1.073 1.073h-15.012c-.591 0-1.073-.481-1.073-1.073z"/><path d="m241.545 228.32h-15.012c-8.863 0-16.073 7.21-16.073 16.073v15.012c0 8.863 7.21 16.073 16.073 16.073h15.012c8.863 0 16.073-7.21 16.073-16.073v-15.012c.001-8.863-7.21-16.073-16.073-16.073zm1.074 31.085c0 .592-.481 1.073-1.073 1.073h-15.012c-.592 0-1.073-.481-1.073-1.073v-15.012c0-.592.481-1.073 1.073-1.073h15.012c.592 0 1.073.481 1.073 1.073z"/><path d="m292.671 275.478h15.012c8.863 0 16.073-7.21 16.073-16.073v-15.012c0-8.863-7.21-16.073-16.073-16.073h-15.012c-8.862 0-16.073 7.21-16.073 16.073v15.012c0 8.863 7.211 16.073 16.073 16.073zm-1.073-31.085c0-.592.481-1.073 1.073-1.073h15.012c.592 0 1.073.481 1.073 1.073v15.012c0 .592-.481 1.073-1.073 1.073h-15.012c-.591 0-1.073-.481-1.073-1.073z"/><path d="m144.323 321.594c0 8.863 7.21 16.073 16.073 16.073h15.012c8.863 0 16.073-7.21 16.073-16.073v-15.012c0-8.863-7.21-16.073-16.073-16.073h-15.012c-8.862 0-16.073 7.21-16.073 16.073zm15-15.012c0-.592.481-1.073 1.073-1.073h15.012c.591 0 1.073.481 1.073 1.073v15.012c0 .592-.481 1.073-1.073 1.073h-15.012c-.591 0-1.073-.481-1.073-1.073z"/><path d="m210.46 321.594c0 8.863 7.21 16.073 16.073 16.073h15.012c8.863 0 16.073-7.21 16.073-16.073v-15.012c0-8.863-7.21-16.073-16.073-16.073h-15.012c-8.863 0-16.073 7.21-16.073 16.073zm15-15.012c0-.592.481-1.073 1.073-1.073h15.012c.592 0 1.073.481 1.073 1.073v15.012c0 .592-.481 1.073-1.073 1.073h-15.012c-.592 0-1.073-.481-1.073-1.073z"/><path d="m276.598 321.594c0 8.863 7.21 16.073 16.073 16.073h15.012c8.863 0 16.073-7.21 16.073-16.073v-15.012c0-8.863-7.21-16.073-16.073-16.073h-15.012c-8.862 0-16.073 7.21-16.073 16.073zm15-15.012c0-.592.481-1.073 1.073-1.073h15.012c.592 0 1.073.481 1.073 1.073v15.012c0 .592-.481 1.073-1.073 1.073h-15.012c-.591 0-1.073-.481-1.073-1.073z"/><path d="m503.981 107.705h-33.061c-4.142 0-7.5 3.357-7.5 7.5s3.358 7.5 7.5 7.5h33.061c4.142 0 7.5-3.357 7.5-7.5s-3.358-7.5-7.5-7.5z"/><path d="m461.96 81.239c1.599 0 3.211-.509 4.576-1.562l19.612-15.129c3.28-2.53 3.887-7.239 1.357-10.52-2.529-3.278-7.239-3.888-10.52-1.357l-19.612 15.129c-3.28 2.53-3.887 7.239-1.357 10.52 1.478 1.915 3.699 2.919 5.944 2.919z"/><path d="m486.148 165.744-19.612-15.13c-3.278-2.53-7.989-1.922-10.52 1.357-2.53 3.279-1.922 7.989 1.357 10.52l19.612 15.13c1.364 1.053 2.976 1.562 4.576 1.562 2.245 0 4.466-1.004 5.944-2.919 2.531-3.28 1.923-7.99-1.357-10.52z"/></g></g></svg>