<?xml version="1.0"?>
<svg xmlns="http://www.w3.org/2000/svg" xmlns:xlink="http://www.w3.org/1999/xlink" xmlns:svgjs="http://svgjs.com/svgjs" version="1.1" width="512" height="512" x="0" y="0" viewBox="0 0 512 512.00349" style="enable-background:new 0 0 512 512" xml:space="preserve" class=""><g><path xmlns="http://www.w3.org/2000/svg" d="m332.65625 187.738281v-170.667969h-105.195312l-39.722657 48.554688v113.578125l-114.023437 8.535156-56.644532 31.632813v113.289062h153.746094v153.742188h113.285156l48.554688-48.554688v-105.1875h105.191406l48.554688-48.554687v-96.367188zm0 0" fill="#ebba16" data-original="#ebba16" style="" class=""/><path xmlns="http://www.w3.org/2000/svg" d="m8.535156 221.871094 59.734375-51.199219h102.398438v51.199219zm0 0" fill="#ce9e17" data-original="#ce9e17" style="" class=""/><path xmlns="http://www.w3.org/2000/svg" d="m452.269531 341.335938v-119.464844l51.199219-51.199219v119.464844zm0 0" fill="#ce9e17" data-original="#ce9e17" style="" class=""/><path xmlns="http://www.w3.org/2000/svg" d="m290.136719 503.46875 51.199219-51.199219v-110.933593h-51.199219zm0 0" fill="#ce9e17" data-original="#ce9e17" style="" class=""/><path xmlns="http://www.w3.org/2000/svg" d="m290.136719 221.871094 51.199219-51.199219v-162.136719l-51.199219 51.203125zm0 0" fill="#b78815" data-original="#b78815" style="" class=""/><path xmlns="http://www.w3.org/2000/svg" d="m341.335938 170.671875-51.199219 51.199219h162.132812l51.199219-51.199219zm0 0" fill="#b78815" data-original="#b78815" style="" class=""/><path xmlns="http://www.w3.org/2000/svg" d="m170.667969 59.738281 59.734375-51.203125h110.933594l-51.199219 51.203125zm0 0" fill="#ce9e17" data-original="#ce9e17" style="" class=""/><path xmlns="http://www.w3.org/2000/svg" d="m452.269531 221.871094h-162.132812v-162.132813h-119.46875v162.132813h-162.132813v119.464844h162.132813v162.132812h119.46875v-162.132812h162.132812zm0 0" fill="#ebba16" data-original="#ebba16" style="" class=""/><g xmlns="http://www.w3.org/2000/svg" fill="#4d007e"><path d="m170.667969 230.402344h-162.132813c-3.566406 0-6.757812-2.226563-8.003906-5.570313-1.238281-3.355469-.265625-7.117187 2.449219-9.4375l59.734375-51.199219c1.542968-1.324218 3.515625-2.058593 5.554687-2.058593h102.398438c4.710937 0 8.535156 3.824219 8.535156 8.535156v51.199219c0 4.710937-3.824219 8.53125-8.535156 8.53125zm-139.066407-17.066406h130.535157v-34.132813h-90.710938zm0 0" fill="#ffffff" data-original="#4d007e" style="" class=""/><path d="m452.269531 349.871094c-1.101562 0-2.210937-.214844-3.269531-.648438-3.179688-1.324218-5.261719-4.4375-5.261719-7.886718v-119.464844c0-2.261719.894531-4.4375 2.5-6.035156l51.199219-51.199219c2.441406-2.441407 6.101562-3.175781 9.300781-1.851563 3.183594 1.324219 5.265625 4.4375 5.265625 7.886719v119.464844c0 2.261719-.898437 4.4375-2.5 6.03125l-51.203125 51.203125c-1.628906 1.636718-3.8125 2.5-6.03125 2.5zm8.535157-124.46875v95.335937l34.132812-34.132812v-95.335938zm0 0" fill="#ffffff" data-original="#4d007e" style="" class=""/><path d="m290.136719 512.003906c-1.101563 0-2.210938-.214844-3.269531-.648437-3.183594-1.324219-5.265626-4.4375-5.265626-7.886719v-162.132812c0-4.710938 3.824219-8.53125 8.535157-8.53125h51.199219c4.710937 0 8.535156 3.820312 8.535156 8.53125v110.933593c0 2.261719-.898438 4.4375-2.5 6.035157l-51.203125 51.199218c-1.628907 1.636719-3.8125 2.5-6.03125 2.5zm8.53125-162.132812v133l34.136719-34.132813v-98.867187zm0 0" fill="#ffffff" data-original="#4d007e" style="" class=""/><path d="m290.136719 230.402344c-1.101563 0-2.210938-.210938-3.269531-.648438-3.183594-1.320312-5.265626-4.4375-5.265626-7.882812v-162.132813c0-2.261719.898438-4.4375 2.5-6.035156l51.203126-51.199219c2.4375-2.4492185 6.101562-3.175781 9.300781-1.851562 3.183593 1.324218 5.265625 4.4375 5.265625 7.882812v162.136719c0 2.257813-.898438 4.4375-2.5 6.03125l-51.203125 51.199219c-1.628907 1.640625-3.8125 2.5-6.03125 2.5zm8.53125-167.132813v138l34.136719-34.132812v-138zm0 0" fill="#ffffff" data-original="#4d007e" style="" class=""/><path d="m452.269531 230.402344h-162.132812c-3.449219 0-6.5625-2.082032-7.886719-5.265625-1.320312-3.191407-.585938-6.859375 1.851562-9.300781l51.203126-51.199219c1.601562-1.59375 3.769531-2.5 6.03125-2.5h162.132812c3.449219 0 6.5625 2.082031 7.886719 5.265625 1.320312 3.191406.585937 6.859375-1.851563 9.300781l-51.203125 51.199219c-1.59375 1.605468-3.769531 2.5-6.03125 2.5zm-141.535156-17.066406h138.003906l34.132813-34.132813h-138.003906zm0 0" fill="#ffffff" data-original="#4d007e" style="" class=""/><path d="m290.136719 68.269531h-119.46875c-3.566407 0-6.757813-2.226562-8.003907-5.570312-1.234374-3.355469-.261718-7.117188 2.449219-9.4375l59.734375-51.203125c1.542969-1.320313 3.515625-2.05468775 5.554688-2.05468775h110.933594c3.449218 0 6.5625 2.08203175 7.886718 5.26562475 1.320313 3.191407.585938 6.859375-1.851562 9.300781l-51.203125 51.199219c-1.59375 1.605469-3.769531 2.5-6.03125 2.5zm-96.402344-17.066406h92.871094l34.132812-34.132813h-87.179687zm0 0" fill="#ffffff" data-original="#4d007e" style="" class=""/><path d="m290.136719 512.003906h-119.46875c-4.707031 0-8.53125-3.824218-8.53125-8.535156v-153.597656h-153.601563c-4.710937 0-8.53124975-3.824219-8.53124975-8.535156v-119.464844c0-4.710938 3.82031275-8.535156 8.53124975-8.535156h153.601563v-153.597657c0-4.710937 3.824219-8.535156 8.53125-8.535156h119.46875c4.710937 0 8.53125 3.824219 8.53125 8.535156v153.597657h153.601562c4.710938 0 8.535157 3.824218 8.535157 8.535156v119.464844c0 4.710937-3.824219 8.535156-8.535157 8.535156h-153.601562v153.597656c0 4.710938-3.820313 8.535156-8.53125 8.535156zm-110.933594-17.066406h102.398437v-153.601562c0-4.710938 3.824219-8.53125 8.535157-8.53125h153.601562v-102.402344h-153.601562c-4.710938 0-8.535157-3.820313-8.535157-8.53125v-153.601563h-102.398437v153.601563c0 4.710937-3.824219 8.53125-8.535156 8.53125h-153.597657v102.402344h153.597657c4.710937 0 8.535156 3.820312 8.535156 8.53125zm0 0" fill="#ffffff" data-original="#4d007e" style="" class=""/></g></g></svg>
