<?xml version="1.0" encoding="UTF-8" standalone="no"?> <svg width="64" height="64" viewBox="0 0 64 64" fill="none" xmlns="http://www.w3.org/2000/svg">
<path d="M19 44V19C19 14.7565 17.3143 10.6869 14.3137 7.68629C11.3131 4.68571 7.24346 3 3 3V3V45C3 48.4478 4.36964 51.7544 6.80761 54.1924C9.24558 56.6304 12.5522 58 16 58H41L41.66 58.66C43.1582 60.1582 45.1902 61 47.309 61H53V44H19Z" fill="#EDB88E"/>
<path d="M53 44V61H47.31C46.2607 61.0003 45.2216 60.7938 44.2521 60.3923C43.2826 59.9908 42.4018 59.4021 41.66 58.66L41 58H16C12.5522 58 9.24558 56.6304 6.80761 54.1924C4.36964 51.7544 3 48.4478 3 45V3C3.66885 2.99782 4.33706 3.04126 5 3.13C5.03391 6.79806 6.50609 10.3063 9.09991 12.9001C11.6937 15.4939 15.2019 16.9661 18.87 17C18.9587 17.6629 19.0022 18.3312 19 19V42H14C12.7038 41.9967 11.4571 42.4978 10.5239 43.3974C9.59068 44.2971 9.04416 45.5245 9 46.82C9.00022 47.5052 9.13635 48.1836 9.40051 48.8159C9.66467 49.4482 10.0516 50.0218 10.5389 50.5036C11.0263 50.9853 11.6043 51.3656 12.2396 51.6225C12.8749 51.8794 13.5548 52.0077 14.24 52H35.67C36.1073 52.0001 36.5404 51.9141 36.9445 51.7468C37.3486 51.5795 37.7157 51.3342 38.025 51.025C38.3342 50.7157 38.5795 50.3486 38.7468 49.9445C38.9141 49.5404 39.0001 49.1073 39 48.67V45.94C39.0005 45.4256 39.2051 44.9325 39.5688 44.5688C39.9325 44.2051 40.4256 44.0005 40.94 44H53Z" fill="#DA9367"/>
<path d="M50 47C50 46.4696 50.2107 45.9609 50.5858 45.5858C50.9609 45.2107 51.4696 45 52 45H59C59.5304 45 60.0391 45.2107 60.4142 45.5858C60.7893 45.9609 61 46.4696 61 47C61 47.5304 60.7893 48.0391 60.4142 48.4142C60.0391 48.7893 59.5304 49 59 49H52C51.4696 49 50.9609 48.7893 50.5858 48.4142C50.2107 48.0391 50 47.5304 50 47Z" fill="#F9DBAF"/>
<path d="M51 51C51 50.4696 51.2107 49.9609 51.5858 49.5858C51.9609 49.2107 52.4696 49 53 49H59C59.5304 49 60.0391 49.2107 60.4142 49.5858C60.7893 49.9609 61 50.4696 61 51C61 51.5304 60.7893 52.0391 60.4142 52.4142C60.0391 52.7893 59.5304 53 59 53H53C52.4696 53 51.9609 52.7893 51.5858 52.4142C51.2107 52.0391 51 51.5304 51 51Z" fill="#F9DBAF"/>
<path d="M50 55C50 54.4696 50.2107 53.9609 50.5858 53.5858C50.9609 53.2107 51.4696 53 52 53H59C59.5304 53 60.0391 53.2107 60.4142 53.5858C60.7893 53.9609 61 54.4696 61 55C61 55.5304 60.7893 56.0391 60.4142 56.4142C60.0391 56.7893 59.5304 57 59 57H52C51.4696 57 50.9609 56.7893 50.5858 56.4142C50.2107 56.0391 50 55.5304 50 55Z" fill="#F9DBAF"/>
<path d="M50 59C50 58.4696 50.2107 57.9609 50.5858 57.5858C50.9609 57.2107 51.4696 57 52 57H59C59.5304 57 60.0391 57.2107 60.4142 57.5858C60.7893 57.9609 61 58.4696 61 59C61 59.5304 60.7893 60.0391 60.4142 60.4142C60.0391 60.7893 59.5304 61 59 61H52C51.4696 61 50.9609 60.7893 50.5858 60.4142C50.2107 60.0391 50 59.5304 50 59Z" fill="#F9DBAF"/>
<path d="M61 47C60.9961 47.5292 60.7841 48.0356 60.4099 48.4099C60.0356 48.7841 59.5292 48.9961 59 49H52C51.4696 49 50.9609 48.7893 50.5858 48.4142C50.2107 48.0391 50 47.5304 50 47C50 46.4696 50.2107 45.9609 50.5858 45.5858C50.9609 45.2107 51.4696 45 52 45H56C56.0016 45.5299 56.2128 46.0377 56.5875 46.4125C56.9623 46.7872 57.4701 46.9984 58 47H61Z" fill="#EDB88E"/>
<path d="M61 51C60.9961 51.5292 60.7841 52.0356 60.4099 52.4099C60.0356 52.7841 59.5292 52.9961 59 53H53C52.4696 53 51.9609 52.7893 51.5858 52.4142C51.2107 52.0391 51 51.5304 51 51C51 50.4696 51.2107 49.9609 51.5858 49.5858C51.9609 49.2107 52.4696 49 53 49H56C56.0016 49.5299 56.2128 50.0377 56.5875 50.4125C56.9623 50.7872 57.4701 50.9984 58 51H61Z" fill="#EDB88E"/>
<path d="M61 55C60.9961 55.5292 60.7841 56.0356 60.4099 56.4099C60.0356 56.7841 59.5292 56.9961 59 57H52C51.4696 57 50.9609 56.7893 50.5858 56.4142C50.2107 56.0391 50 55.5304 50 55C50 54.4696 50.2107 53.9609 50.5858 53.5858C50.9609 53.2107 51.4696 53 52 53H55C55.0016 53.5299 55.2128 54.0377 55.5875 54.4125C55.9623 54.7872 56.4701 54.9984 57 55H61Z" fill="#EDB88E"/>
<path d="M61 59C60.9961 59.5292 60.7841 60.0356 60.4099 60.4099C60.0356 60.7841 59.5292 60.9961 59 61H52C51.4696 61 50.9609 60.7893 50.5858 60.4142C50.2107 60.0391 50 59.5304 50 59C50 58.4696 50.2107 57.9609 50.5858 57.5858C50.9609 57.2107 51.4696 57 52 57H53C53.0016 57.5299 53.2128 58.0377 53.5875 58.4125C53.9623 58.7872 54.4701 58.9984 55 59H61Z" fill="#EDB88E"/>
<path d="M50 45C50 46.3261 49.4732 47.5979 48.5355 48.5355C47.5979 49.4732 46.3261 50 45 50C43.9391 50 42.9217 49.5786 42.1716 48.8284C41.4214 48.0783 41 47.0609 41 46V44L47.733 40.633C48.5662 40.2169 49.4847 40.0002 50.416 40V40C51.1098 40 51.7956 40.1492 52.4268 40.4373C53.058 40.7254 53.6199 41.1458 54.0745 41.67C54.5291 42.1942 54.8657 42.81 55.0616 43.4756C55.2575 44.1412 55.3081 44.8411 55.21 45.528L54 54C52.9391 54 51.9217 53.5786 51.1716 52.8284C50.4214 52.0783 50 51.0609 50 50V45Z" fill="#F9DBAF"/>
<path d="M54 54C53.4745 54.0007 52.9541 53.8976 52.4685 53.6969C51.9829 53.4961 51.5417 53.2015 51.1701 52.8299C50.7985 52.4583 50.5039 52.0171 50.3031 51.5315C50.1024 51.0459 49.9993 50.5255 50 50V45C50 46.3261 49.4732 47.5978 48.5355 48.5355C47.5979 49.4732 46.3261 50 45 50C44.4745 50.0007 43.9541 49.8976 43.4685 49.6969C42.9829 49.4961 42.5417 49.2015 42.1701 48.8299C41.7985 48.4583 41.5039 48.0171 41.3031 47.5315C41.1024 47.0459 40.9993 46.5255 41 46V44L42.22 43.39C42.7295 43.7418 43.3244 43.9498 43.942 43.992C44.5597 44.0342 45.1774 43.9092 45.73 43.63C46.67 43.1665 47.7135 42.9529 48.76 43.01C49.9705 43.0869 51.1068 43.6197 51.94 44.5012C52.7732 45.3826 53.2413 46.5471 53.25 47.76C53.2563 48.2597 53.0947 48.7471 52.791 49.144C52.6115 49.383 52.4813 49.6553 52.4078 49.9451C52.3343 50.2349 52.3191 50.5363 52.363 50.832C52.4843 51.6432 52.806 52.4114 53.299 53.067L54 54Z" fill="#EDB88E"/>
<path d="M27 51H17C15.6744 50.9984 14.4036 50.4711 13.4662 49.5338C12.5289 48.5964 12.0016 47.3256 12 46V40.1C12 39.8348 12.1054 39.5804 12.2929 39.3929C12.4804 39.2054 12.7348 39.1 13 39.1C13.2652 39.1 13.5196 39.2054 13.7071 39.3929C13.8946 39.5804 14 39.8348 14 40.1V46C14 46.7956 14.3161 47.5587 14.8787 48.1213C15.4413 48.6839 16.2044 49 17 49H27C27.7956 49 28.5587 48.6839 29.1213 48.1213C29.6839 47.5587 30 46.7956 30 46V40C30.0016 38.6744 30.5289 37.4036 31.4662 36.4662C32.4036 35.5289 33.6744 35.0016 35 35H45C45.7956 35 46.5587 34.6839 47.1213 34.1213C47.6839 33.5587 48 32.7956 48 32V31C48 30.7348 48.1054 30.4804 48.2929 30.2929C48.4804 30.1054 48.7348 30 49 30C49.2652 30 49.5196 30.1054 49.7071 30.2929C49.8946 30.4804 50 30.7348 50 31V32C49.9984 33.3256 49.4711 34.5964 48.5338 35.5338C47.5964 36.4711 46.3256 36.9984 45 37H35C34.2044 37 33.4413 37.3161 32.8787 37.8787C32.3161 38.4413 32 39.2044 32 40V46C31.9984 47.3256 31.4711 48.5964 30.5338 49.5338C29.5964 50.4711 28.3256 50.9984 27 51V51Z" fill="#ADE8F4"/>
<path d="M3 20H20C20.5304 20 21.0391 20.2107 21.4142 20.5858C21.7893 20.9609 22 21.4696 22 22V38C22 38.5304 21.7893 39.0391 21.4142 39.4142C21.0391 39.7893 20.5304 40 20 40H3V20Z" fill="#00B4D8"/>
<path d="M22 24V38C21.9984 38.5299 21.7872 39.0377 21.4125 39.4125C21.0377 39.7872 20.5299 39.9984 20 40H3V20H6V28C6 26.9391 6.42143 25.9217 7.17157 25.1716C7.92172 24.4214 8.93913 24 10 24H22Z" fill="#0096C7"/>
<path d="M21 36H12C10.9391 36 9.92172 35.5786 9.17157 34.8284C8.42143 34.0783 8 33.0609 8 32L8 28C8 26.9391 8.42143 25.9217 9.17157 25.1716C9.92172 24.4214 10.9391 24 12 24H21C21.5304 24 22.0391 24.2107 22.4142 24.5858C22.7893 24.9609 23 25.4696 23 26V34C23 34.5304 22.7893 35.0391 22.4142 35.4142C22.0391 35.7893 21.5304 36 21 36Z" fill="#ADE8F4"/>
<path d="M23 32V34C22.9984 34.5299 22.7872 35.0377 22.4125 35.4125C22.0377 35.7872 21.5299 35.9984 21 36H12C10.9391 36 9.92172 35.5786 9.17157 34.8284C8.42143 34.0783 8 33.0609 8 32V28C8 26.9391 8.42143 25.9217 9.17157 25.1716C9.92172 24.4214 10.9391 24 12 24C11.9986 25.051 12.2045 26.0919 12.606 27.0632C13.0075 28.0344 13.5968 28.9169 14.3399 29.6601C15.0831 30.4032 15.9656 30.9925 16.9368 31.394C17.9081 31.7955 18.949 32.0014 20 32H23Z" fill="#48CAE4"/>
<path d="M11 33C10.7348 33 10.4804 32.8946 10.2929 32.7071C10.1054 32.5196 10 32.2652 10 32V28C10 27.7348 10.1054 27.4804 10.2929 27.2929C10.4804 27.1054 10.7348 27 11 27C11.2652 27 11.5196 27.1054 11.7071 27.2929C11.8946 27.4804 12 27.7348 12 28V32C12 32.2652 11.8946 32.5196 11.7071 32.7071C11.5196 32.8946 11.2652 33 11 33Z" fill="#ADE8F4"/>
<path d="M58 3H40C38.8954 3 38 3.89543 38 5V29C38 30.1046 38.8954 31 40 31H58C59.1046 31 60 30.1046 60 29V5C60 3.89543 59.1046 3 58 3Z" fill="#E9F1F2"/>
<path d="M60 28V29C59.9984 29.5299 59.7872 30.0377 59.4125 30.4125C59.0377 30.7872 58.5299 30.9984 58 31H40C39.4701 30.9984 38.9623 30.7872 38.5875 30.4125C38.2128 30.0377 38.0016 29.5299 38 29V5C38.0016 4.47005 38.2128 3.96227 38.5875 3.58753C38.9623 3.2128 39.4701 3.00158 40 3H44V14C44 17.713 45.475 21.274 48.1005 23.8995C50.726 26.525 54.287 28 58 28H60Z" fill="#D0D8DA"/>
<path d="M49 27C50.1046 27 51 26.1046 51 25C51 23.8954 50.1046 23 49 23C47.8954 23 47 23.8954 47 25C47 26.1046 47.8954 27 49 27Z" fill="#EF5350"/>
<path d="M56 7H42V19H56V7Z" fill="#ADE8F4"/>
<path d="M50.75 25.97C50.5353 26.3581 50.1976 26.6638 49.7902 26.8391C49.3827 27.0143 48.9286 27.0491 48.4992 26.938C48.0697 26.827 47.6894 26.5763 47.4181 26.2255C47.1467 25.8746 46.9996 25.4436 47 25C47.0003 24.7102 47.064 24.4239 47.1866 24.1614C47.3093 23.8988 47.4879 23.6662 47.71 23.48C48.5967 24.4536 49.6208 25.2925 50.75 25.97V25.97Z" fill="#E53935"/>
<path d="M45 7H42V19H56V18L45 7Z" fill="#48CAE4"/>
<path d="M44.93 19H42V7H44V14C43.9984 15.7098 44.3138 17.4051 44.93 19V19Z" fill="#00B4D8"/>
<path d="M52 12H50C49.7348 12 49.4804 11.8946 49.2929 11.7071C49.1054 11.5196 49 11.2652 49 11C49 10.7348 49.1054 10.4804 49.2929 10.2929C49.4804 10.1054 49.7348 10 50 10H52C52.2652 10 52.5196 10.1054 52.7071 10.2929C52.8946 10.4804 53 10.7348 53 11C53 11.2652 52.8946 11.5196 52.7071 11.7071C52.5196 11.8946 52.2652 12 52 12Z" fill="#D0D8DA"/>
<path d="M52 16H46C45.7348 16 45.4804 15.8946 45.2929 15.7071C45.1054 15.5196 45 15.2652 45 15C45 14.7348 45.1054 14.4804 45.2929 14.2929C45.4804 14.1054 45.7348 14 46 14H52C52.2652 14 52.5196 14.1054 52.7071 14.2929C52.8946 14.4804 53 14.7348 53 15C53 15.2652 52.8946 15.5196 52.7071 15.7071C52.5196 15.8946 52.2652 16 52 16Z" fill="#D0D8DA"/>
<path d="M50 12C49.7348 12 49.4804 11.8946 49.2929 11.7071C49.1054 11.5196 49 11.2652 49 11L50 12Z" fill="#B8BEBF"/>
<path d="M53 15C53 15.2652 52.8946 15.5196 52.7071 15.7071C52.5196 15.8946 52.2652 16 52 16H46C45.7348 16 45.4804 15.8946 45.2929 15.7071C45.1054 15.5196 45 15.2652 45 15C45 14.7348 45.1054 14.4804 45.2929 14.2929C45.4804 14.1054 45.7348 14 46 14H52L53 15Z" fill="#B8BEBF"/>
</svg>
