<svg xmlns="http://www.w3.org/2000/svg" enable-background="new 0 0 48 48" viewBox="0 0 48 48"><path fill="#58bf97" d="M25,20h20c1.1,0,2,0.9,2,2v18c0,1.1-0.9,2-2,2H10"/><path fill="#38a378" d="M25,38l15,0c0-1.7,1.3-3,3-3l0-8c-1.7,0-3-1.3-3-3l-28,0"/><path fill="#38a378" d="M28,20h-2v2c0,0.6-0.4,1-1,1h-2l-1.4,2H25c0.6,0,1,0.4,1,1v2c0,0.6-0.4,1-1,1h-4h-1   c-0.6,0-1,0.4-1,1s0.4,1,1,1h1h4h1c0.6,0,1,0.4,1,1v2c0,0.6-0.4,1-1,1h-1c0,0,0,0,0,0h-4c-0.6,0-1,0.4-1,1l0,0l0,0c0,0.6,0.4,1,1,1   h4c0.5,0,1,0.4,1,1v2c0,0.6-0.4,1-1,1H13c-0.6,0-1,0.4-1,1v0h15.2c0.5-0.5,0.8-1.2,0.8-2v-2c0-0.5-0.2-1-0.4-1.5   C28.4,36,29,35.1,29,34v-2c0-1.1-0.6-2-1.4-2.5C27.8,29,28,28.5,28,28v-2c0-0.8-0.3-1.5-0.8-2c0.5-0.5,0.8-1.2,0.8-2V20z"/><path fill="#010101" d="M40,39C40,39,40,39,40,39l-15,0c-0.6,0-1-0.4-1-1c0-0.6,0.4-1,1-1c0,0,0,0,0,0l14.1,0    c0.4-1.4,1.5-2.5,2.9-2.9l0-6.2c-1.4-0.4-2.5-1.5-2.9-2.9L12,25c-0.6,0-1-0.4-1-1s0.4-1,1-1c0,0,0,0,0,0l28,0c0.6,0,1,0.4,1,1    c0,1.1,0.9,2,2,2c0.3,0,0.5,0.1,0.7,0.3S44,26.8,44,27l0,8c0,0.6-0.4,1-1,1c-1.1,0-2,0.9-2,2c0,0.3-0.1,0.5-0.3,0.7    C40.5,38.9,40.2,39,40,39z"/><path fill="#308c66" d="M21.6,25H25c0.6,0,1,0.4,1,1v2c0,0.6-0.4,1-1,1h-4h-1c-0.6,0-1,0.4-1,1s0.4,1,1,1h1h4h1   c0.6,0,1,0.4,1,1v2c0,0.6-0.4,1-1,1h-1c0,0,0,0,0,0h-2.8l1.9,2H25c0.5,0,1,0.4,1,1l2,0c0-0.5-0.2-1-0.4-1.4C28.4,36,29,35.1,29,34   v-2c0-1.1-0.6-2-1.4-2.5C27.8,29,28,28.5,28,28v-2c0-0.8-0.3-1.5-0.8-2l-5,0L21.6,25z"/><path fill="#58bf97" d="M26,27.5c1.9,0,3.5,1.6,3.5,3.5s-1.6,3.5-3.5,3.5"/><path fill="#38a378" d="M29,32.8V32c0-1.1-0.6-2-1.4-2.5c0.2-0.4,0.4-0.9,0.4-1.3c-0.6-0.4-1.3-0.6-2-0.6V28v0l0,0   c0,0.6-0.4,1-1,1h-0.4L24,29.4l2,1.6h0c0.6,0,1,0.4,1,1v2c0,0.1,0,0.2-0.1,0.4C27.8,34.1,28.5,33.5,29,32.8z"/><path fill="#fec367" d="M24 30h-5l0 6 0 0-8 6h12c1.1 0 2-.9 2-2v-2c0-1.1-.9-2-2-2h1c1.1 0 2-.9 2-2v-2C26 30.9 25.1 30 24 30zM13 24l6 6h4c1.1 0 2-.9 2-2v-2c0-1.1-.9-2-2-2 1.1 0 2-.9 2-2v-2c0-1.1-.9-2-2-2 1.1 0 2-.9 2-2v-2c0-1.1-.9-2-2-2 1.1 0 2-.9 2-2V8c0-1.1-.9-2-2-2H11C9.9 6 9 6.9 9 8v2c0 1.1.9 2 2 2-1.1 0-2 .9-2 2v2c0 1.1.9 2 2 2-1.1 0-2 .9-2 2v2c0 1.1.9 2 2 2H13z"/><path fill="#f8ac4e" d="M20 33c0 4-2.3 7.4-5.7 9h3.6c2.5-2.2 4.1-5.4 4.1-9 0-1-.1-2-.4-3h-2.1C19.8 30.9 20 32 20 33zM10 21c-.3 0-.7 0-1 .1V22c0 .4.1.7.3 1 .2 0 .5 0 .7 0 4.5 0 8.3 2.9 9.5 7h2.1C20.3 24.8 15.6 21 10 21z"/><circle cx="10" cy="33" r="9" fill="#fec367"/><path fill="#010101" d="M10,39c0.6,0,1-0.4,1-1l0-0.2c1.2-0.4,2-1.5,2-2.8c0-1.7-1.3-3-3-3c0,0,0,0,0,0c-0.5,0-1-0.5-1-1    c0-0.5,0.4-1,1-1c0,0,0,0,0,0h0c0,0,0,0,0,0c0.5,0,1,0.5,1,1c0,0.6,0.4,1,1,1s1-0.4,1-1c0-1.3-0.8-2.4-2-2.8l0-0.2    c0-0.6-0.4-1-1-1h0c-0.6,0-1,0.4-1,1l0,0.2c-1.2,0.4-2,1.5-2,2.8c0,1.7,1.3,3,3,3c0,0,0,0,0,0c0.5,0,1,0.5,1,1c0,0.5-0.4,1-1,1    c0,0,0,0,0,0h0c0,0,0,0,0,0c-0.5,0-1-0.5-1-1c0-0.6-0.4-1-1-1s-1,0.4-1,1c0,1.3,0.8,2.4,2,2.8L9,38C9,38.6,9.5,39,10,39L10,39z"/><circle cx="38" cy="31" r="2" fill="#010101"/><path fill="#010101" d="M45,19H25.8c-0.1-0.4-0.3-0.7-0.6-1c0.5-0.5,0.8-1.2,0.8-2v-2c0-0.8-0.3-1.5-0.8-2c0.5-0.5,0.8-1.2,0.8-2V8    c0-1.7-1.3-3-3-3H11C9.3,5,8,6.3,8,8v2c0,0.8,0.3,1.5,0.8,2C8.3,12.5,8,13.2,8,14v2c0,0.8,0.3,1.5,0.8,2C8.3,18.5,8,19.2,8,20v2    c0,0.4,0.1,0.8,0.2,1.2C3.6,24,0,28.1,0,33c0,5.5,4.5,10,10,10h1h12h22c1.7,0,3-1.3,3-3V22C48,20.3,46.7,19,45,19z M10,8    c0-0.6,0.4-1,1-1h12c0.6,0,1,0.4,1,1v2c0,0.5-0.4,1-1,1c0,0,0,0,0,0H11c0,0,0,0,0,0c-0.5,0-1-0.5-1-1V8z M10,14c0-0.5,0.4-1,1-1    c0,0,0,0,0,0h12c0,0,0,0,0,0c0.5,0,1,0.5,1,1v2c0,0.6-0.4,1-1,1H11c-0.6,0-1-0.4-1-1V14z M10,20c0-0.6,0.4-1,1-1h12    c0.6,0,1,0.4,1,1v2c0,0.6-0.4,1-1,1H13h-1h0h-1c-0.6,0-1-0.4-1-1V20z M16,25l7,0c0.5,0,1,0.5,1,1v2c0,0.6-0.4,1-1,1h-3.8    C18.5,27.4,17.4,26,16,25z M2,33c0-4.4,3.6-8,8-8s8,3.6,8,8s-3.6,8-8,8S2,37.4,2,33z M24,40c0,0.6-0.4,1-1,1h-7    c1.4-1,2.5-2.4,3.2-4H23c0.5,0,1,0.5,1,1V40z M25,34c0,0.6-0.4,1-1,1h-1c0,0,0,0,0,0h-3.2c0.1-0.6,0.2-1.3,0.2-2    c0-0.7-0.1-1.4-0.2-2H24c0.6,0,1,0.4,1,1V34z M25.6,29.5c0.2-0.3,0.3-0.6,0.4-1c0,0,0,0,0.1,0c1.4,0,2.5,1.1,2.5,2.5    c0,1-0.6,1.9-1.5,2.3V32C27,30.9,26.4,30,25.6,29.5z M25.6,36.5c0.4-0.3,0.8-0.6,1-1.1c2.2-0.3,3.9-2.2,3.9-4.4    c0-2.5-2-4.5-4.5-4.5c0,0,0,0,0,0V26c0-0.3-0.1-0.7-0.2-1l13.3,0c0.4,1.4,1.5,2.5,2.9,2.9l0,6.2c-1.4,0.4-2.5,1.5-2.9,2.9l-13.3,0    C25.7,36.8,25.7,36.7,25.6,36.5z M46,40c0,0.6-0.4,1-1,1H25.8c0.1-0.3,0.2-0.6,0.2-1v-1l14,0c0,0,0,0,0,0c0.3,0,0.5-0.1,0.7-0.3    c0.2-0.2,0.3-0.4,0.3-0.7c0-1.1,0.9-2,2-2c0.6,0,1-0.4,1-1l0-8c0-0.3-0.1-0.5-0.3-0.7S43.3,26,43,26c-1.1,0-2-0.9-2-2    c0-0.6-0.4-1-1-1l-14.2,0c0.1-0.3,0.2-0.7,0.2-1v-1h19c0.6,0,1,0.4,1,1V40z"/></svg>