<svg xmlns="http://www.w3.org/2000/svg" enable-background="new 0 0 64 64" viewBox="0 0 64 64"><path fill="#2b2e63" d="M35.9,14.7c0,0.5-0.4,1-1,1h-5.6c-0.5,0-1-0.4-1-1s0.4-1,1-1h1.8v-7l-1.6,0.8c-0.5,0.3-1.1,0.1-1.3-0.4
		c-0.3-0.5-0.1-1.1,0.4-1.3l2-1.1c0.1-0.1,0.3-0.1,0.5-0.1h1c0.5,0,1,0.4,1,1v8h1.8C35.5,13.7,35.9,14.1,35.9,14.7z"/><path fill="#2b2e63" d="M56.5,1.4C55.8,0.5,54.7,0,53.6,0H10.4C9.3,0,8.2,0.5,7.5,1.4c-0.7,0.9-1,2-0.8,3.1l2.7,12.9
		c0.4,1.7,1.9,3,3.7,3H51c1.8,0,3.3-1.3,3.6-3l2.7-12.9C57.5,3.4,57.2,2.3,56.5,1.4z M55.4,4.1L52.7,17c-0.2,0.8-0.9,1.4-1.8,1.4
		H13.1c-0.9,0-1.6-0.6-1.8-1.4L8.6,4.1C8.5,3.6,8.7,3,9,2.6s0.9-0.7,1.4-0.7h43.2c0.5,0,1,0.2,1.4,0.7S55.5,3.6,55.4,4.1z"/><path fill="#51bf9f" d="M55,2.6c-0.3-0.4-0.8-0.7-1.4-0.7H10.4C9.9,1.9,9.3,2.2,9,2.6s-0.5,1-0.4,1.5L11.3,17c0.2,0.8,0.9,1.4,1.8,1.4
		H51c0.8,0,1.6-0.6,1.8-1.4l2.7-12.9C55.5,3.6,55.3,3,55,2.6z M34.9,15.6h-5.6c-0.5,0-1-0.4-1-1s0.4-1,1-1h1.8v-7l-1.6,0.8
		c-0.5,0.3-1.1,0.1-1.3-0.4c-0.3-0.5-0.1-1.1,0.4-1.3l2-1.1c0.1-0.1,0.3-0.1,0.5-0.1h1c0.5,0,1,0.4,1,1v8h1.8c0.5,0,1,0.4,1,1
		S35.5,15.6,34.9,15.6z"/><path fill="#2b2e63" d="M51.8,24c-0.7-0.9-1.8-1.4-2.9-1.4H15.1c-1.1,0-2.2,0.5-2.9,1.4c-0.7,0.9-1,2-0.8,3.1l1.7,8
		c0.4,1.7,1.9,3,3.7,3h30.6c1.8,0,3.3-1.3,3.7-3l1.6-8C52.8,26,52.5,24.9,51.8,24z M50.7,26.7l-1.7,8c-0.2,0.8-0.9,1.4-1.8,1.4H16.7
		c-0.8,0-1.6-0.6-1.8-1.4l-1.6-8c-0.1-0.5,0-1.1,0.4-1.5c0.3-0.4,0.9-0.7,1.4-0.7h33.9c0.5,0,1.1,0.2,1.4,0.7
		C50.7,25.6,50.8,26.2,50.7,26.7z"/><path fill="#ffdc7c" d="M50.7,26.7l-1.7,8c-0.2,0.8-0.9,1.4-1.8,1.4H16.7c-0.8,0-1.6-0.6-1.8-1.4l-1.6-8c-0.1-0.5,0-1.1,0.4-1.5
		c0.3-0.4,0.9-0.7,1.4-0.7h33.9c0.5,0,1.1,0.2,1.4,0.7C50.7,25.6,50.8,26.2,50.7,26.7z"/><path fill="#2b2e63" d="M48.2,41.7c-0.7-0.9-1.8-1.4-2.9-1.4H18.7c-1.1,0-2.2,0.5-2.9,1.4c-0.7,0.9-1,2-0.8,3.1l0.9,4.5
		c0.4,1.7,1.9,3,3.6,3h24.7c1.8,0,3.3-1.3,3.7-3l0.9-4.5c0.1-0.3,0.1-0.5,0.1-0.8C49,43.2,48.7,42.4,48.2,41.7z M47,44.4L46.1,49
		c-0.2,0.8-0.9,1.4-1.8,1.4H19.7c-0.8,0-1.6-0.6-1.8-1.4L17,44.4c-0.1-0.5,0-1.1,0.4-1.5c0.3-0.4,0.9-0.7,1.4-0.7h26.6
		c0.5,0,1.1,0.2,1.4,0.7C47,43.3,47.2,43.9,47,44.4z"/><path fill="#f26e61" d="M47,44.4L46.1,49c-0.2,0.8-0.9,1.4-1.8,1.4H19.7c-0.8,0-1.6-0.6-1.8-1.4L17,44.4c-0.1-0.5,0-1.1,0.4-1.5
		c0.3-0.4,0.9-0.7,1.4-0.7h26.6c0.5,0,1.1,0.2,1.4,0.7C47,43.3,47.2,43.9,47,44.4z"/><path fill="#2b2e63" d="M45.2,56c-0.7-0.9-1.8-1.4-2.9-1.4H21.7c-1.1,0-2.2,0.5-2.9,1.4c-0.7,0.9-1,2-0.8,3.1l0.4,1.9
		c0.4,1.7,1.9,3,3.7,3h19.9c1.8,0,3.3-1.3,3.7-3l0.4-1.9c0-0.3,0.1-0.5,0.1-0.8C46.1,57.5,45.8,56.7,45.2,56z M44.1,58.7l-0.4,1.9
		c-0.2,0.8-0.9,1.4-1.8,1.4H22.1c-0.9,0-1.6-0.6-1.8-1.4l-0.4-1.9c-0.1-0.5,0-1.1,0.4-1.5c0.3-0.4,0.8-0.7,1.4-0.7h20.7
		c0.5,0,1,0.2,1.4,0.7C44.1,57.6,44.2,58.2,44.1,58.7z"/><path fill="#4ebde5" d="M44.1,58.7l-0.4,1.9c-0.2,0.8-0.9,1.4-1.8,1.4H22.1c-0.9,0-1.6-0.6-1.8-1.4l-0.4-1.9c-0.1-0.5,0-1.1,0.4-1.5
		c0.3-0.4,0.8-0.7,1.4-0.7h20.7c0.5,0,1,0.2,1.4,0.7C44.1,57.6,44.2,58.2,44.1,58.7z"/><path fill="#3da580" d="M55,2.6c-0.3-0.4-0.8-0.7-1.4-0.7H10.4c-0.5,0-1,0.2-1.4,0.7C8.7,3,8.5,3.6,8.6,4.1L11.3,17
		c0.2,0.8,0.9,1.4,1.8,1.4H51c0.8,0,1.6-0.6,1.8-1.4l2.7-12.9C55.5,3.6,55.3,3,55,2.6z M51.2,16.7c0,0.1-0.1,0.2-0.3,0.2H13
		c-0.1,0-0.3-0.1-0.3-0.2L10.1,3.8c0-0.1,0-0.2,0.1-0.3c0-0.1,0.1-0.1,0.2-0.1h43.2c0.1,0,0.2,0,0.2,0.1c0.1,0.1,0.1,0.2,0.1,0.3
		L51.2,16.7z"/><path fill="#ecc25d" d="M50.3,25.2c-0.3-0.4-0.8-0.7-1.4-0.7H15.1c-0.5,0-1,0.2-1.4,0.7c-0.4,0.4-0.5,1-0.4,1.5l1.7,8
		c0.2,0.8,0.9,1.4,1.8,1.4h30.6c0.8,0,1.6-0.6,1.8-1.4l1.7-8C50.8,26.2,50.7,25.6,50.3,25.2z M49.2,26.4l-1.7,8
		c0,0.1-0.2,0.2-0.3,0.2H16.7c-0.1,0-0.3-0.1-0.3-0.2l-1.7-8c0-0.1,0-0.2,0-0.2c0.1-0.1,0.2-0.1,0.2-0.1h33.9c0.1,0,0.2,0,0.2,0.1
		C49.3,26.3,49.2,26.3,49.2,26.4z"/><path fill="#e15e5a" d="M46.7,42.9c-0.3-0.4-0.9-0.7-1.4-0.7H18.7c-0.5,0-1,0.2-1.4,0.7c-0.3,0.4-0.5,1-0.4,1.5l0.9,4.5
		c0.2,0.8,0.9,1.4,1.8,1.4h24.7c0.8,0,1.6-0.6,1.8-1.4l0.9-4.5C47.2,43.9,47,43.3,46.7,42.9z M44.6,48.7c0,0.1-0.1,0.2-0.3,0.2H19.7
		c-0.1,0-0.3-0.1-0.3-0.2l-0.9-4.5c0-0.1,0-0.2,0.1-0.3c0-0.1,0.1-0.1,0.2-0.1h26.6c0.1,0,0.2,0,0.2,0.1c0.1,0.1,0.1,0.2,0.1,0.3
		L44.6,48.7z"/><path fill="#36a9db" d="M43.7,57.2c-0.3-0.4-0.8-0.7-1.4-0.7H21.7c-0.5,0-1.1,0.2-1.4,0.7c-0.3,0.4-0.5,1-0.4,1.5l0.4,1.9
		c0.2,0.8,0.9,1.4,1.8,1.4h19.9c0.9,0,1.6-0.6,1.8-1.4l0.4-1.9C44.2,58.2,44.1,57.6,43.7,57.2z M42.6,58.4l-0.4,1.9
		c0,0.1-0.2,0.2-0.3,0.2H22.1c-0.1,0-0.3-0.1-0.3-0.2l-0.4-1.9c0-0.1,0-0.2,0.1-0.3c0-0.1,0.1-0.1,0.2-0.1h20.7c0.1,0,0.2,0,0.2,0.1
		C42.6,58.3,42.6,58.3,42.6,58.4z"/></svg>