<svg id="Layer_1" enable-background="new 0 0 512.043 512.043" height="512" viewBox="0 0 512.043 512.043" width="512" xmlns="http://www.w3.org/2000/svg"><g><g><path d="m206.669 206.677h-146.65v-146.651h146.651v146.651zm-116.65-30h86.651v-86.651h-86.651z" fill="#4d628c"/></g><g><path d="m118.344 118.351h30v30.002h-30z" fill="#4d628c"/></g><g><path d="m206.669 452.017h-146.65v-146.651h146.651v146.651zm-116.65-30h86.651v-86.651h-86.651z" fill="#4d628c"/></g><g><path d="m118.344 363.69h30v30.002h-30z" fill="#4d628c"/></g><g><path d="m452.039 206.677h-146.651v-146.651h146.651zm-116.651-30h86.651v-86.651h-86.651z" fill="#4d628c"/></g><g><path d="m363.714 118.351h30v30.002h-30z" fill="#4d628c"/></g><g><path d="m120.021 241.021h86.649v30h-86.649z" fill="#4d628c"/></g><g><path d="m60.018 241.021h30.002v30h-30.002z" fill="#4d628c"/></g><g><path d="m236.672 241.021h111.65v30h-111.65z" fill="#4d628c"/></g><g><path d="m452.039 290.364h-30v-19.343h-43.714v-30h73.714z" fill="#4d628c"/></g><g><path d="m241.04 120.029h30v86.649h-30z" fill="#4d628c"/></g><g><path d="m241.04 60.025h30v30.002h-30z" fill="#4d628c"/></g><path d="m387.006 305.366h-78.686v30h24.343v22.317h30v-22.317h24.343z" fill="#4d628c"/><path d="m422.039 320.366v101.651h-29.374v-22.317h-30v22.317h-36.621v30h125.995v-131.651z" fill="#4d628c"/><path d="m271.04 422.017v-30.004h22.317v-30h-22.317v-56.648h-30v146.652h55.002v-30z" fill="#4d628c"/><g><path d="m512.043 105.028h-30v-75.006h-75.036v-30h105.036z" fill="#ff3d7d"/></g><g><path d="m30 105.028h-30v-105.006h105.036v30h-75.036z" fill="#ff3d7d"/></g><g><path d="m512.043 512.021h-105.036v-30h75.036v-75.006h30z" fill="#ff3d7d"/></g><g><path d="m105.036 512.021h-105.036v-105.006h30v75.006h75.036z" fill="#ff3d7d"/></g><g><path d="m452.039 206.677h-146.651v-146.651h146.651zm-116.651-30h86.651v-86.651h-86.651z" fill="#283d66"/></g><g><path d="m363.714 118.351h30v30.002h-30z" fill="#283d66"/></g><g><path d="m452.039 290.364h-30v-19.343h-43.714v-30h73.714z" fill="#283d66"/></g><path d="m387.006 305.366h-78.686v30h24.343v22.317h30v-22.317h24.343z" fill="#283d66"/><path d="m422.039 320.366v101.651h-29.374v-22.317h-30v22.317h-36.621v30h125.995v-131.651z" fill="#283d66"/><g><path d="m512.043 105.028h-30v-75.006h-75.036v-30h105.036z" fill="#bc00a2"/></g><g><path d="m512.043 512.021h-105.036v-30h75.036v-75.006h30z" fill="#bc00a2"/></g><g fill="#283d66"><path d="m256.029 241.021h92.294v30h-92.294z"/><path d="m256.029 120.029h15.011v86.649h-15.011z"/><path d="m256.029 60.025h15.011v30.002h-15.011z"/><path d="m296.042 452.017v-30h-25.002v-30.004h22.317v-30h-22.317v-56.648h-15.011v146.652z"/></g></g></svg>