<svg xmlns="http://www.w3.org/2000/svg" viewBox="0 0 24 24"><g data-name="sign"><path fill="none" d="M12,2.12A9.88,9.88,0,1,0,21.88,12,9.89,9.89,0,0,0,12,2.12Zm3.54,8.59a6.2,6.2,0,0,1-1.28,1.62,3.92,3.92,0,0,0-.85,1.08,2.68,2.68,0,0,0-.18,1.07H10.69v-.32a4.82,4.82,0,0,1,.15-1.33,3.1,3.1,0,0,1,.43-.92,15.16,15.16,0,0,1,1.31-1.48,1.56,1.56,0,0,0,.54-1,1.1,1.1,0,0,0-.21-.72.83.83,0,0,0-.66-.25,1,1,0,0,0-.79.39,2.69,2.69,0,0,0-.4,1.38l-2.59-.4a5,5,0,0,1,1-2.9,3.39,3.39,0,0,1,2.78-1.09,3.5,3.5,0,0,1,2.35.76,3.45,3.45,0,0,1,1.22,2.76A3.16,3.16,0,0,1,15.54,10.71Z"/><circle cx="12" cy="12" r="9.88" fill="#f1fde8"/><path fill="#231f20" d="M15 6.58a3.5 3.5 0 0 0-2.36-.76A3.38 3.38 0 0 0 9.85 6.91a4.92 4.92 0 0 0-1 2.9l2.59.4a2.69 2.69 0 0 1 .4-1.38 1 1 0 0 1 .78-.39.8.8 0 0 1 .66.25 1.05 1.05 0 0 1 .22.72 1.56 1.56 0 0 1-.54 1 15.16 15.16 0 0 0-1.31 1.48 3.39 3.39 0 0 0-.44.92A5.3 5.3 0 0 0 11 14.16v.32h2.54a2.89 2.89 0 0 1 .17-1.07 4.23 4.23 0 0 1 .86-1.08 6.2 6.2 0 0 0 1.28-1.62 3.15 3.15 0 0 0 .31-1.37A3.44 3.44 0 0 0 15 6.58zM12.35 15.37a1.26 1.26 0 1 0 1.26 1.26A1.26 1.26 0 0 0 12.35 15.37z"/><path fill="#56b746" d="M14 6.58a3.5 3.5 0 0 0-2.36-.76A3.38 3.38 0 0 0 8.85 6.91a4.92 4.92 0 0 0-1 2.9l2.59.4a2.69 2.69 0 0 1 .4-1.38 1 1 0 0 1 .78-.39.8.8 0 0 1 .66.25 1.05 1.05 0 0 1 .22.72 1.56 1.56 0 0 1-.54 1 15.16 15.16 0 0 0-1.31 1.48 3.39 3.39 0 0 0-.44.92A5.3 5.3 0 0 0 10 14.16v.32h2.54a2.89 2.89 0 0 1 .17-1.07 4.23 4.23 0 0 1 .86-1.08 6.2 6.2 0 0 0 1.28-1.62 3.15 3.15 0 0 0 .31-1.37A3.44 3.44 0 0 0 14 6.58zM11.35 15.37a1.26 1.26 0 1 0 1.26 1.26A1.26 1.26 0 0 0 11.35 15.37z"/></g></svg>