<svg height="480pt" viewBox="0 0 480 480" width="480pt" xmlns="http://www.w3.org/2000/svg"><path d="m240 8c128.128906 0 232 103.871094 232 232s-103.871094 232-232 232-232-103.871094-232-232c.148438-128.066406 103.933594-231.851562 232-232zm208 232c0-114.875-93.125-208-208-208s-208 93.125-208 208 93.125 208 208 208 208-93.125 208-208zm0 0" fill="#9bfbff"/><path d="m240 32c114.875 0 208 93.125 208 208s-93.125 208-208 208-208-93.125-208-208 93.125-208 208-208zm47.359375 64.558594c.167969-2.207032-.589844-4.382813-2.089844-6.007813-1.503906-1.625-3.617187-2.546875-5.828125-2.550781h-78.882812c-2.210938.003906-4.324219.925781-5.828125 2.550781-1.5 1.625-2.257813 3.800781-2.089844 6.007813l14.800781 208c.335938 4.179687 3.808594 7.410156 8 7.441406h49.117188c4.191406-.03125 7.664062-3.261719 8-7.441406zm-15.359375 271.441406c0-17.671875-14.328125-32-32-32s-32 14.328125-32 32 14.328125 32 32 32 32-14.328125 32-32zm0 0" fill="#00d7df"/><path d="m272 368c0 17.671875-14.328125 32-32 32s-32-14.328125-32-32 14.328125-32 32-32 32 14.328125 32 32zm0 0" fill="#d80027"/><path d="m279.441406 88c2.210938.003906 4.324219.925781 5.828125 2.550781 1.5 1.625 2.257813 3.800781 2.089844 6.007813l-14.800781 208c-.335938 4.179687-3.808594 7.410156-8 7.441406h-49.117188c-4.191406-.03125-7.664062-3.261719-8-7.441406l-14.800781-208c-.167969-2.207032.589844-4.382813 2.089844-6.007813 1.503906-1.625 3.617187-2.546875 5.828125-2.550781zm0 0" fill="#d80027"/><path d="m279.40625 80h-78.8125c-4.449219-.011719-8.703125 1.832031-11.738281 5.082031-3.039063 3.253907-4.582031 7.625-4.261719 12.0625l14.855469 208c.625 8.375 7.601562 14.851563 16 14.855469h49.101562c8.382813-.027344 15.335938-6.496094 15.960938-14.855469l14.855469-208c.320312-4.429687-1.21875-8.796875-4.246094-12.046875s-7.269532-5.097656-11.714844-5.097656zm-14.847656 224h-49.109375l-14.855469-208h78.8125zm0 0"/><path d="m280 368c0-22.089844-17.910156-40-40-40s-40 17.910156-40 40 17.910156 40 40 40c22.082031-.027344 39.972656-17.917969 40-40zm-64 0c0-13.253906 10.746094-24 24-24s24 10.746094 24 24-10.746094 24-24 24-24-10.746094-24-24zm0 0"/><path d="m240 0c-132.546875 0-240 107.453125-240 240s107.453125 240 240 240 240-107.453125 240-240c-.148438-132.484375-107.515625-239.851562-240-240zm0 464c-123.710938 0-224-100.289062-224-224s100.289062-224 224-224 224 100.289062 224 224c-.140625 123.652344-100.347656 223.859375-224 224zm0 0"/><path d="m55.128906 301.441406-.082031-.402344c-4.839844-14.457031-7.933594-29.445312-9.207031-44.640624-.375-4.417969-4.261719-7.695313-8.679688-7.320313-4.417968.378906-7.695312 4.261719-7.320312 8.683594 1.433594 16.441406 4.789062 32.660156 10 48.316406.082031.160156.082031.320313.160156.480469v.082031c3.570312 10.488281 7.960938 20.679687 13.128906 30.480469 1.398438 2.625 4.136719 4.257812 7.109375 4.238281 1.292969.007813 2.558594-.324219 3.683594-.960937 3.90625-2.054688 5.410156-6.886719 3.359375-10.796876-4.8125-9.039062-8.878906-18.460937-12.152344-28.160156zm0 0"/><path d="m185.921875 424.238281c-9.871094-2.832031-19.480469-6.5-28.730469-10.957031-13.855468-6.613281-26.855468-14.886719-38.710937-24.640625-3.464844-2.683594-8.421875-2.191406-11.289063 1.121094-1.351562 1.625-1.984375 3.734375-1.75 5.839843.195313 2.125 1.230469 4.082032 2.878906 5.4375 21.488282 17.664063 46.335938 30.78125 73.039063 38.5625.726563.21875 1.480469.324219 2.242187.320313 3.539063.03125 6.675782-2.285156 7.679688-5.683594 1.238281-4.234375-1.148438-8.683593-5.359375-10zm0 0"/><path d="m332.039062 408.511719c-8.972656 4.972656-18.355468 9.179687-28.039062 12.566406-14.472656 5.125-29.519531 8.46875-44.800781 9.953125-4.359375.550781-7.523438 4.417969-7.199219 8.800781.199219 2.109375 1.238281 4.046875 2.886719 5.375 1.644531 1.367188 3.765625 2.015625 5.890625 1.808594 16.5625-1.679687 32.875-5.308594 48.589844-10.808594 10.453124-3.722656 20.589843-8.269531 30.320312-13.597656.671875-.355469 1.28125-.816406 1.808594-1.363281 2.53125-2.472656 3.109375-6.328125 1.414062-9.4375-2.113281-3.882813-6.953125-5.351563-10.871094-3.296875zm0 0"/><path d="m304.550781 57.441406c9.636719 3.421875 18.976563 7.621094 27.929688 12.558594.085937.085938.199219.140625.320312.160156 13.328125 7.457032 25.753907 16.421875 37.03125 26.71875 1.457031 1.351563 3.375 2.097656 5.359375 2.082032 2.242188-.011719 4.382813-.9375 5.929688-2.5625 2.941406-3.289063 2.730468-8.328126-.480469-11.359376-12.15625-11.179687-25.613281-20.847656-40.089844-28.800781-.070312-.078125-.230469-.160156-.3125-.238281h-.078125c-9.695312-5.34375-19.808594-9.890625-30.238281-13.601562-4.152344-1.433594-8.691406.695312-10.242187 4.800781-.714844 2.003906-.605469 4.210937.308593 6.132812.914063 1.921875 2.558594 3.398438 4.5625 4.109375zm0 0"/><path d="m47.28125 185.761719c.789062.292969 1.632812.429687 2.480469.398437 3.449219-.027344 6.503906-2.246094 7.597656-5.519531 3.167969-9.734375 7.097656-19.207031 11.761719-28.320313l.160156-.242187c7.015625-13.574219 15.605469-26.277344 25.597656-37.839844 2.894532-3.335937 2.535156-8.382812-.800781-11.277343-3.371094-2.78125-8.332031-2.429688-11.277344.800781-18.257812 20.988281-32.082031 45.449219-40.640625 71.917969-.714844 1.992187-.574218 4.195312.390625 6.082031.980469 1.90625 2.683594 3.347656 4.730469 4zm0 0"/><path d="m272 40c0 4.417969-3.582031 8-8 8s-8-3.582031-8-8 3.582031-8 8-8 8 3.582031 8 8zm0 0"/><path d="m128 80c0 4.417969-3.582031 8-8 8s-8-3.582031-8-8 3.582031-8 8-8 8 3.582031 8 8zm0 0"/><path d="m48 224c0 4.417969-3.582031 8-8 8s-8-3.582031-8-8 3.582031-8 8-8 8 3.582031 8 8zm0 0"/><path d="m448 264c0 4.417969-3.582031 8-8 8s-8-3.582031-8-8 3.582031-8 8-8 8 3.582031 8 8zm0 0"/><path d="m96 368c0 4.417969-3.582031 8-8 8s-8-3.582031-8-8 3.582031-8 8-8 8 3.582031 8 8zm0 0"/><path d="m232 440c0 4.417969-3.582031 8-8 8s-8-3.582031-8-8 3.582031-8 8-8 8 3.582031 8 8zm0 0"/><path d="m368 400c0 4.417969-3.582031 8-8 8s-8-3.582031-8-8 3.582031-8 8-8 8 3.582031 8 8zm0 0"/><path d="m408 120c0 4.417969-3.582031 8-8 8s-8-3.582031-8-8 3.582031-8 8-8 8 3.582031 8 8zm0 0"/><path d="m151.761719 68.160156c1.214843-.027344 2.410156-.300781 3.519531-.800781 9.1875-4.566406 18.738281-8.363281 28.550781-11.359375h.167969c14.636719-4.464844 29.761719-7.152344 45.039062-8 2.117188-.117188 4.097657-1.066406 5.511719-2.640625 1.449219-1.585937 2.171875-3.699219 2-5.839844-.25-4.195312-3.707031-7.480469-7.910156-7.519531h-15.3125c-11.675781.898438-23.113281 3.804688-33.800781 8.59375-.136719.03125-.273438.074219-.40625.125-.046875 0-.082032.035156-.082032.082031-10.601562 3.222657-20.925781 7.289063-30.878906 12.160157-3.914062 2-5.515625 6.757812-3.609375 10.71875 1.328125 2.769531 4.140625 4.515624 7.210938 4.480468zm0 0"/><path d="m440.632812 182.480469c-2.910156-10.699219-6.710937-21.136719-11.359374-31.199219-1.871094-3.957031-6.53125-5.726562-10.554688-4-1.933594.871094-3.433594 2.488281-4.167969 4.480469-.796875 1.992187-.707031 4.234375.25 6.160156 10.683594 23.332031 16.535157 48.585937 17.199219 74.238281.113281 4.34375 3.652344 7.816406 8 7.839844h.230469c2.132812-.082031 4.144531-1.003906 5.601562-2.558594 1.429688-1.511718 2.207031-3.523437 2.167969-5.601562v-.078125c-.476562-16.664063-2.949219-33.207031-7.367188-49.28125zm0 0"/><path d="m429.359375 305.121094c-4.128906-1.550782-8.742187.472656-10.398437 4.558594-3.722657 9.535156-8.191407 18.765624-13.359376 27.601562-.089843.078125-.160156.238281-.242187.320312-7.730469 13.125-17.023437 25.269532-27.679687 36.160157-1.425782 1.546875-2.222657 3.574219-2.238282 5.679687.007813 2.136719.871094 4.183594 2.398438 5.679688 1.511718 1.433594 3.515625 2.234375 5.601562 2.238281 2.125.023437 4.175782-.8125 5.679688-2.320313-.003906-.019531.003906-.039062.015625-.054687.015625-.015625.035156-.023437.054687-.023437 11.582032-11.96875 21.707032-25.257813 30.167969-39.601563 5.65625-9.546875 10.5-19.554687 14.472656-29.917969.777344-1.957031.75-4.144531-.070312-6.082031-.863281-1.929687-2.441407-3.449219-4.402344-4.238281zm0 0"/></svg>