<svg id="Capa_1" enable-background="new 0 0 512 512" height="512" viewBox="0 0 512 512" width="512" xmlns="http://www.w3.org/2000/svg"><g><g><path d="m261.263 301.003c-4.268 0-7.726-3.459-7.726-7.726v-67.409c0-4.267 3.459-7.726 7.726-7.726s7.726 3.459 7.726 7.726v67.409c0 4.267-3.459 7.726-7.726 7.726z" fill="#cdbeb9"/></g><g><path d="m363.264 462.811c-2.021 0-4.039-.788-5.555-2.356l-61.755-63.865c-2.966-3.067-2.884-7.959.183-10.925s7.958-2.885 10.926.184l61.755 63.865c2.966 3.067 2.884 7.959-.183 10.925-1.501 1.451-3.438 2.172-5.371 2.172z" fill="#cdbeb9"/></g><g><path d="m159.548 464.213c-1.922 0-3.845-.712-5.343-2.146-3.081-2.951-3.187-7.842-.236-10.924l62.499-65.267c2.95-3.083 7.841-3.188 10.925-.237 3.081 2.951 3.187 7.842.236 10.924l-62.499 65.267c-1.517 1.585-3.549 2.383-5.582 2.383z" fill="#cdbeb9"/></g><g><path clip-rule="evenodd" d="m222.048 391.22c10.154 10.367 24.227 16.791 39.73 16.791 15.532 0 29.576-6.424 39.73-16.791 10.183-10.396 16.476-24.734 16.476-40.562 0-31.713-25.171-57.382-56.206-57.382-.172 0-.343 0-.515 0-30.806.292-55.691 25.873-55.691 57.382 0 15.828 6.293 30.166 16.476 40.562z" fill="#80d261" fill-rule="evenodd"/></g><g><path clip-rule="evenodd" d="m251.681 294.182c23.369 6.95 40.474 28.998 40.474 55.104 0 15.857-6.293 30.195-16.475 40.562-7.895 8.089-18.163 13.754-29.633 15.886 5.006 1.489 10.269 2.278 15.732 2.278 15.532 0 29.576-6.424 39.73-16.791 10.183-10.396 16.476-24.734 16.476-40.562 0-31.713-25.171-57.382-56.206-57.382-.172 0-.343 0-.515 0-3.262.029-6.465.35-9.583.905z" fill="#4fc122" fill-rule="evenodd"/></g><g><path clip-rule="evenodd" d="m183.834 224.681h77.944 80.032c2.66 0 4.834-2.219 4.834-4.935v-16.178c0-28.472-18.993-36.473-38.414-42.022h-90.844c-19.422 5.548-38.386 13.55-38.386 42.022v16.178c0 2.715 2.174 4.935 4.834 4.935z" fill="#fdb440" fill-rule="evenodd"/></g><g><path clip-rule="evenodd" d="m289.58 172.73c19.422 5.548 39.301 11.184 39.301 39.656v12.294h12.929c2.66 0 4.834-2.219 4.834-4.935v-16.178c0-28.472-18.993-36.473-38.414-42.022z" fill="#fe9900" fill-rule="evenodd"/></g><g><path d="m253.711 372.928c-1.852 0-3.652-.666-5.062-1.889l-14.244-12.353c-3.223-2.795-3.57-7.675-.775-10.899 2.796-3.224 7.675-3.57 10.899-.775l8.245 7.15 21.823-26.597c2.707-3.3 7.577-3.778 10.873-1.072 3.3 2.707 3.78 7.575 1.072 10.874l-26.859 32.735c-1.323 1.612-3.241 2.621-5.32 2.798-.217.019-.434.028-.652.028z" fill="#f8f2f0"/></g><g><path clip-rule="evenodd" d="m428.192 287.29c-30.005.496-60.01 23.566-60.01 69.063l65.044 12.878 54.976-12.878c0-45.497-30.005-68.567-60.01-69.063z" fill="#6d80aa" fill-rule="evenodd"/></g><g><path clip-rule="evenodd" d="m344.384 490.887v16.178c0 1.635.772 3.066 1.974 3.971.801.613 1.802.964 2.86.964h157.948c1.058 0 2.059-.35 2.86-.964 1.201-.905 1.974-2.336 1.974-3.971v-16.178c0-28.501-18.964-36.473-38.386-42.051h-90.844c-19.422 5.577-38.386 13.55-38.386 42.051z" fill="#22a6fe" fill-rule="evenodd"/></g><g><path clip-rule="evenodd" d="m382.77 448.836 37.299 22.34c6.321 4.176 9.925 4.176 16.275 0l37.27-22.34c-3.461-.993-6.922-1.898-10.326-2.862-7.866-2.19-9.954-12.557-11.584-15.915h-47.024c-1.63 3.358-3.69 13.725-11.584 15.915-3.375.964-6.865 1.869-10.326 2.862z" fill="#fed1a3" fill-rule="evenodd"/></g><g><path clip-rule="evenodd" d="m368.182 375.101c0 19.419 15.76 43.19 36.498 54.958 2.746 1.548 5.578 2.891 8.495 4.001 10.869 4.117 19.164 4.117 30.062 0 2.889-1.11 5.721-2.453 8.467-4.001 20.737-11.768 36.498-35.539 36.498-54.958v-18.748c-24.284-1.723-20.652-20.646-37.442-16.236-12.957 3.387-17.763 5.11-22.568 5.11s-9.611-1.723-22.568-5.11c-16.762-4.41-13.158 14.513-37.442 16.236z" fill="#ffe5c1" fill-rule="evenodd"/></g><g><path clip-rule="evenodd" d="m217.385 161.546 37.299 22.31c6.321 4.176 9.954 4.176 16.275 0l37.27-22.31c-3.461-.993-6.922-1.927-10.297-2.862-7.895-2.19-9.983-12.586-11.584-15.944h-47.053c-1.602 3.358-3.69 13.754-11.584 15.944-3.375.935-6.865 1.869-10.326 2.862z" fill="#fed1a3" fill-rule="evenodd"/></g><g><path clip-rule="evenodd" d="m262.808 0c-30.005.496-60.01 23.566-60.01 69.063 84.58 17.842 52.659 16.528 120.048 0 0-45.497-30.005-68.567-60.038-69.063z" fill="#6d80aa" fill-rule="evenodd"/></g><g><path clip-rule="evenodd" d="m202.798 87.811c0 19.419 15.789 43.19 36.498 54.929 2.746 1.577 5.606 2.92 8.495 4.001 10.869 4.117 19.193 4.117 30.062 0 2.889-1.08 5.721-2.424 8.495-4.001 20.709-11.739 36.498-35.51 36.498-54.929v-18.748c-24.313-1.723-20.68-20.675-37.442-16.266-12.957 3.417-17.763 5.14-22.597 5.14-4.805 0-9.611-1.723-22.568-5.14-16.762-4.41-13.158 14.543-37.442 16.266v18.748z" fill="#ffe5c1" fill-rule="evenodd"/></g><g><path clip-rule="evenodd" d="m239.296 142.74c2.746 1.577 5.606 2.92 8.495 4.001 10.869 4.117 19.193 4.117 30.062 0 2.889-1.08 5.721-2.424 8.495-4.001 20.709-11.739 36.498-35.51 36.498-54.929v-18.748c-10.068-.701-15.331-4.38-19.25-8.118v13.112 5.636c0 19.419-15.789 43.19-36.498 54.929-2.746 1.577-5.606 2.92-8.495 4.001-8.152 3.095-14.845 3.884-22.282 2.336.972.613 1.974 1.226 2.975 1.781z" fill="#fed1a3" fill-rule="evenodd"/></g><g><path clip-rule="evenodd" d="m274.993 1.46c16.504 10.746 28.603 30.604 28.603 59.485 3.919 3.738 9.182 7.417 19.25 8.118 0-39.306-22.396-61.879-47.853-67.603z" fill="#49679b" fill-rule="evenodd"/></g><g><path clip-rule="evenodd" d="m271.961 165.225c7.036-2.716 6.121-3.271 7.608-1.051 2.117 3.125 5.692 6.921 10.011 8.556l3.947-2.365 14.702-8.819c-3.461-.993-6.922-1.927-10.297-2.862-7.895-2.19-9.983-12.586-11.584-15.944-2.775 1.577-5.606 2.92-8.495 4.001-10.869 4.117-19.193 4.117-30.062 0-2.889-1.08-5.749-2.424-8.495-4.001-1.23 2.57-2.746 9.286-6.922 13.258-1.688 1.606 27.487 14.454 39.587 9.227z" fill="#ffbc85" fill-rule="evenodd"/></g><g><path clip-rule="evenodd" d="m4.834 503.298h77.944 80.004c2.66 0 4.834-2.219 4.834-4.935v-16.178c0-28.501-18.964-36.473-38.386-42.051h-90.844c-19.422 5.577-38.386 13.549-38.386 42.051v16.178c0 2.715 2.174 4.935 4.834 4.935z" fill="#fd4755" fill-rule="evenodd"/></g><g><path clip-rule="evenodd" d="m110.552 451.318c19.422 5.578 39.33 11.184 39.33 39.686v12.294h12.9c2.66 0 4.834-2.219 4.834-4.935v-16.178c0-28.501-18.964-36.473-38.386-42.051z" fill="#e41e2b" fill-rule="evenodd"/></g><g><path clip-rule="evenodd" d="m38.386 440.134 37.27 22.34c6.35 4.176 9.954 4.176 16.275 0l37.299-22.34c-3.461-.993-6.951-1.898-10.326-2.862-7.895-2.19-9.954-12.557-11.584-15.915h-47.024c-1.63 3.358-3.718 13.725-11.584 15.915-3.404.964-6.865 1.869-10.326 2.862z" fill="#fed1a3" fill-rule="evenodd"/></g><g><path clip-rule="evenodd" d="m83.808 278.588c-30.005.496-60.01 23.566-60.01 69.063 84.552 17.842 52.659 16.528 120.02 0 0-45.497-30.005-68.567-60.01-69.063z" fill="#6d80aa" fill-rule="evenodd"/></g><g><path clip-rule="evenodd" d="m23.798 366.398c0 19.419 15.76 43.19 36.498 54.958 2.746 1.548 5.578 2.891 8.467 4.001 10.898 4.117 19.193 4.117 30.062 0 2.918-1.11 5.749-2.453 8.495-4.001 20.737-11.768 36.498-35.539 36.498-54.958v-18.748c-24.284-1.723-20.68-20.646-37.442-16.236-12.957 3.387-17.763 5.11-22.568 5.11s-9.611-1.723-22.568-5.11c-16.79-4.41-13.158 14.513-37.442 16.236v18.748z" fill="#ffe5c1" fill-rule="evenodd"/></g><g><path clip-rule="evenodd" d="m60.296 421.357c2.746 1.548 5.578 2.891 8.467 4.001 10.898 4.117 19.193 4.117 30.062 0 2.918-1.11 5.749-2.453 8.495-4.001 20.737-11.768 36.498-35.539 36.498-54.958v-18.748c-10.04-.701-15.331-4.38-19.25-8.118v13.112 5.636c0 19.419-15.76 43.19-36.498 54.958-2.746 1.548-5.578 2.891-8.467 4.001-8.152 3.066-14.874 3.855-22.282 2.307.973.642 1.974 1.226 2.975 1.81z" fill="#fed1a3" fill-rule="evenodd"/></g><g><path clip-rule="evenodd" d="m95.993 280.048c16.504 10.776 28.575 30.604 28.575 59.485 3.919 3.738 9.21 7.417 19.25 8.118 0-39.306-22.397-61.879-47.825-67.603z" fill="#49679b" fill-rule="evenodd"/></g><g><path clip-rule="evenodd" d="m88.156 443.813c7.036-2.716 10.898-3.271 12.414-1.051 2.117 3.125 5.663 6.921 9.983 8.556l3.947-2.365 14.731-8.819c-3.461-.993-6.951-1.898-10.326-2.862-7.895-2.19-9.954-12.557-11.584-15.915-2.746 1.548-5.578 2.891-8.495 4.001-10.869 4.117-19.164 4.117-30.062 0-2.889-1.11-5.721-2.453-8.467-4.001-1.23 2.57-2.746 9.257-6.951 13.229-1.66 1.605 22.71 14.454 34.81 9.227z" fill="#ffbc85" fill-rule="evenodd"/></g><g><path clip-rule="evenodd" d="m435.743 452.691c2.288-.701 4.891-1.752 6.893-2.395 1.659-.555 2.689-.993 4.977.847l9.353 7.68 16.647-9.987c-3.461-.993-6.922-1.898-10.326-2.862-7.866-2.19-9.954-12.557-11.584-15.915-2.746 1.548-5.578 2.891-8.467 4.001-10.898 4.117-19.193 4.117-30.062 0-2.918-1.11-5.749-2.453-8.495-4.001-1.201 2.482-2.66 8.819-6.522 12.82 11.529 8.089 26.288 13.17 37.586 9.812z" fill="#ffbc85" fill-rule="evenodd"/></g><g><path clip-rule="evenodd" d="m422.958 287.611c20.137 6.979 37.156 25.026 40.76 54.111.057.467.114.934.172 1.402 5.034 4.643 9.439 12.177 24.313 13.229 0-45.497-30.005-68.566-60.01-69.063-1.746.029-3.49.117-5.235.321z" fill="#49679b" fill-rule="evenodd"/></g><g><path clip-rule="evenodd" d="m464.404 372.151c0 26.048-26.687 55.922-52.83 61.266.515.234 1.058.438 1.602.642 10.869 4.117 19.164 4.117 30.062 0 2.889-1.11 5.721-2.453 8.467-4.001 20.737-11.768 36.498-35.539 36.498-54.958v-18.748c-14.874-1.051-19.279-8.585-24.313-13.229.972 9.142.514 19.859.514 29.028z" fill="#fed1a3" fill-rule="evenodd"/></g><g><path clip-rule="evenodd" d="m456.967 458.823c19.422 5.548 38.386 13.55 38.386 42.022v10.192.963h11.813c1.058 0 2.059-.35 2.86-.964 1.201-.905 1.974-2.336 1.974-3.971v-16.178c0-28.501-18.964-36.473-38.386-42.051z" fill="#0182fc" fill-rule="evenodd"/></g></g></svg>