<svg xmlns="http://www.w3.org/2000/svg" fill-rule="evenodd" stroke-linejoin="round" stroke-miterlimit="2" clip-rule="evenodd" viewBox="0 0 64 64"><g transform="translate(-30 -390)"><path fill="#e6e6e6" d="M79 420L79 402 45 402 45 420 48 419 76 418.726 79 420zM80 397C80 395.409 79.368 393.883 78.243 392.757 77.117 391.632 75.591 391 74 391 67.341 391 56.659 391 50 391 48.409 391 46.883 391.632 45.757 392.757 44.632 393.883 44 395.409 44 397 44 399.126 44 401 44 401L80 401 80 397z"/><path fill="#737373" d="M73,391L51,391C51,391 51.338,392.353 51.621,393.485C51.844,394.375 52.644,395 53.562,395C57.295,395 66.705,395 70.438,395C71.356,395 72.156,394.375 72.379,393.485C72.662,392.353 73,391 73,391Z"/><circle cx="58.5" cy="431.5" r="14.5" fill="#ef2f30" transform="translate(-2.552 -44.138) scale(1.10345)"/><circle cx="62.5" cy="432.5" r="2.5" fill="#737373" transform="matrix(.8 0 0 .8 12 86)"/><path fill="#ef2f30" d="M50.685 413.614C48.733 411.662 45.568 411.662 43.617 413.614 43.616 413.614 43.616 413.615 43.615 413.615 41.663 415.568 41.663 418.734 43.615 420.686 44.037 421.108 44.322 421.393 44.322 421.393L51.393 414.322C51.393 414.322 51.108 414.037 50.685 413.614zM80.385 420.686C82.337 418.734 82.337 415.568 80.385 413.615 80.384 413.615 80.384 413.614 80.383 413.614 78.432 411.662 75.267 411.662 73.315 413.614 72.892 414.037 72.607 414.322 72.607 414.322L79.678 421.393C79.678 421.393 79.963 421.108 80.385 420.686z"/><path d="M47.151,411.15C48.687,411.15 50.223,411.736 51.394,412.907L52.129,413.644L52.144,413.66C52.45,414.003 52.394,414.322 52.394,414.322C52.394,414.587 52.289,414.841 52.101,415.029L45.029,422.101C44.842,422.288 44.588,422.393 44.322,422.393C44.322,422.393 44.004,422.449 43.661,422.143L43.645,422.128L42.908,421.393C41.737,420.222 41.151,418.686 41.151,417.15C41.151,415.615 41.736,414.08 42.908,412.909L42.91,412.907C44.081,411.736 45.616,411.15 47.151,411.15ZM47.152,413.15C46.128,413.15 45.104,413.54 44.323,414.322L44.322,414.322C43.541,415.103 43.151,416.127 43.151,417.151C43.151,418.173 43.541,419.196 44.322,419.977L44.323,419.978L49.979,414.322L49.978,414.321C49.197,413.54 48.174,413.15 47.152,413.15Z" transform="matrix(-1 0 0 1 124 0)"/><path d="M85.194,64.818C85.194,54.354 84.314,44.319 82.746,36.92C81.178,29.52 79.051,25.364 76.833,25.364C68.88,25.364 56.12,25.364 48.167,25.364C45.949,25.364 43.822,29.52 42.254,36.92C40.686,44.319 39.806,54.354 39.806,64.818C39.806,76.799 39.806,87.364 39.806,87.364C39.806,90.477 40.34,93 41,93L84,93C84.66,93 85.194,90.477 85.194,87.364L85.194,64.818ZM82.806,64.818L82.806,81.727C82.806,81.727 42.194,81.727 42.194,81.727C42.194,81.727 42.194,64.818 42.194,64.818C42.194,57.344 42.824,50.176 43.944,44.891C45.064,39.605 46.583,36.636 48.167,36.636C56.12,36.636 68.88,36.636 76.833,36.636C78.417,36.636 79.936,39.605 81.056,44.891C82.176,50.176 82.806,57.344 82.806,64.818Z" transform="matrix(.8372 0 0 .17742 9.674 385.5)"/><path d="M74.492,31.243C74.569,30.944 74.5,30.627 74.306,30.385C74.112,30.142 73.815,30 73.5,30L51,30C50.685,30 50.388,30.142 50.194,30.385C50,30.627 49.931,30.944 50.008,31.243C50.008,31.243 50.354,32.595 50.643,33.728C50.985,35.063 52.212,36 53.62,36L70.88,36C72.288,36 73.515,35.063 73.857,33.728C74.146,32.595 74.492,31.243 74.492,31.243ZM72.19,32L71.872,33.243C71.759,33.688 71.35,34 70.88,34C70.88,34 53.62,34 53.62,34C53.15,34 52.741,33.688 52.628,33.243L52.31,32L72.19,32Z" transform="matrix(.97778 0 0 1 1.133 360)"/><path d="M58.5,416.094C49.997,416.094 43.094,422.997 43.094,431.5C43.094,440.003 49.997,446.906 58.5,446.906C67.003,446.906 73.906,440.003 73.906,431.5C73.906,422.997 67.003,416.094 58.5,416.094ZM58.5,417.906C66.003,417.906 72.094,423.997 72.094,431.5C72.094,439.003 66.003,445.094 58.5,445.094C50.997,445.094 44.906,439.003 44.906,431.5C44.906,423.997 50.997,417.906 58.5,417.906Z" transform="translate(-2.552 -44.138) scale(1.10345)"/><path d="M96.2,410.173C99.101,413.074 100.552,416.88 100.552,420.686C100.552,424.492 99.101,428.299 96.2,431.2C95.758,431.642 95.758,432.358 96.2,432.8C96.642,433.242 97.358,433.242 97.8,432.8C101.143,429.457 102.815,425.072 102.815,420.686C102.815,416.301 101.143,411.915 97.8,408.573C97.358,408.131 96.642,408.131 96.2,408.573C95.758,409.014 95.758,409.731 96.2,410.173Z" transform="translate(-4.02 63.162) scale(.88388)"/><path d="M97.8,408.573C101.143,411.915 102.815,416.301 102.815,420.686C102.815,425.072 101.143,429.457 97.8,432.8C97.358,433.242 96.642,433.242 96.2,432.8C95.758,432.358 95.758,431.642 96.2,431.2C99.101,428.299 100.552,424.492 100.552,420.686C100.552,416.88 99.101,413.074 96.2,410.173C95.758,409.731 95.758,409.014 96.2,408.573C96.642,408.131 97.358,408.131 97.8,408.573Z" transform="matrix(-.88388 0 0 .88388 128.021 63.162)"/><path d="M96.386,409.986C99.339,412.939 100.815,416.813 100.815,420.686C100.815,424.56 99.339,428.434 96.386,431.386C96.048,431.725 96.048,432.275 96.386,432.614C96.725,432.952 97.275,432.952 97.614,432.614C100.905,429.322 102.551,425.004 102.551,420.686C102.551,416.368 100.905,412.05 97.614,408.759C97.275,408.42 96.725,408.42 96.386,408.759C96.048,409.098 96.048,409.648 96.386,409.986Z" transform="translate(-27.172 -49.804) scale(1.15233)"/><path d="M97.614,408.759C100.905,412.05 102.551,416.368 102.551,420.686C102.551,425.004 100.905,429.322 97.614,432.614C97.275,432.952 96.725,432.952 96.386,432.614C96.048,432.275 96.048,431.725 96.386,431.386C99.339,428.434 100.815,424.56 100.815,420.686C100.815,416.813 99.339,412.939 96.386,409.986C96.048,409.648 96.048,409.098 96.386,408.759C96.725,408.42 97.275,408.42 97.614,408.759Z" transform="matrix(-1.15233 0 0 1.15233 151.172 -49.804)"/><path d="M62.5,428.75C60.43,428.75 58.75,430.43 58.75,432.5C58.75,434.57 60.43,436.25 62.5,436.25C64.57,436.25 66.25,434.57 66.25,432.5C66.25,430.43 64.57,428.75 62.5,428.75ZM62.5,431.25C63.19,431.25 63.75,431.81 63.75,432.5C63.75,433.19 63.19,433.75 62.5,433.75C61.81,433.75 61.25,433.19 61.25,432.5C61.25,431.81 61.81,431.25 62.5,431.25Z" transform="matrix(.8 0 0 .8 12 86)"/><path d="M61,447.5L61,453C61,453.39 61.448,453.707 62,453.707C62.552,453.707 63,453.39 63,453L63,447.5C63,447.11 62.552,446.793 62,446.793C61.448,446.793 61,447.11 61,447.5Z" transform="matrix(.7071 -.7071 1 1 -423.841 43.84)"/><path d="M63,447.5L63,453C63,453.39 62.552,453.707 62,453.707C61.448,453.707 61,453.39 61,453L61,447.5C61,447.11 61.448,446.793 62,446.793C62.552,446.793 63,447.11 63,447.5Z" transform="matrix(-.7071 -.7071 -1 1 547.841 43.84)"/><path d="M47.151,411.15C48.687,411.15 50.223,411.736 51.394,412.907L52.129,413.644L52.144,413.66C52.45,414.003 52.394,414.322 52.394,414.322C52.394,414.587 52.289,414.841 52.101,415.029L45.029,422.101C44.842,422.288 44.588,422.393 44.322,422.393C44.322,422.393 44.004,422.449 43.661,422.143L43.645,422.128L42.908,421.393C41.737,420.222 41.151,418.686 41.151,417.15C41.151,415.615 41.736,414.08 42.908,412.909L42.91,412.907C44.081,411.736 45.616,411.15 47.151,411.15ZM47.152,413.15C46.128,413.15 45.104,413.54 44.323,414.322L44.322,414.322C43.541,415.103 43.151,416.127 43.151,417.151C43.151,418.173 43.541,419.196 44.322,419.977L44.323,419.978L49.979,414.322L49.978,414.321C49.197,413.54 48.174,413.15 47.152,413.15Z"/><path d="M61,412L61,416C61,416.552 61.448,417 62,417C62.552,417 63,416.552 63,416L63,412C63,411.448 62.552,411 62,411C61.448,411 61,411.448 61,412Z" transform="rotate(-45 62 432)"/><path d="M61,412L61,416C61,416.552 61.448,417 62,417C62.552,417 63,416.552 63,416L63,412C63,411.448 62.552,411 62,411C61.448,411 61,411.448 61,412Z" transform="rotate(45 62 432)"/><path d="M61,434L61,440C61,440.828 61.448,441.5 62,441.5C62.552,441.5 63,440.828 63,440L63,434C63,433.172 62.552,432.5 62,432.5C61.448,432.5 61,433.172 61,434Z" transform="matrix(1 0 0 .66667 0 144.667)"/><path d="M61,434L61,440C61,440.552 61.448,441 62,441C62.552,441 63,440.552 63,440L63,434C63,433.448 62.552,433 62,433C61.448,433 61,433.448 61,434Z" transform="translate(0 -10)"/><circle cx="152.5" cy="154.5" r="1.5" transform="translate(-39.667 317) scale(.66667)"/><circle cx="152.5" cy="154.5" r="1.5" transform="rotate(45 -300.822 225.62) scale(.66667)"/><circle cx="152.5" cy="154.5" r="1.5" transform="matrix(0 .66667 -.66667 0 177 330.333)"/><circle cx="152.5" cy="154.5" r="1.5" transform="rotate(135 16.18 265.286) scale(.66667)"/><circle cx="152.5" cy="154.5" r="1.5" transform="translate(-39.667 341) scale(.66667)"/><circle cx="152.5" cy="154.5" r="1.5" transform="scale(.6667) rotate(45 -494.69 320.431)"/><circle cx="152.5" cy="154.5" r="1.5" transform="matrix(0 .66667 -.66667 0 153 330.333)"/><circle cx="152.5" cy="154.5" r="1.5" transform="rotate(135 11.21 253.286) scale(.66667)"/><path d="M43,401L43,413C43,413.552 43.448,414 44,414C44.552,414 45,413.552 45,413L45,401C45,400.448 44.552,400 44,400C43.448,400 43,400.448 43,401Z"/><path d="M43,401L43,413C43,413.552 43.448,414 44,414C44.552,414 45,413.552 45,413L45,401C45,400.448 44.552,400 44,400C43.448,400 43,400.448 43,401Z" transform="translate(36)"/></g></svg>