<?xml version="1.0" encoding="UTF-8" standalone="no"?> <svg xmlns="http://www.w3.org/2000/svg" xmlns:xlink="http://www.w3.org/1999/xlink" viewBox="0 0 64 64"><defs><style>.cls-1{fill:url(#linear-gradient);}.cls-2{fill:url(#linear-gradient-2);}.cls-3{fill:url(#linear-gradient-3);}.cls-4{fill:url(#linear-gradient-4);}.cls-5{fill:url(#linear-gradient-5);}</style><linearGradient id="linear-gradient" x1="8.52" y1="32" x2="55.48" y2="32" gradientUnits="userSpaceOnUse"><stop offset="0" stop-color="#17a6d7"/><stop offset="1" stop-color="#9d31fe"/></linearGradient><linearGradient id="linear-gradient-2" x1="16.78" y1="13.42" x2="47.22" y2="13.42" xlink:href="#linear-gradient"/><linearGradient id="linear-gradient-3" x1="16.78" y1="21.92" x2="47.22" y2="21.92" xlink:href="#linear-gradient"/><linearGradient id="linear-gradient-4" x1="16.78" y1="30.41" x2="47.22" y2="30.41" xlink:href="#linear-gradient"/><linearGradient id="linear-gradient-5" x1="16.78" y1="38.9" x2="47.22" y2="38.9" xlink:href="#linear-gradient"/></defs><g id="Layer_92" data-name="Layer 92"><path class="cls-1" d="M55.28,47.46a2,2,0,0,0,.2-.84V8a5.89,5.89,0,0,0-5.79-6H14.31A5.89,5.89,0,0,0,8.52,8V56a5.89,5.89,0,0,0,5.79,6H40.74a2,2,0,0,0,1.14-.36,1.86,1.86,0,0,0,.31-.26L54.93,48A1.93,1.93,0,0,0,55.28,47.46ZM12.52,56V8a1.89,1.89,0,0,1,1.79-2H49.69a1.89,1.89,0,0,1,1.79,2V44.62H40.74a2,2,0,0,0-2,2V58H14.31A1.89,1.89,0,0,1,12.52,56Zm30.22-1V48.62h6.07Z"/><path class="cls-2" d="M18.75,15.42h26.5a2,2,0,0,0,0-4H18.75A2,2,0,0,0,18.75,15.42Z"/><path class="cls-3" d="M18.75,23.92h26.5a2,2,0,0,0,0-4H18.75A2,2,0,0,0,18.75,23.92Z"/><path class="cls-4" d="M18.75,32.41h26.5a2,2,0,0,0,0-4H18.75A2,2,0,0,0,18.75,32.41Z"/><path class="cls-5" d="M45.25,40.9a2,2,0,0,0,0-4H18.75a2,2,0,0,0,0,4Z"/></g></svg>