<?xml version="1.0"?>
<svg xmlns="http://www.w3.org/2000/svg" width="512" height="512" viewBox="0 0 512 512"><g><g><g><path d="M448,288V440a56,56,0,0,1-112,0V288Z" fill="#787680"/><path d="M392,496H72a56,56,0,0,1-56-56V16H336V440A56,56,0,0,0,392,496Z" fill="#d8d7da"/><path d="M448,440v8h-.57A55.494,55.494,0,0,0,448,440Z" fill="#d8d7da"/><polyline points="272.34 152 48 152 48 49 304 49 304 72.45" fill="#ffda44"/><rect x="48" y="280" width="64" height="64" fill="#ffda44"/></g><path d="M464,144a96,96,0,1,1-96-96v96Z" fill="#83d8f4"/><path d="M496,112H400V16A96,96,0,0,1,496,112Z" fill="#d80027"/></g><g><path d="M48,192H248a8,8,0,0,0,0-16H48a8,8,0,0,0,0,16Z"/><path d="M48,224H256a8,8,0,0,0,0-16H48a8,8,0,0,0,0,16Z"/><path d="M48,256H208a8,8,0,0,0,0-16H48a8,8,0,0,0,0,16Z"/><path d="M232,240a8,8,0,0,0,0,16h8a8,8,0,0,0,0-16Z"/><path d="M304,368H48a8,8,0,0,0,0,16H304a8,8,0,0,0,0-16Z"/><path d="M304,400H48a8,8,0,0,0,0,16H304a8,8,0,0,0,0-16Z"/><path d="M208,432H48a8,8,0,0,0,0,16H208a8,8,0,0,0,0-16Z"/><path d="M240,432h-8a8,8,0,0,0,0,16h8a8,8,0,0,0,0-16Z"/><path d="M136,280a8,8,0,0,0,8,8H304a8,8,0,0,0,0-16H144A8,8,0,0,0,136,280Z"/><path d="M304,304H144a8,8,0,0,0,0,16H304a8,8,0,0,0,0-16Z"/><path d="M208,352a8,8,0,0,0,0-16H144a8,8,0,0,0,0,16Z"/><path d="M240,352a8,8,0,0,0,0-16h-8a8,8,0,0,0,0,16Z"/><path d="M48,352h64a8,8,0,0,0,8-8V280a8,8,0,0,0-8-8H48a8,8,0,0,0-8,8v64A8,8,0,0,0,48,352Zm8-64h48v48H56Z"/><path d="M448,280H344V245.2A104.027,104.027,0,0,0,472,144a8,8,0,0,0-8-8H376V48a8,8,0,0,0-8-8,103.782,103.782,0,0,0-24,2.8V16a8,8,0,0,0-8-8H16a8,8,0,0,0-8,8V440a64.072,64.072,0,0,0,64,64H392a64.313,64.313,0,0,0,62.85-51.88A8.021,8.021,0,0,0,456,448V288A8,8,0,0,0,448,280ZM360,56.36V144a8,8,0,0,0,8,8h87.64a88,88,0,0,1-175.34-.72c0-.05-.01-.11-.01-.16q-.285-3.525-.29-7.12A88.116,88.116,0,0,1,360,56.36ZM264,144H56V57H296V69.03A103.688,103.688,0,0,0,264,144ZM72,488a48.051,48.051,0,0,1-48-48V24H328V48a104.494,104.494,0,0,0-16,8.4V49a8,8,0,0,0-8-8H48a8,8,0,0,0-8,8V152a8,8,0,0,0,8,8H265.23A104.329,104.329,0,0,0,328,240V440a63.839,63.839,0,0,0,21.74,48Zm368-48a47.282,47.282,0,0,1-.49,6.87A48,48,0,0,1,344,440V296h96Z"/><path d="M400,8a8,8,0,0,0-8,8v96a8,8,0,0,0,8,8h96a8,8,0,0,0,8-8A104.118,104.118,0,0,0,400,8Zm8,96V24.36A88.148,88.148,0,0,1,487.64,104Z"/></g></g></svg>
