<?xml version="1.0" encoding="UTF-8" standalone="no"?>
<svg
   xmlns:dc="http://purl.org/dc/elements/1.1/"
   xmlns:cc="http://creativecommons.org/ns#"
   xmlns:rdf="http://www.w3.org/1999/02/22-rdf-syntax-ns#"
   xmlns:svg="http://www.w3.org/2000/svg"
   xmlns="http://www.w3.org/2000/svg"
   xmlns:sodipodi="http://sodipodi.sourceforge.net/DTD/sodipodi-0.dtd"
   xmlns:inkscape="http://www.inkscape.org/namespaces/inkscape"
   version="1.1"
   id="svg2"
   xml:space="preserve"
   width="4932.7734"
   height="4932.7734"
   viewBox="0 0 4932.7734 4932.7734"
   sodipodi:docname="Medical_doctor_testing_patients_lungs_illustration_concept.eps"><metadata
     id="metadata8"><rdf:RDF><cc:Work
         rdf:about=""><dc:format>image/svg+xml</dc:format><dc:type
           rdf:resource="http://purl.org/dc/dcmitype/StillImage" /></cc:Work></rdf:RDF></metadata><defs
     id="defs6"><clipPath
       clipPathUnits="userSpaceOnUse"
       id="clipPath208"><path
         d="m 6681.98,12973 c -206.39,0 -410.14,33.2 -602.96,112.1 -523.61,214.4 -1108.43,275.7 -1606.88,275.7 -202.12,0 -390.12,-10.1 -553.96,-24.2 1.53,77.9 6.6,154.9 15.06,230.8 104.79,943.8 698.06,1255.4 1524.94,1507.7 l 32.32,4167.9 h -196.28 v 493.8 H 6863.75 V 19243 h -196.29 l -24.52,-4079.3 c 752.52,-229.6 1362.82,-518 1541.09,-1346.1 25.9,-120.2 43.22,-244 51.2,-370.5 C 7801.81,13209.4 7232.34,12973 6681.98,12973"
         id="path206" /></clipPath></defs><sodipodi:namedview
     pagecolor="#ffffff"
     bordercolor="#666666"
     borderopacity="1"
     objecttolerance="10"
     gridtolerance="10"
     guidetolerance="10"
     inkscape:pageopacity="0"
     inkscape:pageshadow="2"
     inkscape:window-width="640"
     inkscape:window-height="480"
     id="namedview4" /><g
     id="g10"
     inkscape:groupmode="layer"
     inkscape:label="ink_ext_XXXXXX"
     transform="matrix(1.3333333,0,0,-1.3333333,0,4932.7733)"><g
       id="g12"
       transform="scale(0.1)"><path
         d="M 0,0 H 36995.8 V 36995.8 H 0 Z"
         style="fill:#fbfbfb;fill-opacity:1;fill-rule:nonzero;stroke:none"
         id="path14" /><path
         d="M 1389.46,11051.6 H 35034.1 c 0,0 1958.1,3868.6 -1368.4,5347.6 81.4,3414.1 -1375.3,7916.7 -8049.5,7611.4 -4842.7,3510.5 -13122.2,2722.1 -15389.3,-534.2 -3800.63,-76.3 -6618.51,-4122.8 -6049.04,-7403.5 -2864.72,-762.2 -2788.4,-5021.3 -2788.4,-5021.3"
         style="fill:#f6f6f6;fill-opacity:1;fill-rule:nonzero;stroke:none"
         id="path16" /><path
         d="M 10425.9,17538.5 H 16625 v 6199.1 h -6199.1 z"
         style="fill:#c4d0f7;fill-opacity:1;fill-rule:nonzero;stroke:none"
         id="path18" /><path
         d="m 10944.5,18014.7 h 5352.1 v 5352.2 h -5352.1 z"
         style="fill:#dcecff;fill-opacity:1;fill-rule:nonzero;stroke:none"
         id="path20" /><path
         d="m 16099.9,17337.4 -140.1,-521.6 c -16,0.9 -30.7,1.4 -43.5,1.4 -106.3,0 -212.6,-145.7 -212.6,-145.7 h -96.7 v 52 c 0,0 -434.8,41.6 -686,114.5 -251.3,72.8 -589.5,1321.3 -589.5,1321.3 h -483.2 v 166.4 c 0,0 0,0 174,41.7 172,41.1 70,824.8 58.3,942.9 86.9,92.8 96.6,280.3 19,347.1 -96.6,83.3 -434.9,-20.8 -618.5,-41.6 -183.6,-20.8 -241.5,-156 -241.5,-364.1 0,-203.4 216.2,-651.3 226.1,-671.7 -13.4,-156.8 -39.8,-323.8 -56.5,-420.7 h -15 l -744.1,-374.6 c 0,0 -193.2,-1623 222.3,-2007.9 l -44.9,-424.7 c -139.2,-895.5 -554.2,-2582.1 -554.2,-2582.1 l 618.4,-416.1 210.6,55 60,-1230.6 49.8,8.5 -22.8,-165.5 -27,-196.8 h 995.3 c 0,0 -29,239.3 -222.3,280.9 -92.2,19.9 -177.7,37.4 -242,72.9 l -47.7,85.8 85,1309.1 457.8,119.7 220.4,-1369 49.1,3 -22,-160 -27.1,-196.7 h 995.3 c 0,0 -29,239.3 -222.2,280.9 -92.2,19.8 -177.8,37.4 -242.1,72.8 l -19.1,34.5 -128.7,1492.3 447.8,117 c 0,0 -50.2,213.2 -125.6,536.8 v 146.3 c 63.6,70.7 241.3,139.8 222.3,222.1 -17.4,75.2 -346.9,168.7 -365.4,248.6 -114.1,494.6 -244.5,1066.1 -348.7,1539.7 16.8,1.5 57,6.1 105.9,19.1 63.3,16.7 140.9,47.6 200.8,104 121.2,114.2 197,81.6 197,195.7 0,114.2 -257.6,171.3 -257.6,171.3 l -295.4,-244.7 0.7,-4.3 -0.7,-0.7 8.9,-55.4 c -61.7,284.9 -110.3,519.9 -134.5,658.8 23.9,-32.7 53.9,-61.2 88.5,-85.9 l 27.2,-26.5 c 0.3,2.6 0.5,5.3 0.7,8 340.2,-210.6 1043.1,-114 1043.1,-114 v 62.4 h 140.3 87.2 l -92.2,-343.3 985.7,-83.3 415.5,1415 h -1043.6"
         style="fill:#c4d0f7;fill-opacity:1;fill-rule:nonzero;stroke:none"
         id="path22" /><path
         d="m 33281.2,12221.8 c -32.1,228.8 -144.8,435.7 -314.4,542.6 -150.4,94.8 -340.5,142.2 -508.3,165.5 -24.6,62.4 -85.5,106.9 -156.4,106.9 h -67.5 v 156.3 c 62.9,1.5 117.4,37.9 145,90.5 172.6,0.7 498.6,-32.9 695.1,-198 138.6,-116.5 261.6,-486.4 206.5,-863.8 M 19607,11400 c -732.4,-26.3 -1902,344.3 -2100.8,1081.5 -33.1,122.6 -64,294.3 -92.6,504.4 231.4,241.2 408.4,516.6 512.5,810.9 505.2,1429.2 180.6,5574.4 259.8,6684 16.2,226.4 4.3,435 -31.1,625.5 l 137.4,172.1 154.3,-206.3 c -112.6,-296.2 -154.1,-650 -95.5,-1057.7 152.5,-1061.6 124.1,-5070.1 709.2,-6409.6 285.4,-653.3 957.5,-1176 1766.6,-1391.9 90.9,-213.2 214.3,-408.3 365.7,-573.6 76.6,-83.6 158.8,-157.4 245.6,-221 -727.4,1.3 -1398.7,-3.1 -1831.1,-18.3 m 2640.4,397.1 c 154,-155.1 362.2,-276 597.6,-370.3 -164.7,-2.4 -335.7,-6.4 -511.6,-12.6 -36.3,0.2 -72.6,0.5 -109,0.7 -467.2,24.4 -830,329.1 -1050.9,725.9 276,-41.5 562.9,-47.4 852,-11.6 47.6,-120.2 121.7,-231.2 221.9,-332.1 m 10571.2,449.5 c -106.4,42.5 -233.8,69.1 -358,85.9 -23.1,65.3 -85.4,112.5 -158.5,112.5 h -67.5 v 135.8 h 67.5 c 55.5,0 104.7,27.2 135.4,68.9 134.6,-20.1 276.1,-57.1 379.8,-122.5 100.2,-63.2 181.8,-224.4 191.8,-405.6 -52.4,52.4 -116.8,95.5 -190.5,125 m 436.5,1053.6 c -281.9,236.9 -698,263.8 -878.4,263.3 -28.4,49.7 -81.3,83.7 -142.1,85.2 v 7308 h -1515.3 -61 -1147.6 -3404.9 -42 v -9553.4 h 4655.5 v 3.9 h 1515.3 v 581.8 h 67.5 c 53.5,0 101.2,25.3 132,64.5 100.1,-13.9 199.7,-35.1 280.5,-67.3 112,-44.7 182,-153.2 163,-252.4 -4.5,-23.3 -14.3,-47.2 -29.5,-71 -83.4,-89.8 -197,-158.9 -337.9,-205.7 -134.8,-39.5 -310.5,-66.4 -533.5,-72 -486.3,0.1 -1162.7,0.6 -1908.3,1.2 -1762.8,1.5 -3956.7,3.3 -4877.1,-1.2 v -2.1 c -27,-0.6 -61.4,-1.1 -102.5,-1.5 -61.3,1.1 -204.9,3.4 -408.5,6.4 l -2.5,0.1 c -73.3,4.5 -165,9.5 -272.9,14.6 -670.3,46 -1555.4,185.9 -1958.7,592.1 -57.3,57.8 -102.2,118.8 -135.2,183.6 420.4,92.8 839.5,277.8 1230.3,574.3 562.8,426.9 842.3,1040.7 920.3,1704.1 248.7,1379 -406.3,3051.4 -1223.9,3724.6 -1162.3,957 -1624.8,4029.9 -2666,4236.7 -563.5,111.8 -1165.7,-63.2 -1565.1,-494.3 -114.1,670 -107.5,2911.7 -83.1,4225.1 l 3.3,35.4 c 1.9,20 -4.8,39.8 -18.5,54.5 -6.4,6.8 -13.9,12.2 -22.2,16 -9.8,5 -20.7,7.7 -31.9,7.7 l -837.6,-22.4 -282.7,-7.1 c -2.8,-0.1 -5.6,-0.3 -8.3,-0.7 h -0.9 c -19.5,-0.6 -37.8,-9.1 -50.7,-23.7 -12.9,-14.6 -19.1,-33.9 -17.2,-53.2 l 12.1,-123.1 c 37.1,-1514.8 39.8,-3210.2 -47,-3927.6 -460.6,428.2 -1128.6,570.3 -1731.3,411.7 -2.9,-0.8 -5.8,-1.7 -8.7,-2.5 -18.8,-4.3 -37.5,-8.8 -56.1,-13.7 -1045.9,-275.2 -1293.6,-3316.5 -2408.3,-4334.8 -358,-327.1 -666.3,-855.7 -862,-1460.5 -537,-1374.2 -520.4,-3252 808.7,-4120.6 1329.9,-869.1 2864.7,-591.3 3800.4,172.2 21.9,-135.5 45.5,-253.6 70.9,-347.9 138.4,-513.4 602.6,-823.6 967.6,-993.5 431.7,-200.9 960.3,-311.2 1413.8,-295.2 581.9,20.5 1601.2,21.2 2605.4,14.8 38.1,-1.8 76.4,-2.2 114.9,-0.8 h 0.9 c 895.7,-6.2 1765.4,-17.7 2286.7,-25.4 29.1,-1.2 57.4,-2.3 85.1,-3.2 93.9,-6 145.9,-10.2 148.2,-10.4 3.9,-0.3 7.8,-0.5 11.7,-0.5 14.4,0 28.3,2.3 41.5,6.4 34,-0.4 66.1,-0.5 96,-0.5 37.6,0 71.8,0.2 102.3,0.6 4,-0.1 6.6,-0.1 7.4,-0.1 h 2.5 c 2.4,0 4.8,0.2 7.2,0.3 963.7,6.3 3250.1,3.7 5088,1.7 776.5,-0.9 1509.9,-1.7 2019.9,-1.7 838,0 1144.5,497.5 1252.5,794 199,545.9 37.4,1178.7 -232,1405.2"
         style="fill:#c4d0f7;fill-opacity:1;fill-rule:nonzero;stroke:none"
         id="path24" /><path
         d="M 6273.54,15419.5 V 19243 h 218.71 v 516.7 H 6394.5 4841.17 4743.42 V 19243 h 218.7 v -3823.5 c -921.34,-260 -1618.4,-1054.7 -1735.17,-2027.8 -11.45,-95 -17.33,-191.9 -17.33,-290 0,-1330 1078.21,-2408.2 2408.25,-2408.2 1329.99,0 2408.18,1078.2 2408.18,2408.2 0,188.6 -21.69,372 -62.7,548 -198.62,853.8 -851.32,1533.1 -1689.81,1769.8"
         style="fill:#c4d0f7;fill-opacity:1;fill-rule:nonzero;stroke:none"
         id="path26" /><path
         d="M 10564.7,20070.1 H 8466.67 c -189.41,0 -342.95,-153.5 -342.95,-342.9 0,-189.4 153.54,-343 342.95,-343 h 0.7 v -7409.8 c 0,-612.8 496.76,-1109.6 1109.55,-1109.6 h 0.01 c 612.77,0 1109.57,496.8 1109.57,1109.6 v 7432.1 c 129.3,49.2 221.2,174.1 221.2,320.7 0,189.4 -153.6,342.9 -343,342.9"
         style="fill:#c4d0f7;fill-opacity:1;fill-rule:nonzero;stroke:none"
         id="path28" /><path
         d="m 17276.2,10798.8 c 0,-113.6 -906.8,-205.7 -2025.3,-205.7 -1118.6,0 -2025.3,92.1 -2025.3,205.7 0,113.7 906.7,205.8 2025.3,205.8 1118.5,0 2025.3,-92.1 2025.3,-205.8"
         style="fill:#c4d0f7;fill-opacity:1;fill-rule:nonzero;stroke:none"
         id="path30" /><path
         d="m 19266.8,20080.3 c -228.4,1589 1022.7,2380.7 2129.6,2173 1107,-207.6 1589.3,-3340.9 2822.6,-4313.6 1233.4,-972.7 2110.9,-4006.1 379.7,-5319.4 -1731.2,-1313.2 -4002.1,-500.6 -4603.3,875.5 -601.2,1376.1 -571.9,5493.9 -728.6,6584.5"
         style="fill:#d35400;fill-opacity:1;fill-rule:nonzero;stroke:none"
         id="path32" /><path
         d="m 19497.9,20367.5 c -225.3,1600.9 980.6,2394.4 2050.2,2182 1069.7,-212.4 1544.7,-3369.2 2738.7,-4352.3 1194,-983.1 2050.5,-4040.4 382.4,-5357.8 -1668,-1317.3 -3863.5,-492.3 -4448.2,895.2 -584.6,1387.6 -568.5,5534.2 -723.1,6632.9"
         style="fill:#e67e23;fill-opacity:1;fill-rule:nonzero;stroke:none"
         id="path34" /><path
         d="m 19097.2,20559.5 c 118.7,1660.9 -1230.9,2387.6 -2358,2091 -1127.1,-296.6 -1394,-3574.1 -2595.3,-4671.5 -1201.2,-1097.4 -1883.4,-4300.7 0,-5531.6 1883.5,-1230.9 4167.3,-222.5 4686.4,1245.7 519,1468.2 185.5,5726.5 266.9,6866.4"
         style="fill:#d35400;fill-opacity:1;fill-rule:nonzero;stroke:none"
         id="path36" /><path
         d="m 18920.4,20640.6 c 113.1,1583.3 -1173.3,2276 -2247.7,1993.3 -1074.4,-282.8 -1328.9,-3407 -2474,-4453.1 -1145.1,-1046.2 -1795.4,-4099.7 0,-5273.1 1795.4,-1173.3 3972.5,-212 4467.2,1187.5 494.8,1399.6 176.9,5458.8 254.5,6545.4"
         style="fill:#e67e23;fill-opacity:1;fill-rule:nonzero;stroke:none"
         id="path38" /><path
         d="m 25128.7,14814.9 c -243.1,-565.1 -1271.3,-1555.8 -2264.1,-951.3 -897.9,546.8 -756.3,2916.5 -1562.3,4418.2 -805.9,1501.7 -1293.1,4348.6 93.5,3963.5 1386.6,-385.1 1353.5,-2880.3 2558.9,-4051.9 1205.4,-1171.6 1565.8,-2467.3 1174,-3378.5"
         style="fill:#f1c40d;fill-opacity:1;fill-rule:nonzero;stroke:none"
         id="path40" /><path
         d="m 14256.9,13608.8 c -780.8,447.3 -648.1,3110.5 403.2,4349 1051.2,1238.4 1339.2,3427.3 2030.5,4017.8 691.2,590.4 1568.9,42.6 1569.3,-590.8 0.3,-633.3 -595.5,-4447.6 -801.6,-5917.4 -206.1,-1469.8 -1819,-2650.6 -3201.4,-1858.6"
         style="fill:#f1c40d;fill-opacity:1;fill-rule:nonzero;stroke:none"
         id="path42" /><path
         d="m 21919.8,13259.8 c -11.7,0 -23.5,2.8 -34.4,8.7 0,0 -5.1,2.8 -14.7,9.2 -33,21.8 -42.1,66.1 -20.6,99.3 13.8,21.1 36.9,32.7 60.4,32.7 13.3,0 26.7,-3.7 38.7,-11.4 5,-3.1 8,-5 8.4,-5.2 33.4,-20.2 44.3,-63.2 24.9,-97.1 -13.3,-23.2 -37.6,-36.2 -62.7,-36.2"
         style="fill:#9b59b6;fill-opacity:1;fill-rule:nonzero;stroke:none"
         id="path44" /><path
         d="m 21910.5,13337.7 c 6.4,-4.3 9.9,-6.2 9.9,-6.2 0,0 -3.7,2.2 -9.9,6.2"
         style="fill:#be90d4;fill-opacity:1;fill-rule:nonzero;stroke:none"
         id="path46" /><path
         d="m 20930.5,13045.8 c -39,0.8 -70.2,32.6 -70.4,71.7 -3,758.1 -38.5,1954.2 -123.7,2142.3 -77,170 -76.9,619.6 0.3,1045.7 56.6,312.7 203.9,873.1 562.2,1204.3 -433.5,746.7 -838.4,1958.4 -958.1,2331 -115.8,-133.6 -351.9,-474.5 -596.9,-1232.6 -9.4,-29 -36,-48.9 -66.4,-49.8 h -2.1 c -29.6,0 -56.3,18.1 -67.1,45.8 -204.5,524.9 314.3,1437.9 440.8,1648 l -842.7,1126.6 -876.1,-1097.6 c 119.8,-213.9 609.7,-1142.7 388.9,-1661 -11.4,-26.6 -37.6,-43.8 -66.3,-43.8 -1.4,0 -2.9,0.1 -4.4,0.2 -30.4,1.8 -56.3,22.6 -64.8,51.9 -220.8,764.9 -446,1113.1 -557.9,1250.7 -131.3,-368.8 -574.1,-1567.1 -1030.8,-2299.7 347.7,-342.3 477.3,-907.1 524.1,-1221.4 63.7,-428.3 49.7,-877.7 -32.6,-1045.2 -91.1,-185.3 -164.1,-1379.7 -191,-2137.4 -1.4,-38.8 -33.2,-69.4 -71.9,-69.4 h -0.8 c -39,0.4 -70.6,31.8 -71.2,70.8 -0.1,6.7 -10,583.3 -75.7,1061.5 -314.1,-568.7 -704.4,-822.7 -786.4,-871.6 -11.6,-6.9 -24.3,-10.2 -36.9,-10.2 -24.3,0 -48,12.3 -61.6,34.6 -20.5,33.8 -9.9,77.9 23.7,98.7 43.1,26.6 433.2,292.9 837.9,1406.5 390.4,1074.3 -418,2191.7 -569.1,2386.9 -221.3,-25.6 -1318.8,-160.6 -1823.7,-371.2 -519.9,-216.9 -461.8,-914.6 -461.2,-921.6 3.5,-38.3 -23.6,-72.6 -61.7,-78 -3.4,-0.5 -6.7,-0.7 -10.1,-0.7 -34,0 -64.1,24.2 -70.6,58.6 l -54.7,289.1 c -138.9,-280.7 -274.9,-808.6 -323.1,-1025.6 -7.3,-33.1 -36.6,-56.4 -70.2,-56.4 h -2 c -34.4,0.9 -63.4,26.1 -69.1,60.1 -6.8,40.6 -159.6,1000 353,1666.1 339.4,441 1193.7,653.6 1880.1,824.5 343.1,85.4 639.5,159.2 750,235.8 253.6,175.6 631.3,1280.3 781.9,1775.2 -132.5,33.9 -434.8,101.6 -735,101.6 -86.2,0 -166.9,-5.7 -239.7,-16.7 -293.9,-44.7 -567.3,-371.7 -787,-634.5 -119.8,-143.4 -223.4,-267.2 -320.4,-338.9 -12.7,-9.4 -27.7,-14.1 -42.8,-14.1 -14.4,0 -28.8,4.3 -41.2,13 -25.4,17.7 -36.6,49.6 -27.9,79.2 162.5,554.7 460.1,886.5 613.5,1028.4 l -269.1,107.5 c -32.8,13.1 -51.2,48 -43.5,82.5 7.3,33.1 36.7,56.4 70.2,56.4 1.4,0 2.8,-0.1 4.2,-0.2 l 426,-24.8 c 279.6,139.9 757.4,169.7 1112.9,169.7 206.9,0 375.3,-9.7 449.4,-14.8 132.9,182.3 792.9,1099.1 986.3,1594.2 148.7,380.9 153.4,2488.4 108.1,4334.7 l -12.4,126.4 c -2,19.8 4.4,39.6 17.6,54.6 13.3,15 32.1,23.8 52.1,24.4 h 0.9 c 2.8,0.4 5.7,0.7 8.5,0.7 l 290.5,7.3 860.4,23 c 11.5,0 22.7,-2.8 32.8,-7.9 8.5,-3.9 16.3,-9.4 22.8,-16.4 14.1,-15.1 21,-35.5 19.1,-56 l -3.5,-36.4 c -27.2,-1464.8 -32.9,-4054 118.4,-4480.2 177.7,-501 808.5,-1438.1 935.7,-1624.5 45.9,1.7 128.1,4.1 233.7,4.1 431,0 1006.2,-36.5 1323,-207.9 l 428.4,11.4 c 34.5,0 64.3,-24.5 70.7,-58.6 6.6,-34.7 -12.9,-69 -46.1,-81.1 l -272.3,-98.9 c 148.8,-146.7 435.9,-487.7 580.8,-1047.2 7.8,-29.9 -4.4,-61.5 -30.3,-78.4 -12,-7.8 -25.7,-11.7 -39.3,-11.7 -15.9,0 -31.6,5.2 -44.6,15.5 -94.8,74.7 -194.3,201.7 -309.6,348.8 -211.4,269.6 -474.4,605 -766.7,658.9 -90.9,16.8 -193.8,25.3 -305.9,25.3 -277.8,0 -547.5,-51.9 -671,-79.5 135,-499.4 477.8,-1615.4 725.7,-1798.9 108.1,-80 402,-163.1 742.3,-259.2 680.7,-192.4 1527.8,-431.8 1853.2,-883.3 491.5,-681.8 308.5,-1636 300.5,-1676.3 -6.8,-33.7 -36.3,-57.9 -70.7,-57.9 h -0.3 c -34.5,0.2 -64,24.7 -70.4,58.6 -41.4,218.4 -160.6,750.4 -290.7,1035.3 l -63.7,-287.2 c -7.4,-33.5 -37.1,-56.5 -70.2,-56.5 -4.1,0 -8.3,0.4 -12.4,1.1 -37.9,6.6 -64,41.8 -59.2,80 0.9,6.9 80.9,702.5 -431.9,935.6 -498.1,226.4 -1590.9,395.7 -1811.2,428.3 -71.3,-86.1 -283.8,-356.9 -460.3,-725.4 -195.7,-408.3 -386.3,-1024.7 -183.5,-1642.4 369.5,-1125.7 751,-1404.2 793.3,-1432.2 32.9,-21.9 42.1,-66.2 20.5,-99.3 -13.8,-21.2 -36.9,-32.7 -60.4,-32.7 -13.3,0 -26.7,3.6 -38.7,11.3 -80.5,51.5 -462.6,317.6 -758.7,895.9 -80.6,-475.8 -108.6,-1051.9 -109,-1058.5 -1.8,-38.5 -33.5,-68.6 -71.9,-68.6 h -1.6"
         style="fill:#f39c12;fill-opacity:1;fill-rule:nonzero;stroke:none"
         id="path48" /><path
         d="m 24322.6,16694.7 c -478.7,664.2 -2241.9,876.4 -2580,1126.6 -338,250.3 -771.3,1909.7 -771.3,1909.7 0,0 600.7,160.2 1078.5,72.1 477.7,-88 842.9,-813 1107.7,-1022 -192.7,744 -648.6,1091.9 -648.6,1091.9 l 385.2,140 -446.3,-12 c -453.5,261.6 -1575.6,202.8 -1575.6,202.8 0,0 -764.2,1103.2 -966.8,1674 -190.5,537 -130.3,4089 -122.4,4508.4 l 3.7,39.1 h -3 v 1.5 l -858.6,-23 -290.5,-7.3 v -0.5 l -9.3,-0.2 12.7,-129 c 16.8,-684.3 83.5,-3862.4 -113,-4365.3 -220.4,-564.1 -1018.9,-1642.8 -1018.9,-1642.8 0,0 -1119.6,94.1 -1581.2,-153.1 l -445.7,26 380.7,-152 c 0,0 -466.6,-333.5 -682.7,-1071 271.3,200.6 659.1,913.7 1139.3,986.7 480.3,73 1075.8,-106 1075.8,-106 0,0 -485.3,-1645 -831.1,-1884.5 -345.7,-239.5 -2114.7,-396.1 -2614.1,-1045 -499.4,-648.9 -339,-1610.3 -339,-1610.3 0,0 215.1,968.4 430.6,1201 l 88.2,-466.7 c 0,0 -71.4,754.3 505.1,994.7 576.6,240.5 1883,380.8 1883,380.8 0,0 1051.9,-1258.5 605.3,-2487.5 -406.8,-1119.1 -800.6,-1401.6 -867.7,-1443.2 73,43.5 539.4,342.1 858.6,1039.8 100.1,-510.7 112.4,-1290.3 112.4,-1290.3 0,0 67.4,1900.2 198.3,2166.6 130.9,266.5 111.5,1666.8 -519.7,2222.9 555.1,862 1094.6,2446.2 1094.6,2446.2 0,0 332.5,-244.7 656.1,-1365.3 233.9,548.9 -409.4,1639.4 -409.4,1639.4 l 964.8,1208.7 927.8,-1240.5 c 0,0 -677.3,-1069.7 -460.7,-1625.7 358.7,1109.9 698.7,1344 698.7,1344 0,0 489.4,-1600.4 1017.1,-2479.4 -648.3,-536 -711.7,-1935 -589.2,-2205.5 122.5,-270.4 130.1,-2171.7 130.1,-2171.7 0,0 36.8,778.8 152.9,1286.2 297.1,-707.4 753.8,-1020.5 825.5,-1066.3 -65.9,43.6 -450.6,338.4 -821.9,1469.7 -407.8,1242.4 683.1,2467.3 683.1,2467.3 0,0 1301.3,-181.3 1870.1,-439.8 568.7,-258.5 473.6,-1010.1 473.6,-1010.1 l 102.8,463.7 c 208.1,-239.3 392.6,-1214 392.6,-1214 0,0 190.6,955.9 -288.2,1620.2"
         style="fill:#fde3a7;fill-opacity:1;fill-rule:nonzero;stroke:none"
         id="path50" /><path
         d="m 26220,10923.3 -2.6,0.1 c -41.7,0.7 -4188.6,71.3 -5650.1,19.6 -465.9,-16.4 -1008.9,96.9 -1452.4,303.3 -375,174.5 -851.8,493.2 -994.1,1020.6 -187.6,695.8 -278.8,2654.9 -309.2,3464.9 -58.7,1557.4 -61.2,3099.4 -6.6,3928.4 5.2,79.3 73.7,139.5 153.1,134.2 79.4,-5.2 139.5,-73.8 134.2,-153.2 -107.8,-1636.9 21.9,-6243.3 306.6,-7299.3 204.2,-757.4 1405.7,-1138 2158.2,-1111.1 1469,52 5623.5,-18.7 5665.3,-19.5 79.5,-1.3 142.9,-66.9 141.5,-146.4 -1.3,-78.7 -65.6,-141.6 -143.9,-141.6"
         style="fill:#3d6584;fill-opacity:1;fill-rule:nonzero;stroke:none"
         id="path52" /><path
         d="m 21294.6,15818.6 c 225.5,-303.3 153.6,-738.6 -160.6,-972.2 -314.2,-233.6 -751.7,-177.1 -977.2,126.2 -225.5,303.3 -153.6,738.5 160.6,972.1 314.2,233.6 751.7,177.1 977.2,-126.1"
         style="fill:#d35400;fill-opacity:1;fill-rule:nonzero;stroke:none"
         id="path54" /><path
         d="m 21208.7,15816.2 c 209.2,-281.4 150.7,-679.1 -130.7,-888.3 -281.4,-209.2 -679.1,-150.7 -888.3,130.7 -209.2,281.4 -150.7,679.1 130.7,888.3 281.4,209.2 679.1,150.7 888.3,-130.7"
         style="fill:#bdc3c7;fill-opacity:1;fill-rule:nonzero;stroke:none"
         id="path56" /><path
         d="m 20607.7,15362 150.1,-379.3 c -192,-36.1 -388.6,40.8 -505.2,197.6 -167.6,225.4 -120,548.6 105.3,716.1 225.4,167.6 548.6,120 716.2,-105.3 96.2,-129.5 125.8,-297.1 79.7,-451.7 l -379.8,178.8 c -100.6,47.3 -207.3,-52.8 -166.3,-156.2"
         style="fill:#ecf0f1;fill-opacity:1;fill-rule:nonzero;stroke:none"
         id="path58" /><path
         d="m 20745.2,15856 c 31.3,-42.1 22.5,-101.7 -19.6,-133 -42.2,-31.4 -101.7,-22.6 -133.1,19.5 -31.3,42.2 -22.6,101.8 19.6,133.1 42.1,31.4 101.7,22.6 133.1,-19.6"
         style="fill:#bdc3c7;fill-opacity:1;fill-rule:nonzero;stroke:none"
         id="path60" /><path
         d="m 18656.9,19540.6 c 11.8,-377.7 -296,-693.8 -687.3,-706 -391.3,-12.1 -718.1,284.2 -729.8,662 -11.8,377.7 295.9,693.8 687.3,705.9 391.3,12.2 718.1,-284.2 729.8,-661.9"
         style="fill:#e67e23;fill-opacity:1;fill-rule:nonzero;stroke:none"
         id="path62" /><path
         d="m 18585.1,19587.8 c 10.9,-350.5 -264.4,-643.4 -614.9,-654.3 -350.4,-10.9 -643.4,264.4 -654.3,614.8 -10.8,350.5 264.4,643.5 614.9,654.3 350.5,10.9 643.4,-264.3 654.3,-614.8"
         style="fill:#bdc3c7;fill-opacity:1;fill-rule:nonzero;stroke:none"
         id="path64" /><path
         d="m 17832.3,19558.5 -93.5,-397.1 c -178.2,80.1 -295.7,255.6 -301.7,450.9 -8.7,280.7 215,518.8 495.7,527.5 280.6,8.7 518.7,-215 527.4,-495.7 5,-161.2 -66.5,-315.7 -192.7,-416.2 l -209.5,363.7 c -55.4,96.3 -200.2,75.1 -225.7,-33.1"
         style="fill:#ecf0f1;fill-opacity:1;fill-rule:nonzero;stroke:none"
         id="path66" /><path
         d="m 18227.5,19885.4 c 1.6,-52.6 -39.7,-96.4 -92.2,-98.1 -52.5,-1.6 -96.3,39.6 -98,92.1 -1.6,52.5 39.6,96.4 92.1,98.1 52.5,1.6 96.4,-39.6 98.1,-92.1"
         style="fill:#bdc3c7;fill-opacity:1;fill-rule:nonzero;stroke:none"
         id="path68" /><path
         d="m 23240,17195.6 c 0,-377.9 -317.4,-684.2 -708.9,-684.2 -391.6,0 -709,306.3 -709,684.2 0,377.9 317.4,684.3 709,684.3 391.5,0 708.9,-306.4 708.9,-684.3"
         style="fill:#e67e23;fill-opacity:1;fill-rule:nonzero;stroke:none"
         id="path70" /><path
         d="m 23169.6,17245 c 0,-350.6 -284.2,-634.9 -634.8,-634.9 -350.7,0 -634.9,284.3 -634.9,634.9 0,350.7 284.2,634.9 634.9,634.9 350.6,0 634.8,-284.2 634.8,-634.9"
         style="fill:#bdc3c7;fill-opacity:1;fill-rule:nonzero;stroke:none"
         id="path72" /><path
         d="m 22416.3,17239.1 -105.8,-394 c -175.6,85.6 -287.6,264.7 -287.6,460.1 0,280.8 231.1,511.8 511.9,511.8 280.7,0 511.8,-231 511.8,-511.8 0,-161.3 -76.3,-313.5 -205.5,-410.1 l -198.1,370.1 c -52.5,98 -197.9,81.3 -226.7,-26.1"
         style="fill:#ecf0f1;fill-opacity:1;fill-rule:nonzero;stroke:none"
         id="path74" /><path
         d="m 22821.4,17553.5 c 0,-52.5 -42.6,-95.1 -95.1,-95.1 -52.5,0 -95.1,42.6 -95.1,95.1 0,52.6 42.6,95.2 95.1,95.2 52.5,0 95.1,-42.6 95.1,-95.2"
         style="fill:#bdc3c7;fill-opacity:1;fill-rule:nonzero;stroke:none"
         id="path76" /><path
         d="m 30731,11238.2 h 2798.3 v 9810.1 H 30731 Z"
         style="fill:#bdc3c7;fill-opacity:1;fill-rule:nonzero;stroke:none"
         id="path78" /><path
         d="m 31910,16295.6 h -4676.7 v 868.2 H 31910 v -868.2"
         style="fill:#ecf0f1;fill-opacity:1;fill-rule:nonzero;stroke:none"
         id="path80" /><path
         d="m 31910,11238.2 h -4676.7 v 5057.4 H 31910 v -5057.4"
         style="fill:#ecf0f1;fill-opacity:1;fill-rule:nonzero;stroke:none"
         id="path82" /><path
         d="m 27484.4,11460.5 h 4157.3 v 4735.9 h -4157.3 z m 4193.4,-36.1 h -4229.5 v 4808.1 h 4229.5 v -4808.1"
         style="fill:#262f4c;fill-opacity:1;fill-rule:nonzero;stroke:none"
         id="path84" /><path
         d="m 27208.1,11252.3 h 4746.5 v 9778 h -4746.5 z m 4782.6,-36.1 H 27172 v 9850.2 h 4818.7 v -9850.2"
         style="fill:#262f4c;fill-opacity:1;fill-rule:nonzero;stroke:none"
         id="path86" /><path
         d="M 27233.2,17245 H 31910 v 3803.3 h -4676.8 z"
         style="fill:#ecf0f1;fill-opacity:1;fill-rule:nonzero;stroke:none"
         id="path88" /><path
         d="m 31580.5,20460.7 v -2686 c 0,-127.2 -103,-230.2 -230.1,-230.2 h -3562.3 c -55.3,0 -106,19.6 -145.8,52.2 -51.4,42.2 -84.2,106.2 -84.2,178 v 2686 c 0,127.1 103,230.1 230,230.1 h 3562.3 c 99.8,0 184.6,-63.4 216.5,-152.2 8.8,-24.4 13.6,-50.6 13.6,-77.9"
         style="fill:#121d26;fill-opacity:1;fill-rule:nonzero;stroke:none"
         id="path90" /><path
         d="m 31580.5,20460.7 v -2686 c 0,-127.2 -103,-230.2 -230.1,-230.2 h -3562.3 c -55.3,0 -106,19.6 -145.8,52.2 -8.7,24.2 -13.5,50.4 -13.5,77.7 v 2686 c 0,127.2 103,230.2 230.1,230.2 h 3562.3 c 55.3,0 106,-19.5 145.7,-52 8.8,-24.4 13.6,-50.6 13.6,-77.9"
         style="fill:#2c3e50;fill-opacity:1;fill-rule:nonzero;stroke:none"
         id="path92" /><path
         d="m 30830.3,17801.9 h -2401.8 c -321.8,0 -582.6,260.9 -582.6,582.6 v 1624.9 c 0,321.7 260.8,582.6 582.6,582.6 h 2401.8 c 321.8,0 582.6,-260.9 582.6,-582.6 v -1624.9 c 0,-321.7 -260.8,-582.6 -582.6,-582.6"
         style="fill:#3d6584;fill-opacity:1;fill-rule:nonzero;stroke:none"
         id="path94" /><path
         d="M 31910,17082.6 H 27233.3 V 17245 H 31910 v -162.4"
         style="fill:#bdc3c7;fill-opacity:1;fill-rule:nonzero;stroke:none"
         id="path96" /><path
         d="m 31259.9,16433 h -2456.8 c -161,0 -291.5,130.5 -291.5,291.5 0,161 130.5,291.5 291.5,291.5 h 2456.8 c 160.9,0 291.4,-130.5 291.4,-291.5 0,-161 -130.5,-291.5 -291.4,-291.5"
         style="fill:#34495e;fill-opacity:1;fill-rule:nonzero;stroke:none"
         id="path98" /><path
         d="m 31282.8,16445.5 h -2436 c -148.3,0 -268.6,120.3 -268.6,268.6 0,148.3 120.3,268.6 268.6,268.6 h 2436 c 148.3,0 268.5,-120.3 268.5,-268.6 0,-148.3 -120.2,-268.6 -268.5,-268.6"
         style="fill:#67809f;fill-opacity:1;fill-rule:nonzero;stroke:none"
         id="path100" /><path
         d="m 28238.9,16714.1 c 0,-155.2 -125.9,-281.1 -281.1,-281.1 -155.2,0 -281.1,125.9 -281.1,281.1 0,155.2 125.9,281.1 281.1,281.1 155.2,0 281.1,-125.9 281.1,-281.1"
         style="fill:#34495e;fill-opacity:1;fill-rule:nonzero;stroke:none"
         id="path102" /><path
         d="m 28111.5,16714.1 c 0,-155.2 -125.8,-281.1 -281.1,-281.1 -155.2,0 -281,125.9 -281,281.1 0,155.2 125.8,281.1 281,281.1 155.3,0 281.1,-125.9 281.1,-281.1"
         style="fill:#67809f;fill-opacity:1;fill-rule:nonzero;stroke:none"
         id="path104" /><path
         d="m 29238.2,16856.2 c 0,-54.6 -44.2,-98.9 -98.9,-98.9 -54.6,0 -98.9,44.3 -98.9,98.9 0,54.6 44.3,98.9 98.9,98.9 54.7,0 98.9,-44.3 98.9,-98.9"
         style="fill:#bdc3c7;fill-opacity:1;fill-rule:nonzero;stroke:none"
         id="path106" /><path
         d="m 29238.2,16587.6 c 0,-54.6 -44.2,-98.9 -98.9,-98.9 -54.6,0 -98.9,44.3 -98.9,98.9 0,54.6 44.3,98.9 98.9,98.9 54.7,0 98.9,-44.3 98.9,-98.9"
         style="fill:#bdc3c7;fill-opacity:1;fill-rule:nonzero;stroke:none"
         id="path108" /><path
         d="m 29171.6,16856.2 c 0,-54.6 -44.3,-98.9 -98.9,-98.9 -54.6,0 -98.9,44.3 -98.9,98.9 0,54.6 44.3,98.9 98.9,98.9 54.6,0 98.9,-44.3 98.9,-98.9"
         style="fill:#ecf0f1;fill-opacity:1;fill-rule:nonzero;stroke:none"
         id="path110" /><path
         d="m 29171.6,16587.6 c 0,-54.6 -44.3,-98.9 -98.9,-98.9 -54.6,0 -98.9,44.3 -98.9,98.9 0,54.6 44.3,98.9 98.9,98.9 54.6,0 98.9,-44.3 98.9,-98.9"
         style="fill:#ecf0f1;fill-opacity:1;fill-rule:nonzero;stroke:none"
         id="path112" /><path
         d="m 29661.9,16856.2 c 0,-54.6 -44.3,-98.9 -98.9,-98.9 -54.6,0 -98.9,44.3 -98.9,98.9 0,54.6 44.3,98.9 98.9,98.9 54.6,0 98.9,-44.3 98.9,-98.9"
         style="fill:#bdc3c7;fill-opacity:1;fill-rule:nonzero;stroke:none"
         id="path114" /><path
         d="m 29661.9,16587.6 c 0,-54.6 -44.3,-98.9 -98.9,-98.9 -54.6,0 -98.9,44.3 -98.9,98.9 0,54.6 44.3,98.9 98.9,98.9 54.6,0 98.9,-44.3 98.9,-98.9"
         style="fill:#bdc3c7;fill-opacity:1;fill-rule:nonzero;stroke:none"
         id="path116" /><path
         d="m 29595.3,16856.2 c 0,-54.6 -44.3,-98.9 -98.9,-98.9 -54.6,0 -98.9,44.3 -98.9,98.9 0,54.6 44.3,98.9 98.9,98.9 54.6,0 98.9,-44.3 98.9,-98.9"
         style="fill:#ecf0f1;fill-opacity:1;fill-rule:nonzero;stroke:none"
         id="path118" /><path
         d="m 29595.3,16587.6 c 0,-54.6 -44.3,-98.9 -98.9,-98.9 -54.6,0 -98.9,44.3 -98.9,98.9 0,54.6 44.3,98.9 98.9,98.9 54.6,0 98.9,-44.3 98.9,-98.9"
         style="fill:#ecf0f1;fill-opacity:1;fill-rule:nonzero;stroke:none"
         id="path120" /><path
         d="m 30105.4,16856.2 c 0,-54.6 -44.3,-98.9 -98.9,-98.9 -54.6,0 -98.9,44.3 -98.9,98.9 0,54.6 44.3,98.9 98.9,98.9 54.6,0 98.9,-44.3 98.9,-98.9"
         style="fill:#bdc3c7;fill-opacity:1;fill-rule:nonzero;stroke:none"
         id="path122" /><path
         d="m 30105.4,16587.6 c 0,-54.6 -44.3,-98.9 -98.9,-98.9 -54.6,0 -98.9,44.3 -98.9,98.9 0,54.6 44.3,98.9 98.9,98.9 54.6,0 98.9,-44.3 98.9,-98.9"
         style="fill:#bdc3c7;fill-opacity:1;fill-rule:nonzero;stroke:none"
         id="path124" /><path
         d="m 30038.8,16856.2 c 0,-54.6 -44.3,-98.9 -98.9,-98.9 -54.6,0 -98.9,44.3 -98.9,98.9 0,54.6 44.3,98.9 98.9,98.9 54.6,0 98.9,-44.3 98.9,-98.9"
         style="fill:#ecf0f1;fill-opacity:1;fill-rule:nonzero;stroke:none"
         id="path126" /><path
         d="m 30038.8,16587.6 c 0,-54.6 -44.3,-98.9 -98.9,-98.9 -54.6,0 -98.9,44.3 -98.9,98.9 0,54.6 44.3,98.9 98.9,98.9 54.6,0 98.9,-44.3 98.9,-98.9"
         style="fill:#ecf0f1;fill-opacity:1;fill-rule:nonzero;stroke:none"
         id="path128" /><path
         d="m 30548.9,16856.2 c 0,-54.6 -44.3,-98.9 -98.9,-98.9 -54.7,0 -98.9,44.3 -98.9,98.9 0,54.6 44.2,98.9 98.9,98.9 54.6,0 98.9,-44.3 98.9,-98.9"
         style="fill:#bdc3c7;fill-opacity:1;fill-rule:nonzero;stroke:none"
         id="path130" /><path
         d="m 30548.9,16587.6 c 0,-54.6 -44.3,-98.9 -98.9,-98.9 -54.7,0 -98.9,44.3 -98.9,98.9 0,54.6 44.2,98.9 98.9,98.9 54.6,0 98.9,-44.3 98.9,-98.9"
         style="fill:#bdc3c7;fill-opacity:1;fill-rule:nonzero;stroke:none"
         id="path132" /><path
         d="m 30482.2,16856.2 c 0,-54.6 -44.2,-98.9 -98.9,-98.9 -54.6,0 -98.9,44.3 -98.9,98.9 0,54.6 44.3,98.9 98.9,98.9 54.7,0 98.9,-44.3 98.9,-98.9"
         style="fill:#ecf0f1;fill-opacity:1;fill-rule:nonzero;stroke:none"
         id="path134" /><path
         d="m 30482.2,16587.6 c 0,-54.6 -44.2,-98.9 -98.9,-98.9 -54.6,0 -98.9,44.3 -98.9,98.9 0,54.6 44.3,98.9 98.9,98.9 54.7,0 98.9,-44.3 98.9,-98.9"
         style="fill:#ecf0f1;fill-opacity:1;fill-rule:nonzero;stroke:none"
         id="path136" /><path
         d="m 30992.3,16856.2 c 0,-54.6 -44.2,-98.9 -98.9,-98.9 -54.6,0 -98.9,44.3 -98.9,98.9 0,54.6 44.3,98.9 98.9,98.9 54.7,0 98.9,-44.3 98.9,-98.9"
         style="fill:#bdc3c7;fill-opacity:1;fill-rule:nonzero;stroke:none"
         id="path138" /><path
         d="m 30992.3,16587.6 c 0,-54.6 -44.2,-98.9 -98.9,-98.9 -54.6,0 -98.9,44.3 -98.9,98.9 0,54.6 44.3,98.9 98.9,98.9 54.7,0 98.9,-44.3 98.9,-98.9"
         style="fill:#bdc3c7;fill-opacity:1;fill-rule:nonzero;stroke:none"
         id="path140" /><path
         d="m 30925.7,16856.2 c 0,-54.6 -44.3,-98.9 -98.9,-98.9 -54.6,0 -98.9,44.3 -98.9,98.9 0,54.6 44.3,98.9 98.9,98.9 54.6,0 98.9,-44.3 98.9,-98.9"
         style="fill:#ecf0f1;fill-opacity:1;fill-rule:nonzero;stroke:none"
         id="path142" /><path
         d="m 30925.7,16587.6 c 0,-54.6 -44.3,-98.9 -98.9,-98.9 -54.6,0 -98.9,44.3 -98.9,98.9 0,54.6 44.3,98.9 98.9,98.9 54.6,0 98.9,-44.3 98.9,-98.9"
         style="fill:#ecf0f1;fill-opacity:1;fill-rule:nonzero;stroke:none"
         id="path144" /><path
         d="m 27549.4,19500.5 h 4031.1 v 36.102 h -4031.1 z"
         style="fill:#45ff90;fill-opacity:1;fill-rule:nonzero;stroke:none"
         id="path146" /><path
         d="m 30230.1,18688.1 -222.6,1398.2 -388.2,-594.8 h -615 l -16.8,50.3 -72.6,-172.6 -73.5,358.8 -357.6,-973.1 -308.1,1448.8 -366.7,-1002.4 -152.7,381.8 h -106.9 v 54.2 h 143.6 l 113.7,-284.5 382.9,1046.3 308.1,-1449.3 358.6,975.7 76.5,-374.1 60.6,143.9 49.9,-149.6 h 546.7 l 448.8,687.7 193.8,-1216.8 105.8,604.5 48.3,-128.7 153.1,1014.2 69.1,-888.6 133.6,267.1 112,-288 305,881.1 234.8,-904.6 88.5,96.5 123.2,-350.7 -51.1,-18 -93.2,265.5 -94.8,-103.3 -214.8,827.6 -294.7,-851.1 -121.1,311.6 -166.3,-332.5 -47.4,610.4 -113.4,-751.3 -51.7,137.7 -127.4,-727.9"
         style="fill:#ff7676;fill-opacity:1;fill-rule:nonzero;stroke:none"
         id="path148" /><path
         d="m 27549.4,18413.7 h 4031.1 v 36.098 h -4031.1 z"
         style="fill:#45ff90;fill-opacity:1;fill-rule:nonzero;stroke:none"
         id="path150" /><path
         d="m 29571,17721.3 -435.9,1302 -383.3,-679.5 -168.1,269.9 -273.2,-872.8 -357.3,1168.8 -273.1,-509.8 -144.5,170.1 27.5,23.4 110.2,-129.7 289.1,539.5 348.5,-1140.2 261.8,836.6 177.6,-285 393.3,697.2 411.5,-1229.2 98.8,779.3 91.3,-270.4 191,502 445.2,-742 352.6,749.5 188.5,-570.5 65.1,286.9 157,-155.3 275.9,549.7 177.7,-913.9 -35.4,-6.9 -157.5,810 -250.8,-499.5 -146.1,144.5 -79.5,-350.2 -200.8,607.9 -342.8,-728.8 -441.8,736.3 -200.4,-526.5 -73.2,216.8 -98.9,-780.2"
         style="fill:#45ff90;fill-opacity:1;fill-rule:nonzero;stroke:none"
         id="path152" /><path
         d="m 31063.2,18176.9 c -31.2,0 -52.7,93.4 -69.5,236.8 h 148.4 l 6.6,-6.5 c -17.8,-113.5 -40.4,-193.6 -67.9,-221.1 -6.2,-6.2 -12.1,-9.2 -17.6,-9.2 m 42.4,272.9 h -115.9 c -0.4,3.1 -0.7,6.2 -1,9.3 l 19.7,86.9 97.2,-96.2 m 39,12.3 -157,155.3 -9.6,-42.2 c -22.7,277.1 -37.4,645.4 -64.6,925.3 h 278.1 c 11.9,-342.1 1.3,-737.4 -30.9,-1006.5 l -16,-31.9 m 45.5,1074.5 h -280.3 c -1.5,14.2 -3,28.1 -4.5,41.7 l 201.2,581.4 c 44.4,-91.8 72.2,-336 83.6,-623.1 m -300.7,161.4 c -16.3,103.6 -36.5,177.6 -62.6,203.7 -34.2,34.2 -126.5,62 -246.7,86.2 l -24.8,319.6 c 229.1,-18 429.3,-53.1 509.8,-102.1 l -175.7,-507.4 m -364.4,300.5 c -2.3,0.4 -4.7,0.9 -7,1.3 l 4.6,29.8 2.4,-31.1 m -60.3,10.5 c -125,20.9 -266.3,39.6 -399.4,58.4 l -26.5,166 -96.6,-148.1 c -247.5,37.7 -433.4,78.7 -370.6,141.5 65.1,65.1 333.8,94.5 628.3,94.5 102.8,0 208.7,-3.6 310.3,-10.5 l -45.5,-301.8 m -455.5,66.4 c -2.7,0.4 -5.4,0.8 -8.1,1.1 l 6.4,9.8 1.7,-10.9"
         style="fill:#bfcdd7;fill-opacity:1;fill-rule:nonzero;stroke:none"
         id="path154" /><path
         d="m 31191.5,19500.5 h -278.1 c -1.1,12.2 -2.4,24.3 -3.6,36.1 h 280.3 c 0.5,-11.9 1,-24 1.4,-36.1"
         style="fill:#c2fedb;fill-opacity:1;fill-rule:nonzero;stroke:none"
         id="path156" /><path
         d="m 30905.3,19578.3 c -4.9,43 -10.2,83.2 -15.9,119.7 l 175.7,507.4 c 9.1,-5.5 16.7,-11.3 22.6,-17.2 6.6,-6.6 12.9,-16.2 18.8,-28.5 l -201.2,-581.4 m -325.2,409.6 c -17.8,3.6 -36.2,7.2 -55.1,10.6 l -2.4,31.1 -4.6,-29.8 c -17.4,3.1 -35.2,6.2 -53.3,9.2 l 45.5,301.8 c 15.1,-1 30.2,-2.1 45.1,-3.3 l 24.8,-319.6 m -514.8,79.5 c -18.9,2.6 -37.6,5.3 -56.1,8 l -1.7,10.9 -6.4,-9.8 c -19.9,2.9 -39.7,5.9 -58.9,8.8 l 96.6,148.1 26.5,-166"
         style="fill:#fed2d3;fill-opacity:1;fill-rule:nonzero;stroke:none"
         id="path158" /><path
         d="m 31142.1,18413.7 h -148.4 c -1.4,11.8 -2.7,23.8 -4,36.1 h 115.9 l 36.5,-36.1"
         style="fill:#c2fedb;fill-opacity:1;fill-rule:nonzero;stroke:none"
         id="path160" /><path
         d="m 31148.7,18407.2 -6.6,6.5 -36.5,36.1 -97.2,96.2 -19.7,-86.9 c -3.8,36.3 -7.3,75.2 -10.7,116.1 l 9.6,42.2 157,-155.3 16,31.9 c -3.7,-30.7 -7.7,-59.7 -11.9,-86.8"
         style="fill:#c2fedb;fill-opacity:1;fill-rule:nonzero;stroke:none"
         id="path162" /><path
         d="m 33209.4,11442.5 h -909.3 c -66,0 -120,53.9 -120,120 v 2438.3 c 0,66 54,120 120,120 h 909.3 c 66,0 120,-54 120,-120 v -2438.3 c 0,-66.1 -54,-120 -120,-120"
         style="fill:#38587a;fill-opacity:1;fill-rule:nonzero;stroke:none"
         id="path164" /><path
         d="m 33059.5,11442.5 h -759.4 c -66,0 -120,53.9 -120,120 v 2438.3 c 0,66 54,120 120,120 h 759.4 c 66,0 120,-54 120,-120 v -2438.3 c 0,-66.1 -54,-120 -120,-120"
         style="fill:#67809f;fill-opacity:1;fill-rule:nonzero;stroke:none"
         id="path166" /><path
         d="m 33529.3,10923.7 c -523.9,0 -1277.4,0.8 -2075.1,1.7 -1891.5,2.1 -4245.5,4.7 -5232.4,-1.7 l -1.9,288 c 988,6.4 3342.7,3.8 5234.6,1.7 797.6,-0.9 1551,-1.7 2074.8,-1.7 651.1,0 911.9,340.6 1016.1,626.3 167,458.2 18.4,980.2 -153.1,1124.4 -233.8,196.5 -646.1,211.7 -785.3,200.9 l -22.2,287.2 c 25.2,1.9 622,44.1 992.8,-267.6 276.8,-232.7 442.8,-882.7 238.4,-1443.5 -111.1,-304.7 -425.9,-815.7 -1286.7,-815.7"
         style="fill:#3d6584;fill-opacity:1;fill-rule:nonzero;stroke:none"
         id="path168" /><path
         d="m 33577.9,13072.7 h -1177.8 c -66,0 -120,54 -120,120 v 228.4 c 0,66 54,120 120,120 h 1177.8 c 66,0 120,-54 120,-120 v -228.4 c 0,-66 -54,-120 -120,-120"
         style="fill:#2c3e50;fill-opacity:1;fill-rule:nonzero;stroke:none"
         id="path170" /><path
         d="m 33519.9,13185.1 h -949.4 c -97.9,0 -178,80.1 -178,178 0,97.9 80.1,178 178,178 h 949.4 c 97.9,0 178,-80.1 178,-178 0,-97.9 -80.1,-178 -178,-178"
         style="fill:#3d6584;fill-opacity:1;fill-rule:nonzero;stroke:none"
         id="path172" /><path
         d="m 33175.9,10926.4 c -493.2,0 -1187.4,0.3 -1953.8,0.7 -1781.1,1 -3997.7,2.2 -4927.2,-0.7 l -0.9,288 c 930,2.9 3147,1.7 4928.3,0.8 766.3,-0.5 1460.4,-0.8 1953.6,-0.8 697.3,0 982,193.6 1013.8,359.3 19.6,102 -52.3,213.4 -167.3,259.4 -278.4,111 -773.5,94.7 -778.5,94.5 l -10.5,287.8 c 22.7,0.8 560.6,18.9 895.7,-114.8 245,-97.8 389.4,-342.2 343.5,-581.2 -34.3,-178.3 -229.2,-593 -1296.7,-593"
         style="fill:#2c3e50;fill-opacity:1;fill-rule:nonzero;stroke:none"
         id="path174" /><path
         d="M 33558.7,13363.1 H 32717 c -20.5,0 -37.2,16.7 -37.2,37.2 v 59.9 c 0,20.5 16.7,37.2 37.2,37.2 h 841.7 c 20.5,0 37.2,-16.7 37.2,-37.2 v -59.9 c 0,-20.5 -16.7,-37.2 -37.2,-37.2"
         style="fill:#67809f;fill-opacity:1;fill-rule:nonzero;stroke:none"
         id="path176" /><path
         d="m 33290,10927.6 c -501.5,0 -1207.1,0.6 -1986.2,1.2 -1810.6,1.5 -4063.9,3.4 -5008.7,-1.2 l -1.4,288 c 945.6,4.6 3199.4,2.8 5010.3,1.2 779,-0.6 1484.6,-1.2 1986,-1.2 551.9,0 910.8,190.2 1010.6,535.7 76.1,263.6 -29.9,547.5 -172.7,637.5 -227.1,143.1 -629.9,154.1 -765.9,146.2 l -16.6,287.5 c 23.7,1.4 585.2,31.1 936.1,-190 272,-171.5 402,-593.7 295.8,-961.1 -62.7,-217 -201.3,-399.2 -400.9,-526.6 -225.7,-144.1 -523.9,-217.2 -886.4,-217.2"
         style="fill:#3d6584;fill-opacity:1;fill-rule:nonzero;stroke:none"
         id="path178" /><path
         d="m 33651.4,12443.8 h -1177.8 c -66,0 -120,54 -120,120 v 228.5 c 0,66 54,120 120,120 h 1177.8 c 66,0 120,-54 120,-120 v -228.5 c 0,-66 -54,-120 -120,-120"
         style="fill:#2c3e50;fill-opacity:1;fill-rule:nonzero;stroke:none"
         id="path180" /><path
         d="M 33593.4,12556.3 H 32644 c -97.9,0 -178,80.1 -178,178 0,97.9 80.1,178 178,178 h 949.4 c 97.9,0 178,-80.1 178,-178 0,-97.9 -80.1,-178 -178,-178"
         style="fill:#3d6584;fill-opacity:1;fill-rule:nonzero;stroke:none"
         id="path182" /><path
         d="m 33632.2,12734.3 h -841.7 c -20.4,0 -37.2,16.7 -37.2,37.2 v 59.9 c 0,20.4 16.8,37.2 37.2,37.2 h 841.7 c 20.5,0 37.2,-16.8 37.2,-37.2 v -59.9 c 0,-20.5 -16.7,-37.2 -37.2,-37.2"
         style="fill:#67809f;fill-opacity:1;fill-rule:nonzero;stroke:none"
         id="path184" /><path
         d="m 33651.4,11835.9 h -1177.8 c -66,0 -120,54.1 -120,120 v 228.5 c 0,66 54,120 120,120 h 1177.8 c 66,0 120,-54 120,-120 v -228.5 c 0,-65.9 -54,-120 -120,-120"
         style="fill:#2c3e50;fill-opacity:1;fill-rule:nonzero;stroke:none"
         id="path186" /><path
         d="M 33593.4,11948.4 H 32644 c -97.9,0 -178,80.1 -178,178 0,97.9 80.1,178 178,178 h 949.4 c 97.9,0 178,-80.1 178,-178 0,-97.9 -80.1,-178 -178,-178"
         style="fill:#3d6584;fill-opacity:1;fill-rule:nonzero;stroke:none"
         id="path188" /><path
         d="m 33632.2,12126.4 h -841.7 c -20.4,0 -37.2,16.7 -37.2,37.2 v 59.9 c 0,20.4 16.8,37.2 37.2,37.2 h 841.7 c 20.5,0 37.2,-16.8 37.2,-37.2 v -59.9 c 0,-20.5 -16.7,-37.2 -37.2,-37.2"
         style="fill:#67809f;fill-opacity:1;fill-rule:nonzero;stroke:none"
         id="path190" /><path
         d="m 26104.8,10922.9 c -633.1,0 -2192.5,68.7 -2835.3,715.8 -205.6,207.1 -304,455.2 -292.6,737.7 -28.4,248.8 -500.9,4376.4 -583.7,4821.7 -14.5,78.2 37.1,153.4 115.2,167.9 78.3,14.6 153.4,-37 167.9,-115.2 86.8,-466.8 567.6,-4674.2 588.1,-4853.1 l 1.3,-11.9 -0.6,-11.9 c -10.6,-205.9 57.7,-380 208.7,-532.1 708.9,-714 2867.3,-627.3 2889.1,-626.4 79.8,3.9 146.7,-58 150.2,-137.5 3.5,-79.4 -58,-146.7 -137.5,-150.2 -18.3,-0.8 -117.3,-4.8 -270.8,-4.8"
         style="fill:#3d6584;fill-opacity:1;fill-rule:nonzero;stroke:none"
         id="path192" /><path
         d="m 25963.5,10916.8 c -4,0 -8,0.2 -12,0.5 -11.2,1 -1134,91.6 -2589.7,40.1 -437.4,-15.1 -854.9,168.9 -1175.9,519.2 -293.6,320.5 -485.8,749.3 -541.3,1207.6 -91.2,752.1 -335.5,1811 -982,2585 -50.9,61.1 -42.8,151.9 18.3,202.9 61,51 151.8,42.8 202.8,-18.2 691.6,-828.1 951,-1944.4 1046.8,-2735 87.5,-722.4 598.5,-1474.5 1377.8,-1474.5 14.4,0 28.8,0.3 43.3,0.8 1473.7,52.2 2612.2,-39.9 2623.6,-40.8 79.2,-6.6 138.2,-76.1 131.6,-155.4 -6.2,-75.2 -69.2,-132.2 -143.3,-132.2"
         style="fill:#3d6584;fill-opacity:1;fill-rule:nonzero;stroke:none"
         id="path194" /><path
         d="m 8512.32,13016.7 c 0,-1343.9 -1089.45,-2433.4 -2433.3,-2433.4 -1343.92,0 -2433.37,1089.5 -2433.37,2433.4 0,99.2 5.95,197 17.52,293.1 117.98,983.2 822.31,1786.1 1753.26,2048.9 V 19222 h -220.99 v 522.1 H 6962.53 V 19222 h -220.99 v -3863.3 c 847.23,-239.2 1506.73,-925.6 1707.43,-1788.3 41.44,-177.8 63.35,-363.2 63.35,-553.7"
         style="fill:#86d8fe;fill-opacity:1;fill-rule:nonzero;stroke:none"
         id="path196" /><path
         d="m 5202.77,19229.4 h 221 v -3876.2 l -5.34,-1.5 c -944.97,-266.8 -1631.08,-1068.6 -1747.98,-2042.8 -11.58,-96.2 -17.46,-194.5 -17.46,-292.2 0,-1337.7 1088.31,-2426 2426.03,-2426 1337.68,0 2425.97,1088.3 2425.97,2426 0,186.4 -21.25,372.2 -63.16,552.1 -200.03,859.7 -852.3,1542.9 -1702.29,1782.9 l -5.34,1.5 v 3876.2 h 221 v 507.4 H 5202.77 v -507.4 M 6079.02,10576 c -1345.8,0 -2440.7,1094.9 -2440.7,2440.7 0,98.3 5.91,197.2 17.56,293.9 57.74,481.2 256.06,930.2 573.51,1298.6 313.22,363.5 721.03,624.5 1179.72,755.1 v 3850.4 h -221 v 536.8 h 1781.75 v -536.8 h -221 v -3850.4 c 852.52,-242.8 1506.43,-929 1707.24,-1792.2 42.17,-181 63.56,-367.8 63.56,-555.4 0,-1345.8 -1094.87,-2440.7 -2440.64,-2440.7"
         style="fill:#283542;fill-opacity:1;fill-rule:nonzero;stroke:none"
         id="path198" /><path
         d="m 8512.32,13016.7 c 0,-1343.9 -1089.45,-2433.4 -2433.3,-2433.4 -1343.92,0 -2433.37,1089.5 -2433.37,2433.4 0,99.2 5.95,197 17.52,293.1 537.58,67.2 1558.82,126.1 2415.85,-224.7 796.77,-326 1779.28,127.4 2369.95,485.3 41.44,-177.8 63.35,-363.2 63.35,-553.7"
         style="fill:#0069a3;fill-opacity:1;fill-rule:nonzero;stroke:none"
         id="path200" /><g
         id="g202"><g
           id="g204"
           clip-path="url(#clipPath208)"><path
             d="m 3918.18,12973 h 4317.05 v 6763.8 H 3918.18 Z"
             style="fill:#a1defe;fill-opacity:1;fill-rule:nonzero;stroke:none"
             id="path210" /></g></g><path
         d="m 5294.22,19736.8 h 1569.53 v 7.301 H 5294.22 Z"
         style="fill:#606e7d;fill-opacity:1;fill-rule:nonzero;stroke:none"
         id="path212" /><path
         d="m 6079.02,10950.1 c -1193.69,0 -2161.34,1045.8 -2161.34,2336 0,16.9 0.17,33.7 0.5,50.5 163.84,14.1 351.84,24.2 553.96,24.2 498.45,0 1083.27,-61.3 1606.88,-275.7 192.82,-78.9 396.57,-112.1 602.96,-112.1 550.36,0 1119.83,236.4 1553.25,474.1 3.36,-53.2 5.06,-106.9 5.06,-161 0,-1290.2 -967.65,-2336 -2161.27,-2336"
         style="fill:#4492c0;fill-opacity:1;fill-rule:nonzero;stroke:none"
         id="path214" /><path
         d="m 6429.45,15395.3 h -95.12 c -46.01,0 -83.66,37.6 -83.66,83.7 v 3586.9 c 0,46 37.65,83.6 83.66,83.6 h 95.12 c 46.01,0 83.66,-37.6 83.66,-83.6 V 15479 c 0,-46.1 -37.65,-83.7 -83.66,-83.7"
         style="fill:#fdfeff;fill-opacity:1;fill-rule:nonzero;stroke:none"
         id="path216" /><path
         d="m 7510.8,14216 c -59.35,-102.8 -309.9,-69.2 -559.61,74.9 -249.72,144.2 -404.04,344.4 -344.69,447.2 59.35,102.8 309.91,69.3 559.62,-74.9 249.71,-144.2 404.03,-344.4 344.68,-447.2"
         style="fill:#fdfeff;fill-opacity:1;fill-rule:nonzero;stroke:none"
         id="path218" /><path
         d="m 10152.5,10504.3 h -146.2 c -578.84,0 -1048.06,469.2 -1048.06,1048 v 8171.8 h 2242.26 v -8171.8 c 0,-578.8 -469.2,-1048 -1048,-1048"
         style="fill:#86d8fe;fill-opacity:1;fill-rule:nonzero;stroke:none"
         id="path220" /><path
         d="m 8965.58,19716.7 v -8164.4 c 0,-573.8 466.85,-1040.7 1040.72,-1040.7 h 146.2 c 573.8,0 1040.7,466.9 1040.7,1040.7 v 8164.4 H 8965.58 M 10152.5,10497 h -146.2 c -581.96,0 -1055.39,473.4 -1055.39,1055.3 v 8179.1 h 2256.89 v -8179.1 c 0,-581.9 -473.4,-1055.3 -1055.3,-1055.3"
         style="fill:#283542;fill-opacity:1;fill-rule:nonzero;stroke:none"
         id="path222" /><path
         d="m 10133.5,10637.8 h -134.22 c -531.64,0 -962.62,431 -962.62,962.6 v 3656.5 h 2059.54 v -3656.5 c 0,-531.6 -431,-962.6 -962.7,-962.6"
         style="fill:#c0392b;fill-opacity:1;fill-rule:nonzero;stroke:none"
         id="path224" /><path
         d="M 11100.1,19112.5 H 8934.94 c -178.9,0 -323.94,145 -323.94,324 v 45.1 c 0,179 145.04,324 323.94,324 h 2165.16 c 178.9,0 323.9,-145 323.9,-324 v -45.1 c 0,-179 -145,-324 -323.9,-324"
         style="fill:#86d8fe;fill-opacity:1;fill-rule:nonzero;stroke:none"
         id="path226" /><path
         d="m 8934.93,19798.3 c -174.57,0 -316.59,-142.1 -316.59,-316.7 v -45.1 c 0,-174.6 142.02,-316.7 316.59,-316.7 h 2165.17 c 174.5,0 316.6,142.1 316.6,316.7 v 45.1 c 0,174.6 -142.1,316.7 -316.6,316.7 H 8934.93 m 2165.17,-693.1 H 8934.93 c -182.65,0 -331.26,148.6 -331.26,331.3 v 45.1 c 0,182.7 148.61,331.3 331.26,331.3 h 2165.17 c 182.6,0 331.2,-148.6 331.2,-331.3 v -45.1 c 0,-182.7 -148.6,-331.3 -331.2,-331.3"
         style="fill:#283542;fill-opacity:1;fill-rule:nonzero;stroke:none"
         id="path228" /><path
         d="m 9238.5,15256.9 h 1809.7 v 3848.3 H 9238.5 Z"
         style="fill:#a4dffe;fill-opacity:1;fill-rule:nonzero;stroke:none"
         id="path230" /><path
         d="m 10143.3,11077.8 c -499.69,0 -904.8,471 -904.8,1052 v 3127.1 h 1809.7 v -3127.1 c 0,-581 -405.1,-1052 -904.9,-1052"
         style="fill:#ca7775;fill-opacity:1;fill-rule:nonzero;stroke:none"
         id="path232" /><path
         d="M 11048.2,19119.8 H 9238.5 v 35.5 h -0.58 c -154.46,0 -279.68,145.5 -279.68,325.1 0,155.9 94.41,286.2 220.38,317.9 h 1829.58 c 126,-31.7 220.4,-162 220.4,-317.9 0,-138.9 -75,-257.4 -180.4,-304 v -56.6"
         style="fill:#a4dffe;fill-opacity:1;fill-rule:nonzero;stroke:none"
         id="path234" /><path
         d="M 11048.2,19105.2 H 9238.5 v 14.6 h 1809.7 v -14.6 m -40,693.1 H 9178.62 c 19.11,4.8 38.95,7.3 59.3,7.3 h 1710.98 c 20.4,0 40.2,-2.5 59.3,-7.3"
         style="fill:#677584;fill-opacity:1;fill-rule:nonzero;stroke:none"
         id="path236" /><path
         d="m 11116.7,19337.2 h -607 c -46.1,0 -83.8,37.7 -83.8,83.8 v 95.2 c 0,46.1 37.7,83.8 83.8,83.8 h 607 c 46.1,0 83.8,-37.7 83.8,-83.8 v -95.2 c 0,-46.1 -37.7,-83.8 -83.8,-83.8"
         style="fill:#fdfeff;fill-opacity:1;fill-rule:nonzero;stroke:none"
         id="path238" /><path
         d="M 10769.2,11963.7 H 10667 c -49.5,0 -89.9,40.4 -89.9,89.8 v 6776.3 c 0,49.5 40.4,89.9 89.9,89.9 h 102.2 c 49.4,0 89.9,-40.4 89.9,-89.9 v -6776.3 c 0,-49.4 -40.5,-89.8 -89.9,-89.8"
         style="fill:#fdfeff;fill-opacity:1;fill-rule:nonzero;stroke:none"
         id="path240" /><path
         d="m 17171.3,16789.7 462.5,1600.3 H 18984 l -537.5,-1700.3 -1275.2,100"
         style="fill:#86d8fe;fill-opacity:1;fill-rule:nonzero;stroke:none"
         id="path242" /><path
         d="m 17180.8,16796.4 1260.4,-98.9 532.8,1685.2 h -1334.7 z m 1270.9,-114.4 -5.8,0.4 -1284.2,100.7 466.6,1614.2 H 18994 L 18451.7,16682"
         style="fill:#8c1610;fill-opacity:1;fill-rule:nonzero;stroke:none"
         id="path244" /><path
         d="m 17121.2,17589.9 c 0,0 137.6,175 275.1,175 137.5,0 450.1,-37.5 412.5,-87.5 -37.5,-50 -100,-62.5 -262.5,-50 -162.5,12.5 -225,-425.1 -225,-425.1 h -437.6 v 375.1 l 237.5,12.5"
         style="fill:#fdfeff;fill-opacity:1;fill-rule:nonzero;stroke:none"
         id="path246" /><path
         d="m 17121.2,17589.9 56.5,-387.6 h -294 v 387.6 h 237.5"
         style="fill:#bdc3c7;fill-opacity:1;fill-rule:nonzero;stroke:none"
         id="path248" /><path
         d="m 13933.3,11238.9 -100.1,-675.1 h 1287.7 c 0,0 -37.5,287.5 -287.5,337.5 -250.1,50 -462.6,87.5 -462.6,337.6 h -437.5"
         style="fill:#c0392b;fill-opacity:1;fill-rule:nonzero;stroke:none"
         id="path250" /><path
         d="m 13868.3,10800.2 651.9,188.6 -149.4,250.1 h -437.5 l -65,-438.7"
         style="fill:#8c1610;fill-opacity:1;fill-rule:nonzero;stroke:none"
         id="path252" /><path
         d="m 15546,11413.9 -100,-675.1 h 1287.7 c 0,0 -37.5,287.6 -287.6,337.6 -250,50 -462.5,87.5 -462.5,337.5 H 15546"
         style="fill:#c0392b;fill-opacity:1;fill-rule:nonzero;stroke:none"
         id="path254" /><path
         d="m 15481,10975.3 652,188.6 -149.4,250 H 15546 l -65,-438.6"
         style="fill:#8c1610;fill-opacity:1;fill-rule:nonzero;stroke:none"
         id="path256" /><path
         d="m 12683.1,12901.6 800.1,-500 3038,737.6 -1412.8,4863.2 -1087.6,-1950.3 -1337.7,-3150.5"
         style="fill:#0069a3;fill-opacity:1;fill-rule:nonzero;stroke:none"
         id="path258" /><path
         d="m 13833.2,10988.8 -250,4763.3 125,1012.6 h 1884.1 l 516.3,-5563.3 -662.6,-37.5 -700.1,4038.1 -287.6,-4113.1 -625.1,-100.1"
         style="fill:#34495e;fill-opacity:1;fill-rule:nonzero;stroke:none"
         id="path260" /><path
         d="m 13724.8,13054.4 940.3,992.3 80.8,1155.3 215.3,-1241.8 958.2,-720.7 -327.1,3525.2 h -1884.1 l -87.6,-2114.7 104.2,-1595.6"
         style="fill:#2c3e50;fill-opacity:1;fill-rule:nonzero;stroke:none"
         id="path262" /><path
         d="m 12683.1,12901.6 c 0,0 775.1,2925.5 775.1,3613.1 -537.6,462.6 -287.6,2412.9 -287.6,2412.9 l 962.7,450.1 H 15346 c 0,0 437.5,-1500.3 762.6,-1587.8 325,-87.5 887.6,-137.5 887.6,-137.5 v -525.1 c 0,0 -1175.2,-150 -1500.2,262.5 86.7,-462.2 415.4,-1809.1 677.5,-2864.1 23.9,-96.1 450.1,-208.5 472.7,-298.8 31,-124.6 -342.4,-224.1 -314.9,-333.7 112.6,-449.3 189.9,-754 189.9,-754 l -675.2,112.5 -1012.6,2775.4 h -237.6 l -1912.7,-3125.5"
         style="fill:#19b5fe;fill-opacity:1;fill-rule:nonzero;stroke:none"
         id="path264" /><path
         d="m 13177.4,18922.7 c -12.2,-99.5 -231.3,-1957.7 285.6,-2402.4 l 2.5,-2.2 v -3.4 c 0,-632.2 -662.1,-3182.8 -762.7,-3566.7 l 1888.9,3086.5 h 246.8 l 1013,-2776.3 659.8,-109.9 c -14.8,58.3 -87.5,345.7 -187.1,743.1 -14.6,58.2 67.2,109.6 153.8,164.1 86.4,54.3 175.8,110.5 161.1,169.6 -10.3,41 -120.3,91.3 -226.6,140 -119.9,54.8 -233.1,106.6 -246.1,158.8 -261.2,1051.3 -590.8,2401.7 -677.6,2864.6 l -5.5,29.3 18.4,-23.4 c 306.5,-389 1393.3,-271.6 1487.2,-260.6 v 511.9 c -64.6,6 -579.3,55.6 -882.2,137.1 -318.8,85.9 -733,1474.5 -766.2,1587.5 h -1205.6 z m -514.3,-6067.7 12.9,48.5 c 7.7,29.2 772.3,2922.9 774.8,3607.9 -222.9,194.6 -339.1,659.9 -345.3,1383.1 -4.7,539.7 57.2,1029.1 57.9,1034 l 0.5,4 3.6,1.7 964.2,450.8 h 1219.8 l 1.5,-5.3 c 4.4,-15 440.1,-1497.3 757.5,-1582.7 320.7,-86.4 880.8,-136.8 886.4,-137.3 l 6.7,-0.6 v -538.3 l -6.4,-0.8 c -47.3,-6 -1142.7,-140.8 -1488.8,243.7 94.1,-486.6 416,-1805.2 672.2,-2836.3 11.3,-45.3 131.7,-100.4 238,-149 114.5,-52.4 222.7,-101.9 234.7,-149.8 17.3,-69.4 -76.6,-128.4 -167.5,-185.5 -78.3,-49.3 -159.4,-100.2 -147.4,-148.2 111.3,-444.1 189.1,-750.9 189.9,-753.9 l 2.7,-10.9 -690.4,115.1 -1.4,4 -1010.9,2770.6 H 14600 L 12663.1,12855"
         style="fill:#3c769e;fill-opacity:1;fill-rule:nonzero;stroke:none"
         id="path266" /><path
         d="m 15195.9,16764.7 c 0,0 -1037.6,175.1 -1262.6,487.6 -225.1,312.6 -50.1,1275.2 -225.1,1475.2 0,0 325.1,-137.5 275.1,-862.6 -50,-725.1 1212.6,-1100.2 1212.6,-1100.2"
         style="fill:#0069a3;fill-opacity:1;fill-rule:nonzero;stroke:none"
         id="path268" /><path
         d="m 15496,17389.8 -125,1800.3 c 0,0 349.6,-1195.3 274.8,-1935.4 l -149.8,135.1"
         style="fill:#0069a3;fill-opacity:1;fill-rule:nonzero;stroke:none"
         id="path270" /><path
         d="m 14133.3,19277.6 c 0,0 125,600.1 100,900.2 -25,300 -325.3,707.2 212.5,725.1 375.1,12.5 562.6,-12.5 575.1,-137.5 12.5,-125.1 150,-1087.7 -75,-1137.7 -225,-50 -225,-50 -225,-50 v -450.1 c 0,0 -437.6,-162.5 -587.6,150"
         style="fill:#f27935;fill-opacity:1;fill-rule:nonzero;stroke:none"
         id="path272" /><path
         d="m 14226.3,19882.3 c 0,0 -293,558 -293,808.1 0,250 75,412.5 312.5,437.5 237.5,25 675.1,150 800.1,50 125,-100 75,-425 -125,-475 -200,-50.1 -300,-375.1 -300,-375.1 l -137.6,-50 c 0,0 0,250 -175,250 -175,0 -25,-337.5 -25,-337.5 0,0 61.1,-190.9 -57,-308"
         style="fill:#22313f;fill-opacity:1;fill-rule:nonzero;stroke:none"
         id="path274" /><path
         d="m 15733.5,16302.2 c 0,0 -1525.2,-237.6 -2275.3,212.5 l -58.1,-510.3 c 0,0 1670.8,60.2 2408.4,-2.3 l -75,300.1"
         style="fill:#0069a3;fill-opacity:1;fill-rule:nonzero;stroke:none"
         id="path276" /><path
         d="m 15658.5,16670.8 53,-295.7 c 0,0 250.8,11.4 407.6,148.6 156.9,137.3 254.9,98.1 254.9,235.3 0,137.2 -333.3,205.8 -333.3,205.8 l -382.2,-294"
         style="fill:#fdfeff;fill-opacity:1;fill-rule:nonzero;stroke:none"
         id="path278" /><path
         d="m 16358.6,13960.2 c 0,0 -325,-120.9 -512.6,-708.5 l 512.6,447 v 261.5"
         style="fill:#24d3d3;fill-opacity:1;fill-rule:nonzero;stroke:none"
         id="path280" /><path
         d="m 16167.6,14520.5 c -545.7,297.6 -1320.4,1701.4 -1328.1,1715.5 l 12.8,7.1 c 7.8,-14.1 780.4,-1414.2 1322.3,-1709.8 l -7,-12.8"
         style="fill:#3c769e;fill-opacity:1;fill-rule:nonzero;stroke:none"
         id="path282" /><path
         d="m 14125.4,19337.9 0.1,-0.1 -7.1,2 z m 16.6,-1112.1 540.4,-1218 c 4.6,99.6 9.7,445.2 -93.8,993.3 -48.6,257.6 -145.7,453.7 -239.7,643.3 -42.3,85.4 -82.2,165.9 -116.1,249.1 -65,159.4 -97.2,357.9 -108.4,440.3 l -176.5,-647 384.2,-270.8 z m 550.7,-1277.3 -568.2,1280.6 185,184.9 -378.4,266.8 180.2,660.9 c 1.8,6.4 7.6,10.6 14.3,10.2 6.6,-0.5 11.8,-5.3 12.7,-11.9 10.7,-79.1 42.5,-280.3 108,-440.9 33.8,-82.7 73.6,-163.1 115.7,-248.1 94.5,-190.6 192.1,-387.6 241.1,-647.2 123.7,-656 92.5,-1023.6 92.2,-1027.2 l -2.6,-28.1"
         style="fill:#3c769e;fill-opacity:1;fill-rule:nonzero;stroke:none"
         id="path284" /><path
         d="m 14727.3,19363.3 -100.4,-1494.5 c 3.3,-24.2 74,-555.7 74.3,-810.8 l 292.8,1335.3 -166.1,127.7 241.2,203.1 c -9.6,45.4 -100.3,444.2 -341.8,639.2 z m -30.5,-2393.8 -14.5,2.5 c 24.6,184.4 -69.1,889.3 -70,896.4 l 102.2,1523.4 10.8,-8.3 c 267.9,-205.6 358.2,-656.3 359.1,-660.8 l 0.8,-4.2 -233.9,-197 159,-122.3 -313.5,-1429.7"
         style="fill:#3c769e;fill-opacity:1;fill-rule:nonzero;stroke:none"
         id="path286" /><path
         d="m 14848.4,19606 c 0,0 -265.1,59.2 -327.6,221.7 0,0 0,-275 200.1,-362.5 l -25,112.5 152.5,28.3"
         style="fill:#e74c3c;fill-opacity:1;fill-rule:nonzero;stroke:none"
         id="path288" /><path
         d="m 15658.5,16664.7 50,-287.5 150.9,21.5 -158.9,304.3 -42,-38.3"
         style="fill:#bdc3c7;fill-opacity:1;fill-rule:nonzero;stroke:none"
         id="path290" /><path
         d="m 14474.3,20324.3 -17.8,91.7 c 82.9,-63.5 280,-383.3 612.6,-276 0,0 67.4,-504.7 -160.9,-536.6 -432.4,-60.4 -629.6,543.8 -629.6,543.8 l 4.7,43.1 c 0,0 102,-184.9 154.3,-256.2 52.4,-71.2 152.9,-161.8 152.9,-161.8 l 99.4,317.3 -215.6,234.7"
         style="fill:#ecf0f1;fill-opacity:1;fill-rule:nonzero;stroke:none"
         id="path292" /></g></g></svg>
