<svg height="480pt" viewBox="0 0 480 480" width="480pt" xmlns="http://www.w3.org/2000/svg"><path d="m472 144h-80c-4.417969 0-8 3.582031-8 8v56h-8c-4.417969 0-8 3.582031-8 8v32c0 4.417969 3.582031 8 8 8h8v80h-8c-4.417969 0-8 3.582031-8 8v32c0 4.417969 3.582031 8 8 8h8v48h-16v-24c0-4.417969-3.582031-8-8-8h-8v-56c0-4.417969-3.582031-8-8-8h-8v-16h8c4.417969 0 8-3.582031 8-8v-32c0-4.417969-3.582031-8-8-8h-8v-24c0-4.417969-3.582031-8-8-8h-80c-4.417969 0-8 3.582031-8 8v32c0 4.417969 3.582031 8 8 8h8v16h-8c-4.417969 0-8 3.582031-8 8v32c0 4.417969 3.582031 8 8 8h8v56c0 4.417969 3.582031 8 8 8h8v16h-48v-16h8c4.417969 0 8-3.582031 8-8v-32c0-4.417969-3.582031-8-8-8h-8v-56c0-4.417969-3.582031-8-8-8h-8v-24c0-4.417969-3.582031-8-8-8h-80c-4.417969 0-8 3.582031-8 8v32c0 4.417969 3.582031 8 8 8h8v56c0 4.417969 3.582031 8 8 8h8v16h-8c-4.417969 0-8 3.582031-8 8v24h-16v-24c0-4.417969-3.582031-8-8-8h-8v-16h8c4.417969 0 8-3.582031 8-8v-32c0-4.417969-3.582031-8-8-8h-80c-4.417969 0-8 3.582031-8 8v24h-8c-4.417969 0-8 3.582031-8 8v32c0 4.417969 3.582031 8 8 8h8v16h-8c-4.417969 0-8 3.582031-8 8v32c0 4.417969 3.582031 8 8 8h464c4.417969 0 8-3.582031 8-8v-96c0-4.417969-3.582031-8-8-8h-8v-16h8c4.417969 0 8-3.582031 8-8v-96c0-4.417969-3.582031-8-8-8h-8v-16h8c4.417969 0 8-3.582031 8-8v-64c0-4.417969-3.582031-8-8-8zm-72 16h64v16h-64zm64 96v16h-64v-16zm-64 32h64v16h-64zm64 96v16h-64v-16zm-64 32h64v16h-64zm-128-16v-16h64v16zm-16-144h64v16h-64zm16 32h64v16h-64zm-16 32h64v16h-64zm72 32h8v16h-64v-16zm-40 64h64v16h-64zm-144-48v-16h64v16zm-16-80h64v16h-64zm72 32h8v16h-64v-16zm-40 64h64v16h-64zm-16 32h64v16h-64zm-112-64h64v16h-64zm-16 32h64v16h-64zm16 32h64v16h-64zm432 48h-448v-16h448zm-16-96h-64v-16h64zm16-32h-64v-16h64zm-16-96h-64v-16h64zm16-32h-64v-16h64zm0 0"/><path d="m476.488281 1.375c-2.199219-1.488281-4.996093-1.789062-7.464843-.800781l-40 16 5.953124 14.863281 17.527344-7.015625-45.359375 73.714844-24.898437-31.128907c-1.542969-2.023437-3.992188-3.148437-6.535156-3.007812-2.53125.089844-4.867188 1.375-6.304688 3.464844l-82.957031 120.671875-49.242188-42.210938c-1.632812-1.402343-3.765625-2.085937-5.910156-1.894531-2.148437.191406-4.125 1.238281-5.488281 2.902344l-65.953125 80.601562-41.785157-48.734375c-1.691406-1.976562-4.238281-3.003906-6.824218-2.757812-2.589844.242187-4.898438 1.730469-6.191406 3.988281l-64 112 13.890624 7.9375 58.398438-102.136719 40.617188 47.367188c1.566406 1.757812 3.804687 2.777343 6.160156 2.800781 2.367187-.027344 4.601562-1.101562 6.101562-2.9375l66.816406-81.664062 49.785157 42.671874c1.722656 1.476563 3.992187 2.152344 6.242187 1.859376 2.253906-.292969 4.273438-1.53125 5.558594-3.402344l81.863281-119.113282 25.265625 31.585938c1.644532 2.007812 4.148438 3.117188 6.742188 2.984375 2.597656-.160156 4.957031-1.574219 6.320312-3.792969l49.183594-79.929687v19.738281h16v-48c0-2.65625-1.316406-5.136719-3.511719-6.625zm0 0"/></svg>