<svg id="Capa_1" enable-background="new 0 0 512 512" height="512" viewBox="0 0 512 512" width="512" xmlns="http://www.w3.org/2000/svg"><g><g><path clip-rule="evenodd" d="m92.456 206.297 28.441-23.202c-10.066-7.744-20.161-15.487-30.256-23.202h-15.284c-5.643 0-10.265 4.595-10.265 10.24v10.155c0 12.961 14.547 26.179 27.364 26.009z" fill="#ffbc85" fill-rule="evenodd"/></g><g><path clip-rule="evenodd" d="m372.302 471.054c3.771-.255 5.898-1.645 5.898-8.283v-77.039c0-45.752-47.241-79.904-88.528-88.215l-.425.312-94.936-3.574-98.225 3.319-.057-.057c-41.286 8.311-88.528 42.462-88.528 88.215v77.039c0 6.637 2.127 8.027 5.898 8.283z" fill="#f9f7f7" fill-rule="evenodd"/></g><g><path clip-rule="evenodd" d="m165.983 319.019 26.882-24.706c-.284 0-.567 0-.851 0-13.441-19.373-35.842-31.627-59.037-25.273-13.384 10.155-32.099 24.933-36.948 28.478l.057.057 45.341 33.697c9.613 6.013 2.921 6.836 17.694-5.928z" fill="#cecece" fill-rule="evenodd"/></g><g><path clip-rule="evenodd" d="m244.274 331.273 44.973-33.442.425-.312c-4.962-3.602-24.415-19.004-37.827-29.159-28.186-2.212-48.546 12.651-58.981 25.954l25.52 23.458 8.195 7.573c14.803 12.763 8.082 11.941 17.695 5.928z" fill="#cecece" fill-rule="evenodd"/></g><g><path clip-rule="evenodd" d="m210.502 348.717 7.883-30.946-25.521-23.458-26.881 24.706 7.571 29.698h18.46z" fill="#3987d0" fill-rule="evenodd"/></g><g><path clip-rule="evenodd" d="m235.852 433.216-25.35-84.499h-18.488-18.46l-25.379 84.499c-.198.737-.397.794-.057 1.447l19.225 36.392h24.67 24.67l19.225-36.392c.341-.653.171-.71-.056-1.447z" fill="#7bacdf" fill-rule="evenodd"/></g><g><path clip-rule="evenodd" d="m210.502 348.717 7.883-30.946-25.521-23.458-9.244 8.481 16.277 14.977-7.883 30.946z" fill="#0067b4" fill-rule="evenodd"/></g><g><path clip-rule="evenodd" d="m235.852 433.216-25.35-84.499h-18.488l25.35 84.499c.227.737.425.794.057 1.447l-19.197 36.392h18.46l19.225-36.392c.34-.653.17-.71-.057-1.447z" fill="#3987d0" fill-rule="evenodd"/></g><g><path clip-rule="evenodd" d="m167.542 317.572 16.078-14.778 9.244-8.481c-.284 0-.567 0-.851 0-8.081 0-16.163-1.702-25.379-5.162-12.08-4.482-23.507-11.516-33.659-20.111-4.906 3.716-10.52 8.056-15.908 12.254 13.299 15.714 30.596 28.875 49.425 35.91.342.113.71.255 1.05.368z" fill="#b5adb6" fill-rule="evenodd"/></g><g><path clip-rule="evenodd" d="m217.591 317.062c19.084-7.176 36.523-20.678 49.85-36.704-5.331-4.141-10.86-8.396-15.596-11.998-10.35 8.907-22.061 16.168-34.453 20.791-8.904 3.319-16.73 5.049-24.528 5.162z" fill="#b5adb6" fill-rule="evenodd"/></g><g><path clip-rule="evenodd" d="m366.63 471.054h.17c-.056 0-.113 0-.17 0zm-97.743-158.077c38.848 11.119 79.482 43.568 79.482 86.002v72.075h18.261.17 5.501c3.771-.255 5.898-1.645 5.898-8.283v-77.039c0-45.752-47.241-79.904-88.528-88.215l-.425.312z" fill="#e2e2e2" fill-rule="evenodd"/></g><g><path clip-rule="evenodd" d="m251.845 268.359c19.878-17.104 34.765-40.221 39.727-62.062 1.191-5.191 1.815-10.296 1.815-15.232v-49.355-7.432h-18.63c-39.5 0-47.723-48.617-95.957-48.617h-32.042c-36.948 0-8.819 56.049-51.324 56.049h-4.792v49.355c0 4.935.624 10.041 1.815 15.232 5.047 22.125 20.246 45.554 40.521 62.743 10.151 8.595 21.579 15.629 33.659 20.111 9.216 3.461 17.297 5.162 25.379 5.162h.851c7.798-.113 15.624-1.844 24.528-5.162 12.389-4.624 24.1-11.885 34.45-20.792z" fill="#ffe5c1" fill-rule="evenodd"/></g><g><path clip-rule="evenodd" d="m161.418 232.96c0 36.364 61.221 36.364 61.221 0 0-3.404-2.779-6.155-6.153-6.155h-48.943c-3.375 0-6.125 2.751-6.125 6.155z" fill="#fbf8f8" fill-rule="evenodd"/></g><g><path clip-rule="evenodd" d="m291.572 206.297c12.845.17 27.364-13.048 27.364-26.011v-10.155c0-5.645-4.622-10.24-10.237-10.24h-15.312l-12.25 18.919z" fill="#ffbc85" fill-rule="evenodd"/></g><g><path clip-rule="evenodd" d="m95.433 159.892c42.506 0 14.377-56.077 51.324-56.077h32.043c48.234 0 56.457 48.646 95.957 48.646h18.63v-14.75-33.414c0-51.142-56.627-84.669-104.209-84.811h-.624c-21.409.057-40.918 6.921-52.515 22.011-48.999 4.311-45.398 69.522-45.398 78.117v16.593 23.685z" fill="#838383" fill-rule="evenodd"/></g><g><path clip-rule="evenodd" d="m293.387 104.297c0-51.142-56.627-84.669-104.209-84.811h-.624c-21.352.057-40.833 6.893-52.459 21.898 9.925-4.822 21.636-7.12 33.971-7.148h.652c47.581.142 104.18 33.669 104.18 84.811v33.414h18.488v-14.75-33.414z" fill="#595959" fill-rule="evenodd"/></g><g><path clip-rule="evenodd" d="m274.757 152.461c-39.5 0-47.723-48.646-95.957-48.646h-32.042c-15.057 0-19.31 9.304-21.919 20.309h50.275c48.234 0 54.614 45.497 94.114 45.724l5.671.028c0 14.409.454 19.855-3.913 33.839-5.671 18.153-14.972 37.271-30.596 50.688-10.35 8.907-22.061 16.196-34.424 20.791-8.365 3.148-16.418 5.106-25.407 5.162-16.73 0-52.657-19.004-65.644-29.896 5.359 6.694 11.456 12.963 18.063 18.579 10.151 8.595 21.579 15.629 33.659 20.111 9.216 3.461 17.297 5.162 25.379 5.162h.851c7.798-.113 15.624-1.844 24.528-5.162 12.392-4.623 24.103-11.885 34.453-20.791 19.878-17.104 34.765-40.221 39.727-62.062 1.191-5.191 1.815-10.296 1.815-15.232v-31.173-7.432h-18.633z" fill="#fed1a3" fill-rule="evenodd"/></g><g><path clip-rule="evenodd" d="m321.97 319.217c38.082-43.256 103.982-47.426 147.225-9.36 43.215 38.094 47.411 104.014 9.329 147.27-38.082 43.228-103.982 47.426-147.225 9.332-43.215-38.065-47.412-104.014-9.329-147.242z" fill="#fe9737" fill-rule="evenodd"/></g><g><path clip-rule="evenodd" d="m469.194 309.857c-25.464-22.437-58.81-30.18-89.662-23.968-4.14.851-8.223 1.929-12.221 3.262 16.617 3.687 32.553 11.516 46.22 23.543 43.243 38.094 47.411 104.014 9.357 147.27-12.675 14.381-28.384 24.422-45.341 30.067 3.034.652 6.125 1.191 9.216 1.617 8.932 1.135 17.978 1.135 26.91 0 24.216-3.148 47.44-14.75 64.85-34.52 38.083-43.257 33.886-109.177-9.329-147.271z" fill="#f36b37" fill-rule="evenodd"/></g><g><path d="m141.994 189.716c1.927 0 3.854-.738 5.319-2.212 1.13-1.137 2.633-1.765 4.231-1.767h.009c1.609 0 3.128.632 4.275 1.78 2.929 2.931 7.678 2.932 10.608.003s2.931-7.677.002-10.607c-3.982-3.984-9.268-6.177-14.885-6.177-.01 0-.02 0-.029 0-5.615.008-10.889 2.206-14.85 6.191-2.921 2.939-2.907 7.687.031 10.608 1.464 1.455 3.376 2.181 5.289 2.181z"/><path d="m222.922 189.716c1.927 0 3.853-.738 5.319-2.212 1.13-1.137 2.634-1.765 4.232-1.767h.008c1.61 0 3.128.632 4.275 1.78 2.928 2.931 7.678 2.932 10.608.003 2.93-2.928 2.932-7.677.003-10.607-3.982-3.984-9.267-6.177-14.885-6.177-.009 0-.02 0-.029 0-5.615.008-10.889 2.206-14.851 6.191-2.921 2.938-2.907 7.687.031 10.607 1.464 1.456 3.376 2.182 5.289 2.182z"/><path d="m153.917 232.961c0 10.64 4.41 19.991 12.411 26.331 6.871 5.44 16.002 8.44 25.703 8.44 18.932 0 38.104-11.94 38.104-34.771 0-7.53-6.121-13.66-13.651-13.66h-48.945c-7.511 0-13.622 6.13-13.622 13.66zm61.187 1.34c-.81 14.51-14.742 18.431-23.073 18.431s-22.263-3.92-23.073-18.431z"/><path d="m436.5 171.505c1.921 0 3.843-.733 5.308-2.2l13.421-13.439v59.337c0 4.143 3.358 7.5 7.501 7.5s7.501-3.357 7.501-7.5v-59.351l13.452 13.456c1.464 1.465 3.385 2.197 5.305 2.197 1.919 0 3.838-.731 5.303-2.195 2.93-2.929 2.931-7.678.002-10.608l-26.258-26.266c-.093-.093-.177-.169-.254-.231-1.334-1.218-3.103-1.967-5.051-1.967-2.072 0-3.948.84-5.305 2.198-.001.001-.002.001-.003.002l-26.229 26.266c-2.927 2.932-2.924 7.68.008 10.608 1.463 1.463 3.38 2.193 5.299 2.193z"/><path d="m474.153 304.223c-22.422-19.731-51.186-29.551-80.979-27.671-2.061.132-4.105.339-6.14.579v-50.581l13.421 13.439c1.465 1.467 3.386 2.2 5.308 2.2 1.918 0 3.836-.73 5.3-2.192 2.931-2.928 2.935-7.676.008-10.608l-26.229-26.265c-.001-.001-.002-.002-.003-.003-.007-.007-.016-.014-.023-.021-.085-.084-.166-.159-.244-.222-1.332-1.21-3.096-1.954-5.037-1.954-1.94 0-3.703.743-5.034 1.952-.084.068-.174.149-.271.246l-26.258 26.265c-2.929 2.93-2.928 7.679.002 10.608 1.465 1.464 3.383 2.195 5.303 2.195s3.84-.732 5.305-2.197l13.452-13.456v53.406c-16.454 4.26-31.654 12.187-44.595 23.341-11.001-5.81-22.803-10.19-34.584-12.74-2.83-2.13-8.011-6.16-13.882-10.73-4.961-3.85-10.351-8.05-15.452-11.97 15.962-15.59 28.323-34.951 34.004-54.662 6.531-1.37 13.111-4.97 18.442-10.23 6.661-6.56 10.471-14.82 10.471-22.661v-10.16c0-9.78-7.961-17.741-17.742-17.741h-7.811v-48.091c0-19.611-7.611-38.261-22.022-53.942-12.531-13.64-30.223-24.821-49.816-31.491-18.362-6.24-37.794-8.32-54.696-5.85-17.772 2.59-32.284 9.97-42.195 21.391-20.142 2.91-50.066 18.221-49.035 83.633.01.65.02 1.18.02 1.58v32.771h-7.781c-9.801 0-17.772 7.96-17.772 17.741v10.16c0 7.83 3.82 16.09 10.471 22.651 5.341 5.27 11.931 8.87 18.452 10.24 5.791 20.011 18.442 39.671 34.754 55.372-5.021 3.87-10.281 7.95-15.112 11.71-5.611 4.36-10.551 8.2-13.311 10.281-20.492 4.43-41.465 14.63-57.806 28.181-3.18 2.64-3.62 7.37-.98 10.56 1.48 1.79 3.62 2.71 5.781 2.71 1.68 0 3.38-.57 4.781-1.73 14.082-11.68 32.024-20.571 49.676-24.691l42.665 31.721c.16.12.32.23.49.34 1.59.99 2.63 1.8 3.46 2.46 2.67 2.08 4.961 2.9 6.981 2.9 3.38 0 6.031-2.28 8.481-4.77 1.2-1.22 2.9-2.95 5.431-5.24l3.97 15.571-24.773 82.503c-.02.05-.04.09-.04.14l-.02.07c-.82 2.37-.64 4.62.55 6.9l13.411 25.391h-75.611v-46.942c0-4.14-3.36-7.5-7.501-7.5-4.15 0-7.501 3.36-7.501 7.5v46.942h-45.215c-.81 0-1.58.01-2.32.02-.54.01-1.15.03-1.73.02-.01-.24-.02-.52-.02-.83v-77.033c0-10.831 2.99-21.451 8.881-31.571 2.08-3.58.87-8.17-2.71-10.26-3.58-2.08-8.171-.87-10.261 2.71-7.242 12.437-10.912 25.598-10.912 39.118v77.033c0 3.53.42 8.63 4.07 12.21 3.83 3.76 8.671 3.68 12.951 3.6.65-.01 1.33-.02 2.05-.02h315.315c19.123 13.981 41.936 21.441 65.698 21.441 2.4 0 4.82-.07 7.241-.23 29.793-1.89 57.086-15.271 76.828-37.691 40.735-46.262 36.255-117.084-10-157.856zm-173.27-113.153v-23.681h7.811c1.49 0 2.74 1.26 2.74 2.74v10.16c0 3.79-2.24 8.27-6.001 11.98-1.47 1.45-3.07 2.69-4.731 3.7.121-1.659.181-3.29.181-4.899zm-222.284 1.2c-3.76-3.71-6.011-8.19-6.011-11.98v-10.16c0-1.48 1.27-2.74 2.77-2.74h7.781v23.681c0 1.6.07 3.24.19 4.89-1.66-1.011-3.27-2.251-4.73-3.691zm191.161 99.383c2.73 2.12 5.241 4.08 7.441 5.79l-37.174 27.641c-.57.36-1.09.7-1.56 1.03-1.61-1.6-3.8-3.7-6.891-6.37l-7.771-7.15c-.23-.24-.47-.46-.73-.67l-13.501-12.43c3.35-.86 6.811-1.95 10.441-3.31 11.221-4.19 22.072-10.49 31.994-18.271 5.73 4.39 12.03 9.3 17.751 13.74zm-59.757 28.631-5.331 20.931h-25.292l-5.021-19.691 18.502-17.021zm-73.308-271.319c2.09-.18 4.01-1.23 5.291-2.89 10.491-13.63 28.073-19.081 46.645-19.081 11.991 0 24.403 2.27 35.584 6.07 28.443 9.69 61.667 34.151 61.667 71.232v40.661h-11.122c-15.802 0-25.923-9.49-37.634-20.471-14.082-13.21-30.043-28.171-58.326-28.171h-32.044c-23.943 0-27.803 18.821-30.623 32.561-3.05 14.88-5.211 22.531-17.992 23.421v-32.681c0-.46-.01-1.07-.02-1.81-.47-29.82 5.841-65.961 38.574-68.841zm-36.924 155.655c-1.08-4.7-1.63-9.26-1.63-13.55v-23.751c25.693-1.33 29.883-21.76 32.694-35.431 3.12-15.24 5.171-20.571 15.922-20.571h32.043c22.352 0 34.844 11.71 48.065 24.111 12.861 12.061 26.163 24.531 47.895 24.531h11.121v31.111c0 4.29-.54 8.85-1.62 13.56-7.311 32.141-37.184 65.452-69.508 77.503-8.511 3.19-15.732 4.68-22.742 4.68-7.001 0-14.232-1.49-22.753-4.69-32.283-12.031-62.156-45.342-69.487-77.503zm61.327 108.714c-.13.11-.25.23-.38.35l-6.591 6.06c-3.09 2.68-5.271 4.77-6.881 6.37-.48-.32-1-.67-1.58-1.03l-37.174-27.651c2.05-1.58 4.361-3.38 6.871-5.33 5.611-4.36 11.791-9.17 17.492-13.54 9.691 7.48 20.242 13.55 31.143 17.61 4.12 1.55 8.021 2.75 11.801 3.65zm68.027 150.225 13.432-25.431c1.21-2.31 1.36-4.62.48-7.07l-5.221-17.331c-1.19-3.97-5.381-6.22-9.341-5.02-3.97 1.19-6.221 5.37-5.021 9.34l4.63 15.37-15.922 30.141h-40.294l-15.922-30.141 23.183-77.203h25.793l8.691 28.981c.97 3.25 3.95 5.34 7.181 5.34.71 0 1.44-.1 2.15-.31 3.97-1.19 6.221-5.37 5.031-9.34l-9.691-32.331 4.271-16.771c3.32 2.92 5.401 5.03 6.801 6.45 2.45 2.49 5.101 4.77 8.461 4.77 2.03 0 4.31-.83 6.971-2.91.84-.66 1.88-1.47 3.46-2.46.18-.11.34-.22.5-.34l42.665-31.721c8.401 1.96 16.812 4.93 24.853 8.78-19.692 22.391-29.493 51.122-27.603 80.893 1.63 25.731 11.821 49.572 28.993 68.312h-88.531zm243.767-11.391c-17.092 19.411-40.715 31.001-66.517 32.631-14.182.9-28.093-1.26-40.975-6.24-9.271-3.58-18.002-8.61-25.903-15.001-1.1-.88-2.18-1.79-3.24-2.73-19.402-17.081-30.983-40.711-32.624-66.532-.13-2.1-.2-4.19-.2-6.27 0-23.551 8.461-46.031 24.163-63.852.69-.79 1.4-1.56 2.12-2.32 3.53-3.77 7.321-7.23 11.341-10.34 15.172-11.77 33.494-18.751 53.066-19.991 2.09-.13 4.18-.2 6.261-.2 23.553 0 46.015 8.46 63.847 24.161 40.055 35.301 43.935 96.623 8.661 136.684z"/><path d="m391.584 363.762h33.262c4.143 0 7.501-3.358 7.501-7.5 0-4.143-3.358-7.5-7.501-7.5h-17.112v-11.448c0-4.143-3.358-7.5-7.501-7.5s-7.501 3.358-7.501 7.5v11.448h-1.148c-12.923 0-23.437 10.516-23.437 23.441 0 12.941 10.514 23.469 23.437 23.469h17.439c4.511 0 8.322 3.865 8.322 8.441 0 4.654-3.784 8.441-8.435 8.441h-33.262c-4.143 0-7.501 3.358-7.501 7.5s3.358 7.5 7.501 7.5h17.056v11.448c0 4.143 3.358 7.5 7.501 7.5s7.501-3.357 7.501-7.5v-11.448h1.204c12.923 0 23.437-10.516 23.437-23.441s-10.463-23.441-23.323-23.441h-17.439c-4.651 0-8.435-3.799-8.435-8.469-.002-4.655 3.783-8.441 8.434-8.441z"/></g></g></svg>