<svg height="496pt" viewBox="0 0 496 496" width="496pt" xmlns="http://www.w3.org/2000/svg"><path d="m272 488c-4.414062 0-8-3.585938-8-8v-16c0-4.414062 3.585938-8 8-8h144c4.414062 0 8 3.585938 8 8v16c0 4.414062-3.585938 8-8 8zm0 0" fill="#fcd770"/><path d="m80 456c-4.414062 0-8-3.585938-8-8v-16c0-4.414062 3.585938-8 8-8h144c4.414062 0 8 3.585938 8 8v16c0 4.414062-3.585938 8-8 8zm0 0" fill="#fcd770"/><path d="m80 424c-4.414062 0-8-3.585938-8-8v-16c0-4.414062 3.585938-8 8-8h144c4.414062 0 8 3.585938 8 8v16c0 4.414062-3.585938 8-8 8zm0 0" fill="#ffc729"/><path d="m80 392c-4.414062 0-8-3.585938-8-8v-16c0-4.414062 3.585938-8 8-8h144c4.414062 0 8 3.585938 8 8v16c0 4.414062-3.585938 8-8 8zm0 0" fill="#fcd770"/><path d="m80 360c-4.414062 0-8-3.585938-8-8v-16c0-4.414062 3.585938-8 8-8h144c4.414062 0 8 3.585938 8 8v16c0 4.414062-3.585938 8-8 8zm0 0" fill="#ffc729"/><path d="m80 328c-4.414062 0-8-3.585938-8-8v-16c0-4.414062 3.585938-8 8-8h144c4.414062 0 8 3.585938 8 8v16c0 4.414062-3.585938 8-8 8zm0 0" fill="#fcd770"/><path d="m80 296c-4.414062 0-8-3.585938-8-8v-16c0-4.414062 3.585938-8 8-8h144c4.414062 0 8 3.585938 8 8v16c0 4.414062-3.585938 8-8 8zm0 0" fill="#ffc729"/><path d="m272 456c-4.414062 0-8-3.585938-8-8v-16c0-4.414062 3.585938-8 8-8h144c4.414062 0 8 3.585938 8 8v16c0 4.414062-3.585938 8-8 8zm0 0" fill="#ffc729"/><path d="m272 424c-4.414062 0-8-3.585938-8-8v-16c0-4.414062 3.585938-8 8-8h144c4.414062 0 8 3.585938 8 8v16c0 4.414062-3.585938 8-8 8zm0 0" fill="#fcd770"/><path d="m272 392c-4.414062 0-8-3.585938-8-8v-16c0-4.414062 3.585938-8 8-8h144c4.414062 0 8 3.585938 8 8v16c0 4.414062-3.585938 8-8 8zm0 0" fill="#ffc729"/><path d="m80 488c-4.414062 0-8-3.585938-8-8v-16c0-4.414062 3.585938-8 8-8h144c4.414062 0 8 3.585938 8 8v16c0 4.414062-3.585938 8-8 8zm0 0" fill="#ffc729"/><path d="m8 152 64 64h-32v280h-32zm0 0" fill="#ff826e"/><path d="m456 496h32v-344l-64 64h32zm0 0" fill="#ff826e"/><path d="m360 120c0 61.855469-50.144531 112-112 112s-112-50.144531-112-112 50.144531-112 112-112 112 50.144531 112 112zm0 0" fill="#fcd770"/><path d="m197.382812 58.0625c13.785157-11.277344 31.410157-18.0625 50.617188-18.0625 44.183594 0 80 35.816406 80 80 0 19.207031-6.785156 36.832031-18.0625 50.617188l-11.3125 11.3125c-13.792969 11.285156-31.417969 18.070312-50.625 18.070312-44.183594 0-80-35.816406-80-80 0-19.207031 6.785156-36.832031 18.0625-50.617188zm0 0" fill="#ffc729"/><path d="m224 256h-144c-8.824219 0-16 7.175781-16 16v16c0 2.929688.847656 5.640625 2.222656 8-1.375 2.359375-2.222656 5.070312-2.222656 8v16c0 2.929688.847656 5.640625 2.222656 8-1.375 2.359375-2.222656 5.070312-2.222656 8v16c0 2.929688.847656 5.640625 2.222656 8-1.375 2.359375-2.222656 5.070312-2.222656 8v16c0 2.929688.847656 5.640625 2.222656 8-1.375 2.359375-2.222656 5.070312-2.222656 8v16c0 2.929688.847656 5.640625 2.222656 8-1.375 2.359375-2.222656 5.070312-2.222656 8v16c0 2.929688.847656 5.640625 2.222656 8-1.375 2.359375-2.222656 5.070312-2.222656 8v16c0 8.824219 7.175781 16 16 16h144c8.824219 0 16-7.175781 16-16v-16c0-2.929688-.847656-5.640625-2.222656-8 1.375-2.359375 2.222656-5.070312 2.222656-8v-16c0-2.929688-.847656-5.640625-2.222656-8 1.375-2.359375 2.222656-5.070312 2.222656-8v-16c0-2.929688-.847656-5.640625-2.222656-8 1.375-2.359375 2.222656-5.070312 2.222656-8v-16c0-2.929688-.847656-5.640625-2.222656-8 1.375-2.359375 2.222656-5.070312 2.222656-8v-16c0-2.929688-.847656-5.640625-2.222656-8 1.375-2.359375 2.222656-5.070312 2.222656-8v-16c0-2.929688-.847656-5.640625-2.222656-8 1.375-2.359375 2.222656-5.070312 2.222656-8v-16c0-8.824219-7.175781-16-16-16zm0 32h-16v-16h16zm0 32h-144v-16h144zm0 32h-16v-16h16zm0 32h-144v-16h144zm0 32h-16v-16h16zm0 32h-144v-16h144zm-96 16v16h-16v-16zm16 0h16v16h-16zm32 0h16v16h-16zm-96-64h16v16h-16zm96 16v-16h16v16zm-16 0h-16v-16h16zm-32 0h-16v-16h16zm-48-80h16v16h-16zm96 16v-16h16v16zm-16 0h-16v-16h16zm-32 0h-16v-16h16zm48-64v-16h16v16zm-16 0h-16v-16h16zm-32 0h-16v-16h16zm-48-16h16v16h-16zm0 192h16v16h-16zm144 16h-16v-16h16zm0 0"/><path d="m416 352h-144c-8.824219 0-16 7.175781-16 16v16c0 2.929688.847656 5.640625 2.222656 8-1.375 2.359375-2.222656 5.070312-2.222656 8v16c0 2.929688.847656 5.640625 2.222656 8-1.375 2.359375-2.222656 5.070312-2.222656 8v16c0 2.929688.847656 5.640625 2.222656 8-1.375 2.359375-2.222656 5.070312-2.222656 8v16c0 8.824219 7.175781 16 16 16h144c8.824219 0 16-7.175781 16-16v-16c0-2.929688-.847656-5.640625-2.222656-8 1.375-2.359375 2.222656-5.070312 2.222656-8v-16c0-2.929688-.847656-5.640625-2.222656-8 1.375-2.359375 2.222656-5.070312 2.222656-8v-16c0-2.929688-.847656-5.640625-2.222656-8 1.375-2.359375 2.222656-5.070312 2.222656-8v-16c0-8.824219-7.175781-16-16-16zm0 32h-16v-16h16zm0 32h-144v-16h144zm0 32h-16v-16h16zm-144-16h16v16h-16zm32 0h16v16h-16zm32 0h16v16h-16zm32 0h16v16h-16zm0-48v-16h16v16zm-16 0h-16v-16h16zm-32 0h-16v-16h16zm-48-16h16v16h-16zm144 112h-144v-16h144zm0 0"/><path d="m0 480h16v16h-16zm0 0"/><path d="m32 480h16v16h-16zm0 0"/><path d="m32 448h16v16h-16zm0 0"/><path d="m32 416h16v16h-16zm0 0"/><path d="m0 132.6875v331.3125h16v-292.6875l36.6875 36.6875h-20.6875v192h16v-176h43.3125zm0 0"/><path d="m480 480h16v16h-16zm0 0"/><path d="m448 480h16v16h-16zm0 0"/><path d="m448 448h16v16h-16zm0 0"/><path d="m448 416h16v16h-16zm0 0"/><path d="m448 224v176h16v-192h-20.6875l36.6875-36.6875v292.6875h16v-331.3125l-91.3125 91.3125zm0 0"/><path d="m475.3125 32 14.632812-14.625-11.3125-11.3125-14.632812 14.625v-20.6875h-16v20.6875l-14.632812-14.625-11.3125 11.3125 14.632812 14.625h-20.6875v16h20.6875l-14.632812 14.625 11.3125 11.3125 14.632812-14.625v20.6875h16v-20.6875l14.632812 14.625 11.3125-11.3125-14.632812-14.625h20.6875v-16zm-3.3125 1.375v13.25l-9.375 9.375h-13.25l-9.375-9.375v-13.25l9.375-9.375h13.25zm0 0"/><path d="m360 248h-16v20.6875l-14.632812-14.625-11.3125 11.3125 14.632812 14.625h-20.6875v16h20.6875l-14.632812 14.625 11.3125 11.3125 14.632812-14.625v20.6875h16v-20.6875l14.632812 14.625 11.3125-11.3125-14.632812-14.625h20.6875v-16h-20.6875l14.632812-14.625-11.3125-11.3125-14.632812 14.625zm-1.375 24 9.375 9.375v13.25l-9.375 9.375h-13.25l-9.375-9.375v-13.25l9.375-9.375zm0 0"/><path d="m6.054688 62.625 11.3125 11.3125 14.632812-14.625v20.6875h16v-20.6875l14.632812 14.625 11.3125-11.3125-14.632812-14.625h20.6875v-16h-20.6875l14.632812-14.625-11.3125-11.3125-14.632812 14.625v-20.6875h-16v20.6875l-14.632812-14.625-11.3125 11.3125 14.632812 14.625h-20.6875v16h20.6875zm17.945312-16v-13.25l9.375-9.375h13.25l9.375 9.375v13.25l-9.375 9.375h-13.25zm0 0"/><path d="m400 96h16v16h-16zm0 0"/><path d="m384 112h16v16h-16zm0 0"/><path d="m400 128h16v16h-16zm0 0"/><path d="m416 112h16v16h-16zm0 0"/><path d="m80 136h16v16h-16zm0 0"/><path d="m64 152h16v16h-16zm0 0"/><path d="m80 168h16v16h-16zm0 0"/><path d="m96 152h16v16h-16zm0 0"/><path d="m264 152h-32c-4.40625 0-8-3.585938-8-8h-16c0 13.230469 10.769531 24 24 24h8v8h16v-8h8c13.230469 0 24-10.769531 24-24v-8c0-13.230469-10.769531-24-24-24h-32c-4.40625 0-8-3.585938-8-8v-8c0-4.414062 3.59375-8 8-8h32c4.40625 0 8 3.585938 8 8h16c0-13.230469-10.769531-24-24-24h-8v-8h-16v8h-8c-13.230469 0-24 10.769531-24 24v8c0 13.230469 10.769531 24 24 24h32c4.40625 0 8 3.585938 8 8v8c0 4.414062-3.59375 8-8 8zm0 0"/><path d="m248 192c-39.695312 0-72-32.296875-72-72 0-16.558594 5.777344-32.742188 16.257812-45.542969l-12.386718-10.144531c-12.816406 15.664062-19.871094 35.441406-19.871094 55.6875 0 48.519531 39.480469 88 88 88 20.246094 0 40.023438-7.0625 55.6875-19.878906l-10.136719-12.378906c-12.808593 10.480468-28.992187 16.257812-45.550781 16.257812zm0 0"/><path d="m248 32c-20.246094 0-40.023438 7.0625-55.6875 19.878906l10.136719 12.378906c12.808593-10.480468 28.992187-16.257812 45.550781-16.257812 39.695312 0 72 32.296875 72 72 0 16.558594-5.777344 32.742188-16.257812 45.542969l12.386718 10.144531c12.816406-15.664062 19.871094-35.441406 19.871094-55.6875 0-48.519531-39.480469-88-88-88zm0 0"/><path d="m368 120c0-66.167969-53.832031-120-120-120s-120 53.832031-120 120 53.832031 120 120 120 120-53.832031 120-120zm-120 104c-57.34375 0-104-46.65625-104-104s46.65625-104 104-104 104 46.65625 104 104-46.65625 104-104 104zm0 0"/></svg>