<svg height="419pt" viewBox="0 -8 419.50208 419" width="419pt" xmlns="http://www.w3.org/2000/svg"><path d="m314.027344 157.265625c0 86.714844-70.296875 157.011719-157.015625 157.011719-86.714844 0-157.011719-70.296875-157.011719-157.011719 0-86.71875 70.296875-157.015625 157.011719-157.015625 86.71875 0 157.015625 70.296875 157.015625 157.015625zm0 0" fill="#efefd2"/><path d="m412.675781 215.59375c0 99.890625-80.980469 180.871094-180.871093 180.871094-99.894532 0-180.875-80.980469-180.875-180.871094 0-99.894531 80.980468-180.875 180.875-180.875 99.890624 0 180.871093 80.980469 180.871093 180.875zm0 0" fill="#6b4f5b"/><path d="m231.804688 403.289062c-103.5 0-187.699219-84.199218-187.699219-187.695312s84.199219-187.699219 187.699219-187.699219c103.496093 0 187.699218 84.203125 187.699218 187.699219s-84.207031 187.695312-187.699218 187.695312zm0-361.742187c-95.96875 0-174.046876 78.078125-174.046876 174.046875 0 95.964844 78.078126 174.042969 174.046876 174.042969s174.042968-78.074219 174.042968-174.042969-78.074218-174.046875-174.042968-174.046875zm0 0" fill="#4c241d"/><path d="m368.476562 215.59375c0 75.484375-61.191406 136.675781-136.671874 136.675781-75.484376 0-136.675782-61.191406-136.675782-136.675781s61.191406-136.675781 136.675782-136.675781c75.480468 0 136.671874 61.191406 136.671874 136.675781zm0 0" fill="#fff"/><g fill="#4c241d"><path d="m231.804688 359.09375c-79.128907 0-143.5-64.371094-143.5-143.5 0-79.125 64.371093-143.503906 143.5-143.503906 79.125 0 143.5 64.378906 143.5 143.503906 0 79.128906-64.375 143.5-143.5 143.5zm0-273.347656c-71.597657 0-129.847657 58.25-129.847657 129.847656s58.25 129.847656 129.847657 129.847656c71.597656 0 129.847656-58.25 129.847656-129.847656 0-71.601562-58.25-129.847656-129.847656-129.847656zm0 0"/><path d="m232.078125 113.207031c-3.769531 0-6.824219-3.058593-6.824219-6.828125v-24.898437c0-3.769531 3.054688-6.828125 6.824219-6.828125s6.828125 3.058594 6.828125 6.828125v24.898437c0 3.769532-3.058594 6.828125-6.828125 6.828125zm0 0"/><path d="m232.078125 355.980469c-3.769531 0-6.824219-3.058594-6.824219-6.828125v-24.898438c0-3.769531 3.054688-6.828125 6.824219-6.828125s6.828125 3.058594 6.828125 6.828125v24.898438c0 3.769531-3.058594 6.828125-6.828125 6.828125zm0 0"/><path d="m126.253906 219.03125h-31.125c-3.769531 0-6.824218-3.058594-6.824218-6.828125s3.054687-6.824219 6.824218-6.824219h31.125c3.769532 0 6.824219 3.054688 6.824219 6.824219s-3.054687 6.828125-6.824219 6.828125zm0 0"/><path d="m362.804688 219.03125h-24.898438c-3.769531 0-6.828125-3.058594-6.828125-6.828125s3.058594-6.824219 6.828125-6.824219h24.898438c3.773437 0 6.828124 3.054688 6.828124 6.824219s-3.054687 6.828125-6.828124 6.828125zm0 0"/><path d="m138.117188 320.472656c-1.710938 0-3.425782-.640625-4.75-1.925781-2.707032-2.617187-2.777344-6.941406-.15625-9.652344l17.320312-17.890625c2.613281-2.703125 6.941406-2.773437 9.652344-.152344 2.707031 2.621094 2.777344 6.941407.15625 9.652344l-17.320313 17.890625c-1.335937 1.378907-3.121093 2.078125-4.902343 2.078125zm0 0"/><path d="m306.972656 146.039062c-1.710937 0-3.421875-.636718-4.746094-1.921874-2.710937-2.621094-2.78125-6.945313-.160156-9.652344l17.316406-17.890625c2.617188-2.707031 6.945313-2.78125 9.652344-.160157 2.710938 2.625 2.78125 6.949219.160156 9.652344l-17.316406 17.890625c-1.339844 1.382813-3.121094 2.082031-4.90625 2.082031zm0 0"/><path d="m153.003906 152.941406c-1.710937 0-3.425781-.636718-4.746094-1.921875l-22.367187-21.644531c-2.707031-2.625-2.777344-6.945312-.160156-9.652344 2.621093-2.714844 6.949219-2.785156 9.652343-.160156l22.367188 21.644531c2.710938 2.625 2.777344 6.945313.160156 9.652344-1.339844 1.382813-3.125 2.082031-4.90625 2.082031zm0 0"/><path d="m322.964844 317.46875c-1.707032 0-3.421875-.636719-4.746094-1.921875l-17.890625-17.316406c-2.710937-2.621094-2.78125-6.941407-.160156-9.652344 2.625-2.714844 6.945312-2.785156 9.652343-.160156l17.890626 17.316406c2.710937 2.621094 2.78125 6.941406.160156 9.652344-1.339844 1.382812-3.121094 2.082031-4.90625 2.082031zm0 0"/><path d="m256.980469 256.378906c-14.058594 0-25.5-11.4375-25.5-25.496094v-24.902343c0-14.0625 11.441406-25.503907 25.5-25.503907 14.0625 0 25.5 11.441407 25.5 25.503907v24.902343c0 14.058594-11.4375 25.496094-25.5 25.496094zm0-62.25c-6.535157 0-11.847657 5.316406-11.847657 11.851563v24.898437c0 6.535156 5.3125 11.847656 11.847657 11.847656 6.53125 0 11.847656-5.3125 11.847656-11.847656v-24.898437c0-6.53125-5.316406-11.851563-11.847656-11.851563zm0 0"/><path d="m200.992188 256.378906c-5.992188 0-11.804688-2.078125-16.429688-5.960937-5.789062-4.863281-9.109375-11.984375-9.109375-19.535157v-30.617187c0-19.949219 16.226563-36.171875 36.171875-36.171875 3.769531 0 6.828125 3.054688 6.828125 6.824219s-3.058594 6.828125-6.828125 6.828125c-12.417969 0-22.519531 10.101562-22.519531 22.519531v5.113281h11.847656c7.550781 0 14.671875 3.320313 19.535156 9.109375 4.859375 5.785157 6.890625 13.421875 5.566407 20.957031-1.808594 10.285157-10.25 18.730469-20.53125 20.535157-1.511719.265625-3.027344.398437-4.53125.398437zm-11.886719-37.347656v11.847656c0 3.511719 1.542969 6.820313 4.234375 9.082032 2.726562 2.285156 6.195312 3.195312 9.816406 2.570312 4.660156-.816406 8.632812-4.792969 9.453125-9.453125.628906-3.59375-.285156-7.082031-2.578125-9.8125-2.261719-2.691406-5.570312-4.234375-9.078125-4.234375zm0 0"/></g></svg>