<?xml version="1.0"?>
<svg xmlns="http://www.w3.org/2000/svg" xmlns:xlink="http://www.w3.org/1999/xlink" xmlns:svgjs="http://svgjs.com/svgjs" version="1.1" width="512" height="512" x="0" y="0" viewBox="0 0 512 512" style="enable-background:new 0 0 512 512" xml:space="preserve" class=""><g transform="matrix(1.8369701987210297e-16,-1,1,1.8369701987210297e-16,-1.1368683772161603e-13,512)"><path xmlns="http://www.w3.org/2000/svg" d="m512 256c0 141.386719-114.613281 256-256 256s-256-114.613281-256-256 114.613281-256 256-256 256 114.613281 256 256zm0 0" fill="#bcd5f3" data-original="#555a66" style="" class=""/><path xmlns="http://www.w3.org/2000/svg" d="m511.820312 265.128906-111.273437-111.273437-35.214844 9.3125-23.785156-23.785157-11.972656 15.613282-43.910157-43.90625-61.636718 13.9375-.929688.144531-28.550781-28.554687-102.546875 48.941406 65.671875 65.671875-65.671875 19.859375 83.941406 83.9375-83.941406 14.828125 64.785156 64.785156-64.785156 20.742187 83.777344 83.777344c25.238281 8.320313 52.199218 12.839844 80.222656 12.839844 138.328125 0 251.011719-109.71875 255.820312-246.871094zm0 0" fill="#bcd5f3" data-original="#333940" style="" class=""/><path xmlns="http://www.w3.org/2000/svg" d="m285.667969 216.617188h-111.667969v-20h91.667969v-65.527344h-91.667969v-20h111.667969zm0 0" fill="#ffffff" data-original="#ffffff" style="" class=""/><path xmlns="http://www.w3.org/2000/svg" d="m400.546875 358.144531h-59v-20h39v-164.289062h-39v-20h59zm0 0" fill="#ffffff" data-original="#ffffff" style="" class=""/><path xmlns="http://www.w3.org/2000/svg" d="m380.546875 255.90625v82.238281h-39v20h59v-102.238281zm0 0" fill="#ffffff" data-original="#dce1eb" style="" class=""/><path xmlns="http://www.w3.org/2000/svg" d="m92 96.617188h102.546875v48.941406h-102.546875zm0 0" fill="#0b0c3c" data-original="#ff583e" style="" class=""/><path xmlns="http://www.w3.org/2000/svg" d="m92 182.148438h102.546875v48.941406h-102.546875zm0 0" fill="#0b0c3c" data-original="#ff583e" style="" class=""/><path xmlns="http://www.w3.org/2000/svg" d="m285.667969 400.910156h-111.667969v-20h91.667969v-65.527344h-91.667969v-20h111.667969zm0 0" fill="#ffffff" data-original="#dce1eb" style="" class=""/><path xmlns="http://www.w3.org/2000/svg" d="m92 280.910156h102.546875v48.941406h-102.546875zm0 0" fill="#0b0c3c" data-original="#db0404" style="" class=""/><path xmlns="http://www.w3.org/2000/svg" d="m92 366.441406h102.546875v48.941406h-102.546875zm0 0" fill="#0b0c3c" data-original="#db0404" style="" class=""/><path xmlns="http://www.w3.org/2000/svg" d="m239 139.382812h102.546875v48.941407h-102.546875zm0 0" fill="#0b0c3c" data-original="#ff583e" style="" class=""/><path xmlns="http://www.w3.org/2000/svg" d="m239 323.675781h102.546875v48.941407h-102.546875zm0 0" fill="#0b0c3c" data-original="#db0404" style="" class=""/><path xmlns="http://www.w3.org/2000/svg" d="m359.453125 231.527344h102.546875v48.945312h-102.546875zm0 0" fill="#0b0c3c" data-original="#ff583e" style="" class=""/><path xmlns="http://www.w3.org/2000/svg" d="m359.453125 255.90625h102.546875v24.566406h-102.546875zm0 0" fill="#0b0c3c" data-original="#db0404" style="" class=""/></g></svg>
