<?xml version="1.0" ?><!DOCTYPE svg  PUBLIC '-//W3C//DTD SVG 1.1//EN'  'http://www.w3.org/Graphics/SVG/1.1/DTD/svg11.dtd'><svg class="icon" height="128.00px" version="1.1" viewBox="0 0 1024 1024" width="128px" xmlns="http://www.w3.org/2000/svg"><path d="M950.9 930H73.1c-34.6 0-62.7-28.1-62.7-62.7V156.7c0-34.6 28.1-62.7 62.7-62.7h877.7c34.6 0 62.7 28.1 62.7 62.7v710.5c0.1 34.6-28.1 62.8-62.6 62.8zM73.1 135.8c-11.5 0-20.9 9.4-20.9 20.9v710.5c0 11.5 9.4 20.9 20.9 20.9h877.7c11.5 0 20.9-9.4 20.9-20.9V156.7c0-11.5-9.4-20.9-20.9-20.9H73.1z" fill="#333333"/><path d="M700.1 658.3c-11.6 0-20.9-9.3-20.9-20.9V386.6c0-11.5 9.3-20.9 20.9-20.9 11.6 0 20.9 9.4 20.9 20.9v250.8c0 11.5-9.4 20.9-20.9 20.9zM522.4 658.3c-11.5 0-20.9-9.3-20.9-20.9V386.6c0-11.5 9.4-20.9 20.9-20.9 11.6 0 20.9 9.4 20.9 20.9v250.8c0 11.5-9.3 20.9-20.9 20.9zM344.8 658.3c-11.5 0-20.9-9.3-20.9-20.9V386.6c0-11.5 9.4-20.9 20.9-20.9 11.5 0 20.9 9.4 20.9 20.9v250.8c0 11.5-9.3 20.9-20.9 20.9zM167.2 658.3c-11.5 0-20.9-9.3-20.9-20.9V386.6c0-11.5 9.4-20.9 20.9-20.9s20.9 9.4 20.9 20.9v250.8c0 11.5-9.4 20.9-20.9 20.9zM877.7 663.5c-11.6 0-20.9-9.3-20.9-20.9V391.8c0-11.5 9.3-20.9 20.9-20.9s20.9 9.4 20.9 20.9v250.8c0 11.6-9.3 20.9-20.9 20.9z" fill="#333333"/></svg>