<svg
    xmlns="http://www.w3.org/2000/svg"
    viewBox="0 0 750 500"
    id="vector">
    <path
        id="path"
        d="M 410.76 55.55 C 410.753 55.701 410.733 55.852 410.7 56 C 410.65 56.29 410.55 56.72 410.47 57.29 C 410.198 58.944 410.038 60.614 409.99 62.29 C 409.91 64.946 410.132 67.603 410.65 70.21 C 411.353 73.656 412.609 76.966 414.37 80.01 C 416.611 83.641 419.069 87.134 421.73 90.47 C 424.773 94.356 427.26 98.648 429.12 103.22 C 431.129 108.298 432.278 113.675 432.52 119.13 C 433.031 130.977 428.817 142.554 420.81 151.3 C 417.143 155.347 412.729 158.647 407.81 161.02 C 403.14 163.32 398.49 165.02 394.39 167.02 C 390.532 168.84 387.038 171.347 384.08 174.42 C 379.825 178.929 376.87 184.507 375.53 190.56 C 375.26 191.62 375.16 192.56 375.01 193.42 C 374.86 194.28 374.84 194.97 374.81 195.54 C 374.78 196.11 374.81 196.54 374.74 196.85 C 374.751 197 374.751 197.15 374.74 197.3 C 374.729 197.15 374.729 197 374.74 196.85 C 374.74 196.53 374.74 196.09 374.74 195.54 C 374.74 194.99 374.84 194.25 374.9 193.4 C 374.96 192.55 375.12 191.59 375.37 190.52 C 375.909 187.897 376.762 185.349 377.91 182.93 C 379.421 179.718 381.425 176.762 383.85 174.17 C 386.818 171.044 390.337 168.491 394.23 166.64 C 398.36 164.54 403.01 162.85 407.64 160.56 C 412.474 158.219 416.816 154.974 420.43 151 C 428.338 142.335 432.501 130.881 432 119.16 C 431.77 113.759 430.644 108.433 428.67 103.4 C 426.831 98.866 424.378 94.606 421.38 90.74 C 418.723 87.378 416.272 83.858 414.04 80.2 C 412.276 77.115 411.033 73.76 410.36 70.27 C 409.852 67.636 409.657 64.95 409.78 62.27 C 409.846 60.591 410.04 58.92 410.36 57.27 C 410.46 56.7 410.57 56.27 410.64 55.99 Z"
        fill="#e0e0e0"/>
    <path
        id="path_1"
        d="M 452.82 62.6 C 452.268 64.85 451.58 67.064 450.76 69.23 C 449.841 71.79 448.724 74.274 447.42 76.66 C 445.744 79.87 443.513 82.758 440.83 85.19 C 440.053 85.869 439.227 86.491 438.36 87.05 C 437.46 87.6 436.52 88.11 435.55 88.61 L 429.5 91.71 C 425.32 93.85 420.83 96.09 416.23 98.71 C 411.44 101.389 407.144 104.869 403.53 109 C 399.633 113.446 396.707 118.658 394.94 124.3 C 393.204 129.953 392.78 135.928 393.7 141.77 C 394.534 147.217 396.648 152.389 399.87 156.86 C 402.96 161.11 406.6 164.61 409.51 168.32 C 410.95 170.09 412.219 171.991 413.3 174 C 414.27 175.866 415.057 177.822 415.65 179.84 C 416.647 183.318 417.079 186.935 416.93 190.55 C 416.815 193.266 416.348 195.955 415.54 198.55 C 415.039 200.196 414.396 201.795 413.62 203.33 C 413.35 203.83 413.13 204.22 412.98 204.51 C 412.83 204.8 412.74 204.9 412.74 204.9 C 412.74 204.9 412.8 204.75 412.93 204.48 C 413.06 204.21 413.27 203.79 413.53 203.29 C 414.258 201.742 414.866 200.141 415.35 198.5 C 416.118 195.899 416.548 193.211 416.63 190.5 C 416.746 186.952 416.297 183.407 415.3 180 C 414.702 178.008 413.912 176.079 412.94 174.24 C 411.865 172.26 410.603 170.388 409.17 168.65 C 406.27 164.98 402.62 161.5 399.48 157.2 C 396.203 152.673 394.047 147.432 393.19 141.91 C 392.258 135.992 392.685 129.938 394.44 124.21 C 396.233 118.499 399.196 113.223 403.14 108.72 C 406.792 104.513 411.142 100.967 416 98.24 C 420.62 95.67 425.12 93.45 429.31 91.33 L 435.36 88.25 C 436.36 87.76 437.28 87.25 438.16 86.72 C 439.012 86.175 439.824 85.57 440.59 84.91 C 443.253 82.516 445.48 79.677 447.17 76.52 C 448.483 74.154 449.619 71.694 450.57 69.16 C 451.37 67.08 451.9 65.43 452.26 64.31 C 452.43 63.77 452.57 63.31 452.66 63.03 C 452.75 62.75 452.82 62.6 452.82 62.6 Z"
        fill="#e0e0e0"/>
    <path
        id="path_2"
        d="M 437 87.63 C 437 87.77 432.14 86.89 426.22 85.63 C 420.3 84.37 415.52 83.31 415.55 83.17 C 415.58 83.03 420.4 83.9 426.33 85.17 C 432.26 86.44 437 87.48 437 87.63 Z"
        fill="#e0e0e0"/>
    <path
        id="path_3"
        d="M 444.33 80.71 C 444.33 80.85 436.86 78.79 427.73 76.12 C 418.6 73.45 411.24 71.12 411.28 71.02 C 411.32 70.92 418.75 72.94 427.88 75.62 C 437.01 78.3 444.37 80.57 444.33 80.71 Z"
        fill="#e0e0e0"/>
    <path
        id="path_4"
        d="M 449.7 71.64 C 449.7 71.77 440.75 69.22 429.81 65.93 C 418.87 62.64 410 59.86 410.06 59.72 C 410.12 59.58 419 62.14 430 65.43 C 441 68.72 449.74 71.5 449.7 71.64 Z"
        fill="#e0e0e0"/>
    <path
        id="path_5"
        d="M 415.61 155.79 C 415.56 155.93 410.78 154.22 404.93 151.97 C 399.08 149.72 394.39 147.79 394.44 147.66 C 394.49 147.53 399.27 149.24 405.12 151.48 C 410.97 153.72 415.66 155.66 415.61 155.79 Z"
        fill="#e0e0e0"/>
    <path
        id="path_6"
        d="M 425 145 C 424.565 144.937 424.136 144.833 423.72 144.69 C 422.9 144.47 421.72 144.11 420.28 143.69 C 417.4 142.78 413.44 141.44 409.11 139.82 C 404.78 138.2 400.9 136.63 398.11 135.44 C 396.72 134.84 395.6 134.34 394.83 133.98 C 394.422 133.813 394.03 133.609 393.66 133.37 C 394.09 133.468 394.508 133.609 394.91 133.79 L 398.25 135.09 C 401.06 136.2 404.95 137.72 409.25 139.34 C 413.55 140.96 417.51 142.34 420.36 143.34 L 423.74 144.54 C 424.173 144.654 424.595 144.808 425 145 Z"
        fill="#e0e0e0"/>
    <path
        id="path_7"
        d="M 430.39 133.37 C 429.914 133.242 429.452 133.068 429.01 132.85 L 425.31 131.32 C 422.19 130.02 417.86 128.26 413.03 126.46 C 408.2 124.66 403.77 123.16 400.56 122.1 L 396.75 120.84 C 396.277 120.708 395.815 120.538 395.37 120.33 C 395.86 120.388 396.342 120.495 396.81 120.65 C 397.73 120.89 399.04 121.26 400.67 121.75 C 403.91 122.75 408.36 124.17 413.21 125.97 C 418.06 127.77 422.37 129.59 425.46 130.97 C 427 131.66 428.24 132.24 429.09 132.66 C 429.545 132.854 429.98 133.092 430.39 133.37 Z"
        fill="#e0e0e0"/>
    <path
        id="path_8"
        d="M 430.46 118.81 C 430.081 118.755 429.711 118.651 429.36 118.5 L 426.44 117.5 C 423.97 116.64 420.57 115.5 416.78 114.23 C 412.99 112.96 409.55 111.95 407.05 111.23 L 404.05 110.32 C 403.68 110.23 403.321 110.099 402.98 109.93 C 403.36 109.949 403.737 110.017 404.1 110.13 C 404.82 110.28 405.84 110.54 407.1 110.87 C 409.63 111.54 413.1 112.53 416.89 113.77 C 420.68 115.01 424.08 116.24 426.52 117.19 C 427.73 117.66 428.71 118.06 429.38 118.35 C 429.757 118.46 430.119 118.615 430.46 118.81 Z"
        fill="#e0e0e0"/>
    <path
        id="path_9"
        d="M 430.6 107.5 C 427.448 106.7 424.341 105.735 421.29 104.61 C 418.185 103.645 415.133 102.514 412.15 101.22 C 415.301 102.023 418.408 102.988 421.46 104.11 C 424.564 105.079 427.615 106.21 430.6 107.5 Z"
        fill="#e0e0e0"/>
    <path
        id="path_10"
        d="M 415 177.75 C 414.658 177.698 414.322 177.607 414 177.48 L 411.36 176.59 L 402.68 173.59 L 393.98 170.67 L 391.34 169.76 C 391.009 169.669 390.69 169.538 390.39 169.37 C 390.731 169.39 391.067 169.458 391.39 169.57 C 392.03 169.73 392.95 169.98 394.08 170.31 C 396.34 170.97 399.44 171.94 402.84 173.1 C 406.24 174.26 409.29 175.38 411.48 176.24 C 412.58 176.67 413.48 177.03 414.06 177.24 C 414.398 177.36 414.715 177.532 415 177.75 Z"
        fill="#e0e0e0"/>
    <path
        id="path_11"
        d="M 416.81 191 C 416.76 191.13 408.54 188.47 398.45 185 C 388.36 181.53 380.21 178.69 380.26 178.55 C 380.31 178.41 388.52 181.08 398.62 184.55 C 408.72 188.02 416.85 190.81 416.81 191 Z"
        fill="#e0e0e0"/>
    <path
        id="path_12"
        d="M 416.64 200.77 C 416.64 200.91 407.42 198.21 396.15 194.77 C 384.88 191.33 375.76 188.39 375.8 188.25 C 375.84 188.11 385.02 190.81 396.3 194.25 C 407.58 197.69 416.69 200.63 416.64 200.77 Z"
        fill="#e0e0e0"/>
    <path
        id="path_13"
        d="M 250.8 117.58 C 250.8 117.58 250.53 117.58 250.01 117.58 L 247.71 117.67 C 245.71 117.73 242.71 117.82 238.87 117.88 C 236.95 117.88 234.81 117.88 232.47 117.88 C 231.241 117.896 230.015 117.782 228.81 117.54 C 227.585 117.047 226.386 116.49 225.22 115.87 C 223.946 115.308 222.537 115.121 221.16 115.33 C 220.81 115.38 220.45 115.47 220.1 115.54 C 219.764 115.649 219.45 115.815 219.17 116.03 C 218.587 116.497 218.078 117.05 217.66 117.67 C 215.923 120.421 214.51 123.364 213.45 126.44 C 212.23 129.65 211.15 133.07 209.86 136.61 C 209.7 137.05 209.52 137.49 209.33 137.93 L 209.17 138.26 C 209.144 138.326 209.107 138.387 209.06 138.44 C 209.029 138.493 208.986 138.537 208.933 138.569 C 208.881 138.6 208.821 138.618 208.76 138.62 C 208.4 138.53 208.45 138.35 208.36 138.24 C 208.308 138.123 208.264 138.003 208.23 137.88 C 207.989 136.933 207.812 135.971 207.7 135 C 207.44 133.07 207.24 131.09 207.05 129.08 C 206.32 121.08 205.74 112.42 204.96 103.38 C 204.55 98.86 204.18 94.21 203.39 89.55 C 203.28 88.97 203.17 88.39 203.01 87.82 C 202.939 87.551 202.842 87.29 202.72 87.04 C 202.58 86.8 202.46 86.69 202.31 86.76 C 201.877 87.081 201.532 87.508 201.31 88 C 201.022 88.519 200.762 89.053 200.53 89.6 C 199.57 91.869 198.726 94.185 198 96.54 C 196.53 101.25 195.23 106.1 194 111.04 L 193.53 112.9 C 193.398 113.543 193.218 114.175 192.99 114.79 C 192.707 115.423 192.264 115.972 191.705 116.382 C 191.145 116.792 190.489 117.05 189.8 117.13 C 188.46 117.18 187.21 117.25 185.87 117.22 C 184.543 117.171 183.225 116.977 181.94 116.64 C 180.312 116.218 178.743 115.593 177.27 114.78 C 176.595 114.343 175.874 113.981 175.12 113.7 C 174.785 113.565 174.419 113.528 174.064 113.596 C 173.709 113.663 173.382 113.831 173.12 114.08 C 172.646 114.708 172.306 115.426 172.12 116.19 C 171.87 116.96 171.65 117.74 171.43 118.52 C 171.01 120.08 170.61 121.65 170.22 123.21 C 169.42 126.33 168.66 129.41 167.67 132.45 C 167.631 132.565 167.574 132.673 167.5 132.77 C 167.439 132.862 167.345 132.927 167.237 132.953 C 167.13 132.979 167.017 132.964 166.92 132.91 C 166.722 132.76 166.572 132.555 166.49 132.32 C 166.332 131.946 166.198 131.562 166.09 131.17 C 165.88 130.4 165.71 129.64 165.55 128.87 C 165.23 127.34 164.96 125.81 164.71 124.29 C 163.71 118.22 162.89 112.29 162.01 106.52 C 161.57 103.65 161.14 100.81 160.56 98.07 C 160.432 97.387 160.242 96.718 159.99 96.07 C 159.81 95.51 159.17 96.18 158.79 96.67 C 158.004 97.777 157.305 98.944 156.7 100.16 C 154.23 104.98 152.23 109.82 150 114.31 C 149.465 115.438 148.839 116.522 148.13 117.55 C 147.942 117.85 147.65 118.071 147.31 118.17 C 146.98 118.236 146.64 118.236 146.31 118.17 C 145.71 117.958 145.178 117.589 144.77 117.1 C 144.378 116.691 143.918 116.352 143.41 116.1 C 142.923 115.848 142.377 115.731 141.83 115.76 C 140.748 116.015 139.758 116.565 138.97 117.35 C 138.522 117.738 137.987 118.013 137.41 118.15 C 137.102 118.203 136.785 118.175 136.49 118.07 C 136.225 117.947 135.982 117.781 135.77 117.58 C 135.001 116.806 134.302 115.966 133.68 115.07 C 133.05 114.21 132.45 113.36 131.82 112.56 C 131.239 111.775 130.525 111.098 129.71 110.56 C 128.89 110.02 127.98 110.7 127.25 111.22 C 126.537 111.796 125.869 112.424 125.25 113.1 C 124.05 114.369 122.921 115.705 121.87 117.1 L 121.87 117.16 L 121.8 117.16 L 103.53 117.09 L 98.7 117.09 L 97.46 117.09 C 97.32 117.099 97.18 117.099 97.04 117.09 L 97.46 117.09 L 98.7 117.09 L 103.53 117.09 L 121.8 117.02 L 121.69 117.08 C 122.739 115.661 123.867 114.302 125.07 113.01 C 125.71 112.315 126.406 111.672 127.15 111.09 C 127.534 110.778 127.957 110.519 128.41 110.32 C 128.658 110.22 128.922 110.166 129.19 110.16 C 129.462 110.175 129.727 110.258 129.96 110.4 C 130.823 110.965 131.576 111.684 132.18 112.52 C 132.82 113.33 133.43 114.18 134.06 115.03 C 134.65 115.907 135.319 116.727 136.06 117.48 C 136.247 117.654 136.459 117.799 136.69 117.91 C 136.918 117.988 137.163 118.005 137.4 117.96 C 137.915 117.831 138.391 117.58 138.79 117.23 C 139.615 116.403 140.654 115.821 141.79 115.55 C 142.407 115.541 143.019 115.667 143.582 115.919 C 144.145 116.171 144.646 116.544 145.05 117.01 C 145.404 117.46 145.874 117.806 146.41 118.01 C 146.681 118.065 146.959 118.065 147.23 118.01 C 147.41 118.01 147.62 117.76 147.79 117.53 C 148.481 116.524 149.089 115.464 149.61 114.36 C 151.82 109.89 153.81 105.05 156.29 100.19 C 156.9 98.946 157.613 97.756 158.42 96.63 C 158.638 96.328 158.901 96.062 159.2 95.84 C 159.289 95.764 159.393 95.707 159.504 95.673 C 159.616 95.639 159.734 95.627 159.85 95.64 C 159.97 95.668 160.082 95.723 160.178 95.801 C 160.273 95.879 160.349 95.978 160.4 96.09 C 160.658 96.707 160.858 97.346 161 98 C 161.59 100.77 162 103.61 162.47 106.49 C 163.36 112.24 164.18 118.19 165.19 124.25 C 165.44 125.77 165.71 127.25 166.03 128.81 C 166.19 129.57 166.36 130.32 166.56 131.07 C 166.661 131.437 166.784 131.798 166.93 132.15 C 166.98 132.283 167.055 132.405 167.15 132.51 C 167.1 132.51 167.15 132.66 167.15 132.57 L 167.15 132.57 C 167.15 132.57 167.15 132.52 167.15 132.57 L 167.15 132.57 C 167.192 132.513 167.222 132.448 167.24 132.38 C 168.24 129.38 168.98 126.31 169.77 123.2 C 170.16 121.64 170.55 120.07 170.98 118.5 C 171.2 117.72 171.42 116.93 171.68 116.15 C 171.8 115.76 171.94 115.37 172.08 114.98 C 172.23 114.562 172.461 114.178 172.76 113.85 C 173.075 113.501 173.504 113.274 173.97 113.21 C 174.417 113.143 174.873 113.184 175.3 113.33 C 176.095 113.612 176.854 113.988 177.56 114.45 C 178.994 115.242 180.523 115.851 182.11 116.26 C 183.36 116.58 184.641 116.768 185.93 116.82 C 187.19 116.82 188.53 116.82 189.78 116.73 C 190.376 116.662 190.944 116.442 191.43 116.092 C 191.917 115.742 192.306 115.273 192.56 114.73 C 192.773 114.143 192.943 113.541 193.07 112.93 L 193.54 111.07 C 194.8 106.07 196.11 101.26 197.59 96.54 C 198.34 94.18 199.1 91.85 200.07 89.6 C 200.32 89.04 200.58 88.49 200.88 87.95 C 201.04 87.68 201.2 87.42 201.39 87.16 C 201.59 86.875 201.858 86.645 202.17 86.49 C 202.278 86.448 202.395 86.434 202.51 86.448 C 202.625 86.462 202.735 86.504 202.83 86.57 C 202.982 86.683 203.106 86.83 203.19 87 C 203.335 87.283 203.446 87.581 203.52 87.89 C 203.68 88.48 203.8 89.07 203.91 89.66 C 204.7 94.37 205.06 99.01 205.47 103.53 C 206.24 112.59 206.8 121.2 207.47 129.24 C 207.66 131.24 207.85 133.24 208.1 135.15 C 208.206 136.097 208.377 137.036 208.61 137.96 C 208.641 138.065 208.677 138.169 208.72 138.27 C 208.736 138.312 208.756 138.352 208.78 138.39 C 208.78 138.39 208.78 138.39 208.78 138.39 C 208.78 138.39 208.73 138.39 208.78 138.47 C 208.83 138.55 208.78 138.36 208.73 138.39 C 208.68 138.42 208.73 138.39 208.73 138.39 C 208.758 138.349 208.781 138.306 208.8 138.26 L 208.95 137.95 C 209.14 137.53 209.31 137.09 209.48 136.65 C 210.76 133.14 211.86 129.71 213.1 126.5 C 214.177 123.397 215.614 120.43 217.38 117.66 C 217.824 117.019 218.36 116.446 218.97 115.96 C 219.268 115.723 219.607 115.544 219.97 115.43 C 220.333 115.341 220.7 115.271 221.07 115.22 C 222.499 115.005 223.96 115.203 225.28 115.79 C 226.55 116.34 227.64 117.11 228.83 117.48 C 230.016 117.711 231.222 117.824 232.43 117.82 C 234.76 117.88 236.9 117.82 238.82 117.82 L 247.66 117.7 L 249.96 117.7 C 250.53 117.57 250.8 117.58 250.8 117.58 Z"
        fill="#e0e0e0"/>
    <path
        id="path_14"
        d="M 572.38 206.15 L 589.38 206.15 L 589.38 312.37 C 589.38 313.399 588.971 314.386 588.244 315.114 C 587.516 315.841 586.529 316.25 585.5 316.25 L 576.24 316.25 C 575.211 316.25 574.224 315.841 573.496 315.114 C 572.769 314.386 572.36 313.399 572.36 312.37 L 572.36 206.15 Z"
        fill="#e0e0e0"/>
    <path
        id="path_15"
        d="M 571.64 224.74 L 588.64 224.74 L 588.64 301.06 C 588.64 302.089 588.231 303.076 587.504 303.804 C 586.776 304.531 585.789 304.94 584.76 304.94 L 575.5 304.94 C 574.471 304.94 573.484 304.531 572.756 303.804 C 572.029 303.076 571.62 302.089 571.62 301.06 L 571.62 224.74 Z"
        fill="#f5f5f5"/>
    <path
        id="path_16"
        d="M 581.8 217.92 L 593.14 217.92 L 593.14 268.39 L 581.8 268.39 L 581.8 217.92 Z"
        fill="#ffffff"/>
    <path
        id="path_17"
        d="M 574.39 316.06 C 575.125 316.167 575.876 316.084 576.57 315.82 C 577.404 315.482 578.094 314.863 578.52 314.07 C 578.766 313.555 578.931 313.005 579.01 312.44 C 579.13 311.83 579.25 311.18 579.39 310.5 C 580.5 305 582.09 297.05 584.08 287.17 C 588.08 267.38 593.7 239.87 599.99 208.92 L 600.19 209.22 L 587.33 206.6 L 583.53 205.82 L 583.84 205.62 C 577.04 238.69 570.93 268.45 566.51 289.97 C 565.4 295.34 564.39 300.19 563.51 304.46 C 563.29 305.52 563.07 306.55 562.87 307.54 C 562.77 308.03 562.66 308.54 562.57 309 C 562.45 309.451 562.377 309.914 562.35 310.38 C 562.346 311.251 562.639 312.097 563.18 312.78 C 563.678 313.396 564.356 313.84 565.12 314.05 L 572 315.52 L 573.79 315.91 C 574.19 316 574.39 316.06 574.39 316.06 L 573.78 315.96 L 571.98 315.62 L 565.07 314.24 C 564.214 314.019 563.454 313.52 562.912 312.822 C 562.369 312.123 562.073 311.264 562.07 310.38 C 562.09 309.894 562.16 309.411 562.28 308.94 C 562.37 308.47 562.47 307.94 562.57 307.49 C 562.77 306.49 562.97 305.49 563.19 304.4 C 564.05 300.13 565.03 295.27 566.12 289.89 C 570.5 268.37 576.55 238.6 583.29 205.51 L 583.29 205.26 L 583.54 205.31 L 587.35 206.09 L 600.21 208.72 L 600.46 208.77 L 600.46 209.02 C 594.1 239.97 588.46 267.46 584.38 287.24 L 579.54 310.53 C 579.39 311.22 579.26 311.86 579.13 312.47 C 579.045 313.052 578.866 313.616 578.6 314.14 C 578.163 314.947 577.454 315.574 576.6 315.91 C 576.074 316.111 575.511 316.193 574.95 316.15 C 574.761 316.139 574.573 316.109 574.39 316.06 Z"
        fill="#e0e0e0"/>
    <path
        id="path_18"
        d="M 585.42 185.3 L 602.16 185.3 C 602.69 185.3 603.199 185.511 603.574 185.886 C 603.949 186.261 604.16 186.77 604.16 187.3 L 604.16 212.44 L 583.4 212.44 L 583.4 187.32 C 583.396 186.964 583.488 186.614 583.665 186.306 C 583.841 185.997 584.097 185.741 584.406 185.565 C 584.714 185.388 585.064 185.296 585.42 185.3 Z"
        fill="#ebebeb"/>
    <path
        id="path_19"
        d="M 601.61 211.63 C 601.61 211.77 596.99 210.95 591.35 209.8 C 585.71 208.65 581.17 207.6 581.2 207.46 C 581.23 207.32 585.82 208.14 591.46 209.29 C 597.1 210.44 601.63 211.49 601.61 211.63 Z"
        fill="#e0e0e0"/>
    <path
        id="path_20"
        d="M 583.16 207.65 C 583.01 207.65 583.97 202.37 585.29 195.93 C 586.61 189.49 587.79 184.28 587.93 184.31 C 588.07 184.34 587.11 189.59 585.8 196.03 C 584.49 202.47 583.3 207.68 583.16 207.65 Z"
        fill="#e0e0e0"/>
    <path
        id="path_21"
        d="M 585.89 208.21 C 585.75 208.21 586.7 202.93 588.02 196.49 C 589.34 190.05 590.52 184.84 590.66 184.87 C 590.8 184.9 589.85 190.15 588.53 196.59 C 587.21 203.03 586 208.24 585.89 208.21 Z"
        fill="#e0e0e0"/>
    <path
        id="path_22"
        d="M 588.71 208.78 C 588.57 208.78 589.52 203.51 590.84 197.06 C 592.16 190.61 593.34 185.42 593.48 185.45 C 593.62 185.48 592.67 190.72 591.35 197.17 C 590.03 203.62 588.85 208.81 588.71 208.78 Z"
        fill="#e0e0e0"/>
    <path
        id="path_23"
        d="M 591.44 209.34 C 591.3 209.34 592.26 204.07 593.57 197.62 C 594.88 191.17 596.07 185.98 596.22 186.01 C 596.37 186.04 595.4 191.28 594.09 197.73 C 592.78 204.18 591.59 209.37 591.44 209.34 Z"
        fill="#e0e0e0"/>
    <path
        id="path_24"
        d="M 594.26 209.92 C 594.12 209.92 595.08 204.64 596.39 198.2 C 597.7 191.76 598.89 186.55 599.03 186.58 C 599.17 186.61 598.22 191.86 596.9 198.3 C 595.58 204.74 594.4 210 594.26 209.92 Z"
        fill="#e0e0e0"/>
    <path
        id="path_25"
        d="M 597 210.48 C 596.86 210.48 597.81 205.2 599.13 198.76 C 600.45 192.32 601.63 187.11 601.77 187.14 C 601.91 187.17 600.96 192.42 599.64 198.86 C 598.32 205.3 597.14 210.51 597 210.48 Z"
        fill="#e0e0e0"/>
    <path
        id="path_26"
        d="M 599.82 211.06 C 599.68 211.06 600.63 205.78 601.95 199.34 C 603.27 192.9 604.45 187.69 604.59 187.72 C 604.73 187.75 603.78 192.99 602.46 199.44 C 601.14 205.89 600 211.08 599.82 211.06 Z"
        fill="#e0e0e0"/>
    <path
        id="path_27"
        d="M 623.8 253.91 L 637.19 253.91 L 637.19 336.73 C 637.19 337.759 636.781 338.746 636.054 339.474 C 635.326 340.201 634.339 340.61 633.31 340.61 L 627.67 340.61 C 626.641 340.61 625.654 340.201 624.926 339.474 C 624.199 338.746 623.79 337.759 623.79 336.73 L 623.79 253.91 Z"
        fill="#e0e0e0"/>
    <path
        id="path_28"
        d="M 624.07 268.6 L 637.46 268.6 L 637.46 327.87 C 637.46 328.899 637.051 329.886 636.324 330.614 C 635.596 331.341 634.609 331.75 633.58 331.75 L 627.94 331.75 C 627.259 331.75 626.59 331.571 626 331.23 C 625.41 330.89 624.92 330.4 624.58 329.81 C 624.239 329.22 624.06 328.551 624.06 327.87 L 624.06 268.6 Z"
        fill="#f5f5f5"/>
    <path
        id="path_29"
        d="M 626.88 262.29 L 635.81 262.29 L 635.81 302.03 L 626.88 302.03 L 626.88 262.29 Z"
        fill="#ffffff"/>
    <path
        id="path_30"
        d="M 637.28 340.17 C 637.859 340.074 638.416 339.871 638.92 339.57 C 639.518 339.192 639.999 338.655 640.31 338.02 C 640.514 337.616 640.642 337.179 640.69 336.73 C 640.717 336.215 640.69 335.699 640.61 335.19 C 640.19 330.75 639.61 324.36 638.81 316.42 C 637.32 300.49 635.25 278.37 632.93 253.51 L 633.21 253.74 L 623.74 254.61 L 619.88 254.97 L 620.11 254.69 C 622.49 280.88 624.63 304.41 626.17 321.42 C 626.55 325.66 626.89 329.5 627.17 332.87 C 627.33 334.55 627.44 336.14 627.6 337.55 C 627.724 338.181 628.007 338.77 628.422 339.262 C 628.836 339.753 629.369 340.131 629.97 340.36 C 630.974 340.636 632.028 340.677 633.05 340.48 L 635.35 340.29 L 636.77 340.19 L 637.26 340.19 L 636.78 340.26 L 635.36 340.41 L 633.06 340.65 L 631.59 340.79 C 631.017 340.843 630.44 340.768 629.9 340.57 C 629.26 340.335 628.691 339.941 628.247 339.425 C 627.802 338.909 627.497 338.287 627.36 337.62 C 627.18 336.16 627.06 334.62 626.89 332.92 C 626.57 329.55 626.2 325.71 625.79 321.47 C 624.21 304.47 622.02 280.94 619.57 254.75 L 619.57 254.49 L 619.83 254.49 L 623.69 254.13 L 633.16 253.26 L 633.42 253.26 L 633.42 253.52 C 635.67 278.39 637.68 300.52 639.13 316.45 C 639.82 324.39 640.38 330.79 640.77 335.23 C 640.839 335.754 640.859 336.283 640.83 336.81 C 640.752 337.404 640.542 337.973 640.215 338.475 C 639.888 338.977 639.452 339.399 638.94 339.71 C 638.558 339.94 638.138 340.099 637.7 340.18 C 637.56 340.186 637.42 340.183 637.28 340.17 Z"
        fill="#e0e0e0"/>
    <path
        id="path_31"
        d="M 619.86 236.66 L 632.19 236.66 C 632.72 236.66 633.229 236.871 633.604 237.246 C 633.979 237.621 634.19 238.13 634.19 238.66 L 634.19 258 L 617.85 258 L 617.85 238.67 C 617.848 238.317 617.94 237.969 618.116 237.663 C 618.292 237.357 618.547 237.102 618.853 236.926 C 619.159 236.75 619.507 236.658 619.86 236.66 Z"
        fill="#ebebeb"/>
    <path
        id="path_32"
        d="M 634.82 255.18 C 629.414 256.026 623.96 256.527 618.49 256.68 C 621.179 256.174 623.898 255.84 626.63 255.68 C 629.346 255.333 632.082 255.166 634.82 255.18 Z"
        fill="#e0e0e0"/>
    <path
        id="path_33"
        d="M 620 256.38 C 619.448 253.297 619.074 250.186 618.88 247.06 C 618.5 243.954 618.3 240.829 618.28 237.7 C 618.82 240.784 619.194 243.895 619.4 247.02 C 619.768 250.127 619.969 253.251 620 256.38 Z"
        fill="#e0e0e0"/>
    <path
        id="path_34"
        d="M 622.2 256.18 C 621.648 253.097 621.274 249.986 621.08 246.86 C 620.7 243.754 620.5 240.629 620.48 237.5 C 621.019 240.581 621.39 243.689 621.59 246.81 C 621.964 249.92 622.168 253.048 622.2 256.18 Z"
        fill="#e0e0e0"/>
    <path
        id="path_35"
        d="M 624.45 256 C 623.91 252.916 623.536 249.805 623.33 246.68 C 622.962 243.573 622.761 240.449 622.73 237.32 C 623.282 240.403 623.656 243.514 623.85 246.64 C 624.224 249.746 624.425 252.871 624.45 256 Z"
        fill="#e0e0e0"/>
    <path
        id="path_36"
        d="M 626.64 255.77 C 626.1 252.686 625.726 249.575 625.52 246.45 C 625.152 243.343 624.952 240.219 624.92 237.09 C 625.452 240.171 625.813 243.279 626 246.4 C 626.382 249.51 626.596 252.637 626.64 255.77 Z"
        fill="#e0e0e0"/>
    <path
        id="path_37"
        d="M 628.9 255.56 C 628.348 252.477 627.974 249.366 627.78 246.24 C 627.4 243.134 627.199 240.009 627.18 236.88 C 627.72 239.964 628.094 243.075 628.3 246.2 C 628.668 249.307 628.869 252.431 628.9 255.56 Z"
        fill="#e0e0e0"/>
    <path
        id="path_38"
        d="M 631.09 255.36 C 630.546 252.264 630.183 249.138 630 246 C 629.62 242.894 629.42 239.769 629.4 236.64 C 629.94 239.724 630.314 242.835 630.52 245.96 C 630.88 249.081 631.07 252.219 631.09 255.36 Z"
        fill="#e0e0e0"/>
    <path
        id="path_39"
        d="M 633.34 255.15 C 632.8 252.069 632.426 248.961 632.22 245.84 C 631.851 242.73 631.651 239.602 631.62 236.47 C 632.172 239.553 632.546 242.664 632.74 245.79 C 633.12 248.896 633.32 252.021 633.34 255.15 Z"
        fill="#e0e0e0"/>
    <path
        id="path_40"
        d="M 233.24 181.63 C 231.48 173.81 224.05 167.1 216.08 167.88 C 211.37 168.34 207.08 171.25 204.25 175 C 203.233 176.266 202.307 177.602 201.48 179 C 200.653 177.602 199.727 176.266 198.71 175 C 195.83 171.24 191.6 168.33 186.89 167.86 C 178.89 167.07 171.49 173.78 169.71 181.59 C 167.93 189.4 170.88 197.7 175.71 204.1 C 180.54 210.5 188.54 218.7 202.12 221.82 C 211.07 219.76 222.42 210.52 227.24 204.13 C 232.06 197.74 235 189.44 233.24 181.63 Z"
        fill="#e0e0e0"/>
    <path
        id="path_41"
        d="M 231.77 196.13 L 231.51 196.13 L 230.73 196.13 L 227.73 196.13 L 216.78 196.21 L 216.97 196.07 C 215.97 199.61 214.86 203.75 213.61 208.29 L 213.41 209.03 L 213.16 208.31 L 206.78 190 C 206.07 188 205.38 185.95 204.7 184 L 205.17 184.05 L 198 196.23 L 197.94 196.34 L 197.8 196.34 L 178.55 196.24 L 173.1 196.17 L 171.65 196.17 C 171.488 196.193 171.322 196.193 171.16 196.17 L 171.65 196.17 L 173.1 196.17 L 178.55 196.11 L 197.8 196.02 L 197.6 196.14 L 204.71 183.92 L 204.99 183.43 L 205.18 183.96 C 205.86 185.96 206.55 187.96 207.26 189.96 L 213.63 208.39 L 213.17 208.39 C 214.46 203.85 215.62 199.72 216.62 196.19 L 216.62 196.05 L 216.76 196.05 L 227.71 196.14 L 230.71 196.14 L 231.49 196.14 Z"
        fill="#fafafa"/>
    <path
        id="path_42"
        d="M 360.55 147.88 L 357.13 236.19 L 312.91 234.76 C 312.39 229.63 311.81 209.76 311.81 209.76 C 311.81 209.76 293.35 207.76 292.26 189.46 C 291.73 180.57 292.13 162.11 292.68 145.46 C 292.98 136.591 296.74 128.183 303.151 122.046 C 309.561 115.91 318.126 112.521 327 112.61 L 327 112.61 C 333.063 112.686 338.997 114.383 344.184 117.523 C 349.37 120.664 353.624 125.135 356.501 130.472 C 359.379 135.81 360.777 141.821 360.55 147.88 Z"
        fill="#ffbe9d"/>
    <path
        id="path_43"
        d="M 311.79 209.76 C 320.257 209.517 328.464 206.759 335.36 201.84 C 335.36 201.84 330.36 215.29 311.98 214.51 Z"
        fill="#eb996e"/>
    <path
        id="path_44"
        d="M 298.69 158.56 C 298.716 159.242 299.008 159.888 299.503 160.359 C 299.997 160.829 300.657 161.088 301.34 161.08 C 301.786 161.094 302.228 160.989 302.62 160.776 C 303.012 160.562 303.34 160.248 303.571 159.866 C 303.801 159.483 303.925 159.046 303.93 158.6 C 303.904 157.917 303.613 157.27 303.118 156.798 C 302.623 156.325 301.964 156.064 301.28 156.07 C 300.833 156.058 300.391 156.164 299.999 156.379 C 299.607 156.594 299.279 156.909 299.049 157.292 C 298.819 157.675 298.695 158.113 298.69 158.56 Z"
        fill="#263238"/>
    <path
        id="path_45"
        d="M 297.06 154.79 C 297.4 155.12 299.31 153.56 302.13 153.43 C 304.95 153.3 307.08 154.62 307.37 154.26 C 307.51 154.1 307.15 153.5 306.22 152.88 C 304.959 152.094 303.484 151.716 302 151.8 C 300.541 151.867 299.14 152.396 298 153.31 C 297.16 154 296.89 154.65 297.06 154.79 Z"
        fill="#263238"/>
    <path
        id="path_46"
        d="M 325.38 158.47 C 325.403 159.149 325.69 159.793 326.178 160.265 C 326.667 160.737 327.321 161 328 161 C 328.447 161.014 328.89 160.909 329.283 160.694 C 329.676 160.48 330.004 160.164 330.234 159.78 C 330.464 159.396 330.587 158.957 330.59 158.51 C 330.564 157.839 330.281 157.203 329.798 156.736 C 329.316 156.268 328.672 156.005 328 156 C 327.551 155.978 327.105 156.078 326.708 156.289 C 326.311 156.499 325.978 156.813 325.744 157.197 C 325.511 157.581 325.385 158.021 325.38 158.47 Z"
        fill="#263238"/>
    <path
        id="path_47"
        d="M 324.77 154 C 325.11 154.32 327.02 152.76 329.84 152.64 C 332.66 152.52 334.84 153.82 335.08 153.46 C 335.22 153.3 334.86 152.7 333.93 152.09 C 332.671 151.306 331.201 150.928 329.72 151.01 C 328.26 151.072 326.857 151.602 325.72 152.52 C 324.87 153.23 324.6 153.86 324.77 154 Z"
        fill="#263238"/>
    <path
        id="path_48"
        d="M 315.53 175.38 C 315.53 175.22 313.78 175 310.92 174.77 C 310.2 174.77 309.51 174.62 309.37 174.13 C 309.271 173.391 309.404 172.64 309.75 171.98 C 310.34 170.2 310.96 168.35 311.61 166.4 C 314.2 158.46 316.03 151.95 315.71 151.85 C 315.39 151.75 313 158.1 310.45 166 Q 309.52 168.93 308.68 171.6 C 308.265 172.488 308.18 173.495 308.44 174.44 C 308.556 174.689 308.727 174.908 308.94 175.081 C 309.153 175.254 309.403 175.377 309.67 175.44 C 310.074 175.526 310.487 175.563 310.9 175.55 C 313.76 175.61 315.53 175.54 315.53 175.38 Z"
        fill="#263238"/>
    <path
        id="path_49"
        d="M 323.91 176.93 C 323.46 176.93 323.59 179.93 321.08 182.28 C 318.57 184.63 315.3 184.39 315.29 184.82 C 315.29 185.01 316.05 185.38 317.42 185.35 C 319.212 185.29 320.927 184.599 322.26 183.4 C 323.544 182.254 324.327 180.647 324.44 178.93 C 324.5 177.65 324.12 176.9 323.91 176.93 Z"
        fill="#263238"/>
    <path
        id="path_50"
        d="M 323.52 143 C 323.83 143.76 326.63 143.26 329.95 143.5 C 333.27 143.74 335.95 144.5 336.39 143.81 C 336.57 143.47 336.08 142.81 334.96 142.09 C 333.479 141.25 331.826 140.757 330.126 140.65 C 328.427 140.542 326.725 140.823 325.15 141.47 C 324 142 323.38 142.65 323.52 143 Z"
        fill="#263238"/>
    <path
        id="path_51"
        d="M 297.71 146.59 C 298.24 147.21 300.14 146.45 302.48 146.31 C 304.82 146.17 306.8 146.54 307.23 145.85 C 307.41 145.51 307.07 144.85 306.18 144.32 C 304.985 143.652 303.619 143.353 302.254 143.46 C 300.89 143.567 299.587 144.075 298.51 144.92 C 297.72 145.62 297.48 146.29 297.71 146.59 Z"
        fill="#263238"/>
    <path
        id="path_52"
        d="M 339.72 129 L 339.83 129.07 C 342.855 131.236 344.933 134.485 345.63 138.14 C 345.63 138.27 345.63 138.39 345.7 138.51 C 346.7 143.7 346.78 149.03 347.8 154.21 C 348.82 159.39 350.87 164.62 354.9 168.03 C 356.56 169.44 359.41 170.32 360.64 168.53 C 361.041 167.785 361.228 166.944 361.18 166.1 C 361.56 153.43 364.47 142.1 363.83 128.88 C 363.75 127.112 363.251 125.387 362.373 123.85 C 361.495 122.313 360.263 121.007 358.78 120.04 C 355.92 118.19 352.45 116.3 349.45 117.89 C 346.45 119.48 342.74 125.43 340.45 127.98"
        fill="#263238"/>
    <path
        id="path_53"
        d="M 354.79 156.77 C 355.09 156.62 367.2 152.45 367.39 165 C 367.58 177.55 354.95 175.15 354.92 174.79 C 354.89 174.43 354.79 156.77 354.79 156.77 Z"
        fill="#ffbe9d"/>
    <path
        id="path_54"
        d="M 358.68 170 C 358.74 170 358.9 170.15 359.27 170.31 C 359.796 170.519 360.384 170.519 360.91 170.31 C 362.23 169.8 363.31 167.68 363.34 165.42 C 363.355 164.344 363.13 163.278 362.68 162.3 C 362.557 161.909 362.341 161.553 362.05 161.264 C 361.759 160.975 361.402 160.761 361.01 160.64 C 360.758 160.577 360.492 160.605 360.258 160.718 C 360.024 160.831 359.837 161.023 359.73 161.26 C 359.56 161.62 359.65 161.87 359.58 161.89 C 359.51 161.91 359.31 161.68 359.4 161.16 C 359.464 160.849 359.634 160.57 359.88 160.37 C 360.224 160.104 360.658 159.983 361.09 160.03 C 361.606 160.123 362.09 160.348 362.495 160.683 C 362.899 161.017 363.211 161.45 363.4 161.94 C 363.951 163.02 364.229 164.218 364.21 165.43 C 364.21 167.96 362.91 170.34 361.11 170.89 C 360.775 170.993 360.422 171.019 360.076 170.967 C 359.73 170.915 359.4 170.786 359.11 170.59 C 358.71 170.28 358.64 170 358.68 170 Z"
        fill="#eb996e"/>
    <path
        id="path_55"
        d="M 351.34 121.77 C 354.96 117.12 347.34 109.04 341.34 106.42 C 335.34 103.8 326.97 105.93 320.62 107.29 C 316.62 108.15 312.57 109.52 308.52 108.91 C 305.831 108.337 303.243 107.366 300.84 106.03 C 298.428 104.696 295.772 103.863 293.03 103.58 C 290.29 103.47 287.33 104.58 286.03 107.03 C 284.73 109.48 285.82 113.03 288.48 113.74 C 285.24 111.46 279.98 113.41 278.99 117.25 C 278 121.09 281.67 125.33 285.61 124.91 C 283.99 123.37 281.02 125.29 281 127.53 C 280.98 129.77 282.81 131.6 284.75 132.72 C 289.75 135.57 295.84 135.5 301.42 134.28 C 307 133.06 312.3 130.77 317.85 129.41 C 323.4 128.05 332.72 125.53 337.85 128.01 C 341.65 129.83 343.85 134.88 346.21 134.07 C 347.322 133.626 348.314 132.927 349.106 132.029 C 349.898 131.131 350.468 130.059 350.77 128.9 C 351.332 126.568 351.511 124.16 351.3 121.77"
        fill="#263238"/>
    <path
        id="path_56"
        d="M 289.18 114.65 C 289.18 114.65 288.94 114.76 288.55 115.04 C 287.978 115.451 287.534 116.017 287.27 116.67 C 286.839 117.694 286.744 118.829 287 119.91 C 287.165 120.62 287.473 121.289 287.904 121.877 C 288.336 122.465 288.882 122.959 289.51 123.33 C 291.057 124.227 292.812 124.706 294.6 124.72 C 296.66 124.732 298.71 124.432 300.68 123.83 C 304.89 122.61 309.06 120.12 313.46 117.59 C 317.86 115.06 322.35 112.95 326.81 112.41 C 328.909 112.136 331.041 112.268 333.09 112.8 C 334.886 113.267 336.581 114.06 338.09 115.14 C 340.281 116.673 342.046 118.738 343.22 121.14 C 343.673 122.001 344.01 122.92 344.22 123.87 C 344.16 123.87 343.92 122.87 343.07 121.23 C 341.844 118.919 340.073 116.942 337.91 115.47 C 336.441 114.443 334.798 113.691 333.06 113.25 C 331.06 112.749 328.982 112.637 326.94 112.92 C 322.6 113.47 318.17 115.57 313.8 118.08 C 309.43 120.59 305.19 123.08 300.9 124.32 C 298.877 124.929 296.772 125.219 294.66 125.18 C 292.799 125.152 290.98 124.627 289.39 123.66 C 288.704 123.218 288.107 122.652 287.63 121.99 C 287.1 121.208 286.779 120.302 286.696 119.361 C 286.614 118.42 286.774 117.473 287.16 116.61 C 287.459 115.94 287.95 115.373 288.57 114.98 C 288.757 114.842 288.962 114.731 289.18 114.65 Z"
        fill="#455a64"/>
    <path
        id="path_57"
        d="M 333.51 108.31 C 333.781 108.263 334.059 108.263 334.33 108.31 C 335.069 108.36 335.8 108.491 336.51 108.7 C 338.892 109.371 341.016 110.748 342.6 112.649 C 344.185 114.55 345.158 116.886 345.39 119.35 C 345.462 120.088 345.462 120.832 345.39 121.57 C 345.38 121.841 345.323 122.109 345.22 122.36 C 345.12 122.36 345.29 121.21 345.03 119.36 C 344.715 116.995 343.737 114.767 342.21 112.934 C 340.683 111.101 338.669 109.737 336.4 109 C 334.66 108.45 333.5 108.41 333.51 108.31 Z"
        fill="#455a64"/>
    <path
        id="path_58"
        d="M 363.57 140.46 C 363.264 140.633 362.921 140.729 362.57 140.74 C 361.587 140.824 360.601 140.612 359.74 140.13 C 358.452 139.434 357.406 138.363 356.74 137.06 C 355.964 135.491 355.387 133.832 355.02 132.12 C 354.663 130.448 354.102 128.826 353.35 127.29 C 352.726 126.058 351.747 125.041 350.54 124.37 C 349.731 123.911 348.81 123.682 347.88 123.71 C 347.23 123.71 346.88 123.88 346.88 123.83 C 347.183 123.645 347.526 123.536 347.88 123.51 C 348.858 123.398 349.848 123.583 350.72 124.04 C 352.023 124.703 353.091 125.75 353.78 127.04 C 354.57 128.61 355.148 130.278 355.5 132 C 355.858 133.671 356.408 135.295 357.14 136.84 C 357.747 138.085 358.703 139.127 359.89 139.84 C 360.689 140.315 361.601 140.567 362.53 140.57 C 363.19 140.53 363.55 140.41 363.57 140.46 Z"
        fill="#455a64"/>
    <path
        id="path_59"
        d="M 362.91 148.75 C 362.91 148.75 362.81 148.75 362.6 148.83 C 362.303 148.893 362.003 148.933 361.7 148.95 C 360.58 149.033 359.454 148.945 358.36 148.69 C 354.693 147.836 351.478 145.633 349.36 142.52 C 347.289 139.438 346.02 135.887 345.67 132.19 C 345.633 131.569 345.536 130.952 345.38 130.35 C 345.256 129.911 345.002 129.52 344.65 129.23 C 344.338 128.99 343.962 128.847 343.57 128.82 C 343.775 128.753 343.994 128.74 344.206 128.782 C 344.418 128.824 344.616 128.92 344.78 129.06 C 345.186 129.357 345.49 129.773 345.65 130.25 C 345.843 130.865 345.97 131.498 346.03 132.14 C 346.48 135.747 347.768 139.199 349.79 142.22 C 351.841 145.22 354.9 147.388 358.41 148.33 C 359.886 148.664 361.398 148.805 362.91 148.75 Z"
        fill="#455a64"/>
    <path
        id="path_60"
        d="M 275.18 465.51 L 417.18 464.59 L 402.85 378.77 L 400.36 231.22 L 372 222.56 L 358 214.66 L 311.93 220.49 L 306 228 C 306 228 285.84 234.8 277.12 238.79 L 276.52 239.06 C 270.336 241.881 265.096 246.426 261.43 252.15 L 223 311.94 L 166.8 279.17 L 147 308 C 147 308 216 365.44 228.51 364.27 C 241.02 363.1 245.36 363.09 249.68 357.21 C 252.99 352.69 266 337.38 272.2 327.15 L 278.53 397.84 Z"
        fill="#ebebeb"/>
    <path
        id="path_61"
        d="M 320.17 465.6 C 320.02 465.6 318.88 434.16 317.63 395.37 C 316.38 356.58 315.46 325.12 315.63 325.12 C 315.8 325.12 316.91 356.55 318.17 395.36 C 319.43 434.17 320.31 465.6 320.17 465.6 Z"
        fill="#263238"/>
    <path
        id="path_62"
        d="M 312.11 219.91 L 315.68 327.25 L 357.96 214.66 L 312.11 219.91 Z"
        fill="#ffbe9d"/>
    <path
        id="path_63"
        d="M 316 333.3 C 315.941 333.196 315.894 333.085 315.86 332.97 C 315.76 332.73 315.64 332.41 315.49 331.97 C 315.14 331.09 314.66 329.85 314.04 328.26 C 312.75 325.06 310.86 320.43 308.24 314.84 C 306.9 312.05 305.4 309.02 303.62 305.84 C 301.779 302.483 299.558 299.349 297 296.5 C 295.6 295.06 293.93 293.55 293.34 291.34 C 293.086 290.244 293.114 289.102 293.42 288.02 C 293.69 286.94 294.07 285.9 294.42 284.85 C 295.81 280.62 297.26 276.25 298.73 271.78 L 298.82 271.5 L 299.09 271.84 L 282.09 273.38 L 282.09 272.88 L 291.16 254.88 C 293.95 249.4 296.47 244.57 298.64 240.59 C 300.81 236.61 302.64 233.47 303.91 231.36 C 304.56 230.3 305.08 229.49 305.44 228.95 L 305.85 228.35 C 305.95 228.21 306 228.14 306.01 228.15 L 305.89 228.37 L 305.51 229 C 305.17 229.59 304.68 230.4 304.06 231.45 C 302.81 233.59 301.06 236.74 298.92 240.74 C 296.78 244.74 294.3 249.58 291.54 255.08 L 287.2 263.78 L 284.87 268.44 L 283.66 270.84 L 283.03 272.05 L 282.7 272.65 L 282.53 272.96 L 282.43 273.11 C 282.36 273.221 282.254 273.306 282.13 273.35 L 282.13 272.85 L 299.13 271.29 L 299.52 271.29 L 299.4 271.67 L 299.31 271.94 C 297.83 276.41 296.38 280.78 294.99 285.01 C 294.33 287.1 293.37 289.2 293.91 291.22 C 294.45 293.24 296.03 294.72 297.43 296.16 C 300.019 299.065 302.258 302.263 304.1 305.69 C 305.88 308.87 307.36 311.92 308.68 314.69 C 311.26 320.31 313.11 324.97 314.34 328.2 C 314.94 329.82 315.4 331.08 315.69 331.94 Q 315.92 332.58 316.02 332.94 C 316.021 333.06 316.015 333.181 316 333.3 Z"
        fill="#263238"/>
    <path
        id="path_64"
        d="M 315.86 334.31 C 315.845 334.194 315.845 334.076 315.86 333.96 L 316.02 332.96 C 316.256 331.652 316.607 330.367 317.07 329.12 C 318.885 324.552 321.188 320.193 323.94 316.12 C 325.65 313.52 327.6 310.72 329.81 307.78 C 332.142 304.644 334.646 301.639 337.31 298.78 C 340.272 295.571 343.515 292.633 347 290 C 348.861 288.623 350.794 287.344 352.79 286.17 C 354.79 284.97 356.89 283.83 358.89 282.5 L 358.82 282.86 C 356.094 278.79 352.4 275.46 348.07 273.17 L 347.71 272.98 L 348.04 272.74 C 354.223 268.131 361.427 265.081 369.04 263.85 L 368.85 264.06 L 371.02 234.22 C 371.3 230.62 371.52 227.76 371.68 225.78 C 371.76 224.78 371.82 224.08 371.87 223.55 L 371.93 222.98 C 371.918 222.914 371.918 222.846 371.93 222.78 C 371.937 222.846 371.937 222.914 371.93 222.98 L 371.93 223.55 C 371.93 224.09 371.86 224.84 371.81 225.79 C 371.69 227.79 371.51 230.63 371.29 234.24 C 370.8 241.53 370.12 251.84 369.29 264.1 L 369.29 264.28 L 369.11 264.28 C 361.572 265.516 354.44 268.548 348.32 273.12 L 348.32 272.69 C 352.726 275.016 356.486 278.401 359.26 282.54 L 359.41 282.75 L 359.19 282.9 C 357.19 284.24 355.07 285.39 353.06 286.59 C 351.078 287.747 349.158 289.009 347.31 290.37 C 343.857 292.982 340.638 295.889 337.69 299.06 C 335.023 301.917 332.519 304.922 330.19 308.06 C 327.97 310.97 326 313.75 324.28 316.34 C 321.503 320.367 319.157 324.673 317.28 329.19 C 316.796 330.42 316.414 331.687 316.14 332.98 C 316.05 333.4 315.98 333.74 315.93 333.98 C 315.919 334.092 315.895 334.203 315.86 334.31 Z"
        fill="#263238"/>
    <path
        id="path_65"
        d="M 339.78 301.58 L 369.64 301.58 L 369.64 307.39 L 339.78 307.39 L 339.78 301.58 Z"
        fill="#263238"/>
    <path
        id="path_66"
        d="M 362.9 353.91 C 362.738 353.984 362.566 354.034 362.39 354.06 L 360.91 354.38 C 359.085 354.759 357.238 355.023 355.38 355.17 C 352.6 355.422 349.798 355.081 347.16 354.17 C 343.878 353.028 341.156 350.668 339.56 347.58 C 338.143 344.464 337.436 341.072 337.49 337.65 C 337.49 334.52 337.59 331.75 337.6 329.39 C 337.61 327.03 337.68 325.14 337.75 323.82 C 337.75 323.16 337.82 322.65 337.85 322.31 C 337.849 322.13 337.876 321.951 337.93 321.78 C 337.942 321.956 337.942 322.134 337.93 322.31 C 337.93 322.72 337.93 323.22 337.93 323.83 C 337.93 325.22 337.93 327.1 337.93 329.39 L 337.93 337.64 C 337.902 340.988 338.605 344.302 339.99 347.35 C 341.521 350.322 344.129 352.601 347.28 353.72 C 349.845 354.623 352.568 354.987 355.28 354.79 C 357.126 354.678 358.965 354.471 360.79 354.17 L 362.29 353.95 C 362.491 353.913 362.696 353.899 362.9 353.91 Z"
        fill="#263238"/>
    <path
        id="path_67"
        d="M 368.3 321.09 C 368.3 321.23 361.5 321.51 353.12 321.7 C 344.74 321.89 337.93 321.94 337.93 321.79 C 337.93 321.64 344.72 321.38 353.11 321.18 C 361.5 320.98 368.3 321 368.3 321.09 Z"
        fill="#263238"/>
    <path
        id="path_68"
        d="M 353.51 321.3 L 353.51 311.39 C 353.51 310.879 353.644 310.377 353.9 309.935 C 354.155 309.493 354.523 309.125 354.965 308.87 C 355.407 308.614 355.909 308.48 356.42 308.48 L 356.42 308.48 C 357.191 308.48 357.932 308.787 358.478 309.332 C 359.023 309.878 359.33 310.619 359.33 311.39 L 359.33 327.72 C 359.348 327.985 359.26 328.246 359.085 328.446 C 358.911 328.646 358.664 328.768 358.4 328.787 C 358.135 328.805 357.874 328.718 357.673 328.544 C 357.473 328.371 357.349 328.125 357.33 327.86 C 357.33 327.74 357.33 327.6 357.33 327.47 C 357.33 324.98 357.05 321.18 357.05 321.18 Z"
        fill="#ff2000"/>
    <path
        id="path_69"
        d="M 353 338.42 C 352.742 336.096 352.655 333.757 352.74 331.42 C 352.654 329.083 352.741 326.744 353 324.42 C 353.259 326.744 353.346 329.083 353.26 331.42 C 353.345 333.757 353.258 336.096 353 338.42 Z"
        fill="#263238"/>
    <path
        id="path_70"
        d="M 358.63 351.39 C 358.49 351.39 358.37 346.39 358.37 340.25 C 358.37 334.11 358.49 329.11 358.63 329.11 C 358.77 329.11 358.89 334.11 358.89 340.25 C 358.89 346.39 358.78 351.39 358.63 351.39 Z"
        fill="#263238"/>
    <path
        id="path_71"
        d="M 312.86 242.49 L 326.75 259.44 C 336.56 249.54 343.61 239.76 349.75 235.44 C 349.75 235.44 315.69 328.76 315.64 327.21 C 315.59 325.66 312.86 242.49 312.86 242.49 Z"
        fill="#ff2000"/>
    <path
        id="path_72"
        d="M 349.79 235.48 C 349.686 235.621 349.569 235.752 349.44 235.87 L 348.36 236.87 C 347.42 237.76 346.08 239.08 344.44 240.72 C 341.15 243.99 336.78 248.72 332.01 253.92 C 327.24 259.12 322.81 263.82 319.45 267.04 C 317.77 268.65 316.39 269.92 315.4 270.77 L 314.26 271.77 C 314.133 271.893 313.992 272 313.84 272.09 C 313.84 272.09 313.95 271.94 314.19 271.7 L 315.26 270.7 C 316.21 269.81 317.55 268.49 319.19 266.85 C 322.47 263.58 326.84 258.85 331.62 253.65 C 336.4 248.45 340.82 243.75 344.18 240.53 C 345.86 238.92 347.24 237.65 348.23 236.8 L 349.36 235.8 C 349.63 235.57 349.77 235.46 349.79 235.48 Z"
        fill="#263238"/>
    <path
        id="path_73"
        d="M 326.66 259.37 C 326.55 259.46 323.37 255.76 319.56 251.1 C 315.75 246.44 312.75 242.58 312.86 242.49 C 312.97 242.4 316.15 246.1 319.96 250.77 C 323.77 255.44 326.77 259.28 326.66 259.37 Z"
        fill="#263238"/>
    <path
        id="path_74"
        d="M 267.62 274.91 C 267.685 275.138 267.725 275.373 267.74 275.61 C 267.81 276.12 267.89 276.79 267.99 277.61 C 268.2 279.36 268.47 281.89 268.79 285.03 C 269.42 291.3 270.17 299.97 270.95 309.55 C 271.73 319.13 272.45 327.75 272.95 334.08 C 273.21 337.17 273.42 339.7 273.57 341.51 C 273.64 342.35 273.69 343.02 273.73 343.51 C 273.748 343.746 273.748 343.984 273.73 344.22 C 273.664 343.991 273.621 343.757 273.6 343.52 C 273.54 343.01 273.46 342.34 273.35 341.52 C 273.14 339.77 272.87 337.24 272.56 334.1 C 271.93 327.83 271.17 319.16 270.39 309.58 C 269.61 300 268.9 291.38 268.39 285.05 C 268.13 281.96 267.92 279.43 267.76 277.62 C 267.7 276.78 267.65 276.11 267.61 275.62 C 267.589 275.384 267.592 275.146 267.62 274.91 Z"
        fill="#263238"/>
    <path
        id="path_75"
        d="M 398.31 231 C 398.31 231 420.57 231 426.15 273.82 C 431.73 316.64 444 395.17 421.69 410.06 C 399.38 424.95 296 423.9 296 423.9 L 296 382.42 L 380.82 373.06 C 380.82 373.06 380.5 365.34 384.82 365.4 L 380 267.52 C 380 267.52 379 232.86 398.31 231 Z"
        fill="#ebebeb"/>
    <path
        id="path_76"
        d="M 380.22 300.05 C 380.22 300.05 380.22 300.45 380.31 301.23 C 380.4 302.01 380.42 303.23 380.51 304.71 C 380.67 307.78 380.91 312.26 381.22 318 C 381.81 329.51 382.66 346.05 383.7 366.2 L 383.7 366.41 L 383.48 366.41 C 382.763 366.428 382.074 366.693 381.53 367.16 C 380.978 367.687 380.566 368.344 380.33 369.07 C 379.828 370.611 379.611 372.231 379.69 373.85 L 379.69 374.06 L 379.49 374.06 L 296.03 382.65 L 296.26 382.39 L 296.26 423.9 L 296.01 423.65 C 332.12 424.04 363.61 422.65 385.86 419.8 C 391.43 419.09 396.4 418.28 400.73 417.43 C 404.412 416.704 408.054 415.786 411.64 414.68 C 413.09 414.19 414.37 413.68 415.47 413.29 C 416.57 412.9 417.47 412.43 418.18 412.06 L 419.76 411.16 L 420.31 410.87 C 420.31 410.87 420.14 410.99 419.79 411.2 L 418.22 412.14 C 417.51 412.52 416.59 412.91 415.52 413.42 C 414.45 413.93 413.15 414.34 411.69 414.84 C 408.107 415.98 404.465 416.928 400.78 417.68 C 396.45 418.56 391.47 419.39 385.91 420.12 C 363.64 423.01 332.13 424.52 296 424.12 L 295.75 424.12 L 295.75 423.87 C 295.75 411.87 295.75 399.21 295.75 386.18 L 295.75 382.18 L 295.99 382.18 L 379.45 373.68 L 379.25 373.91 C 379.16 372.215 379.391 370.519 379.93 368.91 C 380.188 368.122 380.638 367.411 381.24 366.84 C 381.865 366.31 382.651 366.007 383.47 365.98 L 383.27 366.2 C 382.27 346.05 381.52 329.51 380.98 317.99 C 380.72 312.25 380.51 307.77 380.37 304.7 C 380.31 303.18 380.27 302.02 380.23 301.22 C 380.19 300.42 380.22 300.05 380.22 300.05 Z"
        fill="#263238"/>
    <path
        id="path_77"
        d="M 395.7 376.3 C 395.61 376.3 395.28 375.44 394.52 374.14 C 393.519 372.452 392.237 370.947 390.73 369.69 C 389.215 368.442 387.501 367.459 385.66 366.78 C 384.25 366.27 383.31 366.11 383.33 366.02 C 384.164 366.012 384.994 366.15 385.78 366.43 C 387.714 367.023 389.51 367.994 391.065 369.286 C 392.621 370.579 393.904 372.168 394.84 373.96 C 395.264 374.682 395.556 375.475 395.7 376.3 Z"
        fill="#263238"/>
    <path
        id="path_78"
        d="M 385.73 384 C 384.53 380.044 382.316 376.468 379.31 373.63 C 379.871 373.891 380.377 374.258 380.8 374.71 C 381.905 375.709 382.861 376.861 383.64 378.13 C 384.428 379.392 385.034 380.759 385.44 382.19 C 385.657 382.768 385.755 383.383 385.73 384 Z"
        fill="#263238"/>
    <path
        id="path_79"
        d="M 92.67 262.34 L 153.47 424 L 282.44 426.61 L 229.29 263.45 L 92.67 262.34 Z"
        fill="#ff2000"/>
    <path
        id="path_80"
        d="M 173.88 424.29 C 173.88 424.29 143 365 133.41 325.44 C 127.94 303.07 123.07 262.54 123.07 262.54 L 203.57 263.25 C 203.57 263.25 230.27 305.74 245.64 348.2 C 254.845 373.531 261.596 399.688 265.8 426.31 L 224.49 425.4 L 210.9 385.78 C 210.9 385.78 206.66 388.07 200.83 385.11 L 214.83 425.19 Z"
        fill="#ffffff"
        fill-opacity="0.5"
        stroke-opacity="0.5"
        stroke-width="1"/>
    <path
        id="path_81"
        d="M 218 360.61 C 217.25 358.43 214 350.73 214.52 346.89 C 215.04 343.05 218.84 338.89 219.05 335.04 C 219.26 331.19 219.37 322.61 218.39 318.43 C 217.359 314.733 216.093 311.106 214.6 307.57 C 214.6 307.57 208.77 298.34 202.91 298.13 L 195.78 297.87 C 195.78 297.87 190.62 299.11 193.12 305.49 C 195.62 311.87 201.52 322.82 202.37 324.71 C 203.22 326.6 207.2 333.9 206.3 338.58 C 205.4 343.26 198.59 356.32 199.49 359.5 L 195.84 359.37 C 195.84 359.37 192.47 353.53 187.74 351.06 C 183.01 348.59 172.86 337.93 170.74 331.56 C 168.62 325.19 166.24 310.37 164.81 305.88 C 163.38 301.39 161.17 297.45 157.46 296.45 C 153.75 295.45 148.78 296.71 148.78 296.71 C 148.78 296.71 142.13 299 145.1 309 C 148.07 319 149.74 319.61 153.26 325.46 C 156.78 331.31 157.67 333.06 160.46 335.6 C 163.25 338.14 169.85 340.95 172.69 347.06 C 175.53 353.17 177 360.26 182.08 369 C 187.16 377.74 189.08 381 193.08 381 C 197.08 381 198.38 376.47 198.53 373.75 C 198.627 372.322 198.627 370.888 198.53 369.46 L 203.37 369.64 C 203.37 369.64 208.84 379.86 214.58 381.78 C 220.32 383.7 219.92 378.54 220.21 376.54 C 220.5 374.54 218.79 362.78 218 360.61 Z M 189.65 372.41 C 188.13 371.63 185.48 366.51 182.85 362.07 C 180.85 358.75 181.06 357 181.27 356.33 C 181.304 356.213 181.354 356.102 181.42 356 L 181.34 356.11 C 181.54 354.95 183.49 355.46 184.92 356.03 C 185.97 356.45 190.97 358.4 192.6 365.64 C 194.23 372.88 191.21 373.18 189.68 372.41 Z M 214.73 373.32 C 213.73 374 210.36 373.47 207.01 366.17 C 203.66 358.87 207.43 357.23 208.22 356.88 C 209.29 356.4 210.94 356.02 211.94 357.22 L 211.79 357.11 C 211.924 357.214 212.051 357.328 212.17 357.45 C 213.6 359.047 214.438 361.089 214.54 363.23 C 215 367.58 215.78 372.64 214.76 373.32 Z"
        fill="#ffffff"/>
    <path
        id="path_82"
        d="M 197.55 357 C 198.75 356.92 197.9 352.36 197.9 352.36 C 198.029 350.642 198.029 348.918 197.9 347.2 C 197.68 345.05 198.79 343.08 199.56 341.09 C 200.33 339.1 199.56 333.79 198.56 331.09 C 197.56 328.39 198.26 328.18 198.26 328.18 C 201.34 327.18 198.5 320.77 196.43 314.78 C 194.36 308.79 192.3 309.22 192.3 309.22 C 192.3 309.22 190.92 309.17 190.13 314.05 C 189.34 318.93 187.99 320.66 185.03 320.65 L 183.45 320.65 C 180.45 320.65 177.82 318.55 173.62 313.49 C 169.42 308.43 168.05 308.38 168.05 308.38 C 168.05 308.38 165.64 307.79 167.68 313.78 C 169.72 319.77 171.25 326.11 175.11 327.39 C 175.11 327.39 175.91 327.67 176.82 330.39 C 177.73 333.11 180.59 338.46 182.76 340.55 C 184.93 342.64 187.44 344.75 188.7 346.93 C 189.96 349.11 192.31 352.22 192.31 352.22 C 192.31 352.22 195.18 356.86 196.46 357.03 Z"
        fill="#ffffff"/>
    <path
        id="path_83"
        d="M 160.12 264 C 160.12 264 158.55 264.45 159.68 267.08 C 160.81 269.71 160.68 271.26 161.33 271.97 C 162.02 272.683 162.754 273.351 163.53 273.97 C 163.53 273.97 161.73 274.59 163.06 277.4 C 164.39 280.21 164.73 282.98 165.34 284.21 C 165.95 285.44 167.24 285.84 167.84 286.55 C 168.44 287.26 165.84 286.47 166.52 288.91 C 167.2 291.35 168.74 293.13 168.73 295.38 C 168.72 297.63 169.82 300.59 171.96 301.7 C 174.1 302.81 173.7 304.35 173.76 305.56 C 173.887 307.219 174.223 308.855 174.76 310.43 C 175.6 313.56 180.41 318.43 183.36 318.16 C 186.31 317.89 189.14 314.41 188.43 312.31 C 187.223 309.445 185.606 306.77 183.63 304.37 C 182.38 303.12 181.32 303.08 181.55 301.71 C 181.78 300.34 183.32 302.46 183.25 300.56 C 183.308 298.602 182.801 296.668 181.79 294.99 C 180.6 293.22 180.24 291.49 179.1 289.2 C 177.96 286.91 175.73 286.49 175.91 285.98 C 176.09 285.47 177.31 285.69 176.3 283.41 C 175.29 281.13 175.23 282.68 174.15 279.19 C 173.07 275.7 172.58 273.61 171.53 273.92 C 170.48 274.23 170.64 272.68 170.27 270.25 C 169.9 267.82 170.78 268.72 169.27 266.08 C 167.76 263.44 160.12 264 160.12 264 Z"
        fill="#ffffff"/>
    <path
        id="path_84"
        d="M 162.14 349.9 L 163.47 346.72 L 161.32 340.33 C 161.32 340.33 164.92 338.14 169.93 345.41 C 174.94 352.68 174.61 356.13 174.61 356.13 L 168.67 355.92 C 167.842 358.002 167.768 360.309 168.46 362.44 C 169.67 365.72 171.46 365.32 173.05 371.07 C 173.881 373.701 174.473 376.402 174.82 379.14 L 193.34 424 L 185.07 423.7 L 165.07 376.17 C 165.07 376.17 162.8 374.7 159.07 367.49 C 155.34 360.28 151.84 350.91 154.23 348.38 C 156.62 345.85 162.14 349.9 162.14 349.9 Z"
        fill="#ffffff"/>
    <path
        id="path_85"
        d="M 228.19 352.31 L 224.62 349 L 222.39 342.61 C 222.39 342.61 217.17 340.1 217.08 347.18 C 216.99 354.26 219.73 357.83 219.73 357.83 L 225.67 358.04 C 225.67 358.04 229.38 361.48 230.41 364.74 C 231.44 368 229.41 367.47 231.69 373.25 C 232.749 376.052 234.012 378.773 235.47 381.39 L 247.59 426 L 255.87 426.3 L 243.39 379 C 243.39 379 244.71 377.66 243.48 370.54 C 242.25 363.42 239.4 354.09 235.18 351.32 C 234.121 350.527 232.79 350.185 231.48 350.371 C 230.171 350.556 228.987 351.254 228.19 352.31 Z"
        fill="#ffffff"/>
    <path
        id="path_86"
        d="M 92.67 262.34 L 229.29 263.23 L 229.44 263.23 L 229.49 263.38 C 244.42 309.16 262.37 364.22 281.68 423.38 L 282.68 426.49 L 282.8 426.84 L 282.43 426.84 L 153.43 424.21 L 153.27 424.21 L 153.21 424.06 L 92.67 262.34 C 93.39 264.27 117.52 328.14 153.67 423.92 L 153.46 423.77 L 282.46 426.35 L 282.21 426.69 C 281.87 425.69 281.53 424.63 281.21 423.58 L 229.11 263.52 L 229.31 263.67 Z"
        fill="#263238"/>
    <path
        id="path_87"
        d="M 296.2 385.8 L 283.27 385.8 C 283.27 385.8 276.65 379.41 274.85 378.51 C 273.05 377.61 264.21 374.94 264.21 374.94 L 267.62 384.4 C 268.154 384.552 268.678 384.736 269.19 384.95 C 271.45 385.83 270.82 387.83 269.02 387.83 L 256 387.83 C 256 387.83 242.66 381.43 240.68 382.6 C 239.02 383.6 238.44 385.35 240.14 387.83 C 241.84 390.31 253.53 396.14 254.87 396.59 L 258.69 397.71 L 255.1 398.83 L 238.1 392.9 C 236.99 392.7 235.47 392.52 234.97 393.16 C 234.682 393.451 234.477 393.815 234.379 394.213 C 234.281 394.611 234.293 395.029 234.412 395.421 C 234.532 395.813 234.756 396.165 235.06 396.44 C 237.482 398.63 240.052 400.651 242.75 402.49 C 242.75 402.49 240.04 406.49 242.28 408.49 C 244.52 410.49 251.04 416.58 251.04 416.58 C 251.04 416.58 251.72 419.95 253.74 421.52 C 255.76 423.09 278 423.09 279.57 423.09 C 281.14 423.09 290.13 417.93 290.13 417.93 L 296.01 417.31 Z"
        fill="#ffbe9d"/>
    <path
        id="path_88"
        d="M 257.65 408.91 C 256.866 409.162 256.043 409.274 255.22 409.24 C 254.312 409.243 253.412 409.084 252.56 408.77 C 251.542 408.367 250.572 407.851 249.67 407.23 C 247.74 405.98 246.02 404.82 244.78 403.96 C 244.085 403.538 243.438 403.041 242.85 402.48 C 243.603 402.792 244.321 403.185 244.99 403.65 C 246.27 404.43 247.99 405.54 249.99 406.79 C 250.864 407.39 251.795 407.902 252.77 408.32 C 253.566 408.643 254.412 408.829 255.27 408.87 C 256.71 408.94 257.65 408.82 257.65 408.91 Z"
        fill="#eb996e"/>
    <path
        id="path_89"
        d="M 258.67 417.23 C 258.72 417.23 258.19 417.87 256.99 418.18 C 255.418 418.516 253.776 418.241 252.4 417.41 C 251.051 416.643 249.801 415.713 248.68 414.64 C 248.18 414.233 247.751 413.747 247.41 413.2 C 247.53 413.06 249.57 415.2 252.65 416.95 C 253.926 417.725 255.432 418.033 256.91 417.82 C 257.513 417.675 258.102 417.478 258.67 417.23 Z"
        fill="#eb996e"/>
    <path
        id="path_90"
        d="M 265 398.82 C 263.82 398.966 262.623 398.875 261.48 398.55 C 260.302 398.394 259.167 398.007 258.14 397.41 C 259.307 397.513 260.462 397.724 261.59 398.04 C 262.748 398.196 263.889 398.457 265 398.82 Z"
        fill="#eb996e"/>
    <path
        id="path_91"
        d="M 87.63 291.57 C 86.783 291.088 86.082 290.385 85.601 289.537 C 85.12 288.689 84.877 287.727 84.898 286.752 C 84.919 285.778 85.203 284.827 85.72 284 C 86.193 283.12 86.881 282.373 87.72 281.83 C 89.89 280.68 109.09 277.08 111.15 276.83 C 113.21 276.58 113.59 280.5 110.9 282.45 C 108.21 284.4 87.68 291.59 87.68 291.59 Z"
        fill="#ffbe9d"/>
    <path
        id="path_92"
        d="M 92.1 305.49 C 91.258 305.006 90.561 304.305 90.083 303.46 C 89.605 302.615 89.362 301.656 89.381 300.685 C 89.4 299.714 89.679 298.766 90.19 297.94 C 90.66 297.058 91.349 296.31 92.19 295.77 C 94.36 294.62 113.96 289.47 115.62 290.77 C 117.62 292.27 118.06 294.43 115.37 296.39 C 112.68 298.35 92.15 305.53 92.15 305.53 Z"
        fill="#ffbe9d"/>
    <path
        id="path_93"
        d="M 96 302.61 C 95.094 302.819 94.246 303.225 93.515 303.799 C 92.784 304.372 92.188 305.1 91.77 305.93 C 91.311 306.823 91.174 307.847 91.38 308.83 C 91.697 310.301 92.408 311.659 93.436 312.758 C 94.465 313.857 95.773 314.656 97.22 315.07 C 100.73 316.17 112.16 313.6 112.16 313.6 L 109.52 306.23 L 117.52 303.61 C 120.78 302.31 119.2 297.21 115.28 298.2 C 114 298.52 100.58 301.47 96 302.61 Z"
        fill="#ffbe9d"/>
    <path
        id="path_94"
        d="M 90 298.14 C 89.157 297.658 88.458 296.957 87.979 296.111 C 87.5 295.266 87.258 294.307 87.277 293.335 C 87.297 292.364 87.577 291.415 88.09 290.59 C 88.563 289.71 89.251 288.963 90.09 288.42 C 92.26 287.27 109.72 284.16 111.75 283.73 C 113.78 283.3 115.96 287.05 113.27 289 C 110.58 290.95 90 298.14 90 298.14 Z"
        fill="#ffbe9d"/>
    <path
        id="path_95"
        d="M 109.73 291.13 C 108.732 291.471 107.709 291.732 106.67 291.91 C 104.77 292.33 102.14 292.91 99.23 293.45 C 96.751 293.84 94.373 294.713 92.23 296.02 C 91.391 296.642 90.641 297.375 90 298.2 C 90 298.2 90.08 297.9 90.37 297.43 C 90.799 296.771 91.34 296.192 91.97 295.72 C 92.885 295.03 93.895 294.477 94.97 294.08 C 96.293 293.6 97.65 293.219 99.03 292.94 C 101.95 292.36 104.6 291.88 106.52 291.55 C 107.576 291.316 108.65 291.175 109.73 291.13 Z"
        fill="#eb996e"/>
    <path
        id="path_96"
        d="M 106.36 284.75 C 105.406 285.072 104.426 285.31 103.43 285.46 L 96.3 286.84 C 93.934 287.232 91.676 288.115 89.67 289.43 C 88.932 290.073 88.261 290.79 87.67 291.57 C 87.67 291.57 87.75 291.28 88.02 290.83 C 88.409 290.189 88.903 289.618 89.48 289.14 C 90.93 287.86 93.48 286.94 96.23 286.34 C 98.98 285.74 101.56 285.4 103.4 285.1 C 104.375 284.9 105.365 284.783 106.36 284.75 Z"
        fill="#eb996e"/>
    <path
        id="path_97"
        d="M 110 299.3 C 109.109 299.658 108.189 299.939 107.25 300.14 C 105.54 300.6 103.15 301.21 100.49 301.65 C 98.207 301.944 96.003 302.677 94 303.81 C 93.258 304.363 92.586 305.004 92 305.72 C 92 305.72 92.07 305.45 92.35 305.03 C 92.765 304.443 93.275 303.929 93.86 303.51 C 95.843 302.257 98.074 301.448 100.4 301.14 C 103.07 300.7 105.4 300.14 107.18 299.79 C 108.103 299.539 109.047 299.375 110 299.3 Z"
        fill="#eb996e"/>
    <path
        id="path_98"
        d="M 111.08 305.72 C 109.757 306.431 108.358 306.992 106.91 307.39 C 105.506 307.944 104.043 308.336 102.55 308.56 C 103.871 307.847 105.271 307.29 106.72 306.9 C 108.124 306.343 109.587 305.947 111.08 305.72 Z"
        fill="#eb996e"/>
    <path
        id="path_99"
        d="M 519.31 190.26 C 521.273 187.39 524.244 185.358 527.631 184.57 C 531.017 183.781 534.58 184.291 537.609 185.999 C 540.638 187.707 542.919 190.491 543.997 193.797 C 545.076 197.103 544.876 200.696 543.436 203.861 C 541.997 207.027 539.42 209.54 536.22 210.9 C 538.431 211.986 540.127 213.903 540.935 216.231 C 541.744 218.558 541.601 221.113 540.539 223.336 C 539.476 225.56 537.578 227.276 535.26 228.109 C 532.941 228.943 530.385 228.828 528.15 227.79 C 527.06 231.63 522.76 233.95 518.78 233.68 C 514.8 233.41 511.21 231.05 508.49 228.13 C 505.659 225.095 503.623 221.406 502.564 217.393 C 501.505 213.38 501.455 209.167 502.42 205.13 C 504.54 197.13 511.42 190.43 519.63 189.05"
        fill="#263238"/>
    <path
        id="path_100"
        d="M 525.63 184 C 525.63 184 525.7 184.09 525.8 184.28 C 525.945 184.558 526.072 184.845 526.18 185.14 C 526.6 186.244 526.859 187.402 526.95 188.58 C 527.101 190.378 526.901 192.189 526.36 193.91 C 525.685 196.11 524.455 198.101 522.79 199.69 L 522.79 199.36 C 524.168 201.242 525.076 203.426 525.44 205.73 C 525.93 208.548 525.56 211.449 524.377 214.053 C 523.195 216.657 521.254 218.845 518.81 220.33 C 517.358 221.242 515.752 221.883 514.07 222.22 C 513.618 222.312 513.16 222.372 512.7 222.4 C 512.537 222.415 512.373 222.415 512.21 222.4 C 512.21 222.34 512.87 222.29 514.03 222.02 C 515.655 221.607 517.202 220.931 518.61 220.02 C 520.779 218.605 522.524 216.628 523.658 214.3 C 524.792 211.972 525.273 209.38 525.05 206.8 C 524.826 204.22 523.907 201.749 522.39 199.65 L 522.26 199.47 L 522.42 199.32 C 524.04 197.803 525.246 195.895 525.92 193.78 C 526.475 192.112 526.709 190.355 526.61 188.6 C 526.501 187.028 526.171 185.48 525.63 184 Z"
        fill="#455a64"/>
    <path
        id="path_101"
        d="M 565.62 181.22 C 565.15 181.551 564.655 181.845 564.14 182.1 C 563.14 182.63 561.76 183.38 560.01 184.28 C 556.49 186.09 551.59 188.48 546.08 190.94 C 540.57 193.4 535.51 195.44 531.82 196.85 C 529.98 197.55 528.48 198.11 527.43 198.47 C 526.9 198.68 526.355 198.85 525.8 198.98 C 526.3 198.705 526.822 198.471 527.36 198.28 L 531.69 196.51 C 535.34 195.01 540.37 192.91 545.87 190.51 C 551.37 188.11 556.29 185.72 559.87 184 L 564.08 182 C 564.573 181.701 565.088 181.441 565.62 181.22 Z"
        fill="#ff2000"/>
    <path
        id="path_102"
        d="M 552.59 168.26 C 552.68 168.37 547.19 173.62 540.32 179.98 C 533.45 186.34 527.8 191.43 527.7 191.32 C 527.6 191.21 533.1 186 540 179.6 C 546.9 173.2 552.49 168.16 552.59 168.26 Z"
        fill="#ff2000"/>
    <path
        id="path_103"
        d="M 492.79 146.6 C 492.79 135.84 479.93 135.31 473.43 138 C 469.93 133.2 467.43 130.78 459.38 130.28 C 453.47 129.9 444.46 132.87 439.92 138.82 C 437.691 141.844 436.295 145.4 435.87 149.132 C 435.445 152.864 436.007 156.643 437.5 160.09 C 438.5 162.36 439.93 164.64 439.65 167.09 C 439.24 170.65 435.59 172.73 433.23 175.42 C 431.296 177.729 430.183 180.616 430.067 183.626 C 429.951 186.635 430.839 189.6 432.59 192.05 C 434.88 195.05 438.52 197.22 439.73 200.82 C 440.73 203.82 439.79 207.13 439.98 210.31 C 440.33 216.16 444.77 221.31 450.21 223.42 C 455.65 225.53 461.88 225.06 467.38 223.06"
        fill="#263238"/>
    <path
        id="path_104"
        d="M 445.75 259.47 L 465.92 250.47 L 466.61 236.98 C 466.61 236.98 451.45 234.74 447.96 215.08 C 446.23 205.3 446.44 189.21 447.03 176.08 C 447.57 164.23 460.11 152.19 471.92 153.23 L 510.28 159.82 L 510.28 166.19 L 510.63 247.43 L 530.47 257 L 485.47 310.16 Z"
        fill="#a36957"/>
    <path
        id="path_105"
        d="M 454.2 190 C 454.205 190.658 454.468 191.288 454.931 191.755 C 455.394 192.222 456.022 192.49 456.68 192.5 C 457.11 192.525 457.539 192.436 457.923 192.241 C 458.307 192.046 458.632 191.752 458.865 191.39 C 459.098 191.028 459.231 190.61 459.25 190.18 C 459.245 189.521 458.983 188.89 458.52 188.421 C 458.057 187.953 457.429 187.683 456.77 187.67 C 456.339 187.643 455.908 187.732 455.522 187.928 C 455.137 188.124 454.811 188.419 454.578 188.783 C 454.346 189.148 454.215 189.568 454.2 190 Z"
        fill="#263238"/>
    <path
        id="path_106"
        d="M 450.67 184.32 C 450.99 184.64 452.88 183.19 455.6 183.15 C 458.32 183.11 460.34 184.44 460.6 184.1 C 460.75 183.95 460.42 183.36 459.54 182.74 C 458.357 181.953 456.961 181.545 455.54 181.57 C 454.123 181.591 452.749 182.064 451.62 182.92 C 450.79 183.57 450.51 184.17 450.67 184.32 Z"
        fill="#263238"/>
    <path
        id="path_107"
        d="M 479.63 190 C 479.633 190.659 479.894 191.292 480.357 191.761 C 480.821 192.231 481.451 192.5 482.11 192.51 C 482.541 192.535 482.971 192.445 483.356 192.249 C 483.74 192.053 484.066 191.758 484.299 191.394 C 484.531 191.031 484.663 190.611 484.68 190.18 C 484.672 189.522 484.409 188.892 483.947 188.424 C 483.485 187.956 482.858 187.685 482.2 187.67 C 481.769 187.643 481.338 187.732 480.952 187.928 C 480.567 188.124 480.241 188.419 480.008 188.783 C 479.776 189.148 479.645 189.568 479.63 190 Z"
        fill="#263238"/>
    <path
        id="path_108"
        d="M 477.43 184.35 C 477.75 184.68 479.65 183.22 482.37 183.18 C 485.09 183.14 487.11 184.47 487.37 184.13 C 487.51 183.98 487.18 183.39 486.3 182.77 C 485.115 181.987 483.72 181.582 482.3 181.61 C 480.884 181.629 479.511 182.098 478.38 182.95 C 477.55 183.61 477.28 184.21 477.43 184.35 Z"
        fill="#263238"/>
    <path
        id="path_109"
        d="M 467.92 204.71 C 467.92 204.56 466.23 204.3 463.48 203.99 C 462.78 203.93 462.12 203.81 462 203.34 C 461.927 202.622 462.077 201.899 462.43 201.27 C 463.05 199.57 463.7 197.8 464.43 195.94 C 467.15 188.35 469.1 182.12 468.8 182.01 C 468.5 181.9 466.04 188.01 463.32 195.55 C 462.66 197.42 462.04 199.21 461.44 200.91 C 461.019 201.759 460.91 202.729 461.13 203.65 C 461.235 203.894 461.394 204.11 461.595 204.284 C 461.796 204.457 462.033 204.582 462.29 204.65 C 462.676 204.747 463.072 204.798 463.47 204.8 C 466.2 204.88 467.91 204.87 467.92 204.71 Z"
        fill="#263238"/>
    <path
        id="path_110"
        d="M 466.61 237 C 475.895 236.977 484.995 234.377 492.89 229.49 C 492.89 229.49 486.13 243.39 466.36 241.9 Z"
        fill="#7c3b29"/>
    <path
        id="path_111"
        d="M 469.18 211.25 C 469.688 210.59 470.356 210.069 471.12 209.737 C 471.884 209.405 472.72 209.272 473.55 209.35 C 474.15 209.397 474.735 209.562 475.271 209.837 C 475.806 210.111 476.282 210.49 476.67 210.95 C 477.042 211.399 477.268 211.951 477.316 212.533 C 477.364 213.114 477.233 213.696 476.94 214.2 C 476.517 214.703 475.952 215.068 475.319 215.246 C 474.686 215.425 474.014 215.408 473.39 215.2 C 472.097 214.77 470.901 214.09 469.87 213.2 C 469.561 212.986 469.294 212.719 469.08 212.41 C 468.984 212.261 468.932 212.087 468.932 211.91 C 468.932 211.733 468.984 211.559 469.08 211.41"
        fill="#7c3b29"/>
    <path
        id="path_112"
        d="M 476 206.45 C 475.56 206.45 475.6 209.39 473.11 211.53 C 470.62 213.67 467.47 213.4 467.45 213.82 C 467.45 214 468.16 214.38 469.45 214.39 C 471.182 214.385 472.858 213.768 474.18 212.65 C 475.448 211.574 476.249 210.045 476.41 208.39 C 476.5 207.16 476.16 206.43 476 206.45 Z"
        fill="#263238"/>
    <path
        id="path_113"
        d="M 476.54 173.7 C 476.82 174.43 479.54 174.03 482.73 174.36 C 485.92 174.69 488.53 175.52 488.94 174.84 C 489.13 174.52 488.67 173.84 487.61 173.14 C 486.205 172.286 484.624 171.762 482.987 171.61 C 481.349 171.457 479.699 171.68 478.16 172.26 C 477 172.76 476.42 173.35 476.54 173.7 Z"
        fill="#263238"/>
    <path
        id="path_114"
        d="M 451.53 176.43 C 452.02 177.03 453.89 176.36 456.14 176.29 C 458.39 176.22 460.31 176.63 460.74 175.98 C 460.93 175.66 460.61 175.04 459.74 174.47 C 458.605 173.792 457.294 173.465 455.974 173.53 C 454.653 173.596 453.382 174.052 452.32 174.84 C 451.57 175.49 451.32 176.13 451.53 176.43 Z"
        fill="#263238"/>
    <path
        id="path_115"
        d="M 441.83 152 C 444.83 159 451.72 169.38 459.26 170.3 C 463.04 170.708 466.862 170.143 470.362 168.659 C 473.862 167.175 476.925 164.82 479.26 161.82 C 480.4 167.44 486.64 170.42 492.26 171.35 C 496.26 172.01 500.48 172.05 504.26 170.54 C 508.04 169.03 511.26 165.75 511.85 161.75 C 512.44 157.75 506.76 147.89 502.77 147.15"
        fill="#263238"/>
    <path
        id="path_116"
        d="M 493.68 166 C 492.362 168.95 492.261 172.305 493.401 175.328 C 494.542 178.352 496.832 180.805 499.77 182.15 C 496.99 185.6 496.49 190.49 497.55 194.8 C 498.61 199.11 501.04 202.96 503.65 206.55 C 503.65 206.55 496.87 216.36 510.52 223.55 C 510.52 223.55 520.1 220.55 515.82 206.14 C 515.479 205.109 515.544 203.986 516 203 C 516.596 202.164 517.418 201.515 518.37 201.13 C 521.968 199.127 524.636 195.785 525.794 191.833 C 526.951 187.881 526.508 183.628 524.56 180 C 523.959 179.078 523.51 178.065 523.23 177 C 522.96 175.38 521.72 171.15 522.23 169.6 C 525.16 161.51 521.39 151.46 511.9 146.47 C 504.29 142.47 494.76 141.8 488.9 148.13"
        fill="#263238"/>
    <path
        id="path_117"
        d="M 546.67 323.31 L 559.67 272.46 L 523.2 252.39 L 488 306.65 L 456.11 253.89 L 423.26 268.76 C 421.1 269.741 419.364 271.466 418.37 273.62 L 388.65 354 L 428.81 367 L 433.41 348.37 L 438.7 380.54 L 423.42 464.96 L 554.55 464.48 L 531.31 377.81 L 534.54 358.48 Z"
        fill="#ff2000"/>
    <path
        id="path_118"
        d="M 436.58 389.22 C 445.58 390.74 453.68 382.77 462.8 382.7 C 471.21 382.64 478.19 389.23 486.38 391.14 C 489.99 391.98 493.93 391.95 497.05 393.93 C 499.45 395.45 501.05 397.93 502.69 400.24 C 510.696 411.17 522.382 418.853 535.59 421.87 C 537.59 422.32 542.07 423.87 543.3 422.18 L 542 417 L 540.86 401.29 L 496.92 369.29 L 446.77 371.75 Z"
        fill="#000000"
        fill-opacity="0.30000000000000004"
        stroke-opacity="0.30000000000000004"
        stroke-width="1"/>
    <path
        id="path_119"
        d="M 505.77 315.63 L 532.9 315.63 L 532.9 320.12 L 505.77 320.12 L 505.77 315.63 Z"
        fill="#263238"/>
    <path
        id="path_120"
        d="M 534.74 370.49 C 545.74 374.39 557.74 373.8 569.22 372.11 C 571.95 371.7 574.8 371.18 576.95 369.45 C 577.67 368.88 579.41 367.45 579.38 367.07 C 579.3 366.02 577.38 364.62 576.29 363.75 C 572.113 360.523 567.293 358.228 562.154 357.02 C 557.015 355.813 551.677 355.721 546.5 356.75 C 543.74 357.247 541.099 358.265 538.72 359.75 C 536.39 361.31 534.93 362.17 534.13 364.86"
        fill="#ff2000"/>
    <path
        id="path_121"
        d="M 534.74 370.49 C 545.74 374.39 557.74 373.8 569.22 372.11 C 571.95 371.7 574.8 371.18 576.95 369.45 C 577.67 368.88 579.41 367.45 579.38 367.07 C 579.3 366.02 577.38 364.62 576.29 363.75 C 572.113 360.523 567.293 358.228 562.154 357.02 C 557.015 355.813 551.677 355.721 546.5 356.75 C 543.74 357.247 541.099 358.265 538.72 359.75 C 536.39 361.31 534.93 362.17 534.13 364.86"
        fill="#000000"
        fill-opacity="0.30000000000000004"
        stroke-opacity="0.30000000000000004"
        stroke-width="1"/>
    <path
        id="path_122"
        d="M 579.38 367.07 C 579.38 367.07 567.86 298.36 567.15 292.23 C 565.36 277.03 559.64 272.17 559.64 272.17 L 532.9 354 L 534.75 370.49 C 534.75 370.49 543.2 357.77 579.38 367.07 Z"
        fill="#ff2000"/>
    <path
        id="path_123"
        d="M 564.64 311.89 C 564.517 312.469 564.35 313.037 564.14 313.59 C 563.8 314.68 563.23 316.23 562.49 318.13 C 560.524 323.071 558.184 327.855 555.49 332.44 C 552.783 337.012 549.713 341.36 546.31 345.44 C 545 347 543.9 348.24 543.11 349.06 C 542.717 349.5 542.296 349.914 541.85 350.3 C 542.182 349.811 542.554 349.349 542.96 348.92 C 543.7 348.06 544.76 346.79 546.03 345.2 C 549.327 341.059 552.334 336.695 555.03 332.14 C 557.712 327.588 560.09 322.865 562.15 318 C 562.93 316.12 563.55 314.59 563.95 313.53 C 564.139 312.967 564.37 312.419 564.64 311.89 Z"
        fill="#263238"/>
    <path
        id="path_124"
        d="M 438.53 378.83 C 438.497 378.761 438.477 378.686 438.47 378.61 C 438.47 378.43 438.4 378.21 438.35 377.94 C 438.26 377.31 438.12 376.46 437.95 375.38 C 437.57 373.11 437.04 369.91 436.38 365.98 C 435 358 433 347.1 430.82 335 C 428.64 322.9 426.64 312 425.19 304 L 423.54 294.6 C 423.38 293.53 423.24 292.67 423.14 292.04 L 423.07 291.37 C 423.055 291.294 423.055 291.216 423.07 291.14 C 423.101 291.21 423.121 291.284 423.13 291.36 C 423.13 291.54 423.21 291.76 423.26 292.02 C 423.38 292.65 423.54 293.5 423.75 294.57 C 424.19 296.83 424.8 300.01 425.56 303.93 C 427.07 311.84 429.14 322.78 431.35 334.87 C 433.56 346.96 435.47 357.92 436.75 365.87 C 437.39 369.87 437.86 373.07 438.16 375.3 C 438.29 376.39 438.39 377.25 438.47 377.88 C 438.47 378.15 438.47 378.37 438.53 378.55 C 438.543 378.643 438.543 378.737 438.53 378.83 Z"
        fill="#263238"/>
    <path
        id="path_125"
        d="M 548.65 296 C 548.629 296.261 548.582 296.519 548.51 296.77 C 548.39 297.32 548.23 298.05 548.02 298.96 C 547.57 300.91 546.94 303.65 546.16 306.96 C 544.57 313.75 542.37 323.12 540.04 333.5 C 537.71 343.88 535.68 353.29 534.34 360.13 C 533.68 363.55 533.14 366.32 532.81 368.24 C 532.65 369.16 532.51 369.89 532.41 370.45 C 532.38 370.708 532.323 370.963 532.24 371.21 C 532.241 370.948 532.264 370.688 532.31 370.43 Q 532.43 369.59 532.61 368.21 C 532.88 366.27 533.36 363.49 533.98 360.06 C 535.23 353.2 537.19 343.77 539.53 333.38 C 541.87 322.99 544.12 313.64 545.8 306.87 C 546.64 303.53 547.33 300.81 547.8 298.87 C 548.04 297.97 548.24 297.25 548.38 296.7 C 548.447 296.458 548.537 296.224 548.65 296 Z"
        fill="#263238"/>
    <path
        id="path_126"
        d="M 447.66 257.41 C 447.745 257.505 447.818 257.609 447.88 257.72 L 448.5 258.72 C 449.05 259.58 449.83 260.82 450.83 262.41 L 459.31 276 L 487.31 321.37 L 486.88 321.37 L 488.2 319.5 C 489.63 317.5 491.03 315.5 492.35 313.66 L 492.35 314 L 466.51 271.15 C 463.27 265.74 460.66 261.37 458.85 258.33 L 456.8 254.86 L 456.28 253.95 C 456.211 253.85 456.154 253.743 456.11 253.63 C 456.187 253.721 456.258 253.818 456.32 253.92 L 456.88 254.81 C 457.38 255.61 458.1 256.81 459.01 258.24 C 460.86 261.24 463.52 265.59 466.81 270.97 L 492.81 313.73 L 492.89 313.87 L 492.8 314.01 C 491.47 315.87 490.07 317.85 488.65 319.85 L 487.32 321.72 L 487.09 322.04 L 486.89 321.71 L 459 276.21 C 455.48 270.42 452.63 265.74 450.65 262.47 C 449.65 260.87 448.93 259.61 448.4 258.73 L 447.83 257.73 C 447.763 257.629 447.706 257.522 447.66 257.41 Z"
        fill="#263238"/>
    <path
        id="path_127"
        d="M 523.17 252.09 C 523.136 252.194 523.086 252.292 523.02 252.38 L 522.51 253.2 L 520.51 256.34 L 513.11 267.89 L 488.17 306.49 L 488.17 306.21 C 489.27 308.01 490.44 309.93 491.63 311.86 L 492.75 313.69 L 492.31 313.69 C 497.65 305.69 502.57 298.03 507.08 291.08 C 511.59 284.13 515.7 277.92 519.28 272.8 C 522.86 267.68 525.85 263.62 527.95 260.8 L 530.4 257.63 L 531.05 256.81 C 531.12 256.717 531.196 256.63 531.28 256.55 C 531.228 256.657 531.165 256.758 531.09 256.85 L 530.48 257.69 C 529.92 258.45 529.13 259.54 528.11 260.92 C 526.11 263.73 523.11 267.82 519.58 272.92 C 516.05 278.02 511.95 284.28 507.48 291.25 C 503.01 298.22 498.11 306 492.77 314 L 492.54 314.34 L 492.33 313.99 L 491.21 312.16 L 487.76 306.51 L 487.67 306.38 L 487.76 306.24 L 512.84 267.73 L 520.37 256.27 L 522.43 253.18 L 522.97 252.39 Z"
        fill="#263238"/>
    <path
        id="path_128"
        d="M 451.56 348.28 C 449.58 347.425 447.352 347.332 445.308 348.019 C 443.263 348.705 441.543 350.124 440.48 352 C 439.673 353.6 439.357 355.402 439.57 357.181 C 439.784 358.96 440.518 360.637 441.68 362 C 444.05 364.52 449.79 366.24 452.46 363.2 Z"
        fill="#ebebeb"/>
    <path
        id="path_129"
        d="M 451.56 348.28 C 451.63 348.63 451.673 348.984 451.69 349.34 C 451.75 350.12 451.84 351.14 451.94 352.39 C 452.13 355.12 452.39 358.85 452.69 363.23 L 452.69 363.33 L 452.63 363.4 C 452.034 364.022 451.302 364.498 450.493 364.793 C 449.683 365.088 448.817 365.193 447.96 365.1 C 446.133 364.98 444.37 364.38 442.85 363.36 C 441.375 362.386 440.277 360.935 439.74 359.25 C 439.241 357.701 439.128 356.053 439.41 354.45 C 439.657 352.993 440.296 351.63 441.26 350.51 C 442.091 349.552 443.113 348.779 444.26 348.24 C 445.936 347.46 447.819 347.239 449.63 347.61 C 450.287 347.736 450.921 347.962 451.51 348.28 C 451.46 348.28 450.85 348.03 449.6 347.81 C 447.835 347.527 446.026 347.796 444.42 348.58 C 443.23 349.123 442.191 349.949 441.394 350.986 C 440.598 352.023 440.067 353.24 439.85 354.53 C 439.586 356.055 439.703 357.621 440.19 359.09 C 440.694 360.664 441.721 362.019 443.1 362.93 C 444.545 363.895 446.217 364.467 447.95 364.59 C 448.731 364.682 449.522 364.595 450.264 364.335 C 451.005 364.075 451.678 363.649 452.23 363.09 L 452.17 363.26 C 451.95 358.92 451.77 355.26 451.63 352.52 C 451.58 351.25 451.54 350.21 451.51 349.42 C 451.501 349.039 451.518 348.658 451.56 348.28 Z"
        fill="#263238"/>
    <path
        id="path_130"
        d="M 444.41 348.28 C 444.41 348.28 447.26 289.54 448.73 281.12 C 450.2 272.7 453.98 259.12 459.93 250.85 C 465.62 242.98 466.18 242.43 466.18 242.43 L 465.8 249.76 C 460.403 259.247 456.548 269.532 454.38 280.23 C 451.21 296.87 449.03 348.23 449.03 348.23 Z"
        fill="#263238"/>
    <path
        id="path_131"
        d="M 527.89 358.78 C 526.221 358.762 524.571 358.422 523.03 357.78 L 523.79 355.93 C 525.827 356.823 528.108 357.003 530.26 356.44 C 531.322 356.127 532.299 355.577 533.118 354.833 C 533.938 354.088 534.578 353.167 534.99 352.14 C 535.641 350.109 535.675 347.931 535.09 345.88 C 534.687 344.36 534.189 342.868 533.6 341.41 C 533.35 340.76 533.1 340.11 532.86 339.41 C 528.66 327.6 529.39 314.41 530.03 302.72 L 532.03 302.83 C 531.4 314.3 530.69 327.31 534.76 338.74 C 534.99 339.39 535.23 340.02 535.47 340.66 C 536.097 342.195 536.624 343.768 537.05 345.37 C 537.743 347.814 537.68 350.412 536.87 352.82 C 536.358 354.135 535.55 355.314 534.51 356.268 C 533.47 357.221 532.224 357.924 530.87 358.32 C 529.905 358.62 528.901 358.775 527.89 358.78 Z"
        fill="#e0e0e0"/>
    <path
        id="path_132"
        d="M 527.7 359.66 C 524.36 359.66 521.44 358.09 518.9 354.95 C 515.6 350.89 515.07 340.82 514.61 331.95 C 514.45 328.77 514.29 325.77 514.01 323.59 C 513.01 315.91 508.62 305.59 508.58 305.5 L 510.41 304.71 C 510.6 305.14 514.97 315.37 515.99 323.34 C 516.28 325.59 516.44 328.63 516.61 331.84 C 517.03 340 517.56 350.16 520.45 353.71 C 524.81 359.08 530.1 359.03 537.6 353.54 L 538.78 355.16 C 534.65 358.15 531 359.66 527.7 359.66 Z"
        fill="#ebebeb"/>
    <path
        id="path_133"
        d="M 534.75 355.25 C 535.123 354.223 535.638 353.254 536.28 352.37 C 536.891 351.507 537.819 350.921 538.86 350.74 C 539.38 350.678 539.907 350.781 540.366 351.034 C 540.825 351.287 541.194 351.677 541.42 352.15 C 541.617 352.646 541.678 353.185 541.597 353.712 C 541.517 354.24 541.296 354.736 540.96 355.15 C 540.307 355.913 539.402 356.417 538.41 356.57 C 537.444 356.695 536.466 356.695 535.5 356.57"
        fill="#263238"/>
    <path
        id="path_134"
        d="M 514.79 268.1 C 522.622 278.152 527.319 290.294 528.29 303 L 532.45 303 C 531.59 288.438 525.874 274.576 516.22 263.64 C 517.269 260.321 518.036 256.919 518.51 253.47 C 519.43 245.66 510.86 240.93 510.86 240.93 L 510.86 246.85 C 511.942 247.464 512.838 248.358 513.454 249.439 C 514.07 250.519 514.383 251.746 514.36 252.99 C 514.17 257.2 511.01 266.15 507.92 273.87 C 505.318 280.202 504.154 287.033 504.51 293.87 C 504.8 302.62 508.22 306.59 508.22 306.59 L 512.35 304.84 C 512.35 304.84 509.88 301.75 508.81 293.3 C 507.99 286.84 509.9 281.79 511.56 277.12 C 512.4 274.8 513.61 271.6 514.79 268.1 Z"
        fill="#263238"/>
    <path
        id="path_135"
        d="M 395.27 355.9 L 390.27 374.97 C 389.43 377.997 389.391 381.191 390.157 384.238 C 390.923 387.284 392.468 390.08 394.64 392.35 C 394.91 392.62 395.19 392.89 395.47 393.14 L 395.47 393.14 C 398.081 395.476 401.292 397.039 404.742 397.652 C 408.191 398.265 411.744 397.904 415 396.61 L 466.79 376 L 459.14 352.65 L 419.93 363.82 Z"
        fill="#a36957"/>
    <path
        id="path_136"
        d="M 437.79 324.12 L 447.18 374.12 C 447.376 375.176 447.946 376.126 448.785 376.796 C 449.624 377.466 450.677 377.812 451.75 377.77 L 523.49 375 C 524.674 374.953 525.792 374.44 526.599 373.573 C 527.406 372.706 527.838 371.554 527.8 370.37 L 526.16 323.13 C 526.121 321.969 525.631 320.868 524.795 320.062 C 523.959 319.256 522.841 318.807 521.68 318.81 L 442.19 318.81 C 441.309 318.808 440.446 319.067 439.711 319.554 C 438.977 320.041 438.402 320.734 438.06 321.546 C 437.718 322.359 437.624 323.254 437.79 324.12 Z"
        fill="#455a64"/>
    <path
        id="path_137"
        d="M 516.17 344.48 L 516.17 344.48 C 514.827 344.477 513.513 344.88 512.404 345.637 C 511.294 346.394 510.438 347.469 509.95 348.72 C 508.95 351.43 507.39 354.59 505.71 355.5 C 502.6 357.2 497.22 358.56 494.4 357.17 C 491.58 355.78 480.26 345.61 478.28 346.74 C 476.3 347.87 474.6 350.41 476.58 352.68 C 478.56 354.95 489 361.73 487 364 C 485 366.27 463 356.3 459.57 357.18 C 456.14 358.06 454.2 360.18 456.18 361.51 C 458.16 362.84 473.18 368.51 473.99 370.51 C 473.99 370.51 451.37 364.57 450.52 365.99 C 449.67 367.41 448.26 369.66 450.52 370.51 C 452.78 371.36 472.3 376.45 473.99 377.3 C 476.797 378.468 479.725 379.32 482.72 379.84 C 483.33 379.84 487.72 381.33 491.83 382.73 C 496.408 384.321 501.412 384.189 505.9 382.36 L 508.19 381.42 C 509.924 380.709 511.394 379.473 512.392 377.887 C 513.391 376.301 513.869 374.441 513.76 372.57 L 513.3 364.86 L 515.77 358.49 Z"
        fill="#a36957"/>
    <path
        id="path_138"
        d="M 498.05 383.81 C 498.05 383.81 539.33 421.18 553.23 421.29 C 567.88 421.4 576.13 406.2 574.57 396.75 C 573.73 391.75 571.57 365.36 571.57 365.36 C 561.76 362.68 547.1 361.48 536.65 368.43 L 540.46 383.81 L 512.9 370.49 Z"
        fill="#a36957"/>
    <path
        id="path_139"
        d="M 579.38 367.07 C 579.221 367.062 579.063 367.035 578.91 366.99 L 577.57 366.67 C 576.42 366.39 574.75 365.98 572.68 365.51 C 567.31 364.216 561.803 363.578 556.28 363.61 C 553.258 363.706 550.249 364.04 547.28 364.61 C 544.842 365.036 542.46 365.737 540.18 366.7 C 538.65 367.364 537.222 368.243 535.94 369.31 C 535.05 370.08 534.62 370.58 534.58 370.55 C 534.654 370.407 534.748 370.275 534.86 370.16 C 535.155 369.807 535.473 369.473 535.81 369.16 C 537.061 368.014 538.486 367.073 540.03 366.37 C 542.317 365.337 544.721 364.588 547.19 364.14 C 550.194 363.527 553.245 363.169 556.31 363.07 C 561.873 363.026 567.418 363.719 572.8 365.13 C 574.87 365.65 576.53 366.13 577.67 366.46 L 578.97 366.87 C 579.23 367 579.39 367.05 579.38 367.07 Z"
        fill="#263238"/>
    <path
        id="path_140"
        d="M 699.8 464.7 C 699.8 464.84 554.37 464.96 375.02 464.96 C 195.67 464.96 50.2 464.84 50.2 464.7 C 50.2 464.56 195.6 464.44 375.02 464.44 C 554.44 464.44 699.8 464.56 699.8 464.7 Z"
        fill="#263238"/>
    <path
        id="path_141"
        d="M 613 419.87 C 615.11 422.87 619.15 421.82 621 419.99 C 622.85 418.16 623.63 415.52 624.33 412.99 C 625.94 407.25 627.55 401.22 626.28 395.4 C 625.976 393.633 625.187 391.984 624 390.64 C 623.4 389.976 622.637 389.48 621.786 389.203 C 620.935 388.926 620.026 388.876 619.15 389.06 C 617.15 389.62 615.87 391.63 614.97 393.53 C 612.32 399.159 610.954 405.308 610.97 411.53 C 610.97 414.42 611.35 417.46 612.97 419.83"
        fill="#ff2000"/>
    <path
        id="path_142"
        d="M 613 419.87 C 615.11 422.87 619.15 421.82 621 419.99 C 622.85 418.16 623.63 415.52 624.33 412.99 C 625.94 407.25 627.55 401.22 626.28 395.4 C 625.976 393.633 625.187 391.984 624 390.64 C 623.4 389.976 622.637 389.48 621.786 389.203 C 620.935 388.926 620.026 388.876 619.15 389.06 C 617.15 389.62 615.87 391.63 614.97 393.53 C 612.32 399.159 610.954 405.308 610.97 411.53 C 610.97 414.42 611.35 417.46 612.97 419.83"
        fill="#000000"
        fill-opacity="0.2"
        stroke-opacity="0.2"
        stroke-width="1"/>
    <path
        id="path_143"
        d="M 620.94 434.87 C 624.417 433.209 628.335 432.701 632.12 433.42 C 634.189 433.588 636.143 434.443 637.67 435.85 C 639.06 437.36 639.34 440.04 637.77 441.36 C 636.752 442.061 635.521 442.386 634.29 442.28 C 631.29 442.28 628.04 441.77 625.69 443.57 C 624.35 444.57 623.47 446.29 621.86 446.8 C 621.055 446.991 620.209 446.915 619.45 446.586 C 618.692 446.256 618.06 445.689 617.65 444.97 C 616.869 443.492 616.686 441.769 617.14 440.16 C 617.321 439.045 617.759 437.986 618.418 437.068 C 619.078 436.151 619.941 435.398 620.94 434.87 Z"
        fill="#ff2000"/>
    <path
        id="path_144"
        d="M 607.34 424.18 C 608.405 422.771 609.108 421.123 609.389 419.38 C 609.669 417.637 609.519 415.851 608.95 414.18 C 607.774 410.844 605.697 407.899 602.95 405.67 C 599.843 402.955 596.24 400.867 592.34 399.52 C 590.829 398.929 589.21 398.666 587.59 398.75 C 586.774 398.8 585.982 399.05 585.285 399.477 C 584.588 399.904 584.006 400.496 583.59 401.2 C 582.5 403.32 583.59 405.88 584.75 407.97 C 586.804 411.651 589.145 415.165 591.75 418.48 C 593.84 421.14 596.25 423.77 599.42 424.95 C 602.59 426.13 605.89 425.95 607.55 423.76"
        fill="#ff2000"/>
    <path
        id="path_145"
        d="M 613.23 464.72 C 613.339 464.274 613.399 463.818 613.41 463.36 C 613.5 462.36 613.61 461.15 613.74 459.68 C 613.908 457.861 614.172 456.052 614.53 454.26 C 614.995 452.083 615.634 449.946 616.44 447.87 C 617.231 445.793 618.315 443.84 619.66 442.07 C 620.749 440.627 622.146 439.444 623.75 438.61 C 624.838 438.061 626.006 437.686 627.21 437.5 C 627.662 437.477 628.111 437.41 628.55 437.3 C 628.098 437.25 627.642 437.25 627.19 437.3 C 625.932 437.408 624.705 437.747 623.57 438.3 C 621.882 439.108 620.406 440.3 619.26 441.78 C 617.861 443.578 616.735 445.573 615.92 447.7 C 615.103 449.809 614.467 451.983 614.02 454.2 C 613.688 456.012 613.464 457.842 613.35 459.68 C 613.24 461.25 613.21 462.52 613.19 463.39 C 613.157 463.834 613.17 464.279 613.23 464.72 Z"
        fill="#263238"/>
    <path
        id="path_146"
        d="M 613.46 461.88 C 613.486 461.671 613.486 461.459 613.46 461.25 C 613.46 460.78 613.46 460.19 613.46 459.46 C 613.46 457.9 613.46 455.65 613.46 452.87 C 613.56 447.31 613.98 439.63 614.84 431.19 C 615.7 422.75 616.84 415.19 617.96 409.7 C 618.22 408.33 618.47 407.1 618.72 406.02 C 618.97 404.94 619.15 404.02 619.34 403.26 C 619.53 402.5 619.64 401.97 619.75 401.51 C 619.826 401.496 619.895 401.454 619.941 401.393 C 619.988 401.331 620.011 401.254 620.004 401.177 C 619.997 401.1 619.961 401.028 619.904 400.976 C 619.847 400.924 619.772 400.895 619.695 400.895 C 619.618 400.895 619.543 400.924 619.486 400.976 C 619.429 401.028 619.393 401.1 619.386 401.177 C 619.379 401.254 619.402 401.331 619.449 401.393 C 619.495 401.454 619.564 401.496 619.64 401.51 C 619.5 401.96 619.34 402.51 619.13 403.23 C 618.92 403.95 618.68 404.9 618.41 405.98 C 618.14 407.06 617.86 408.28 617.57 409.65 C 616.092 416.76 614.994 423.943 614.28 431.17 C 613.42 439.63 613.06 447.32 613.07 452.9 C 613.07 455.69 613.14 457.9 613.22 459.5 C 613.22 460.22 613.31 460.82 613.34 461.29 C 613.36 461.49 613.4 461.688 613.46 461.88 Z"
        fill="#263238"/>
    <path
        id="path_147"
        d="M 613.38 447 C 613.43 446.378 613.43 445.752 613.38 445.13 C 613.3 443.93 613.12 442.19 612.76 440.06 C 611.787 434.53 610.148 429.137 607.88 424 C 605.698 418.79 602.583 414.022 598.69 409.93 C 598.019 409.215 597.301 408.547 596.54 407.93 C 596.21 407.65 595.92 407.38 595.63 407.16 L 594.79 406.6 C 594.291 406.225 593.762 405.891 593.21 405.6 C 595.036 407.015 596.773 408.541 598.41 410.17 C 602.186 414.289 605.23 419.024 607.41 424.17 C 608.656 426.977 609.715 429.863 610.58 432.81 C 611.31 435.214 611.917 437.654 612.4 440.12 C 612.8 442.22 613.04 443.94 613.18 445.12 C 613.202 445.751 613.269 446.379 613.38 447 Z"
        fill="#263238"/>
    <path
        id="path_148"
        d="M 569.37 78.62 L 569.62 78.62 Q 573.73 78.62 573.73 82.73 L 573.73 122.96 Q 573.73 127.07 569.62 127.07 L 569.37 127.07 Q 565.26 127.07 565.26 122.96 L 565.26 82.73 Q 565.26 78.62 569.37 78.62 Z"
        fill="#e0e0e0"/>
    <path
        id="path_149"
        d="M 569.37 93.1 L 569.62 93.1 Q 573.73 93.1 573.73 97.21 L 573.73 122.96 Q 573.73 127.07 569.62 127.07 L 569.37 127.07 Q 565.26 127.07 565.26 122.96 L 565.26 97.21 Q 565.26 93.1 569.37 93.1 Z"
        fill="#ff2000"/>
    <path
        id="path_150"
        d="M 583.24 78.62 L 583.49 78.62 Q 587.6 78.62 587.6 82.73 L 587.6 122.96 Q 587.6 127.07 583.49 127.07 L 583.24 127.07 Q 579.13 127.07 579.13 122.96 L 579.13 82.73 Q 579.13 78.62 583.24 78.62 Z"
        fill="#e0e0e0"/>
    <path
        id="path_151"
        d="M 583.24 100.61 L 583.49 100.61 Q 587.6 100.61 587.6 104.72 L 587.6 122.96 Q 587.6 127.07 583.49 127.07 L 583.24 127.07 Q 579.13 127.07 579.13 122.96 L 579.13 104.72 Q 579.13 100.61 583.24 100.61 Z"
        fill="#ff2000"/>
    <path
        id="path_152"
        d="M 598.93 78.62 L 599.18 78.62 Q 603.29 78.62 603.29 82.73 L 603.29 122.96 Q 603.29 127.07 599.18 127.07 L 598.93 127.07 Q 594.82 127.07 594.82 122.96 L 594.82 82.73 Q 594.82 78.62 598.93 78.62 Z"
        fill="#e0e0e0"/>
    <path
        id="path_153"
        d="M 598.93 87.38 L 599.18 87.38 Q 603.29 87.38 603.29 91.49 L 603.29 122.97 Q 603.29 127.08 599.18 127.08 L 598.93 127.08 Q 594.82 127.08 594.82 122.97 L 594.82 91.49 Q 594.82 87.38 598.93 87.38 Z"
        fill="#ff2000"/>
    <path
        id="path_154"
        d="M 569.62 127.08 C 569.62 127.08 570 127.08 570.68 126.88 C 571.668 126.598 572.51 125.946 573.03 125.06 C 573.41 124.433 573.608 123.713 573.6 122.98 C 573.6 122.15 573.6 121.26 573.6 120.3 C 573.6 118.38 573.6 116.19 573.6 113.78 C 573.6 108.94 573.6 103.19 573.6 96.78 C 573.6 93.59 573.6 90.24 573.6 86.78 L 573.6 84.16 C 573.662 83.3 573.604 82.435 573.43 81.59 C 573.166 80.768 572.637 80.056 571.927 79.566 C 571.216 79.075 570.362 78.834 569.5 78.88 C 568.641 78.885 567.809 79.176 567.134 79.707 C 566.458 80.237 565.979 80.977 565.77 81.81 C 565.643 82.67 565.603 83.542 565.65 84.41 L 565.65 87 C 565.65 90.47 565.65 93.82 565.65 97 C 565.65 103.38 565.65 109.13 565.65 114 C 565.65 116.41 565.65 118.59 565.65 120.52 C 565.65 121.52 565.65 122.38 565.65 123.19 C 565.692 123.907 565.931 124.599 566.34 125.19 C 566.922 126.036 567.8 126.636 568.8 126.87 C 569.49 127.01 569.87 126.98 569.87 127.01 C 569.509 127.072 569.141 127.072 568.78 127.01 C 567.731 126.809 566.797 126.215 566.17 125.35 C 565.717 124.72 565.45 123.975 565.4 123.2 C 565.4 122.36 565.4 121.48 565.4 120.52 C 565.4 118.59 565.4 116.41 565.4 114 C 565.4 109.16 565.4 103.41 565.34 97 C 565.34 93.8 565.34 90.45 565.34 87 C 565.34 86.13 565.34 85.25 565.34 84.37 L 565.34 83.08 C 565.325 82.61 565.369 82.139 565.47 81.68 C 565.709 80.735 566.256 79.896 567.023 79.296 C 567.79 78.695 568.736 78.366 569.71 78.36 C 570.687 78.323 571.651 78.6 572.46 79.15 C 573.248 79.71 573.834 80.51 574.13 81.43 C 574.26 81.885 574.327 82.356 574.33 82.83 L 574.33 84.16 C 574.33 85.05 574.33 85.92 574.33 86.79 C 574.33 90.27 574.33 93.62 574.33 96.79 C 574.33 103.17 574.33 108.92 574.27 113.79 C 574.27 116.2 574.27 118.39 574.27 120.31 C 574.27 121.31 574.27 122.16 574.27 122.99 C 574.259 123.761 574.038 124.515 573.63 125.17 C 573.305 125.67 572.874 126.093 572.368 126.41 C 571.862 126.726 571.292 126.927 570.7 127 C 570.347 127.089 569.982 127.116 569.62 127.08 Z"
        fill="#263238"/>
    <path
        id="path_155"
        d="M 583.48 127.08 C 583.48 127.08 583.86 127.08 584.54 126.88 C 585.39 126.644 586.138 126.134 586.668 125.428 C 587.198 124.723 587.48 123.862 587.47 122.98 C 587.47 122.15 587.47 121.26 587.47 120.3 C 587.47 118.38 587.47 116.19 587.47 113.78 C 587.47 108.94 587.47 103.19 587.47 96.78 C 587.47 93.59 587.47 90.24 587.47 86.78 L 587.47 84.16 C 587.528 83.299 587.468 82.434 587.29 81.59 C 587.019 80.773 586.493 80.065 585.788 79.572 C 585.083 79.078 584.238 78.825 583.378 78.85 C 582.518 78.874 581.689 79.176 581.014 79.709 C 580.339 80.242 579.853 80.979 579.63 81.81 C 579.507 82.671 579.47 83.542 579.52 84.41 C 579.52 85.29 579.52 86.17 579.52 87.04 C 579.52 90.51 579.52 93.86 579.52 97.04 C 579.52 103.42 579.52 109.17 579.46 114.04 C 579.46 116.45 579.46 118.63 579.46 120.56 C 579.46 121.56 579.46 122.42 579.46 123.23 C 579.511 123.945 579.749 124.635 580.15 125.23 C 580.735 126.078 581.617 126.677 582.62 126.91 C 583.3 127.05 583.69 127.02 583.68 127.05 C 583.319 127.112 582.951 127.112 582.59 127.05 C 581.686 126.877 580.865 126.409 580.255 125.72 C 579.645 125.031 579.281 124.158 579.22 123.24 C 579.22 122.4 579.22 121.52 579.22 120.56 C 579.22 118.63 579.22 116.45 579.22 114.04 C 579.22 109.2 579.22 103.45 579.17 97.04 C 579.17 93.84 579.17 90.49 579.17 87.04 L 579.17 83.04 C 579.15 82.57 579.194 82.099 579.3 81.64 C 579.538 80.694 580.084 79.855 580.851 79.254 C 581.619 78.652 582.565 78.324 583.54 78.32 C 584.514 78.282 585.476 78.559 586.28 79.11 C 587.074 79.666 587.664 80.467 587.96 81.39 C 588.092 81.845 588.156 82.317 588.15 82.79 L 588.15 86.79 C 588.15 90.27 588.15 93.62 588.15 96.79 C 588.15 103.17 588.15 108.92 588.1 113.79 C 588.1 116.2 588.1 118.39 588.1 120.31 C 588.1 121.31 588.1 122.16 588.1 122.99 C 588.09 123.763 587.865 124.518 587.45 125.17 C 586.888 126.081 585.989 126.735 584.95 126.99 C 584.474 127.133 583.97 127.164 583.48 127.08 Z"
        fill="#263238"/>
    <path
        id="path_156"
        d="M 599.17 127.08 C 599.17 127.08 599.55 127.08 600.23 126.88 C 601.08 126.644 601.828 126.134 602.358 125.428 C 602.888 124.723 603.17 123.862 603.16 122.98 C 603.16 122.15 603.16 121.26 603.16 120.3 C 603.16 118.38 603.16 116.19 603.16 113.78 C 603.16 108.94 603.16 103.19 603.1 96.78 C 603.1 93.59 603.1 90.24 603.1 86.78 L 603.1 84.16 C 603.158 83.299 603.098 82.434 602.92 81.59 C 602.649 80.773 602.123 80.065 601.418 79.572 C 600.713 79.078 599.868 78.825 599.008 78.85 C 598.148 78.874 597.319 79.176 596.644 79.709 C 595.969 80.242 595.483 80.979 595.26 81.81 C 595.138 82.671 595.098 83.541 595.14 84.41 L 595.14 87 C 595.14 90.47 595.14 93.82 595.14 97 C 595.14 103.38 595.14 109.13 595.08 114 C 595.08 116.41 595.08 118.59 595.08 120.52 C 595.08 121.52 595.08 122.38 595.08 123.19 C 595.126 123.906 595.365 124.597 595.77 125.19 C 596.354 126.035 597.231 126.634 598.23 126.87 C 598.92 127.01 599.3 126.98 599.3 127.01 C 598.939 127.072 598.571 127.072 598.21 127.01 C 597.306 126.837 596.485 126.369 595.875 125.68 C 595.265 124.991 594.901 124.118 594.84 123.2 C 594.84 122.36 594.84 121.48 594.84 120.52 C 594.84 118.59 594.84 116.41 594.84 114 C 594.84 109.16 594.84 103.41 594.84 97 C 594.84 93.8 594.84 90.45 594.84 87 L 594.84 83 C 594.82 82.53 594.864 82.059 594.97 81.6 C 595.208 80.654 595.754 79.815 596.521 79.214 C 597.289 78.612 598.235 78.284 599.21 78.28 C 600.182 78.234 601.142 78.51 601.941 79.065 C 602.74 79.62 603.334 80.423 603.63 81.35 C 603.762 81.805 603.826 82.277 603.82 82.75 L 603.82 86.75 C 603.82 90.23 603.82 93.58 603.82 96.75 C 603.82 103.13 603.82 108.88 603.82 113.75 C 603.82 116.16 603.82 118.35 603.82 120.27 C 603.82 121.27 603.82 122.12 603.82 122.95 C 603.81 123.723 603.585 124.478 603.17 125.13 C 602.608 126.041 601.709 126.695 600.67 126.95 C 600.187 127.111 599.673 127.156 599.17 127.08 Z"
        fill="#263238"/>
    <path
        id="path_157"
        d="M 584.28 47.28 C 584.583 47.256 584.887 47.256 585.19 47.28 L 587.88 47.35 C 588.47 47.35 589.14 47.35 589.88 47.44 L 592.25 47.78 L 595.02 48.17 L 598.11 48.94 C 603.434 50.284 608.502 52.493 613.11 55.48 C 619.933 59.814 625.674 65.655 629.889 72.552 C 634.105 79.449 636.685 87.221 637.43 95.27 C 637.637 97.681 637.684 100.103 637.57 102.52 C 637.49 103.75 637.51 104.99 637.33 106.23 C 637.15 107.47 636.96 108.71 636.77 109.97 C 635.835 115.108 634.15 120.081 631.77 124.73 C 629.204 129.602 625.939 134.073 622.08 138 C 617.994 142.03 613.308 145.404 608.19 148 C 602.896 150.714 597.165 152.474 591.26 153.2 C 589.764 153.427 588.253 153.554 586.74 153.58 C 585.223 153.697 583.7 153.724 582.18 153.66 C 572.429 153.283 562.967 150.235 554.83 144.85 L 555.38 144.91 L 536.84 152.35 L 535.75 152.79 L 536.06 151.65 L 541.51 131.83 L 541.6 132.31 C 536.57 125.642 533.181 117.882 531.71 109.66 C 531 105.817 530.762 101.901 531 98 C 531.036 96.133 531.209 94.271 531.52 92.43 C 531.67 91.52 531.81 90.61 531.95 89.71 C 532.09 88.81 532.38 87.96 532.59 87.09 C 535.708 74.933 543.039 64.268 553.27 57 C 557.055 54.28 561.197 52.096 565.58 50.51 L 568.35 49.51 L 571 48.8 L 573.4 48.2 C 574.18 48.05 574.92 47.97 575.62 47.87 C 577.02 47.69 578.25 47.45 579.33 47.39 L 582.06 47.3 L 583.72 47.3 C 583.91 47.285 584.1 47.285 584.29 47.3 C 584.105 47.354 583.913 47.381 583.72 47.38 L 582.07 47.51 L 579.36 47.69 C 578.29 47.78 577.07 48.05 575.68 48.25 C 565.624 49.992 556.286 54.615 548.803 61.556 C 541.321 68.497 536.011 77.462 533.52 87.36 C 533.32 88.22 533.06 89.07 532.9 89.94 C 532.74 90.81 532.63 91.71 532.5 92.61 C 532.199 94.418 532.036 96.247 532.01 98.08 C 531.8 101.89 532.052 105.711 532.76 109.46 C 534.234 117.505 537.577 125.093 542.52 131.61 L 542.68 131.84 L 542.61 132.1 Q 539.99 141.71 537.2 151.94 L 536.42 151.24 Q 545.48 147.59 554.95 143.78 L 555.24 143.66 L 555.5 143.83 C 563.46 149.086 572.709 152.064 582.24 152.44 C 583.727 152.498 585.216 152.472 586.7 152.36 C 588.177 152.337 589.65 152.214 591.11 151.99 C 596.884 151.29 602.49 149.577 607.67 146.93 C 612.679 144.399 617.269 141.114 621.28 137.19 C 625.046 133.335 628.235 128.956 630.75 124.19 C 633.114 119.644 634.799 114.775 635.75 109.74 Q 636.03 107.89 636.32 106.08 C 636.5 104.87 636.48 103.65 636.57 102.45 C 636.686 100.077 636.646 97.698 636.45 95.33 C 635.748 87.404 633.247 79.741 629.139 72.926 C 625.031 66.111 619.422 60.322 612.74 56 C 608.215 53.014 603.238 50.778 598 49.38 L 594.95 48.57 L 592.21 48.12 L 589.85 47.73 C 589.13 47.65 588.47 47.63 587.85 47.59 L 585.17 47.39 C 584.871 47.38 584.573 47.343 584.28 47.28 Z"
        fill="#263238"/>
</svg>
