<svg xmlns="http://www.w3.org/2000/svg" viewBox="0 0 32 32"><rect width="22" height="16" x="9" y="1" fill="#91e085" rx="3.02" ry="3.02"/><path fill="#84bf6f" d="M28 1H25a1 1 0 0 0 0 .18A5.87 5.87 0 0 0 30.84 7L31 7V4A3 3 0 0 0 28 1zM12 1h3a1 1 0 0 1 0 .18A5.87 5.87 0 0 1 9.16 7L9 7V4A3 3 0 0 1 12 1zM28 17H25a1 1 0 0 1 0-.18A5.87 5.87 0 0 1 30.84 11L31 11v3A3 3 0 0 1 28 17zM12 17h3a1 1 0 0 0 0-.18A5.87 5.87 0 0 0 9.16 11L9 11v3A3 3 0 0 0 12 17zM22 13.2H18a1 1 0 0 1 0-2h3V10H18a1 1 0 0 1-1-1V5.8a1 1 0 0 1 1-1h4a1 1 0 0 1 0 2H19V8h3a1 1 0 0 1 1 1v3.2A1 1 0 0 1 22 13.2z"/><path fill="#84bf6f" d="M20.13 6.8a1 1 0 0 1-1-1V5a1 1 0 0 1 2 0v.8A1 1 0 0 1 20.13 6.8zM20.13 14a1 1 0 0 1-1-1v-.8a1 1 0 0 1 2 0V13A1 1 0 0 1 20.13 14z"/><path fill="#f4dab7" d="M30.86,24A2.48,2.48,0,0,0,28,22.45l-4,.82a5.72,5.72,0,0,0,0-.58,3,3,0,0,0-3.1-2.92h0a8.08,8.08,0,0,1-3.76-.8l-1.89-.83A2.56,2.56,0,0,0,13.64,18a.66.66,0,0,0-.2.06L9.15,20a1,1,0,0,0-.58.77L8.25,23l-.68,3.2a1,1,0,0,0,.62,1.14l8.34,3.21a6.09,6.09,0,0,0,2.26.43,6.17,6.17,0,0,0,2.31-.45l8.29-3.36A2.57,2.57,0,0,0,30.86,24Z"/><path fill="#e2c5a1" d="M30.86,24A2.48,2.48,0,0,0,28,22.45l-4,.82a5.72,5.72,0,0,0,0-.58,3,3,0,0,0-3.1-2.92h0a8.08,8.08,0,0,1-3.76-.8l-1.89-.83A2.56,2.56,0,0,0,13.64,18a.66.66,0,0,0-.2.06L9.15,20a1,1,0,0,0-.58.77l-.08.56,3.91-1.76a.66.66,0,0,1,.2-.06,2.56,2.56,0,0,1,1.59.15l1.89.83a8.08,8.08,0,0,0,3.76.8h0a3,3,0,0,1,3.1,2.92,5.72,5.72,0,0,1,0,.58l4-.82a2.46,2.46,0,0,1,2.88,1.56,2.24,2.24,0,0,1,.07,1.4A2.53,2.53,0,0,0,30.86,24Z"/><path fill="#798bc6" d="M9.9,18.51A3,3,0,0,0,8,17.28l-5.82-.87A1,1,0,0,0,1,17.4v12a1,1,0,0,0,1,1H6.4a3.09,3.09,0,0,0,2.93-2.7l1.18-6.34A3.79,3.79,0,0,0,9.9,18.51Z"/><path fill="#6b7eb5" d="M9.9,18.51A3,3,0,0,0,8,17.28l-5.82-.87a1,1,0,0,0-.8.23,1,1,0,0,0-.27.41l5.58.83a2.92,2.92,0,0,1,1.93,1.23A3.74,3.74,0,0,1,9.19,22L8,28.3a3.43,3.43,0,0,1-1.19,2.06,3.14,3.14,0,0,0,2.5-2.66l1.18-6.34A3.79,3.79,0,0,0,9.9,18.51Z"/></svg>