<svg height="512pt" viewBox="-14 0 512 512.003" width="512pt" xmlns="http://www.w3.org/2000/svg"><path d="m351.492188 357.917969 22.390624-3.578125c2.3125-11.640625 3.527344-23.679688 3.527344-36 0-12.320313-1.214844-24.359375-3.527344-36l-22.390624-3.578125c-3.820313-15.289063-9.890626-30.125-18.210938-43.992188l13.28125-18.335937c-13.457031-20.132813-30.789062-37.460938-50.929688-50.914063l-18.335937 13.277344c-13.871094-8.316406-28.710937-14.390625-44-18.207031l-3.582031-22.386719c-11.640625-2.3125-23.683594-3.527344-36.007813-3.527344s-24.363281 1.214844-36.007812 3.527344l-3.578125 22.386719c-15.292969 3.816406-30.132813 9.890625-44.003906 18.207031l-18.335938-13.28125c-20.140625 13.457031-37.472656 30.78125-50.929688 50.917969l13.28125 18.335937c-8.320312 13.867188-14.390624 28.703125-18.210937 43.988281l-22.390625 3.578126c-2.3125 11.644531-3.527344 23.679687-3.527344 36.003906 0 12.320312 1.214844 24.355468 3.527344 36l22.390625 3.578125c3.820313 15.285156 9.890625 30.121093 18.210937 43.988281l-13.28125 18.335938c13.457032 20.136718 30.789063 37.460937 50.929688 50.914062l18.335938-13.277344c13.871093 8.316406 28.710937 14.390625 44.003906 18.207032l3.578125 22.386718c11.644531 2.3125 23.683593 3.523438 36.007812 3.523438s24.367188-1.210938 36.007813-3.523438l3.582031-22.386718c15.289063-3.820313 30.128906-9.890626 44-18.207032l18.335937 13.277344c20.140626-13.453125 37.472657-30.777344 50.929688-50.914062l-13.28125-18.335938c8.320312-13.863281 14.390625-28.703125 18.210938-43.988281zm0 0" fill="#0082a0"/><path d="m315.71875 318.339844c0-67.371094-54.625-121.984375-122.011719-121.984375s-122.011719 54.613281-122.011719 121.984375 54.625 121.984375 122.011719 121.984375 122.011719-54.613281 122.011719-121.984375zm0 0" fill="#fed271"/><path d="m193.707031 450.324219c-72.792969 0-132.011719-59.207031-132.011719-131.984375s59.21875-131.984375 132.011719-131.984375 132.011719 59.207031 132.011719 131.984375-59.21875 131.984375-132.011719 131.984375zm0-243.96875c-61.765625 0-112.011719 50.234375-112.011719 111.984375 0 61.746094 50.246094 111.984375 112.011719 111.984375 61.761719 0 112.011719-50.238281 112.011719-111.984375 0-61.75-50.25-111.984375-112.011719-111.984375zm0 0"/><path d="m193.707031 398.476562c-44.199219 0-80.160156-35.949218-80.160156-80.136718 0-44.191406 35.960937-80.140625 80.160156-80.140625s80.15625 35.949219 80.15625 80.140625c0 44.1875-35.957031 80.136718-80.15625 80.136718zm0 0" fill="#fcbd38"/><path d="m193.707031 408.476562c-49.714843 0-90.15625-40.433593-90.15625-90.136718s40.441407-90.140625 90.15625-90.140625c49.710938 0 90.15625 40.4375 90.15625 90.140625s-40.445312 90.136718-90.15625 90.136718zm0-160.277343c-38.683593 0-70.15625 31.464843-70.15625 70.140625 0 38.675781 31.472657 70.140625 70.15625 70.140625 38.683594 0 70.15625-31.464844 70.15625-70.140625 0-38.675782-31.472656-70.140625-70.15625-70.140625zm0 0"/><path d="m190.957031 357.339844c-13.273437-.441406-24.117187-7.296875-24.117187-14.375 0-3.761719 3.320312-9.292969 7.523437-9.292969 4.648438 0 8.410157 6.527344 16.59375 7.964844v-17.917969c-10.175781-3.871094-22.125-8.628906-22.125-22.785156 0-14.046875 10.402344-20.792969 22.125-22.453125v-3.09375c0-1.550781 1.769531-2.988281 4.207031-2.988281 2.101563 0 4.203126 1.4375 4.203126 2.988281v2.761719c6.855468.222656 19.800781 1.992187 19.800781 9.625 0 2.984374-1.992188 9.070312-6.859375 9.070312-3.648438 0-5.753906-3.542969-12.941406-4.09375v16.148438c10.066406 3.757812 21.792968 8.957031 21.792968 23.886718 0 13.714844-8.851562 22.011719-21.792968 24.113282v3.207031c0 1.546875-2.105469 2.984375-4.203126 2.984375-2.4375 0-4.207031-1.4375-4.207031-2.984375zm1.109375-51.097656v-13.160157c-4.980468.996094-7.082031 3.539063-7.082031 6.195313 0 3.207031 2.875 5.195312 7.082031 6.964844zm6.191406 20.460937v14.820313c3.761719-.882813 6.75-2.984376 6.75-6.964844 0-3.652344-2.765624-5.972656-6.75-7.855469zm0 0"/><path d="m412.597656 10-61.527344 99.597656h27.414063v392.402344h68.222656v-392.402344h27.417969zm0 0" fill="#f2685a"/><path d="m482.632812 104.34375-61.527343-99.601562c-1.824219-2.945313-5.042969-4.742188-8.507813-4.742188-3.46875 0-6.6875 1.796875-8.507812 4.742188l-61.527344 99.601562c-1.90625 3.085938-1.992188 6.960938-.226562 10.125 1.765624 3.167969 5.109374 5.128906 8.734374 5.128906h17.414063v151.753906l-9.027344-1.445312c-3.5-12-8.285156-23.558594-14.285156-34.503906l9.488281-13.097656c2.457032-3.390626 2.542969-7.945313.21875-11.425782-14.269531-21.347656-32.332031-39.40625-53.6875-53.675781-3.480468-2.324219-8.035156-2.234375-11.421875.21875l-13.105469 9.488281c-10.945312-6-22.507812-10.785156-34.515624-14.28125l-2.558594-16c-.660156-4.132812-3.824219-7.414062-7.925782-8.230468-24.839843-4.9375-51.074218-4.9375-75.914062 0-4.105469.816406-7.265625 4.097656-7.925781 8.230468l-2.5625 16c-12.003907 3.496094-23.566407 8.277344-34.511719 14.28125l-13.105469-9.488281c-3.386719-2.453125-7.941406-2.539063-11.421875-.21875-21.355468 14.269531-39.417968 32.324219-53.6875 53.675781-2.324218 3.480469-2.238281 8.035156.214844 11.425782l9.492188 13.097656c-6.003907 10.945312-10.789063 22.503906-14.285157 34.503906l-16.003906 2.558594c-4.132813.660156-7.414063 3.820312-8.230469 7.925781-2.46875 12.417969-3.722656 25.183594-3.722656 37.949219s1.253906 25.535156 3.722656 37.953125c.816406 4.101562 4.097656 7.265625 8.230469 7.925781l16.003906 2.554688c3.496094 12 8.28125 23.5625 14.285157 34.503906l-9.492188 13.101562c-2.453125 3.386719-2.539062 7.945313-.214844 11.421875 14.269532 21.351563 32.332032 39.410157 53.6875 53.675781 3.476563 2.324219 8.03125 2.234376 11.417969-.214843l13.105469-9.492188c10.949218 6.003907 22.511718 10.789063 34.515625 14.285157l2.558593 16c.660157 4.128906 3.824219 7.414062 7.925782 8.230468 12.421875 2.46875 25.191406 3.71875 37.957031 3.71875s25.539063-1.25 37.960937-3.71875c4.101563-.816406 7.261719-4.101562 7.925782-8.230468l2.558594-16c12.003906-3.496094 23.566406-8.28125 34.515624-14.285157l13.101563 9.492188c3.390625 2.449219 7.945313 2.539062 11.421875.214843 21.355469-14.265624 39.417969-32.324218 53.6875-53.675781 2.324219-3.476562 2.238281-8.035156-.214844-11.421875l-9.492187-13.101562c6.003906-10.941406 10.789062-22.5 14.285156-34.503906l9.03125-1.441407v136.667969c0 5.523438 4.476563 10 10 10h68.222656c5.523438 0 10-4.476562 10-10v-382.402344h17.414063c3.628906 0 6.96875-1.960937 8.734375-5.128906 1.769531-3.164062 1.679687-7.039062-.222657-10.125zm-117.347656 241.246094-15.371094 2.453125c-3.957031.632812-7.152343 3.5625-8.125 7.449219-3.636718 14.554687-9.382812 28.4375-17.085937 41.273437-2.0625 3.433594-1.875 7.765625.476563 11.011719l9.117187 12.582031c-10.78125 14.839844-23.707031 27.761719-38.550781 38.535156l-12.585938-9.113281c-3.242187-2.347656-7.574218-2.535156-11.007812-.476562-12.835938 7.699218-26.726563 13.445312-41.28125 17.082031-3.886719.972656-6.820313 4.167969-7.453125 8.125l-2.453125 15.363281c-17.957032 2.824219-36.558594 2.824219-54.515625 0l-2.457031-15.363281c-.632813-3.957031-3.5625-7.152344-7.449219-8.125-14.554688-3.636719-28.445313-9.382813-41.28125-17.082031-3.433594-2.0625-7.769531-1.875-11.011719.476562l-12.585938 9.113281c-14.84375-10.773437-27.769531-23.695312-38.546874-38.535156l9.117187-12.582031c2.347656-3.246094 2.535156-7.578125.476563-11.011719-7.703126-12.835937-13.453126-26.722656-17.089844-41.273437-.96875-3.882813-4.167969-6.816407-8.121094-7.449219l-15.371094-2.453125c-1.414062-8.976563-2.125-18.109375-2.125-27.25s.710938-18.273438 2.125-27.246094l15.371094-2.457031c3.953125-.632813 7.152344-3.566407 8.121094-7.449219 3.636718-14.550781 9.386718-28.4375 17.089844-41.273438 2.058593-3.433593 1.871093-7.765624-.476563-11.011718l-9.117187-12.578125c10.78125-14.84375 23.703124-27.765625 38.550781-38.539063l12.585937 9.113282c3.242188 2.351562 7.574219 2.539062 11.007813.476562 12.835937-7.699219 26.726562-13.445312 41.28125-17.082031 3.886719-.96875 6.820312-4.167969 7.449219-8.121094l2.457031-15.367187c17.957031-2.824219 36.558593-2.824219 54.515625 0l2.457031 15.367187c.632813 3.953125 3.5625 7.152344 7.449219 8.121094 14.558594 3.636719 28.445312 9.382812 41.28125 17.082031 3.433594 2.0625 7.765625 1.875 11.007812-.476562l12.589844-9.113282c14.84375 10.777344 27.769531 23.699219 38.546875 38.539063l-9.117187 12.578125c-2.347657 3.246094-2.535157 7.578125-.476563 11.011718 7.703125 12.835938 13.453125 26.722657 17.089844 41.273438.96875 3.882812 4.167969 6.816406 8.121093 7.449219l15.371094 2.457031c1.414063 8.972656 2.125 18.109375 2.125 27.246094 0 9.136718-.714844 18.273437-2.125 27.25zm81.421875-245.992188c-5.523437 0-10 4.480469-10 10v382.402344h-48.222656v-372.402344h13.488281c5.523438 0 10-4.476562 10-10 0-5.519531-4.476562-10-10-10h-32.972656l43.597656-70.570312 43.59375 70.570312zm0 0"/><path d="m412.59375 242.71875c-.648438 0-1.308594-.070312-1.949219-.199219-.640625-.128906-1.269531-.320312-1.871093-.570312-.609376-.25-1.191407-.558594-1.730469-.917969-.550781-.359375-1.058594-.78125-1.519531-1.242188-.460938-.457031-.878907-.96875-1.238282-1.519531-.363281-.539062-.671875-1.117187-.921875-1.730469-.25-.597656-.441406-1.226562-.570312-1.867187-.128907-.640625-.199219-1.300781-.199219-1.949219 0-.660156.070312-1.3125.199219-1.960937.128906-.640625.320312-1.269531.570312-1.871094s.558594-1.179687.921875-1.71875c.359375-.550781.777344-1.0625 1.238282-1.523437.460937-.46875.96875-.878907 1.519531-1.25.539062-.359376 1.121093-.667969 1.730469-.917969.601562-.25 1.230468-.441407 1.871093-.570313 1.289063-.261718 2.617188-.261718 3.910157 0 .640624.128906 1.257812.320313 1.867187.570313.601563.25 1.179687.558593 1.722656.917969.550781.371093 1.058594.78125 1.527344 1.25.460937.460937.871094.972656 1.242187 1.523437.359376.539063.667969 1.117187.917969 1.71875.25.609375.441407 1.230469.570313 1.871094.132812.648437.191406 1.300781.191406 1.960937 0 .648438-.058594 1.308594-.191406 1.949219-.128906.640625-.320313 1.269531-.570313 1.867187-.25.609376-.558593 1.191407-.917969 1.730469-.371093.550781-.789062 1.0625-1.25 1.519531-1.859374 1.859376-4.429687 2.929688-7.070312 2.929688zm0 0"/><path d="m412.597656 443.035156c-5.523437 0-10-4.480468-10-10v-157.082031c0-5.523437 4.476563-10 10-10 5.523438 0 10 4.476563 10 10v157.082031c0 5.523438-4.476562 10-10 10zm0 0"/></svg>