<svg id="color" height="512" viewBox="0 0 24 24" width="512" xmlns="http://www.w3.org/2000/svg"><path d="m5.5 7.25c.414 0 .75-.336.75-.75s-.336-.75-.75-.75h-2v-1.5h2c.414 0 .75-.336.75-.75s-.336-.75-.75-.75h-2.75c-.414 0-.75.336-.75.75v12.25c0 .414.336.75.75.75s.75-.336.75-.75v-2.5h2c.414 0 .75-.336.75-.75s-.336-.75-.75-.75h-2v-1.5h2c.414 0 .75-.336.75-.75s-.336-.75-.75-.75h-2v-1.5z" fill="#cfd8dc"/><path d="m10.5 0h-5c-.414 0-.75.336-.75.75v15c0 .414.336.75.75.75h5c.414 0 .75-.336.75-.75v-15c0-.414-.336-.75-.75-.75z" fill="#607d8b"/><g fill="#90a4ae"><path d="m8 12.5c0 .414.336.75.75.75h2.5v-1.5h-2.5c-.414 0-.75.336-.75.75z"/><path d="m8 9.5c0 .414.336.75.75.75h2.5v-1.5h-2.5c-.414 0-.75.336-.75.75z"/><path d="m8 6.5c0 .414.336.75.75.75h2.5v-1.5h-2.5c-.414 0-.75.336-.75.75z"/><path d="m8 3.5c0 .414.336.75.75.75h2.5v-1.5h-2.5c-.414 0-.75.336-.75.75z"/><path d="m19.032 15.222c-.14-.142-.332-.222-.532-.222h-17.75c-.414 0-.75.336-.75.75v4.5c0 .414.336.75.75.75h17.718c.412 0 .747-.333.75-.745l.032-4.5c.001-.199-.077-.392-.218-.533z"/></g><path d="m5.5 7.25c.414 0 .75-.336.75-.75s-.336-.75-.75-.75h-2v-1.5h2c.414 0 .75-.336.75-.75s-.336-.75-.75-.75h-2.75c-.414 0-.75.336-.75.75v12.25c0 .414.336.75.75.75s.75-.336.75-.75v-2.5h2c.414 0 .75-.336.75-.75s-.336-.75-.75-.75h-2v-1.5h2c.414 0 .75-.336.75-.75s-.336-.75-.75-.75h-2v-1.5z" fill="#cfd8dc"/><path d="m10.5 0h-5c-.414 0-.75.336-.75.75v15c0 .414.336.75.75.75h5c.414 0 .75-.336.75-.75v-15c0-.414-.336-.75-.75-.75z" fill="#607d8b"/><path d="m8 12.5c0 .414.336.75.75.75h2.5v-1.5h-2.5c-.414 0-.75.336-.75.75z" fill="#90a4ae"/><path d="m8 9.5c0 .414.336.75.75.75h2.5v-1.5h-2.5c-.414 0-.75.336-.75.75z" fill="#90a4ae"/><path d="m8 6.5c0 .414.336.75.75.75h2.5v-1.5h-2.5c-.414 0-.75.336-.75.75z" fill="#90a4ae"/><path d="m8 3.5c0 .414.336.75.75.75h2.5v-1.5h-2.5c-.414 0-.75.336-.75.75z" fill="#90a4ae"/><path d="m19.032 15.222c-.14-.142-.332-.222-.532-.222h-17.75c-.414 0-.75.336-.75.75v4.5c0 .414.336.75.75.75h17.718c.412 0 .747-.333.75-.745l.032-4.5c.001-.199-.077-.392-.218-.533z" fill="#90a4ae"/><path d="m4.75 2.75h-2c-.414 0-.75.336-.75.75v11.5h1.5v-1.75h1.25v-1.5h-1.25v-1.5h1.25v-1.5h-1.25v-1.5h1.25v-1.5h-1.25v-1.5h1.25z" fill="#b4bcc0"/><path d="m8 0h-2.5c-.414 0-.75.336-.75.75v2 1.5 1.5 1.5 1.5 1.5 1.5 1.5 1.75h3.25z" fill="#546d79"/><path d="m8 15h-3.25-1.25-1.5-1.25c-.414 0-.75.336-.75.75v4.5c0 .414.336.75.75.75h7.25z" fill="#7d8f97"/><path d="m22.674 17.615c.011-.126.017-.246.017-.365s-.006-.239-.017-.365l.83-.617c.495-.368.642-1.054.339-1.597l-.74-1.324c-.31-.553-.996-.775-1.563-.51l-.923.431c-.182-.127-.37-.24-.565-.338l-.103-1.071c-.063-.631-.582-1.107-1.208-1.107h-1.479c-.626 0-1.146.476-1.208 1.109l-.104 1.069c-.195.099-.384.211-.565.338l-.922-.43c-.569-.265-1.255-.042-1.565.51l-.738 1.324c-.304.542-.158 1.229.338 1.597l.83.617c-.011.126-.017.246-.017.365s.006.239.017.365l-.83.617c-.496.368-.642 1.055-.339 1.596l.74 1.325c.309.554.996.774 1.564.51l.923-.431c.182.127.37.24.565.338l.104 1.071c.062.631.582 1.107 1.208 1.107h1.479c.626 0 1.146-.476 1.208-1.109l.103-1.069c.195-.099.384-.211.565-.338l.922.43c.568.265 1.255.042 1.565-.51l.738-1.324c.304-.542.158-1.229-.338-1.597z" fill="#00bcd4"/><path d="m18 14.75c-1.379 0-2.5 1.122-2.5 2.5s1.121 2.5 2.5 2.5 2.5-1.122 2.5-2.5-1.121-2.5-2.5-2.5z" fill="#fff"/><path d="m18 10.75h-.739c-.626 0-1.146.476-1.208 1.109l-.104 1.069c-.195.099-.384.211-.565.338l-.922-.43c-.162-.076-.334-.111-.504-.111-.426 0-.84.226-1.062.622l-.738 1.324c-.304.542-.158 1.229.338 1.597l.83.617c-.011.126-.017.246-.017.365s.006.239.017.365l-.83.617c-.496.368-.642 1.055-.339 1.596l.74 1.325c.221.396.635.621 1.06.621.17 0 .341-.036.503-.111l.923-.431c.182.127.37.24.565.338l.104 1.071c.062.631.582 1.107 1.208 1.107h.74v-4c-1.379 0-2.5-1.122-2.5-2.5s1.121-2.5 2.5-2.5z" fill="#00a4b9"/><path d="m18 14.75c-1.379 0-2.5 1.122-2.5 2.5s1.121 2.5 2.5 2.5z" fill="#dedede"/></svg>