<svg xmlns="http://www.w3.org/2000/svg" id="Layer_1" enable-background="new 0 0 128 128" version="1.1" viewBox="0 0 128 128" xml:space="preserve"><rect width="68" height="83" x="11" y="17" fill="#fff"/><rect width="68" height="83" x="11" y="17" fill="none" stroke="#242c88" stroke-linecap="round" stroke-linejoin="round" stroke-miterlimit="10" stroke-width="2"/><path fill="#83d689" d="M33 46H23c-1.1 0-2-.9-2-2V34c0-1.1.9-2 2-2h10c1.1 0 2 .9 2 2v10C35 45.1 34.1 46 33 46zM32.8 66H23c-1.1 0-2-.9-2-2V54c0-1.1.9-2 2-2h10c1.1 0 2 .9 2 2v9.8C35 65 34 66 32.8 66zM33 87H23c-1.1 0-2-.9-2-2V75c0-1.1.9-2 2-2h10c1.1 0 2 .9 2 2v10C35 86.1 34.1 87 33 87z"/><path fill="none" stroke="#242c88" stroke-linecap="round" stroke-linejoin="round" stroke-miterlimit="10" stroke-width="2" d="M33 46H23c-1.1 0-2-.9-2-2V34c0-1.1.9-2 2-2h10c1.1 0 2 .9 2 2v10C35 45.1 34.1 46 33 46zM32.8 66H23c-1.1 0-2-.9-2-2V54c0-1.1.9-2 2-2h10c1.1 0 2 .9 2 2v9.8C35 65 34 66 32.8 66zM33 87H23c-1.1 0-2-.9-2-2V75c0-1.1.9-2 2-2h10c1.1 0 2 .9 2 2v10C35 86.1 34.1 87 33 87z"/><path fill="#242c88" d="M79,101V24H28c-1.1,0-2,0.9-2,2v75H79z" opacity=".2"/><rect width="68" height="83" x="31" y="29" fill="#fff"/><rect width="68" height="83" x="31" y="29" fill="none" stroke="#242c88" stroke-linecap="round" stroke-linejoin="round" stroke-miterlimit="10" stroke-width="2"/><line x1="63" x2="75" y1="53" y2="53" fill="none" stroke="#242c88" stroke-linecap="round" stroke-linejoin="round" stroke-miterlimit="10" stroke-width="2" opacity=".2"/><line x1="63" x2="87" y1="48" y2="48" fill="none" stroke="#242c88" stroke-linecap="round" stroke-linejoin="round" stroke-miterlimit="10" stroke-width="2" opacity=".2"/><path fill="#83d689" d="M54,58H44c-1.1,0-2-0.9-2-2V46c0-1.1,0.9-2,2-2h10c1.1,0,2,0.9,2,2v10C56,57.1,55.1,58,54,58z"/><polyline fill="none" stroke="#242c88" stroke-linecap="round" stroke-linejoin="round" stroke-miterlimit="10" stroke-width="2" points="45.3 51.7 48.2 54.4 53.9 48.6"/><line x1="63" x2="75" y1="74" y2="74" fill="none" stroke="#242c88" stroke-linecap="round" stroke-linejoin="round" stroke-miterlimit="10" stroke-width="2" opacity=".2"/><line x1="63" x2="87" y1="68" y2="68" fill="none" stroke="#242c88" stroke-linecap="round" stroke-linejoin="round" stroke-miterlimit="10" stroke-width="2" opacity=".2"/><path fill="#83d689" d="M54,78H44c-1.1,0-2-0.9-2-2V66c0-1.1,0.9-2,2-2h9.8c1.2,0,2.2,1,2.2,2.2V76C56,77.1,55.1,78,54,78z"/><polyline fill="none" stroke="#242c88" stroke-linecap="round" stroke-linejoin="round" stroke-miterlimit="10" stroke-width="2" points="45.3 71.9 48.2 74.6 53.9 68.9"/><line x1="63" x2="75" y1="94" y2="94" fill="none" stroke="#242c88" stroke-linecap="round" stroke-linejoin="round" stroke-miterlimit="10" stroke-width="2" opacity=".2"/><line x1="63" x2="87" y1="89" y2="89" fill="none" stroke="#242c88" stroke-linecap="round" stroke-linejoin="round" stroke-miterlimit="10" stroke-width="2" opacity=".2"/><path fill="#83d689" d="M54,98H44c-1.1,0-2-0.9-2-2V86c0-1.1,0.9-2,2-2h10c1.1,0,2,0.9,2,2v10C56,97.1,55.1,98,54,98z"/><path fill="none" stroke="#242c88" stroke-linecap="round" stroke-linejoin="round" stroke-miterlimit="10" stroke-width="2" d="M54 58H44c-1.1 0-2-.9-2-2V46c0-1.1.9-2 2-2h10c1.1 0 2 .9 2 2v10C56 57.1 55.1 58 54 58zM54 78H44c-1.1 0-2-.9-2-2V66c0-1.1.9-2 2-2h9.8c1.2 0 2.2 1 2.2 2.2V76C56 77.1 55.1 78 54 78zM54 98H44c-1.1 0-2-.9-2-2V86c0-1.1.9-2 2-2h10c1.1 0 2 .9 2 2v10C56 97.1 55.1 98 54 98z"/><polygon fill="#242c88" points="99 57.6 65.2 77.5 53.6 94.9 74.4 93.1 99 78.6" opacity=".2"/><polygon fill="#fff" points="111.4 50.1 73.8 87.7 54.1 94.6 61 74.9 98.6 37.3"/><rect width="53.2" height="18.1" x="59.6" y="53.5" fill="#ffc408" transform="rotate(-45.001 86.22 62.528)"/><rect width="53.2" height="5.3" x="64.1" y="64.4" fill="#242c88" opacity=".2" transform="rotate(-45.001 90.734 67.042)"/><polygon fill="#5e61a3" points="57.1 86 54.1 94.4 62.5 91.4"/><polygon fill="none" stroke="#242c88" stroke-linecap="round" stroke-linejoin="round" stroke-miterlimit="10" stroke-width="2" points="111.4 50.1 73.8 87.7 54.1 94.6 61 74.9 98.6 37.3"/><path fill="#f3877e" d="M111.4,50.1l6-6c1.7-1.7,1.7-4.4,0-6l-6.8-6.8c-1.7-1.7-4.4-1.7-6,0l-6,6L111.4,50.1z"/><path fill="none" stroke="#242c88" stroke-linecap="round" stroke-linejoin="round" stroke-miterlimit="10" stroke-width="2" d="M111.4,50.1l6-6c1.7-1.7,1.7-4.4,0-6l-6.8-6.8c-1.7-1.7-4.4-1.7-6,0l-6,6L111.4,50.1z"/><line x1="80.6" x2="106.9" y1="73.4" y2="47.1" fill="none" stroke="#242c88" stroke-linecap="round" stroke-linejoin="round" stroke-miterlimit="10" stroke-width="2"/><line x1="70" x2="76.1" y1="84" y2="77.9" fill="none" stroke="#242c88" stroke-linecap="round" stroke-linejoin="round" stroke-miterlimit="10" stroke-width="2"/><rect width="7.4" height="18.1" x="100.9" y="35.1" fill="#fff" transform="rotate(-45.001 104.652 44.097)"/><rect width="7.4" height="18.1" x="100.9" y="35.1" fill="#242c88" opacity=".2" transform="rotate(-45.001 104.652 44.097)"/><rect width="7.4" height="18.1" x="100.9" y="35.1" fill="none" stroke="#242c88" stroke-linecap="round" stroke-linejoin="round" stroke-miterlimit="10" stroke-width="2" transform="rotate(-45.001 104.652 44.097)"/></svg>