<?xml version="1.0" encoding="iso-8859-1"?>
<!-- Generator: Adobe Illustrator 19.0.0, SVG Export Plug-In . SVG Version: 6.00 Build 0)  -->
<svg version="1.1" id="Layer_1" xmlns="http://www.w3.org/2000/svg" xmlns:xlink="http://www.w3.org/1999/xlink" x="0px" y="0px"
	 viewBox="0 0 512 512" style="enable-background:new 0 0 512 512;" xml:space="preserve">
<path style="fill:#37474F;" d="M375.467,8.533H136.533c-18.85,0-34.133,15.283-34.133,34.133v426.667
	c0,18.85,15.283,34.133,34.133,34.133h238.933c18.85,0,34.133-15.283,34.133-34.133V42.667
	C409.6,23.817,394.317,8.533,375.467,8.533z M375.467,76.8c0,9.429-7.637,17.067-17.067,17.067H153.6
	c-9.429,0-17.067-7.637-17.067-17.067V59.733c0-9.429,7.637-17.067,17.067-17.067h204.8c9.429,0,17.067,7.637,17.067,17.067V76.8z"
	/>
<g>
	<path style="fill:#607D8B;" d="M136.533,59.733V76.8c0,9.429,7.637,17.067,17.067,17.067h204.8c9.429,0,17.067-7.637,17.067-17.067
		v392.533c0,18.85-15.283,34.133-34.133,34.133h-204.8c-18.85,0-34.133-15.283-34.133-34.133V42.667
		c0-18.85,15.283-34.133,34.133-34.133h204.8c18.85,0,34.133,15.283,34.133,34.133v17.067c0-9.429-7.637-17.067-17.067-17.067H153.6
		C144.171,42.667,136.533,50.304,136.533,59.733z"/>
	<path style="fill:#607D8B;" d="M153.6,128h204.8c9.429,0,17.067,7.637,17.067,17.067v307.2c0,9.429-7.637,17.067-17.067,17.067
		H153.6c-9.429,0-17.067-7.637-17.067-17.067v-307.2C136.533,135.637,144.171,128,153.6,128z"/>
</g>
<path style="fill:#CFD8DC;" d="M153.6,128h179.2c9.429,0,17.067,7.637,17.067,17.067v307.2c0,9.429-7.637,17.067-17.067,17.067
	H153.6c-9.429,0-17.067-7.637-17.067-17.067v-307.2C136.533,135.637,144.171,128,153.6,128z"/>
<path d="M375.467,512H136.533c-23.561,0-42.667-19.106-42.667-42.667V42.667C93.867,19.106,112.973,0,136.533,0h238.933
	c23.561,0,42.667,19.106,42.667,42.667v426.667C418.133,492.894,399.027,512,375.467,512z M136.533,17.067
	c-14.14,0-25.6,11.46-25.6,25.6v426.667c0,14.14,11.46,25.6,25.6,25.6l0,0h238.933c14.14,0,25.6-11.46,25.6-25.6l0,0V42.667
	c0-14.14-11.46-25.6-25.6-25.6H136.533z"/>
<path d="M358.4,102.4H153.6c-14.14,0-25.6-11.46-25.6-25.6V59.733c0-14.14,11.46-25.6,25.6-25.6h204.8c14.14,0,25.6,11.46,25.6,25.6
	V76.8C384,90.94,372.54,102.4,358.4,102.4z M153.6,51.2c-4.71,0-8.533,3.823-8.533,8.533V76.8c0,4.71,3.823,8.533,8.533,8.533h204.8
	c4.71,0,8.533-3.823,8.533-8.533V59.733c0-4.71-3.823-8.533-8.533-8.533H153.6z"/>
<path d="M358.4,477.867H153.6c-14.14,0-25.6-11.46-25.6-25.6v-307.2c0-14.14,11.46-25.6,25.6-25.6h204.8
	c14.14,0,25.6,11.46,25.6,25.6v307.2C384,466.406,372.54,477.867,358.4,477.867z M153.6,136.533c-4.71,0-8.533,3.823-8.533,8.533
	v307.2c0,4.71,3.823,8.533,8.533,8.533h204.8c4.71,0,8.533-3.823,8.533-8.533v-307.2c0-4.71-3.823-8.533-8.533-8.533H153.6z"/>
<g>
	<path style="fill:#607D8B;" d="M204.8,162.133h102.4c18.85,0,34.133,15.283,34.133,34.133v8.533l0,0H170.667l0,0v-8.533
		C170.667,177.417,185.95,162.133,204.8,162.133z"/>
	<path style="fill:#607D8B;" d="M204.8,238.933h102.4c18.85,0,34.133,15.283,34.133,34.133v8.533l0,0H170.667l0,0v-8.533
		C170.667,254.217,185.95,238.933,204.8,238.933z"/>
	<path style="fill:#607D8B;" d="M204.8,315.733h102.4c18.85,0,34.133,15.283,34.133,34.133v8.533l0,0H170.667l0,0v-8.533
		C170.667,331.017,185.95,315.733,204.8,315.733z"/>
	<path style="fill:#607D8B;" d="M204.8,392.533h102.4c18.85,0,34.133,15.283,34.133,34.133v8.533l0,0H170.667l0,0v-8.533
		C170.667,407.817,185.95,392.533,204.8,392.533z"/>
</g>
<path d="M341.333,213.333H170.667c-4.71,0-8.533-3.823-8.533-8.533v-8.533c0-23.561,19.106-42.667,42.667-42.667h102.4
	c23.561,0,42.667,19.106,42.667,42.667v8.533C349.867,209.51,346.044,213.333,341.333,213.333z M179.2,196.267h153.6
	c0-14.14-11.46-25.6-25.6-25.6H204.8C190.66,170.667,179.2,182.127,179.2,196.267z"/>
<path d="M341.333,290.133H170.667c-4.71,0-8.533-3.823-8.533-8.533v-8.533c0-23.561,19.106-42.667,42.667-42.667h102.4
	c23.561,0,42.667,19.106,42.667,42.667v8.533C349.867,286.31,346.044,290.133,341.333,290.133z M179.2,273.067h153.6
	c0-14.14-11.46-25.6-25.6-25.6H204.8C190.66,247.467,179.2,258.927,179.2,273.067z"/>
<path d="M341.333,366.933H170.667c-4.71,0-8.533-3.823-8.533-8.533v-8.533c0-23.561,19.106-42.667,42.667-42.667h102.4
	c23.561,0,42.667,19.106,42.667,42.667v8.533C349.867,363.11,346.044,366.933,341.333,366.933z M179.2,349.867h153.6
	c0-14.14-11.46-25.6-25.6-25.6H204.8C190.66,324.267,179.2,335.727,179.2,349.867z"/>
<path d="M341.333,443.733H170.667c-4.71,0-8.533-3.823-8.533-8.533v-8.533c0-23.561,19.106-42.667,42.667-42.667h102.4
	c23.561,0,42.667,19.106,42.667,42.667v8.533C349.867,439.91,346.044,443.733,341.333,443.733z M179.2,426.667h153.6
	c0-14.14-11.46-25.6-25.6-25.6H204.8C190.66,401.067,179.2,412.527,179.2,426.667z"/>
<g>
</g>
<g>
</g>
<g>
</g>
<g>
</g>
<g>
</g>
<g>
</g>
<g>
</g>
<g>
</g>
<g>
</g>
<g>
</g>
<g>
</g>
<g>
</g>
<g>
</g>
<g>
</g>
<g>
</g>
</svg>
