<svg id="Filled" height="512" viewBox="0 0 512 512" width="512" xmlns="http://www.w3.org/2000/svg"><rect fill="#f7cc38" height="176" rx="32" width="208" x="24" y="56"/><path d="m24 232a32 32 0 0 0 32 32h144a32 32 0 0 0 32-32v-112a32 32 0 0 0 -32-32h-80v-32a32 32 0 0 0 -32-32h-32a32 32 0 0 0 -32 32z" fill="#fbe36a"/><path d="m488 296v160a32 32 0 0 1 -32 32h-144a32 32 0 0 1 -32-32v-192a32 32 0 0 1 32-32h112z" fill="#e9eef2"/><path d="m488 296h-32a32 32 0 0 1 -32-32v-32z" fill="#c3c6c7"/><path d="m56 272h144a40.045 40.045 0 0 0 40-40v-144a40.045 40.045 0 0 0 -40-40h-72.8a40.067 40.067 0 0 0 -39.2-32h-32a40.045 40.045 0 0 0 -40 40v176a40.045 40.045 0 0 0 40 40zm72-208h72a24.028 24.028 0 0 1 24 24v.022a39.788 39.788 0 0 0 -24-8.022h-72zm-96-8a24.027 24.027 0 0 1 24-24h32a24.027 24.027 0 0 1 24 24v32a8 8 0 0 0 8 8h80a24.027 24.027 0 0 1 24 24v112a24.027 24.027 0 0 1 -24 24h-144a24.027 24.027 0 0 1 -24-24z"/><circle cx="56" cy="328" r="8"/><circle cx="56" cy="296" r="8"/><circle cx="56" cy="360" r="8"/><circle cx="56" cy="392" r="8"/><circle cx="120" cy="392" r="8"/><circle cx="88" cy="392" r="8"/><circle cx="152" cy="392" r="8"/><circle cx="184" cy="392" r="8"/><circle cx="216" cy="392" r="8"/><circle cx="56" cy="424" r="8"/><circle cx="56" cy="456" r="8"/><circle cx="56" cy="488" r="8"/><circle cx="248" cy="392" r="8"/><path d="m429.657 226.343a8 8 0 0 0 -5.657-2.343h-112a40.045 40.045 0 0 0 -40 40v192a40.045 40.045 0 0 0 40 40h144a40.045 40.045 0 0 0 40-40v-160a8 8 0 0 0 -2.343-5.657zm2.343 24.97 36.687 36.687h-12.687a24.028 24.028 0 0 1 -24-24zm48 204.687a24.028 24.028 0 0 1 -24 24h-144a24.028 24.028 0 0 1 -24-24v-192a24.028 24.028 0 0 1 24-24h104v24a40.045 40.045 0 0 0 40 40h24z"/><path d="m440 336h-64a8 8 0 0 0 0 16h64a8 8 0 0 0 0-16z"/><path d="m328 400h64a8 8 0 0 0 0-16h-64a8 8 0 0 0 0 16z"/><path d="m440 432h-48a8 8 0 0 0 0 16h48a8 8 0 0 0 0-16z"/><path d="m328 352h16a8 8 0 0 0 0-16h-16a8 8 0 0 0 0 16z"/><path d="m440 384h-16a8 8 0 0 0 0 16h16a8 8 0 0 0 0-16z"/><path d="m360 432h-32a8 8 0 0 0 0 16h32a8 8 0 0 0 0-16z"/><path d="m328 304h32a8 8 0 0 0 0-16h-32a8 8 0 0 0 0 16z"/></svg>