<svg xmlns="http://www.w3.org/2000/svg" viewBox="0 0 32 32"><path fill="#cfcfce" d="M6.497 4.503a2 2 0 1 0-4 0h4z"/><path fill="#e2e2e2" d="M26.419 25.503v-20a3 3 0 0 0-3-3h-19l.002.003a2 2 0 0 1 2 2v.001l-.002-.004v23a2 2 0 0 0 2 2h18v-4z"/><path fill="#e2e2e2" d="M29.5 27.625a2 2 0 0 1-2 2h-19a2 2 0 0 0 2-2v-1.997h19v1.997z"/><path fill="#1a4875" d="M29.5 25.003h-2.502V5.5c0-1.93-1.57-3.5-3.5-3.5h-19c-.012 0-.021.006-.032.006A2.502 2.502 0 0 0 2 4.503a.5.5 0 0 0 .5.5h3.498V27.5c0 1.379 1.122 2.5 2.5 2.5H27.5a2.496 2.496 0 0 0 2.466-2.161.486.486 0 0 0 .034-.17v-2.166a.5.5 0 0 0-.5-.5zM25.998 5.5v19.503H10.5a.5.5 0 0 0-.5.5V27.5c0 .827-.673 1.5-1.5 1.5S7 28.327 7 27.5l-.002.988V4.515L7 4.503C7 3.937 6.804 3.42 6.485 3h17.013c1.378 0 2.5 1.121 2.5 2.5zM3.085 4.003c.207-.582.763-1 1.415-1s1.208.418 1.415 1h-2.83zM27.5 29H10.487c.318-.419.513-.935.513-1.5v-1.497h18V27.5c0 .827-.673 1.5-1.5 1.5z"/><path fill="none" stroke="#1a4875" stroke-linecap="round" stroke-linejoin="round" stroke-miterlimit="10" d="M12.5 5.469h8M9.5 8.469h14M9.5 11.469h14M9.5 14.469h14M9.5 17.469h14M9.5 20.469h14"/></svg>