<svg height="512pt" viewBox="0 0 512 511" width="512pt" xmlns="http://www.w3.org/2000/svg"><path d="m15.191406 159.449219h481.617188v351.6875h-481.617188zm0 0" fill="#c9f0ff"/><path d="m470.929688 159.453125h25.878906v351.683594h-25.878906zm0 0" fill="#9ae7fd"/><path d="m512 159.449219-50.027344-147.390625c-2.34375-6.910156-8.828125-11.554688-16.125-11.554688h-379.695312c-7.296875 0-13.78125 4.644532-16.125 11.554688l-50.027344 147.390625v19.203125h511.996094zm0 0" fill="#fa0"/><path d="m511.996094 159.453125h-18.351563l-50.027343-147.394531c-2.347657-6.914063-8.828126-11.558594-16.121094-11.558594l18.351562.003906c7.292969 0 13.785156 4.644532 16.125 11.558594zm0 0" fill="#ff9500"/><path d="m207.578125 511.136719h-134.800781v-210.15625c0-4.550781 3.691406-8.242188 8.242187-8.242188h118.320313c4.550781 0 8.242187 3.691407 8.242187 8.242188v210.15625zm0 0" fill="#0573cf"/><path d="m207.578125 300.984375v210.15625h-25.320313v-210.15625c0-4.554687-3.6875-8.242187-8.242187-8.242187h25.324219c4.550781 0 8.238281 3.6875 8.238281 8.242187zm0 0" fill="#005aaf"/><path d="m433.539062 435.597656h-159.339843c-4.550781 0-8.242188-3.691406-8.242188-8.242187v-126.375c0-4.550781 3.691407-8.242188 8.242188-8.242188h159.339843c4.554688 0 8.242188 3.691407 8.242188 8.242188v126.375c0 4.550781-3.6875 8.242187-8.242188 8.242187zm0 0" fill="#ffcd6b"/><path d="m441.777344 300.984375v126.367187c0 4.554688-3.6875 8.242188-8.242188 8.242188h-25.371094c4.554688 0 8.242188-3.6875 8.242188-8.242188v-126.367187c0-4.554687-3.6875-8.242187-8.242188-8.242187h25.371094c4.554688 0 8.242188 3.6875 8.242188 8.242187zm0 0" fill="#ffc143"/><g fill="#0573cf"><path d="m0 159.449219v47.992187c0 17.675782 14.328125 32.003906 32.003906 32.003906 17.671875 0 32-14.328124 32-32.003906v-47.992187zm0 0"/><path d="m127.945312 159.449219v47.992187c0 17.675782 14.328126 32.003906 32.003907 32.003906 17.671875 0 32-14.328124 32-32.003906v-47.992187zm0 0"/><path d="m255.890625 159.449219v47.992187c0 17.675782 14.328125 32.003906 32.003906 32.003906 17.671875 0 32-14.328124 32-32.003906v-47.992187zm0 0"/></g><path d="m63.972656 159.449219v47.992187c0 17.675782 14.328125 32.003906 32.003906 32.003906 17.671876 0 32-14.328124 32-32.003906v-47.992187zm0 0" fill="#ffcd6b"/><path d="m191.917969 159.449219v47.992187c0 17.675782 14.328125 32.003906 32.003906 32.003906 17.671875 0 32-14.328124 32-32.003906v-47.992187zm0 0" fill="#ffcd6b"/><path d="m319.863281 159.449219v47.992187c0 17.675782 14.328125 32.003906 32.003907 32.003906 17.671874 0 32-14.328124 32-32.003906v-47.992187zm0 0" fill="#ffcd6b"/><path d="m64.003906 159.453125v47.992187c0 17.667969-14.324218 32-32 32-3.15625 0-6.199218-.457031-9.070312-1.304687 13.261718-3.90625 22.941406-16.171875 22.941406-30.695313v-47.992187zm0 0" fill="#005aaf"/><path d="m191.949219 159.453125v47.992187c0 17.667969-14.332031 32-32 32-3.148438 0-6.199219-.457031-9.066407-1.3125 13.257813-3.898437 22.941407-16.164062 22.941407-30.6875v-47.992187zm0 0" fill="#005aaf"/><path d="m319.898438 159.453125v47.992187c0 17.667969-14.332032 32-32.003907 32-3.152343 0-6.195312-.457031-9.066406-1.304687 13.261719-3.90625 22.933594-16.171875 22.933594-30.695313v-47.992187zm0 0" fill="#005aaf"/><path d="m127.972656 159.453125v47.992187c0 17.667969-14.324218 32-32 32-3.148437 0-6.191406-.457031-9.0625-1.3125 13.261719-3.898437 22.9375-16.164062 22.9375-30.6875v-47.992187zm0 0" fill="#ffc143"/><path d="m255.921875 159.453125v47.992187c0 17.667969-14.324219 32-32.003906 32-3.148438 0-6.1875-.457031-9.058594-1.304687 13.261719-3.90625 22.933594-16.171875 22.933594-30.695313v-47.992187zm0 0" fill="#ffc143"/><path d="m383.867188 159.453125v47.992187c0 17.667969-14.324219 32-32.003907 32-3.152343 0-6.195312-.457031-9.066406-1.304687 13.261719-3.90625 22.941406-16.171875 22.941406-30.695313v-47.992187zm0 0" fill="#ffc143"/><path d="m384.023438 159.449219v47.992187c0 17.675782 14.328124 32.003906 32 32.003906 17.675781 0 32.003906-14.328124 32.003906-32.003906v-47.992187zm0 0" fill="#0573cf"/><path d="m447.996094 159.449219v47.992187c0 17.675782 14.328125 32.003906 32 32.003906 17.675781 0 32.003906-14.328124 32.003906-32.003906v-47.992187zm0 0" fill="#ffcd6b"/><path d="m448.03125 159.453125v47.992187c0 17.667969-14.335938 32-32.003906 32-3.15625 0-6.199219-.457031-9.066406-1.304687 13.261718-3.90625 22.933593-16.171875 22.933593-30.695313v-47.992187zm0 0" fill="#005aaf"/><path d="m512 159.453125v47.992187c0 17.667969-14.324219 32-32.003906 32-3.152344 0-6.195313-.457031-9.066406-1.304687 13.261718-3.90625 22.941406-16.171875 22.941406-30.695313v-47.992187zm0 0" fill="#ffc143"/><path d="m320.566406 356.234375 18.917969-26.976563c2.441406-3.484374 1.597656-8.292968-1.886719-10.734374-3.484375-2.445313-8.292968-1.601563-10.738281 1.882812l-18.914063 26.976562c-2.445312 3.484376-1.601562 8.292969 1.886719 10.734376 1.34375.945312 2.890625 1.398437 4.417969 1.398437 2.425781.003906 4.816406-1.144531 6.316406-3.28125zm0 0" fill="#64dcfc"/><path d="m369.839844 310.714844c-3.484375-2.445313-8.296875-1.601563-10.738282 1.886718l-45.058593 64.253907c-2.445313 3.484375-1.601563 8.292969 1.886719 10.738281 1.34375.941406 2.890624 1.394531 4.417968 1.394531 2.425782 0 4.816406-1.140625 6.316406-3.28125l45.058594-64.253906c2.445313-3.484375 1.601563-8.292969-1.882812-10.738281zm0 0" fill="#64dcfc"/><path d="m181.078125 449.171875c4.261719 0 7.710937-3.453125 7.710937-7.710937 0-4.257813-3.453124-7.707032-7.710937-7.707032-3.832031 0-6.953125-3.121094-6.953125-6.953125v-49.722656c0-3.835937 3.121094-6.953125 6.953125-6.953125 4.261719 0 7.710937-3.449219 7.710937-7.710938 0-4.257812-3.453124-7.707031-7.710937-7.707031-12.335937 0-22.367187 10.035157-22.367187 22.371094v49.722656c0 12.335938 10.03125 22.371094 22.367187 22.371094zm0 0" fill="#ffcd6b"/></svg>