<svg xmlns="http://www.w3.org/2000/svg" enable-background="new 0 0 64 64" viewBox="0 0 64 64"><path fill="#2a2f64" d="M44.96,1.84H2.99C1.34,1.84,0,3.18,0,4.83V15.8c0,1.65,1.34,2.99,2.99,2.99h41.98c1.65,0,2.99-1.34,2.99-2.99
			V4.83C47.95,3.18,46.61,1.84,44.96,1.84z M46.01,15.8c0,0.57-0.48,1.05-1.05,1.05H2.99c-0.58,0-1.05-0.48-1.05-1.05V4.83
			c0-0.58,0.47-1.05,1.05-1.05h41.98c0.57,0,1.05,0.47,1.05,1.05V15.8z"/><path fill="#f16e61" d="M44.96,3.78H2.99c-0.58,0-1.05,0.47-1.05,1.05V15.8c0,0.57,0.47,1.05,1.05,1.05h41.98
			c0.57,0,1.05-0.48,1.05-1.05V4.83C46.01,4.25,45.53,3.78,44.96,3.78z M26.12,13c0,0.54-0.43,0.97-0.97,0.97H5.98
			c-0.53,0-0.97-0.43-0.97-0.97V7.62c0-0.53,0.44-0.97,0.97-0.97h19.17c0.54,0,0.97,0.44,0.97,0.97V13z M39.4,13.85
			c-1.95,0-3.54-1.59-3.54-3.54c0-1.95,1.59-3.53,3.54-3.53c1.95,0,3.54,1.58,3.54,3.53C42.94,12.26,41.35,13.85,39.4,13.85z"/><path fill="#e25e5a" d="M44.96,3.78H2.99c-0.58,0-1.05,0.47-1.05,1.05V15.8c0,0.57,0.47,1.05,1.05,1.05h41.98
			c0.57,0,1.05-0.48,1.05-1.05V4.83C46.01,4.25,45.53,3.78,44.96,3.78z M44.46,15.29H3.49V5.34h40.97V15.29z"/><path fill="#2a2f64" d="M25.15,6.65H5.98c-0.53,0-0.97,0.44-0.97,0.97V13c0,0.54,0.44,0.97,0.97,0.97h19.17
			c0.54,0,0.97-0.43,0.97-0.97V7.62C26.12,7.09,25.7,6.65,25.15,6.65z M24.18,12.03H6.95V8.59h17.23V12.03z"/><rect width="17.23" height="3.43" x="6.95" y="8.59" fill="#edeced"/><rect width="17.23" height="1.16" x="6.95" y="10.86" fill="#d5d6d5"/><path fill="#2a2f64" d="M39.4,6.78c-1.95,0-3.54,1.58-3.54,3.53c0,1.95,1.59,3.54,3.54,3.54c1.95,0,3.54-1.59,3.54-3.54
			C42.94,8.36,41.35,6.78,39.4,6.78z M39.4,11.91c-0.88,0-1.6-0.72-1.6-1.6c0-0.87,0.72-1.59,1.6-1.59S41,9.44,41,10.31
			C41,11.19,40.28,11.91,39.4,11.91z"/><path fill="#edeced" d="M41,10.31c0,0.88-0.72,1.6-1.6,1.6s-1.6-0.72-1.6-1.6c0-0.87,0.72-1.59,1.6-1.59S41,9.44,41,10.31z"/><path fill="#2a2f64" d="M25.15 28.34H5.98c-.53 0-.97.44-.97.97v5.37c0 .53.44.97.97.97h19.17c.54 0 .97-.44.97-.97v-5.37C26.12 28.78 25.7 28.34 25.15 28.34zM24.18 33.72H6.95v-3.43h17.23V33.72zM25.15 50.03H5.98c-.53 0-.97.44-.97.97v5.37c0 .53.44.97.97.97h19.17c.54 0 .97-.44.97-.97V51C26.12 50.46 25.7 50.03 25.15 50.03zM24.18 55.4H6.95v-3.43h17.23V55.4z"/><path fill="#2a2f64" d="M47.95,28.16v-1.64c0-1.64-1.34-2.98-2.99-2.98H2.98C1.34,23.54,0,24.88,0,26.52v10.96
			c0,1.65,1.34,2.99,2.98,2.99h27.64c-0.43,1.48-0.67,3.04-0.67,4.66c0,0.03,0.01,0.06,0.01,0.09H2.98C1.34,45.22,0,46.56,0,48.2
			v10.97c0,1.64,1.34,2.98,2.98,2.98h41.98c0.21,0,0.41-0.03,0.6-0.07c0.47,0.04,0.93,0.08,1.42,0.08c9.39,0,17.02-7.64,17.02-17.03
			C64,36.08,56.88,28.67,47.95,28.16z M2.98,38.53c-0.58,0-1.04-0.47-1.04-1.05V26.52c0-0.58,0.46-1.04,1.04-1.04h41.98
			c0.57,0,1.05,0.46,1.05,1.04v1.64c-6.63,0.38-12.26,4.54-14.72,10.37H2.98z M2.98,60.21c-0.58,0-1.04-0.46-1.04-1.04V48.2
			c0-0.57,0.46-1.04,1.04-1.04h27.11c0.68,5.68,4.16,10.51,9.01,13.05H2.98z M46.98,60.22c-8.32,0-15.09-6.77-15.09-15.09
			c0-8.31,6.76-15.08,15.07-15.08c0.01,0,0.01,0,0.02,0c0,0,0,0,0.01,0c8.31,0,15.07,6.77,15.07,15.08
			C62.06,53.45,55.29,60.22,46.98,60.22z"/><path fill="#53be9e" d="M46.99,30.05C46.98,30.05,46.98,30.05,46.99,30.05c-0.02,0-0.02,0-0.03,0c-8.31,0-15.07,6.77-15.07,15.08
			c0,8.32,6.77,15.09,15.09,15.09c8.31,0,15.08-6.77,15.08-15.09C62.06,36.82,55.3,30.05,46.99,30.05z M56.18,47.91l-8.49,8.5
			c-0.2,0.19-0.46,0.29-0.71,0.29c-0.26,0-0.51-0.1-0.71-0.29l-8.5-8.5c-0.29-0.29-0.38-0.72-0.22-1.09
			c0.15-0.37,0.52-0.62,0.92-0.62h3.89V34.56c0-0.55,0.45-1,1-1h7.22c0.56,0,1,0.45,1,1V46.2h3.89c0.41,0,0.77,0.25,0.93,0.62
			C56.55,47.19,56.47,47.62,56.18,47.91z"/><path fill="#3ca480" d="M46.99,30.05C46.98,30.05,46.98,30.05,46.99,30.05c-0.02,0-0.02,0-0.03,0c-8.31,0-15.07,6.77-15.07,15.08
			c0,8.32,6.77,15.09,15.09,15.09c8.31,0,15.08-6.77,15.08-15.09C62.06,36.82,55.3,30.05,46.99,30.05z M46.98,58.42
			c-7.33,0-13.29-5.96-13.29-13.29c0-7.32,5.95-13.28,13.27-13.28c0.01,0,0.01,0,0.02,0c0,0,0,0,0.01,0
			c7.32,0,13.27,5.96,13.27,13.28C60.26,52.46,54.3,58.42,46.98,58.42z"/><path fill="#9fd1f0" d="M36.67,58.66c-3.16-2.41-5.46-5.91-6.32-9.95c-0.12-0.5-0.2-1.03-0.26-1.55H2.99
			c-0.15,0-0.28,0.03-0.41,0.08c-0.38,0.16-0.64,0.53-0.64,0.97v10.97c0,0.43,0.26,0.8,0.64,0.96c0.13,0.05,0.26,0.08,0.41,0.08
			h36.12C38.24,59.76,37.43,59.24,36.67,58.66z M5.01,56.37V51c0-0.53,0.44-0.97,0.97-0.97h19.17c0.54,0,0.97,0.44,0.97,0.97v5.37
			c0,0.53-0.43,0.97-0.97,0.97H5.98C5.45,57.34,5.01,56.9,5.01,56.37z"/><rect width="17.23" height="3.43" x="6.95" y="51.97" fill="#edeced"/><path fill="#f9ae47" d="M45.37,25.55c-0.13-0.05-0.26-0.08-0.41-0.08H2.99c-0.15,0-0.28,0.03-0.41,0.08
			c-0.38,0.16-0.64,0.53-0.64,0.96v10.97c0,0.44,0.26,0.81,0.64,0.97c0.13,0.05,0.26,0.08,0.41,0.08h28.3
			c0.22-0.53,0.48-1.06,0.76-1.55c2.5-4.57,7.05-7.85,12.41-8.65c0.5-0.08,1.03-0.14,1.55-0.16v-1.65
			C46.01,26.09,45.74,25.71,45.37,25.55z M26.12,29.31v5.37c0,0.53-0.43,0.97-0.97,0.97H5.98c-0.53,0-0.97-0.44-0.97-0.97v-5.37
			c0-0.53,0.44-0.97,0.97-0.97h19.17C25.7,28.34,26.12,28.78,26.12,29.31z"/><rect width="17.23" height="3.43" x="6.95" y="30.28" fill="#edeced"/><path fill="#ed9b3a" d="M45.37,25.55c-0.13-0.06-0.26-0.09-0.41-0.09H2.99c-0.15,0-0.28,0.03-0.41,0.09
				c-0.38,0.16-0.64,0.53-0.64,0.96v10.97c0,0.44,0.26,0.81,0.64,0.97c0.13,0.05,0.26,0.08,0.41,0.08h28.3
				c0.22-0.53,0.48-1.06,0.76-1.55H3.49v-9.95h40.97v1.3c0.5-0.08,1.03-0.14,1.55-0.16v-1.65C46.01,26.09,45.74,25.71,45.37,25.55z"/><rect width="17.23" height="1.16" x="6.95" y="32.55" fill="#d5d6d5"/><path fill="#8cbfd5" d="M36.67,58.66H3.49v-9.95h26.86c-0.12-0.5-0.2-1.03-0.26-1.55H2.99c-0.15,0-0.28,0.03-0.41,0.08
				c-0.38,0.16-0.64,0.53-0.64,0.97v10.97c0,0.43,0.26,0.8,0.64,0.96c0.13,0.05,0.26,0.08,0.41,0.08h36.12
				C38.24,59.76,37.43,59.24,36.67,58.66z"/><rect width="17.23" height="1.16" x="6.95" y="54.23" fill="#d5d6d5"/><g><path fill="#2a2f64" d="M56.4,46.82c-0.16-0.37-0.52-0.62-0.93-0.62h-3.89V34.56c0-0.55-0.44-1-1-1h-7.22c-0.55,0-1,0.45-1,1V46.2
			h-3.89c-0.4,0-0.77,0.25-0.92,0.62c-0.16,0.37-0.07,0.8,0.22,1.09l8.5,8.5c0.2,0.19,0.45,0.29,0.71,0.29
			c0.25,0,0.51-0.1,0.71-0.29l8.49-8.5C56.47,47.62,56.55,47.19,56.4,46.82z M46.98,54.28l-6.09-6.08h2.47c0.56,0,1-0.44,1-1V35.56
			h5.22V47.2c0,0.56,0.45,1,1,1h2.48L46.98,54.28z"/><path fill="#edeced" d="M53.06,48.2l-6.08,6.08l-6.09-6.08h2.47c0.56,0,1-0.44,1-1V35.56h5.22V47.2c0,0.56,0.45,1,1,1H53.06z"/><polygon fill="#d5d6d5" points="53.06 48.2 46.98 54.28 40.89 48.2 42.96 48.2 46.98 52.21 50.99 48.2"/></g></svg>