<svg xmlns="http://www.w3.org/2000/svg" viewBox="0 0 64 64"><path fill="#1d252d" d="M16,41H48a4,4,0,0,1,4,4V61a0,0,0,0,1,0,0H12a0,0,0,0,1,0,0V45A4,4,0,0,1,16,41Z"/><path fill="#f4a490" d="M48,46.7a65.247,65.247,0,0,0-8.279-3.96C38.55,41.671,37.418,39.047,37,38V36H27v2c-.418,1.051-1.55,3.675-2.721,4.744A65.247,65.247,0,0,0,16,46.7,16.094,16.094,0,0,0,7,61H57A16.094,16.094,0,0,0,48,46.7Z"/><path fill="#e4f4fd" d="M48,46.7a65.125,65.125,0,0,0-8.28-3.96L32,46l-7.72-3.26A65.125,65.125,0,0,0,16,46.7,16.094,16.094,0,0,0,7,61H57A16.094,16.094,0,0,0,48,46.7Z"/><path fill="#01cadb" d="M48,46.7a65.125,65.125,0,0,0-8.28-3.96L32,46l-7.72-3.26A65.125,65.125,0,0,0,16,46.7,38.671,38.671,0,0,1,17.39,61H46.61A38.671,38.671,0,0,1,48,46.7Z"/><path fill="#2e3d4c" d="M17.53,57.5c0,1.2-.05,2.37-.14,3.5h4.47c.09-1.13.14-2.3.14-3.5,0-5.39-.98-10.18-2.49-13.19-1.32.62-2.54,1.26-3.68,1.9A34.5,34.5,0,0,1,17.53,57.5Z"/><path fill="#ffd5c5" d="M21,15V29.578c0,5.049,4.925,9.142,11,9.142s11-4.093,11-9.142V15Z"/><path fill="#f4a490" d="M43 29a4 4 0 000-8zM21 29a4 4 0 010-8z"/><path fill="#1d252d" d="M32,3a20.778,20.778,0,0,0-2.88.2C22.21,4.19,17,8.67,17,14.04V25l11-7s11,7,19,7V14.04C47,7.94,40.28,3,32,3Z"/><path fill="#2e3d4c" d="M46.47,57.5c0,1.2.05,2.37.14,3.5H42.14c-.09-1.13-.14-2.3-.14-3.5,0-5.39.98-10.18,2.49-13.19,1.32.62,2.54,1.26,3.68,1.9A34.5,34.5,0,0,0,46.47,57.5Z"/><polygon fill="#e4f4fd" points="39.721 42.74 39.72 42.74 32 46 24.28 42.74 24.279 42.74 24.278 42.742 32 61 39.722 42.742 39.721 42.74"/><polygon fill="#01727b" points="34.72 54.59 32 61 29.28 54.59 31.156 47.404 32.844 47.404 34.72 54.59"/><polygon fill="#0198a4" points="34.661 46.339 32 44.172 29.339 46.339 32 49 34.661 46.339"/><polygon fill="#c9dfeb" points="37.998 40.204 32 44.172 37.293 48.485 39.722 42.742 37.998 40.204"/><polygon fill="#c9dfeb" points="26.002 40.204 32 44.172 26.707 48.485 24.278 42.742 26.002 40.204"/><path fill="#f4a490" d="M39.654 26.442a1 1 0 00-1.4.149 1.551 1.551 0 01-2.489-.081.989.989 0 00-1.414 0 1 1 0 000 1.414 3.545 3.545 0 005.468-.088A.993.993 0 0039.654 26.442zM29.729 27.836a1 1 0 00-1.564-1.246 1.557 1.557 0 01-2.489-.08.988.988 0 00-1.414 0 1 1 0 000 1.414A3.545 3.545 0 0029.729 27.836zM34.7 33.268a1 1 0 00.01-1.414.991.991 0 00-1.414-.01 1.815 1.815 0 01-2.586.01.98.98 0 00-1.414-.01 1.008 1.008 0 00-.01 1.414A3.867 3.867 0 0034.7 33.268z"/></svg>