<svg xmlns="http://www.w3.org/2000/svg" data-name="Layer 1" viewBox="0 0 64 64"><rect width="29" height="27" x="30" y="2" fill="#e6e6e6" rx="3"/><path fill="#86a1bf" d="M59,5V7H30V5a3,3,0,0,1,3-3H56A3,3,0,0,1,59,5Z"/><circle cx="54" cy="25" r="8" fill="#ffd98c"/><path fill="#95c0f8" d="M2,58V45a4,4,0,0,1,4-4H16a4,4,0,0,1,4,4V58Z"/><circle cx="11" cy="35.5" r="4.5" fill="#ffdbac"/><circle cx="20" cy="56" r="6" fill="#8fccc0"/><polygon fill="#7d94b3" points="20.269 12.028 18.29 6.363 24 7.547 20.269 12.028"/><polygon fill="#7d94b3" points="36.248 54.575 37.556 60.431 32.022 58.593 36.248 54.575"/><path d="M2,59H13.685A6.995,6.995,0,1,0,21,49.08V45a5.006,5.006,0,0,0-5-5H14.152a5.5,5.5,0,1,0-6.3,0H6a5.006,5.006,0,0,0-5,5V58A1,1,0,0,0,2,59Zm18-8a5,5,0,1,1-5,5A5.006,5.006,0,0,1,20,51ZM7.5,35.5A3.5,3.5,0,1,1,11,39,3.5,3.5,0,0,1,7.5,35.5ZM3,45a3,3,0,0,1,3-3H16a3,3,0,0,1,3,3v4.08A6.932,6.932,0,0,0,13.08,57H3Z"/><path d="M18.051 58.95a1 1 0 0 0 1.414 0l4.242-4.243-1.414-1.414-3.535 3.536-1.415-1.415-1.414 1.414zM33 30H46.52v0A8.992 8.992 0 1 0 60 18.311V5a4 4 0 0 0-4-4H33a4 4 0 0 0-4 4V26A4 4 0 0 0 33 30zm28-5a7 7 0 1 1-7-7A7.008 7.008 0 0 1 61 25zM31 5a2 2 0 0 1 2-2H56a2 2 0 0 1 2 2V6H31zm0 3H58v8.95A8.921 8.921 0 0 0 54 16a8.975 8.975 0 0 0-8.475 12H33a2 2 0 0 1-2-2z"/><rect width="3" height="2" x="40" y="12"/><rect width="3" height="2" x="46" y="12"/><rect width="3" height="2" x="52" y="12"/><path d="M53,20v1.051A2.5,2.5,0,0,0,53.5,26h1a.5.5,0,0,1,0,1h-1a.5.5,0,0,1-.5-.5H51a2.5,2.5,0,0,0,2,2.449V30h2V28.949A2.5,2.5,0,0,0,54.5,24h-1a.5.5,0,0,1,0-1h1a.5.5,0,0,1,.5.5h2a2.5,2.5,0,0,0-2-2.449V20Z"/><rect width="3" height="2" x="40" y="17"/><rect width="3" height="2" x="34" y="17"/><rect width="3" height="2" x="40" y="22"/><rect width="3" height="2" x="34" y="22"/><path d="M18.776 10.786l.548 1.571a1 1 0 0 0 .767.655 1.052 1.052 0 0 0 .178.016 1 1 0 0 0 .768-.36l3.732-4.481A1 1 0 0 0 24.2 6.568l-5.71-1.184a1 1 0 0 0-1.147 1.309L18.1 8.86A27.012 27.012 0 0 0 5.727 25.771l1.947.458A25.01 25.01 0 0 1 18.776 10.786zm3.389-2.6L20.63 10.031 19.816 7.7zM58.273 38.229l-1.947-.458A24.986 24.986 0 0 1 37.667 56.34l-.443-1.983a1 1 0 0 0-1.665-.506l-4.226 4.018a1 1 0 0 0 .374 1.673l5.534 1.838a1.014 1.014 0 0 0 .316.051 1 1 0 0 0 .975-1.219L38.1 58.291A26.986 26.986 0 0 0 58.273 38.229zM33.919 58.169l1.738-1.652.538 2.408z"/></svg>