<?xml version="1.0" ?><svg viewBox="0 0 64 64" xmlns="http://www.w3.org/2000/svg"><defs><style>.cls-1{fill:#b5b5b5;}.cls-2{fill:#f2f2f2;}.cls-3{fill:#db655d;}.cls-4{fill:#fadcb6;}.cls-5{fill:#d23f34;}.cls-6{fill:#78a0d4;}.cls-7{fill:#4c6cb5;}</style></defs><title/><g data-name="Layer 24" id="Layer_24"><rect class="cls-1" height="42" width="60" x="2" y="20"/><rect class="cls-2" height="34" width="52" x="6" y="24"/><polygon class="cls-3" points="40 30 34 24 30 24 24 30 27 33 32 28 37 33 40 30"/><path class="cls-4" d="M7,20H7a7.88,7.88,0,0,1,7-7.82l8.23-1a2.05,2.05,0,0,0,1.82-2h0A2.06,2.06,0,0,0,23,7.4l-.57-.34A7.07,7.07,0,0,1,19,1H45a7.07,7.07,0,0,1-3.43,6.06L41,7.4a2.06,2.06,0,0,0-1,1.77h0a2.05,2.05,0,0,0,1.82,2l8.23,1A7.88,7.88,0,0,1,57,20H7Z"/><path class="cls-1" d="M35,49V34.12a5.12,5.12,0,0,1,1.5-3.62h0A5.12,5.12,0,0,1,40.12,29h2a5.1,5.1,0,0,1,4.34,2.41h0A22.94,22.94,0,0,1,50,43.6v4.24a7,7,0,0,1-.37,2.26h0A7.15,7.15,0,0,1,42.84,55h0a10.18,10.18,0,0,1-5.27-1.46h0A5.28,5.28,0,0,1,35,49Z"/><path class="cls-5" d="M29,49V34.12a5.12,5.12,0,0,0-1.5-3.62h0A5.12,5.12,0,0,0,23.88,29h-2a5.1,5.1,0,0,0-4.34,2.41h0A22.94,22.94,0,0,0,14,43.6v4.24a7,7,0,0,0,.37,2.26h0A7.15,7.15,0,0,0,21.16,55h0a10.18,10.18,0,0,0,5.27-1.46h0A5.28,5.28,0,0,0,29,49Z"/><rect class="cls-3" height="19" width="4" x="30" y="1"/><path class="cls-3" d="M29,34.59,24.59,39H21v2h3v2.59l-1.71,1.7,1.42,1.42,2-2A1,1,0,0,0,26,44V40.41l3-3Z"/><path class="cls-3" d="M19.17,29.76a5.15,5.15,0,0,0-1.47,1.36l2.59,2.59A1,1,0,0,0,21,34h3V32H21.41Z"/><circle class="cls-2" cx="44" cy="41" r="2"/><rect class="cls-6" height="2" transform="translate(-22.18 46.46) rotate(-45)" width="2.83" x="43.59" y="49"/><rect class="cls-7" height="2.83" transform="translate(-20.4 40.76) rotate(-45)" width="2" x="38" y="43.59"/><rect class="cls-6" height="2" transform="translate(-15.45 38.71) rotate(-45)" width="2.83" x="37.59" y="37"/><rect class="cls-7" height="2.83" transform="translate(-10.74 40.07) rotate(-45)" width="2" x="42" y="31.59"/></g></svg>