<?xml version="1.0" encoding="UTF-8"?>
<svg xmlns="http://www.w3.org/2000/svg" xmlns:xlink="http://www.w3.org/1999/xlink" viewBox="0 0 30 30" width="30px" height="30px">
<g id="surface3120856">
<path style=" stroke:none;fill-rule:nonzero;fill:rgb(94.509804%,94.509804%,94.509804%);fill-opacity:1;" d="M 15 27 C 8.371094 27 3 21.628906 3 15 C 3 8.371094 8.371094 3 15 3 C 21.628906 3 27 8.371094 27 15 C 27 21.628906 21.628906 27 15 27 Z M 15 27 "/>
<path style=" stroke:none;fill-rule:nonzero;fill:rgb(20.392157%,59.607846%,85.882354%);fill-opacity:1;" d="M 15 6.75 C 12.960938 6.75 11.082031 7.496094 9.640625 8.726562 C 9.445312 8.882812 9.351562 9.132812 9.394531 9.382812 C 9.4375 9.628906 9.609375 9.835938 9.847656 9.914062 C 10.085938 9.996094 10.351562 9.941406 10.535156 9.769531 C 11.738281 8.742188 13.292969 8.125 15 8.125 C 18.574219 8.125 21.496094 10.832031 21.839844 14.3125 L 19.8125 14.3125 L 22.5625 18.4375 L 25.3125 14.3125 L 23.214844 14.3125 C 22.863281 10.085938 19.316406 6.75 15 6.75 Z M 7.4375 11.5625 L 4.6875 15.6875 L 6.785156 15.6875 C 7.136719 19.914062 10.683594 23.25 15 23.25 C 17.039062 23.25 18.917969 22.503906 20.359375 21.273438 C 20.554688 21.117188 20.648438 20.867188 20.605469 20.617188 C 20.5625 20.371094 20.390625 20.164062 20.152344 20.085938 C 19.914062 20.003906 19.648438 20.058594 19.464844 20.230469 C 18.261719 21.257812 16.707031 21.875 15 21.875 C 11.425781 21.875 8.503906 19.167969 8.160156 15.6875 L 10.1875 15.6875 Z M 7.4375 11.5625 "/>
</g>
</svg>
