<svg xmlns="http://www.w3.org/2000/svg" viewBox="0 0 48 48"><g data-name="7. diagram"><rect width="14" height="10" x="17" y="1" fill="#db5669"/><rect width="14" height="10" x="1" y="29" fill="#6fabe6"/><path fill="#82bcf4" d="M15,29v8H12a8,8,0,0,1-8-8Z"/><rect width="8" height="6" x="39" y="31" fill="#fc6"/><rect width="8" height="6" x="39" y="41" fill="#fc6"/><rect width="8" height="6" x="39" y="21" fill="#fc6"/><path fill="#ffde76" d="M47,21v4H45a4,4,0,0,1-4-4Z"/><path fill="#919191" d="M35,35a1,1,0,0,0,0-2H25V25H35a1,1,0,0,0,0-2H25V15a1,1,0,0,0-2,0v2H8a1,1,0,0,0-1,1v7a1,1,0,0,0,2,0V19H23V33H19a1,1,0,0,0,0,2h4v9a1,1,0,0,0,1,1H35a1,1,0,0,0,0-2H25V35Z"/><path fill="#f26674" d="M31,1V9H28a8,8,0,0,1-8-8Z"/><path fill="#ffde76" d="M47 31v4H45a4 4 0 0 1-4-4zM47 41v4H45a4 4 0 0 1-4-4z"/></g></svg>