<svg id="Capa_1" enable-background="new 0 0 512 512" height="512" viewBox="0 0 512 512" width="512" xmlns="http://www.w3.org/2000/svg" xmlns:xlink="http://www.w3.org/1999/xlink"><linearGradient id="SVGID_1_" gradientUnits="userSpaceOnUse" x1="514.74" x2="-406.351" y1="325.589" y2="121.569"><stop offset=".007" stop-color="#9494ff"/><stop offset=".992" stop-color="#ffe8dc" stop-opacity="0"/></linearGradient><linearGradient id="lg1"><stop offset="0" stop-color="#ff4d4d" stop-opacity=".4"/><stop offset="1" stop-color="#ff4d4d" stop-opacity="0"/></linearGradient><linearGradient id="SVGID_2_" gradientUnits="userSpaceOnUse" x1="379.34" x2="379.34" xlink:href="#lg1" y1="379.465" y2="188.492"/><linearGradient id="SVGID_3_" gradientUnits="userSpaceOnUse" x1="164.84" x2="164.84" xlink:href="#lg1" y1="299.402" y2="44.068"/><g><g><g><path d="m428.41 171.888c-8.355-8.355-18.026-14.923-28.717-19.765-28.021-12.69-50.051-35.408-62.434-63.565-22.917-52.113-74.975-88.512-135.546-88.558-79.311-.06-145.162 63.163-148.147 142.418-1.277 33.922 8.857 65.421 26.87 90.969 22.877 32.448 28.821 73.782 17.021 111.69-16.764 53.857-10.919 104.898 20.973 136.791 55.888 55.888 170.586 31.803 256.185-53.795 85.598-85.599 109.683-200.296 53.795-256.185z" fill="url(#SVGID_1_)"/></g><g><g><g><path d="m474.827 298.363v-28.77c0-2.761-2.239-5-5-5h-19.956c-1.622-5.929-3.972-11.553-6.949-16.778l14.109-14.114c1.952-1.953 1.952-5.118-.001-7.07l-20.343-20.343c-1.952-1.952-5.118-1.953-7.07-.001l-14.114 14.109c-5.225-2.976-10.849-5.326-16.778-6.949v-19.956c0-2.761-2.239-5-5-5h-28.77c-2.761 0-5 2.239-5 5v19.956c-5.929 1.622-11.553 3.972-16.778 6.949l-14.114-14.109c-1.953-1.952-5.118-1.952-7.07.001l-20.343 20.343c-1.952 1.952-1.953 5.118-.001 7.07l14.109 14.114c-2.976 5.225-5.326 10.85-6.949 16.778h-19.956c-2.762 0-5 2.239-5 5v28.77c0 2.761 2.238 5 5 5h19.956c1.622 5.929 3.972 11.553 6.949 16.778l-14.109 14.113c-1.952 1.953-1.952 5.118.001 7.071l20.343 20.343c1.952 1.952 5.118 1.953 7.07.001l14.114-14.109c5.225 2.976 10.85 5.326 16.778 6.949v19.956c0 2.761 2.239 5 5 5h28.77c2.761 0 5-2.239 5-5v-19.956c5.929-1.622 11.553-3.972 16.778-6.949l14.114 14.109c1.953 1.952 5.118 1.952 7.07-.001l20.343-20.343c1.952-1.952 1.953-5.118.001-7.071l-14.109-14.113c2.976-5.225 5.326-10.85 6.949-16.778h19.956c2.761 0 5-2.239 5-5zm-95.487 23.115c-20.711 0-37.5-16.789-37.5-37.5s16.789-37.5 37.5-37.5 37.5 16.789 37.5 37.5-16.789 37.5-37.5 37.5z" fill="#ff9d33"/></g><g><path d="m292.818 404.041v-20.001c0-2.761-2.238-5-5-5h-14.312c-1.255-4.588-3.074-8.94-5.377-12.984l10.119-10.122c1.952-1.953 1.952-5.118-.001-7.07l-14.144-14.143c-1.952-1.952-5.118-1.953-7.07-.001l-10.122 10.119c-4.043-2.303-8.396-4.122-12.984-5.377v-14.312c0-2.761-2.239-5-5-5h-20.002c-2.761 0-5 2.239-5 5v14.312c-4.588 1.255-8.94 3.074-12.984 5.377l-10.122-10.119c-1.953-1.952-5.118-1.952-7.07.001l-14.143 14.143c-1.952 1.952-1.953 5.118-.001 7.07l10.119 10.122c-2.303 4.043-4.122 8.396-5.377 12.984h-14.312c-2.762 0-5 2.239-5 5v20.002c0 2.761 2.238 5 5 5h14.312c1.255 4.588 3.074 8.94 5.377 12.984l-10.119 10.122c-1.952 1.953-1.952 5.118.001 7.07l14.143 14.143c1.952 1.952 5.118 1.953 7.07.001l10.122-10.119c4.043 2.303 8.396 4.122 12.984 5.377v14.312c0 2.761 2.239 5 5 5h20.002c2.761 0 5-2.239 5-5v-14.312c4.588-1.255 8.94-3.074 12.984-5.377l10.122 10.119c1.953 1.952 5.118 1.952 7.07-.001l14.144-14.143c1.952-1.952 1.953-5.118.001-7.07l-10.119-10.122c2.303-4.043 4.122-8.396 5.377-12.984h14.312c2.761-.001 5-2.239 5-5.001zm-73.892 19.913c-16.521 0-29.914-13.393-29.914-29.914s13.393-29.914 29.914-29.914 29.914 13.393 29.914 29.914-13.393 29.914-29.914 29.914z" fill="#6c6cff"/></g><g><path d="m292.507 192.653v-41.835c0-2.761-2.238-5-5-5h-28.366c-2.169-7.927-5.311-15.447-9.291-22.433l20.055-20.062c1.952-1.953 1.952-5.118-.001-7.07l-29.582-29.582c-1.952-1.952-5.118-1.953-7.07-.001l-20.062 20.055c-6.986-3.979-14.506-7.121-22.433-9.291v-28.366c0-2.761-2.239-5-5-5h-41.835c-2.761 0-5 2.239-5 5v28.366c-7.927 2.169-15.447 5.311-22.433 9.291l-20.061-20.055c-1.953-1.952-5.118-1.952-7.071.001l-29.581 29.581c-1.952 1.952-1.953 5.118-.001 7.071l20.055 20.062c-3.979 6.986-7.121 14.506-9.29 22.433h-28.367c-2.761 0-5 2.239-5 5v41.835c0 2.762 2.239 5 5 5h28.367c2.169 7.927 5.311 15.447 9.29 22.433l-20.055 20.061c-1.952 1.953-1.952 5.118.001 7.071l29.582 29.582c1.952 1.952 5.118 1.953 7.071.001l20.061-20.055c6.986 3.979 14.506 7.121 22.433 9.29v28.366c0 2.762 2.239 5 5 5h41.835c2.761 0 5-2.238 5-5v-28.366c7.927-2.169 15.447-5.311 22.433-9.29l20.062 20.055c1.953 1.952 5.118 1.952 7.07-.001l29.582-29.582c1.952-1.952 1.953-5.118.001-7.071l-20.055-20.061c3.979-6.986 7.121-14.506 9.291-22.433h28.366c2.76 0 4.999-2.239 4.999-5zm-127.667 35.65c-31.242 0-56.568-25.326-56.568-56.568s25.326-56.568 56.568-56.568 56.568 25.326 56.568 56.568-25.326 56.568-56.568 56.568z" fill="#ff6c6c"/></g></g><g><path d="m379.34 105.304c-7.292 0-13.225-5.933-13.225-13.225s5.933-13.225 13.225-13.225c7.293 0 13.225 5.933 13.225 13.225s-5.933 13.225-13.225 13.225zm0-16.449c-1.778 0-3.225 1.446-3.225 3.225 0 1.778 1.447 3.225 3.225 3.225s3.225-1.446 3.225-3.225-1.447-3.225-3.225-3.225z" fill="#6c6cff"/></g><g><path d="m379.34 477.314c-7.292 0-13.225-5.933-13.225-13.225 0-7.293 5.933-13.226 13.225-13.226 7.293 0 13.225 5.933 13.225 13.226 0 7.292-5.933 13.225-13.225 13.225zm0-16.451c-1.778 0-3.225 1.447-3.225 3.226 0 1.778 1.447 3.225 3.225 3.225s3.225-1.446 3.225-3.225c0-1.778-1.447-3.226-3.225-3.226z" fill="#ff9d33"/></g><g><path d="m218.926 49.068c-7.292 0-13.225-5.933-13.225-13.225 0-7.293 5.933-13.226 13.225-13.226s13.225 5.933 13.225 13.226-5.933 13.225-13.225 13.225zm0-16.45c-1.778 0-3.225 1.447-3.225 3.226 0 1.778 1.447 3.225 3.225 3.225s3.225-1.446 3.225-3.225-1.447-3.226-3.225-3.226z" fill="#6c6cff"/></g><g><path d="m329.085 142.996c-1.28 0-2.559-.488-3.536-1.465l-11.292-11.292c-1.953-1.952-1.953-5.118 0-7.07l11.292-11.292c1.953-1.953 5.118-1.953 7.071 0l11.292 11.292c.938.938 1.464 2.209 1.464 3.535s-.527 2.598-1.464 3.535l-11.292 11.292c-.976.977-2.256 1.465-3.535 1.465zm-4.221-16.292 4.221 4.221 4.221-4.221-4.221-4.221z" fill="#ff6c6c"/></g><g><path d="m58.708 350.232c-1.326 0-2.598-.527-3.536-1.465l-11.292-11.292c-1.953-1.952-1.953-5.118 0-7.07l11.292-11.292c1.953-1.953 5.118-1.953 7.071 0l11.292 11.292c.938.938 1.464 2.209 1.464 3.535s-.527 2.598-1.464 3.535l-11.292 11.293c-.937.937-2.209 1.464-3.535 1.464zm-4.222-16.292 4.221 4.222 4.221-4.222-4.221-4.221z" fill="#ff9d33"/></g></g></g><g><path d="m474.827 298.363v-28.77c0-2.761-2.239-5-5-5h-19.956c-1.622-5.929-3.972-11.553-6.949-16.778l14.109-14.114c1.952-1.953 1.952-5.118-.001-7.07l-20.343-20.343c-1.952-1.952-5.118-1.953-7.07-.001l-14.114 14.109c-5.225-2.976-10.849-5.326-16.778-6.949v-19.956c0-2.761-2.239-5-5-5h-28.77c-2.761 0-5 2.239-5 5v19.956c-5.929 1.622-11.553 3.972-16.778 6.949l-14.114-14.109c-1.953-1.952-5.118-1.952-7.07.001l-20.343 20.343c-1.952 1.952-1.953 5.118-.001 7.07l14.109 14.114c-2.976 5.225-5.326 10.85-6.949 16.778h-19.956c-2.762 0-5 2.239-5 5v28.77c0 2.761 2.238 5 5 5h19.956c1.622 5.929 3.972 11.553 6.949 16.778l-14.109 14.113c-1.952 1.953-1.952 5.118.001 7.071l20.343 20.343c1.952 1.952 5.118 1.953 7.07.001l14.114-14.109c5.225 2.976 10.85 5.326 16.778 6.949v19.956c0 2.761 2.239 5 5 5h28.77c2.761 0 5-2.239 5-5v-19.956c5.929-1.622 11.553-3.972 16.778-6.949l14.114 14.109c1.953 1.952 5.118 1.952 7.07-.001l20.343-20.343c1.952-1.952 1.953-5.118.001-7.071l-14.109-14.113c2.976-5.225 5.326-10.85 6.949-16.778h19.956c2.761 0 5-2.239 5-5zm-95.487 23.115c-20.711 0-37.5-16.789-37.5-37.5s16.789-37.5 37.5-37.5 37.5 16.789 37.5 37.5-16.789 37.5-37.5 37.5z" fill="url(#SVGID_2_)"/></g><g><path d="m292.507 192.653v-41.835c0-2.761-2.238-5-5-5h-28.366c-2.169-7.927-5.311-15.447-9.291-22.433l20.055-20.062c1.952-1.953 1.952-5.118-.001-7.07l-29.582-29.582c-1.952-1.952-5.118-1.953-7.07-.001l-20.062 20.055c-6.986-3.979-14.506-7.121-22.433-9.291v-28.366c0-2.761-2.239-5-5-5h-41.835c-2.761 0-5 2.239-5 5v28.366c-7.927 2.169-15.447 5.311-22.433 9.291l-20.061-20.055c-1.953-1.952-5.118-1.952-7.071.001l-29.581 29.581c-1.952 1.952-1.953 5.118-.001 7.071l20.055 20.062c-3.979 6.986-7.121 14.506-9.29 22.433h-28.367c-2.761 0-5 2.239-5 5v41.835c0 2.762 2.239 5 5 5h28.367c2.169 7.927 5.311 15.447 9.29 22.433l-20.055 20.061c-1.952 1.953-1.952 5.118.001 7.071l29.582 29.582c1.952 1.952 5.118 1.953 7.071.001l20.061-20.055c6.986 3.979 14.506 7.121 22.433 9.29v28.366c0 2.762 2.239 5 5 5h41.835c2.761 0 5-2.238 5-5v-28.366c7.927-2.169 15.447-5.311 22.433-9.29l20.062 20.055c1.953 1.952 5.118 1.952 7.07-.001l29.582-29.582c1.952-1.952 1.953-5.118.001-7.071l-20.055-20.061c3.979-6.986 7.121-14.506 9.291-22.433h28.366c2.76 0 4.999-2.239 4.999-5zm-127.667 35.65c-31.242 0-56.568-25.326-56.568-56.568s25.326-56.568 56.568-56.568 56.568 25.326 56.568 56.568-25.326 56.568-56.568 56.568z" fill="url(#SVGID_3_)"/></g></g></svg>