<svg xmlns="http://www.w3.org/2000/svg" data-name="Filled outline" viewBox="0 0 64 64"><circle cx="25" cy="38.75" r="22.25" fill="#feb944"/><circle cx="47.5" cy="16.5" r="13.5" fill="#3c323d"/><circle cx="47.5" cy="16.5" r="9.64" fill="#d7e6ef"/><path fill="#1e120b" d="M62,16.5a14.49,14.49,0,1,0-29,.43A23.3,23.3,0,1,0,46.9,31,14.5,14.5,0,0,0,62,16.5ZM33.26,19.18a14.34,14.34,0,0,0,2,5H31.78a43.18,43.18,0,0,0-4.44-6.52A20.71,20.71,0,0,1,33.26,19.18ZM16.16,37.75a28.74,28.74,0,0,1,3.3-11.6H30.54a28.74,28.74,0,0,1,3.3,11.6Zm17.68,2a28.74,28.74,0,0,1-3.3,11.6H19.46a28.74,28.74,0,0,1-3.3-11.6Zm-1-13.6h3.9a14.52,14.52,0,0,0,7.94,4.57,20.92,20.92,0,0,1,1.55,7H35.86A29.83,29.83,0,0,0,32.81,26.15Zm-3.37-2H20.56A42.09,42.09,0,0,1,25,18,42.09,42.09,0,0,1,29.44,24.15Zm-6.79-6.51a42.34,42.34,0,0,0-4.43,6.51H9.6A21.15,21.15,0,0,1,22.65,17.64ZM7.93,26.15h9.26a29.83,29.83,0,0,0-3.05,11.6H3.8A21.06,21.06,0,0,1,7.93,26.15Zm0,25.2A21.06,21.06,0,0,1,3.8,39.75H14.14a29.83,29.83,0,0,0,3.05,11.6Zm1.67,2h8.62a42.34,42.34,0,0,0,4.43,6.51A21.15,21.15,0,0,1,9.6,53.35Zm11,0h8.88A42.09,42.09,0,0,1,25,59.52,42.09,42.09,0,0,1,20.56,53.35Zm6.79,6.51a42.34,42.34,0,0,0,4.43-6.51H40.4A21.15,21.15,0,0,1,27.35,59.86Zm14.72-8.51H32.81a29.83,29.83,0,0,0,3-11.6H46.2A21.06,21.06,0,0,1,42.07,51.35ZM35,16.5A12.5,12.5,0,1,1,47.5,29,12.52,12.52,0,0,1,35,16.5Z"/><path fill="#1e120b" d="M58.14,16.5A10.64,10.64,0,1,0,47.5,27.14,10.65,10.65,0,0,0,58.14,16.5Zm-19.28,0a8.64,8.64,0,1,1,8.64,8.64A8.64,8.64,0,0,1,38.86,16.5Z"/><path fill="#1e120b" d="M48.5,16.5V10.71a1,1,0,0,0-2,0v5.38l-2.6,2.6a1,1,0,0,0,1.41,1.41l2.9-2.89A1.05,1.05,0,0,0,48.5,16.5Z"/></svg>