<svg
    xmlns="http://www.w3.org/2000/svg"
    viewBox="0 0 58 58"
    id="vector">
    <path
        id="path"
        d="M 36.999 7 C 36.999 7 37.155 1 32.999 1 L 27.938 1 L 28.06 1 L 23 1 C 18.844 1 19 7 19 7"
        fill="none"
        stroke="#fd003a"
        stroke-width="2"
        stroke-miterlimit="10"/>
    <path
        id="path_1"
        d="M 6 7 L 52 7"
        fill="none"
        stroke="#fd003a"
        stroke-width="2"
        stroke-linecap="round"
        stroke-linejoin="round"
        stroke-miterlimit="10"/>
    <path
        id="path_2"
        d="M 9.167 11 L 10.956 54 C 10.956 54 11.041 58 14.864 58 L 28.481 58 L 28.54 58 L 43.136 58 C 46.959 58 47.044 54 47.044 54 L 48.833 11 L 9.167 11 Z"
        fill="#fd003a"/>
    <path
        id="path_3"
        d="M 17 53 L 41 53"
        fill="none"
        stroke="#ffffff"
        stroke-width="2"
        stroke-linecap="round"
        stroke-linejoin="round"
        stroke-miterlimit="10"/>
    <path
        id="path_4"
        d="M 17 48 L 41 48"
        fill="none"
        stroke="#ffffff"
        stroke-width="2"
        stroke-linecap="round"
        stroke-linejoin="round"
        stroke-miterlimit="10"/>
    <path
        id="path_5"
        d="M 17 43 L 41 43"
        fill="none"
        stroke="#ffffff"
        stroke-width="2"
        stroke-linecap="round"
        stroke-linejoin="round"
        stroke-miterlimit="10"/>
</svg>
