<svg id="SvgjsSvg1226" width="288" height="288" xmlns="http://www.w3.org/2000/svg" version="1.1" xmlns:xlink="http://www.w3.org/1999/xlink" xmlns:svgjs="http://svgjs.com/svgjs"><defs id="SvgjsDefs1227"></defs><g id="SvgjsG1228"><svg xmlns="http://www.w3.org/2000/svg" enable-background="new 0 0 1080 1080" viewBox="0 0 1080 1080" width="288" height="288"><path d="M350.2 452c13.4 0 24.4-10.9 24.4-24.4 0-13.6-10.9-24.5-24.4-24.5-13.5 0-24.4 10.9-24.4 24.5C325.8 441.1 336.7 452 350.2 452zM501.4 452c13.6 0 24.5-10.9 24.5-24.4 0-13.6-10.9-24.5-24.5-24.5-13.5 0-24.4 10.9-24.4 24.5C477 441.1 488 452 501.4 452zM373.4 550.6c.1.3.2.4.5.6 14.2 13.6 32.8 21.1 52.3 21.1 19.5 0 38.1-7.5 52.3-21.1.3-.3.4-.4.5-.6 4.4-4.9 4.4-12.4-.3-17.2-4.8-5-12.7-5.2-17.7-.4-19 18.2-50.7 18.2-69.6 0-5-4.8-12.9-4.7-17.9.4C369 538.1 368.9 545.7 373.4 550.6zM426.2 499c6.9 0 12.6-5.7 12.6-12.6V444c0-7-5.7-12.6-12.6-12.6-6.9 0-12.6 5.5-12.6 12.6v42.5C413.7 493.4 419.3 499 426.2 499z" fill="#1e6262" class="color000 svgShape"></path><path d="M940,775.7c-0.4-12.7-6.9-24.1-16.7-31.3c5.9-8.3,8.6-18.6,7.3-28.9c-2.6-20.2-20.4-35.4-41.4-35.4H801l7.5-24.8
		c0.4-1.1,0.6-2.4,0.6-3.6v-16.3c68.4-7.7,121.6-65.6,121.6-136.1c0-75.9-61.5-137.3-137.1-137.3c-75.8,0-137.3,61.3-137.3,137.3
		c0,44.4,21.1,83.8,53.9,109v38.6l-30,45c-7-10.8-19.1-17.8-32.9-17.8H636c-9.9-4.9-20.6-8.7-31.9-10.9l-63.2-13.1
		c-0.5-0.1-1.1-0.3-1.6-0.3l-20.1-4.3c-0.1,0-0.4-0.1-0.6-0.1c-0.3-0.1-0.5-0.1-0.8-0.3c-7.5-1.6-14.6-6-19.7-12.1
		c-0.5-0.6-1-1.3-1.4-1.9c49-24.6,83.5-74.2,86.7-132c0,0,0-0.1,0-0.1c28.7-6.4,49.8-31.7,49.8-62.3c0-11.1-3-21.4-8-30.5
		c0-0.1,0.1-0.2,0.1-0.3c4.9-17.5,7.5-36,7.5-55.1c0-114-92.8-206.8-206.7-206.8c-114,0-206.8,92.8-206.8,206.8
		c0,19.1,2.6,37.6,7.5,55.1c0,0.1,0.1,0.2,0.1,0.3c-4.9,9.1-8,19.4-8,30.5c0,30.6,21.1,55.9,49.9,62.3c0,0,0,0.1,0,0.1
		c3.1,57.8,37.6,107.4,86.5,132c-4.6,6.4-11.2,11.3-19.1,13.6l-23.1,5c-0.6,0-1.3,0.1-2,0.3L248,662.9
		c-62.6,12.9-108,68.8-108,132.6v73.9c0,35.2,28.5,63.9,63.7,63.9H571c4.3,1.8,9.1,2.6,14,2.6h62.2c7.3,0,14.2-2,20-5.5h0.1
		c6.8-2.1,13.1-5.4,18.6-9.4l20.4,8c1.5,0.5,3,0.9,4.7,0.9h145.8c20.9,0,38.7-15.2,41.2-35.4c1-8-0.4-16.1-3.9-23.3
		c15.6-5.7,27-20.1,27.5-37.1c0.3-7.3-1.5-14.3-4.9-20.5c4.4-2,8.3-4.9,11.8-8.4C936.2,797.3,940.2,786.8,940,775.7z M910.4,787.6
		c-2.9,3.1-6.9,4.8-11.1,4.8h-17.7H881h-35.3c-6.9,0-12.6,5.7-12.6,12.6c0,6.9,5.7,12.6,12.6,12.6H881h0.6c4,0.1,7.7,1.8,10.4,4.7
		c3,3,4.5,7,4.4,11.3c-0.3,8.3-7.7,15.1-16.6,15.1h-22.3h-35.8c-7,0-12.6,5.5-12.6,12.6c0,6.9,5.5,12.6,12.6,12.6h35.8
		c4.5,0,8.8,1.9,11.7,5.3c3,3.4,4.3,7.8,3.8,12.3c-1,7.5-8.2,13.5-16.3,13.5H713.3l-9.6-3.9l-17.2-6.8v-20.6
		c0.1-1.3,0.3-2.5,0.3-3.9v-74c0-2.1-0.1-4.3-0.3-6.4v-68.6l1.8-0.6c0.1,0,0.1,0,0.3-0.1c2.5-0.9,4.7-2.6,6.3-4.8l38.3-57.4
		c1.4-2,2.1-4.4,2.1-6.9v-27.3v-26c0-5.5,4.5-10.1,10.1-10.1c21.2,0,38.6,17.3,38.6,38.6v10.1v13.8L771.9,689
		c-1.1,3.8-0.4,7.9,1.9,11.1c2.4,3.3,6.2,5.2,10.2,5.2h105.2c8.2,0,15.3,5.9,16.3,13.5c0.6,4.5-0.8,8.9-3.6,12.3
		c-3,3.3-7.3,5.3-11.7,5.3h-1.6h-34.3h-1.6c-6.9,0-12.6,5.5-12.6,12.6c0,6.9,5.7,12.6,12.6,12.6h1.6h34.3h1.6h7.9
		c9.1,0,16.5,6.7,16.7,15C915,780.6,913.5,784.6,910.4,787.6z M661.4,713.2v2.1v9.9v3.3v155.5v12.7c0,0.3,0,0.6-0.1,0.9
		c-0.1,3.9-2,7.3-4.8,9.7c-1.1,0.3-2.3,0.5-3.5,0.5l1.9,0.8c-2.3,1.4-4.9,2.3-7.7,2.3H585c-3,0-5.9-1-8.2-2.6
		c-3.5-2.5-5.9-6.7-5.9-11.4V713.2c0-7.8,6.3-14.2,14.1-14.2h44.8h17.5c4,0,7.7,1.8,10.3,4.4C659.9,705.9,661.4,709.5,661.4,713.2z
		 M743.4,476.6l21.4-3c3.8-0.6,7-3,8.7-6.4l9.6-19.4c4.3-8.7,16.6-8.7,20.9,0l9.6,19.4c1.8,3.4,5,5.8,8.8,6.4l21.4,3
		c9.6,1.4,13.3,13.2,6.4,19.9l-15.5,15.1c-2.6,2.6-3.9,6.5-3.3,10.3l3.6,21.2c1.6,9.6-8.4,16.7-17,12.3l-19.1-10.1
		c-3.3-1.8-7.4-1.8-10.8,0l-19.1,10.1c-8.6,4.4-18.5-2.8-16.8-12.3l3.6-21.2c0.6-3.8-0.6-7.7-3.4-10.3L737,496.5
		C730.1,489.8,733.8,478,743.4,476.6z M293.6,490.1V383.2c0-0.9-0.1-1.9-0.4-2.8c-0.6-12.4-0.6-57.4,31.2-74
		c13.5-7,30.3-4.7,41.6,5.9c16.1,15,45.8,33.9,96.3,39.6c6.3,0.6,11.6-3,13.5-8.8c1.4-4.3,0.3-8.9-2.8-12.2
		c18.5,7.7,40,13.3,63.5,13.7c5-0.4,9.9-3.1,11.9-8c1.9-4.9,0.6-10.4-3.3-14c-8.5-7.7-27.4-26.5-40.4-45.4
		c10.9,4.7,23.4,12.3,33.7,24.6c16.6,19.9,23.3,47.5,20,83.2v105c0,7-0.5,14-1.6,20.6c-6.4,41.2-32.1,76.3-67.4,95.7
		c-3.9,2.1-7.9,4-11.9,5.8c-13.4,5.7-27.9,9.2-43.1,10.2H428h-10.4c-15.1-1-29.5-4.5-43-10.1c-4-1.8-8-3.8-11.9-5.8
		c-35.3-19.5-61-54.4-67.4-95.8C294.1,504,293.6,497.1,293.6,490.1z M370.8,651.6c3.1-3.3,5.8-7,8.2-10.9c14.8,4.5,30.7,7,47,7h2
		c15.7-0.3,30.8-2.6,45.1-7.2c1.5,2.9,3.4,5.5,5.5,8.2c1,1.3,2.1,2.5,3.4,3.8c0.9,0.9,1.8,1.8,2.6,2.5c1.5,1.5,3.3,2.9,5,4.1
		c1,0.9,2.1,1.6,3.4,2.4c0.8,0.5,1.5,0.9,2.3,1.4L428,755.2l-1,1.4l-68.6-94.5c0.6-0.4,1.4-0.9,2-1.4c0.6-0.4,1.1-0.8,1.8-1.3
		c0.9-0.6,1.8-1.4,2.6-2.1c1.1-0.8,2.1-1.6,3.1-2.6C368.9,653.6,369.9,652.6,370.8,651.6z M428,908.2V790.4c3.6-0.3,7-2,9.2-5
		l83.2-114l15.3,3.1c0.6,0.1,1.3,0.3,1.8,0.3l26.3,5.4c-10.8,6.9-18,19.1-18,33.1v183.5c0,4,0.6,7.8,1.6,11.4H428z" fill="#1e6262" class="color000 svgShape"></path><path d="M616.2,851.7c-9.8,0-17.8,7.9-17.8,17.9c0,9.9,8,17.8,17.8,17.8c7,0,13.2-4,16-9.9c1.3-2.4,1.9-5,1.9-7.9
		c0-2.9-0.6-5.5-1.9-7.9C629.4,855.8,623.2,851.7,616.2,851.7z" fill="#1e6262" class="color000 svgShape"></path></svg></g></svg>