<svg xmlns="http://www.w3.org/2000/svg" viewBox="0 0 48 48"><g data-name="1. Mortarboard on website"><path fill="#6fabe6" d="M47,3V9H1V3A2,2,0,0,1,3,1H45A2,2,0,0,1,47,3Z"/><path fill="#82bcf4" d="M47,3V7H10A6,6,0,0,1,4,1H45A2,2,0,0,1,47,3Z"/><path fill="#dad7e5" d="M47,9V45a2,2,0,0,1-2,2H3a2,2,0,0,1-2-2V9Z"/><path fill="#edebf2" d="M47,9V45H40A36.11,36.11,0,0,1,4,9Z"/><path fill="#f26674" d="M5,6a1,1,0,1,1,1-.8A1,1,0,0,1,5,6Z"/><path fill="#ffde76" d="M8,5a1,1,0,1,1,2,.2A1,1,0,0,1,8,5Z"/><path fill="#b5e08c" d="M13,6a1,1,0,0,1-1-1,1,1,0,1,1,1,1Z"/><path fill="#374f68" d="M34,26.25V36a2,2,0,0,1-2,2H16a2,2,0,0,1-2-2V26.25c7.8,2.93-4-1.48,10,3.75Z"/><path fill="#425b72" d="M34,26.25V36H18a2,2,0,0,1-2-2V27l8,3Z"/><path fill="#ffde76" d="M8.91,31,9,24.74a1,1,0,1,1,2,0L10.91,31A1,1,0,0,1,8.91,31Z"/><path fill="#374f68" d="M40,24,24,30,8,24l16-6Z"/><polygon fill="#425b72" points="37.33 23 24 28 10.67 23 24 18 37.33 23"/><path d="M45,0H3A3,3,0,0,0,0,3V45a3,3,0,0,0,3,3H45a3,3,0,0,0,3-3V3A3,3,0,0,0,45,0ZM2,3A1,1,0,0,1,3,2H45a1,1,0,0,1,1,1V8H2ZM46,45a1,1,0,0,1-1,1H3a1,1,0,0,1-1-1V10H46Z"/><path d="M5.38 4.08a1 1 0 0 0-.76 1.84A1 1 0 0 0 5.38 4.08zM8.8 4a1 1 0 1 0 1 1.54A1 1 0 0 0 8.8 4zM12.29 4.29a1 1 0 0 0 1.42 1.42A1 1 0 0 0 12.29 4.29zM7.65 24.94l1.33.5L8.91 31a1 1 0 0 0 2 0L11 26.18l2 .76V36a3 3 0 0 0 3 3H32a3 3 0 0 0 3-3V26.94c5.64-2.11 6-2 6-2.94s.39-.55-16.65-6.94c-.5-.18.77-.55-16.7 6A1 1 0 0 0 7.65 24.94zM33 36a1 1 0 0 1-1 1H16a1 1 0 0 1-1-1V27.69C24.39 31.22 23.74 31 24 31s-.48.25 9-3.31zM24 19.07L37.15 24 24 28.93 10.85 24z"/></g></svg>