<svg id="SvgjsSvg1026" width="288" height="288" xmlns="http://www.w3.org/2000/svg" version="1.1" xmlns:xlink="http://www.w3.org/1999/xlink" xmlns:svgjs="http://svgjs.com/svgjs"><defs id="SvgjsDefs1027"></defs><g id="SvgjsG1028"><svg xmlns="http://www.w3.org/2000/svg" xmlns:xlink="http://www.w3.org/1999/xlink" width="288" height="288" viewBox="0 0 64 64"><defs><path id="a" d="M.06 64V.04H64V64z" fill="#000000" class="color000 svgShape"></path></defs><g fill="none" fill-rule="evenodd"><mask id="b" fill="#fff"><use xlink:href="#a"></use></mask><path fill="#49beb7" d="M64 32c0 17.673-14.327 32-32 32C14.327 64 0 49.673 0 32 0 14.327 14.327 0 32 0c17.673 0 32 14.327 32 32" mask="url(#b)" class="color76ABC4 svgShape"></path><path fill="#63a09c" d="M48 54H16a4 4 0 0 1-4-4V25v23a4 4 0 0 0 4 4h32a4 4 0 0 0 4-4v2a4 4 0 0 1-4 4" class="color638DA0 svgShape"></path><path fill="#f9f9f9" d="M12 23v25a4 4 0 0 0 4 4h32a4 4 0 0 0 4-4V23H12" class="colorFFFFFE svgShape"></path><path fill="#cfcdc8" d="M12 25h40v-2H12z" class="colorCFCDC8 svgShape"></path><path fill="#ff5959" d="M48 12H16a4 4 0 0 0-4 4v7h40v-7a4 4 0 0 0-4-4" class="colorB85756 svgShape"></path><path fill="#085f63" d="M32 48a2 2 0 0 1-2-2c0-5.515 1.757-9.455 3.491-12H27a2 2 0 0 1 0-4h11a2 2 0 0 1 1.156 3.632C38.957 33.778 34 37.493 34 46a2 2 0 0 1-2 2" class="color4C5665 svgShape"></path><path fill="#63a09c" d="M22 12h-4a2 2 0 0 1 4 0" class="color638DA0 svgShape"></path><path fill="#974c4c" d="M20 21a2 2 0 0 1-2-2v-7h4v7a2 2 0 0 1-2 2" class="color974D4C svgShape"></path><path fill="#63a09c" d="M47 12h-4a2 2 0 0 1 4 0" class="color638DA0 svgShape"></path><path fill="#974c4c" d="M45 21a2 2 0 0 1-2-2v-7h4v7a2 2 0 0 1-2 2" class="color974D4C svgShape"></path><path fill="#facf5a" d="M20 19a2 2 0 01-2-2v-7a2 2 0 114 0v7a2 2 0 01-2 2M45 19a2 2 0 01-2-2v-7a2 2 0 114 0v7a2 2 0 01-2 2" class="colorDEDECA svgShape"></path></g></svg></g></svg>