<svg id="Filled" height="512" viewBox="0 0 512 512" width="512" xmlns="http://www.w3.org/2000/svg"><path d="m160 24h256a32 32 0 0 1 32 32v32a0 0 0 0 1 0 0h-288a0 0 0 0 1 0 0v-64a0 0 0 0 1 0 0z" fill="#dadcde"/><path d="m416 24h-320a32 32 0 0 0 -32 32v432h320v-432a32 32 0 0 1 32-32z" fill="#e9eef2"/><path d="m439.515 263.515-23.03-23.03a28.971 28.971 0 0 0 -20.485-8.485 28.969 28.969 0 0 0 -20.485 8.485l-115.5 115.5a64.007 64.007 0 0 0 -16.49 28.415l-19.525 71.6 71.6-19.528a64 64 0 0 0 28.415-16.49l115.5-115.5a28.971 28.971 0 0 0 0-40.97z" fill="#fbe9d8"/><path d="m274.28 442.28-50.28 13.72 13.72-50.28z" fill="#6a7073"/><path d="m416 328-91.98 91.98-.02.02-64-64 .02-.02 91.98-91.98z" fill="#3397e8"/><path d="m272.118 323.029h135.765v33.941h-135.765z" fill="#2978b8" transform="matrix(.707 -.707 .707 .707 -140.833 340)"/><path d="m416.485 240.485 23.03 23.03a28.971 28.971 0 0 1 8.485 20.485 28.971 28.971 0 0 1 -8.485 20.485l-23.515 23.515-64-64 23.515-23.515a28.969 28.969 0 0 1 20.485-8.485 28.971 28.971 0 0 1 20.485 8.485z" fill="#eb423f"/><path d="m380.686 242.745h22.627v90.51h-22.627z" fill="#ffd33a" transform="matrix(.707 -.707 .707 .707 -88.833 361.539)"/><path d="m112 88h64v64h-64z" fill="#eb423f"/><path d="m112 200h64v64h-64z" fill="#3397e8"/><path d="m224 200h64v64h-64z" fill="#c3c6c7"/><path d="m112 312h64v64h-64z" fill="#ffd33a"/><path d="m448 96a8 8 0 0 0 8-8v-32a40.045 40.045 0 0 0 -40-40h-320a40.045 40.045 0 0 0 -40 40v432a8 8 0 0 0 8 8h320a8 8 0 0 0 8-8v-124.685l53.172-53.173a36.972 36.972 0 0 0 0-52.285l-23.029-23.029a36.736 36.736 0 0 0 -26.143-10.828 37.642 37.642 0 0 0 -4 .219v-128.219zm-32-64a24.028 24.028 0 0 1 24 24v24h-48v-24a24.028 24.028 0 0 1 24-24zm-174.195 389.119 17.076 17.081-23.48 6.4zm34.855 12.227-30.006-30.006 4.592-16.837a56.1 56.1 0 0 1 9.169-18.774l51.855 51.856a56.081 56.081 0 0 1 -18.773 9.169zm75.34-158.031 8.685 8.685-80.685 80.685-8.685-8.685zm-60.685 100.685 80.685-80.685 12.685 12.685-80.685 80.685zm72-112 4.685-4.686 52.686 52.686-4.686 4.686zm-39.315 144.685-8.685-8.685 80.685-80.685 8.685 8.685zm86.828-162.542 23.029 23.029a20.967 20.967 0 0 1 0 29.656l-1.857 1.857-52.685-52.685 1.857-1.857a20.967 20.967 0 0 1 29.656 0zm-40.971-11.315-115.5 115.5a72.134 72.134 0 0 0 -18.551 31.969l-17.916 65.703h-89.89a8 8 0 0 1 0-16h16a8 8 0 0 0 8-8v-40h24a8 8 0 0 0 8-8v-64a8 8 0 0 0 -8-8h-24v-32h24a8 8 0 0 0 8-8v-24h32v24a8 8 0 0 0 8 8h64a8 8 0 0 0 8-8v-64a8 8 0 0 0 -8-8h-64a8 8 0 0 0 -8 8v24h-32v-24a8 8 0 0 0 -8-8h-24v-32h24a8 8 0 0 0 8-8v-64a8 8 0 0 0 -8-8h-64a8 8 0 0 0 -8 8v64a8 8 0 0 0 8 8h24v32h-24a8 8 0 0 0 -8 8v64a8 8 0 0 0 8 8h24v32h-24a8 8 0 0 0 -8 8v64a8 8 0 0 0 8 8h24v32h-8a24 24 0 0 0 0 48h96a7.973 7.973 0 0 0 2.1-.282l71.6-19.528a72.136 72.136 0 0 0 31.968-18.551l46.332-46.324v100.685h-304v-424a24.028 24.028 0 0 1 24-24h288.019a39.794 39.794 0 0 0 -8.019 24v173.873a37.338 37.338 0 0 0 -6.143 4.955zm-201.857 85.172v48h-48v-48zm0-112v48h-48v-48zm64 48v-48h48v48zm-112-112v-48h48v48z"/><path d="m240 96h32a8 8 0 0 0 0-16h-32a8 8 0 0 0 0 16z"/><path d="m336 112h-112a8 8 0 0 0 0 16h112a8 8 0 0 0 0-16z"/><path d="m336 144h-112a8 8 0 0 0 0 16h112a8 8 0 0 0 0-16z"/><path d="m336 80h-32a8 8 0 0 0 0 16h32a8 8 0 0 0 0-16z"/></svg>