<svg height="512" viewBox="0 0 512 512" width="512" xmlns="http://www.w3.org/2000/svg" xmlns:xlink="http://www.w3.org/1999/xlink"><linearGradient id="New_Gradient_Swatch_22" gradientUnits="userSpaceOnUse" x1="188.118" x2="323.882" y1="323.882" y2="188.118"><stop offset=".011" stop-color="#dcdce3"/><stop offset="1" stop-color="#ededf1"/></linearGradient><linearGradient id="New_Gradient_Swatch_1" gradientUnits="userSpaceOnUse" x1="43.488" x2="108.512" y1="368.512" y2="303.488"><stop offset=".004" stop-color="#f1cccd"/><stop offset="1" stop-color="#faeeee"/></linearGradient><linearGradient id="New_Gradient_Swatch_4" gradientUnits="userSpaceOnUse" x1="19.035" x2="132.965" y1="508.006" y2="394.077"><stop offset=".011" stop-color="#cacad5"/><stop offset="1" stop-color="#ededf1"/></linearGradient><linearGradient id="New_Gradient_Swatch_3" gradientUnits="userSpaceOnUse" x1="42.851" x2="97.858" y1="346.592" y2="291.584"><stop offset=".011" stop-color="#606082"/><stop offset="1" stop-color="#83839e"/></linearGradient><linearGradient id="New_Gradient_Swatch_1-2" x1="405.488" x2="470.512" xlink:href="#New_Gradient_Swatch_1" y1="86.512" y2="21.488"/><linearGradient id="New_Gradient_Swatch_4-2" x1="381.035" x2="494.965" xlink:href="#New_Gradient_Swatch_4" y1="226.006" y2="112.077"/><linearGradient id="New_Gradient_Swatch_3-2" x1="404.851" x2="459.858" xlink:href="#New_Gradient_Swatch_3" y1="64.592" y2="9.584"/><g id="_08-shift" data-name="08-shift"><g id="gradient"><circle cx="256" cy="256" fill="url(#New_Gradient_Swatch_22)" r="96"/><path d="m256 148a108 108 0 1 0 108 108 108.123 108.123 0 0 0 -108-108zm12 191.129v-11.129a12 12 0 0 0 -24 0v11.129a84.17 84.17 0 0 1 -71.129-71.129h11.129a12 12 0 0 0 0-24h-11.129a84.17 84.17 0 0 1 71.129-71.129v11.129a12 12 0 0 0 24 0v-11.129a84.17 84.17 0 0 1 71.129 71.129h-11.129a12 12 0 0 0 0 24h11.129a84.17 84.17 0 0 1 -71.129 71.129z" fill="#717190"/><path d="m256 268a11.977 11.977 0 0 1 -5.364-1.267l-32-16a12 12 0 1 1 10.734-21.466l24.26 12.133 25.885-25.884a12 12 0 0 1 16.97 16.97l-32 32a11.99 11.99 0 0 1 -8.485 3.514z" fill="#d97779"/><path d="m280.485 63.515-32-32a12 12 0 0 0 -16.97 16.97l11.928 11.929c-102.243 6.497-183.443 91.73-183.443 195.586a12 12 0 0 0 24 0c0-90.3 69.945-164.565 158.5-171.472l-10.985 10.987a12 12 0 1 0 16.97 16.97l32-32a12 12 0 0 0 0-16.97z" fill="#fada7f"/><path d="m452 256a12 12 0 0 0 -24 0c0 90.3-69.946 164.565-158.5 171.472l10.986-10.987a12 12 0 0 0 -16.97-16.97l-32 32a12 12 0 0 0 0 16.97l32 32a12 12 0 0 0 16.97-16.97l-11.928-11.929c102.242-6.497 183.442-91.73 183.442-195.586z" fill="#fada7f"/><circle cx="76" cy="336" fill="url(#New_Gradient_Swatch_1)" r="46"/><path d="m108 384h-64a36.04 36.04 0 0 0 -36 36v72a12 12 0 0 0 12 12h112a12 12 0 0 0 12-12v-72a36.04 36.04 0 0 0 -36-36z" fill="url(#New_Gradient_Swatch_4)"/><path d="m116.366 313.317c-5.318-10.637-16.638-23.317-40.366-23.317h-63.953a6.013 6.013 0 0 0 -6.047 5.943c-.037 28.057 26.954 31.674 28.1 32.057a6 6 0 0 0 1.9.308l60-.308 8 37.7a4 4 0 0 0 7.264 2.316c5-7.016 10.736-18.228 10.736-32.016a55.916 55.916 0 0 0 -5.634-22.683z" fill="url(#New_Gradient_Swatch_3)"/><circle cx="438" cy="54" fill="url(#New_Gradient_Swatch_1-2)" r="46"/><path d="m470 102h-64a36.04 36.04 0 0 0 -36 36v72a12 12 0 0 0 12 12h112a12 12 0 0 0 12-12v-72a36.04 36.04 0 0 0 -36-36z" fill="url(#New_Gradient_Swatch_4-2)"/><path d="m478.366 31.317c-5.318-10.637-16.638-23.317-40.366-23.317h-63.953a6.013 6.013 0 0 0 -6.047 5.943c-.037 28.057 26.954 31.674 28.1 32.057a6 6 0 0 0 1.9.308l60-.308 8 37.7a4 4 0 0 0 7.264 2.316c5-7.016 10.736-18.228 10.736-32.016a55.916 55.916 0 0 0 -5.634-22.683z" fill="url(#New_Gradient_Swatch_3-2)"/></g></g></svg>